<?xml version="1.0" encoding="UTF-8" standalone="no"?>
<svg
   xmlns:dc="http://purl.org/dc/elements/1.1/"
   xmlns:cc="http://creativecommons.org/ns#"
   xmlns:rdf="http://www.w3.org/1999/02/22-rdf-syntax-ns#"
   xmlns:svg="http://www.w3.org/2000/svg"
   xmlns="http://www.w3.org/2000/svg"
   xmlns:sodipodi="http://sodipodi.sourceforge.net/DTD/sodipodi-0.dtd"
   xmlns:inkscape="http://www.inkscape.org/namespaces/inkscape"
   version="1.1"
   id="Layer_1"
   x="0px"
   y="0px"
   width="565"
   height="565"
   viewBox="-360.791 -360.781 565.00001 564.99999"
   xml:space="preserve"
   inkscape:version="0.47 r22583"
   sodipodi:docname="Spain_traffic_signal_s7-50.svg"><metadata
   id="metadata15"><rdf:RDF><cc:Work
       rdf:about=""><dc:format>image/svg+xml</dc:format><dc:type
         rdf:resource="http://purl.org/dc/dcmitype/StillImage" /><dc:title></dc:title></cc:Work></rdf:RDF></metadata><defs
   id="defs13"><inkscape:perspective
     sodipodi:type="inkscape:persp3d"
     inkscape:vp_x="0 : 384.828 : 1"
     inkscape:vp_y="0 : 1000 : 0"
     inkscape:vp_z="769.68799 : 384.828 : 1"
     inkscape:persp3d-origin="384.84399 : 256.552 : 1"
     id="perspective17" /><inkscape:perspective
     id="perspective2859"
     inkscape:persp3d-origin="0.5 : 0.33333333 : 1"
     inkscape:vp_z="1 : 0.5 : 1"
     inkscape:vp_y="0 : 1000 : 0"
     inkscape:vp_x="0 : 0.5 : 1"
     sodipodi:type="inkscape:persp3d" /><inkscape:perspective
     id="perspective2883"
     inkscape:persp3d-origin="0.5 : 0.33333333 : 1"
     inkscape:vp_z="1 : 0.5 : 1"
     inkscape:vp_y="0 : 1000 : 0"
     inkscape:vp_x="0 : 0.5 : 1"
     sodipodi:type="inkscape:persp3d" /><inkscape:perspective
     id="perspective2823"
     inkscape:persp3d-origin="0.5 : 0.33333333 : 1"
     inkscape:vp_z="1 : 0.5 : 1"
     inkscape:vp_y="0 : 1000 : 0"
     inkscape:vp_x="0 : 0.5 : 1"
     sodipodi:type="inkscape:persp3d" /><inkscape:perspective
     id="perspective2831"
     inkscape:persp3d-origin="0.5 : 0.33333333 : 1"
     inkscape:vp_z="1 : 0.5 : 1"
     inkscape:vp_y="0 : 1000 : 0"
     inkscape:vp_x="0 : 0.5 : 1"
     sodipodi:type="inkscape:persp3d" /></defs><sodipodi:namedview
   pagecolor="#ffffff"
   bordercolor="#666666"
   borderopacity="1"
   objecttolerance="10"
   gridtolerance="10"
   guidetolerance="10"
   inkscape:pageopacity="0"
   inkscape:pageshadow="2"
   inkscape:window-width="1920"
   inkscape:window-height="1020"
   id="namedview11"
   showgrid="false"
   inkscape:zoom="0.61326098"
   inkscape:cx="537.36343"
   inkscape:cy="152.20079"
   inkscape:window-x="-4"
   inkscape:window-y="-4"
   inkscape:window-maximized="1"
   inkscape:current-layer="Layer_1" />




<g
   id="g2955"><g
     id="g2948"><path
       style="fill:#ffffff"
       id="path13"
       d="m 203.1596,171.91171 c 0,17.26869 -13.9889,31.25785 -31.25728,31.25785 l -500.37078,0 c -17.2737,0 -31.2731,-13.99966 -31.2731,-31.25785 l 0,-500.35918 c 0,-17.26344 13.9994,-31.28409 31.2731,-31.28409 l 500.36028,0 c 17.26838,0 31.25728,14.02065 31.25728,31.28409 l 0,500.35918 0,0 z" /><path
       style="fill:none;stroke:#1c1d20;stroke-width:2.09887981;stroke-miterlimit:3.86400008"
       id="path15"
       d="m 203.1596,171.91171 c 0,17.26869 -13.9889,31.25785 -31.25728,31.25785 l -500.37078,0 c -17.2737,0 -31.2731,-13.99966 -31.2731,-31.25785 l 0,-500.35918 c 0,-17.26344 13.9994,-31.28409 31.2731,-31.28409 l 500.36028,0 c 17.26838,0 31.25728,14.02065 31.25728,31.28409 l 0,500.35918 0,0 z"
       stroke-miterlimit="3.864" /><path
       style="fill:#19408b"
       id="path17"
       d="m 189.41469,-328.44747 c 0,-9.67592 -7.84974,-17.51531 -17.52549,-17.51531 l -500.35766,0 c -9.6784,0 -17.5045,7.83939 -17.5045,17.51531 l 0,500.36968 c 0,9.66542 7.8235,17.5258 17.5045,17.5258 l 500.36028,0 c 9.67575,0 17.52549,-7.86038 17.52549,-17.5258 l 0,-500.36968" /><path
       style="fill-rule:evenodd;fill:#ffffff"
       d="m 118.11934,-126.5562 c -9.75422,-40.27762 -48.683248,-69.22481 -90.880668,-69.22481 -40.60267,0 -79.5327,28.94719 -90.91862,69.22481 -8.12053,28.945207 -8.12053,69.222827 0,96.588037 11.38592,40.24096 50.31595,69.18716 90.91862,69.18716 42.19742,0 81.126448,-28.9462 90.880668,-69.18716 8.11954,-27.36422 8.11954,-67.64184 0,-96.588037 z m -48.683248,80.479957 c -3.26339,19.30869 -21.09721,33.8021 -42.19742,33.8021 -19.4675096,0 -37.37522,-14.49341 -40.60267,-33.8021 -3.26339,-19.31166 -3.26339,-45.05923 0,-62.788907 3.22745,-20.92732 21.1351604,-35.42073 40.60267,-35.42073 21.10021,0 38.93403,14.49242 42.19742,35.42073 3.22245,17.729677 3.22245,43.477247 0,62.788907 z"
       id="path7" /><path
       style="fill-rule:evenodd;fill:#ffffff"
       d="m -271.32774,36.182817 163.08172,0 0,-47.6417 -72.28592,0 36.4086,-30.37959 c 3.1546,-2.63003 8.4351,-7.31456 11.5887,-9.9436 14.79602,-15.15512 25.35112,-40.30239 25.35112,-61.765617 0,-14.15165 -5.27555,-33.51384 -12.65014,-46.0637 -3.1825,-4.22984 -8.98831,-9.96737 -12.69998,-13.64842 -4.2161,-3.63351 -11.0604,-8.36558 -16.336,-10.99661 -5.8058,-3.1065 -15.3014,-6.26155 -21.6624,-7.84155 -23.2032,-6.26156 -54.8915,-2.62805 -75.9767,9.41858 -7.9258,4.73307 -17.4184,14.15165 -22.1657,22.51723 -8.9883,15.72769 -13.7356,40.32518 -11.6156,58.13311 l 52.7705,0 c -1.0595,-6.83709 0,-16.25369 2.6522,-22.51723 4.7224,-12.57264 17.9257,-21.46521 30.6018,-21.46521 3.6848,0 9.4946,0.52699 13.1804,1.57801 9.4916,2.05648 17.9736,10.9976 19.5414,20.41321 1.5908,10.9966 -2.121,25.124477 -8.9883,33.513827 -6.8443,8.89357 -18.4809,20.9402 -27.4223,27.72678 l -69.1333,51.32078 c -2.6493,2.1040201 -4.2401,5.7622901 -4.2401,8.9163501 l 0,38.7253499"
       id="path9" /></g></g></svg>