<?xml version="1.0" encoding="UTF-8" standalone="no"?>
<svg
   xmlns:dc="http://purl.org/dc/elements/1.1/"
   xmlns:cc="http://creativecommons.org/ns#"
   xmlns:rdf="http://www.w3.org/1999/02/22-rdf-syntax-ns#"
   xmlns:svg="http://www.w3.org/2000/svg"
   xmlns="http://www.w3.org/2000/svg"
   xmlns:sodipodi="http://sodipodi.sourceforge.net/DTD/sodipodi-0.dtd"
   xmlns:inkscape="http://www.inkscape.org/namespaces/inkscape"
   version="1.1"
   id="Layer_1"
   x="0px"
   y="0px"
   width="565"
   height="565"
   viewBox="-360.791 -360.781 565.00001 564.99999"
   xml:space="preserve"
   inkscape:version="0.47 r22583"
   sodipodi:docname="Spain_traffic_signal_s7-20.svg"><metadata
   id="metadata15"><rdf:RDF><cc:Work
       rdf:about=""><dc:format>image/svg+xml</dc:format><dc:type
         rdf:resource="http://purl.org/dc/dcmitype/StillImage" /><dc:title></dc:title></cc:Work></rdf:RDF></metadata><defs
   id="defs13"><inkscape:perspective
     sodipodi:type="inkscape:persp3d"
     inkscape:vp_x="0 : 384.828 : 1"
     inkscape:vp_y="0 : 1000 : 0"
     inkscape:vp_z="769.68799 : 384.828 : 1"
     inkscape:persp3d-origin="384.84399 : 256.552 : 1"
     id="perspective17" /><inkscape:perspective
     id="perspective2859"
     inkscape:persp3d-origin="0.5 : 0.33333333 : 1"
     inkscape:vp_z="1 : 0.5 : 1"
     inkscape:vp_y="0 : 1000 : 0"
     inkscape:vp_x="0 : 0.5 : 1"
     sodipodi:type="inkscape:persp3d" /><inkscape:perspective
     id="perspective2883"
     inkscape:persp3d-origin="0.5 : 0.33333333 : 1"
     inkscape:vp_z="1 : 0.5 : 1"
     inkscape:vp_y="0 : 1000 : 0"
     inkscape:vp_x="0 : 0.5 : 1"
     sodipodi:type="inkscape:persp3d" /><inkscape:perspective
     id="perspective2823"
     inkscape:persp3d-origin="0.5 : 0.33333333 : 1"
     inkscape:vp_z="1 : 0.5 : 1"
     inkscape:vp_y="0 : 1000 : 0"
     inkscape:vp_x="0 : 0.5 : 1"
     sodipodi:type="inkscape:persp3d" /><inkscape:perspective
     id="perspective2831"
     inkscape:persp3d-origin="0.5 : 0.33333333 : 1"
     inkscape:vp_z="1 : 0.5 : 1"
     inkscape:vp_y="0 : 1000 : 0"
     inkscape:vp_x="0 : 0.5 : 1"
     sodipodi:type="inkscape:persp3d" /><inkscape:perspective
     id="perspective2831-4"
     inkscape:persp3d-origin="0.5 : 0.33333333 : 1"
     inkscape:vp_z="1 : 0.5 : 1"
     inkscape:vp_y="0 : 1000 : 0"
     inkscape:vp_x="0 : 0.5 : 1"
     sodipodi:type="inkscape:persp3d" /></defs><sodipodi:namedview
   pagecolor="#ffffff"
   bordercolor="#666666"
   borderopacity="1"
   objecttolerance="10"
   gridtolerance="10"
   guidetolerance="10"
   inkscape:pageopacity="0"
   inkscape:pageshadow="2"
   inkscape:window-width="1920"
   inkscape:window-height="1020"
   id="namedview11"
   showgrid="false"
   inkscape:zoom="0.61326098"
   inkscape:cx="537.36343"
   inkscape:cy="152.20079"
   inkscape:window-x="-4"
   inkscape:window-y="-4"
   inkscape:window-maximized="1"
   inkscape:current-layer="Layer_1" />




<g
   id="g2985"><g
     id="g2968"><g
       id="g2963"><path
         d="m 203.1596,171.91171 c 0,17.26869 -13.9889,31.25785 -31.25728,31.25785 l -500.37078,0 c -17.2737,0 -31.2731,-13.99966 -31.2731,-31.25785 l 0,-500.35918 c 0,-17.26344 13.9994,-31.28409 31.2731,-31.28409 l 500.36028,0 c 17.26838,0 31.25728,14.02065 31.25728,31.28409 l 0,500.35918 0,0 z"
         id="path13"
         style="fill:#ffffff" /><path
         stroke-miterlimit="3.864"
         d="m 203.1596,171.91171 c 0,17.26869 -13.9889,31.25785 -31.25728,31.25785 l -500.37078,0 c -17.2737,0 -31.2731,-13.99966 -31.2731,-31.25785 l 0,-500.35918 c 0,-17.26344 13.9994,-31.28409 31.2731,-31.28409 l 500.36028,0 c 17.26838,0 31.25728,14.02065 31.25728,31.28409 l 0,500.35918 0,0 z"
         id="path15"
         style="fill:none;stroke:#1c1d20;stroke-width:2.09887981;stroke-miterlimit:3.86400008" /><path
         d="m 189.41469,-328.44747 c 0,-9.67592 -7.84974,-17.51531 -17.52549,-17.51531 l -500.35766,0 c -9.6784,0 -17.5045,7.83939 -17.5045,17.51531 l 0,500.36968 c 0,9.66542 7.8235,17.5258 17.5045,17.5258 l 500.36028,0 c 9.67575,0 17.52549,-7.86038 17.52549,-17.5258 l 0,-500.36968"
         id="path17"
         style="fill:#19408b" /></g></g><path
     id="path7"
     d="m -285.791,-30.223818 c 1.98144,7.87577 5.84376,19.55707 7.8023,25.4245797 7.8272,15.5435503 23.35215,33.1471003 38.98166,38.9111203 23.42981,9.77952 58.52425,9.77952 83.93849,2.00726 19.51572,-7.77128 37.02411,-25.37383 42.89475,-44.8293903 1.90378,-7.8230197 3.9131,-19.5580597 3.9131,-25.3200897 0,-9.78052 -3.9131,-19.507303 -5.86965,-27.382076 -5.92142,-7.77227 -15.63149,-13.637797 -23.4318,-17.498058 5.87064,-1.905749 13.64606,-7.772271 19.51771,-13.640783 7.77442,-11.786785 9.78275,-31.189595 3.91409,-46.784895 -5.92142,-21.46082 -27.29412,-42.87188 -48.76838,-48.74039 -19.51572,-5.86752 -46.80785,-5.86752 -66.32457,0 -5.84376,2.00725 -13.64606,5.86751 -19.49182,7.77227 -19.56749,11.73404 -35.09444,37.15961 -35.09444,60.47543 l 52.68248,5.81577 c -2.01131,-9.72679 3.86033,-21.41007 13.64408,-25.32208 9.78574,-5.86752 23.35414,-7.82302 33.13789,-3.80851 9.78374,1.853 17.50838,11.52903 17.50838,23.31482 -1.93066,5.81577 -5.84376,11.68328 -11.66462,13.63979 -9.70409,5.86751 -25.33359,7.822027 -37.07588,5.86751 l 0,46.784895 c 9.73097,-2.007257 25.38636,-2.007257 33.16378,0 9.73296,1.903758 17.56115,7.771277 19.51571,17.548817 1.98344,9.72877 -1.95456,19.45555 -9.78175,23.36656 -5.82086,3.9120197 -13.64607,5.8685197 -21.44837,5.8685197 -3.86432,0 -11.7174,-1.9575 -15.57773,-1.9575 -11.63774,-3.9120097 -21.42149,-15.5425497 -21.42149,-29.2330897 l -54.66392,7.71952"
     style="fill-rule:evenodd;fill:#ffffff" /><path
     id="path9"
     d="m 123.13698,-128.7366 c -9.726,-40.46358 -48.542361,-69.54441 -90.617651,-69.54441 -40.4851594,0 -79.302529,29.08083 -90.655499,69.54441 -8.09703,29.078843 -8.09703,69.542418 0,97.033962 11.35297,40.4267597 50.1703396,69.5066 90.655499,69.5066 42.07529,0 80.891651,-29.0798403 90.617651,-69.5066 8.09604,-27.490548 8.09604,-67.954125 0,-97.033962 z m -48.542361,80.851522 c -3.25395,19.39784 -21.03615,33.95816 -42.07529,33.95816 -19.41117,0 -37.2670595,-14.56032 -40.4851594,-33.95816 -3.2539496,-19.400824 -3.2539496,-45.267259 0,-63.078792 3.2180999,-21.02395 21.0739894,-35.58427 40.4851594,-35.58427 21.03914,0 38.82134,14.55933 42.07529,35.58427 3.21312,17.811533 3.21312,43.677968 0,63.078792 z"
     style="fill-rule:evenodd;fill:#ffffff" /></g></svg>