<?xml version="1.0" encoding="UTF-8" standalone="no"?>
<svg
   xmlns:dc="http://purl.org/dc/elements/1.1/"
   xmlns:cc="http://creativecommons.org/ns#"
   xmlns:rdf="http://www.w3.org/1999/02/22-rdf-syntax-ns#"
   xmlns:svg="http://www.w3.org/2000/svg"
   xmlns="http://www.w3.org/2000/svg"
   xmlns:sodipodi="http://sodipodi.sourceforge.net/DTD/sodipodi-0.dtd"
   xmlns:inkscape="http://www.inkscape.org/namespaces/inkscape"
   version="1.1"
   id="Layer_1"
   x="0px"
   y="0px"
   width="565"
   height="565"
   viewBox="-360.791 -360.781 565.00001 564.99999"
   xml:space="preserve"
   inkscape:version="0.47 r22583"
   sodipodi:docname="Spain_traffic_signal_s7-50.svg"><metadata
   id="metadata15"><rdf:RDF><cc:Work
       rdf:about=""><dc:format>image/svg+xml</dc:format><dc:type
         rdf:resource="http://purl.org/dc/dcmitype/StillImage" /><dc:title></dc:title></cc:Work></rdf:RDF></metadata><defs
   id="defs13"><inkscape:perspective
     sodipodi:type="inkscape:persp3d"
     inkscape:vp_x="0 : 384.828 : 1"
     inkscape:vp_y="0 : 1000 : 0"
     inkscape:vp_z="769.68799 : 384.828 : 1"
     inkscape:persp3d-origin="384.84399 : 256.552 : 1"
     id="perspective17" /><inkscape:perspective
     id="perspective2859"
     inkscape:persp3d-origin="0.5 : 0.33333333 : 1"
     inkscape:vp_z="1 : 0.5 : 1"
     inkscape:vp_y="0 : 1000 : 0"
     inkscape:vp_x="0 : 0.5 : 1"
     sodipodi:type="inkscape:persp3d" /><inkscape:perspective
     id="perspective2883"
     inkscape:persp3d-origin="0.5 : 0.33333333 : 1"
     inkscape:vp_z="1 : 0.5 : 1"
     inkscape:vp_y="0 : 1000 : 0"
     inkscape:vp_x="0 : 0.5 : 1"
     sodipodi:type="inkscape:persp3d" /><inkscape:perspective
     id="perspective2823"
     inkscape:persp3d-origin="0.5 : 0.33333333 : 1"
     inkscape:vp_z="1 : 0.5 : 1"
     inkscape:vp_y="0 : 1000 : 0"
     inkscape:vp_x="0 : 0.5 : 1"
     sodipodi:type="inkscape:persp3d" /></defs><sodipodi:namedview
   pagecolor="#ffffff"
   bordercolor="#666666"
   borderopacity="1"
   objecttolerance="10"
   gridtolerance="10"
   guidetolerance="10"
   inkscape:pageopacity="0"
   inkscape:pageshadow="2"
   inkscape:window-width="1920"
   inkscape:window-height="1020"
   id="namedview11"
   showgrid="false"
   inkscape:zoom="0.61326098"
   inkscape:cx="618.9602"
   inkscape:cy="152.20079"
   inkscape:window-x="-4"
   inkscape:window-y="-4"
   inkscape:window-maximized="1"
   inkscape:current-layer="Layer_1" />




<g
   id="g2918"><g
     id="g2911"><path
       style="fill:#ffffff"
       id="path13"
       d="m 203.1596,171.91171 c 0,17.26869 -13.9889,31.25785 -31.25728,31.25785 l -500.37078,0 c -17.2737,0 -31.2731,-13.99966 -31.2731,-31.25785 l 0,-500.35918 c 0,-17.26344 13.9994,-31.28409 31.2731,-31.28409 l 500.36028,0 c 17.26838,0 31.25728,14.02065 31.25728,31.28409 l 0,500.35918 0,0 z" /><path
       style="fill:none;stroke:#1c1d20;stroke-width:2.09887981;stroke-miterlimit:3.86400008"
       id="path15"
       d="m 203.1596,171.91171 c 0,17.26869 -13.9889,31.25785 -31.25728,31.25785 l -500.37078,0 c -17.2737,0 -31.2731,-13.99966 -31.2731,-31.25785 l 0,-500.35918 c 0,-17.26344 13.9994,-31.28409 31.2731,-31.28409 l 500.36028,0 c 17.26838,0 31.25728,14.02065 31.25728,31.28409 l 0,500.35918 0,0 z"
       stroke-miterlimit="3.864" /><path
       style="fill:#19408b"
       id="path17"
       d="m 189.41469,-328.44747 c 0,-9.67592 -7.84974,-17.51531 -17.52549,-17.51531 l -500.35766,0 c -9.6784,0 -17.5045,7.83939 -17.5045,17.51531 l 0,500.36968 c 0,9.66542 7.8235,17.5258 17.5045,17.5258 l 500.36028,0 c 9.67575,0 17.52549,-7.86038 17.52549,-17.5258 l 0,-500.36968" /><path
       d="m -278.291,-22.090468 c 3.93587,19.7248599 17.66136,39.397405 35.34976,49.234675 13.72549,7.95958 35.34976,13.78889 51.01714,13.78889 37.21355,0 72.59035,-27.58382 82.35292,-63.023565 3.96391,-21.69918 0,-49.334321 -9.76257,-68.955541 -5.90482,-7.9616 -13.72349,-17.796871 -23.56618,-21.752521 -19.6313,-13.7909 -50.96707,-15.82155 -74.58632,-7.85794 l 1.99498,-21.70118 96.15752,0 0,-49.284 -143.21375,0 -13.72349,120.216861 52.93301,7.96159 c 5.85273,-9.83426 17.6884,-15.82054 27.45297,-17.79786 9.83869,0 21.5712,5.88063 27.45097,15.76721 5.90381,7.96361 7.92383,19.777201 5.90381,27.581811 -1.94189,15.82157 -15.66838,29.6144799 -33.35478,29.6144799 -15.72046,0 -31.33777,-11.7612699 -33.33074,-29.6144799 l -49.07525,15.82157"
       id="path7-1"
       style="fill:#ffffff;fill-rule:evenodd" /><path
       d="m 116.79968,-127.5957 c -11.47512,-41.08895 -50.724706,-70.6853 -93.302253,-70.6853 -40.894035,0 -80.143616,29.59635 -91.621746,70.6853 -4.89531,29.595371 -4.89531,70.685321 0,98.629392 11.47813,41.089955 50.727711,70.685305 91.621746,70.685305 42.577547,0 81.827133,-29.59535 93.302253,-70.685305 6.54577,-27.943071 6.54577,-69.033021 0,-98.629392 z m -50.724706,82.179932 c -3.248849,19.71782 -21.309804,34.515 -40.895036,34.515 -21.3047975,0 -39.286636,-14.79718 -42.576546,-34.515 -3.252855,-19.720851 -3.252855,-46.009611 0,-64.113392 3.28991,-21.3349 21.2707475,-36.13207 42.576546,-36.13207 19.585232,0 37.646187,14.79717 40.895036,36.13207 3.291914,18.103781 3.291914,44.393541 0,64.113392 z"
       id="path9-7"
       style="fill:#ffffff;fill-rule:evenodd" /></g></g></svg>