<?xml version="1.0" encoding="UTF-8" standalone="no"?>
<svg
   xmlns:dc="http://purl.org/dc/elements/1.1/"
   xmlns:cc="http://creativecommons.org/ns#"
   xmlns:rdf="http://www.w3.org/1999/02/22-rdf-syntax-ns#"
   xmlns:svg="http://www.w3.org/2000/svg"
   xmlns="http://www.w3.org/2000/svg"
   xmlns:sodipodi="http://sodipodi.sourceforge.net/DTD/sodipodi-0.dtd"
   xmlns:inkscape="http://www.inkscape.org/namespaces/inkscape"
   version="1.1"
   id="Layer_1"
   x="0px"
   y="0px"
   width="565"
   height="565"
   viewBox="-360.791 -360.781 565.00001 564.99999"
   xml:space="preserve"
   inkscape:version="0.47 r22583"
   sodipodi:docname="Spain_traffic_signal_s7-40.svg"><metadata
   id="metadata15"><rdf:RDF><cc:Work
       rdf:about=""><dc:format>image/svg+xml</dc:format><dc:type
         rdf:resource="http://purl.org/dc/dcmitype/StillImage" /><dc:title></dc:title></cc:Work></rdf:RDF></metadata><defs
   id="defs13"><inkscape:perspective
     sodipodi:type="inkscape:persp3d"
     inkscape:vp_x="0 : 384.828 : 1"
     inkscape:vp_y="0 : 1000 : 0"
     inkscape:vp_z="769.68799 : 384.828 : 1"
     inkscape:persp3d-origin="384.84399 : 256.552 : 1"
     id="perspective17" /><inkscape:perspective
     id="perspective2859"
     inkscape:persp3d-origin="0.5 : 0.33333333 : 1"
     inkscape:vp_z="1 : 0.5 : 1"
     inkscape:vp_y="0 : 1000 : 0"
     inkscape:vp_x="0 : 0.5 : 1"
     sodipodi:type="inkscape:persp3d" /><inkscape:perspective
     id="perspective2883"
     inkscape:persp3d-origin="0.5 : 0.33333333 : 1"
     inkscape:vp_z="1 : 0.5 : 1"
     inkscape:vp_y="0 : 1000 : 0"
     inkscape:vp_x="0 : 0.5 : 1"
     sodipodi:type="inkscape:persp3d" /><inkscape:perspective
     id="perspective2823"
     inkscape:persp3d-origin="0.5 : 0.33333333 : 1"
     inkscape:vp_z="1 : 0.5 : 1"
     inkscape:vp_y="0 : 1000 : 0"
     inkscape:vp_x="0 : 0.5 : 1"
     sodipodi:type="inkscape:persp3d" /><inkscape:perspective
     id="perspective2831"
     inkscape:persp3d-origin="0.5 : 0.33333333 : 1"
     inkscape:vp_z="1 : 0.5 : 1"
     inkscape:vp_y="0 : 1000 : 0"
     inkscape:vp_x="0 : 0.5 : 1"
     sodipodi:type="inkscape:persp3d" /><inkscape:perspective
     id="perspective2831-0"
     inkscape:persp3d-origin="0.5 : 0.33333333 : 1"
     inkscape:vp_z="1 : 0.5 : 1"
     inkscape:vp_y="0 : 1000 : 0"
     inkscape:vp_x="0 : 0.5 : 1"
     sodipodi:type="inkscape:persp3d" /><inkscape:perspective
     id="perspective2831-1"
     inkscape:persp3d-origin="0.5 : 0.33333333 : 1"
     inkscape:vp_z="1 : 0.5 : 1"
     inkscape:vp_y="0 : 1000 : 0"
     inkscape:vp_x="0 : 0.5 : 1"
     sodipodi:type="inkscape:persp3d" /></defs><sodipodi:namedview
   pagecolor="#ffffff"
   bordercolor="#666666"
   borderopacity="1"
   objecttolerance="10"
   gridtolerance="10"
   guidetolerance="10"
   inkscape:pageopacity="0"
   inkscape:pageshadow="2"
   inkscape:window-width="1920"
   inkscape:window-height="1020"
   id="namedview11"
   showgrid="false"
   inkscape:zoom="0.61326098"
   inkscape:cx="537.36343"
   inkscape:cy="152.20079"
   inkscape:window-x="-4"
   inkscape:window-y="-4"
   inkscape:window-maximized="1"
   inkscape:current-layer="Layer_1" />




<g
   id="g2842"><g
     id="g2968"><g
       id="g2963"><path
         d="m 203.1596,171.91171 c 0,17.26869 -13.9889,31.25785 -31.25728,31.25785 l -500.37078,0 c -17.2737,0 -31.2731,-13.99966 -31.2731,-31.25785 l 0,-500.35918 c 0,-17.26344 13.9994,-31.28409 31.2731,-31.28409 l 500.36028,0 c 17.26838,0 31.25728,14.02065 31.25728,31.28409 l 0,500.35918 0,0 z"
         id="path13"
         style="fill:#ffffff" /><path
         stroke-miterlimit="3.864"
         d="m 203.1596,171.91171 c 0,17.26869 -13.9889,31.25785 -31.25728,31.25785 l -500.37078,0 c -17.2737,0 -31.2731,-13.99966 -31.2731,-31.25785 l 0,-500.35918 c 0,-17.26344 13.9994,-31.28409 31.2731,-31.28409 l 500.36028,0 c 17.26838,0 31.25728,14.02065 31.25728,31.28409 l 0,500.35918 0,0 z"
         id="path15"
         style="fill:none;stroke:#1c1d20;stroke-width:2.09887981;stroke-miterlimit:3.86400008" /><path
         d="m 189.41469,-328.44747 c 0,-9.67592 -7.84974,-17.51531 -17.52549,-17.51531 l -500.35766,0 c -9.6784,0 -17.5045,7.83939 -17.5045,17.51531 l 0,500.36968 c 0,9.66542 7.8235,17.5258 17.5045,17.5258 l 500.36028,0 c 9.67575,0 17.52549,-7.86038 17.52549,-17.5258 l 0,-500.36968"
         id="path17"
         style="fill:#19408b" /></g></g><path
     id="path7"
     d="m -132.9513,-103.48111 c -3.89079,-1.96747 -9.70139,-5.90341 -15.61329,-7.87087 -21.6576,-13.72221 -55.0397,-11.70268 -76.64614,1.96847 0,-11.75475 7.8598,-21.59409 15.69253,-29.41289 7.83272,-5.90341 21.57935,-7.87087 31.4352,-3.93594 7.86182,2.0716 13.74664,9.83934 15.77077,17.65815 l 47.15482,-19.62662 c -3.96702,-15.63861 -15.76876,-31.32829 -29.51539,-39.1481 -25.54838,-15.74174 -62.89951,-15.74174 -90.39278,0 -1.94489,1.86434 -7.91096,5.80028 -11.80175,7.81981 -9.85585,11.70268 -21.58136,29.36082 -25.47014,45.0515 -7.93804,29.36083 -7.93804,74.569525 0,103.928357 3.88878,15.74273 15.61329,37.28275 27.49127,49.08856 3.89279,1.96946 7.83473,5.80227 11.72451,7.82081 11.80174,5.9034 29.5174,11.85887 41.29106,11.85887 7.8598,0 19.66155,-2.02053 25.57546,-4.04007 9.77761,-1.9144 21.58136,-9.83633 29.41308,-15.63861 35.42931,-33.34683 37.349121,-90.204135 3.89079,-125.521427 z m -27.49428,68.664114 c -1.86866,15.691683 -13.74663,27.4464331 -29.41509,27.4464331 -15.7176,0 -29.51539,-11.7547501 -31.46028,-27.4464331 0,-1.96947 0,-7.870872 0,-11.754743 1.94489,-15.742743 15.74268,-27.444419 31.46028,-27.444419 15.66846,0 27.54643,11.702677 29.41509,27.444419 2.02213,3.883871 2.02213,9.785273 0,11.754743 z"
     style="fill-rule:evenodd;fill:#ffffff" /><path
     id="path9"
     d="m 116.79212,-127.9478 c -11.49281,-40.88427 -50.802879,-70.33321 -93.446039,-70.33321 -40.95705,0 -80.26711,29.44894 -91.76293,70.33321 -4.90284,29.447935 -4.90284,70.333212 0,98.138084 11.49582,40.885273 50.80588,70.333213 91.76293,70.333213 42.64316,0 81.953229,-29.44794 93.446039,-70.333213 6.55585,-27.80387 6.55585,-68.689148 0,-98.138084 z m -50.802879,81.770556 c -3.25386,19.619611 -21.34265,34.343071 -40.95806,34.343071 -21.3376195,0 -39.34717,-14.72346 -42.64215,-34.343071 -3.25786,-19.62261 -3.25786,-45.780416 0,-63.794006 3.29498,-21.22863 21.3035305,-35.95209 42.64215,-35.95209 19.61541,0 37.7042,14.72346 40.95806,35.95209 3.29698,18.01359 3.29698,44.172397 0,63.794006 z"
     style="fill-rule:evenodd;fill:#ffffff" /></g></svg>