<?xml version="1.0" encoding="UTF-8" standalone="no"?>
<svg
   xmlns:dc="http://purl.org/dc/elements/1.1/"
   xmlns:cc="http://creativecommons.org/ns#"
   xmlns:rdf="http://www.w3.org/1999/02/22-rdf-syntax-ns#"
   xmlns:svg="http://www.w3.org/2000/svg"
   xmlns="http://www.w3.org/2000/svg"
   xmlns:sodipodi="http://sodipodi.sourceforge.net/DTD/sodipodi-0.dtd"
   xmlns:inkscape="http://www.inkscape.org/namespaces/inkscape"
   version="1.1"
   id="Layer_1"
   x="0px"
   y="0px"
   width="565"
   height="565"
   viewBox="-360.791 -360.781 565.00001 564.99999"
   xml:space="preserve"
   inkscape:version="0.47 r22583"
   sodipodi:docname="Spain_traffic_signal_s7-70.svg"><metadata
   id="metadata15"><rdf:RDF><cc:Work
       rdf:about=""><dc:format>image/svg+xml</dc:format><dc:type
         rdf:resource="http://purl.org/dc/dcmitype/StillImage" /><dc:title></dc:title></cc:Work></rdf:RDF></metadata><defs
   id="defs13"><inkscape:perspective
     sodipodi:type="inkscape:persp3d"
     inkscape:vp_x="0 : 384.828 : 1"
     inkscape:vp_y="0 : 1000 : 0"
     inkscape:vp_z="769.68799 : 384.828 : 1"
     inkscape:persp3d-origin="384.84399 : 256.552 : 1"
     id="perspective17" /><inkscape:perspective
     id="perspective2859"
     inkscape:persp3d-origin="0.5 : 0.33333333 : 1"
     inkscape:vp_z="1 : 0.5 : 1"
     inkscape:vp_y="0 : 1000 : 0"
     inkscape:vp_x="0 : 0.5 : 1"
     sodipodi:type="inkscape:persp3d" /><inkscape:perspective
     id="perspective2883"
     inkscape:persp3d-origin="0.5 : 0.33333333 : 1"
     inkscape:vp_z="1 : 0.5 : 1"
     inkscape:vp_y="0 : 1000 : 0"
     inkscape:vp_x="0 : 0.5 : 1"
     sodipodi:type="inkscape:persp3d" /><inkscape:perspective
     id="perspective2823"
     inkscape:persp3d-origin="0.5 : 0.33333333 : 1"
     inkscape:vp_z="1 : 0.5 : 1"
     inkscape:vp_y="0 : 1000 : 0"
     inkscape:vp_x="0 : 0.5 : 1"
     sodipodi:type="inkscape:persp3d" /><inkscape:perspective
     id="perspective2831"
     inkscape:persp3d-origin="0.5 : 0.33333333 : 1"
     inkscape:vp_z="1 : 0.5 : 1"
     inkscape:vp_y="0 : 1000 : 0"
     inkscape:vp_x="0 : 0.5 : 1"
     sodipodi:type="inkscape:persp3d" /><inkscape:perspective
     id="perspective2831-0"
     inkscape:persp3d-origin="0.5 : 0.33333333 : 1"
     inkscape:vp_z="1 : 0.5 : 1"
     inkscape:vp_y="0 : 1000 : 0"
     inkscape:vp_x="0 : 0.5 : 1"
     sodipodi:type="inkscape:persp3d" /><inkscape:perspective
     id="perspective2831-4"
     inkscape:persp3d-origin="0.5 : 0.33333333 : 1"
     inkscape:vp_z="1 : 0.5 : 1"
     inkscape:vp_y="0 : 1000 : 0"
     inkscape:vp_x="0 : 0.5 : 1"
     sodipodi:type="inkscape:persp3d" /></defs><sodipodi:namedview
   pagecolor="#ffffff"
   bordercolor="#666666"
   borderopacity="1"
   objecttolerance="10"
   gridtolerance="10"
   guidetolerance="10"
   inkscape:pageopacity="0"
   inkscape:pageshadow="2"
   inkscape:window-width="1920"
   inkscape:window-height="1020"
   id="namedview11"
   showgrid="false"
   inkscape:zoom="0.35355339"
   inkscape:cx="235.8564"
   inkscape:cy="152.20079"
   inkscape:window-x="-4"
   inkscape:window-y="-4"
   inkscape:window-maximized="1"
   inkscape:current-layer="Layer_1" />




<g
   id="g2885"><g
     id="g2968"><g
       id="g2963"><path
         d="m 203.1596,171.91171 c 0,17.26869 -13.9889,31.25785 -31.25728,31.25785 l -500.37078,0 c -17.2737,0 -31.2731,-13.99966 -31.2731,-31.25785 l 0,-500.35918 c 0,-17.26344 13.9994,-31.28409 31.2731,-31.28409 l 500.36028,0 c 17.26838,0 31.25728,14.02065 31.25728,31.28409 l 0,500.35918 0,0 z"
         id="path13"
         style="fill:#ffffff" /><path
         stroke-miterlimit="3.864"
         d="m 203.1596,171.91171 c 0,17.26869 -13.9889,31.25785 -31.25728,31.25785 l -500.37078,0 c -17.2737,0 -31.2731,-13.99966 -31.2731,-31.25785 l 0,-500.35918 c 0,-17.26344 13.9994,-31.28409 31.2731,-31.28409 l 500.36028,0 c 17.26838,0 31.25728,14.02065 31.25728,31.28409 l 0,500.35918 0,0 z"
         id="path15"
         style="fill:none;stroke:#1c1d20;stroke-width:2.09887981;stroke-miterlimit:3.86400008" /><path
         d="m 189.41469,-328.44747 c 0,-9.67592 -7.84974,-17.51531 -17.52549,-17.51531 l -500.35766,0 c -9.6784,0 -17.5045,7.83939 -17.5045,17.51531 l 0,500.36968 c 0,9.66542 7.8235,17.5258 17.5045,17.5258 l 500.36028,0 c 9.67575,0 17.52549,-7.86038 17.52549,-17.5258 l 0,-500.36968"
         id="path17"
         style="fill:#19408b" /></g></g><path
     id="path7"
     d="m 118.35156,-127.21988 c -9.8939,-39.14091 -49.362902,-68.56113 -90.759502,-68.56113 -41.4473,0 -78.8851,29.42022 -90.7833,68.56113 -5.8575,27.403282 -5.8575,70.525642 0,97.928932 11.8972,39.1399201 49.335,68.50969 90.7833,68.50969 41.3976,0 80.866602,-29.3687799 90.759502,-68.50969 7.8099,-27.40229 7.8099,-70.52565 0,-97.928932 z m -49.361902,80.350192 c -2.0053,19.49181 -21.6616,35.21089 -41.3976,35.21089 -19.7070999,0 -37.5423999,-15.71908 -41.4473,-35.21089 -1.9515,-17.63216 -1.9515,-45.03445 0,-62.718042 3.9059001,-19.6481 21.7402001,-35.26233 41.4473,-35.26233 19.736,0 39.3923,15.61521 41.3976,35.26233 3.905,17.683592 3.905,45.085882 0,62.718042 z"
     style="fill-rule:evenodd;fill:#ffffff" /><path
     id="path9"
     d="m -108.86034,-49.388148 c -1.8559,-7.82639 -5.8714,-15.54993 -11.6422,-21.38411 -5.8734,-5.77979 -13.6544,-9.66727 -19.5268,-9.66727 11.6432,-5.83222 23.3899,-17.39377 27.3048,-29.058192 2.0083,-5.78176 2.0083,-13.55771 2.0083,-19.38992 0,-19.38895 -11.7946,-42.6159 -31.3204,-52.23272 -29.2115,-17.49565 -72.181,-17.49565 -103.35,0 -17.645,9.6178 -29.3131,32.84377 -29.3131,52.23272 0,5.83221 0,13.60816 2.0083,19.38992 1.8539,11.664422 13.6524,23.224992 27.3048,29.058192 -7.781,0 -15.6626,3.88847 -19.5746,9.66727 -5.8753,5.8332 -11.7228,13.55772 -13.6544,21.38411 -7.779,29.11061 5.9242,60.00868 31.2218,75.56256 31.2466,17.39278 76.1457,17.39278 107.3655,0 25.2966,-15.55388 39.0247,-46.45195 31.168,-75.56256 z m -101.4434,-94.999962 c 9.7375,-3.88848 23.4428,-3.88848 35.1128,0 7.8568,3.88847 11.7209,11.66442 11.7209,19.44038 0,7.67308 -3.8641,17.39376 -11.7209,19.33848 -11.67,3.88749 -25.3753,3.88749 -35.1128,0 -7.779,-1.94472 -13.7012,-11.66442 -13.7012,-19.33848 0.001,-7.77694 5.9232,-15.55289 13.7012,-19.44038 z m 35.1128,133.727392 c -9.7106,1.9447301 -25.3753,1.9447301 -35.1128,0 -9.7863,-1.94275 -17.5673,-11.61299 -17.5673,-21.28124 0,-11.71586 7.781,-19.44037 17.5673,-23.27741 9.7375,-1.99517 25.4022,-1.99517 35.1128,0 9.7903,3.83704 15.6348,11.56155 15.6348,23.27741 0.001,9.66727 -5.8435,19.33849 -15.6348,21.28124 z"
     style="fill-rule:evenodd;fill:#ffffff" /></g></svg>