<?xml version="1.0" encoding="UTF-8" standalone="no"?>
<svg
   xmlns:dc="http://purl.org/dc/elements/1.1/"
   xmlns:cc="http://creativecommons.org/ns#"
   xmlns:rdf="http://www.w3.org/1999/02/22-rdf-syntax-ns#"
   xmlns:svg="http://www.w3.org/2000/svg"
   xmlns="http://www.w3.org/2000/svg"
   xmlns:sodipodi="http://sodipodi.sourceforge.net/DTD/sodipodi-0.dtd"
   xmlns:inkscape="http://www.inkscape.org/namespaces/inkscape"
   version="1.1"
   id="Layer_1"
   x="0px"
   y="0px"
   width="565"
   height="565"
   viewBox="-360.791 -360.781 565.00001 564.99999"
   xml:space="preserve"
   inkscape:version="0.47 r22583"
   sodipodi:docname="Spain_traffic_signal_s7-90.svg"><metadata
   id="metadata15"><rdf:RDF><cc:Work
       rdf:about=""><dc:format>image/svg+xml</dc:format><dc:type
         rdf:resource="http://purl.org/dc/dcmitype/StillImage" /><dc:title /></cc:Work></rdf:RDF></metadata><defs
   id="defs13"><inkscape:perspective
     sodipodi:type="inkscape:persp3d"
     inkscape:vp_x="0 : 384.828 : 1"
     inkscape:vp_y="0 : 1000 : 0"
     inkscape:vp_z="769.68799 : 384.828 : 1"
     inkscape:persp3d-origin="384.84399 : 256.552 : 1"
     id="perspective17" /><inkscape:perspective
     id="perspective2859"
     inkscape:persp3d-origin="0.5 : 0.33333333 : 1"
     inkscape:vp_z="1 : 0.5 : 1"
     inkscape:vp_y="0 : 1000 : 0"
     inkscape:vp_x="0 : 0.5 : 1"
     sodipodi:type="inkscape:persp3d" /><inkscape:perspective
     id="perspective2883"
     inkscape:persp3d-origin="0.5 : 0.33333333 : 1"
     inkscape:vp_z="1 : 0.5 : 1"
     inkscape:vp_y="0 : 1000 : 0"
     inkscape:vp_x="0 : 0.5 : 1"
     sodipodi:type="inkscape:persp3d" /><inkscape:perspective
     id="perspective2823"
     inkscape:persp3d-origin="0.5 : 0.33333333 : 1"
     inkscape:vp_z="1 : 0.5 : 1"
     inkscape:vp_y="0 : 1000 : 0"
     inkscape:vp_x="0 : 0.5 : 1"
     sodipodi:type="inkscape:persp3d" /><inkscape:perspective
     id="perspective2831"
     inkscape:persp3d-origin="0.5 : 0.33333333 : 1"
     inkscape:vp_z="1 : 0.5 : 1"
     inkscape:vp_y="0 : 1000 : 0"
     inkscape:vp_x="0 : 0.5 : 1"
     sodipodi:type="inkscape:persp3d" /><inkscape:perspective
     id="perspective2831-0"
     inkscape:persp3d-origin="0.5 : 0.33333333 : 1"
     inkscape:vp_z="1 : 0.5 : 1"
     inkscape:vp_y="0 : 1000 : 0"
     inkscape:vp_x="0 : 0.5 : 1"
     sodipodi:type="inkscape:persp3d" /><inkscape:perspective
     id="perspective2831-09"
     inkscape:persp3d-origin="0.5 : 0.33333333 : 1"
     inkscape:vp_z="1 : 0.5 : 1"
     inkscape:vp_y="0 : 1000 : 0"
     inkscape:vp_x="0 : 0.5 : 1"
     sodipodi:type="inkscape:persp3d" /></defs><sodipodi:namedview
   pagecolor="#ffffff"
   bordercolor="#666666"
   borderopacity="1"
   objecttolerance="10"
   gridtolerance="10"
   guidetolerance="10"
   inkscape:pageopacity="0"
   inkscape:pageshadow="2"
   inkscape:window-width="1920"
   inkscape:window-height="1020"
   id="namedview11"
   showgrid="false"
   inkscape:zoom="0.35355339"
   inkscape:cx="235.8564"
   inkscape:cy="152.20079"
   inkscape:window-x="-4"
   inkscape:window-y="-4"
   inkscape:window-maximized="1"
   inkscape:current-layer="Layer_1" />




<g
   id="g2905"><g
     id="g2968"><g
       id="g2963"><path
         d="m 203.1596,171.91171 c 0,17.26869 -13.9889,31.25785 -31.25728,31.25785 l -500.37078,0 c -17.2737,0 -31.2731,-13.99966 -31.2731,-31.25785 l 0,-500.35918 c 0,-17.26344 13.9994,-31.28409 31.2731,-31.28409 l 500.36028,0 c 17.26838,0 31.25728,14.02065 31.25728,31.28409 l 0,500.35918 0,0 z"
         id="path13"
         style="fill:#ffffff" /><path
         stroke-miterlimit="3.864"
         d="m 203.1596,171.91171 c 0,17.26869 -13.9889,31.25785 -31.25728,31.25785 l -500.37078,0 c -17.2737,0 -31.2731,-13.99966 -31.2731,-31.25785 l 0,-500.35918 c 0,-17.26344 13.9994,-31.28409 31.2731,-31.28409 l 500.36028,0 c 17.26838,0 31.25728,14.02065 31.25728,31.28409 l 0,500.35918 0,0 z"
         id="path15"
         style="fill:none;stroke:#1c1d20;stroke-width:2.09887981;stroke-miterlimit:3.86400008" /><path
         d="m 189.41469,-328.44747 c 0,-9.67592 -7.84974,-17.51531 -17.52549,-17.51531 l -500.35766,0 c -9.6784,0 -17.5045,7.83939 -17.5045,17.51531 l 0,500.36968 c 0,9.66542 7.8235,17.5258 17.5045,17.5258 l 500.36028,0 c 9.67575,0 17.52549,-7.86038 17.52549,-17.5258 l 0,-500.36968"
         id="path17"
         style="fill:#19408b" /></g></g><path
     id="path7"
     d="m 118.30353,-128.16594 c -9.97503,-39.95137 -49.767703,-69.98077 -91.503753,-69.98077 -41.78727,0 -79.5321,30.0294 -91.52785,69.98077 -5.90548,27.9707 -5.90548,71.985963 0,99.956666 11.99474,39.950358 49.73958,69.928271 91.52785,69.928271 41.73706,0 81.529733,-29.976904 91.503753,-69.928271 7.87397,-27.969694 7.87397,-71.985966 0,-99.956666 z m -49.766693,82.013938 c -2.02172,19.895416 -21.83922,35.939976 -41.73706,35.939976 -19.8687103,0 -37.85029,-16.04456 -41.78727,-35.939976 -1.96749,-17.997248 -1.96749,-45.966941 0,-64.016688 3.93799,-20.05494 21.9185597,-35.99248 41.78727,-35.99248 19.89784,0 39.71534,15.93854 41.73706,35.99248 3.93698,18.049747 3.93698,46.01944 0,64.016688 z"
     style="fill-rule:evenodd;fill:#ffffff" /><path
     id="path9"
     d="m -117.27175,-131.27873 c -5.41737,-16.28385 -16.20893,-36.20249 -28.8354,-47.05234 -1.79273,-3.66608 -7.22918,-7.24634 -10.79155,-9.04758 -10.82269,-5.46632 -28.82435,-10.90235 -41.44881,-10.90235 -9.00184,0 -19.78737,1.85374 -28.80427,3.66003 -9.01087,1.776 -19.83758,9.04356 -27.06275,16.2899 -34.2146,32.56872 -36.01135,88.726188 -1.79273,124.961995 3.63568,3.605508 9.0169,7.241305 14.42724,9.040525 21.63634,12.65613 54.0331,10.882152 75.66944,-1.79922 0,9.068796 -5.42842,21.724926 -14.43829,27.163982 -9.01087,7.269576 -21.58813,9.0687959 -32.42689,5.409776 -7.16792,-1.806288 -14.37702,-9.075863 -14.37702,-18.118408 l -48.63582,19.978208 c 5.40532,16.2303381 18.00568,32.545488 30.63617,39.781745 27.01655,14.536122 63.03292,14.536122 90.03341,0 3.63166,-1.775999 9.01087,-5.407758 10.84478,-9.042545 10.79356,-10.8488329 21.58612,-28.9389704 27.00249,-43.447832 7.2081,-30.793721 7.2081,-76.076106 0,-106.875886 z m -52.22028,21.75218 c -1.84496,14.482613 -14.42322,27.138742 -30.64721,27.138742 -14.40816,0 -28.84444,-12.656129 -30.63617,-27.139752 0,-3.60248 0,-9.06879 0,-14.48261 1.79273,-14.48361 16.22901,-27.15994 30.63617,-27.15994 16.22399,0 28.80225,12.67633 30.64721,27.15994 1.77064,5.41382 1.77064,10.88013 0,14.48362 z"
     style="fill-rule:evenodd;fill:#ffffff" /></g></svg>