<?xml version="1.0" encoding="UTF-8" standalone="no"?>
<svg
   xmlns:dc="http://purl.org/dc/elements/1.1/"
   xmlns:cc="http://creativecommons.org/ns#"
   xmlns:rdf="http://www.w3.org/1999/02/22-rdf-syntax-ns#"
   xmlns:svg="http://www.w3.org/2000/svg"
   xmlns="http://www.w3.org/2000/svg"
   xmlns:sodipodi="http://sodipodi.sourceforge.net/DTD/sodipodi-0.dtd"
   xmlns:inkscape="http://www.inkscape.org/namespaces/inkscape"
   version="1.1"
   id="Layer_1"
   x="0px"
   y="0px"
   width="565"
   height="565"
   viewBox="-360.791 -360.781 565.00001 564.99999"
   xml:space="preserve"
   inkscape:version="0.47 r22583"
   sodipodi:docname="Spain_traffic_signal_s7-100.svg"><metadata
   id="metadata15"><rdf:RDF><cc:Work
       rdf:about=""><dc:format>image/svg+xml</dc:format><dc:type
         rdf:resource="http://purl.org/dc/dcmitype/StillImage" /><dc:title></dc:title></cc:Work></rdf:RDF></metadata><defs
   id="defs13"><inkscape:perspective
     sodipodi:type="inkscape:persp3d"
     inkscape:vp_x="0 : 384.828 : 1"
     inkscape:vp_y="0 : 1000 : 0"
     inkscape:vp_z="769.68799 : 384.828 : 1"
     inkscape:persp3d-origin="384.84399 : 256.552 : 1"
     id="perspective17" /><inkscape:perspective
     id="perspective2859"
     inkscape:persp3d-origin="0.5 : 0.33333333 : 1"
     inkscape:vp_z="1 : 0.5 : 1"
     inkscape:vp_y="0 : 1000 : 0"
     inkscape:vp_x="0 : 0.5 : 1"
     sodipodi:type="inkscape:persp3d" /><inkscape:perspective
     id="perspective2883"
     inkscape:persp3d-origin="0.5 : 0.33333333 : 1"
     inkscape:vp_z="1 : 0.5 : 1"
     inkscape:vp_y="0 : 1000 : 0"
     inkscape:vp_x="0 : 0.5 : 1"
     sodipodi:type="inkscape:persp3d" /><inkscape:perspective
     id="perspective2823"
     inkscape:persp3d-origin="0.5 : 0.33333333 : 1"
     inkscape:vp_z="1 : 0.5 : 1"
     inkscape:vp_y="0 : 1000 : 0"
     inkscape:vp_x="0 : 0.5 : 1"
     sodipodi:type="inkscape:persp3d" /><inkscape:perspective
     id="perspective2831"
     inkscape:persp3d-origin="0.5 : 0.33333333 : 1"
     inkscape:vp_z="1 : 0.5 : 1"
     inkscape:vp_y="0 : 1000 : 0"
     inkscape:vp_x="0 : 0.5 : 1"
     sodipodi:type="inkscape:persp3d" /><inkscape:perspective
     id="perspective2831-0"
     inkscape:persp3d-origin="0.5 : 0.33333333 : 1"
     inkscape:vp_z="1 : 0.5 : 1"
     inkscape:vp_y="0 : 1000 : 0"
     inkscape:vp_x="0 : 0.5 : 1"
     sodipodi:type="inkscape:persp3d" /><inkscape:perspective
     id="perspective2831-09"
     inkscape:persp3d-origin="0.5 : 0.33333333 : 1"
     inkscape:vp_z="1 : 0.5 : 1"
     inkscape:vp_y="0 : 1000 : 0"
     inkscape:vp_x="0 : 0.5 : 1"
     sodipodi:type="inkscape:persp3d" /><inkscape:perspective
     id="perspective2833"
     inkscape:persp3d-origin="0.5 : 0.33333333 : 1"
     inkscape:vp_z="1 : 0.5 : 1"
     inkscape:vp_y="0 : 1000 : 0"
     inkscape:vp_x="0 : 0.5 : 1"
     sodipodi:type="inkscape:persp3d" /><inkscape:perspective
     id="perspective2833-4"
     inkscape:persp3d-origin="0.5 : 0.33333333 : 1"
     inkscape:vp_z="1 : 0.5 : 1"
     inkscape:vp_y="0 : 1000 : 0"
     inkscape:vp_x="0 : 0.5 : 1"
     sodipodi:type="inkscape:persp3d" /></defs><sodipodi:namedview
   pagecolor="#ffffff"
   bordercolor="#666666"
   borderopacity="1"
   objecttolerance="10"
   gridtolerance="10"
   guidetolerance="10"
   inkscape:pageopacity="0"
   inkscape:pageshadow="2"
   inkscape:window-width="1920"
   inkscape:window-height="1020"
   id="namedview11"
   showgrid="false"
   inkscape:zoom="0.35355339"
   inkscape:cx="235.8564"
   inkscape:cy="152.20079"
   inkscape:window-x="-4"
   inkscape:window-y="-4"
   inkscape:window-maximized="1"
   inkscape:current-layer="Layer_1" />




<g
   id="g2950"><g
     id="g2968"><g
       id="g2963"><path
         d="m 203.1596,171.91171 c 0,17.26869 -13.9889,31.25785 -31.25728,31.25785 l -500.37078,0 c -17.2737,0 -31.2731,-13.99966 -31.2731,-31.25785 l 0,-500.35918 c 0,-17.26344 13.9994,-31.28409 31.2731,-31.28409 l 500.36028,0 c 17.26838,0 31.25728,14.02065 31.25728,31.28409 l 0,500.35918 0,0 z"
         id="path13"
         style="fill:#ffffff" /><path
         stroke-miterlimit="3.864"
         d="m 203.1596,171.91171 c 0,17.26869 -13.9889,31.25785 -31.25728,31.25785 l -500.37078,0 c -17.2737,0 -31.2731,-13.99966 -31.2731,-31.25785 l 0,-500.35918 c 0,-17.26344 13.9994,-31.28409 31.2731,-31.28409 l 500.36028,0 c 17.26838,0 31.25728,14.02065 31.25728,31.28409 l 0,500.35918 0,0 z"
         id="path15"
         style="fill:none;stroke:#1c1d20;stroke-width:2.09887981;stroke-miterlimit:3.86400008" /><path
         d="m 189.41469,-328.44747 c 0,-9.67592 -7.84974,-17.51531 -17.52549,-17.51531 l -500.35766,0 c -9.6784,0 -17.5045,7.83939 -17.5045,17.51531 l 0,500.36968 c 0,9.66542 7.8235,17.5258 17.5045,17.5258 l 500.36028,0 c 9.67575,0 17.52549,-7.86038 17.52549,-17.5258 l 0,-500.36968"
         id="path17"
         style="fill:#19408b" /></g></g><path
     id="path7"
     d="m -254.68952,23.608497 47.85728,0 0,-201.314307 -42.48176,0 0,8.7795 c 0,10.4878 -10.7021,21.02399 -21.26436,21.02399 l -17.71264,0 0,40.1975 33.60248,0 0,131.313317"
     style="fill-rule:evenodd;fill:#ffffff" /><path
     id="path9"
     d="m -130.83888,23.608497 47.857291,0 0,-201.314307 -42.481771,0 0,8.7795 c 0,10.4878 -10.7021,21.02399 -21.26436,21.02399 l -17.71264,0 0,40.1975 33.60248,0 0,131.313317"
     style="fill-rule:evenodd;fill:#ffffff" /><path
     id="path11"
     d="m 126.45185,-122.0141 c -8.88029,-34.97679 -44.304569,-61.2669 -81.460759,-61.2669 -37.2011496,0 -70.80363,26.29011 -81.48175,61.2669 -5.25766,24.488007 -5.25766,63.023607 0,87.511607 10.67812,34.97678976 44.2806004,61.22149 81.48175,61.22149 37.15519,0 72.580469,-26.24470024 81.460759,-61.22149 7.00955,-24.488 7.00955,-63.0236 0,-87.511607 z m -44.305569,71.802117 c -1.79983,17.41878 -19.44255,31.4644 -37.15519,31.4644 -17.68867,0 -33.69538,-14.04661 -37.2011496,-31.4644 -1.75189,-15.75689 -1.75189,-40.2439 0,-56.046207 C 11.295711,-123.81621 27.302421,-137.77 44.991091,-137.77 c 17.71264,0 35.35536,13.95379 37.15519,31.51181 3.50477,15.802307 3.50477,40.289317 0,56.046207 z"
     style="fill-rule:evenodd;fill:#ffffff" /></g></svg>