<?xml version="1.0" encoding="UTF-8" standalone="no"?>
<svg
   xmlns:dc="http://purl.org/dc/elements/1.1/"
   xmlns:cc="http://creativecommons.org/ns#"
   xmlns:rdf="http://www.w3.org/1999/02/22-rdf-syntax-ns#"
   xmlns:svg="http://www.w3.org/2000/svg"
   xmlns="http://www.w3.org/2000/svg"
   xmlns:sodipodi="http://sodipodi.sourceforge.net/DTD/sodipodi-0.dtd"
   xmlns:inkscape="http://www.inkscape.org/namespaces/inkscape"
   version="1.1"
   id="Layer_1"
   x="0px"
   y="0px"
   width="565"
   height="565"
   viewBox="-360.791 -360.781 565.00001 564.99999"
   xml:space="preserve"
   inkscape:version="0.47 r22583"
   sodipodi:docname="Spain_traffic_signal_s7-110.svg"><metadata
   id="metadata15"><rdf:RDF><cc:Work
       rdf:about=""><dc:format>image/svg+xml</dc:format><dc:type
         rdf:resource="http://purl.org/dc/dcmitype/StillImage" /><dc:title></dc:title></cc:Work></rdf:RDF></metadata><defs
   id="defs13"><inkscape:perspective
     sodipodi:type="inkscape:persp3d"
     inkscape:vp_x="0 : 384.828 : 1"
     inkscape:vp_y="0 : 1000 : 0"
     inkscape:vp_z="769.68799 : 384.828 : 1"
     inkscape:persp3d-origin="384.84399 : 256.552 : 1"
     id="perspective17" /><inkscape:perspective
     id="perspective2859"
     inkscape:persp3d-origin="0.5 : 0.33333333 : 1"
     inkscape:vp_z="1 : 0.5 : 1"
     inkscape:vp_y="0 : 1000 : 0"
     inkscape:vp_x="0 : 0.5 : 1"
     sodipodi:type="inkscape:persp3d" /><inkscape:perspective
     id="perspective2883"
     inkscape:persp3d-origin="0.5 : 0.33333333 : 1"
     inkscape:vp_z="1 : 0.5 : 1"
     inkscape:vp_y="0 : 1000 : 0"
     inkscape:vp_x="0 : 0.5 : 1"
     sodipodi:type="inkscape:persp3d" /><inkscape:perspective
     id="perspective2823"
     inkscape:persp3d-origin="0.5 : 0.33333333 : 1"
     inkscape:vp_z="1 : 0.5 : 1"
     inkscape:vp_y="0 : 1000 : 0"
     inkscape:vp_x="0 : 0.5 : 1"
     sodipodi:type="inkscape:persp3d" /><inkscape:perspective
     id="perspective2831"
     inkscape:persp3d-origin="0.5 : 0.33333333 : 1"
     inkscape:vp_z="1 : 0.5 : 1"
     inkscape:vp_y="0 : 1000 : 0"
     inkscape:vp_x="0 : 0.5 : 1"
     sodipodi:type="inkscape:persp3d" /><inkscape:perspective
     id="perspective2831-0"
     inkscape:persp3d-origin="0.5 : 0.33333333 : 1"
     inkscape:vp_z="1 : 0.5 : 1"
     inkscape:vp_y="0 : 1000 : 0"
     inkscape:vp_x="0 : 0.5 : 1"
     sodipodi:type="inkscape:persp3d" /><inkscape:perspective
     id="perspective2831-09"
     inkscape:persp3d-origin="0.5 : 0.33333333 : 1"
     inkscape:vp_z="1 : 0.5 : 1"
     inkscape:vp_y="0 : 1000 : 0"
     inkscape:vp_x="0 : 0.5 : 1"
     sodipodi:type="inkscape:persp3d" /><inkscape:perspective
     id="perspective2833"
     inkscape:persp3d-origin="0.5 : 0.33333333 : 1"
     inkscape:vp_z="1 : 0.5 : 1"
     inkscape:vp_y="0 : 1000 : 0"
     inkscape:vp_x="0 : 0.5 : 1"
     sodipodi:type="inkscape:persp3d" /><inkscape:perspective
     id="perspective2833-8"
     inkscape:persp3d-origin="0.5 : 0.33333333 : 1"
     inkscape:vp_z="1 : 0.5 : 1"
     inkscape:vp_y="0 : 1000 : 0"
     inkscape:vp_x="0 : 0.5 : 1"
     sodipodi:type="inkscape:persp3d" /></defs><sodipodi:namedview
   pagecolor="#ffffff"
   bordercolor="#666666"
   borderopacity="1"
   objecttolerance="10"
   gridtolerance="10"
   guidetolerance="10"
   inkscape:pageopacity="0"
   inkscape:pageshadow="2"
   inkscape:window-width="1920"
   inkscape:window-height="1020"
   id="namedview11"
   showgrid="false"
   inkscape:zoom="0.35355339"
   inkscape:cx="235.8564"
   inkscape:cy="378.47496"
   inkscape:window-x="-4"
   inkscape:window-y="-4"
   inkscape:window-maximized="1"
   inkscape:current-layer="Layer_1" />




<g
   id="g2973"><g
     id="g2968"><g
       id="g2963"><path
         d="m 203.1596,171.91171 c 0,17.26869 -13.9889,31.25785 -31.25728,31.25785 l -500.37078,0 c -17.2737,0 -31.2731,-13.99966 -31.2731,-31.25785 l 0,-500.35918 c 0,-17.26344 13.9994,-31.28409 31.2731,-31.28409 l 500.36028,0 c 17.26838,0 31.25728,14.02065 31.25728,31.28409 l 0,500.35918 0,0 z"
         id="path13"
         style="fill:#ffffff" /><path
         stroke-miterlimit="3.864"
         d="m 203.1596,171.91171 c 0,17.26869 -13.9889,31.25785 -31.25728,31.25785 l -500.37078,0 c -17.2737,0 -31.2731,-13.99966 -31.2731,-31.25785 l 0,-500.35918 c 0,-17.26344 13.9994,-31.28409 31.2731,-31.28409 l 500.36028,0 c 17.26838,0 31.25728,14.02065 31.25728,31.28409 l 0,500.35918 0,0 z"
         id="path15"
         style="fill:none;stroke:#1c1d20;stroke-width:2.09887981;stroke-miterlimit:3.86400008" /><path
         d="m 189.41469,-328.44747 c 0,-9.67592 -7.84974,-17.51531 -17.52549,-17.51531 l -500.35766,0 c -9.6784,0 -17.5045,7.83939 -17.5045,17.51531 l 0,500.36968 c 0,9.66542 7.8235,17.5258 17.5045,17.5258 l 500.36028,0 c 9.67575,0 17.52549,-7.86038 17.52549,-17.5258 l 0,-500.36968"
         id="path17"
         style="fill:#19408b" /></g></g><path
     id="path7"
     d="m -286.90492,26.034441 48.26264,0 0,-206.107521 -42.84159,0 0,8.98854 c 0,10.73752 -10.79274,21.52456 -21.44446,21.52456 l -17.86267,0 0,41.15458 33.88709,0 0,134.439841"
     style="fill-rule:evenodd;fill:#ffffff" /><path
     id="path9"
     d="m 158.90732,-123.05537 c -8.95551,-35.80958 -44.67983,-62.72564 -82.15074,-62.72564 -37.51623,0 -71.4033202,26.91606 -82.1718902,62.72564 -5.3021898,25.071051 -5.3021898,64.524173 0,89.595224 10.76857,35.8095759 44.6556602,62.679143 82.1718902,62.679143 37.4699,0 73.19523,-26.8695671 82.15074,-62.679143 7.06892,-25.071051 7.06892,-64.524173 0,-89.595224 z m -44.68084,73.511698 c -1.81507,17.833516 -19.607231,32.213556 -37.4699,32.213556 -17.83849,0 -33.98077,-14.381052 -37.51623,-32.213556 -1.76673,-16.132057 -1.76673,-41.202097 0,-57.380658 3.53546,-17.97606 19.67774,-32.26208 37.51623,-32.26208 17.862669,0 35.65483,14.28602 37.4699,32.26208 3.53446,16.178561 3.53446,41.248601 0,57.380658 z"
     style="fill-rule:evenodd;fill:#ffffff" /><path
     id="path11"
     d="m -190.02005,23.60609 145.44265,0 0,-43.35748 -63.92849,0 32.00151,-25.691786 c 3.18897,-3.174447 6.43032,-6.398431 9.63742,-9.625447 12.6743,-12.796866 22.28956,-35.214126 22.28956,-54.456937 0,-12.80191 -4.76835,-30.55555 -11.14427,-41.7652 -3.18495,-3.17444 -7.97848,-7.98262 -11.14429,-11.26524 -3.2081,-3.16939 -9.63741,-8.03417 -14.48231,-9.56479 -4.71698,-3.23106 -12.74883,-6.40146 -19.1721,-8.04024 -20.73335,-4.76167 -47.88492,-1.53566 -67.06205,8.04024 -6.44845,4.80211 -14.43095,12.84741 -19.1993,20.83003 -7.9825,14.43565 -12.82639,35.31724 -9.61123,51.335051 l 46.32871,0 c -1.53002,-6.395401 0,-14.486191 1.65794,-19.192251 4.71597,-11.26019 16.01133,-19.34695 27.15158,-19.34695 3.18897,0 7.98451,0 11.14427,0 9.58907,3.22196 16.01133,11.25615 17.59373,19.34695 1.60657,9.6224 -1.58139,22.469811 -8.00466,30.453451 -6.37391,7.93511 -16.01133,17.60807 -23.91828,24.06109 l -60.7375,44.88304 c -3.26452,3.23005 -3.26452,6.452012 -4.84289,8.039235 l 0,35.317234"
     style="fill-rule:evenodd;fill:#ffffff" /></g></svg>