<?xml version="1.0" encoding="UTF-8" standalone="no"?>
<!DOCTYPE svg PUBLIC "-//W3C//DTD SVG 1.1//EN" "http://www.w3.org/Graphics/SVG/1.1/DTD/svg11.dtd">
<svg width="100%" height="100%" viewBox="0 0 60523 31581" version="1.1" xmlns="http://www.w3.org/2000/svg" xmlns:xlink="http://www.w3.org/1999/xlink" xml:space="preserve" style="fill-rule:evenodd;clip-rule:evenodd;stroke-linecap:round;stroke-linejoin:round;stroke-miterlimit:1.5;">
    <g id="g3222">
        <g>
            <path d="M59050.7,4368.89c-0,-1642.71 -1333.67,-2976.38 -2976.38,-2976.38l-51702.9,0c-1642.71,0 -2976.38,1333.67 -2976.38,2976.38l-0,22851.1c-0,1642.71 1333.67,2976.38 2976.38,2976.38l51702.9,-0c1642.71,-0 2976.38,-1333.67 2976.38,-2976.38l-0,-22851.1Z" style="fill:#003fff;"/>
            <path d="M59924.5,4368.89c0,-2124.94 -1725.18,-3850.13 -3850.13,-3850.13l-51702.9,0c-2124.94,0 -3850.13,1725.18 -3850.13,3850.13l0,22851.1c0,2124.94 1725.18,3850.13 3850.13,3850.13l51702.9,-0c2124.94,-0 3850.13,-1725.18 3850.13,-3850.13l0,-22851.1Zm-873.75,0c0,-1642.71 -1333.67,-2976.38 -2976.38,-2976.38l-51702.9,0c-1642.71,0 -2976.38,1333.67 -2976.38,2976.38l0,22851.1c0,1642.71 1333.67,2976.38 2976.38,2976.38l51702.9,-0c1642.71,-0 2976.38,-1333.67 2976.38,-2976.38l0,-22851.1Z"/>
            <path d="M59901.1,4368.89c0,-2112.05 -1714.72,-3826.77 -3826.77,-3826.77l-51702.9,0c-2112.05,0 -3826.77,1714.72 -3826.77,3826.77l0,22851.1c0,2112.05 1714.72,3826.77 3826.77,3826.77l51702.9,-0c2112.05,-0 3826.77,-1714.72 3826.77,-3826.77l0,-22851.1Zm-850.394,0c0,-1642.71 -1333.67,-2976.38 -2976.38,-2976.38l-51702.9,0c-1642.71,0 -2976.38,1333.67 -2976.38,2976.38l0,22851.1c0,1642.71 1333.67,2976.38 2976.38,2976.38l51702.9,-0c1642.71,-0 2976.38,-1333.67 2976.38,-2976.38l0,-22851.1Z" style="fill:#003fff;"/>
            <path d="M59050.7,15242.5c-0,-1642.71 -1333.67,-2976.38 -2976.38,-2976.38l-51702.9,0c-1642.71,0 -2976.38,1333.67 -2976.38,2976.38l-0,11977.6c-0,1642.71 1333.67,2976.38 2976.38,2976.38l51702.9,0c1642.71,0 2976.38,-1333.67 2976.38,-2976.38l-0,-11977.6Z" style="fill:none;stroke:#fff;stroke-width:850.39px;"/>
            <path d="M59050.7,4368.89c-0,-1642.71 -1333.67,-2976.38 -2976.38,-2976.38l-30183.3,0c-1642.71,0 -2976.38,1333.67 -2976.38,2976.38l-0,3071.88c-0,1642.71 1333.67,2976.38 2976.38,2976.38l30183.3,0c1642.71,0 2976.38,-1333.67 2976.38,-2976.38l-0,-3071.88Z" style="fill:none;stroke:#fff;stroke-width:850.39px;"/>
            <path d="M21196.8,4368.89c0,-1642.71 -1333.67,-2976.38 -2976.38,-2976.38l-13848.9,0c-1642.71,0 -2976.38,1333.67 -2976.38,2976.38l0,3071.88c0,1642.71 1333.67,2976.38 2976.38,2976.38l13848.9,0c1642.71,0 2976.38,-1333.67 2976.38,-2976.38l0,-3071.88Z" style="fill:none;stroke:#fff;stroke-width:850.39px;"/>
            <path d="M28926,2945.95l-741.623,-0l-1998.13,6285.13l2471.52,0l268.233,-6285.13Zm1672.25,1789.95l1760.88,-1164.06l-1414.49,-625.888l2575.33,0l0,2699.41l-589.807,-1507.42l-1841.19,2141.55l938.352,2951.59l-2471.52,0l-268.233,-6285.13l741.622,0l569.049,1789.95l0.007,-0.002Z" style="fill:#fff;"/>
            <g>
                <g>
                    <path d="M4336.88,19712.3l2737.2,0l0,-913.878l-1849.9,0l0,-3279.04l-888.779,0l1.476,4192.91l0.003,0.008Z" style="fill:#fff;fill-rule:nonzero;"/>
                    <path d="M10683.8,19042.1c-77.756,1.969 -154.528,-5.905 -230.315,-23.622c-72.835,-30.512 -108.268,-85.63 -106.299,-165.354l-0,-1291.83c-10.827,-418.307 -214.567,-695.866 -611.221,-832.677c-732.283,-238.189 -1399.61,-117.618 -2001.97,361.712l441.437,704.233c115.157,-109.252 245.571,-195.866 391.24,-259.843c193.897,-88.583 396.161,-116.142 606.791,-82.677c47.244,10.827 91.536,28.051 132.874,51.673c51.181,29.528 84.154,72.835 98.918,129.921c2.952,24.607 -5.414,44.292 -25.099,59.056c-36.417,13.779 -73.819,23.622 -112.205,29.527l-792.815,137.303c-359.252,95.473 -608.759,315.453 -748.523,659.941c-115.158,561.024 88.582,960.138 611.22,1197.34c459.646,158.464 881.89,89.075 1266.73,-208.17c207.677,207.678 458.169,301.674 751.476,281.989l327.756,-748.524l0.005,0.002Zm-1960.63,-104.823c-38.386,-23.622 -65.945,-57.086 -82.677,-100.393c-30.512,-115.158 8.366,-198.327 116.634,-249.508c30.511,-12.796 62.007,-22.638 94.488,-29.528c183.071,-28.543 364.665,-62.992 544.783,-103.346l-1.476,308.563c-22.638,74.803 -68.406,130.413 -137.303,166.83c-177.166,86.615 -355.315,89.075 -534.449,7.382Z" style="fill:#fff;fill-rule:nonzero;"/>
                    <path d="M11076.5,19132.1c161.418,203.74 362.205,354.823 602.363,453.248c541.338,238.189 1082.68,237.697 1624.02,-1.476c198.819,-100.394 343.504,-252.461 434.055,-456.201c171.26,-530.512 12.304,-929.626 -476.87,-1197.34c-190.945,-81.692 -388.287,-145.177 -592.027,-190.452c-118.11,-27.559 -233.76,-62.992 -346.949,-106.3c-26.575,-10.826 -45.768,-29.035 -57.579,-54.625c-21.653,-62.993 -3.445,-111.221 54.626,-144.686c79.725,-32.48 162.402,-42.814 248.032,-31.003c104.33,4.921 204.232,27.559 299.704,67.913c134.843,49.213 245.079,130.905 330.709,245.079l583.169,-659.941c-332.677,-250 -704.724,-402.559 -1116.14,-457.677c-362.205,-34.449 -699.311,41.338 -1011.32,227.362c-79.725,60.039 -148.622,130.905 -206.693,212.598c-288.386,503.937 -212.106,943.898 228.838,1319.88c187.993,106.299 388.288,178.642 600.886,217.028c147.638,24.606 293.307,58.563 437.008,101.87c40.354,12.795 67.421,38.386 81.201,76.771c17.716,72.835 -7.382,124.016 -75.295,153.544c-227.363,29.527 -443.898,-7.382 -649.607,-110.729c-139.763,-54.134 -265.748,-131.397 -377.952,-231.791l-614.174,566.929l-0.005,-0.001Z" style="fill:#fff;fill-rule:nonzero;"/>
                    <path d="M16341.3,19712.3l924.213,0l-5.906,-2741.63l1141.24,1669.78l1161.91,-1663.88l2.953,2735.73l913.878,0l-0,-4191.44l-1034.94,0l-1043.8,1469l-1020.18,-1470.47l-1039.37,1.477l-0,4191.44l0.002,-0.007Z" style="fill:#fff;fill-rule:nonzero;"/>
                    <path d="M24229.6,19042.1c-77.756,1.969 -154.528,-5.905 -230.315,-23.622c-72.835,-30.512 -108.268,-85.63 -106.3,-165.354l-0,-1291.83c-10.826,-418.307 -214.567,-695.866 -611.22,-832.677c-732.284,-238.189 -1399.61,-117.618 -2001.97,361.712l441.437,704.233c115.158,-109.252 245.571,-195.866 391.241,-259.843c193.897,-88.583 396.161,-116.142 606.791,-82.677c47.244,10.827 91.535,28.051 132.874,51.673c51.181,29.528 84.153,72.835 98.917,129.921c2.953,24.607 -5.413,44.292 -25.098,59.056c-36.418,13.779 -73.819,23.622 -112.205,29.527l-792.815,137.303c-359.252,95.473 -608.76,315.453 -748.523,659.941c-115.158,561.024 88.582,960.138 611.22,1197.34c459.646,158.464 881.89,89.075 1266.73,-208.17c207.677,207.678 458.17,301.674 751.477,281.989l327.756,-748.524l0.003,0.002Zm-1960.63,-104.823c-38.386,-23.622 -65.945,-57.086 -82.678,-100.393c-30.511,-115.158 8.367,-198.327 116.634,-249.508c30.512,-12.796 62.008,-22.638 94.489,-29.528c183.07,-28.543 364.665,-62.992 544.783,-103.346l-1.476,308.563c-22.638,74.803 -68.406,130.413 -137.304,166.83c-177.165,86.615 -355.315,89.075 -534.448,7.382Z" style="fill:#fff;fill-rule:nonzero;"/>
                    <path d="M24842.3,19185.3c129.922,463.582 435.532,693.897 916.831,690.945c290.354,-15.748 574.803,-66.93 853.347,-153.544l-277.559,-792.815c-148.623,60.04 -291.339,49.213 -428.15,-32.48c-52.165,-61.024 -75.787,-131.89 -70.866,-212.598l0,-1170.77l714.567,0l1.476,-850.394l-716.043,0l0,-1080.71l-993.603,273.129l0,807.579l-466.535,0l0,850.394l466.535,0l0,1671.26Z" style="fill:#fff;fill-rule:nonzero;"/>
                    <path d="M30166.1,19042.1c-77.756,1.969 -154.527,-5.905 -230.315,-23.622c-72.834,-30.512 -108.267,-85.63 -106.299,-165.354l-0,-1291.83c-10.827,-418.307 -214.567,-695.866 -611.22,-832.677c-732.284,-238.189 -1399.61,-117.618 -2001.97,361.712l441.437,704.233c115.158,-109.252 245.571,-195.866 391.24,-259.843c193.898,-88.583 396.162,-116.142 606.792,-82.677c47.244,10.827 91.535,28.051 132.874,51.673c51.181,29.528 84.153,72.835 98.917,129.921c2.953,24.607 -5.413,44.292 -25.098,59.056c-36.418,13.779 -73.819,23.622 -112.205,29.527l-792.815,137.303c-359.252,95.473 -608.76,315.453 -748.524,659.941c-115.157,561.024 88.583,960.138 611.221,1197.34c459.645,158.464 881.889,89.075 1266.73,-208.17c207.677,207.678 458.169,301.674 751.476,281.989l327.756,-748.524l0.003,0.002Zm-1960.63,-104.823c-38.385,-23.622 -65.945,-57.086 -82.677,-100.393c-30.512,-115.158 8.366,-198.327 116.634,-249.508c30.512,-12.796 62.008,-22.638 94.488,-29.528c183.071,-28.543 364.666,-62.992 544.784,-103.346l-1.477,308.563c-22.637,74.803 -68.405,130.413 -137.303,166.83c-177.165,86.615 -355.315,89.075 -534.449,7.382Z" style="fill:#fff;fill-rule:nonzero;"/>
                    <path d="M30558.8,19132.1c161.417,203.74 362.205,354.823 602.362,453.248c541.339,238.189 1082.68,237.697 1624.02,-1.476c198.819,-100.394 343.504,-252.461 434.055,-456.201c171.26,-530.512 12.303,-929.626 -476.87,-1197.34c-190.945,-81.692 -388.288,-145.177 -592.028,-190.452c-118.11,-27.559 -233.76,-62.992 -346.949,-106.3c-26.574,-10.826 -45.767,-29.035 -57.578,-54.625c-21.654,-62.993 -3.445,-111.221 54.626,-144.686c79.724,-32.48 162.401,-42.814 248.031,-31.003c104.331,4.921 204.232,27.559 299.705,67.913c134.842,49.213 245.079,130.905 330.709,245.079l583.169,-659.941c-332.677,-250 -704.725,-402.559 -1116.14,-457.677c-362.205,-34.449 -699.311,41.338 -1011.32,227.362c-79.724,60.039 -148.622,130.905 -206.693,212.598c-288.386,503.937 -212.106,943.898 228.839,1319.88c187.992,106.299 388.287,178.642 600.886,217.028c147.638,24.606 293.307,58.563 437.008,101.87c40.354,12.795 67.421,38.386 81.2,76.771c17.717,72.835 -7.381,124.016 -75.295,153.544c-227.362,29.527 -443.898,-7.382 -649.606,-110.729c-139.764,-54.134 -265.748,-131.397 -377.953,-231.791l-614.173,566.929l-0.005,-0.001Z" style="fill:#fff;fill-rule:nonzero;"/>
                </g>
                <g>
                    <path d="M4336.88,26789.2l2737.2,0l0,-913.878l-1849.9,0l0,-3279.03l-888.779,0l1.476,4192.91l0.003,-0.002Z" style="fill:#fff;fill-rule:nonzero;"/>
                    <path d="M8030.78,26471.8c706.693,547.244 1412.89,546.26 2118.6,-2.953c238.189,-235.236 382.874,-517.716 434.055,-847.441c26.575,-193.897 29.528,-388.287 8.858,-583.169c-42.322,-317.913 -165.846,-600.394 -370.57,-847.441c-54.134,-62.992 -112.697,-121.555 -175.689,-175.689c-756.89,-531.496 -1467.03,-474.901 -2130.41,169.784l-5.905,7.381c-200.788,248.032 -318.406,531.004 -352.855,848.918c-30.511,192.913 -24.606,384.842 17.717,575.787c49.212,335.63 198.819,618.603 448.819,848.917l7.382,5.906l-0.002,-0Zm1637.3,-1433.56c37.401,193.898 35.433,387.303 -5.906,580.217c-66.929,216.535 -208.661,357.775 -425.197,423.72c-366.141,64.961 -614.665,-76.28 -745.57,-423.72c-45.276,-191.93 -50.689,-385.335 -16.241,-580.217c59.056,-273.622 225.394,-440.453 499.016,-500.492c369.095,-24.606 600.394,142.224 693.898,500.492Z" style="fill:#fff;fill-rule:nonzero;"/>
                    <path d="M11010.1,26209c161.418,203.74 362.205,354.823 602.363,453.248c541.338,238.189 1082.68,237.697 1624.02,-1.477c198.819,-100.393 343.504,-252.46 434.055,-456.2c171.26,-530.512 12.304,-929.626 -476.87,-1197.34c-190.945,-81.693 -388.287,-145.177 -592.027,-190.453c-118.11,-27.559 -233.76,-62.992 -346.949,-106.299c-26.575,-10.827 -45.768,-29.035 -57.579,-54.626c-21.653,-62.992 -3.445,-111.22 54.626,-144.685c79.725,-32.48 162.402,-42.815 248.032,-31.004c104.33,4.921 204.232,27.559 299.704,67.914c134.843,49.212 245.079,130.905 330.709,245.078l583.169,-659.941c-332.677,-250 -704.724,-402.559 -1116.14,-457.677c-362.205,-34.449 -699.311,41.339 -1011.32,227.362c-79.725,60.04 -148.622,130.906 -206.693,212.599c-288.386,503.937 -212.106,943.897 228.838,1319.88c187.993,106.299 388.288,178.641 600.886,217.027c147.638,24.607 293.307,58.563 437.008,101.87c40.354,12.796 67.421,38.386 81.201,76.772c17.716,72.835 -7.382,124.016 -75.295,153.543c-227.363,29.528 -443.898,-7.382 -649.607,-110.728c-139.763,-54.134 -265.748,-131.398 -377.952,-231.791l-614.174,566.929l-0.005,-0.001Z" style="fill:#fff;fill-rule:nonzero;"/>
                    <path d="M16274.9,26789.2l993.603,0l1.476,-1392.22l891.732,2.953c773.622,-106.3 1212.6,-546.752 1316.93,-1321.36c-31.496,-858.267 -471.949,-1352.36 -1321.36,-1482.28l-1882.38,0l0,4192.91l-0.001,-0.003Zm995.079,-3336.61l692.421,1.476c317.914,32.481 493.11,207.186 525.591,524.115c-26.575,324.803 -201.28,504.429 -524.114,538.878l-695.374,-2.953l1.476,-1061.52l0,0.004Z" style="fill:#fff;fill-rule:nonzero;"/>
                    <path d="M19973.2,25782.3c178.15,591.536 569.39,950.296 1173.72,1076.28c622.048,83.661 1169.29,-81.201 1641.73,-494.587l-615.65,-620.078c-200.787,177.165 -435.039,273.13 -702.756,287.893c-302.165,7.874 -505.905,-129.921 -611.22,-413.385l1970.96,0c49.213,-299.213 24.114,-591.536 -75.295,-876.969c-300.197,-752.953 -853.346,-1086.61 -1659.45,-1000.98l-13.287,2.953c-551.181,117.126 -916.831,441.929 -1096.95,974.409l-2.953,8.858c-97.441,351.378 -100.394,703.248 -8.858,1055.61l0.009,-0.004Zm893.209,-863.681c56.102,-201.771 185.531,-331.2 388.287,-388.287c317.913,-44.291 528.543,85.138 631.89,388.287l-1020.18,0l0.003,0Z" style="fill:#fff;fill-rule:nonzero;"/>
                    <path d="M23329,23852.7l-1.476,2936.51l913.878,0l0,-1765.75c37.401,-212.598 160.925,-343.504 370.57,-392.716c277.559,-23.622 453.741,98.425 528.544,366.141l0,1792.32l927.165,0l0,-2018.21c-41.338,-323.819 -191.437,-584.154 -450.295,-781.004c-478.347,-295.276 -954.232,-290.847 -1427.66,13.287l-59.055,-150.59l-801.673,0l0.002,0.012Z" style="fill:#fff;fill-rule:nonzero;"/>
                    <path d="M29732.1,26118.9c-77.756,1.968 -154.527,-5.906 -230.315,-23.622c-72.834,-30.512 -108.267,-85.63 -106.299,-165.355l-0,-1291.83c-10.827,-418.308 -214.567,-695.867 -611.22,-832.678c-732.284,-238.189 -1399.61,-117.618 -2001.97,361.713l441.437,704.232c115.158,-109.252 245.571,-195.866 391.24,-259.842c193.898,-88.583 396.162,-116.142 606.792,-82.677c47.244,10.826 91.535,28.051 132.874,51.673c51.181,29.527 84.153,72.834 98.917,129.921c2.953,24.606 -5.414,44.291 -25.099,59.055c-36.417,13.78 -73.818,23.622 -112.204,29.528l-792.815,137.303c-359.252,95.472 -608.76,315.453 -748.524,659.941c-115.157,561.023 88.583,960.138 611.221,1197.34c459.645,158.465 881.889,89.075 1266.73,-208.169c207.677,207.677 458.169,301.673 751.476,281.988l327.756,-748.523l0.003,0.002Zm-1960.63,-104.823c-38.386,-23.622 -65.945,-57.087 -82.677,-100.394c-30.512,-115.157 8.366,-198.327 116.634,-249.508c30.512,-12.795 62.008,-22.638 94.488,-29.527c183.071,-28.544 364.665,-62.992 544.784,-103.347l-1.477,308.563c-22.638,74.803 -68.405,130.414 -137.303,166.831c-177.165,86.614 -355.315,89.075 -534.449,7.382Z" style="fill:#fff;fill-rule:nonzero;"/>
                    <path d="M30124.8,26209c161.417,203.74 362.204,354.823 602.362,453.248c541.339,238.189 1082.68,237.697 1624.02,-1.477c198.819,-100.393 343.504,-252.46 434.055,-456.2c171.26,-530.512 12.303,-929.626 -476.87,-1197.34c-190.945,-81.693 -388.288,-145.177 -592.028,-190.453c-118.11,-27.559 -233.76,-62.992 -346.949,-106.299c-26.574,-10.827 -45.767,-29.035 -57.578,-54.626c-21.654,-62.992 -3.445,-111.22 54.626,-144.685c79.724,-32.48 162.401,-42.815 248.031,-31.004c104.331,4.921 204.232,27.559 299.705,67.914c134.842,49.212 245.079,130.905 330.708,245.078l583.17,-659.941c-332.677,-250 -704.725,-402.559 -1116.14,-457.677c-362.205,-34.449 -699.311,41.339 -1011.32,227.362c-79.724,60.04 -148.622,130.906 -206.693,212.599c-288.386,503.937 -212.106,943.897 228.839,1319.88c187.992,106.299 388.287,178.641 600.886,217.027c147.637,24.607 293.307,58.563 437.007,101.87c40.355,12.796 67.422,38.386 81.201,76.772c17.717,72.835 -7.382,124.016 -75.295,153.543c-227.362,29.528 -443.898,-7.382 -649.606,-110.728c-139.764,-54.134 -265.748,-131.398 -377.953,-231.791l-614.173,566.929l-0.005,-0.001Z" style="fill:#fff;fill-rule:nonzero;"/>
                    <path d="M33557.3,25971.3c400.591,749.016 1010.34,1012.8 1829.23,791.338c431.102,-175.196 724.409,-482.283 879.921,-921.259l-826.772,-302.658c-25.59,248.032 -156.004,413.878 -391.24,497.54c-330.708,66.929 -559.547,-56.103 -686.516,-369.095c-78.74,-284.449 -72.342,-566.929 19.193,-847.441c90.552,-199.803 245.079,-311.024 463.583,-333.661c331.693,7.874 524.114,175.689 577.264,503.445l1.476,7.381l829.725,-310.039l-5.906,-14.764c-177.165,-465.551 -503.445,-773.622 -978.838,-924.212c-743.111,-172.244 -1303.64,73.326 -1681.6,736.712c-206.693,491.142 -216.535,986.713 -29.528,1486.71l0.008,0.003Z" style="fill:#fff;fill-rule:nonzero;"/>
                    <path d="M39747.8,26118.9c-77.756,1.968 -154.527,-5.906 -230.315,-23.622c-72.834,-30.512 -108.267,-85.63 -106.299,-165.355l0,-1291.83c-10.827,-418.308 -214.567,-695.867 -611.22,-832.678c-732.284,-238.189 -1399.61,-117.618 -2001.97,361.713l441.437,704.232c115.158,-109.252 245.571,-195.866 391.24,-259.842c193.898,-88.583 396.162,-116.142 606.792,-82.677c47.244,10.826 91.535,28.051 132.874,51.673c51.181,29.527 84.153,72.834 98.917,129.921c2.953,24.606 -5.413,44.291 -25.099,59.055c-36.417,13.78 -73.818,23.622 -112.204,29.528l-792.815,137.303c-359.252,95.472 -608.76,315.453 -748.524,659.941c-115.157,561.023 88.583,960.138 611.221,1197.34c459.645,158.465 881.889,89.075 1266.73,-208.169c207.677,207.677 458.169,301.673 751.476,281.988l327.756,-748.523l0.003,0.002Zm-1960.63,-104.823c-38.386,-23.622 -65.945,-57.087 -82.677,-100.394c-30.512,-115.157 8.366,-198.327 116.634,-249.508c30.512,-12.795 62.008,-22.638 94.488,-29.527c183.071,-28.544 364.666,-62.992 544.784,-103.347l-1.477,308.563c-22.638,74.803 -68.405,130.414 -137.303,166.831c-177.165,86.614 -355.315,89.075 -534.449,7.382Z" style="fill:#fff;fill-rule:nonzero;"/>
                    <path d="M40116.9,25996.4c-1.969,425.197 198.326,705.217 600.886,840.059c320.866,58.071 638.287,43.8 952.263,-42.815l-84.153,-875.492c-119.095,62.992 -245.571,88.583 -379.429,76.772l-2.953,0c-85.63,-17.717 -127.953,-70.374 -126.969,-157.973l1.477,-3199.31l-965.551,-1.476l0,3355.81l4.429,4.429l0,-0.004Z" style="fill:#fff;fill-rule:nonzero;"/>
                    <path d="M42155.8,25782.3c178.149,591.536 569.389,950.296 1173.72,1076.28c622.047,83.661 1169.29,-81.201 1641.73,-494.587l-615.649,-620.078c-200.788,177.165 -435.04,273.13 -702.756,287.893c-302.165,7.874 -505.906,-129.921 -611.221,-413.385l1970.97,0c49.213,-299.213 24.114,-591.536 -75.295,-876.969c-300.197,-752.953 -853.347,-1086.61 -1659.45,-1000.98l-13.288,2.953c-551.181,117.126 -916.83,441.929 -1096.95,974.409l-2.953,8.858c-97.441,351.378 -100.394,703.248 -8.858,1055.61l-0,-0.004Zm893.208,-863.681c56.103,-201.771 185.532,-331.2 388.288,-388.287c317.913,-44.291 528.543,85.138 631.889,388.287l-1020.18,0l0.003,0Z" style="fill:#fff;fill-rule:nonzero;"/>
                    <path d="M45408.2,26209c161.418,203.74 362.205,354.823 602.362,453.248c541.339,238.189 1082.68,237.697 1624.02,-1.477c198.819,-100.393 343.504,-252.46 434.055,-456.2c171.26,-530.512 12.304,-929.626 -476.87,-1197.34c-190.945,-81.693 -388.287,-145.177 -592.027,-190.453c-118.111,-27.559 -233.76,-62.992 -346.949,-106.299c-26.575,-10.827 -45.768,-29.035 -57.579,-54.626c-21.653,-62.992 -3.445,-111.22 54.626,-144.685c79.725,-32.48 162.402,-42.815 248.032,-31.004c104.33,4.921 204.232,27.559 299.704,67.914c134.843,49.212 245.079,130.905 330.709,245.078l583.169,-659.941c-332.677,-250 -704.724,-402.559 -1116.14,-457.677c-362.205,-34.449 -699.311,41.339 -1011.32,227.362c-79.725,60.04 -148.622,130.906 -206.693,212.599c-288.386,503.937 -212.107,943.897 228.838,1319.88c187.992,106.299 388.288,178.641 600.886,217.027c147.638,24.607 293.307,58.563 437.008,101.87c40.354,12.796 67.421,38.386 81.201,76.772c17.716,72.835 -7.382,124.016 -75.295,153.543c-227.363,29.528 -443.898,-7.382 -649.607,-110.728c-139.764,-54.134 -265.748,-131.398 -377.952,-231.791l-614.174,566.929l-0.004,-0.001Z" style="fill:#fff;fill-rule:nonzero;"/>
                    <rect x="23737.3" y="23055.3" width="1724.72" height="355.511" style="fill:#fff;"/>
                </g>
            </g>
            <g>
                <path d="M50839.2,7462.78l2244.46,0l-0,-662.155l-994.34,0c140.256,-109.99 275.713,-225.517 406.373,-346.58c175.689,-138.041 325.172,-300.443 448.45,-487.205c260.58,-583.907 149.852,-1085.51 -332.185,-1504.8c-673.967,-373.523 -1263.41,-269.439 -1768.33,312.254c-103.347,247.293 -152.436,505.29 -147.269,773.991l741.88,0c0.738,-90.797 7.751,-180.856 21.039,-270.177c43.553,-191.929 161.294,-310.039 353.223,-354.331c266.486,-22.145 435.531,95.965 507.136,354.331c3.691,152.805 -33.588,294.907 -111.836,426.304c-149.852,164.616 -315.945,311.885 -498.277,441.806l-549.213,420.768c-78.986,59.793 -153.912,124.016 -224.779,192.667c-64.96,81.939 -97.071,174.951 -96.333,279.036l-0,424.089l0.001,0.002Z" style="fill:#fff;fill-rule:nonzero;"/>
                <path d="M53832.2,4952.57c-92.274,254.675 -147.638,517.101 -166.093,787.278c-67.913,464.321 17.717,898.376 256.89,1302.17c443.652,524.852 968.873,625.615 1575.66,302.288c125.492,-87.106 230.315,-194.513 314.468,-322.219c333.662,-631.89 221.088,-1170.77 -337.721,-1616.63l-3.322,-2.215c-337.353,-179.38 -675.443,-180.856 -1014.27,-4.429c3.691,-175.689 82.308,-306.348 235.852,-391.978c247.293,-98.918 442.175,-36.172 584.645,188.238l659.941,-245.817l-2.214,-5.537c-123.278,-266.486 -318.898,-460.629 -586.861,-582.431c-668.799,-221.456 -1174.46,-24.36 -1516.98,591.29l0.005,-0.008Zm1342.03,1131.64c129.183,209.646 121.063,414.124 -24.361,613.435c-19.193,20.67 -40.6,39.494 -64.222,56.472c-220.719,128.445 -414.862,95.964 -582.431,-97.441c-124.754,-197.835 -119.587,-391.978 15.502,-582.431c18.454,-22.146 39.124,-42.446 62.008,-60.901c217.027,-140.256 414.862,-116.634 593.504,70.866Z" style="fill:#fff;fill-rule:nonzero;"/>
            </g>
            <g>
                <path d="M4261.58,6647.66c130.659,437.746 415.231,722.318 853.715,853.716c724.164,121.063 1212.85,-163.14 1466.04,-852.608c64.96,-253.937 51.304,-503.445 -40.97,-748.524c-0.738,-2.215 -1.845,-4.798 -3.322,-7.751c-323.327,-606.053 -812.746,-806.471 -1468.26,-601.255l37.648,-293.43l1355.32,0l-1.107,-663.263l-1962.11,0l-205.954,1633.24l738.558,120.694l7.751,-8.858c36.909,-62.746 85.999,-112.943 147.268,-150.591c237.697,-117.372 436.27,-70.128 595.719,141.733c104.085,186.762 107.037,375.738 8.858,566.929c-75.295,107.037 -177.534,171.629 -306.717,193.774c-280.512,18.455 -455.832,-108.144 -525.96,-379.798l-696.481,195.989l0.004,0.003Z" style="fill:#fff;fill-rule:nonzero;"/>
                <path d="M9793.57,4991.17c-130.66,-261.319 -326.649,-456.57 -587.968,-585.753c-728.592,-272.391 -1294.78,-76.033 -1698.57,589.075c-265.01,606.053 -269.07,1213.58 -12.181,1822.59c132.874,273.868 336.246,477.239 610.114,610.113c737.45,267.224 1306.23,63.484 1706.32,-611.221c241.388,-610.482 235.483,-1218.75 -17.716,-1824.8l0.001,-0.004Zm-550.32,1340.92c-6.644,34.694 -15.871,68.651 -27.682,101.87c-160.187,334.399 -419.291,453.986 -777.313,358.76c-215.551,-81.939 -345.472,-235.483 -389.764,-460.63c-25.098,-214.075 -29.527,-428.15 -13.287,-642.225c3.691,-35.433 6.274,-70.866 7.751,-106.299c20.669,-293.061 171.629,-481.668 452.879,-565.822c53.888,-14.764 108.513,-21.776 163.878,-21.038c363.927,39.862 560.285,242.126 589.074,606.791l1.108,7.751c25.098,239.911 22.884,480.192 -6.644,720.842Z" style="fill:#fff;fill-rule:nonzero;"/>
                <path d="M12963.7,4991.17c-130.659,-261.319 -326.648,-456.57 -587.967,-585.753c-728.593,-272.391 -1294.78,-76.033 -1698.57,589.075c-265.01,606.053 -269.07,1213.58 -12.18,1822.59c132.874,273.868 336.245,477.239 610.113,610.113c737.451,267.224 1306.23,63.484 1706.32,-611.221c241.388,-610.482 235.482,-1218.75 -17.717,-1824.8l0.001,-0.004Zm-550.319,1340.92c-6.644,34.694 -15.871,68.651 -27.682,101.87c-160.187,334.399 -419.292,453.986 -777.313,358.76c-215.552,-81.939 -345.473,-235.483 -389.764,-460.63c-25.099,-214.075 -29.528,-428.15 -13.288,-642.225c3.691,-35.433 6.275,-70.866 7.751,-106.299c20.67,-293.061 171.629,-481.668 452.879,-565.822c53.888,-14.764 108.514,-21.776 163.878,-21.038c363.927,39.862 560.286,242.126 589.075,606.791l1.107,7.751c25.099,239.911 22.884,480.192 -6.643,720.842Z" style="fill:#fff;fill-rule:nonzero;"/>
                <path d="M14952.4,7478.13l664.37,0l0,-1351.99c20.669,-125.492 92.273,-204.478 214.813,-236.959c167.569,-19.931 276.451,50.197 326.648,210.384l0,1378.57l680.98,0l0,-1334.28c15.502,-149.852 97.441,-237.327 245.817,-262.426c166.092,0 264.64,81.57 295.644,244.71l0,1351.99l665.478,0l-2.215,-1560.16c-51.673,-215.552 -166.092,-390.502 -343.258,-524.853c-386.811,-261.319 -748.523,-229.946 -1085.14,94.119c-7.382,-8.858 -15.133,-17.716 -23.253,-26.574c-310.039,-296.752 -639.64,-320.374 -988.804,-70.867l-77.51,-121.801l-573.572,0l0,2210.14l0.002,-0.003Z" style="fill:#fff;fill-rule:nonzero;"/>
            </g>
            <path d="M53149.6,19751.2l-1684.8,-1051.91l4212.78,-844.279l-844.279,4212.78l-1051.91,-1684.8l-2651.29,3030.05l-1010.55,-1010.55l3030.05,-2651.29l-0.001,-0Zm7.926,4.949l0.352,0.351l0.081,-0.081l-0.433,-0.27Zm618.566,618.566l0.352,0.352l-0.27,-0.433l-0.082,0.081Z" style="fill:#fff;"/>
        </g>
    </g>
</svg>
