<?xml version="1.0" encoding="UTF-8" standalone="no"?>
<!DOCTYPE svg PUBLIC "-//W3C//DTD SVG 1.1//EN" "http://www.w3.org/Graphics/SVG/1.1/DTD/svg11.dtd">
<svg width="100%" height="100%" viewBox="0 0 71814 34625" version="1.1" xmlns="http://www.w3.org/2000/svg" xmlns:xlink="http://www.w3.org/1999/xlink" xml:space="preserve" style="fill-rule:evenodd;clip-rule:evenodd;stroke-linecap:round;stroke-linejoin:round;stroke-miterlimit:1.5;">
    <g id="g4799">
        <path d="M35965.8,10347.3c0,-1368.92 -1111.39,-2480.32 -2480.32,-2480.32l-29930.3,0c-1368.92,0 -2480.32,1111.39 -2480.32,2480.32l-0,20701.8c-0,1368.92 1111.39,2480.32 2480.32,2480.32l29930.3,0c1368.92,0 2480.32,-1111.39 2480.32,-2480.32l0,-20701.8Z" style="fill:#fff;"/>
        <path d="M36792.6,10347.3c-0,-1825.23 -1481.86,-3307.09 -3307.09,-3307.09l-29930.3,0c-1825.23,0 -3307.09,1481.86 -3307.09,3307.09c-0,0 -0,20701.8 -0,20701.8c-0,1825.23 1481.86,3307.09 3307.09,3307.09c-0,-0 29930.3,-0 29930.3,-0c1825.23,-0 3307.09,-1481.86 3307.09,-3307.09c-0,0 -0,-20701.8 -0,-20701.8Zm-826.772,0c0,-1368.92 -1111.39,-2480.32 -2480.32,-2480.32l-29930.3,0c-1368.92,0 -2480.32,1111.39 -2480.32,2480.32l-0,20701.8c-0,1368.92 1111.39,2480.32 2480.32,2480.32l29930.3,0c1368.92,0 2480.32,-1111.39 2480.32,-2480.32l0,-20701.8Z"/>
        <path d="M36674.5,10347.3c0,-1760.04 -1428.93,-3188.98 -3188.98,-3188.98l-29930.3,-0c-1760.04,-0 -3188.98,1428.93 -3188.98,3188.98c0,0 0,20701.8 0,20701.8c0,1760.04 1428.93,3188.98 3188.98,3188.98c-0,0 29930.3,0 29930.3,0c1760.04,0 3188.98,-1428.93 3188.98,-3188.98c0,0 0,-20701.8 0,-20701.8Zm-708.661,0c0,-1368.92 -1111.39,-2480.32 -2480.32,-2480.32l-29930.3,0c-1368.92,0 -2480.32,1111.39 -2480.32,2480.32l-0,20701.8c-0,1368.92 1111.39,2480.32 2480.32,2480.32l29930.3,0c1368.92,0 2480.32,-1111.39 2480.32,-2480.32l0,-20701.8Z" style="fill:#fff;"/>
        <path d="M35965.8,10347.3c0,-1368.92 -1111.39,-2480.32 -2480.32,-2480.32l-29930.3,0c-1368.92,0 -2480.32,1111.39 -2480.32,2480.32l-0,20701.8c-0,1368.92 1111.39,2480.32 2480.32,2480.32l29930.3,0c1368.92,0 2480.32,-1111.39 2480.32,-2480.32l0,-20701.8Z" style="fill:none;stroke:#000;stroke-width:708.66px;"/>
        <path d="M4243.92,22121.1l1914.47,0c308.328,-49.494 545.659,-206.904 711.994,-472.228c260.456,-545.253 146.862,-996.385 -340.783,-1353.4c208.527,-173.637 322.527,-395.552 342,-665.744c-22.719,-559.047 -310.762,-879.546 -864.129,-961.496l-1764.77,-3.651l1.217,3456.52Zm799.624,-2118.94l1.217,-614.627l720.514,0c29.21,-1.622 57.202,3.246 83.978,14.605c78.705,34.89 135.097,91.687 169.175,170.392c58.42,185.808 1.623,324.961 -170.392,417.46c-26.776,7.302 -54.363,11.765 -82.761,13.387l-721.731,-1.217Zm2.434,1388.69l0,-724.164l765.546,-0c46.249,-4.868 91.281,1.623 135.096,19.473c129.011,54.363 206.498,150.107 232.463,287.232c12.982,224.755 -89.253,364.314 -306.705,418.677l-826.4,-1.218Z" style="fill-rule:nonzero;"/>
        <path d="M7493.53,22122.3l2519.36,-0l0,-750.941l-1733.13,0l-0,-648.705l1399.65,-0l-0,-750.941l-1399.65,0l-0,-597.588l1565.17,0l-0,-707.125l-2351.41,-0l-0,3455.3Z" style="fill-rule:nonzero;"/>
        <path d="M10493.6,22121.1l813.012,0l1.217,-2157.89l1411.82,2149.37l4.868,8.519l879.951,0l1.217,-3455.3l-783.801,-0l-1.217,2219.96l-1482.41,-2221.18l-845.873,-0l1.217,3456.52Z" style="fill-rule:nonzero;"/>
        <path d="M14079.2,22121.1l819.097,0l166.74,-517.26l1254.81,1.217l161.872,516.043l844.656,0l-1158.66,-3455.3l-938.371,-1.217l-1150.14,3456.52Zm1258.46,-1288.89l388.25,-1197.61l389.466,1197.61l-777.716,0Z" style="fill-rule:nonzero;"/>
        <path d="M18174.7,22121.1l929.852,0l901.859,-3456.52l-775.282,-0l-595.154,2207.79l-598.805,-2207.79l-806.926,-0l944.456,3456.52Z" style="fill-rule:nonzero;"/>
        <path d="M20473.7,22122.3l2519.36,-0l0,-750.941l-1733.13,0l0,-648.705l1399.65,-0l0,-750.941l-1399.65,0l0,-597.588l1565.17,0l-0,-707.125l-2351.41,-0l-0,3455.3Z" style="fill-rule:nonzero;"/>
        <path d="M23473.8,22121.1l813.012,0l1.217,-2157.89l1411.82,2149.37l4.869,8.519l879.951,0l1.217,-3455.3l-783.802,-0l-1.217,2219.96l-1482.41,-2221.18l-845.873,-0l1.217,3456.52Z" style="fill-rule:nonzero;"/>
        <path d="M28058.6,22121.1l797.19,0l-0,-2716.53l960.278,0l0,-739.986l-2762.78,-0l0,739.986l1005.31,0l-0,2716.53Z" style="fill-rule:nonzero;"/>
        <path d="M30278.5,22122.3l2519.36,-0l0,-750.941l-1733.13,0l-0,-648.705l1399.65,-0l-0,-750.941l-1399.65,0l-0,-597.588l1565.17,0l-0,-707.125l-2351.41,-0l-0,3455.3Z" style="fill-rule:nonzero;"/>
        <path d="M19227.2,27607.3l2895.49,-647.894l-3602.36,3602.36l-3602.36,-3602.36l2895.49,647.894l-0,-2124.27l1413.75,-0l-0,2124.27Z"/>
        <g>
            <rect x="11671.6" y="12121.3" width="13697.5" height="4022.81" style="fill:#f00;"/>
            <path d="M25660.7,12121.3l0,-291.667l-14280.8,0l0,4606.14l14280.8,-0l0,-4314.48Zm-291.666,-0l-13697.5,-0l0,4022.81l13697.5,0l-0,-4022.81Z" style="fill:#fff;"/>
            <path d="M12674.5,15503.7l650.883,-0l0.974,-1727.57l1130.28,1720.75l3.897,6.821l704.474,-0l0.974,-2766.25l-627.498,0l-0.974,1777.26l-1186.79,-1778.23l-677.19,-0l0.974,2767.22Z" style="fill:#fff;fill-rule:nonzero;"/>
            <rect x="15594.7" y="14266.2" width="954.887" height="511.547" style="fill:#fff;fill-rule:nonzero;"/>
            <path d="M17214.2,13294.8c-81.198,224.106 -129.917,455.033 -146.156,692.78c-59.762,408.588 15.59,790.543 226.055,1145.87c390.399,461.854 852.578,550.522 1386.54,266.005c110.429,-76.651 202.67,-171.166 276.722,-283.544c293.612,-556.043 194.55,-1030.24 -297.184,-1422.59l-2.923,-1.949c-296.86,-157.849 -594.369,-159.148 -892.528,-3.897c3.248,-154.601 72.429,-269.577 207.542,-344.929c217.61,-87.044 389.1,-31.83 514.47,165.644l580.727,-216.312l-1.948,-4.871c-108.481,-234.5 -280.62,-405.34 -516.419,-512.522c-588.523,-194.875 -1033.49,-21.436 -1334.89,520.317Zm1180.94,995.811c113.677,184.481 106.531,364.416 -21.437,539.804c-16.889,18.188 -35.727,34.752 -56.513,49.693c-194.226,113.027 -365.066,84.445 -512.522,-85.745c-109.779,-174.089 -105.232,-344.929 13.642,-512.522c16.239,-19.487 34.428,-37.351 54.565,-53.59c190.977,-123.421 365.065,-102.634 522.265,62.36Z" style="fill:#fff;fill-rule:nonzero;"/>
            <path d="M19509.8,13581.2l617.753,67.232c-1.948,-77.95 19.813,-148.755 65.284,-212.414c9.094,-10.393 18.837,-20.462 29.231,-30.206c228.004,-172.139 447.887,-162.396 659.652,29.232c2.598,3.897 4.872,8.119 6.82,12.666c59.762,154.601 19.163,275.749 -121.797,363.442c-33.128,11.693 -67.556,18.838 -103.283,21.437l-320.57,-0l0,571.958l393.648,-0c23.385,3.248 45.471,9.419 66.257,18.513c136.413,75.351 180.26,187.08 131.541,335.185c-36.377,61.71 -85.096,111.079 -146.156,148.105c-237.098,114.976 -433.922,66.907 -590.472,-144.208c-36.376,-57.813 -58.787,-120.497 -67.231,-188.054l-646.011,114.002c14.94,145.506 61.061,280.295 138.361,404.365c46.121,63.01 98.087,121.148 155.9,174.414c556.693,420.28 1093.57,395.596 1610.64,-74.053c207.217,-263.081 242.619,-547.599 106.207,-853.552c-63.01,-102.635 -145.832,-185.781 -248.466,-249.44c94.839,-60.412 170.516,-139.336 227.03,-236.774c177.336,-385.203 93.215,-700.9 -252.363,-947.092c-564.488,-341.681 -1081.56,-280.945 -1551.2,182.208c-100.686,148.755 -154.277,313.099 -160.772,493.034Z" style="fill:#fff;fill-rule:nonzero;"/>
            <path d="M24368,13313.3c-114.976,-229.953 -287.44,-401.768 -517.393,-515.445c-641.138,-239.696 -1139.37,-66.907 -1494.69,518.368c-233.2,533.308 -236.773,1067.91 -10.718,1603.82c116.925,240.995 295.885,419.956 536.881,536.881c648.933,235.149 1149.44,55.864 1501.51,-537.855c212.414,-537.206 207.217,-1072.46 -15.59,-1605.77Zm-484.264,1179.97c-5.846,30.53 -13.966,60.411 -24.359,89.642c-140.96,294.262 -368.964,399.494 -684.012,315.698c-189.678,-72.104 -304.005,-207.217 -342.98,-405.34c-22.085,-188.379 -25.983,-376.759 -11.692,-565.138c3.248,-31.18 5.521,-62.36 6.821,-93.54c18.188,-257.884 151.028,-423.853 398.519,-497.905c47.419,-12.992 95.489,-19.163 144.207,-18.513c320.245,35.077 493.034,213.063 518.368,533.957l0.974,6.821c22.086,211.114 20.137,422.554 -5.846,634.318Z" style="fill:#fff;fill-rule:nonzero;"/>
        </g>
        <path d="M70719.3,10347.3c0,-1368.92 -1111.39,-2480.32 -2480.31,-2480.32l-27578.1,0c-1368.92,0 -2480.32,1111.39 -2480.32,2480.32l0,20701.8c0,1368.92 1111.39,2480.32 2480.32,2480.32l27578.1,0c1368.92,0 2480.31,-1111.39 2480.31,-2480.32l0,-20701.8Z" style="fill:#003fff;"/>
        <path d="M71546,10347.3c0,-1825.23 -1481.86,-3307.09 -3307.09,-3307.09l-27578.1,0c-1825.23,0 -3307.09,1481.86 -3307.09,3307.09c-0,0 -0,20701.8 -0,20701.8c-0,1825.23 1481.86,3307.09 3307.09,3307.09c0,-0 27578.1,-0 27578.1,-0c1825.23,-0 3307.09,-1481.86 3307.09,-3307.09l0,-20701.8Zm-826.772,0c0,-1368.92 -1111.39,-2480.32 -2480.31,-2480.32l-27578.1,0c-1368.92,0 -2480.32,1111.39 -2480.32,2480.32l0,20701.8c0,1368.92 1111.39,2480.32 2480.32,2480.32l27578.1,0c1368.92,0 2480.31,-1111.39 2480.31,-2480.32l0,-20701.8Z"/>
        <path d="M71427.9,10347.3c-0,-1760.04 -1428.93,-3188.98 -3188.98,-3188.98l-27578.1,-0c-1760.04,-0 -3188.98,1428.93 -3188.98,3188.98c0,0 0,20701.8 0,20701.8c0,1760.04 1428.93,3188.98 3188.98,3188.98c0,0 27578.1,0 27578.1,0c1760.04,0 3188.98,-1428.93 3188.98,-3188.98l-0,-20701.8Zm-708.662,0c0,-1368.92 -1111.39,-2480.32 -2480.31,-2480.32l-27578.1,0c-1368.92,0 -2480.32,1111.39 -2480.32,2480.32l0,20701.8c0,1368.92 1111.39,2480.32 2480.32,2480.32l27578.1,0c1368.92,0 2480.31,-1111.39 2480.31,-2480.32l0,-20701.8Z" style="fill:#003fff;"/>
        <path d="M70719.3,10347.3c0,-1368.92 -1111.39,-2480.32 -2480.31,-2480.32l-27578.1,0c-1368.92,0 -2480.32,1111.39 -2480.32,2480.32l0,20701.8c0,1368.92 1111.39,2480.32 2480.32,2480.32l27578.1,0c1368.92,0 2480.31,-1111.39 2480.31,-2480.32l0,-20701.8Z" style="fill:none;stroke:#fff;stroke-width:708.66px;"/>
        <path d="M65989,20722.2l1197.09,-1917.33l960.803,4794.21l-4794.21,-960.803l1917.33,-1197.09l-3448.24,-3017.21l1150.02,-1150.02l3017.21,3448.24Zm-5.632,9.019l-0.4,0.401l0.093,0.092l0.307,-0.493Zm-703.938,703.939l-0.401,0.4l0.493,-0.307l-0.092,-0.093Z" style="fill:#fff;"/>
        <g>
            <path d="M54427.9,13354.2l-0,-208.334l-8130.49,0l0,4257.58l8130.49,0l-0,-4049.25Zm-208.334,-0l-7713.82,-0l-0,3840.91l7713.82,0l0,-3840.91Z" style="fill:#fff;"/>
            <path d="M47156.9,16645.6l655.778,0l133.494,-414.124l1004.62,0.975l129.596,413.149l676.24,0l-927.637,-2766.35l-751.27,-0.974l-920.817,2767.32Zm1007.54,-1031.9l310.837,-958.819l311.811,958.819l-622.648,-0Z" style="fill:#fff;fill-rule:nonzero;"/>
            <rect x="50146.4" y="15408.1" width="954.921" height="511.565" style="fill:#fff;fill-rule:nonzero;"/>
            <path d="M51726.9,14436.7c-81.2,224.114 -129.921,455.049 -146.161,692.805c-59.764,408.603 15.59,790.571 226.063,1145.91c390.413,461.87 852.608,550.541 1386.59,266.014c110.433,-76.654 202.677,-171.172 276.732,-283.553c293.622,-556.063 194.557,-1030.28 -297.195,-1422.64l-2.923,-1.949c-296.87,-157.854 -594.39,-159.154 -892.559,-3.898c3.248,-154.606 72.431,-269.586 207.549,-344.941c217.618,-87.047 389.114,-31.83 514.488,165.65l580.748,-216.319l-1.949,-4.872c-108.484,-234.508 -280.63,-405.354 -516.437,-512.539c-588.543,-194.882 -1033.52,-21.437 -1334.94,520.334Zm1180.99,995.847c113.681,184.488 106.535,364.429 -21.437,539.823c-16.89,18.189 -35.729,34.753 -56.516,49.694c-194.232,113.032 -365.079,84.449 -512.54,-85.748c-109.783,-174.094 -105.236,-344.941 13.642,-512.539c16.24,-19.488 34.429,-37.352 54.567,-53.592c190.984,-123.426 365.079,-102.638 522.284,62.362Z" style="fill:#fff;fill-rule:nonzero;"/>
        </g>
        <g transform="matrix(1,0,0,1,36699,18798.4)">
            <g transform="matrix(3631.89,0,0,3631.89,4040.12,3243.23)">
                <path d="M0.257,0l0.163,0l0,-0.558l0.198,0l-0.001,-0.152l-0.567,0l-0,0.152l0.206,0l0,0.558Z" style="fill:#fff;fill-rule:nonzero;"/>
            </g>
            <g transform="matrix(3631.89,0,0,3631.89,5975.01,3243.23)">
                <path d="M0.138,-0.054c0.12,0.093 0.239,0.093 0.359,0c0.04,-0.04 0.065,-0.088 0.073,-0.144c0.005,-0.032 0.005,-0.065 0.002,-0.098c-0.007,-0.054 -0.028,-0.102 -0.063,-0.144c-0.009,-0.01 -0.019,-0.02 -0.03,-0.029c-0.128,-0.09 -0.248,-0.081 -0.36,0.028l-0.001,0.002c-0.034,0.042 -0.054,0.089 -0.06,0.143c-0.005,0.033 -0.004,0.065 0.003,0.098c0.008,0.057 0.033,0.105 0.076,0.144l0.001,0.001Zm0.277,-0.243c0.007,0.033 0.006,0.065 -0.001,0.098c-0.011,0.037 -0.035,0.061 -0.072,0.072c-0.062,0.011 -0.104,-0.013 -0.126,-0.072c-0.008,-0.032 -0.009,-0.065 -0.003,-0.098c0.01,-0.047 0.038,-0.075 0.085,-0.085c0.062,-0.004 0.101,0.024 0.117,0.085Z" style="fill:#fff;fill-rule:nonzero;"/>
            </g>
            <g transform="matrix(3631.89,0,0,3631.89,8169.58,3243.23)">
                <path d="M0.217,0l-0.001,-0.273c0.003,-0.026 0.014,-0.049 0.033,-0.067c0.039,-0.026 0.081,-0.033 0.127,-0.021l0,-0.174c-0.059,-0.005 -0.113,0.011 -0.161,0.046l-0.005,-0.034l-0.16,0l0,0.523l0.167,0Z" style="fill:#fff;fill-rule:nonzero;"/>
            </g>
            <g transform="matrix(3631.89,0,0,3631.89,9354.48,3243.23)">
                <path d="M0.158,-0.41c-0.072,0.128 -0.059,0.246 0.04,0.355c0.086,0.075 0.18,0.086 0.281,0.033l0.008,0.022l0.148,-0l-0,-0.665l-0.161,-0l-0,0.17c-0.058,-0.033 -0.118,-0.039 -0.182,-0.019c-0.056,0.019 -0.101,0.054 -0.134,0.104Zm0.315,0.112c0.002,0.026 0.002,0.053 0,0.079c-0.009,0.05 -0.039,0.079 -0.089,0.088c-0.062,0.001 -0.099,-0.029 -0.111,-0.089c-0.002,-0.026 -0.002,-0.052 0.001,-0.078c0.01,-0.046 0.038,-0.074 0.083,-0.083c0.062,-0.005 0.101,0.023 0.116,0.083Z" style="fill:#fff;fill-rule:nonzero;"/>
            </g>
            <g transform="matrix(3631.89,0,0,3631.89,11725.2,3243.23)">
                <path d="M0.073,-0.17c0.03,0.1 0.097,0.161 0.199,0.182c0.105,0.014 0.198,-0.014 0.278,-0.084l-0.104,-0.105c-0.034,0.03 -0.074,0.047 -0.119,0.049c-0.051,0.001 -0.086,-0.022 -0.104,-0.07l0.334,0c0.008,-0.051 0.004,-0.1 -0.013,-0.149c-0.051,-0.127 -0.144,-0.184 -0.281,-0.169l-0.002,0.001c-0.093,0.019 -0.155,0.074 -0.186,0.164l-0,0.002c-0.017,0.059 -0.017,0.119 -0.002,0.179Zm0.152,-0.147c0.009,-0.034 0.031,-0.056 0.065,-0.065c0.054,-0.008 0.09,0.014 0.107,0.065l-0.173,0Z" style="fill:#fff;fill-rule:nonzero;"/>
            </g>
            <g transform="matrix(3631.89,0,0,3631.89,13752.7,3243.23)">
                <path d="M0.061,-0.098c0.027,0.035 0.061,0.06 0.102,0.077c0.091,0.04 0.183,0.04 0.275,-0c0.033,-0.017 0.058,-0.043 0.073,-0.078c0.029,-0.09 0.002,-0.157 -0.081,-0.202c-0.032,-0.014 -0.065,-0.025 -0.1,-0.033c-0.02,-0.004 -0.039,-0.01 -0.058,-0.018c-0.005,-0.002 -0.008,-0.005 -0.01,-0.009c-0.004,-0.011 -0.001,-0.019 0.009,-0.024c0.014,-0.006 0.028,-0.008 0.042,-0.006c0.018,0.001 0.035,0.005 0.051,0.012c0.023,0.008 0.041,0.022 0.056,0.041l0.099,-0.111c-0.057,-0.043 -0.12,-0.069 -0.189,-0.078c-0.062,-0.006 -0.119,0.007 -0.172,0.039c-0.013,0.01 -0.025,0.022 -0.035,0.036c-0.049,0.085 -0.036,0.159 0.039,0.223c0.032,0.018 0.066,0.03 0.102,0.037c0.025,0.004 0.049,0.01 0.074,0.017c0.007,0.002 0.011,0.007 0.014,0.013c0.003,0.012 -0.002,0.021 -0.013,0.026c-0.039,0.005 -0.075,-0.001 -0.11,-0.019c-0.024,-0.009 -0.045,-0.022 -0.064,-0.039l-0.104,0.096Z" style="fill:#fff;fill-rule:nonzero;"/>
            </g>
            <g transform="matrix(3631.89,0,0,3631.89,15696.7,3243.23)">
                <path d="M0.065,-0l0.165,-0l-0,-0.515l-0.165,0.001l0,0.514Zm0.066,-0.715c-0.054,0.017 -0.078,0.054 -0.071,0.11c0.018,0.054 0.054,0.077 0.11,0.07c0.054,-0.017 0.077,-0.053 0.071,-0.11c-0.018,-0.053 -0.054,-0.077 -0.11,-0.07Z" style="fill:#fff;fill-rule:nonzero;"/>
            </g>
            <g transform="matrix(3631.89,0,0,3631.89,16766.3,3243.23)">
                <path d="M0.051,-0.134c-0.001,0.072 0.033,0.119 0.101,0.142c0.055,0.01 0.109,0.008 0.162,-0.007l-0.015,-0.148c-0.02,0.01 -0.041,0.015 -0.064,0.013l-0,-0c-0.015,-0.003 -0.022,-0.012 -0.022,-0.027l0,-0.542l-0.163,0l-0,0.568l0.001,0.001Z" style="fill:#fff;fill-rule:nonzero;"/>
            </g>
            <g transform="matrix(3631.89,0,0,3631.89,17945.7,3243.23)">
                <path d="M0.051,-0.134c-0.001,0.072 0.033,0.119 0.101,0.142c0.055,0.01 0.109,0.008 0.162,-0.007l-0.015,-0.148c-0.02,0.01 -0.041,0.015 -0.064,0.013l-0,-0c-0.015,-0.003 -0.022,-0.012 -0.022,-0.027l0,-0.542l-0.163,0l-0,0.568l0.001,0.001Z" style="fill:#fff;fill-rule:nonzero;"/>
            </g>
            <g transform="matrix(3631.89,0,0,3631.89,19133.3,3243.23)">
                <path d="M0.58,-0.113c-0.013,0 -0.026,-0.001 -0.039,-0.004c-0.012,-0.005 -0.018,-0.015 -0.018,-0.028l0,-0.219c-0.002,-0.071 -0.036,-0.118 -0.103,-0.141c-0.124,-0.04 -0.237,-0.02 -0.339,0.061l0.074,0.119c0.02,-0.018 0.042,-0.033 0.067,-0.043c0.032,-0.016 0.067,-0.02 0.102,-0.015c0.008,0.002 0.016,0.005 0.023,0.009c0.008,0.005 0.014,0.013 0.017,0.022c0,0.004 -0.001,0.008 -0.005,0.01c-0.006,0.003 -0.012,0.004 -0.019,0.005l-0.134,0.023c-0.061,0.017 -0.103,0.054 -0.127,0.112c-0.019,0.095 0.015,0.163 0.104,0.203c0.078,0.027 0.149,0.015 0.214,-0.035c0.035,0.035 0.078,0.051 0.128,0.047l0.055,-0.126Zm-0.332,-0.018c-0.006,-0.004 -0.011,-0.01 -0.014,-0.017c-0.005,-0.02 0.001,-0.034 0.02,-0.042c0.005,-0.002 0.01,-0.004 0.016,-0.005c0.031,-0.005 0.062,-0.011 0.092,-0.018l-0,0.052c-0.004,0.013 -0.012,0.023 -0.023,0.029c-0.03,0.014 -0.061,0.015 -0.091,0.001Z" style="fill:#fff;fill-rule:nonzero;"/>
            </g>
            <g transform="matrix(3631.89,0,0,3631.89,21242.6,3243.23)">
                <path d="M0.061,-0.098c0.027,0.035 0.061,0.06 0.102,0.077c0.091,0.04 0.183,0.04 0.275,-0c0.033,-0.017 0.058,-0.043 0.073,-0.078c0.029,-0.09 0.002,-0.157 -0.081,-0.202c-0.032,-0.014 -0.065,-0.025 -0.1,-0.033c-0.02,-0.004 -0.039,-0.01 -0.058,-0.018c-0.005,-0.002 -0.008,-0.005 -0.01,-0.009c-0.004,-0.011 -0.001,-0.019 0.009,-0.024c0.014,-0.006 0.028,-0.008 0.042,-0.006c0.018,0.001 0.035,0.005 0.051,0.012c0.023,0.008 0.041,0.022 0.056,0.041l0.099,-0.111c-0.057,-0.043 -0.12,-0.069 -0.189,-0.078c-0.062,-0.006 -0.119,0.007 -0.172,0.039c-0.013,0.01 -0.025,0.022 -0.035,0.036c-0.049,0.085 -0.036,0.159 0.039,0.223c0.032,0.018 0.066,0.03 0.102,0.037c0.025,0.004 0.049,0.01 0.074,0.017c0.007,0.002 0.011,0.007 0.014,0.013c0.003,0.012 -0.002,0.021 -0.013,0.026c-0.039,0.005 -0.075,-0.001 -0.11,-0.019c-0.024,-0.009 -0.045,-0.022 -0.064,-0.039l-0.104,0.096Z" style="fill:#fff;fill-rule:nonzero;"/>
            </g>
        </g>
        <g transform="matrix(1,0,0,1,41754.8,23431.3)">
            <g transform="matrix(4842.52,0,0,4842.52,787.198,4094.3)">
                <path d="M0.05,0l0.157,0l-0.002,-0.464l0.194,0.283l0.197,-0.282l-0,0.463l0.155,0l-0,-0.71l-0.176,0l-0.176,0.249l-0.173,-0.249l-0.176,0l-0,0.71Z" style="fill:#fff;fill-rule:nonzero;"/>
            </g>
            <g transform="matrix(4842.52,0,0,4842.52,4664.85,4094.3)">
                <path d="M0.58,-0.113c-0.013,0 -0.026,-0.001 -0.039,-0.004c-0.012,-0.005 -0.018,-0.015 -0.018,-0.028l0,-0.219c-0.002,-0.071 -0.036,-0.118 -0.103,-0.141c-0.124,-0.04 -0.237,-0.02 -0.339,0.061l0.074,0.119c0.02,-0.018 0.042,-0.033 0.067,-0.043c0.032,-0.016 0.067,-0.02 0.102,-0.015c0.008,0.002 0.016,0.005 0.023,0.009c0.008,0.005 0.014,0.013 0.017,0.022c0,0.004 -0.001,0.008 -0.005,0.01c-0.006,0.003 -0.012,0.004 -0.019,0.005l-0.134,0.023c-0.061,0.017 -0.103,0.054 -0.127,0.112c-0.019,0.095 0.015,0.163 0.104,0.203c0.078,0.027 0.149,0.015 0.214,-0.035c0.035,0.035 0.078,0.051 0.128,0.047l0.055,-0.126Zm-0.332,-0.018c-0.006,-0.004 -0.011,-0.01 -0.014,-0.017c-0.005,-0.02 0.001,-0.034 0.02,-0.042c0.005,-0.002 0.01,-0.004 0.016,-0.005c0.031,-0.005 0.062,-0.011 0.092,-0.018l-0,0.052c-0.004,0.013 -0.012,0.023 -0.023,0.029c-0.03,0.014 -0.061,0.015 -0.091,0.001Z" style="fill:#fff;fill-rule:nonzero;"/>
            </g>
            <g transform="matrix(4842.52,0,0,4842.52,7122.42,4094.3)">
                <path d="M0.158,-0.41c-0.072,0.128 -0.059,0.246 0.04,0.355c0.086,0.075 0.18,0.086 0.281,0.033l0.008,0.022l0.148,-0l-0,-0.665l-0.161,-0l-0,0.17c-0.058,-0.033 -0.118,-0.039 -0.182,-0.019c-0.056,0.019 -0.101,0.054 -0.134,0.104Zm0.315,0.112c0.002,0.026 0.002,0.053 0,0.079c-0.009,0.05 -0.039,0.079 -0.089,0.088c-0.062,0.001 -0.099,-0.029 -0.111,-0.089c-0.002,-0.026 -0.002,-0.052 0.001,-0.078c0.01,-0.046 0.038,-0.074 0.083,-0.083c0.062,-0.005 0.101,0.023 0.116,0.083Z" style="fill:#fff;fill-rule:nonzero;"/>
            </g>
            <g transform="matrix(4842.52,0,0,4842.52,10525.5,4094.3)">
                <path d="M0.217,0l-0.001,-0.273c0.003,-0.026 0.014,-0.049 0.033,-0.067c0.039,-0.026 0.081,-0.033 0.127,-0.021l0,-0.174c-0.059,-0.005 -0.113,0.011 -0.161,0.046l-0.005,-0.034l-0.16,0l0,0.523l0.167,0Z" style="fill:#fff;fill-rule:nonzero;"/>
            </g>
            <g transform="matrix(4842.52,0,0,4842.52,12422.6,4094.3)">
                <path d="M0.065,-0l0.165,-0l-0,-0.515l-0.165,0.001l0,0.514Zm0.066,-0.715c-0.054,0.017 -0.078,0.054 -0.071,0.11c0.018,0.054 0.054,0.077 0.11,0.07c0.054,-0.017 0.077,-0.053 0.071,-0.11c-0.018,-0.053 -0.054,-0.077 -0.11,-0.07Z" style="fill:#fff;fill-rule:nonzero;"/>
            </g>
            <g transform="matrix(4842.52,0,0,4842.52,13412.9,4094.3)">
                <path d="M0.158,-0.41c-0.072,0.128 -0.059,0.246 0.04,0.355c0.086,0.075 0.18,0.086 0.281,0.033l0.008,0.022l0.148,-0l-0,-0.665l-0.161,-0l-0,0.17c-0.058,-0.033 -0.118,-0.039 -0.182,-0.019c-0.056,0.019 -0.101,0.054 -0.134,0.104Zm0.315,0.112c0.002,0.026 0.002,0.053 0,0.079c-0.009,0.05 -0.039,0.079 -0.089,0.088c-0.062,0.001 -0.099,-0.029 -0.111,-0.089c-0.002,-0.026 -0.002,-0.052 0.001,-0.078c0.01,-0.046 0.038,-0.074 0.083,-0.083c0.062,-0.005 0.101,0.023 0.116,0.083Z" style="fill:#fff;fill-rule:nonzero;"/>
            </g>
        </g>
        <g>
            <path d="M61979.5,2809.3c-0,-1095.14 -889.114,-1984.25 -1984.25,-1984.25l-11841.3,-0c-1095.14,-0 -1984.25,889.113 -1984.25,1984.25l-0,1648.98c-0,1095.14 889.113,1984.25 1984.25,1984.25l11841.3,-0c1095.14,-0 1984.25,-889.114 1984.25,-1984.25l-0,-1648.98Z" style="fill:#003fff;"/>
            <path d="M62629.1,2809.3c-0,-1453.67 -1180.19,-2633.86 -2633.86,-2633.86c-0,0 -11841.3,0 -11841.3,0c-1453.67,0 -2633.86,1180.19 -2633.86,2633.86l0,1648.98c0,1453.67 1180.19,2633.86 2633.86,2633.86l11841.3,0c1453.67,0 2633.86,-1180.19 2633.86,-2633.86l-0,-1648.98Zm-649.606,-0c-0,-1095.14 -889.114,-1984.25 -1984.25,-1984.25l-11841.3,-0c-1095.14,-0 -1984.25,889.113 -1984.25,1984.25l-0,1648.98c-0,1095.14 889.113,1984.25 1984.25,1984.25l11841.3,-0c1095.14,-0 1984.25,-889.114 1984.25,-1984.25l-0,-1648.98Z"/>
            <path d="M62546.4,2809.3c-0,-1408.04 -1143.15,-2551.18 -2551.18,-2551.18c-0,-0 -11841.3,-0 -11841.3,-0c-1408.04,-0 -2551.18,1143.14 -2551.18,2551.18l-0,1648.98c-0,1408.04 1143.15,2551.18 2551.18,2551.18l11841.3,0c1408.04,0 2551.18,-1143.15 2551.18,-2551.18l-0,-1648.98Zm-566.929,-0c-0,-1095.14 -889.114,-1984.25 -1984.25,-1984.25l-11841.3,-0c-1095.14,-0 -1984.25,889.113 -1984.25,1984.25l-0,1648.98c-0,1095.14 889.113,1984.25 1984.25,1984.25l11841.3,-0c1095.14,-0 1984.25,-889.114 1984.25,-1984.25l-0,-1648.98Z" style="fill:#003fff;"/>
            <path d="M61979.5,2809.3c-0,-1095.14 -889.114,-1984.25 -1984.25,-1984.25l-11841.3,-0c-1095.14,-0 -1984.25,889.113 -1984.25,1984.25l-0,1648.98c-0,1095.14 889.113,1984.25 1984.25,1984.25l11841.3,-0c1095.14,-0 1984.25,-889.114 1984.25,-1984.25l-0,-1648.98Z" style="fill:none;stroke:#fff;stroke-width:566.93px;"/>
            <path d="M48087.3,4171.96c114.981,385.216 365.404,635.639 751.27,751.269c637.264,106.536 1067.3,-143.563 1290.12,-750.295c57.165,-223.464 45.148,-443.031 -36.053,-658.701c-0.65,-1.949 -1.624,-4.222 -2.923,-6.821c-284.528,-533.326 -715.217,-709.694 -1292.07,-529.104l33.13,-258.218l1192.68,-0l-0.975,-583.672l-1726.65,0l-181.24,1437.25l649.931,106.211l6.821,-7.795c32.48,-55.217 75.679,-99.39 129.596,-132.52c209.173,-103.287 383.918,-61.713 524.232,124.724c91.595,164.351 94.193,330.65 7.796,498.898c-66.26,94.193 -156.231,151.033 -269.912,170.522c-246.85,16.24 -401.132,-95.168 -462.844,-334.223l-612.904,172.471Z" style="fill:#fff;fill-rule:nonzero;"/>
            <path d="M52916.5,2714.24c-114.981,-229.96 -287.451,-401.781 -517.412,-515.462c-641.161,-239.705 -1139.41,-66.91 -1494.74,518.385c-233.209,533.327 -236.781,1067.95 -10.718,1603.88c116.929,241.004 295.895,419.971 536.899,536.9c648.957,235.157 1149.48,55.866 1501.57,-537.874c212.421,-537.225 207.225,-1072.5 -15.59,-1605.83Zm-484.282,1180.01c-5.846,30.531 -13.966,60.413 -24.36,89.646c-140.965,294.271 -368.977,399.508 -684.036,315.708c-189.685,-72.106 -304.015,-207.224 -342.992,-405.354c-22.086,-188.386 -25.984,-376.772 -11.693,-565.158c3.248,-31.181 5.522,-62.362 6.821,-93.543c18.189,-257.894 151.034,-423.868 398.534,-497.923c47.421,-12.992 95.492,-19.163 144.212,-18.514c320.256,35.079 493.051,213.071 518.386,533.977l0.975,6.82c22.086,211.122 20.137,422.569 -5.847,634.341Z" style="fill:#fff;fill-rule:nonzero;"/>
            <path d="M55667.3,2714.24c-114.98,-229.96 -287.45,-401.781 -517.411,-515.462c-641.161,-239.705 -1139.41,-66.91 -1494.74,518.385c-233.209,533.327 -236.782,1067.95 -10.719,1603.88c116.93,241.004 295.896,419.971 536.9,536.9c648.957,235.157 1149.48,55.866 1501.57,-537.874c212.421,-537.225 207.224,-1072.5 -15.591,-1605.83Zm-484.281,1180.01c-5.847,30.531 -13.967,60.413 -24.36,89.646c-140.965,294.271 -368.977,399.508 -684.036,315.708c-189.685,-72.106 -304.015,-207.224 -342.992,-405.354c-22.086,-188.386 -25.984,-376.772 -11.693,-565.158c3.248,-31.181 5.522,-62.362 6.821,-93.543c18.189,-257.894 151.034,-423.868 398.534,-497.923c47.421,-12.992 95.492,-19.163 144.212,-18.514c320.256,35.079 493.051,213.071 518.386,533.977l0.974,6.82c22.087,211.122 20.138,422.569 -5.846,634.341Z" style="fill:#fff;fill-rule:nonzero;"/>
            <path d="M57339.4,4902.76l584.646,-0l-0,-1189.75c18.189,-110.433 81.2,-179.941 189.035,-208.524c147.461,-17.539 243.278,44.173 287.451,185.138l-0,1213.14l599.262,-0l-0,-1174.16c13.641,-131.87 85.748,-208.848 216.319,-230.935c146.161,0 232.883,71.782 260.167,215.345l-0,1189.75l585.62,-0l-1.949,-1372.94c-45.472,-189.685 -146.161,-343.642 -302.067,-461.87c-340.393,-229.961 -658.701,-202.353 -954.921,82.825c-6.496,-7.796 -13.317,-15.591 -20.463,-23.386c-272.834,-261.142 -562.883,-281.929 -870.147,-62.362l-68.209,-107.186l-504.744,0l0,1944.92Z" style="fill:#fff;fill-rule:nonzero;"/>
        </g>
    </g>
</svg>
