<?xml version="1.0" encoding="UTF-8" standalone="no"?>
<!DOCTYPE svg PUBLIC "-//W3C//DTD SVG 1.1//EN" "http://www.w3.org/Graphics/SVG/1.1/DTD/svg11.dtd">
<svg width="100%" height="100%" viewBox="0 0 47043 31144" version="1.1" xmlns="http://www.w3.org/2000/svg" xmlns:xlink="http://www.w3.org/1999/xlink" xml:space="preserve" style="fill-rule:evenodd;clip-rule:evenodd;stroke-linecap:round;stroke-linejoin:round;stroke-miterlimit:1.5;">
    <g>
        <path d="M45923.6,4150.53c-0,-1642.71 -1333.67,-2976.38 -2976.38,-2976.38l-38797.7,0c-1642.71,0 -2976.38,1333.67 -2976.38,2976.38l0,22851.1c0,1642.71 1333.67,2976.38 2976.38,2976.38l38797.7,-0c1642.71,-0 2976.38,-1333.67 2976.38,-2976.38l-0,-22851.1Z" style="fill:#003fff;"/>
        <path d="M46856.6,4150.53c-0,-2157.68 -1751.77,-3909.45 -3909.45,-3909.45c0,-0 -38797.7,-0 -38797.7,-0c-2157.68,-0 -3909.45,1751.77 -3909.45,3909.45c0,0 0,22851.1 0,22851.1c0,2157.68 1751.77,3909.45 3909.45,3909.45l38797.7,-0c2157.68,-0 3909.45,-1751.77 3909.45,-3909.45c-0,0 -0,-22851.1 -0,-22851.1Zm-933.071,0c-0,-1642.71 -1333.67,-2976.38 -2976.38,-2976.38l-38797.7,0c-1642.71,0 -2976.38,1333.67 -2976.38,2976.38l0,22851.1c0,1642.71 1333.67,2976.38 2976.38,2976.38l38797.7,-0c1642.71,-0 2976.38,-1333.67 2976.38,-2976.38l-0,-22851.1Z"/>
        <path d="M46773.9,4150.53c-0,-2112.05 -1714.72,-3826.77 -3826.77,-3826.77c0,-0 -38797.7,-0 -38797.7,-0c-2112.05,-0 -3826.77,1714.72 -3826.77,3826.77c-0,0 -0,22851.1 -0,22851.1c-0,2112.05 1714.72,3826.77 3826.77,3826.77l38797.7,-0c2112.05,-0 3826.77,-1714.72 3826.77,-3826.77c-0,0 -0,-22851.1 -0,-22851.1Zm-850.394,0c-0,-1642.71 -1333.67,-2976.38 -2976.38,-2976.38l-38797.7,0c-1642.71,0 -2976.38,1333.67 -2976.38,2976.38l0,22851.1c0,1642.71 1333.67,2976.38 2976.38,2976.38l38797.7,-0c1642.71,-0 2976.38,-1333.67 2976.38,-2976.38l-0,-22851.1Z" style="fill:#003fff;"/>
        <path d="M45923.6,15024.1c-0,-1642.71 -1333.67,-2976.38 -2976.38,-2976.38l-38797.7,-0c-1642.71,-0 -2976.38,1333.67 -2976.38,2976.38l0,11977.6c0,1642.71 1333.67,2976.38 2976.38,2976.38l38797.7,-0c1642.71,-0 2976.38,-1333.67 2976.38,-2976.38l-0,-11977.6Z" style="fill:none;stroke:#fff;stroke-width:850.39px;"/>
        <path d="M45923.6,4150.53c-0,-1642.71 -1333.67,-2976.38 -2976.38,-2976.38l-17278.1,0c-1642.71,0 -2976.38,1333.67 -2976.38,2976.38l0,3071.88c0,1642.71 1333.67,2976.38 2976.38,2976.38l17278.1,0c1642.71,0 2976.38,-1333.67 2976.38,-2976.38l-0,-3071.88Z" style="fill:none;stroke:#fff;stroke-width:850.39px;"/>
        <path d="M20974.8,4150.53c-0,-1642.71 -1333.67,-2976.38 -2976.38,-2976.38l-13848.9,0c-1642.71,0 -2976.38,1333.67 -2976.38,2976.38l0,3071.88c0,1642.71 1333.67,2976.38 2976.38,2976.38l13848.9,0c1642.71,0 2976.38,-1333.67 2976.38,-2976.38l-0,-3071.88Z" style="fill:none;stroke:#fff;stroke-width:850.39px;"/>
        <path d="M28703.9,2727.59l-741.621,-0l-1998.13,6285.13l2471.52,0l268.232,-6285.13Zm1672.25,1789.94l1760.88,-1164.06l-1414.49,-625.887l2575.33,-0l-0,2699.41l-589.807,-1507.42l-1841.19,2141.55l938.353,2951.59l-2471.52,0l-268.233,-6285.13l741.622,-0l569.049,1789.94Z" style="fill:#fff;"/>
        <g>
            <g>
                <rect x="12299.1" y="15576.1" width="13157.3" height="4258.83" style="fill:#f00;"/>
                <path d="M25751.7,15576.1l-0,-295.275l-13747.8,-0l0,4849.38l13747.8,0l-0,-4554.11Zm-295.276,0l-13157.3,0l0,4258.83l13157.3,-0l0,-4258.83Z" style="fill:#fff;"/>
                <g>
                    <path d="M12982,19263.5l739.666,-0l1.107,-1963.21l1284.45,1955.46l4.429,7.751l800.566,-0l1.107,-3143.58l-713.09,0l-1.108,2019.68l-1348.67,-2020.79l-769.562,-0l1.107,3144.68Z" style="fill:#fff;fill-rule:nonzero;"/>
                    <rect x="16278.4" y="17857.2" width="1085.14" height="581.324" style="fill:#fff;fill-rule:nonzero;"/>
                    <path d="M19066.5,19261.2l1.107,-3140.26l-643.331,0l-0,137.303c-28.052,178.642 -131.767,279.405 -311.147,302.289l-284.572,1.107l0,652.19l539.247,-1.107l0,2048.47l698.696,0Z" style="fill:#fff;fill-rule:nonzero;"/>
                    <path d="M19683.3,19263.5l2244.46,-0l0,-662.156l-994.34,0c140.256,-109.99 275.713,-225.516 406.373,-346.579c175.689,-138.042 325.172,-300.443 448.45,-487.205c260.58,-583.908 149.852,-1085.51 -332.185,-1504.8c-673.967,-373.524 -1263.41,-269.439 -1768.33,312.254c-103.346,247.293 -152.436,505.29 -147.269,773.991l741.88,-0c0.738,-90.798 7.751,-180.857 21.039,-270.178c43.553,-191.929 161.294,-310.039 353.223,-354.33c266.486,-22.146 435.532,95.964 507.136,354.33c3.691,152.806 -33.588,294.907 -111.836,426.305c-149.852,164.616 -315.945,311.884 -498.277,441.806l-549.213,420.767c-78.986,59.794 -153.912,124.016 -224.778,192.668c-64.961,81.939 -97.072,174.951 -96.334,279.035l-0,424.09Z" style="fill:#fff;fill-rule:nonzero;"/>
                    <path d="M22536.8,19263.5l2244.46,-0l-0,-662.156l-994.341,0c140.256,-109.99 275.714,-225.516 406.373,-346.579c175.689,-138.042 325.173,-300.443 448.45,-487.205c260.581,-583.908 149.853,-1085.51 -332.185,-1504.8c-673.966,-373.524 -1263.41,-269.439 -1768.33,312.254c-103.346,247.293 -152.436,505.29 -147.268,773.991l741.88,-0c0.738,-90.798 7.751,-180.857 21.038,-270.178c43.553,-191.929 161.294,-310.039 353.224,-354.33c266.486,-22.146 435.531,95.964 507.135,354.33c3.691,152.806 -33.587,294.907 -111.835,426.305c-149.853,164.616 -315.945,311.884 -498.278,441.806l-549.212,420.767c-78.987,59.794 -153.913,124.016 -224.779,192.668c-64.961,81.939 -97.072,174.951 -96.334,279.035l0,424.09Z" style="fill:#fff;fill-rule:nonzero;"/>
                </g>
            </g>
            <g>
                <path d="M5864.82,26570.8l1127.95,-0l1094,-4192.91l-940.453,0l-721.949,2678.15l-726.378,-2678.15l-978.838,0l1145.67,4192.91Z" style="fill:#fff;fill-rule:nonzero;"/>
                <path d="M11489.8,25900.6c-77.756,1.969 -154.528,-5.905 -230.315,-23.622c-72.835,-30.512 -108.268,-85.63 -106.299,-165.354l-0,-1291.83c-10.827,-418.307 -214.567,-695.866 -611.221,-832.677c-732.283,-238.189 -1399.61,-117.618 -2001.97,361.712l441.437,704.233c115.157,-109.252 245.571,-195.866 391.24,-259.843c193.898,-88.583 396.161,-116.142 606.791,-82.677c47.244,10.827 91.536,28.051 132.874,51.673c51.181,29.528 84.154,72.835 98.918,129.921c2.952,24.607 -5.414,44.292 -25.099,59.056c-36.417,13.779 -73.819,23.622 -112.204,29.527l-792.815,137.303c-359.252,95.473 -608.76,315.453 -748.524,659.941c-115.157,561.024 88.583,960.138 611.22,1197.34c459.646,158.464 881.89,89.075 1266.73,-208.17c207.677,207.678 458.169,301.674 751.476,281.989l327.756,-748.524Zm-1960.63,-104.823c-38.386,-23.622 -65.945,-57.086 -82.677,-100.393c-30.512,-115.158 8.366,-198.327 116.634,-249.508c30.512,-12.796 62.008,-22.638 94.488,-29.528c183.071,-28.543 364.665,-62.992 544.783,-103.346l-1.476,308.563c-22.638,74.803 -68.405,130.413 -137.303,166.83c-177.165,86.614 -355.315,89.075 -534.449,7.382Z" style="fill:#fff;fill-rule:nonzero;"/>
                <path d="M11888.4,25778c-1.968,425.197 198.327,705.216 600.886,840.059c320.866,58.071 638.287,43.799 952.264,-42.815l-84.154,-875.492c-119.094,62.992 -245.571,88.582 -379.429,76.771l-2.953,0c-85.63,-17.716 -127.953,-70.374 -126.968,-157.972l1.476,-3199.31l-965.551,-1.477l-0,3355.81l4.429,4.429Z" style="fill:#fff;fill-rule:nonzero;"/>
                <path d="M13865.3,25778c-1.968,425.197 198.327,705.216 600.886,840.059c320.866,58.071 638.287,43.799 952.264,-42.815l-84.154,-875.492c-119.094,62.992 -245.571,88.582 -379.429,76.771l-2.953,0c-85.63,-17.716 -127.952,-70.374 -126.968,-157.972l1.476,-3199.31l-965.551,-1.477l0,3355.81l4.429,4.429Z" style="fill:#fff;fill-rule:nonzero;"/>
                <path d="M18981,25900.6c-77.756,1.969 -154.528,-5.905 -230.315,-23.622c-72.835,-30.512 -108.268,-85.63 -106.299,-165.354l-0,-1291.83c-10.827,-418.307 -214.567,-695.866 -611.221,-832.677c-732.283,-238.189 -1399.61,-117.618 -2001.97,361.712l441.437,704.233c115.157,-109.252 245.57,-195.866 391.24,-259.843c193.897,-88.583 396.161,-116.142 606.791,-82.677c47.244,10.827 91.536,28.051 132.874,51.673c51.181,29.528 84.154,72.835 98.917,129.921c2.953,24.607 -5.413,44.292 -25.098,59.056c-36.417,13.779 -73.819,23.622 -112.205,29.527l-792.815,137.303c-359.252,95.473 -608.76,315.453 -748.523,659.941c-115.158,561.024 88.582,960.138 611.22,1197.34c459.646,158.464 881.89,89.075 1266.73,-208.17c207.678,207.678 458.17,301.674 751.477,281.989l327.756,-748.524Zm-1960.63,-104.823c-38.386,-23.622 -65.945,-57.086 -82.677,-100.393c-30.512,-115.158 8.366,-198.327 116.634,-249.508c30.511,-12.796 62.007,-22.638 94.488,-29.528c183.071,-28.543 364.665,-62.992 544.783,-103.346l-1.476,308.563c-22.638,74.803 -68.406,130.413 -137.303,166.83c-177.166,86.614 -355.315,89.075 -534.449,7.382Z" style="fill:#fff;fill-rule:nonzero;"/>
                <path d="M19542,24148.1c-423.228,755.906 -343.504,1454.73 239.174,2096.46c507.874,441.929 1060.53,507.382 1657.97,196.358l48.721,129.922l872.539,-2.953l-1.476,-3927.16l-947.835,-0l-2.953,1006.89c-339.567,-193.897 -695.866,-232.283 -1068.9,-115.157c-334.645,116.142 -600.393,321.358 -797.244,615.649Zm1864.67,659.941c7.874,155.512 7.874,311.516 -0,468.012c-56.103,293.307 -231.299,465.551 -525.591,516.732c-366.142,6.89 -586.122,-168.307 -659.941,-525.59c-10.827,-153.543 -7.874,-306.102 8.859,-457.677c58.07,-270.67 222.44,-435.04 493.11,-493.111c364.173,-25.59 592.027,138.288 683.563,491.634Z" style="fill:#fff;fill-rule:nonzero;"/>
                <path d="M23340.7,26253.4c706.693,547.244 1412.89,546.26 2118.6,-2.952c238.189,-235.237 382.874,-517.717 434.055,-847.441c26.575,-193.898 29.528,-388.288 8.859,-583.17c-42.323,-317.913 -165.847,-600.393 -370.571,-847.441c-54.134,-62.992 -112.697,-121.555 -175.689,-175.689c-756.89,-531.496 -1467.03,-474.901 -2130.41,169.784l-5.905,7.382c-200.788,248.031 -318.406,531.004 -352.854,848.917c-30.512,192.914 -24.607,384.843 17.716,575.788c49.213,335.629 198.819,618.602 448.819,848.917l7.382,5.905Zm1637.3,-1433.56c37.402,193.898 35.433,387.304 -5.906,580.217c-66.929,216.535 -208.661,357.776 -425.196,423.72c-366.142,64.961 -614.666,-76.279 -745.571,-423.72c-45.276,-191.929 -50.689,-385.335 -16.24,-580.217c59.055,-273.622 225.393,-440.452 499.015,-500.492c369.095,-24.606 600.394,142.225 693.898,500.492Z" style="fill:#fff;fill-rule:nonzero;"/>
                <path d="M26441.1,25778c-1.969,425.197 198.326,705.216 600.885,840.059c320.867,58.071 638.288,43.799 952.264,-42.815l-84.153,-875.492c-119.095,62.992 -245.571,88.582 -379.43,76.771l-2.952,0c-85.63,-17.716 -127.953,-70.374 -126.969,-157.972l1.477,-3199.31l-965.552,-1.477l0,3355.81l4.43,4.429Z" style="fill:#fff;fill-rule:nonzero;"/>
                <path d="M28497.7,26569.4l972.933,0l0,-3038.39l-972.933,0l0,3038.39Zm388.287,-4222.44c-317.913,102.363 -456.2,318.898 -414.862,649.607c101.378,316.929 317.421,455.216 648.13,414.862c316.929,-101.378 455.217,-317.421 414.862,-648.13c-101.378,-317.913 -317.421,-456.693 -648.13,-416.339Z" style="fill:#fff;fill-rule:nonzero;"/>
                <path d="M30310.7,24148.1c-423.228,755.906 -343.504,1454.73 239.173,2096.46c507.874,441.929 1060.53,507.382 1657.97,196.358l48.72,129.922l872.54,-2.953l-1.477,-3927.16l-947.834,-0l-2.953,1006.89c-339.567,-193.897 -695.866,-232.283 -1068.9,-115.157c-334.645,116.142 -600.393,321.358 -797.244,615.649Zm1864.67,659.941c7.874,155.512 7.874,311.516 -0,468.012c-56.103,293.307 -231.3,465.551 -525.591,516.732c-366.142,6.89 -586.122,-168.307 -659.941,-525.59c-10.827,-153.543 -7.874,-306.102 8.858,-457.677c58.071,-270.67 222.441,-435.04 493.111,-493.111c364.173,-25.59 592.027,138.288 683.563,491.634Z" style="fill:#fff;fill-rule:nonzero;"/>
            </g>
        </g>
        <g>
            <path d="M36064.9,7244.42l2244.46,-0l-0,-662.156l-994.341,0c140.256,-109.99 275.714,-225.517 406.373,-346.58c175.689,-138.041 325.173,-300.442 448.45,-487.204c260.581,-583.908 149.853,-1085.51 -332.185,-1504.8c-673.966,-373.524 -1263.41,-269.439 -1768.33,312.253c-103.346,247.294 -152.436,505.291 -147.268,773.992l741.88,-0c0.738,-90.798 7.751,-180.857 21.038,-270.178c43.553,-191.929 161.294,-310.039 353.223,-354.33c266.487,-22.146 435.532,95.964 507.136,354.33c3.691,152.806 -33.587,294.907 -111.835,426.305c-149.853,164.616 -315.945,311.884 -498.278,441.806l-549.212,420.767c-78.987,59.794 -153.913,124.016 -224.779,192.668c-64.961,81.939 -97.072,174.951 -96.334,279.035l0,424.09Z" style="fill:#fff;fill-rule:nonzero;"/>
            <path d="M41474,4755.24c-130.659,-261.318 -326.649,-456.569 -587.967,-585.752c-728.593,-272.392 -1294.78,-76.034 -1698.57,589.074c-265.01,606.053 -269.07,1213.58 -12.18,1822.59c132.874,273.868 336.245,477.239 610.113,610.113c737.451,267.225 1306.23,63.484 1706.32,-611.22c241.387,-610.483 235.482,-1218.75 -17.717,-1824.8Zm-550.32,1340.92c-6.644,34.695 -15.871,68.651 -27.682,101.87c-160.187,334.399 -419.291,453.986 -777.313,358.76c-215.551,-81.939 -345.472,-235.483 -389.764,-460.63c-25.098,-214.075 -29.527,-428.15 -13.287,-642.225c3.691,-35.433 6.274,-70.866 7.751,-106.299c20.669,-293.061 171.629,-481.668 452.879,-565.822c53.888,-14.763 108.514,-21.776 163.878,-21.038c363.927,39.862 560.285,242.126 589.075,606.791l1.107,7.751c25.098,239.912 22.884,480.192 -6.644,720.842Z" style="fill:#fff;fill-rule:nonzero;"/>
            <path d="M43198,7242.2l1.108,-3140.26l-643.332,0l-0,137.303c-28.051,178.642 -131.767,279.405 -311.147,302.289l-284.572,1.107l0,652.19l539.248,-1.107l-0,2048.47l698.695,0Z" style="fill:#fff;fill-rule:nonzero;"/>
        </g>
        <g>
            <path d="M4039.52,6429.31c130.659,437.746 415.231,722.318 853.715,853.715c724.163,121.063 1212.85,-163.139 1466.04,-852.608c64.961,-253.937 51.305,-503.445 -40.969,-748.524c-0.738,-2.214 -1.846,-4.798 -3.322,-7.751c-323.327,-606.053 -812.746,-806.471 -1468.26,-601.254l37.648,-293.431l1355.32,0l-1.108,-663.262l-1962.11,-0l-205.955,1633.24l738.559,120.694l7.751,-8.859c36.909,-62.746 85.999,-112.943 147.268,-150.59c237.697,-117.372 436.27,-70.128 595.719,141.732c104.084,186.762 107.037,375.738 8.858,566.929c-75.295,107.038 -177.534,171.629 -306.718,193.775c-280.511,18.455 -455.831,-108.145 -525.959,-379.798l-696.481,195.989Z" style="fill:#fff;fill-rule:nonzero;"/>
            <path d="M9571.51,4772.81c-130.66,-261.319 -326.649,-456.57 -587.968,-585.753c-728.592,-272.392 -1294.78,-76.034 -1698.57,589.075c-265.009,606.053 -269.07,1213.58 -12.18,1822.59c132.874,273.868 336.245,477.239 610.113,610.113c737.451,267.225 1306.23,63.485 1706.32,-611.22c241.388,-610.482 235.483,-1218.75 -17.716,-1824.8Zm-550.32,1340.92c-6.644,34.695 -15.871,68.652 -27.682,101.87c-160.187,334.4 -419.292,453.986 -777.313,358.76c-215.551,-81.939 -345.473,-235.482 -389.764,-460.63c-25.098,-214.075 -29.528,-428.15 -13.287,-642.224c3.691,-35.433 6.274,-70.867 7.751,-106.3c20.669,-293.061 171.628,-481.668 452.878,-565.821c53.888,-14.764 108.514,-21.777 163.878,-21.039c363.928,39.862 560.286,242.126 589.075,606.791l1.108,7.751c25.098,239.912 22.883,480.192 -6.644,720.842Z" style="fill:#fff;fill-rule:nonzero;"/>
            <path d="M12741.7,4772.81c-130.659,-261.319 -326.648,-456.57 -587.967,-585.753c-728.593,-272.392 -1294.78,-76.034 -1698.57,589.075c-265.01,606.053 -269.07,1213.58 -12.18,1822.59c132.874,273.868 336.245,477.239 610.113,610.113c737.451,267.225 1306.23,63.485 1706.32,-611.22c241.388,-610.482 235.482,-1218.75 -17.717,-1824.8Zm-550.32,1340.92c-6.643,34.695 -15.871,68.652 -27.682,101.87c-160.187,334.4 -419.291,453.986 -777.313,358.76c-215.551,-81.939 -345.472,-235.482 -389.763,-460.63c-25.099,-214.075 -29.528,-428.15 -13.288,-642.224c3.691,-35.433 6.275,-70.867 7.751,-106.3c20.669,-293.061 171.629,-481.668 452.879,-565.821c53.888,-14.764 108.514,-21.777 163.878,-21.039c363.927,39.862 560.285,242.126 589.075,606.791l1.107,7.751c25.099,239.912 22.884,480.192 -6.644,720.842Z" style="fill:#fff;fill-rule:nonzero;"/>
            <path d="M14730.3,7259.77l664.37,0l0,-1351.99c20.67,-125.492 92.274,-204.478 214.813,-236.958c167.569,-19.932 276.452,50.196 326.649,210.383l0,1378.57l680.979,0l0,-1334.28c15.502,-149.853 97.441,-237.328 245.817,-262.426c166.093,-0 264.641,81.569 295.645,244.709l0,1351.99l665.477,0l-2.214,-1560.16c-51.673,-215.551 -166.093,-390.502 -343.258,-524.852c-386.811,-261.319 -748.524,-229.946 -1085.14,94.119c-7.382,-8.859 -15.133,-17.717 -23.253,-26.575c-310.039,-296.752 -639.641,-320.374 -988.804,-70.866l-77.51,-121.801l-573.573,-0l0,2210.14Z" style="fill:#fff;fill-rule:nonzero;"/>
        </g>
        <path d="M40114.5,20666.8l1051.91,-1684.8l844.279,4212.78l-4212.78,-844.279l1684.8,-1051.91l-3030.05,-2651.29l1010.55,-1010.55l2651.29,3030.05Zm-4.949,7.926l-0.351,0.351l0.081,0.082l0.27,-0.433Zm-618.566,618.566l-0.352,0.352l0.433,-0.271l-0.081,-0.081Z" style="fill:#fff;"/>
    </g>
</svg>
