<?xml version="1.0" encoding="UTF-8" standalone="no"?>
<!DOCTYPE svg PUBLIC "-//W3C//DTD SVG 1.1//EN" "http://www.w3.org/Graphics/SVG/1.1/DTD/svg11.dtd">
<svg width="100%" height="100%" viewBox="0 0 111645 40362" version="1.1" xmlns="http://www.w3.org/2000/svg" xmlns:xlink="http://www.w3.org/1999/xlink" xml:space="preserve" style="fill-rule:evenodd;clip-rule:evenodd;stroke-linecap:round;stroke-linejoin:round;stroke-miterlimit:1.5;">
    <g id="g4071">
        <path d="M58502.7,4600.15c0,-1825.23 -1481.86,-3307.09 -3307.09,-3307.09l-50535,0c-1825.23,0 -3307.09,1481.86 -3307.09,3307.09l0,31161c0,1825.23 1481.86,3307.09 3307.09,3307.09l50535,0c1825.23,0 3307.09,-1481.86 3307.09,-3307.09l0,-31161Z" style="fill:#003fff;"/>
        <path d="M59565.7,4600.15c0,-2411.91 -1958.17,-4370.08 -4370.08,-4370.08c0,-0 -50535,-0 -50535,-0c-2411.91,-0 -4370.08,1958.17 -4370.08,4370.08c0,-0 0,31161 0,31161c0,2411.91 1958.17,4370.08 4370.08,4370.08c-0,-0 50535,-0 50535,-0c2411.91,-0 4370.08,-1958.17 4370.08,-4370.08c0,-0 0,-31161 0,-31161Zm-1062.99,-0c0,-1825.23 -1481.86,-3307.09 -3307.09,-3307.09l-50535,0c-1825.23,0 -3307.09,1481.86 -3307.09,3307.09l0,31161c0,1825.23 1481.86,3307.09 3307.09,3307.09l50535,0c1825.23,0 3307.09,-1481.86 3307.09,-3307.09l0,-31161Z"/>
        <path d="M59447.6,4600.15c0,-2346.73 -1905.24,-4251.97 -4251.97,-4251.97c0,0 -50535,0 -50535,0c-2346.72,0 -4251.97,1905.24 -4251.97,4251.97c0,-0 0,31161 0,31161c0,2346.72 1905.24,4251.97 4251.97,4251.97c-0,0 50535,0 50535,0c2346.73,0 4251.97,-1905.24 4251.97,-4251.97c0,-0 0,-31161 0,-31161Zm-944.882,-0c0,-1825.23 -1481.86,-3307.09 -3307.09,-3307.09l-50535,0c-1825.23,0 -3307.09,1481.86 -3307.09,3307.09l0,31161c0,1825.23 1481.86,3307.09 3307.09,3307.09l50535,0c1825.23,0 3307.09,-1481.86 3307.09,-3307.09l0,-31161Z" style="fill:#003fff;"/>
        <path d="M58502.7,4600.15c0,-1825.23 -1481.86,-3307.09 -3307.09,-3307.09l-50535,0c-1825.23,0 -3307.09,1481.86 -3307.09,3307.09l0,31161c0,1825.23 1481.86,3307.09 3307.09,3307.09l50535,0c1825.23,0 3307.09,-1481.86 3307.09,-3307.09l0,-31161Z" style="fill:none;stroke:#fff;stroke-width:944.88px;"/>
        <path d="M110291,4600.15c0,-1825.23 -1481.86,-3307.09 -3307.09,-3307.09l-41301.5,0c-1825.23,0 -3307.09,1481.86 -3307.09,3307.09l-0,31161c-0,1825.23 1481.86,3307.09 3307.09,3307.09l41301.5,0c1825.23,0 3307.09,-1481.86 3307.09,-3307.09l0,-31161Z" style="fill:#003fff;"/>
        <path d="M111354,4600.15c-0,-2411.91 -1958.17,-4370.08 -4370.08,-4370.08c-0,-0 -41301.5,-0 -41301.5,-0c-2411.91,-0 -4370.08,1958.17 -4370.08,4370.08l-0,31161c-0,2411.91 1958.17,4370.08 4370.08,4370.08c0,-0 41301.5,-0 41301.5,-0c2411.91,-0 4370.08,-1958.17 4370.08,-4370.08c-0,-0 -0,-31161 -0,-31161Zm-1062.99,-0c0,-1825.23 -1481.86,-3307.09 -3307.09,-3307.09l-41301.5,0c-1825.23,0 -3307.09,1481.86 -3307.09,3307.09l-0,31161c-0,1825.23 1481.86,3307.09 3307.09,3307.09l41301.5,0c1825.23,0 3307.09,-1481.86 3307.09,-3307.09l0,-31161Z"/>
        <path d="M111236,4600.15c0,-2346.73 -1905.24,-4251.97 -4251.97,-4251.97c-0,0 -41301.5,0 -41301.5,0c-2346.72,0 -4251.97,1905.24 -4251.97,4251.97l-0,31161c-0,2346.72 1905.24,4251.97 4251.97,4251.97c0,0 41301.5,0 41301.5,0c2346.72,0 4251.97,-1905.24 4251.97,-4251.97c0,-0 0,-31161 0,-31161Zm-944.882,-0c0,-1825.23 -1481.86,-3307.09 -3307.09,-3307.09l-41301.5,0c-1825.23,0 -3307.09,1481.86 -3307.09,3307.09l-0,31161c-0,1825.23 1481.86,3307.09 3307.09,3307.09l41301.5,0c1825.23,0 3307.09,-1481.86 3307.09,-3307.09l0,-31161Z" style="fill:#003fff;"/>
        <path d="M110291,16769c0,-1825.23 -1481.86,-3307.09 -3307.09,-3307.09l-41301.5,0c-1825.23,0 -3307.09,1481.86 -3307.09,3307.09l-0,18992.2c-0,1825.23 1481.86,3307.09 3307.09,3307.09l41301.5,0c1825.23,0 3307.09,-1481.86 3307.09,-3307.09l0,-18992.2Z" style="fill:none;stroke:#fff;stroke-width:944.88px;"/>
        <path d="M110291,4600.15c0,-1825.23 -1481.86,-3307.09 -3307.09,-3307.09l-16969.6,0c-1825.23,0 -3307.09,1481.86 -3307.09,3307.09l-0,3705.72c-0,1825.23 1481.86,3307.09 3307.09,3307.09l16969.6,-0c1825.23,-0 3307.09,-1481.86 3307.09,-3307.09l0,-3705.72Z" style="fill:none;stroke:#fff;stroke-width:944.88px;"/>
        <path d="M84827.1,4600.15c0,-1825.23 -1481.86,-3307.09 -3307.09,-3307.09l-15837.6,0c-1825.23,0 -3307.09,1481.86 -3307.09,3307.09l-0,3705.72c-0,1825.23 1481.86,3307.09 3307.09,3307.09l15837.6,-0c1825.23,-0 3307.09,-1481.86 3307.09,-3307.09l0,-3705.72Z" style="fill:none;stroke:#fff;stroke-width:944.88px;"/>
        <path d="M92743.6,3182.16l-830.884,-0l-2238.63,6832.49l2769,0l300.517,-6832.49Zm1873.52,1945.83l1972.83,-1265.43l-1584.74,-680.395l2885.3,-0l-0,2934.5l-660.797,-1638.7l-2062.8,2328.06l1051.29,3208.64l-2769,0l-300.517,-6832.49l830.884,-0l637.541,1945.83Z" style="fill:#fff;"/>
        <g>
            <path d="M15387.9,26273.4l1092.99,0l222.496,-690.226l1674.41,1.624l216,688.602l1127.1,0l-1546.11,-4610.71l-1252.15,-1.624l-1534.74,4612.34Zm1679.28,-1719.88l518.076,-1598.08l519.7,1598.08l-1037.78,0Z" style="fill:#fff;fill-rule:nonzero;"/>
            <path d="M25889.1,24501.6l-1.624,11.369c-102.858,481.805 -395.73,773.053 -878.618,873.745c-642.046,38.978 -1042.11,-253.895 -1200.18,-878.618c-74.707,-359.459 -74.166,-718.918 1.624,-1078.38c99.609,-502.377 401.143,-800.663 904.603,-894.858c639.88,-20.572 1029.65,281.504 1169.33,906.226l989.054,-419.008c-240.362,-660.452 -691.851,-1108.15 -1354.47,-1343.1c-1273.27,-289.084 -2170.29,164.571 -2691.07,1360.96c-212.211,618.226 -216,1236.99 -11.369,1856.3c238.196,670.197 691.851,1124.39 1360.96,1362.59c1278.68,294.497 2181.66,-158.617 2708.94,-1359.34l3.248,-16.241l-1000.42,-381.655Z" style="fill:#fff;fill-rule:nonzero;"/>
            <path d="M27826.6,25924.3c777.385,601.986 1554.23,600.903 2330.53,-3.248c262.015,-258.767 421.174,-569.505 477.474,-932.212c29.233,-213.294 32.482,-427.128 9.745,-641.505c-46.557,-349.715 -182.437,-660.452 -407.64,-932.212c-59.549,-69.293 -123.97,-133.714 -193.263,-193.263c-832.603,-584.663 -1613.78,-522.407 -2343.52,186.767l-6.496,8.12c-220.872,272.843 -350.256,584.122 -388.151,933.836c-33.564,212.211 -27.067,423.339 19.489,633.385c54.135,369.203 218.707,680.482 493.715,933.836l8.12,6.496Zm1801.09,-1576.97c41.143,213.294 38.977,426.046 -6.497,638.257c-73.624,238.196 -229.534,393.564 -467.73,466.106c-402.767,71.459 -676.151,-83.91 -820.151,-466.106c-49.805,-211.128 -55.76,-423.88 -17.865,-638.257c64.963,-300.993 247.94,-484.512 548.933,-550.557c406.016,-27.068 660.452,156.451 763.31,550.557Z" style="fill:#fff;fill-rule:nonzero;"/>
            <path d="M32261.9,26273.4l-0,-1771.85c17.323,-172.15 87.699,-318.857 211.128,-440.121c253.354,-168.902 527.82,-214.917 823.4,-138.045l3.248,-1125.48c-386.527,-31.399 -736.242,67.669 -1049.14,297.203l-27.61,-224.121l-1042.65,3.249l0,3399.16l1081.63,0Z" style="fill:#fff;fill-rule:nonzero;"/>
            <path d="M33816.1,25225.9c36.812,199.218 113.684,381.113 230.617,545.685c546.767,633.384 1182.32,740.031 1906.65,319.94l82.827,177.023l915.971,0l0,-3360.18l-1073.51,-1.624l0,1851.43c4.331,66.045 -4.872,131.008 -27.609,194.888c-55.218,149.413 -158.075,251.729 -308.572,306.947c-293.414,69.294 -501.835,-34.105 -625.264,-310.196c-28.15,-74.706 -41.684,-152.12 -40.601,-232.24l-1.624,-1810.83l-1057.27,1.624l-1.624,2317.54Z" style="fill:#fff;fill-rule:nonzero;"/>
            <path d="M37603.4,23043.2l-1.625,3230.26l1005.3,0l0,-1942.38c41.143,-233.865 177.023,-377.866 407.64,-432.001c305.324,-25.985 499.128,108.271 581.414,402.768l0,1971.61l1019.91,0l0,-2220.09c-45.473,-356.211 -210.586,-642.587 -495.339,-859.129c-526.196,-324.813 -1049.68,-319.94 -1570.47,14.616l-64.963,-165.654l-881.865,0Z" style="fill:#fff;fill-rule:nonzero;"/>
            <path d="M44614.5,25536.1c-85.534,2.165 -169.985,-6.496 -253.353,-25.985c-80.121,-33.564 -119.098,-94.196 -116.933,-181.895l0,-1421.06c-11.91,-460.151 -236.03,-765.474 -672.362,-915.971c-805.535,-262.015 -1539.61,-129.384 -2202.23,397.895l485.595,774.678c126.677,-120.18 270.136,-215.459 430.377,-285.835c213.293,-97.444 435.79,-127.759 667.489,-90.947c51.97,11.91 100.692,30.857 146.166,56.842c56.301,32.481 92.572,80.12 108.812,142.917c3.248,27.068 -5.955,48.722 -27.609,64.963c-40.06,15.158 -81.203,25.985 -123.429,32.481l-872.121,151.038c-395.189,105.023 -669.655,347.008 -823.4,725.956c-126.677,617.144 97.444,1056.18 672.362,1317.12c505.625,174.316 970.107,97.985 1393.45,-228.993c228.451,228.451 504,331.85 826.647,310.196l360.542,-823.4Zm-2156.76,-115.308c-42.225,-25.985 -72.541,-62.797 -90.947,-110.437c-33.564,-126.677 9.203,-218.165 128.301,-274.466c33.564,-14.075 68.21,-24.903 103.94,-32.481c201.384,-31.399 401.143,-69.294 599.279,-113.685l-1.624,339.429c-24.902,82.286 -75.248,143.459 -151.038,183.519c-194.888,95.279 -390.858,97.985 -587.911,8.121Z" style="fill:#fff;fill-rule:nonzero;"/>
            <rect x="38097.1" y="21980.1" width="1827.42" height="484.443" style="fill:#fff;"/>
        </g>
        <g transform="matrix(1,0,0,1,16752.9,13575.5)">
            <g transform="matrix(4872.08,0,0,4872.08,4100.37,4543.04)">
                <path d="M0.244,0l0.191,0l0.185,-0.71l-0.159,0l-0.122,0.454l-0.123,-0.454l-0.166,0l0.194,0.71Z" style="fill:#fff;fill-rule:nonzero;"/>
            </g>
            <g transform="matrix(4872.08,0,0,4872.08,7194.14,4543.04)">
                <path d="M0.065,-0l0.165,-0l-0,-0.515l-0.165,0.001l0,0.514Zm0.066,-0.715c-0.054,0.017 -0.078,0.054 -0.071,0.11c0.018,0.054 0.054,0.077 0.11,0.07c0.054,-0.017 0.077,-0.053 0.071,-0.11c-0.018,-0.053 -0.054,-0.077 -0.11,-0.07Z" style="fill:#fff;fill-rule:nonzero;"/>
            </g>
            <g transform="matrix(4872.08,0,0,4872.08,8677.69,4543.04)">
                <path d="M0.051,-0.134c-0.001,0.072 0.033,0.119 0.101,0.142c0.055,0.01 0.109,0.008 0.162,-0.007l-0.015,-0.148c-0.02,0.01 -0.041,0.015 -0.064,0.013l-0,-0c-0.015,-0.003 -0.022,-0.012 -0.022,-0.027l0,-0.542l-0.163,0l-0,0.568l0.001,0.001Z" style="fill:#fff;fill-rule:nonzero;"/>
            </g>
            <g transform="matrix(4872.08,0,0,4872.08,10259.9,4543.04)">
                <path d="M0.051,-0.134c-0.001,0.072 0.033,0.119 0.101,0.142c0.055,0.01 0.109,0.008 0.162,-0.007l-0.015,-0.148c-0.02,0.01 -0.041,0.015 -0.064,0.013l-0,-0c-0.015,-0.003 -0.022,-0.012 -0.022,-0.027l0,-0.542l-0.163,0l-0,0.568l0.001,0.001Z" style="fill:#fff;fill-rule:nonzero;"/>
            </g>
            <g transform="matrix(4872.08,0,0,4872.08,11853.1,4543.04)">
                <path d="M0.58,-0.113c-0.013,0 -0.026,-0.001 -0.039,-0.004c-0.012,-0.005 -0.018,-0.015 -0.018,-0.028l0,-0.219c-0.002,-0.071 -0.036,-0.118 -0.103,-0.141c-0.124,-0.04 -0.237,-0.02 -0.339,0.061l0.074,0.119c0.02,-0.018 0.042,-0.033 0.067,-0.043c0.032,-0.016 0.067,-0.02 0.102,-0.015c0.008,0.002 0.016,0.005 0.023,0.009c0.008,0.005 0.014,0.013 0.017,0.022c0,0.004 -0.001,0.008 -0.005,0.01c-0.006,0.003 -0.012,0.004 -0.019,0.005l-0.134,0.023c-0.061,0.017 -0.103,0.054 -0.127,0.112c-0.019,0.095 0.015,0.163 0.104,0.203c0.078,0.027 0.149,0.015 0.214,-0.035c0.035,0.035 0.078,0.051 0.128,0.047l0.055,-0.126Zm-0.332,-0.018c-0.006,-0.004 -0.011,-0.01 -0.014,-0.017c-0.005,-0.02 0.001,-0.034 0.02,-0.042c0.005,-0.002 0.01,-0.004 0.016,-0.005c0.031,-0.005 0.062,-0.011 0.092,-0.018l-0,0.052c-0.004,0.013 -0.012,0.023 -0.023,0.029c-0.03,0.014 -0.061,0.015 -0.091,0.001Z" style="fill:#fff;fill-rule:nonzero;"/>
            </g>
            <g transform="matrix(4872.08,0,0,4872.08,14711.8,4543.04)">
                <path d="M0.051,-0.134c-0.001,0.072 0.033,0.119 0.101,0.142c0.055,0.01 0.109,0.008 0.162,-0.007l-0.015,-0.148c-0.02,0.01 -0.041,0.015 -0.064,0.013l-0,-0c-0.015,-0.003 -0.022,-0.012 -0.022,-0.027l0,-0.542l-0.163,0l-0,0.568l0.001,0.001Z" style="fill:#fff;fill-rule:nonzero;"/>
            </g>
            <g transform="matrix(4872.08,0,0,4872.08,16381.7,4543.04)">
                <path d="M0.496,-0.067c0.044,-0.048 0.069,-0.104 0.075,-0.169c0.006,-0.144 -0.059,-0.24 -0.196,-0.286c-0.058,-0.014 -0.113,-0.005 -0.164,0.025l-0,-0.171l-0.161,0l0,0.668l0.146,0l0.011,-0.022c0.107,0.054 0.203,0.039 0.289,-0.045Zm-0.285,-0.234c0.01,-0.046 0.038,-0.074 0.084,-0.083c0.061,-0.005 0.1,0.023 0.116,0.083c0.003,0.026 0.003,0.051 0.001,0.077c-0.008,0.05 -0.038,0.08 -0.088,0.09c-0.062,0.002 -0.099,-0.028 -0.113,-0.088c-0.001,-0.027 -0.001,-0.053 0,-0.079Z" style="fill:#fff;fill-rule:nonzero;"/>
            </g>
            <g transform="matrix(4872.08,0,0,4872.08,19290.3,4543.04)">
                <path d="M0.58,-0.113c-0.013,0 -0.026,-0.001 -0.039,-0.004c-0.012,-0.005 -0.018,-0.015 -0.018,-0.028l0,-0.219c-0.002,-0.071 -0.036,-0.118 -0.103,-0.141c-0.124,-0.04 -0.237,-0.02 -0.339,0.061l0.074,0.119c0.02,-0.018 0.042,-0.033 0.067,-0.043c0.032,-0.016 0.067,-0.02 0.102,-0.015c0.008,0.002 0.016,0.005 0.023,0.009c0.008,0.005 0.014,0.013 0.017,0.022c0,0.004 -0.001,0.008 -0.005,0.01c-0.006,0.003 -0.012,0.004 -0.019,0.005l-0.134,0.023c-0.061,0.017 -0.103,0.054 -0.127,0.112c-0.019,0.095 0.015,0.163 0.104,0.203c0.078,0.027 0.149,0.015 0.214,-0.035c0.035,0.035 0.078,0.051 0.128,0.047l0.055,-0.126Zm-0.332,-0.018c-0.006,-0.004 -0.011,-0.01 -0.014,-0.017c-0.005,-0.02 0.001,-0.034 0.02,-0.042c0.005,-0.002 0.01,-0.004 0.016,-0.005c0.031,-0.005 0.062,-0.011 0.092,-0.018l-0,0.052c-0.004,0.013 -0.012,0.023 -0.023,0.029c-0.03,0.014 -0.061,0.015 -0.091,0.001Z" style="fill:#fff;fill-rule:nonzero;"/>
            </g>
        </g>
        <g>
            <path d="M35031,11381.2l0,-5463.09l-10205.7,0l-0,5463.09l10205.7,0Zm-291.666,-5171.42l-9622.4,-0l-0,4879.75l9622.4,-0l-0,-4879.75Z" style="fill:#fff;"/>
            <path d="M25920.8,10363.4l819.728,0l166.869,-517.659l1255.78,1.218l161.997,516.441l845.306,0l-1159.56,-3457.96l-939.094,-1.218l-1151.03,3459.18Zm1259.43,-1289.88l388.549,-1198.53l389.766,1198.53l-778.315,-0Z" style="fill:#fff;fill-rule:nonzero;"/>
            <rect x="29657.7" y="8816.52" width="1193.66" height="639.461" style="fill:#fff;fill-rule:nonzero;"/>
            <path d="M31633.3,7602.15c-101.501,280.145 -162.402,568.816 -182.703,866.013c-74.705,510.756 19.489,988.221 282.581,1432.39c488.02,577.342 1065.77,688.182 1733.24,332.52c138.042,-95.818 253.348,-213.966 345.918,-354.444c367.03,-695.084 243.198,-1287.85 -371.497,-1778.31l-3.654,-2.436c-371.09,-197.319 -742.993,-198.943 -1115.71,-4.872c4.06,-193.259 90.54,-336.986 259.439,-431.179c272.024,-108.81 486.396,-39.789 643.115,207.063l725.94,-270.4l-2.436,-6.09c-135.606,-293.137 -350.79,-506.697 -645.551,-640.679c-735.685,-243.604 -1291.91,-26.797 -1668.69,650.423Zm1476.24,1244.82c142.102,230.612 133.17,455.54 -26.797,674.784c-21.112,22.736 -44.661,43.442 -70.645,62.119c-242.792,141.29 -456.352,105.562 -640.679,-107.186c-137.23,-217.62 -131.546,-431.18 17.052,-640.679c20.301,-24.361 43.037,-46.691 68.209,-66.991c238.733,-154.283 456.352,-128.298 652.86,77.953Z" style="fill:#fff;fill-rule:nonzero;"/>
        </g>
        <path d="M66149.9,27920.7l3010.93,0l-0,-1005.26l-2034.89,-0l-0,-3606.94l-977.658,-0l1.625,4612.2Z" style="fill:#fff;fill-rule:nonzero;"/>
        <path d="M73164,27183.4c-85.532,2.166 -169.981,-6.496 -253.347,-25.984c-80.118,-33.563 -119.094,-94.193 -116.929,-181.89l-0,-1421.01c-11.91,-460.137 -236.024,-765.452 -672.343,-915.944c-805.511,-262.008 -1539.57,-129.38 -2202.16,397.883l485.581,774.656c126.673,-120.177 270.128,-215.453 430.364,-285.827c213.287,-97.441 435.777,-127.756 667.47,-90.945c51.969,11.91 100.689,30.857 146.162,56.841c56.299,32.48 92.569,80.118 108.809,142.913c3.248,27.067 -5.955,48.721 -27.608,64.961c-40.059,15.157 -81.201,25.984 -123.426,32.48l-872.096,151.034c-395.177,105.019 -669.636,346.998 -823.376,725.935c-126.673,617.126 97.441,1056.15 672.342,1317.08c505.611,174.311 970.079,97.983 1393.41,-228.986c228.445,228.445 503.986,331.841 826.624,310.187l360.532,-823.376Zm-2156.69,-115.305c-42.225,-25.984 -72.54,-62.795 -90.945,-110.433c-33.563,-126.673 9.202,-218.159 128.297,-274.459c33.563,-14.074 68.209,-24.901 103.937,-32.48c201.378,-31.398 401.132,-69.291 599.262,-113.681l-1.624,339.419c-24.902,82.284 -75.246,143.455 -151.034,183.514c-194.882,95.276 -390.846,97.982 -587.893,8.12Z" style="fill:#fff;fill-rule:nonzero;"/>
        <path d="M73628.5,27282.5c177.559,224.114 398.425,390.305 662.598,498.573c595.473,262.008 1190.94,261.467 1786.42,-1.624c218.701,-110.433 377.854,-277.707 477.46,-501.821c188.386,-583.563 13.534,-1022.59 -524.557,-1317.08c-210.039,-89.862 -427.116,-159.695 -651.23,-209.498c-129.921,-30.315 -257.136,-69.291 -381.644,-116.929c-29.232,-11.909 -50.344,-31.939 -63.336,-60.088c-23.819,-69.292 -3.79,-122.343 60.088,-159.154c87.697,-35.728 178.642,-47.096 272.835,-34.104c114.764,5.413 224.655,30.315 329.675,74.704c148.327,54.134 269.587,143.997 363.78,269.587l641.486,-725.935c-365.945,-275 -775.197,-442.815 -1227.76,-503.445c-398.425,-37.894 -769.242,45.473 -1112.45,250.099c-87.697,66.043 -163.484,143.996 -227.362,233.858c-317.224,554.331 -233.317,1038.29 251.722,1451.87c206.792,116.929 427.117,196.506 660.975,238.73c162.401,27.067 322.638,64.42 480.708,112.057c44.39,14.075 74.164,42.225 89.321,84.449c19.489,80.118 -8.12,136.417 -82.824,168.898c-250.099,32.48 -488.288,-8.12 -714.567,-121.801c-153.741,-59.548 -292.323,-144.538 -415.748,-254.971l-675.591,623.622Z" style="fill:#fff;fill-rule:nonzero;"/>
        <path d="M79484.7,27917.5l1070.23,3.248l0,-1788.04l545.669,1.624l1034.5,1786.42l1088.09,0l-1101.08,-1888.73l17.865,-6.496c365.944,-154.823 626.328,-416.289 781.151,-784.4c247.933,-831.496 -13.533,-1445.91 -784.399,-1843.26c-129.922,-50.886 -264.174,-80.119 -402.756,-87.697l-2249.26,3.248l-0,4604.08Zm1065.35,-2676.38l3.248,-969.537l959.793,-0c247.934,42.224 392.471,187.844 433.613,436.86c2.165,297.736 -143.455,475.295 -436.861,532.677l-959.793,0Z" style="fill:#fff;fill-rule:nonzero;"/>
        <path d="M84066.1,27571.6c777.362,601.968 1554.18,600.886 2330.46,-3.248c262.008,-258.76 421.161,-569.488 477.46,-932.185c29.233,-213.287 32.481,-427.116 9.745,-641.486c-46.556,-349.705 -182.432,-660.433 -407.628,-932.185c-59.548,-69.292 -123.967,-133.711 -193.258,-193.258c-832.579,-584.646 -1613.73,-522.392 -2343.45,186.762l-6.496,8.12c-220.866,272.834 -350.246,584.104 -388.14,933.809c-33.563,212.204 -27.067,423.326 19.488,633.366c54.134,369.193 218.701,680.462 493.701,933.809l8.12,6.496Zm1801.03,-1576.92c41.141,213.287 38.976,426.033 -6.496,638.238c-73.622,238.189 -229.528,393.553 -467.717,466.092c-402.756,71.457 -676.132,-83.907 -820.128,-466.092c-49.803,-211.122 -55.758,-423.868 -17.864,-638.238c64.961,-300.985 247.933,-484.498 548.917,-550.542c406.004,-27.067 660.433,156.447 763.288,550.542Z" style="fill:#fff;fill-rule:nonzero;"/>
        <path d="M87357.9,27920.7l2726.72,0l-0,-889.96l-1292.72,-0l1213.14,-1609.4l-0,-865.6l-2561.07,-0l-0,941.929l1183.91,-0l-1269.98,1661.37l0,761.663Z" style="fill:#fff;fill-rule:nonzero;"/>
        <path d="M94118.7,27183.4c-85.532,2.166 -169.981,-6.496 -253.347,-25.984c-80.118,-33.563 -119.094,-94.193 -116.929,-181.89l0,-1421.01c-11.909,-460.137 -236.023,-765.452 -672.342,-915.944c-805.512,-262.008 -1539.57,-129.38 -2202.17,397.883l485.581,774.656c126.673,-120.177 270.128,-215.453 430.364,-285.827c213.288,-97.441 435.778,-127.756 667.471,-90.945c51.968,11.91 100.689,30.857 146.161,56.841c56.299,32.48 92.569,80.118 108.809,142.913c3.248,27.067 -5.955,48.721 -27.608,64.961c-40.059,15.157 -81.201,25.984 -123.425,32.48l-872.097,151.034c-395.177,105.019 -669.636,346.998 -823.376,725.935c-126.673,617.126 97.441,1056.15 672.343,1317.08c505.61,174.311 970.078,97.983 1393.4,-228.986c228.445,228.445 503.986,331.841 826.624,310.187l360.532,-823.376Zm-2156.69,-115.305c-42.225,-25.984 -72.54,-62.795 -90.945,-110.433c-33.563,-126.673 9.203,-218.159 128.297,-274.459c33.563,-14.074 68.209,-24.901 103.937,-32.48c201.378,-31.398 401.132,-69.291 599.262,-113.681l-1.624,339.419c-24.902,82.284 -75.246,143.455 -151.033,183.514c-194.882,95.276 -390.847,97.982 -587.894,8.12Z" style="fill:#fff;fill-rule:nonzero;"/>
        <path d="M94583.2,27282.5c177.559,224.114 398.425,390.305 662.599,498.573c595.472,262.008 1190.94,261.467 1786.42,-1.624c218.701,-110.433 377.854,-277.707 477.461,-501.821c188.385,-583.563 13.533,-1022.59 -524.557,-1317.08c-210.04,-89.862 -427.117,-159.695 -651.231,-209.498c-129.921,-30.315 -257.136,-69.291 -381.644,-116.929c-29.232,-11.909 -50.344,-31.939 -63.336,-60.088c-23.819,-69.292 -3.789,-122.343 60.088,-159.154c87.697,-35.728 178.642,-47.096 272.835,-34.104c114.764,5.413 224.656,30.315 329.675,74.704c148.327,54.134 269.587,143.997 363.78,269.587l641.486,-725.935c-365.945,-275 -775.197,-442.815 -1227.76,-503.445c-398.425,-37.894 -769.242,45.473 -1112.45,250.099c-87.696,66.043 -163.484,143.996 -227.362,233.858c-317.224,554.331 -233.317,1038.29 251.723,1451.87c206.791,116.929 427.116,196.506 660.974,238.73c162.402,27.067 322.638,64.42 480.709,112.057c44.389,14.075 74.163,42.225 89.321,84.449c19.488,80.118 -8.121,136.417 -82.825,168.898c-250.099,32.48 -488.288,-8.12 -714.567,-121.801c-153.74,-59.548 -292.323,-144.538 -415.748,-254.971l-675.591,623.622Z" style="fill:#fff;fill-rule:nonzero;"/>
        <path d="M100956,8166.75l2468.91,-0l-0,-728.371l-1093.78,-0c154.282,-120.989 303.285,-248.069 447.01,-381.238c193.258,-151.845 357.69,-330.487 493.295,-535.925c286.639,-642.298 164.838,-1194.06 -365.403,-1655.28c-741.364,-410.876 -1389.75,-296.383 -1945.16,343.479c-113.681,272.023 -167.68,555.82 -161.996,851.39l816.068,0c0.812,-99.876 8.526,-198.941 23.142,-297.194c47.909,-211.122 177.424,-341.044 388.546,-389.764c293.135,-24.36 479.085,105.561 557.85,389.764c4.06,168.085 -36.947,324.397 -123.02,468.934c-164.837,181.078 -347.539,343.073 -548.105,485.987l-604.134,462.844c-86.885,65.773 -169.303,136.418 -247.256,211.934c-71.457,90.133 -106.779,192.446 -105.967,306.939l-0,466.499Z" style="fill:#fff;fill-rule:nonzero;"/>
        <path d="M106906,5428.65c-143.725,-287.45 -359.313,-502.227 -646.764,-644.328c-801.452,-299.631 -1424.26,-83.637 -1868.43,647.982c-291.511,666.659 -295.977,1334.94 -13.398,2004.85c146.161,301.255 369.87,524.963 671.124,671.124c811.196,293.947 1436.85,69.833 1876.96,-672.342c265.526,-671.531 259.03,-1340.62 -19.489,-2007.28Zm-605.351,1475.01c-7.309,38.164 -17.459,75.516 -30.451,112.057c-176.205,367.839 -461.22,499.385 -855.044,394.636c-237.106,-90.133 -380.02,-259.031 -428.74,-506.693c-27.608,-235.483 -32.48,-470.965 -14.616,-706.447c4.06,-38.977 6.902,-77.953 8.526,-116.929c22.736,-322.367 188.792,-529.835 498.167,-622.404c59.276,-16.241 119.365,-23.955 180.265,-23.143c400.32,43.849 616.314,266.339 647.983,667.471l1.218,8.526c27.608,263.903 25.172,528.211 -7.308,792.926Z" style="fill:#fff;fill-rule:nonzero;"/>
        <path d="M66067.1,7250.8c143.725,481.521 456.754,794.55 939.087,939.087c796.58,133.169 1334.13,-179.454 1612.65,-937.869c71.457,-279.331 56.435,-553.789 -45.066,-823.376c-0.812,-2.436 -2.03,-5.278 -3.654,-8.526c-355.659,-666.659 -894.021,-887.119 -1615.08,-661.38l41.413,-322.774l1490.85,0l-1.218,-729.589l-2158.32,0l-226.55,1796.57l812.414,132.763l8.526,-9.744c40.6,-69.021 94.599,-124.237 161.996,-165.65c261.466,-129.109 479.896,-77.14 655.29,155.906c114.493,205.438 117.741,413.312 9.744,623.622c-82.825,117.741 -195.288,188.792 -337.389,213.152c-308.563,20.3 -501.415,-118.959 -578.556,-417.778l-766.129,215.588Z" style="fill:#fff;fill-rule:nonzero;"/>
        <path d="M72152.3,5428.65c-143.726,-287.45 -359.314,-502.227 -646.765,-644.328c-801.451,-299.631 -1424.26,-83.637 -1868.43,647.982c-291.511,666.659 -295.977,1334.94 -13.398,2004.85c146.162,301.255 369.87,524.963 671.125,671.124c811.196,293.947 1436.85,69.833 1876.96,-672.342c265.526,-671.531 259.03,-1340.62 -19.488,-2007.28Zm-605.352,1475.01c-7.308,38.164 -17.458,75.516 -30.45,112.057c-176.206,367.839 -461.221,499.385 -855.045,394.636c-237.106,-90.133 -380.019,-259.031 -428.74,-506.693c-27.608,-235.483 -32.48,-470.965 -14.616,-706.447c4.06,-38.977 6.902,-77.953 8.526,-116.929c22.736,-322.367 188.792,-529.835 498.167,-622.404c59.276,-16.241 119.365,-23.955 180.266,-23.143c400.319,43.849 616.314,266.339 647.982,667.471l1.218,8.526c27.608,263.903 25.172,528.211 -7.308,792.926Z" style="fill:#fff;fill-rule:nonzero;"/>
        <path d="M75639.5,5428.65c-143.726,-287.45 -359.314,-502.227 -646.765,-644.328c-801.452,-299.631 -1424.26,-83.637 -1868.43,647.982c-291.511,666.659 -295.977,1334.94 -13.398,2004.85c146.161,301.255 369.87,524.963 671.125,671.124c811.195,293.947 1436.85,69.833 1876.96,-672.342c265.526,-671.531 259.03,-1340.62 -19.488,-2007.28Zm-605.352,1475.01c-7.308,38.164 -17.459,75.516 -30.451,112.057c-176.205,367.839 -461.22,499.385 -855.044,394.636c-237.106,-90.133 -380.02,-259.031 -428.74,-506.693c-27.608,-235.483 -32.48,-470.965 -14.616,-706.447c4.06,-38.977 6.902,-77.953 8.526,-116.929c22.736,-322.367 188.792,-529.835 498.167,-622.404c59.276,-16.241 119.365,-23.955 180.265,-23.143c400.32,43.849 616.314,266.339 647.983,667.471l1.218,8.526c27.608,263.903 25.172,528.211 -7.308,792.926Z" style="fill:#fff;fill-rule:nonzero;"/>
        <path d="M77827,8164.31l730.807,-0l-0,-1487.19c22.736,-138.041 101.501,-224.926 236.294,-260.654c184.326,-21.924 304.097,55.216 359.314,231.422l-0,1516.42l749.077,-0l-0,-1467.7c17.052,-164.838 107.185,-261.061 270.398,-288.669c182.702,-0 291.105,89.727 325.21,269.18l-0,1487.19l732.025,-0l-2.436,-1716.18c-56.841,-237.106 -182.702,-429.552 -377.584,-577.337c-425.492,-287.451 -823.376,-252.941 -1193.65,103.531c-8.12,-9.744 -16.646,-19.489 -25.578,-29.233c-341.043,-326.427 -703.605,-352.411 -1087.68,-77.952l-85.261,-133.982l-630.93,0l-0,2431.15Z" style="fill:#fff;fill-rule:nonzero;"/>
        <path d="M8855.38,32882l2895.49,-647.895l-3602.36,3602.36l-3602.36,-3602.36l2895.49,647.895l0,-2124.27l1413.75,0l0,2124.27Z" style="fill:#fff;"/>
        <path d="M52404.6,32882l2895.49,-647.895l-3602.36,3602.36l-3602.36,-3602.36l2895.49,647.895l-0,-2124.27l1413.75,0l0,2124.27Z" style="fill:#fff;"/>
        <path d="M104422,26360.9l1043.21,-1670.88l837.301,4177.96l-4177.96,-837.301l1670.88,-1043.21l-3005.01,-2629.38l1002.2,-1002.2l2629.38,3005.01Zm-4.908,7.86l-0.349,0.349l0.081,0.081l0.268,-0.43Zm-613.454,613.455l-0.349,0.348l0.43,-0.268l-0.081,-0.08Z" style="fill:#fff;"/>
    </g>
</svg>
