<?xml version="1.0" encoding="UTF-8" standalone="no"?>
<!DOCTYPE svg PUBLIC "-//W3C//DTD SVG 1.1//EN" "http://www.w3.org/Graphics/SVG/1.1/DTD/svg11.dtd">
<svg width="100%" height="100%" viewBox="0 0 54388 37393" version="1.1" xmlns="http://www.w3.org/2000/svg" xmlns:xlink="http://www.w3.org/1999/xlink" xml:space="preserve" style="fill-rule:evenodd;clip-rule:evenodd;stroke-linecap:round;stroke-linejoin:round;stroke-miterlimit:1.5;">
    <g id="g4799">
    </g>
    <path d="M52790.4,4983.09c-0,-1825.23 -1481.86,-3307.09 -3307.09,-3307.09l-44516.9,-0c-1825.23,-0 -3307.09,1481.86 -3307.09,3307.09l0,27438.9c0,1825.23 1481.86,3307.09 3307.09,3307.09l44516.9,-0c1825.23,-0 3307.09,-1481.86 3307.09,-3307.09l-0,-27438.9Z" style="fill:#003fff;"/>
    <path d="M53853.4,4983.09c0,-2411.91 -1958.17,-4370.08 -4370.08,-4370.08c0,0 -44516.9,0 -44516.9,0c-2411.91,0 -4370.08,1958.17 -4370.08,4370.08l0,27438.9c0,2411.91 1958.17,4370.08 4370.08,4370.08c0,-0 44516.9,-0 44516.9,-0c2411.91,-0 4370.08,-1958.17 4370.08,-4370.08c0,0 0,-27438.9 0,-27438.9Zm-1062.99,0c-0,-1825.23 -1481.86,-3307.09 -3307.09,-3307.09l-44516.9,-0c-1825.23,-0 -3307.09,1481.86 -3307.09,3307.09l0,27438.9c0,1825.23 1481.86,3307.09 3307.09,3307.09l44516.9,-0c1825.23,-0 3307.09,-1481.86 3307.09,-3307.09l-0,-27438.9Z"/>
    <path d="M53735.3,4983.09c-0,-2346.72 -1905.24,-4251.97 -4251.97,-4251.97c0,-0 -44516.9,-0 -44516.9,-0c-2346.72,-0 -4251.97,1905.24 -4251.97,4251.97l0,27438.9c0,2346.72 1905.24,4251.97 4251.97,4251.97c0,-0 44516.9,-0 44516.9,-0c2346.73,-0 4251.97,-1905.24 4251.97,-4251.97c-0,0 -0,-27438.9 -0,-27438.9Zm-944.882,0c-0,-1825.23 -1481.86,-3307.09 -3307.09,-3307.09l-44516.9,-0c-1825.23,-0 -3307.09,1481.86 -3307.09,3307.09l0,27438.9c0,1825.23 1481.86,3307.09 3307.09,3307.09l44516.9,-0c1825.23,-0 3307.09,-1481.86 3307.09,-3307.09l-0,-27438.9Z" style="fill:#003fff;"/>
    <path d="M52790.4,17151.9c-0,-1825.23 -1481.86,-3307.09 -3307.09,-3307.09l-44516.9,-0c-1825.23,-0 -3307.09,1481.86 -3307.09,3307.09l0,15270c0,1825.23 1481.86,3307.09 3307.09,3307.09l44516.9,-0c1825.23,-0 3307.09,-1481.86 3307.09,-3307.09l-0,-15270Z" style="fill:none;stroke:#fff;stroke-width:944.88px;"/>
    <path d="M52790.4,4983.09c-0,-1825.23 -1481.86,-3307.09 -3307.09,-3307.09l-20185,-0c-1825.23,-0 -3307.09,1481.86 -3307.09,3307.09l0,3705.72c0,1825.23 1481.86,3307.09 3307.09,3307.09l20185,-0c1825.23,-0 3307.09,-1481.86 3307.09,-3307.09l-0,-3705.72Z" style="fill:none;stroke:#fff;stroke-width:944.88px;"/>
    <path d="M24111.1,4983.09c-0,-1825.23 -1481.86,-3307.09 -3307.09,-3307.09l-15837.6,-0c-1825.23,-0 -3307.09,1481.86 -3307.09,3307.09l0,3705.72c0,1825.23 1481.86,3307.09 3307.09,3307.09l15837.6,-0c1825.23,-0 3307.09,-1481.86 3307.09,-3307.09l-0,-3705.72Z" style="fill:none;stroke:#fff;stroke-width:944.88px;"/>
    <path d="M32027.7,3565.1l-830.885,-0l-2238.63,6832.49l2769,0l300.518,-6832.49Zm1873.52,1945.83l1972.83,-1265.43l-1584.74,-680.396l2885.3,-0l0,2934.5l-660.796,-1638.7l-2062.8,2328.06l1051.3,3208.64l-2769,0l-300.518,-6832.49l830.885,-0l637.541,1945.83Z" style="fill:#fff;"/>
    <g transform="matrix(1,0,0,1,4365.09,17344.3)">
        <g transform="matrix(6496.06,0,0,6496.06,742.417,5626.96)">
            <path d="M0.05,0l0.168,0l0.034,-0.106l0.258,0l0.033,0.106l0.174,0l-0.238,-0.71l-0.193,0l-0.236,0.71Zm0.258,-0.265l0.08,-0.246l0.08,0.247l-0.16,-0.001Z" style="fill:#fff;fill-rule:nonzero;"/>
        </g>
        <g transform="matrix(6496.06,0,0,6496.06,5015.2,5626.96)">
            <path d="M0.05,-0.518l0.177,0.518l0.179,0l0.001,-0l0.16,-0.518l-0.166,0l-0.088,0.294l0,0.001l-0.097,-0.295l-0.166,0Z" style="fill:#fff;fill-rule:nonzero;"/>
        </g>
        <g transform="matrix(6496.06,0,0,6496.06,8907.97,5626.96)">
            <path d="M0.065,-0l0.165,-0l-0,-0.515l-0.165,0.001l0,0.514Zm0.066,-0.715c-0.054,0.017 -0.078,0.054 -0.071,0.11c0.018,0.054 0.054,0.077 0.11,0.07c0.054,-0.017 0.077,-0.053 0.071,-0.11c-0.018,-0.053 -0.054,-0.077 -0.11,-0.07Z" style="fill:#fff;fill-rule:nonzero;"/>
        </g>
        <g transform="matrix(6496.06,0,0,6496.06,10821.1,5626.96)">
            <path d="M0.051,-0.134c-0.001,0.072 0.033,0.119 0.101,0.142c0.055,0.01 0.109,0.008 0.162,-0.007l-0.015,-0.148c-0.02,0.01 -0.041,0.015 -0.064,0.013l-0,-0c-0.015,-0.003 -0.022,-0.012 -0.022,-0.027l0,-0.542l-0.163,0l-0,0.568l0.001,0.001Z" style="fill:#fff;fill-rule:nonzero;"/>
        </g>
        <g transform="matrix(6496.06,0,0,6496.06,12924.2,5626.96)">
            <path d="M0.58,-0.113c-0.013,0 -0.026,-0.001 -0.039,-0.004c-0.012,-0.005 -0.018,-0.015 -0.018,-0.028l0,-0.219c-0.002,-0.071 -0.036,-0.118 -0.103,-0.141c-0.124,-0.04 -0.237,-0.02 -0.339,0.061l0.074,0.119c0.02,-0.018 0.042,-0.033 0.067,-0.043c0.032,-0.016 0.067,-0.02 0.102,-0.015c0.008,0.002 0.016,0.005 0.023,0.009c0.008,0.005 0.014,0.013 0.017,0.022c0,0.004 -0.001,0.008 -0.005,0.01c-0.006,0.003 -0.012,0.004 -0.019,0.005l-0.134,0.023c-0.061,0.017 -0.103,0.054 -0.127,0.112c-0.019,0.095 0.015,0.163 0.104,0.203c0.078,0.027 0.149,0.015 0.214,-0.035c0.035,0.035 0.078,0.051 0.128,0.047l0.055,-0.126Zm-0.332,-0.018c-0.006,-0.004 -0.011,-0.01 -0.014,-0.017c-0.005,-0.02 0.001,-0.034 0.02,-0.042c0.005,-0.002 0.01,-0.004 0.016,-0.005c0.031,-0.005 0.062,-0.011 0.092,-0.018l-0,0.052c-0.004,0.013 -0.012,0.023 -0.023,0.029c-0.03,0.014 -0.061,0.015 -0.091,0.001Z" style="fill:#fff;fill-rule:nonzero;"/>
        </g>
    </g>
    <g transform="matrix(1,0,0,1,4365.09,25642.9)">
        <g transform="matrix(6496.06,0,0,6496.06,742.417,5626.96)">
            <path d="M0.05,-0.144c0.018,0.022 0.038,0.042 0.061,0.06l0.001,0.001c0.024,0.02 0.05,0.036 0.078,0.05l0.001,0c0.127,0.065 0.253,0.064 0.379,-0.002c0.03,-0.018 0.055,-0.042 0.073,-0.073c0.054,-0.115 0.03,-0.211 -0.074,-0.286c-0.04,-0.026 -0.083,-0.043 -0.13,-0.052c-0.031,-0.01 -0.063,-0.018 -0.095,-0.024c-0.023,-0.005 -0.037,-0.019 -0.041,-0.043c-0.001,-0.031 0.014,-0.049 0.044,-0.055c0.031,-0.007 0.061,-0.006 0.092,0.002c0.047,0.01 0.087,0.032 0.122,0.065l0.001,-0.001l0.115,-0.106c-0.033,-0.028 -0.069,-0.053 -0.107,-0.075c-0.113,-0.05 -0.227,-0.053 -0.343,-0.01c-0.015,0.006 -0.028,0.014 -0.041,0.024c-0.014,0.012 -0.027,0.026 -0.037,0.041c-0.06,0.11 -0.042,0.204 0.054,0.283c0.043,0.028 0.091,0.045 0.142,0.051l0.001,0.001l0.093,0.026c0.022,0.006 0.036,0.02 0.043,0.042c0.005,0.035 -0.009,0.058 -0.042,0.069l-0.001,0.001c-0.031,0.009 -0.062,0.01 -0.094,0.002c-0.066,-0.01 -0.119,-0.042 -0.161,-0.094l-0.134,0.103Z" style="fill:#fff;fill-rule:nonzero;"/>
        </g>
        <g transform="matrix(6496.06,0,0,6496.06,5396.85,5626.96)">
            <path d="M0.073,-0.17c0.03,0.1 0.097,0.161 0.199,0.182c0.105,0.014 0.198,-0.014 0.278,-0.084l-0.104,-0.105c-0.034,0.03 -0.074,0.047 -0.119,0.049c-0.051,0.001 -0.086,-0.022 -0.104,-0.07l0.334,0c0.008,-0.051 0.004,-0.1 -0.013,-0.149c-0.051,-0.127 -0.144,-0.184 -0.281,-0.169l-0.002,0.001c-0.093,0.019 -0.155,0.074 -0.186,0.164l-0,0.002c-0.017,0.059 -0.017,0.119 -0.002,0.179Zm0.152,-0.147c0.009,-0.034 0.031,-0.056 0.065,-0.065c0.054,-0.008 0.09,0.014 0.107,0.065l-0.173,0Z" style="fill:#fff;fill-rule:nonzero;"/>
        </g>
        <g transform="matrix(6496.06,0,0,6496.06,8769.93,5626.96)">
            <path d="M0.123,0.109c0.035,0.018 0.071,0.032 0.109,0.042c0.091,0.037 0.182,0.034 0.271,-0.007c0.066,-0.04 0.102,-0.098 0.107,-0.175l0,-0.481l-0.136,0l-0.011,0.026c-0,0 -0,0 -0,0c-0.078,-0.048 -0.155,-0.049 -0.233,-0.001c-0.027,0.018 -0.05,0.04 -0.068,0.068c-0.075,0.133 -0.053,0.25 0.065,0.347c0.072,0.048 0.149,0.054 0.228,0.019l0,0c0.002,0.044 -0.018,0.071 -0.06,0.081c-0.074,0.007 -0.142,-0.009 -0.203,-0.051l-0.069,0.132Zm0.329,-0.426c0.009,0.03 0.008,0.06 -0.002,0.09c-0.01,0.021 -0.025,0.036 -0.045,0.045c-0.055,0.02 -0.096,0.005 -0.125,-0.045c-0.01,-0.03 -0.011,-0.06 -0.003,-0.09c0.01,-0.032 0.031,-0.053 0.064,-0.063c0.054,-0.01 0.092,0.011 0.111,0.063Z" style="fill:#fff;fill-rule:nonzero;"/>
        </g>
        <g transform="matrix(6496.06,0,0,6496.06,13008.6,5626.96)">
            <path d="M0.138,-0.054c0.12,0.093 0.239,0.093 0.359,0c0.04,-0.04 0.065,-0.088 0.073,-0.144c0.005,-0.032 0.005,-0.065 0.002,-0.098c-0.007,-0.054 -0.028,-0.102 -0.063,-0.144c-0.009,-0.01 -0.019,-0.02 -0.03,-0.029c-0.128,-0.09 -0.248,-0.081 -0.36,0.028l-0.001,0.002c-0.034,0.042 -0.054,0.089 -0.06,0.143c-0.005,0.033 -0.004,0.065 0.003,0.098c0.008,0.057 0.033,0.105 0.076,0.144l0.001,0.001Zm0.277,-0.243c0.007,0.033 0.006,0.065 -0.001,0.098c-0.011,0.037 -0.035,0.061 -0.072,0.072c-0.062,0.011 -0.104,-0.013 -0.126,-0.072c-0.008,-0.032 -0.009,-0.065 -0.003,-0.098c0.01,-0.047 0.038,-0.075 0.085,-0.085c0.062,-0.004 0.101,0.024 0.117,0.085Z" style="fill:#fff;fill-rule:nonzero;"/>
        </g>
        <g transform="matrix(6496.06,0,0,6496.06,16696.7,5626.96)">
            <path d="M0.05,-0.518l0.177,0.518l0.179,0l0.001,-0l0.16,-0.518l-0.166,0l-0.088,0.294l0,0.001l-0.097,-0.295l-0.166,0Z" style="fill:#fff;fill-rule:nonzero;"/>
        </g>
        <g transform="matrix(6496.06,0,0,6496.06,20589.5,5626.96)">
            <path d="M0.065,-0l0.165,-0l-0,-0.515l-0.165,0.001l0,0.514Zm0.066,-0.715c-0.054,0.017 -0.078,0.054 -0.071,0.11c0.018,0.054 0.054,0.077 0.11,0.07c0.054,-0.017 0.077,-0.053 0.071,-0.11c-0.018,-0.053 -0.054,-0.077 -0.11,-0.07Z" style="fill:#fff;fill-rule:nonzero;"/>
        </g>
        <g transform="matrix(6496.06,0,0,6496.06,22304.5,5626.96)">
            <path d="M0.58,-0.113c-0.013,0 -0.026,-0.001 -0.039,-0.004c-0.012,-0.005 -0.018,-0.015 -0.018,-0.028l0,-0.219c-0.002,-0.071 -0.036,-0.118 -0.103,-0.141c-0.124,-0.04 -0.237,-0.02 -0.339,0.061l0.074,0.119c0.02,-0.018 0.042,-0.033 0.067,-0.043c0.032,-0.016 0.067,-0.02 0.102,-0.015c0.008,0.002 0.016,0.005 0.023,0.009c0.008,0.005 0.014,0.013 0.017,0.022c0,0.004 -0.001,0.008 -0.005,0.01c-0.006,0.003 -0.012,0.004 -0.019,0.005l-0.134,0.023c-0.061,0.017 -0.103,0.054 -0.127,0.112c-0.019,0.095 0.015,0.163 0.104,0.203c0.078,0.027 0.149,0.015 0.214,-0.035c0.035,0.035 0.078,0.051 0.128,0.047l0.055,-0.126Zm-0.332,-0.018c-0.006,-0.004 -0.011,-0.01 -0.014,-0.017c-0.005,-0.02 0.001,-0.034 0.02,-0.042c0.005,-0.002 0.01,-0.004 0.016,-0.005c0.031,-0.005 0.062,-0.011 0.092,-0.018l-0,0.052c-0.004,0.013 -0.012,0.023 -0.023,0.029c-0.03,0.014 -0.061,0.015 -0.091,0.001Z" style="fill:#fff;fill-rule:nonzero;"/>
        </g>
    </g>
    <path d="M39109.9,5788.45c-101.501,280.142 -162.402,568.811 -182.702,866.006c-74.705,510.753 19.488,988.214 282.579,1432.38c488.017,577.337 1065.76,688.177 1733.23,332.517c138.041,-95.817 253.346,-213.964 345.915,-354.441c367.028,-695.079 243.196,-1287.85 -371.494,-1778.3l-3.654,-2.436c-371.087,-197.318 -742.987,-198.942 -1115.7,-4.872c4.06,-193.258 90.538,-336.983 259.436,-431.176c272.023,-108.809 486.393,-39.788 643.11,207.062l725.935,-270.398l-2.436,-6.091c-135.605,-293.134 -350.787,-506.692 -645.546,-640.674c-735.679,-243.602 -1291.9,-26.796 -1668.68,650.419Zm1476.23,1244.81c142.102,230.61 133.17,455.536 -26.796,674.778c-21.112,22.736 -44.66,43.443 -70.645,62.119c-242.79,141.289 -456.348,105.561 -640.674,-107.185c-137.229,-217.618 -131.545,-431.176 17.052,-640.674c20.3,-24.361 43.037,-46.691 68.209,-66.991c238.73,-154.282 456.348,-128.297 652.854,77.953Z" style="fill:#fff;fill-rule:nonzero;"/>
    <path d="M43309.6,8547.25l1.218,-3454.28l-707.665,-0l-0,151.033c-30.857,196.506 -144.944,307.345 -342.262,332.518l-313.029,1.218l0,717.408l593.172,-1.218l0,2253.32l768.566,0Z" style="fill:#fff;fill-rule:nonzero;"/>
    <path d="M43846.8,8549.69l819.722,0l166.867,-517.655l1255.77,1.218l161.995,516.437l845.3,0l-1159.55,-3457.93l-939.087,-1.218l-1151.02,3459.15Zm1259.42,-1289.87l388.546,-1198.52l389.764,1198.52l-778.31,-0Z" style="fill:#fff;fill-rule:nonzero;"/>
    <path d="M47566.6,8549.69l1915.93,0c308.563,-49.532 546.076,-207.062 712.537,-472.588c260.655,-545.67 146.974,-997.146 -341.043,-1354.43c208.686,-173.77 322.773,-395.854 342.261,-666.253c-22.736,-559.473 -310.999,-880.216 -864.788,-962.229l-1766.12,-3.654l1.218,3459.15Zm800.234,-2120.56l1.218,-615.096l721.063,-0c29.232,-1.624 57.246,3.248 84.042,14.616c78.765,34.916 135.2,91.757 169.304,170.522c58.465,185.949 1.624,325.209 -170.522,417.778c-26.796,7.308 -54.404,11.774 -82.824,13.398l-722.281,-1.218Zm2.436,1389.75l-0,-724.717l766.129,0c46.285,-4.872 91.351,1.624 135.199,19.488c129.11,54.405 206.656,150.222 232.641,287.451c12.992,224.926 -89.321,364.592 -306.939,418.996l-827.03,-1.218Z" style="fill:#fff;fill-rule:nonzero;"/>
    <path d="M5351.11,7633.74c143.726,481.521 456.755,794.55 939.087,939.088c796.58,133.169 1334.13,-179.454 1612.65,-937.87c71.457,-279.33 56.435,-553.789 -45.066,-823.375c-0.812,-2.437 -2.03,-5.279 -3.654,-8.527c-355.66,-666.658 -894.021,-887.118 -1615.08,-661.38l41.412,-322.773l1490.85,-0l-1.218,-729.589l-2158.32,-0l-226.55,1796.57l812.414,132.764l8.526,-9.745c40.6,-69.02 94.599,-124.237 161.995,-165.649c261.467,-129.109 479.897,-77.141 655.291,155.905c114.493,205.438 117.741,413.312 9.744,623.622c-82.825,117.742 -195.288,188.792 -337.39,213.152c-308.563,20.301 -501.415,-118.959 -578.555,-417.778l-766.13,215.588Z" style="fill:#fff;fill-rule:nonzero;"/>
    <path d="M11436.3,5811.6c-143.725,-287.451 -359.313,-502.227 -646.764,-644.328c-801.452,-299.631 -1424.26,-83.637 -1868.43,647.982c-291.511,666.658 -295.977,1334.94 -13.398,2004.85c146.161,301.255 369.869,524.963 671.124,671.125c811.196,293.947 1436.85,69.832 1876.96,-672.343c265.526,-671.53 259.03,-1340.62 -19.489,-2007.28Zm-605.352,1475.01c-7.308,38.164 -17.458,75.517 -30.45,112.057c-176.206,367.84 -461.22,499.385 -855.044,394.636c-237.106,-90.133 -380.02,-259.03 -428.74,-506.693c-27.609,-235.482 -32.481,-470.964 -14.616,-706.447c4.06,-38.976 6.902,-77.952 8.526,-116.929c22.736,-322.367 188.791,-529.835 498.166,-622.404c59.277,-16.24 119.366,-23.954 180.266,-23.142c400.32,43.848 616.314,266.338 647.983,667.47l1.218,8.526c27.608,263.903 25.172,528.212 -7.309,792.926Z" style="fill:#fff;fill-rule:nonzero;"/>
    <path d="M14923.5,5811.6c-143.725,-287.451 -359.313,-502.227 -646.764,-644.328c-801.452,-299.631 -1424.26,-83.637 -1868.43,647.982c-291.511,666.658 -295.977,1334.94 -13.398,2004.85c146.161,301.255 369.869,524.963 671.124,671.125c811.196,293.947 1436.85,69.832 1876.96,-672.343c265.527,-671.53 259.031,-1340.62 -19.488,-2007.28Zm-605.352,1475.01c-7.308,38.164 -17.458,75.517 -30.45,112.057c-176.206,367.84 -461.221,499.385 -855.044,394.636c-237.107,-90.133 -380.02,-259.03 -428.74,-506.693c-27.609,-235.482 -32.481,-470.964 -14.617,-706.447c4.06,-38.976 6.902,-77.952 8.526,-116.929c22.737,-322.367 188.792,-529.835 498.167,-622.404c59.277,-16.24 119.365,-23.954 180.266,-23.142c400.32,43.848 616.314,266.338 647.982,667.47l1.218,8.526c27.609,263.903 25.173,528.212 -7.308,792.926Z" style="fill:#fff;fill-rule:nonzero;"/>
    <path d="M17111,8547.25l730.807,0l0,-1487.19c22.737,-138.041 101.501,-224.926 236.295,-260.655c184.326,-21.924 304.097,55.217 359.313,231.423l0,1516.42l749.077,0l0,-1467.7c17.053,-164.837 107.186,-261.06 270.399,-288.669c182.702,0 291.105,89.727 325.209,269.181l0,1487.19l732.025,0l-2.436,-1716.18c-56.84,-237.107 -182.701,-429.552 -377.583,-577.338c-425.492,-287.451 -823.376,-252.94 -1193.65,103.531c-8.12,-9.744 -16.646,-19.488 -25.578,-29.232c-341.043,-326.427 -703.605,-352.412 -1087.68,-77.953l-85.261,-133.981l-630.93,-0l0,2431.15Z" style="fill:#fff;fill-rule:nonzero;"/>
    <path d="M47129.6,25065.8l1168.4,-1871.38l937.778,4679.32l-4679.32,-937.778l1871.38,-1168.4l-3365.61,-2944.9l1122.46,-1122.46l2944.9,3365.61Zm-5.496,8.804l-0.391,0.39l0.09,0.091l0.301,-0.481Zm-687.069,687.068l-0.391,0.391l0.481,-0.3l-0.09,-0.091Z" style="fill:#fff;"/>
    <path d="M7284.87,18034.3l609.115,-0l534.345,-1133.04l-906.033,0l-237.427,1133.04Z" style="fill:#fff;"/>
</svg>
