<?xml version="1.0" encoding="UTF-8" standalone="no"?>
<!DOCTYPE svg PUBLIC "-//W3C//DTD SVG 1.1//EN" "http://www.w3.org/Graphics/SVG/1.1/DTD/svg11.dtd">
<svg width="100%" height="100%" viewBox="0 0 39238 26528" version="1.1" xmlns="http://www.w3.org/2000/svg" xmlns:xlink="http://www.w3.org/1999/xlink" xml:space="preserve" style="fill-rule:evenodd;clip-rule:evenodd;stroke-linecap:round;stroke-linejoin:round;stroke-miterlimit:1.5;">
    <g id="g4799">
        <path d="M38272.3,9456.24c0,-1232.03 -1000.25,-2232.28 -2232.28,-2232.28l-32833,0c-1232.03,0 -2232.28,1000.25 -2232.28,2232.28l0,13809.3c0,1232.03 1000.25,2232.28 2232.28,2232.28l32833,0c1232.03,0 2232.28,-1000.25 2232.28,-2232.28l0,-13809.3Z" style="fill:#fff;"/>
        <path d="M39040,9456.24c0,-1655.75 -1344.26,-3000 -3000,-3000l-32833,0c-1655.75,0 -3000,1344.26 -3000,3000l0,13809.3c0,1655.75 1344.26,3000 3000,3000l32833,0c1655.75,0 3000,-1344.25 3000,-3000l0,-13809.3Zm-767.716,0c0,-1232.03 -1000.25,-2232.28 -2232.28,-2232.28l-32833,0c-1232.03,0 -2232.28,1000.25 -2232.28,2232.28l0,13809.3c0,1232.03 1000.25,2232.28 2232.28,2232.28l32833,0c1232.03,0 2232.28,-1000.25 2232.28,-2232.28l0,-13809.3Z"/>
        <path d="M38910.1,9456.24c0,-1584.04 -1286.04,-2870.08 -2870.08,-2870.08l-32833,0c-1584.04,0 -2870.08,1286.04 -2870.08,2870.08l0,13809.3c0,1584.04 1286.04,2870.08 2870.08,2870.08l32833,0c1584.04,0 2870.08,-1286.04 2870.08,-2870.08l0,-13809.3Zm-637.795,0c0,-1232.03 -1000.25,-2232.28 -2232.28,-2232.28l-32833,0c-1232.03,0 -2232.28,1000.25 -2232.28,2232.28l0,13809.3c0,1232.03 1000.25,2232.28 2232.28,2232.28l32833,0c1232.03,0 2232.28,-1000.25 2232.28,-2232.28l0,-13809.3Z" style="fill:#fff;"/>
        <g>
            <path d="M26272.4,2504.75c0,-924.023 -750.19,-1674.21 -1674.21,-1674.21l-9926.58,0c-924.023,0 -1674.21,750.19 -1674.21,1674.21l0,1721.66c0,924.023 750.19,1674.21 1674.21,1674.21l9926.58,0c924.023,0 1674.21,-750.189 1674.21,-1674.21l0,-1721.66Z" style="fill:#fff;"/>
            <path d="M26863,2504.75c0,-1249.96 -1014.81,-2264.76 -2264.76,-2264.76l-9926.58,0c-1249.96,0 -2264.76,1014.81 -2264.76,2264.76l0,1721.66c0,1249.96 1014.81,2264.76 2264.76,2264.76l9926.58,0c1249.96,0 2264.76,-1014.81 2264.76,-2264.76l0,-1721.66Zm-590.551,0c0,-924.023 -750.19,-1674.21 -1674.21,-1674.21l-9926.58,0c-924.023,0 -1674.21,750.19 -1674.21,1674.21l0,1721.66c0,924.023 750.19,1674.21 1674.21,1674.21l9926.58,0c924.023,0 1674.21,-750.189 1674.21,-1674.21l0,-1721.66Z"/>
            <path d="M26750.8,2504.75c0,-1188.03 -964.529,-2152.56 -2152.56,-2152.56l-9926.58,0c-1188.03,0 -2152.56,964.529 -2152.56,2152.56l0,1721.66c0,1188.03 964.529,2152.56 2152.56,2152.56l9926.58,0c1188.03,0 2152.56,-964.53 2152.56,-2152.56l0,-1721.66Zm-478.346,0c0,-924.023 -750.19,-1674.21 -1674.21,-1674.21l-9926.58,0c-924.023,0 -1674.21,750.19 -1674.21,1674.21l0,1721.66c0,924.023 750.19,1674.21 1674.21,1674.21l9926.58,0c924.023,0 1674.21,-750.189 1674.21,-1674.21l0,-1721.66Z" style="fill:#fff;"/>
            <path d="M26272.4,2504.75c0,-924.023 -750.19,-1674.21 -1674.21,-1674.21l-9926.58,0c-924.023,0 -1674.21,750.19 -1674.21,1674.21l0,1721.66c0,924.023 750.19,1674.21 1674.21,1674.21l9926.58,0c924.023,0 1674.21,-750.189 1674.21,-1674.21l0,-1721.66Z" style="fill:none;stroke:#000;stroke-width:478.35px;"/>
            <path d="M14525.4,3903.25c96.862,324.516 307.824,535.478 632.887,632.888c536.847,89.748 899.123,-120.941 1086.83,-632.067c48.158,-188.252 38.034,-373.22 -30.372,-554.906c-0.547,-1.641 -1.368,-3.557 -2.462,-5.746c-239.693,-449.287 -602.516,-597.864 -1088.47,-445.73l27.91,-217.529l1004.74,0l-0.821,-491.699l-1454.58,0l-152.681,1210.78l547.518,89.475l5.746,-6.567c27.362,-46.516 63.754,-83.729 109.175,-111.638c176.212,-87.012 323.421,-51.988 441.626,105.071c77.161,138.453 79.35,278.547 6.567,420.283c-55.819,79.351 -131.612,127.235 -227.38,143.652c-207.953,13.681 -337.923,-80.171 -389.912,-281.557l-516.324,145.293l0.003,-0.003Z" style="fill-rule:nonzero;"/>
            <path d="M18626.5,2675.23c-96.862,-193.724 -242.156,-338.47 -435.88,-434.238c-540.13,-201.933 -959.866,-56.366 -1259.21,436.701c-196.46,449.287 -199.47,899.669 -9.029,1351.15c98.504,203.027 249.269,353.793 452.297,452.297c546.697,198.102 968.348,47.063 1264.95,-453.118c178.949,-452.571 174.571,-903.5 -13.134,-1352.79l0.006,-0.002Zm-407.971,994.069c-4.925,25.721 -11.765,50.894 -20.521,75.52c-118.752,247.902 -310.835,336.555 -576.248,265.961c-159.796,-60.745 -256.11,-174.571 -288.945,-341.481c-18.606,-158.701 -21.89,-317.401 -9.851,-476.102c2.737,-26.268 4.652,-52.536 5.747,-78.803c15.322,-217.256 127.234,-357.077 335.734,-419.463c39.949,-10.945 80.445,-16.144 121.488,-15.596c269.791,29.551 415.358,179.496 436.701,449.834l0.821,5.746c18.606,177.855 16.964,355.983 -4.926,534.384Z" style="fill-rule:nonzero;"/>
            <path d="M20976.6,2675.23c-96.863,-193.724 -242.156,-338.47 -435.88,-434.238c-540.13,-201.933 -959.866,-56.366 -1259.21,436.701c-196.461,449.287 -199.47,899.669 -9.029,1351.15c98.503,203.027 249.269,353.793 452.297,452.297c546.697,198.102 968.348,47.063 1264.95,-453.118c178.948,-452.571 174.57,-903.5 -13.134,-1352.79l0.006,-0.002Zm-407.971,994.069c-4.925,25.721 -11.766,50.894 -20.521,75.52c-118.752,247.902 -310.835,336.555 -576.248,265.961c-159.796,-60.745 -256.111,-174.571 -288.945,-341.481c-18.607,-158.701 -21.89,-317.401 -9.851,-476.102c2.736,-26.268 4.652,-52.536 5.746,-78.803c15.323,-217.256 127.235,-357.077 335.735,-419.463c39.948,-10.945 80.444,-16.144 121.488,-15.596c269.791,29.551 415.358,179.496 436.701,449.834l0.82,5.746c18.607,177.855 16.965,355.983 -4.925,534.384Z" style="fill-rule:nonzero;"/>
            <path d="M22450.9,4518.9l492.52,-0l0,-1002.28c15.323,-93.031 68.405,-151.586 159.248,-175.665c124.224,-14.776 204.943,37.212 242.155,155.964l0,1021.98l504.833,-0l0,-989.144c11.492,-111.091 72.236,-175.939 182.232,-194.545c123.13,-0 196.187,60.47 219.172,181.411l0,1002.28l493.34,-0l-1.641,-1156.6c-38.308,-159.795 -123.13,-289.492 -254.469,-389.09c-286.756,-193.725 -554.905,-170.467 -804.449,69.773c-5.472,-6.567 -11.218,-13.133 -17.238,-19.7c-229.843,-219.993 -474.187,-237.504 -733.033,-52.536l-57.461,-90.295l-425.209,-0l0,1638.45l0,-0.003Z" style="fill-rule:nonzero;"/>
        </g>
        <path d="M38272.3,9456.24c0,-1232.03 -1000.25,-2232.28 -2232.28,-2232.28l-32810.2,0c-1232.03,0 -2232.28,1000.25 -2232.28,2232.28l0,13809.3c0,1232.03 1000.25,2232.28 2232.28,2232.28l32810.2,0c1232.03,0 2232.28,-1000.25 2232.28,-2232.28l0,-13809.3Z" style="fill:none;stroke:#000;stroke-width:637.8px;"/>
        <g>
            <g>
                <path d="M10084.9,14388c-236.409,420.283 -193.724,807.732 131.338,1165.63c282.378,246.259 591.023,282.377 922.652,108.354l26.268,72.236l485.952,-0l0,-2183.5l-528.637,0l0,558.188c-190.441,-108.354 -387.448,-128.055 -597.59,-62.385c-183.873,62.385 -331.629,177.306 -439.983,341.479Zm1034.29,367.748c6.567,85.37 6.567,174.023 -0,259.393c-29.552,164.173 -128.055,259.394 -292.228,288.945c-203.575,3.283 -325.063,-95.221 -364.464,-292.228c-6.567,-85.37 -6.567,-170.74 3.283,-256.11c32.835,-151.039 124.772,-242.976 272.527,-272.527c203.575,-16.418 331.63,75.519 380.882,272.527Z" style="fill-rule:nonzero;"/>
            </g>
            <g>
                <path d="M11883.4,15176c98.503,328.346 318.495,528.637 653.408,597.59c344.763,45.968 650.125,-45.969 912.802,-275.811l-341.48,-344.763c-111.637,98.503 -242.976,154.322 -390.732,160.889c-167.456,3.284 -282.377,-72.236 -341.479,-229.842l1096.67,-0c26.268,-167.457 13.134,-328.346 -42.685,-489.236c-167.456,-416.999 -472.818,-604.156 -922.652,-554.904l-6.567,3.283c-305.362,62.386 -508.936,242.976 -610.724,538.488l0.001,6.566c-55.819,193.725 -55.819,390.732 -6.567,587.74Zm499.085,-482.669c29.552,-111.637 101.788,-183.874 213.425,-213.425c177.307,-26.267 295.512,45.969 351.331,213.425l-568.039,0l3.283,0Z" style="fill-rule:nonzero;"/>
            </g>
            <g>
                <path d="M16656.4,13895.7c-0.357,-1.117 -0.77,-2.214 -1.237,-3.289c-137.021,-315.147 -399.926,-474.162 -793.86,-474.162l-61.712,0.098c-366.133,27.374 -605.48,202.196 -719.072,526.468c-17.115,33.133 -25.83,90.163 -25.83,178.26c0,165.441 74.06,308.445 227.03,427.693c-178.291,98.119 -266.431,257.494 -266.431,478.542l-0,45.969c-0,2.861 0.351,5.712 1.045,8.488c3.085,12.341 3.04,27.705 5.965,43.129c41.521,312.219 222.639,512.162 547.961,598.716c65.751,30.077 171.414,44.642 314.028,44.642c108.679,-0 213.962,-16.975 312.452,-47.541c98.129,-30.454 196.339,-81.048 294.468,-145.34c1.184,-0.776 2.319,-1.622 3.4,-2.535c155.767,-131.537 235.694,-304.47 235.694,-522.544c0,0 0,-49.252 0,-49.252c0,-195.224 -84.155,-347.005 -256.558,-459.816c149.547,-99.854 223.724,-235.134 223.724,-410.301c-0,-72.189 -13.566,-151.286 -41.067,-237.225Zm-1104.86,1172.77c-0.001,-0.002 -0.001,-12.893 -0.001,-12.893c0,-76.175 21.176,-136.226 65.372,-179.343c45.633,-44.521 114.318,-70.773 204.68,-81.279c0.008,-0.001 57.088,-3.172 57.088,-3.172c160.734,0.234 267.869,59.146 325.221,182.693c0,0.001 0,31.849 0,31.849c0,93.426 -23.035,164.121 -73.033,210.834c-50.816,47.478 -127.788,69.378 -230.163,69.378c0,0 -36.118,0 -36.118,0c-10.296,0 -20.617,0.335 -30.913,-2.238c-2.776,-0.694 -5.627,-1.045 -8.488,-1.045l-9.851,-0c-74.254,-0 -133.541,-17.145 -177.584,-53.544c-43.438,-35.9 -71.439,-89.976 -86.21,-161.24Zm54,-1033.83c50.475,-73.444 129.177,-118.173 229.868,-132.842c0.011,-0.002 46.738,-3.117 46.738,-3.117c135.467,0.355 228.418,63.045 278.92,187.993c-2.437,85.547 -24.059,150.198 -68.097,193.171c-45.08,43.989 -112.44,64.163 -200.962,64.337c-0.005,-0 -48.01,-3.2 -48.01,-3.2c-83.837,-5.891 -146.869,-26.468 -188.424,-64.713c-39.7,-36.538 -58.065,-89.025 -58.065,-156.479c-0,-25.728 2.71,-54.108 8.032,-85.15Z" style="fill-rule:nonzero;"/>
            </g>
            <g>
                <path d="M19953.3,15363.2c-42.685,0 -85.37,-3.283 -128.055,-13.134c-39.402,-16.417 -59.102,-49.252 -59.102,-91.937l-0,-719.077c-6.567,-233.126 -118.205,-387.449 -338.197,-462.968c-407.149,-131.339 -778.18,-65.67 -1113.09,200.291l242.976,390.731c65.669,-59.102 137.906,-108.354 219.992,-141.188c105.071,-52.536 219.992,-65.669 334.913,-49.252c26.268,6.567 52.535,16.417 75.52,29.551c26.267,16.417 45.968,42.685 55.818,72.236c0,13.134 -3.283,26.268 -16.417,32.835c-19.701,9.85 -39.401,13.134 -62.386,16.417l-439.983,75.52c-200.291,55.818 -338.197,177.306 -417,367.747c-62.385,311.929 49.252,535.204 341.48,666.542c256.11,88.654 489.236,49.252 702.661,-114.921c114.921,114.921 256.11,167.457 420.283,154.323l180.59,-413.716Zm-1090.11,-59.102c-19.701,-13.134 -36.118,-32.835 -45.968,-55.819c-16.418,-65.669 3.283,-111.638 65.669,-137.905c16.417,-6.567 32.834,-13.134 52.535,-16.418c101.787,-16.417 203.575,-36.118 302.079,-59.102l-0,170.74c-13.134,42.685 -39.402,75.52 -75.52,95.22c-98.504,45.969 -200.291,49.252 -298.795,3.284Z" style="fill-rule:nonzero;"/>
            </g>
            <g>
                <path d="M21466.2,15734.2l1664.71,0l-0,-489.236l-738.779,0c105.071,-82.086 206.858,-167.456 302.079,-259.393c131.338,-101.787 239.692,-219.992 331.629,-361.18c193.724,-430.134 111.638,-804.448 -246.259,-1113.09c-499.086,-279.095 -935.786,-200.291 -1310.1,229.842c-75.519,183.874 -111.638,374.314 -108.354,574.605l548.338,0c-0,-68.952 6.567,-134.622 16.417,-200.291c32.835,-141.189 118.205,-229.842 262.677,-262.677c197.007,-16.417 321.779,72.237 374.314,262.677c3.284,111.638 -22.984,219.992 -82.086,315.212c-111.638,121.488 -233.126,233.126 -367.748,328.346l-407.149,311.929c-59.102,42.685 -114.921,91.937 -167.456,141.189c-49.252,62.386 -72.236,131.338 -72.236,206.858l-0,315.212Z" style="fill-rule:nonzero;"/>
            </g>
            <g>
                <path d="M25476.1,13888.9c-95.221,-193.724 -242.976,-338.196 -436.7,-433.416c-538.488,-203.575 -958.771,-55.819 -1257.57,436.7c-197.007,449.834 -200.291,899.668 -9.85,1352.79c98.504,200.292 249.543,351.331 453.117,449.834c545.055,200.292 968.621,49.252 1264.13,-453.117c177.306,-453.117 174.023,-902.952 -13.134,-1352.79Zm-407.149,994.889c-6.567,26.268 -13.134,52.535 -22.985,75.519c-118.204,249.543 -308.645,338.197 -574.605,265.961c-160.89,-59.103 -256.11,-174.024 -288.944,-341.48c-19.701,-157.606 -22.985,-318.496 -9.851,-476.102c3.284,-26.268 3.284,-52.535 6.567,-78.803c13.134,-216.708 124.772,-357.897 334.913,-420.283c39.401,-9.85 82.086,-16.417 121.488,-13.134c269.244,29.552 416.999,177.307 436.7,449.834l0,3.284c19.701,177.307 16.417,357.897 -3.283,535.204Z" style="fill-rule:nonzero;"/>
            </g>
            <g>
                <path d="M28516.5,14601.4c-22.984,-203.574 -121.488,-361.18 -292.228,-472.818l-6.566,-3.283c-249.543,-141.189 -499.086,-137.906 -748.629,9.85l-0,-728.928l-518.787,-0l0,2324.69l3.283,6.566l515.504,0l-0,-988.321c22.984,-128.055 98.503,-203.575 226.558,-226.559c160.89,-6.567 256.11,68.953 288.945,226.559l-0,981.755l531.92,-0l0,-1129.51Z" style="fill-rule:nonzero;"/>
            </g>
        </g>
        <g>
            <g>
                <path d="M11470.5,11402.8c-42.685,0 -85.37,-3.283 -128.055,-13.134c-39.402,-16.417 -59.102,-49.252 -59.102,-91.937l-0,-719.077c-6.567,-233.126 -118.205,-387.449 -338.197,-462.968c-407.149,-131.339 -778.18,-65.67 -1113.09,200.291l242.976,390.731c65.669,-59.102 137.906,-108.354 219.992,-141.188c105.071,-52.536 219.992,-65.669 334.913,-49.252c26.268,6.567 52.535,16.417 75.52,29.551c26.267,16.417 45.968,42.685 55.818,72.236c0,13.134 -3.283,26.268 -16.417,32.835c-19.701,9.85 -39.401,13.134 -62.386,16.417l-439.983,75.52c-200.291,55.818 -338.197,177.306 -417,367.747c-62.385,311.929 49.252,535.204 341.48,666.542c256.11,88.654 489.236,49.252 702.661,-114.921c114.921,114.921 256.11,167.457 420.282,154.323l180.591,-413.716Zm-1090.11,-59.102c-19.701,-13.134 -36.118,-32.835 -45.968,-55.819c-16.418,-65.669 3.283,-111.638 65.669,-137.905c16.417,-6.567 32.834,-13.134 52.535,-16.418c101.787,-16.417 203.575,-36.118 302.079,-59.102l-0,170.74c-13.134,42.685 -39.402,75.52 -75.52,95.22c-98.504,45.969 -200.291,49.252 -298.795,3.284Z" style="fill-rule:nonzero;"/>
            </g>
            <g>
                <path d="M13791.1,11773.8l-0,-2327.97l-479.385,-0l-0,101.787c-19.701,131.339 -95.221,206.858 -229.843,223.275l-210.141,0l0,482.669l400.582,0l0,1520.24l518.787,0Z" style="fill-rule:nonzero;"/>
            </g>
            <g>
                <path d="M14279.5,12016.8l62.386,0c170.74,-9.85 292.228,-95.22 361.18,-249.543c22.984,-68.953 32.835,-141.189 26.268,-216.708c-29.551,-144.473 -118.205,-229.842 -262.677,-256.11c-151.039,-13.134 -252.826,49.252 -305.362,193.724c-6.567,19.701 -9.85,42.685 -9.85,62.386c9.85,124.771 75.52,197.007 200.291,210.141c6.567,3.284 9.85,9.851 13.134,16.417c3.283,13.134 -3.284,26.268 -16.417,32.835c-26.268,13.134 -55.819,22.984 -85.37,26.268l-3.284,-0c-32.834,6.567 -49.252,26.267 -49.252,59.102c-3.283,29.551 0,55.819 9.851,85.37c13.133,22.984 32.834,36.118 59.102,36.118Z" style="fill-rule:nonzero;"/>
            </g>
            <g>
                <path d="M15051.6,11312c71.244,243.213 230.928,400.441 474.141,474.141c400.44,66.331 673.133,-90.897 813.164,-474.141c34.394,-140.031 27.024,-277.606 -24.567,-412.724l0,-4.913c-179.338,-336.567 -452.031,-447.118 -815.621,-334.11l22.11,-162.141l751.747,-0l-2.456,-368.504l-1088.31,0l-113.008,906.519l410.268,66.33l2.456,-4.913c22.11,-34.394 49.134,-61.417 83.528,-83.527c130.204,-63.874 240.755,-39.308 329.196,78.614c58.961,103.181 58.961,208.818 4.914,314.456c-41.764,58.96 -98.268,95.811 -169.512,108.094c-154.772,9.827 -253.039,-61.417 -292.346,-211.275l-385.701,108.094Z" style="fill-rule:nonzero;"/>
            </g>
            <g>
                <path d="M19441.4,11773.8l-627.141,-1024.44l594.306,-653.408l-689.526,-0l-397.299,420.283l-0,-1050.71l-535.204,-0l0,2311.55l535.204,0l-0,-535.204l108.354,-108.354l423.567,640.275l587.739,0Z" style="fill-rule:nonzero;"/>
            </g>
            <g>
                <path d="M19750,11773.8l492.519,0l-0,-1004.74c16.417,-91.937 68.953,-151.039 157.606,-174.023c124.772,-16.417 206.858,36.118 242.976,154.322l0,1024.44l505.653,-0l-0,-991.605c13.134,-108.354 72.236,-174.023 180.59,-193.724c124.772,-0 197.008,62.386 219.992,180.59l0,1004.74l492.519,-0l0,-1159.06c-39.401,-157.606 -124.771,-288.945 -256.11,-387.449c-285.661,-193.724 -554.905,-170.74 -804.447,68.953c-3.284,-6.567 -9.851,-13.134 -16.418,-19.701c-229.842,-219.992 -472.818,-236.409 -732.211,-52.535l-59.103,-88.654l-423.566,0l0,1638.45Z" style="fill-rule:nonzero;"/>
            </g>
        </g>
        <path d="M33485.5,15129.5l-1550.57,-968.103l3877.15,-777.016l-777.015,3877.15l-968.103,-1550.57l-2440.06,2788.64l-930.04,-930.04l2788.64,-2440.06l-0.002,-0.001Zm7.295,4.554l0.323,0.324l0.075,-0.075l-0.398,-0.249Zm569.285,569.285l0.324,0.324l-0.249,-0.398l-0.075,0.074Z"/>
        <g>
            <rect x="3423.01" y="10207" width="4783.47" height="4783.38" style="fill:#fff;"/>
            <path d="M8324.58,15108.5l0,-5019.6l-5019.69,0l0,5019.6l5019.69,0Zm-118.11,-4901.49l-4783.47,0l0,4783.38l4783.47,0l0,-4783.38Z"/>
            <path d="M5310.31,10925c-123.58,0 -116.752,116.838 -116.752,116.838l0,206.109l-213.11,0c-109.838,0 -102.925,103.012 -102.925,103.012l0,1288.16l89.358,147.776l130.492,96.098l109.839,1161.04l-1014.39,0l0,233.677l3540.5,0l0,-233.677l-1092.34,0l109.839,-1161.04l130.579,-96.098l89.271,-123.666l0,-1312.27c0,0 6.913,-103.012 -102.925,-103.012l-213.109,0l0,-206.109c0,0 6.913,-116.838 -116.752,-116.838c0,-6.914 -1227.58,-6.914 -1227.58,0l0.005,0Z" style="fill:#1c1c20;fill-rule:nonzero;"/>
            <path d="M5310.31,10925c-123.58,0 -116.752,116.838 -116.752,116.838l0,206.109l-213.11,0c-109.838,0 -102.925,103.012 -102.925,103.012l0,1288.16l89.358,147.776l130.492,96.098l109.839,1161.04l-1014.39,0l0,233.677l3540.5,0l0,-233.677l-1092.34,0l109.839,-1161.04l130.579,-96.098l89.271,-123.666l0,-1312.27c0,0 6.913,-103.012 -102.925,-103.012l-213.109,0l0,-206.109c0,0 6.913,-116.838 -116.752,-116.838c0,-6.914 -1227.58,-6.914 -1227.58,0l0.005,0Z" style="fill:none;fill-rule:nonzero;stroke:#1c1c20;stroke-width:7.81px;stroke-linecap:butt;stroke-linejoin:miter;stroke-miterlimit:3.864;"/>
            <rect x="5186.82" y="11536.5" width="1474.83" height="900.054" style="fill:#fff;"/>
            <rect x="5186.82" y="11536.5" width="1474.83" height="900.054" style="fill:none;stroke:#1c1c20;stroke-width:7.81px;stroke-linecap:butt;stroke-linejoin:miter;stroke-miterlimit:3.864;"/>
            <path d="M4892.48,12608.2l-370.911,948.103c-0,0 -161.517,302.38 -429.416,175.171c-0,3.457 -278.269,-89.357 -171.801,-422.416c-3.456,-3.457 370.997,-1006.52 370.997,-1006.52l-0,-206.109l206.11,-552.996l75.616,0c-0,0 103.012,-360.712 271.356,-347.058c3.37,-3.457 68.789,10.284 17.111,48.135c-0,-6.913 -219.764,109.925 -188.912,316.034c-3.457,0 116.925,192.456 116.925,192.456l-0,47.962l116.752,0l-13.827,807.24l0,-0.002Z" style="fill:#1c1c20;fill-rule:nonzero;"/>
            <path d="M4892.48,12608.2l-370.911,948.103c-0,0 -161.517,302.38 -429.416,175.171c-0,3.457 -278.269,-89.357 -171.801,-422.416c-3.456,-3.457 370.997,-1006.52 370.997,-1006.52l-0,-206.109l206.11,-552.996l75.616,0c-0,0 103.012,-360.712 271.356,-347.058c3.37,-3.457 68.789,10.284 17.111,48.135c-0,-6.913 -219.764,109.925 -188.912,316.034c-3.457,0 116.925,192.456 116.925,192.456l-0,47.962l116.752,0l-13.827,807.24l0,-0.002Z" style="fill:none;fill-rule:nonzero;stroke:#1c1c20;stroke-width:7.81px;stroke-linecap:butt;stroke-linejoin:miter;stroke-miterlimit:3.864;"/>
            <path d="M4597.1,12092.9l-58.42,120.209l-72.073,55.049l-395.021,1088.88c0,0 -58.42,175.344 75.616,230.22c-6.913,3.37 151.234,72.16 219.85,-96.012c-6.913,0 477.465,-1250.57 477.465,-1250.57c0,0 -65.246,-61.79 -54.876,-151.147c3.37,0 -75.616,0 -75.616,0c0,0 -106.469,65.246 -99.642,419.132c3.371,-3.456 -58.332,0 -58.332,0c0,0 3.456,-322.775 89.27,-415.675l-48.221,0l0,-0.087l0,0.001Z" style="fill:#fff;"/>
            <path d="M4597.1,12092.9l-58.42,120.209l-72.073,55.049l-395.021,1088.88c0,0 -58.42,175.344 75.616,230.22c-6.913,3.37 151.234,72.16 219.85,-96.012c-6.913,0 477.465,-1250.57 477.465,-1250.57c0,0 -65.246,-61.79 -54.876,-151.147c3.37,0 -75.616,0 -75.616,0c0,0 -106.469,65.246 -99.642,419.132c3.371,-3.456 -58.332,0 -58.332,0c0,0 3.456,-322.775 89.27,-415.675l-48.221,0l0,-0.087l0,0.001Z" style="fill:none;fill-rule:nonzero;stroke:#1c1c20;stroke-width:7.81px;stroke-linecap:butt;stroke-linejoin:miter;stroke-miterlimit:3.864;"/>
        </g>
        <g>
            <rect x="16893.6" y="18345" width="4783.55" height="4783.47" style="fill:#fff;"/>
            <path d="M21795.3,23246.6l0,-5019.69l-5019.77,-0l0,5019.69l5019.77,-0Zm-118.11,-4901.57l-4783.55,-0l0,4783.46l4783.55,-0l0,-4783.46Z"/>
            <path d="M20062.8,18878.8c61.012,0 57.21,49.519 57.21,49.519c0,0 -3.716,332.115 0,332.115c0,42 -42,42 -42,42l-351.041,0l0,171.718c0,0 332.028,3.889 328.226,0c72.506,0 64.815,64.901 64.815,64.901c0,0 0,198.422 0,194.62c0,72.593 -68.704,68.704 -68.704,68.704c0,0 -84.001,7.605 -84.001,0c-267.126,0 -240.422,255.718 -240.422,255.718l0,530.536l122.112,122.112c0,0 0,1710 0,1706.29c0,61.013 -106.816,61.013 -106.816,61.013c-80.198,0 -118.396,49.692 -114.507,49.692c0,57.21 -110.705,68.704 -110.705,68.704c0,0 -110.704,-11.494 -110.704,-68.704c3.802,0 -34.309,-49.692 -114.421,-49.692c0,0 -106.903,0 -106.903,-61.013c0,3.716 0,-1706.29 0,-1706.29l122.113,-122.112l0,-530.536c0,0 -19.013,-255.718 -313.016,-255.718l-507.634,0c0,0 -30.593,0 -30.593,-42.001c0,0 0,-255.632 0,-251.829c0,-38.284 34.396,-34.395 34.396,-34.395c-3.889,3.889 816.76,0 816.76,0l0,-171.718l-824.365,0c0,0 -30.593,0 -30.593,-30.593c-3.889,-3.716 0,-225.212 0,-225.212c0,0 0,-34.222 34.309,-34.222l435.127,0l133.52,-133.607c0.086,0 1004.03,-3.802 1007.84,0l-0.003,0Z" style="fill:#1c1c20;fill-rule:nonzero;"/>
            <path d="M20062.8,18878.8c61.012,0 57.21,49.519 57.21,49.519c0,0 -3.716,332.115 0,332.115c0,42 -42,42 -42,42l-351.041,0l0,171.718c0,0 332.028,3.889 328.226,0c72.506,0 64.815,64.901 64.815,64.901c0,0 0,198.422 0,194.62c0,72.593 -68.704,68.704 -68.704,68.704c0,0 -84.001,7.605 -84.001,0c-267.126,0 -240.422,255.718 -240.422,255.718l0,530.536l122.112,122.112c0,0 0,1710 0,1706.29c0,61.013 -106.816,61.013 -106.816,61.013c-80.198,0 -118.396,49.692 -114.507,49.692c0,57.21 -110.705,68.704 -110.705,68.704c0,0 -110.704,-11.494 -110.704,-68.704c3.802,0 -34.309,-49.692 -114.421,-49.692c0,0 -106.903,0 -106.903,-61.013c0,3.716 0,-1706.29 0,-1706.29l122.113,-122.112l0,-530.536c0,0 -19.013,-255.718 -313.016,-255.718l-507.634,0c0,0 -30.593,0 -30.593,-42.001c0,0 0,-255.632 0,-251.829c0,-38.284 34.396,-34.395 34.396,-34.395c-3.889,3.889 816.76,0 816.76,0l0,-171.718l-824.365,0c0,0 -30.593,0 -30.593,-30.593c-3.889,-3.716 0,-225.212 0,-225.212c0,0 0,-34.222 34.309,-34.222l435.127,0l133.52,-133.607c0.086,0 1004.03,-3.802 1007.84,0l-0.003,0Z" style="fill:none;fill-rule:nonzero;stroke:#1c1c20;stroke-width:8.69px;stroke-linecap:butt;stroke-linejoin:miter;stroke-miterlimit:3.864;"/>
        </g>
        <g>
            <rect x="3423.01" y="18345" width="4783.47" height="4783.29" style="fill:#fff;"/>
            <path d="M8324.58,23246.4l0,-5019.51l-5019.69,0l0,5019.51l5019.69,0Zm-118.11,-4901.4l-4783.47,0l0,4783.29l4783.47,0l0,-4783.29Z"/>
            <path d="M6898.89,21845.8c251.907,321.646 -81.318,492.234 -81.318,492.234c-263.574,213.192 -457.408,-135.676 -457.408,-135.676l-507.875,-992.158c0,0 -639.403,1034.93 -639.403,1030.87c-220.969,372.114 -507.702,135.676 -515.48,131.787c-302.375,-224.945 -3.889,-519.369 -3.889,-519.369c0,0 891.396,-1058.18 891.396,-1062.16c104.652,-120.033 -58.159,-120.033 -69.739,-131.7c-453.518,-96.874 -627.909,-372.027 -627.909,-368.138c-368.311,-488.518 -279.128,-814.052 -279.128,-814.052c116.318,-383.78 461.296,-263.574 457.494,-267.462c472.79,124.095 643.291,596.885 647.18,600.86c50.381,108.454 155.033,678.291 155.033,678.291c0,0 69.739,-93.158 124.095,-441.939c0,7.864 3.803,-209.217 248.105,-500.098c3.802,0 100.676,-170.329 368.138,-329.337c0,0 182.082,-81.405 104.738,77.43c-3.975,3.889 -348.867,511.678 -348.867,511.678c0,0 -11.58,23.246 11.666,38.974c7.778,0 23.16,11.494 46.493,-7.864c3.802,-7.777 364.422,-511.764 364.422,-511.764c0,0 30.938,-46.492 89.096,-15.469c48.221,44.937 24.025,94.282 24.025,94.282c0,0 -359.065,504.851 -365.201,511.159c-10.802,28.172 5.185,39.147 7.778,46.406c22.209,17.024 40.443,-1.555 40.443,-1.555c0,0 367.879,-491.456 370.299,-496.469c124.96,-125.132 107.244,73.715 107.244,73.715c-63.085,304.621 -192.884,451.703 -191.674,455.419c-195.39,325.535 -384.471,468.21 -520.319,526.455c-3.803,3.716 -104.565,19.272 -158.749,124.01c-7.864,0 -104.738,162.637 -104.738,162.637c0,0 810.164,1042.97 814.052,1039l0,0.003Z" style="fill:#1c1c20;fill-rule:nonzero;"/>
        </g>
        <g>
            <rect x="10158.3" y="18345" width="4783.55" height="4783.47" style="fill:#fff;"/>
            <path d="M15060,23246.6l0,-5019.69l-5019.77,-0l0,5019.69l5019.77,-0Zm-118.11,-4901.57l-4783.55,-0l0,4783.46l4783.55,-0l0,-4783.46Z"/>
            <path d="M13805.8,20150.8c92.47,0 167.483,75.1 167.483,167.483l-0,376.707l-2051.02,0l-0,-544.19l1883.54,0l-0.003,0Z" style="fill:#1c1c20;fill-rule:nonzero;"/>
            <path d="M13805.8,20150.8c92.47,0 167.483,75.1 167.483,167.483l-0,376.707l-2051.02,0l-0,-544.19l1883.54,0l-0.003,0Z" style="fill:none;fill-rule:nonzero;stroke:#1c1c20;stroke-width:8.37px;stroke-linecap:butt;stroke-linejoin:miter;stroke-miterlimit:3.864;"/>
            <path d="M11043.2,20778.6l3013.83,-0l0,-460.363c0,-92.383 74.926,-167.483 167.396,-167.483c92.47,-0 167.483,75.1 167.483,167.483l0,1339.43l-334.879,-0l0,-502.363l-3013.83,-0l0,502.363l-334.793,-0l0,-1674.23c0,-92.556 74.926,-167.397 167.483,-167.397c92.47,-0 167.396,74.841 167.396,167.397l0,795.156l-0.086,-0l-0,0.007Z" style="fill:#1c1c20;fill-rule:nonzero;"/>
            <path d="M11043.2,20778.6l3013.83,-0l0,-460.363c0,-92.383 74.926,-167.483 167.396,-167.483c92.47,-0 167.483,75.1 167.483,167.483l0,1339.43l-334.879,-0l0,-502.363l-3013.83,-0l0,502.363l-334.793,-0l0,-1674.23c0,-92.556 74.926,-167.397 167.483,-167.397c92.47,-0 167.396,74.841 167.396,167.397l0,795.156l-0.086,-0l-0,0.007Z" style="fill:none;fill-rule:nonzero;stroke:#1c1c20;stroke-width:8.37px;stroke-linecap:butt;stroke-linejoin:miter;stroke-miterlimit:3.864;"/>
            <path d="M11127,20695l0,-334.879c0,0 20.827,-209.311 355.793,-209.311c334.88,0 355.707,209.311 355.707,209.311l0,334.879l-711.5,0Z" style="fill:#1c1c20;fill-rule:nonzero;"/>
            <path d="M11127,20695l0,-334.879c0,0 20.827,-209.311 355.793,-209.311c334.88,0 355.707,209.311 355.707,209.311l0,334.879l-711.5,0Z" style="fill:none;fill-rule:nonzero;stroke:#1c1c20;stroke-width:8.37px;stroke-linecap:butt;stroke-linejoin:miter;stroke-miterlimit:3.864;"/>
        </g>
    </g>
</svg>
