<?xml version="1.0" encoding="UTF-8" standalone="no"?>
<!DOCTYPE svg PUBLIC "-//W3C//DTD SVG 1.1//EN" "http://www.w3.org/Graphics/SVG/1.1/DTD/svg11.dtd">
<svg width="100%" height="100%" viewBox="0 0 39091 37367" version="1.1" xmlns="http://www.w3.org/2000/svg" xmlns:xlink="http://www.w3.org/1999/xlink" xml:space="preserve" style="fill-rule:evenodd;clip-rule:evenodd;stroke-linecap:round;stroke-linejoin:round;stroke-miterlimit:1.5;">
    <g id="g4799">
        <path d="M38171.5,9410.69c0,-1232.03 -1000.25,-2232.28 -2232.28,-2232.28l-32833,0c-1232.03,0 -2232.28,1000.25 -2232.28,2232.28l-0,24668.5c-0,1232.03 1000.25,2232.28 2232.28,2232.28l32833,0c1232.03,0 2232.28,-1000.25 2232.28,-2232.28l0,-24668.5Z" style="fill:#fff;"/>
        <path d="M38939.3,9410.69c-0,-1655.75 -1344.26,-3000 -3000,-3000l-32833,-0c-1655.75,-0 -3000,1344.25 -3000,3000l0,24668.5c0,1655.75 1344.26,3000 3000,3000l32833,-0c1655.75,-0 3000,-1344.26 3000,-3000c-0,-0 -0,-24668.5 -0,-24668.5Zm-767.717,-0c0,-1232.03 -1000.25,-2232.28 -2232.28,-2232.28l-32833,0c-1232.03,0 -2232.28,1000.25 -2232.28,2232.28l-0,24668.5c-0,1232.03 1000.25,2232.28 2232.28,2232.28l32833,0c1232.03,0 2232.28,-1000.25 2232.28,-2232.28l0,-24668.5Z"/>
        <path d="M38809.3,9410.69c-0,-1584.04 -1286.04,-2870.08 -2870.08,-2870.08l-32833,-0c-1584.04,-0 -2870.08,1286.04 -2870.08,2870.08l-0,24668.5c-0,1584.04 1286.04,2870.08 2870.08,2870.08l32833,0c1584.04,0 2870.08,-1286.04 2870.08,-2870.08c-0,-0 -0,-24668.5 -0,-24668.5Zm-637.796,-0c0,-1232.03 -1000.25,-2232.28 -2232.28,-2232.28l-32833,0c-1232.03,0 -2232.28,1000.25 -2232.28,2232.28l-0,24668.5c-0,1232.03 1000.25,2232.28 2232.28,2232.28l32833,0c1232.03,0 2232.28,-1000.25 2232.28,-2232.28l0,-24668.5Z" style="fill:#fff;"/>
        <g>
            <path d="M26171.7,2459.2c-0,-924.024 -750.19,-1674.21 -1674.21,-1674.21l-9926.58,-0c-924.023,-0 -1674.21,750.189 -1674.21,1674.21l0,1721.66c0,924.024 750.19,1674.21 1674.21,1674.21l9926.58,0c924.023,0 1674.21,-750.189 1674.21,-1674.21l-0,-1721.66Z" style="fill:#fff;"/>
            <path d="M26762.2,2459.2c-0,-1249.96 -1014.81,-2264.76 -2264.76,-2264.76l-9926.58,-0c-1249.96,-0 -2264.76,1014.81 -2264.76,2264.76l-0,1721.66c-0,1249.96 1014.81,2264.76 2264.76,2264.76l9926.58,0c1249.96,0 2264.76,-1014.81 2264.76,-2264.76l-0,-1721.66Zm-590.551,-0c-0,-924.024 -750.19,-1674.21 -1674.21,-1674.21l-9926.58,-0c-924.023,-0 -1674.21,750.189 -1674.21,1674.21l0,1721.66c0,924.024 750.19,1674.21 1674.21,1674.21l9926.58,0c924.023,0 1674.21,-750.189 1674.21,-1674.21l-0,-1721.66Z"/>
            <path d="M26650,2459.2c0,-1188.03 -964.529,-2152.56 -2152.56,-2152.56l-9926.58,-0c-1188.03,-0 -2152.56,964.529 -2152.56,2152.56l-0,1721.66c-0,1188.03 964.529,2152.56 2152.56,2152.56l9926.58,0c1188.03,0 2152.56,-964.529 2152.56,-2152.56l0,-1721.66Zm-478.346,-0c-0,-924.024 -750.19,-1674.21 -1674.21,-1674.21l-9926.58,-0c-924.023,-0 -1674.21,750.189 -1674.21,1674.21l0,1721.66c0,924.024 750.19,1674.21 1674.21,1674.21l9926.58,0c924.023,0 1674.21,-750.189 1674.21,-1674.21l-0,-1721.66Z" style="fill:#fff;"/>
            <path d="M26171.7,2459.2c-0,-924.024 -750.19,-1674.21 -1674.21,-1674.21l-9926.58,-0c-924.023,-0 -1674.21,750.189 -1674.21,1674.21l0,1721.66c0,924.024 750.19,1674.21 1674.21,1674.21l9926.58,0c924.023,0 1674.21,-750.189 1674.21,-1674.21l-0,-1721.66Z" style="fill:none;stroke:#000;stroke-width:478.35px;"/>
            <path d="M14424.7,3857.7c96.862,324.516 307.824,535.478 632.887,632.888c536.847,89.748 899.122,-120.941 1086.83,-632.067c48.158,-188.252 38.034,-373.221 -30.372,-554.906c-0.547,-1.642 -1.368,-3.557 -2.462,-5.746c-239.693,-449.287 -602.516,-597.864 -1088.47,-445.73l27.909,-217.53l1004.74,0l-0.821,-491.699l-1454.58,0l-152.681,1210.78l547.518,89.474l5.746,-6.567c27.362,-46.515 63.754,-83.728 109.175,-111.637c176.212,-87.012 323.421,-51.989 441.626,105.071c77.161,138.452 79.35,278.547 6.567,420.283c-55.819,79.35 -131.612,127.234 -227.38,143.652c-207.953,13.681 -337.923,-80.172 -389.912,-281.557l-516.324,145.293Z" style="fill-rule:nonzero;"/>
            <path d="M18525.7,2629.68c-96.862,-193.724 -242.156,-338.47 -435.88,-434.238c-540.13,-201.933 -959.866,-56.366 -1259.21,436.701c-196.46,449.287 -199.47,899.669 -9.029,1351.14c98.504,203.028 249.269,353.794 452.297,452.298c546.697,198.102 968.348,47.063 1264.95,-453.119c178.949,-452.57 174.571,-903.5 -13.134,-1352.79Zm-407.971,994.069c-4.925,25.72 -11.765,50.894 -20.521,75.52c-118.752,247.901 -310.835,336.555 -576.248,265.96c-159.796,-60.744 -256.111,-174.571 -288.945,-341.48c-18.607,-158.701 -21.89,-317.402 -9.851,-476.102c2.737,-26.268 4.652,-52.536 5.746,-78.804c15.323,-217.255 127.235,-357.076 335.735,-419.462c39.949,-10.945 80.445,-16.144 121.488,-15.597c269.791,29.552 415.358,179.496 436.701,449.835l0.821,5.746c18.606,177.854 16.964,355.982 -4.926,534.384Z" style="fill-rule:nonzero;"/>
            <path d="M20875.9,2629.68c-96.863,-193.724 -242.156,-338.47 -435.88,-434.238c-540.13,-201.933 -959.866,-56.366 -1259.21,436.701c-196.461,449.287 -199.47,899.669 -9.03,1351.14c98.504,203.028 249.27,353.794 452.298,452.298c546.697,198.102 968.348,47.063 1264.95,-453.119c178.949,-452.57 174.571,-903.5 -13.133,-1352.79Zm-407.971,994.069c-4.925,25.72 -11.766,50.894 -20.522,75.52c-118.751,247.901 -310.834,336.555 -576.248,265.96c-159.795,-60.744 -256.11,-174.571 -288.944,-341.48c-18.607,-158.701 -21.89,-317.402 -9.851,-476.102c2.736,-26.268 4.652,-52.536 5.746,-78.804c15.323,-217.255 127.234,-357.076 335.734,-419.462c39.949,-10.945 80.445,-16.144 121.489,-15.597c269.791,29.552 415.358,179.496 436.7,449.835l0.821,5.746c18.607,177.854 16.965,355.982 -4.925,534.384Z" style="fill-rule:nonzero;"/>
            <path d="M22350.2,4473.35l492.52,0l-0,-1002.28c15.323,-93.032 68.405,-151.587 159.248,-175.665c124.224,-14.776 204.943,37.212 242.155,155.964l0,1021.98l504.833,0l0,-989.143c11.492,-111.091 72.236,-175.939 182.232,-194.546c123.13,0 196.187,60.471 219.172,181.412l-0,1002.28l493.34,0l-1.642,-1156.6c-38.307,-159.795 -123.129,-289.492 -254.468,-389.091c-286.756,-193.724 -554.906,-170.466 -804.449,69.774c-5.472,-6.567 -11.218,-13.134 -17.238,-19.701c-229.843,-219.992 -474.187,-237.504 -733.034,-52.535l-57.46,-90.295l-425.209,-0l0,1638.45Z" style="fill-rule:nonzero;"/>
        </g>
        <path d="M38148.7,34079.1c0,1232.03 -1000.25,2232.28 -2232.28,2232.28l-32810.2,0c-1232.03,0 -2232.28,-1000.25 -2232.28,-2232.28l-0,-5271.73c-0,-1232.03 1000.25,-2232.28 2232.28,-2232.28l32810.2,-0c1232.03,-0 2232.28,1000.25 2232.28,2232.28l0,5271.73Z" style="fill:none;stroke:#000;stroke-width:637.8px;"/>
        <path d="M38171.5,9410.69c0,-1232.03 -1000.25,-2232.28 -2232.28,-2232.28l-32810.2,0c-1232.03,0 -2232.28,1000.25 -2232.28,2232.28l0,13809.3c0,1232.03 1000.25,2232.28 2232.28,2232.28l32810.2,-0c1232.03,-0 2232.28,-1000.25 2232.28,-2232.28l0,-13809.3Z" style="fill:none;stroke:#000;stroke-width:637.8px;"/>
        <g>
            <path d="M9982.47,14262.5c-235.315,420.284 -190.988,808.827 132.98,1165.63c282.378,245.713 589.656,282.105 921.833,109.175l27.089,72.237l485.131,-1.642l-0.82,-2183.5l-526.997,-0l-1.641,559.831c-188.799,-107.807 -386.902,-129.15 -594.307,-64.028c-186.063,64.575 -333.819,178.675 -443.268,342.301Zm1036.75,366.927c4.378,86.465 4.378,173.203 -0,260.215c-31.193,163.079 -128.602,258.846 -292.228,287.303c-203.575,3.831 -325.884,-93.579 -366.928,-292.228c-6.019,-85.37 -4.378,-170.193 4.926,-254.469c32.287,-150.492 123.677,-241.882 274.169,-274.169c202.48,-14.228 329.167,76.888 380.061,273.348Z" style="fill-rule:nonzero;"/>
            <path d="M11783.4,15049.7c99.051,328.894 316.581,528.364 652.589,598.411c345.858,46.516 650.126,-45.147 912.803,-274.99l-342.301,-344.764c-111.638,98.504 -241.882,151.861 -390.732,160.069c-168.004,4.378 -281.284,-72.236 -339.839,-229.842l1095.86,-0c27.362,-166.362 13.408,-328.894 -41.864,-487.595c-166.909,-418.641 -474.461,-604.157 -922.653,-556.547l-7.388,1.642c-306.457,65.122 -509.758,245.712 -609.904,541.771l-1.642,4.926c-54.177,195.366 -55.818,391.006 -4.925,586.919Zm496.624,-480.207c31.193,-112.185 103.156,-184.147 215.888,-215.888c176.76,-24.626 293.87,47.337 351.331,215.888l-567.219,0Z" style="fill-rule:nonzero;"/>
            <path d="M16556.1,13770.2c-0.371,-1.176 -0.803,-2.331 -1.294,-3.461c-137.095,-315.318 -401.274,-474.436 -794.279,-474.436l-59.103,-0c-0.879,-0 -1.758,0.032 -2.635,0.098c-367.563,27.396 -607.055,203.555 -719.561,527c-16.053,32.12 -25.771,91.351 -25.771,178.184c-0,165.302 74.806,308.246 226.709,427.467c-177.163,97.37 -266.111,256.806 -266.111,478.769c0,16.263 0.585,31.945 1.746,47.046c1.133,14.73 2.829,31.16 5.095,49.289c0.009,0.074 0.019,0.147 0.028,0.221c41.294,314.293 223.831,514.746 548.78,600.284c66.698,29.047 171.206,44.561 313.807,44.561c108.812,-0 213.085,-15.901 312.829,-47.638c99.362,-31.615 197.632,-80.091 294.736,-145.58c1.022,-0.689 2.007,-1.431 2.952,-2.223c157.058,-131.652 235.954,-305.866 235.954,-522.975c0,-0 0,-49.252 0,-49.252c0,-193.922 -84.861,-347.455 -255.965,-459.733c149.119,-99.409 223.131,-236.432 223.131,-410.386c-0,-71.045 -13.546,-150.147 -41.048,-237.235Zm-1104.88,1172.73l-0,-12.844c-0,-75.527 20.88,-135.208 64.858,-178.23c45.319,-44.334 113.645,-70.767 203.958,-81.833c11.7,-0.072 22.284,-0.725 31.756,-1.909c7.452,-0.931 15.838,-1.368 25.153,-1.368c159.995,0 269.212,59.65 325.725,182.277c0,0.001 0,31.811 0,31.811c0,93.264 -23.235,163.841 -73.267,210.473c-50.869,47.412 -127.735,69.284 -229.474,69.284l-36.118,-0c-11.191,-0 -22.382,-0.936 -33.573,-2.801c-1.926,-0.321 -3.875,-0.483 -5.828,-0.483l-9.851,0c-73.645,0 -132.83,-17.131 -176.92,-53.469c-43.472,-35.829 -71.664,-89.792 -86.419,-160.906l-0,-0.002Zm53.999,-1033.52c51.126,-73.008 127.575,-116.736 228.568,-132.498c9.488,-0.11 18.431,-0.782 26.83,-1.982c6.101,-0.871 12.639,-1.285 19.611,-1.285c134.955,0 228.103,62.704 279.639,187.83c-1.993,84.796 -23.31,149.227 -67.205,192.177c-45.215,44.243 -113.126,64.586 -202.583,64.586c-6.973,-0 -13.511,-0.414 -19.612,-1.286c-8.837,-1.262 -18.279,-1.94 -28.326,-1.994c-82.671,-5.988 -145.231,-26.53 -186.663,-64.55c-39.722,-36.451 -58.29,-88.814 -58.29,-156.108c0,-24.763 2.718,-53.055 8.031,-84.889l0,-0.001Z" style="fill-rule:nonzero;"/>
            <path d="M19852.6,15236.9c-43.232,1.095 -85.917,-3.283 -128.055,-13.133c-40.496,-16.965 -60.197,-47.611 -59.102,-91.937l-0,-718.258c-6.02,-232.579 -119.299,-386.902 -339.839,-462.969c-407.149,-132.433 -778.181,-65.396 -1113.09,201.112l245.439,391.554c64.027,-60.745 136.537,-108.902 217.529,-144.473c107.807,-49.252 220.266,-64.575 337.376,-45.968c26.268,6.019 50.894,15.596 73.878,28.73c28.457,16.417 46.79,40.496 54.998,72.236c1.642,13.681 -3.01,24.626 -13.954,32.835c-20.248,7.661 -41.044,13.134 -62.386,16.417l-440.805,76.341c-199.744,53.082 -338.471,175.391 -416.179,366.927c-64.028,311.929 49.252,533.836 339.838,665.722c255.563,88.107 490.331,49.526 704.303,-115.742c115.469,115.469 254.742,167.73 417.821,156.786l182.232,-416.18Zm-1090.11,-58.281c-21.342,-13.134 -36.665,-31.74 -45.968,-55.819c-16.965,-64.028 4.651,-110.27 64.848,-138.726c16.965,-7.115 34.476,-12.587 52.536,-16.418c101.787,-15.87 202.753,-35.023 302.899,-57.46l-0.821,171.561c-12.586,41.59 -38.033,72.51 -76.34,92.758c-98.504,48.157 -197.555,49.525 -297.154,4.104Z" style="fill-rule:nonzero;"/>
            <path d="M21365.4,15609.5l1663.89,-0l0,-490.878l-737.137,-0c103.976,-81.54 204.395,-167.183 301.257,-256.931c130.245,-102.335 241.061,-222.729 332.451,-361.182c193.177,-432.87 111.091,-804.722 -246.26,-1115.56c-499.633,-276.905 -936.608,-199.744 -1310.92,231.485c-76.614,183.326 -113.006,374.588 -109.175,573.785l549.98,0c0.548,-67.311 5.746,-134.075 15.597,-200.291c32.287,-142.284 119.573,-229.843 261.856,-262.677c197.555,-16.418 322.874,71.141 375.957,262.677c2.736,113.279 -24.9,218.624 -82.908,316.033c-111.09,122.036 -234.22,231.211 -369.389,327.526l-407.15,311.929c-58.555,44.327 -114.1,91.937 -166.636,142.831c-48.157,60.744 -71.963,129.696 -71.415,206.858l-0,314.392Z" style="fill-rule:nonzero;"/>
            <path d="M25375.3,13764.2c-96.862,-193.725 -242.156,-338.471 -435.88,-434.239c-540.13,-201.933 -959.866,-56.366 -1259.21,436.701c-196.46,449.288 -199.47,899.669 -9.029,1351.15c98.504,203.027 249.269,353.793 452.297,452.297c546.697,198.102 968.348,47.063 1264.95,-453.118c178.948,-452.571 174.571,-903.5 -13.134,-1352.79Zm-407.971,994.068c-4.925,25.721 -11.765,50.894 -20.521,75.52c-118.752,247.902 -310.835,336.555 -576.248,265.961c-159.796,-60.744 -256.111,-174.571 -288.945,-341.481c-18.607,-158.7 -21.89,-317.401 -9.851,-476.102c2.737,-26.268 4.652,-52.535 5.746,-78.803c15.323,-217.256 127.235,-357.077 335.735,-419.463c39.949,-10.945 80.445,-16.143 121.488,-15.596c269.791,29.551 415.358,179.496 436.701,449.835l0.821,5.746c18.606,177.854 16.964,355.982 -4.926,534.383Z" style="fill-rule:nonzero;"/>
            <path d="M28415.8,14475.1c-22.437,-203.575 -119.846,-360.634 -292.228,-471.178l-4.926,-3.283c-251.732,-140.642 -501.549,-137.906 -749.45,8.209l0.821,-727.288l-520.43,0l0,2324.69l2.463,4.104l517.967,0l-0,-987.501c22.984,-128.603 98.503,-204.396 226.559,-227.38c158.7,-3.831 254.468,71.962 287.303,227.38l-0,983.397l531.921,0l0,-1131.15Z" style="fill-rule:nonzero;"/>
        </g>
        <g transform="matrix(1,0,0,1,8722.9,8637.44)">
            <g transform="matrix(3283.46,0,0,3283.46,742.417,3010.85)">
                <path d="M0.58,-0.113c-0.013,0 -0.026,-0.001 -0.039,-0.004c-0.012,-0.005 -0.018,-0.015 -0.018,-0.028l0,-0.219c-0.002,-0.071 -0.036,-0.118 -0.103,-0.141c-0.124,-0.04 -0.237,-0.02 -0.339,0.061l0.074,0.119c0.02,-0.018 0.042,-0.033 0.067,-0.043c0.032,-0.016 0.067,-0.02 0.102,-0.015c0.008,0.002 0.016,0.005 0.023,0.009c0.008,0.005 0.014,0.013 0.017,0.022c0,0.004 -0.001,0.008 -0.005,0.01c-0.006,0.003 -0.012,0.004 -0.019,0.005l-0.134,0.023c-0.061,0.017 -0.103,0.054 -0.127,0.112c-0.019,0.095 0.015,0.163 0.104,0.203c0.078,0.027 0.149,0.015 0.214,-0.035c0.035,0.035 0.078,0.051 0.128,0.047l0.055,-0.126Zm-0.332,-0.018c-0.006,-0.004 -0.011,-0.01 -0.014,-0.017c-0.005,-0.02 0.001,-0.034 0.02,-0.042c0.005,-0.002 0.01,-0.004 0.016,-0.005c0.031,-0.005 0.062,-0.011 0.092,-0.018l-0,0.052c-0.004,0.013 -0.012,0.023 -0.023,0.029c-0.03,0.014 -0.061,0.015 -0.091,0.001Z" style="fill-rule:nonzero;"/>
            </g>
            <g transform="matrix(3283.46,0,0,3283.46,3883.87,3010.85)">
                <path d="M0.33,-0l-0,-0.709l-0.146,-0l0,0.031c-0.006,0.04 -0.029,0.063 -0.07,0.068l-0.064,0l-0,0.147l0.122,0l-0,0.463l0.158,-0Z" style="fill-rule:nonzero;"/>
            </g>
            <g transform="matrix(3283.46,0,0,3283.46,5163.6,3010.85)">
                <path d="M0.089,0.074c0.007,0 0.013,0 0.019,0c0.052,-0.003 0.089,-0.029 0.11,-0.076c0.007,-0.021 0.01,-0.043 0.008,-0.066c-0.009,-0.044 -0.036,-0.07 -0.08,-0.078c-0.046,-0.004 -0.077,0.015 -0.093,0.059c-0.002,0.006 -0.003,0.013 -0.003,0.019c0.003,0.038 0.023,0.06 0.061,0.064c0.002,0.001 0.003,0.003 0.004,0.005c0.001,0.004 -0.001,0.008 -0.005,0.01c-0.008,0.004 -0.017,0.007 -0.026,0.008l-0.001,0c-0.01,0.002 -0.015,0.008 -0.015,0.018c-0.001,0.009 0,0.017 0.003,0.026c0.004,0.007 0.01,0.011 0.018,0.011Z" style="fill-rule:nonzero;"/>
            </g>
            <g transform="matrix(2456.69,0,0,2456.69,6105.14,3010.85)">
                <path d="M0.05,-0.188c0.029,0.099 0.094,0.163 0.193,0.193c0.163,0.027 0.274,-0.037 0.331,-0.193c0.014,-0.057 0.011,-0.113 -0.01,-0.168c0,-0.001 0,-0.002 -0,-0.002c-0.073,-0.137 -0.184,-0.182 -0.332,-0.136l0.009,-0.066l0.306,-0l-0.001,-0.15l-0.443,0l-0.046,0.369l0.167,0.027l0.001,-0.002c0.009,-0.014 0.02,-0.025 0.034,-0.034c0.053,-0.026 0.098,-0.016 0.134,0.032c0.024,0.042 0.024,0.085 0.002,0.128c-0.017,0.024 -0.04,0.039 -0.069,0.044c-0.063,0.004 -0.103,-0.025 -0.119,-0.086l-0.157,0.044Z" style="fill-rule:nonzero;"/>
            </g>
            <g transform="matrix(3283.46,0,0,3283.46,8798.7,3010.85)">
                <path d="M0.554,-0l-0.191,-0.312l0.181,-0.199l-0.21,0l-0.121,0.128l0,-0.32l-0.163,0l-0,0.704l0.163,-0l0,-0.163l0.033,-0.033l0.129,0.195l0.179,0Z" style="fill-rule:nonzero;"/>
            </g>
            <g transform="matrix(3283.46,0,0,3283.46,10762.2,3010.85)">
                <path d="M0.05,-0l0.15,-0l0,-0.306c0.005,-0.028 0.021,-0.046 0.048,-0.053c0.038,-0.005 0.063,0.011 0.074,0.047l0,0.312l0.154,-0l0,-0.302c0.004,-0.033 0.022,-0.053 0.055,-0.059c0.038,0 0.06,0.019 0.067,0.055l0,0.306l0.15,-0l-0,-0.353c-0.012,-0.048 -0.038,-0.088 -0.078,-0.118c-0.087,-0.059 -0.169,-0.052 -0.245,0.021c-0.001,-0.002 -0.003,-0.004 -0.005,-0.006c-0.07,-0.067 -0.144,-0.072 -0.223,-0.016l-0.018,-0.027l-0.129,-0l-0,0.499Z" style="fill-rule:nonzero;"/>
            </g>
        </g>
        <path d="M33384.7,15084l-1550.57,-968.102l3877.15,-777.016l-777.015,3877.15l-968.103,-1550.57l-2440.06,2788.65l-930.04,-930.041l2788.64,-2440.06Zm7.295,4.555l0.323,0.323l0.075,-0.075l-0.398,-0.248Zm569.285,569.285l0.324,0.324l-0.249,-0.399l-0.075,0.075Z"/>
        <path d="M33958.9,31145.7l-1295.43,299.581l1594.49,-2393.77l1594.49,2393.77l-1295.43,-299.581l179.286,2689.28l-956.693,-0l179.286,-2689.28Zm6.094,-1.41l0.333,0l-0,-0.077l-0.333,0.077Zm585.6,0l0.333,0l-0.333,-0.077l-0,0.077Z"/>
        <g>
            <rect x="3322.26" y="10081.4" width="4783.47" height="4783.38" style="fill:#fff;"/>
            <path d="M8223.83,14982.9l-0,-5019.6l-5019.69,0l-0,5019.6l5019.69,-0Zm-118.11,-4901.49l-4783.47,0l-0,4783.38l4783.47,0l-0,-4783.38Z"/>
            <path d="M5209.56,10799.4c-123.58,0 -116.753,116.839 -116.753,116.839l0,206.109l-213.109,0c-109.838,0 -102.925,103.012 -102.925,103.012l0,1288.16l89.357,147.777l130.493,96.098l109.839,1161.04l-1014.39,-0l0,233.677l3540.5,-0l-0,-233.677l-1092.34,-0l109.839,-1161.04l130.579,-96.098l89.271,-123.666l-0,-1312.27c-0,-0 6.913,-103.012 -102.925,-103.012l-213.109,0l-0,-206.109c-0,-0 6.913,-116.839 -116.753,-116.839c0,-6.913 -1227.58,-6.913 -1227.58,0Z" style="fill:#1c1c20;fill-rule:nonzero;"/>
            <path d="M5209.56,10799.4c-123.58,0 -116.753,116.839 -116.753,116.839l0,206.109l-213.109,0c-109.838,0 -102.925,103.012 -102.925,103.012l0,1288.16l89.357,147.777l130.493,96.098l109.839,1161.04l-1014.39,-0l0,233.677l3540.5,-0l-0,-233.677l-1092.34,-0l109.839,-1161.04l130.579,-96.098l89.271,-123.666l-0,-1312.27c-0,-0 6.913,-103.012 -102.925,-103.012l-213.109,0l-0,-206.109c-0,-0 6.913,-116.839 -116.753,-116.839c0,-6.913 -1227.58,-6.913 -1227.58,0Z" style="fill:none;fill-rule:nonzero;stroke:#1c1c20;stroke-width:7.81px;stroke-linecap:butt;stroke-linejoin:miter;stroke-miterlimit:3.864;"/>
            <rect x="5086.07" y="11410.9" width="1474.83" height="900.054" style="fill:#fff;"/>
            <rect x="5086.07" y="11410.9" width="1474.83" height="900.054" style="fill:none;stroke:#1c1c20;stroke-width:7.81px;stroke-linecap:butt;stroke-linejoin:miter;stroke-miterlimit:3.864;"/>
            <path d="M4791.73,12482.7l-370.911,948.103c0,-0 -161.517,302.38 -429.416,175.171c0,3.457 -278.269,-89.357 -171.801,-422.416c-3.456,-3.457 370.997,-1006.52 370.997,-1006.52l0,-206.11l206.109,-552.995l75.617,0c0,0 103.012,-360.713 271.356,-347.059c3.37,-3.456 68.789,10.284 17.111,48.136c-0,-6.914 -219.764,109.925 -188.912,316.034c-3.457,0 116.925,192.455 116.925,192.455l-0,47.963l116.752,-0l-13.827,807.24Z" style="fill:#1c1c20;fill-rule:nonzero;"/>
            <path d="M4791.73,12482.7l-370.911,948.103c0,-0 -161.517,302.38 -429.416,175.171c0,3.457 -278.269,-89.357 -171.801,-422.416c-3.456,-3.457 370.997,-1006.52 370.997,-1006.52l0,-206.11l206.109,-552.995l75.617,0c0,0 103.012,-360.713 271.356,-347.059c3.37,-3.456 68.789,10.284 17.111,48.136c-0,-6.914 -219.764,109.925 -188.912,316.034c-3.457,0 116.925,192.455 116.925,192.455l-0,47.963l116.752,-0l-13.827,807.24Z" style="fill:none;fill-rule:nonzero;stroke:#1c1c20;stroke-width:7.81px;stroke-linecap:butt;stroke-linejoin:miter;stroke-miterlimit:3.864;"/>
            <path d="M4496.35,11967.4l-58.42,120.209l-72.073,55.049l-395.021,1088.88c-0,0 -58.42,175.344 75.616,230.221c-6.913,3.37 151.233,72.159 219.85,-96.012c-6.913,0 477.465,-1250.57 477.465,-1250.57c0,-0 -65.246,-61.79 -54.876,-151.147c3.37,-0 -75.617,-0 -75.617,-0c0,-0 -106.468,65.246 -99.641,419.132c3.371,-3.457 -58.332,-0 -58.332,-0c-0,-0 3.456,-322.775 89.27,-415.675l-48.221,-0l-0,-0.087Z" style="fill:#fff;"/>
            <path d="M4496.35,11967.4l-58.42,120.209l-72.073,55.049l-395.021,1088.88c-0,0 -58.42,175.344 75.616,230.221c-6.913,3.37 151.233,72.159 219.85,-96.012c-6.913,0 477.465,-1250.57 477.465,-1250.57c0,-0 -65.246,-61.79 -54.876,-151.147c3.37,-0 -75.617,-0 -75.617,-0c0,-0 -106.468,65.246 -99.641,419.132c3.371,-3.457 -58.332,-0 -58.332,-0c-0,-0 3.456,-322.775 89.27,-415.675l-48.221,-0l-0,-0.087Z" style="fill:none;fill-rule:nonzero;stroke:#1c1c20;stroke-width:7.81px;stroke-linecap:butt;stroke-linejoin:miter;stroke-miterlimit:3.864;"/>
        </g>
        <path d="M9982.47,33212.1c-235.315,420.284 -190.988,808.827 132.98,1165.63c282.378,245.713 589.656,282.105 921.833,109.175l27.089,72.237l485.131,-1.642l-0.82,-2183.5l-526.997,-0l-1.641,559.831c-188.799,-107.807 -386.902,-129.15 -594.307,-64.028c-186.063,64.575 -333.819,178.675 -443.268,342.301Zm1036.75,366.927c4.378,86.465 4.378,173.203 -0,260.215c-31.193,163.079 -128.602,258.846 -292.228,287.303c-203.575,3.831 -325.884,-93.579 -366.928,-292.228c-6.019,-85.37 -4.378,-170.193 4.926,-254.469c32.287,-150.492 123.677,-241.882 274.169,-274.169c202.48,-14.228 329.167,76.888 380.061,273.348Z" style="fill-rule:nonzero;"/>
        <path d="M11783.4,33999.3c99.051,328.894 316.581,528.364 652.589,598.411c345.858,46.516 650.126,-45.147 912.803,-274.99l-342.301,-344.764c-111.638,98.504 -241.882,151.861 -390.732,160.069c-168.004,4.378 -281.284,-72.236 -339.839,-229.842l1095.86,-0c27.362,-166.362 13.408,-328.894 -41.864,-487.595c-166.909,-418.641 -474.461,-604.157 -922.653,-556.547l-7.388,1.642c-306.457,65.122 -509.758,245.712 -609.904,541.771l-1.642,4.926c-54.177,195.366 -55.818,391.006 -4.925,586.919Zm496.624,-480.207c31.193,-112.185 103.156,-184.147 215.888,-215.888c176.76,-24.626 293.87,47.337 351.331,215.888l-567.219,0Z" style="fill-rule:nonzero;"/>
        <path d="M16811.2,32713.8c-96.862,-193.725 -242.155,-338.471 -435.88,-434.239c-540.129,-201.933 -959.866,-56.366 -1259.21,436.701c-196.461,449.288 -199.471,899.669 -9.03,1351.15c98.504,203.027 249.27,353.793 452.297,452.297c546.697,198.102 968.349,47.063 1264.95,-453.118c178.949,-452.571 174.571,-903.5 -13.134,-1352.79Zm-407.97,994.068c-4.925,25.721 -11.766,50.894 -20.522,75.52c-118.752,247.902 -310.834,336.555 -576.248,265.961c-159.795,-60.744 -256.11,-174.571 -288.945,-341.481c-18.606,-158.7 -21.889,-317.401 -9.85,-476.102c2.736,-26.268 4.652,-52.535 5.746,-78.803c15.323,-217.256 127.234,-357.077 335.734,-419.463c39.949,-10.945 80.445,-16.143 121.488,-15.596c269.792,29.551 415.359,179.496 436.701,449.835l0.821,5.746c18.606,177.854 16.965,355.982 -4.925,534.383Z" style="fill-rule:nonzero;"/>
        <path d="M20025.8,34186.5c-43.232,1.095 -85.917,-3.283 -128.055,-13.133c-40.496,-16.965 -60.197,-47.611 -59.102,-91.937l-0,-718.258c-6.02,-232.579 -119.3,-386.902 -339.839,-462.969c-407.149,-132.433 -778.181,-65.396 -1113.09,201.112l245.439,391.554c64.027,-60.745 136.537,-108.902 217.529,-144.473c107.807,-49.252 220.266,-64.575 337.376,-45.968c26.268,6.019 50.894,15.596 73.878,28.73c28.457,16.417 46.789,40.496 54.998,72.236c1.642,13.681 -3.01,24.626 -13.955,32.835c-20.248,7.661 -41.043,13.134 -62.385,16.417l-440.806,76.341c-199.744,53.082 -338.47,175.391 -416.179,366.927c-64.027,311.929 49.252,533.836 339.839,665.722c255.563,88.107 490.331,49.526 704.303,-115.742c115.469,115.469 254.742,167.73 417.821,156.786l182.232,-416.18Zm-1090.11,-58.281c-21.343,-13.134 -36.665,-31.74 -45.969,-55.819c-16.964,-64.028 4.652,-110.27 64.849,-138.726c16.964,-7.115 34.476,-12.587 52.535,-16.418c101.788,-15.87 202.754,-35.023 302.9,-57.46l-0.821,171.561c-12.587,41.59 -38.033,72.51 -76.341,92.758c-98.503,48.157 -197.555,49.525 -297.153,4.104Z" style="fill-rule:nonzero;"/>
        <path d="M21538.6,34559.1l1663.9,-0l0,-490.878l-737.138,-0c103.977,-81.54 204.396,-167.183 301.258,-256.931c130.244,-102.335 241.061,-222.729 332.451,-361.182c193.177,-432.87 111.091,-804.722 -246.26,-1115.56c-499.634,-276.905 -936.608,-199.744 -1310.92,231.485c-76.614,183.326 -113.006,374.588 -109.175,573.785l549.98,0c0.547,-67.311 5.746,-134.075 15.597,-200.291c32.287,-142.284 119.572,-229.843 261.856,-262.677c197.555,-16.418 322.874,71.141 375.957,262.677c2.736,113.279 -24.9,218.624 -82.908,316.033c-111.091,122.036 -234.22,231.211 -369.39,327.526l-407.149,311.929c-58.555,44.327 -114.101,91.937 -166.636,142.831c-48.158,60.744 -71.963,129.696 -71.416,206.858l0,314.392Z" style="fill-rule:nonzero;"/>
        <path d="M25326.1,34221.8l293.87,-0l-0,-508.937l-293.87,-0l-0,-1485.77l-664.902,-0l-1102.42,1533.38l0,461.327l1222.27,-0l-0,335.734l545.055,-0l-0,-335.734Zm-545.055,-508.937l-602.516,-0l603.337,-797.061l-0.821,797.061Z" style="fill-rule:nonzero;"/>
        <path d="M28661.3,33424.7c-22.437,-203.575 -119.846,-360.634 -292.228,-471.178l-4.926,-3.283c-251.732,-140.642 -501.549,-137.906 -749.45,8.209l0.821,-727.288l-520.43,0l0,2324.69l2.463,4.104l517.967,0l-0,-987.501c22.984,-128.603 98.503,-204.396 226.559,-227.38c158.7,-3.831 254.468,71.962 287.303,227.38l-0,983.397l531.921,0l-0,-1131.15Z" style="fill-rule:nonzero;"/>
        <path d="M11369.7,30226c-43.233,1.095 -85.918,-3.283 -128.055,-13.133c-40.496,-16.965 -60.197,-47.611 -59.103,-91.937l0,-718.258c-6.019,-232.579 -119.299,-386.902 -339.838,-462.969c-407.15,-132.433 -778.181,-65.395 -1113.1,201.112l245.439,391.554c64.028,-60.745 136.538,-108.902 217.53,-144.473c107.807,-49.252 220.265,-64.575 337.376,-45.968c26.267,6.019 50.893,15.596 73.878,28.73c28.456,16.417 46.789,40.496 54.998,72.236c1.641,13.681 -3.01,24.626 -13.955,32.835c-20.248,7.661 -41.043,13.134 -62.386,16.417l-440.805,76.341c-199.744,53.082 -338.471,175.391 -416.179,366.927c-64.028,311.929 49.252,533.836 339.838,665.722c255.563,88.107 490.331,49.526 704.304,-115.742c115.468,115.469 254.742,167.73 417.82,156.786l182.233,-416.18Zm-1090.11,-58.281c-21.342,-13.134 -36.665,-31.74 -45.968,-55.819c-16.965,-64.027 4.652,-110.27 64.848,-138.726c16.965,-7.114 34.477,-12.587 52.536,-16.418c101.787,-15.87 202.754,-35.023 302.899,-57.46l-0.82,171.561c-12.587,41.59 -38.034,72.51 -76.341,92.758c-98.504,48.157 -197.555,49.525 -297.154,4.104Z" style="fill-rule:nonzero;"/>
        <path d="M13688.7,30597.1l0.82,-2327.98l-476.923,-0l0,101.787c-20.795,132.433 -97.683,207.132 -230.663,224.096l-210.963,0.821l0,483.49l399.762,-0.82l0,1518.6l517.967,-0Z" style="fill-rule:nonzero;"/>
        <path d="M16040.5,28753.4c-96.862,-193.725 -242.155,-338.471 -435.88,-434.239c-540.13,-201.933 -959.866,-56.366 -1259.21,436.701c-196.46,449.288 -199.47,899.669 -9.029,1351.15c98.504,203.027 249.27,353.793 452.297,452.297c546.697,198.102 968.349,47.063 1264.95,-453.118c178.949,-452.571 174.571,-903.5 -13.134,-1352.79Zm-407.97,994.068c-4.926,25.721 -11.766,50.894 -20.522,75.52c-118.752,247.902 -310.835,336.555 -576.248,265.961c-159.795,-60.744 -256.11,-174.571 -288.945,-341.481c-18.606,-158.7 -21.89,-317.401 -9.85,-476.102c2.736,-26.268 4.651,-52.535 5.746,-78.803c15.323,-217.256 127.234,-357.077 335.734,-419.463c39.949,-10.944 80.445,-16.143 121.488,-15.596c269.791,29.551 415.358,179.496 436.701,449.835l0.821,5.746c18.606,177.854 16.964,355.982 -4.925,534.383Z" style="fill-rule:nonzero;"/>
        <path d="M19169.6,30597.9l-627.963,-1022.8l595.949,-655.052l-690.348,0l-396.479,420.284l0.821,-1049.89l-536.846,0l-0,2309.1l536.025,-0l0,-532.743l109.175,-109.996l423.567,641.918l586.099,-0.821Z" style="fill-rule:nonzero;"/>
        <path d="M19478.2,30597.1l492.52,-0l0,-1002.28c15.323,-93.031 68.406,-151.586 159.248,-175.665c124.225,-14.776 204.943,37.213 242.156,155.965l-0,1021.98l504.832,-0l0,-989.144c11.492,-111.09 72.237,-175.939 182.233,-194.545c123.13,-0 196.187,60.47 219.171,181.411l-0,1002.28l493.34,-0l-1.641,-1156.6c-38.307,-159.796 -123.13,-289.493 -254.469,-389.091c-286.756,-193.724 -554.905,-170.467 -804.449,69.774c-5.472,-6.567 -11.218,-13.134 -17.238,-19.701c-229.842,-219.992 -474.187,-237.504 -733.033,-52.536l-57.461,-90.295l-425.209,0l0,1638.45Z" style="fill-rule:nonzero;"/>
        <g>
            <rect x="3322.26" y="29031" width="4783.47" height="4783.38" style="fill:#fff;"/>
            <path d="M8223.83,33932.5l-0,-5019.6l-5019.69,0l-0,5019.6l5019.69,-0Zm-118.11,-4901.49l-4783.47,0l-0,4783.38l4783.47,0l-0,-4783.38Z"/>
            <path d="M5209.56,29749c-123.58,0 -116.753,116.839 -116.753,116.839l0,206.109l-213.109,0c-109.838,0 -102.925,103.012 -102.925,103.012l0,1288.16l89.357,147.777l130.493,96.098l109.839,1161.04l-1014.39,-0l0,233.677l3540.5,-0l-0,-233.677l-1092.34,-0l109.839,-1161.04l130.579,-96.098l89.271,-123.666l-0,-1312.27c-0,-0 6.913,-103.012 -102.925,-103.012l-213.109,0l-0,-206.109c-0,-0 6.913,-116.839 -116.753,-116.839c0,-6.913 -1227.58,-6.913 -1227.58,0Z" style="fill:#1c1c20;fill-rule:nonzero;"/>
            <path d="M5209.56,29749c-123.58,0 -116.753,116.839 -116.753,116.839l0,206.109l-213.109,0c-109.838,0 -102.925,103.012 -102.925,103.012l0,1288.16l89.357,147.777l130.493,96.098l109.839,1161.04l-1014.39,-0l0,233.677l3540.5,-0l-0,-233.677l-1092.34,-0l109.839,-1161.04l130.579,-96.098l89.271,-123.666l-0,-1312.27c-0,-0 6.913,-103.012 -102.925,-103.012l-213.109,0l-0,-206.109c-0,-0 6.913,-116.839 -116.753,-116.839c0,-6.913 -1227.58,-6.913 -1227.58,0Z" style="fill:none;fill-rule:nonzero;stroke:#1c1c20;stroke-width:7.81px;stroke-linecap:butt;stroke-linejoin:miter;stroke-miterlimit:3.864;"/>
            <rect x="5086.07" y="30360.5" width="1474.83" height="900.054" style="fill:#fff;"/>
            <rect x="5086.07" y="30360.5" width="1474.83" height="900.054" style="fill:none;stroke:#1c1c20;stroke-width:7.81px;stroke-linecap:butt;stroke-linejoin:miter;stroke-miterlimit:3.864;"/>
            <path d="M4791.73,31432.3l-370.911,948.103c0,-0 -161.517,302.38 -429.416,175.171c0,3.457 -278.269,-89.357 -171.801,-422.416c-3.456,-3.457 370.997,-1006.52 370.997,-1006.52l0,-206.11l206.109,-552.995l75.617,0c0,0 103.012,-360.713 271.356,-347.059c3.37,-3.456 68.789,10.284 17.111,48.136c-0,-6.914 -219.764,109.925 -188.912,316.034c-3.457,0 116.925,192.455 116.925,192.455l-0,47.963l116.752,-0l-13.827,807.24Z" style="fill:#1c1c20;fill-rule:nonzero;"/>
            <path d="M4791.73,31432.3l-370.911,948.103c0,-0 -161.517,302.38 -429.416,175.171c0,3.457 -278.269,-89.357 -171.801,-422.416c-3.456,-3.457 370.997,-1006.52 370.997,-1006.52l0,-206.11l206.109,-552.995l75.617,0c0,0 103.012,-360.713 271.356,-347.059c3.37,-3.456 68.789,10.284 17.111,48.136c-0,-6.914 -219.764,109.925 -188.912,316.034c-3.457,0 116.925,192.455 116.925,192.455l-0,47.963l116.752,-0l-13.827,807.24Z" style="fill:none;fill-rule:nonzero;stroke:#1c1c20;stroke-width:7.81px;stroke-linecap:butt;stroke-linejoin:miter;stroke-miterlimit:3.864;"/>
            <path d="M4496.35,30916.9l-58.42,120.209l-72.073,55.049l-395.021,1088.88c-0,0 -58.42,175.344 75.616,230.221c-6.913,3.37 151.233,72.159 219.85,-96.012c-6.913,-0 477.465,-1250.57 477.465,-1250.57c0,-0 -65.246,-61.79 -54.876,-151.147c3.37,-0 -75.617,-0 -75.617,-0c0,-0 -106.468,65.246 -99.641,419.132c3.371,-3.457 -58.332,-0 -58.332,-0c-0,-0 3.456,-322.775 89.27,-415.675l-48.221,-0l-0,-0.087Z" style="fill:#fff;"/>
            <path d="M4496.35,30916.9l-58.42,120.209l-72.073,55.049l-395.021,1088.88c-0,0 -58.42,175.344 75.616,230.221c-6.913,3.37 151.233,72.159 219.85,-96.012c-6.913,-0 477.465,-1250.57 477.465,-1250.57c0,-0 -65.246,-61.79 -54.876,-151.147c3.37,-0 -75.617,-0 -75.617,-0c0,-0 -106.468,65.246 -99.641,419.132c3.371,-3.457 -58.332,-0 -58.332,-0c-0,-0 3.456,-322.775 89.27,-415.675l-48.221,-0l-0,-0.087Z" style="fill:none;fill-rule:nonzero;stroke:#1c1c20;stroke-width:7.81px;stroke-linecap:butt;stroke-linejoin:miter;stroke-miterlimit:3.864;"/>
        </g>
        <g>
            <rect x="16792.9" y="18219.5" width="4783.55" height="4783.47" style="fill:#fff;"/>
            <path d="M21694.5,23121l-0,-5019.69l-5019.77,-0l0,5019.69l5019.77,0Zm-118.11,-4901.57l-4783.55,0l-0,4783.47l4783.55,-0l-0,-4783.47Z"/>
            <path d="M19962.1,18753.3c61.013,0 57.211,49.519 57.211,49.519c-0,0 -3.716,332.114 -0,332.114c-0,42.001 -42.001,42.001 -42.001,42.001l-351.04,-0l0,171.717c0,0 332.028,3.889 328.225,0c72.507,0 64.816,64.902 64.816,64.902c-0,0 -0,198.422 -0,194.619c-0,72.594 -68.704,68.705 -68.704,68.705c-0,-0 -84.001,7.605 -84.001,-0c-267.126,-0 -240.422,255.718 -240.422,255.718l-0,530.536l122.112,122.112c-0,0 -0,1710 -0,1706.29c-0,61.013 -106.816,61.013 -106.816,61.013c-80.198,-0 -118.396,49.691 -114.507,49.691c-0,57.211 -110.705,68.705 -110.705,68.705c0,-0 -110.705,-11.494 -110.705,-68.705c3.803,0 -34.309,-49.691 -114.42,-49.691c-0,-0 -106.903,-0 -106.903,-61.013c0,3.716 0,-1706.29 0,-1706.29l122.113,-122.112l-0,-530.536c-0,0 -19.013,-255.718 -313.016,-255.718l-507.634,-0c-0,-0 -30.593,-0 -30.593,-42.001c0,0 0,-255.632 0,-251.829c0,-38.285 34.395,-34.396 34.395,-34.396c-3.888,3.889 816.761,0 816.761,0l0,-171.717l-824.366,-0c0,-0 -30.592,-0 -30.592,-30.593c-3.889,-3.716 -0,-225.212 -0,-225.212c-0,-0 -0,-34.223 34.309,-34.223l435.127,0l133.52,-133.606c0.086,0 1004.03,-3.802 1007.84,0Z" style="fill:#1c1c20;fill-rule:nonzero;"/>
            <path d="M19962.1,18753.3c61.013,0 57.211,49.519 57.211,49.519c-0,0 -3.716,332.114 -0,332.114c-0,42.001 -42.001,42.001 -42.001,42.001l-351.04,-0l0,171.717c0,0 332.028,3.889 328.225,0c72.507,0 64.816,64.902 64.816,64.902c-0,0 -0,198.422 -0,194.619c-0,72.594 -68.704,68.705 -68.704,68.705c-0,-0 -84.001,7.605 -84.001,-0c-267.126,-0 -240.422,255.718 -240.422,255.718l-0,530.536l122.112,122.112c-0,0 -0,1710 -0,1706.29c-0,61.013 -106.816,61.013 -106.816,61.013c-80.198,-0 -118.396,49.691 -114.507,49.691c-0,57.211 -110.705,68.705 -110.705,68.705c0,-0 -110.705,-11.494 -110.705,-68.705c3.803,0 -34.309,-49.691 -114.42,-49.691c-0,-0 -106.903,-0 -106.903,-61.013c0,3.716 0,-1706.29 0,-1706.29l122.113,-122.112l-0,-530.536c-0,0 -19.013,-255.718 -313.016,-255.718l-507.634,-0c-0,-0 -30.593,-0 -30.593,-42.001c0,0 0,-255.632 0,-251.829c0,-38.285 34.395,-34.396 34.395,-34.396c-3.888,3.889 816.761,0 816.761,0l0,-171.717l-824.366,-0c0,-0 -30.592,-0 -30.592,-30.593c-3.889,-3.716 -0,-225.212 -0,-225.212c-0,-0 -0,-34.223 34.309,-34.223l435.127,0l133.52,-133.606c0.086,0 1004.03,-3.802 1007.84,0Z" style="fill:none;fill-rule:nonzero;stroke:#1c1c20;stroke-width:8.69px;stroke-linecap:butt;stroke-linejoin:miter;stroke-miterlimit:3.864;"/>
        </g>
        <g>
            <rect x="3322.26" y="18219.5" width="4783.47" height="4783.29" style="fill:#fff;"/>
            <path d="M8223.83,23120.9l-0,-5019.51l-5019.69,-0l-0,5019.51l5019.69,0Zm-118.11,-4901.4l-4783.47,0l-0,4783.29l4783.47,-0l-0,-4783.29Z"/>
            <path d="M6798.14,21720.2c251.907,321.645 -81.319,492.233 -81.319,492.233c-263.573,213.192 -457.407,-135.675 -457.407,-135.675l-507.875,-992.159c-0,0 -639.403,1034.94 -639.403,1030.87c-220.969,372.114 -507.702,135.675 -515.48,131.787c-302.375,-224.945 -3.889,-519.369 -3.889,-519.369c0,-0 891.396,-1058.18 891.396,-1062.16c104.652,-120.034 -58.159,-120.034 -69.739,-131.7c-453.519,-96.874 -627.909,-372.027 -627.909,-368.138c-368.311,-488.518 -279.128,-814.053 -279.128,-814.053c116.318,-383.78 461.296,-263.573 457.494,-267.462c472.79,124.096 643.291,596.886 647.18,600.861c50.381,108.454 155.033,678.29 155.033,678.29c-0,0 69.739,-93.158 124.095,-441.938c0,7.864 3.803,-209.217 248.105,-500.098c3.802,-0 100.676,-170.329 368.138,-329.337c0,-0 182.082,-81.405 104.738,77.43c-3.975,3.889 -348.867,511.678 -348.867,511.678c-0,-0 -11.58,23.246 11.666,38.974c7.778,-0 23.16,11.493 46.493,-7.864c3.802,-7.778 364.422,-511.764 364.422,-511.764c0,-0 30.937,-46.493 89.096,-15.469c48.221,44.937 24.024,94.282 24.024,94.282c0,-0 -359.064,504.85 -365.2,511.159c-10.802,28.172 5.185,39.147 7.778,46.406c22.209,17.024 40.443,-1.556 40.443,-1.556c0,0 367.879,-491.456 370.299,-496.468c124.96,-125.132 107.244,73.714 107.244,73.714c-63.085,304.622 -192.884,451.704 -191.674,455.42c-195.39,325.535 -384.471,468.21 -520.319,526.455c-3.803,3.716 -104.565,19.271 -158.749,124.009c-7.864,0 -104.738,162.638 -104.738,162.638c-0,-0 810.163,1042.97 814.052,1039Z" style="fill:#1c1c20;fill-rule:nonzero;"/>
        </g>
        <g>
            <rect x="10057.6" y="18219.5" width="4783.55" height="4783.47" style="fill:#fff;"/>
            <path d="M14959.2,23121l0,-5019.69l-5019.77,-0l-0,5019.69l5019.77,0Zm-118.11,-4901.57l-4783.55,0l-0,4783.47l4783.55,-0l-0,-4783.47Z"/>
            <path d="M13705,20025.2c92.47,-0 167.483,75.099 167.483,167.483l0,376.707l-2051.02,0l-0,-544.19l1883.54,-0Z" style="fill:#1c1c20;fill-rule:nonzero;"/>
            <path d="M13705,20025.2c92.47,-0 167.483,75.099 167.483,167.483l0,376.707l-2051.02,0l-0,-544.19l1883.54,-0Z" style="fill:none;fill-rule:nonzero;stroke:#1c1c20;stroke-width:8.37px;stroke-linecap:butt;stroke-linejoin:miter;stroke-miterlimit:3.864;"/>
            <path d="M10942.4,20653.1l3013.83,0l-0,-460.362c-0,-92.384 74.926,-167.483 167.396,-167.483c92.47,-0 167.483,75.099 167.483,167.483l0,1339.43l-334.879,0l-0,-502.363l-3013.83,0l-0,502.363l-334.793,0l-0,-1674.23c-0,-92.557 74.926,-167.397 167.483,-167.397c92.47,0 167.396,74.84 167.396,167.397l0,795.155l-0.086,0Z" style="fill:#1c1c20;fill-rule:nonzero;"/>
            <path d="M10942.4,20653.1l3013.83,0l-0,-460.362c-0,-92.384 74.926,-167.483 167.396,-167.483c92.47,-0 167.483,75.099 167.483,167.483l0,1339.43l-334.879,0l-0,-502.363l-3013.83,0l-0,502.363l-334.793,0l-0,-1674.23c-0,-92.557 74.926,-167.397 167.483,-167.397c92.47,0 167.396,74.84 167.396,167.397l0,795.155l-0.086,0Z" style="fill:none;fill-rule:nonzero;stroke:#1c1c20;stroke-width:8.37px;stroke-linecap:butt;stroke-linejoin:miter;stroke-miterlimit:3.864;"/>
            <path d="M11026.2,20569.4l-0,-334.88c-0,0 20.827,-209.31 355.793,-209.31c334.88,-0 355.707,209.31 355.707,209.31l0,334.88l-711.5,0Z" style="fill:#1c1c20;fill-rule:nonzero;"/>
            <path d="M11026.2,20569.4l-0,-334.88c-0,0 20.827,-209.31 355.793,-209.31c334.88,-0 355.707,209.31 355.707,209.31l0,334.88l-711.5,0Z" style="fill:none;fill-rule:nonzero;stroke:#1c1c20;stroke-width:8.37px;stroke-linecap:butt;stroke-linejoin:miter;stroke-miterlimit:3.864;"/>
        </g>
    </g>
</svg>
