<?xml version="1.0" encoding="UTF-8" standalone="no"?>
<!DOCTYPE svg PUBLIC "-//W3C//DTD SVG 1.1//EN" "http://www.w3.org/Graphics/SVG/1.1/DTD/svg11.dtd">
<svg width="100%" height="100%" viewBox="0 0 61689 61167" version="1.1" xmlns="http://www.w3.org/2000/svg" xmlns:xlink="http://www.w3.org/1999/xlink" xml:space="preserve" style="fill-rule:evenodd;clip-rule:evenodd;stroke-miterlimit:3.864;">
    <g id="g4799">
        <g>
            <path d="M60481.7,4217.29c-0,-1642.71 -1333.67,-2976.38 -2976.38,-2976.38l-53236.7,-0c-1642.71,-0 -2976.38,1333.67 -2976.38,2976.38l0,52743.1c0,1642.71 1333.67,2976.38 2976.38,2976.38l53236.7,0c1642.71,0 2976.38,-1333.67 2976.38,-2976.38l-0,-52743.1Z" style="fill:#003fff;"/>
            <path d="M61544.7,4217.29c-0,-2229.39 -1809.98,-4039.37 -4039.37,-4039.37c0,-0 -53236.7,-0 -53236.7,-0c-2229.39,-0 -4039.37,1809.98 -4039.37,4039.37c0,-0 0,52743.1 0,52743.1c0,2229.39 1809.98,4039.37 4039.37,4039.37l53236.7,-0c2229.39,-0 4039.37,-1809.98 4039.37,-4039.37c-0,0 -0,-52743.1 -0,-52743.1Zm-1062.99,-0c-0,-1642.71 -1333.67,-2976.38 -2976.38,-2976.38l-53236.7,-0c-1642.71,-0 -2976.38,1333.67 -2976.38,2976.38l0,52743.1c0,1642.71 1333.67,2976.38 2976.38,2976.38l53236.7,0c1642.71,0 2976.38,-1333.67 2976.38,-2976.38l-0,-52743.1Z"/>
            <path d="M61332.1,4217.29c-0,-2112.05 -1714.72,-3826.77 -3826.77,-3826.77c0,0 -53236.7,0 -53236.7,0c-2112.05,0 -3826.77,1714.72 -3826.77,3826.77c-0,-0 -0,52743.1 -0,52743.1c-0,2112.05 1714.72,3826.77 3826.77,3826.77l53236.7,0c2112.05,0 3826.77,-1714.72 3826.77,-3826.77c-0,0 -0,-52743.1 -0,-52743.1Zm-850.394,-0c-0,-1642.71 -1333.67,-2976.38 -2976.38,-2976.38l-53236.7,-0c-1642.71,-0 -2976.38,1333.67 -2976.38,2976.38l0,52743.1c0,1642.71 1333.67,2976.38 2976.38,2976.38l53236.7,0c1642.71,0 2976.38,-1333.67 2976.38,-2976.38l-0,-52743.1Z" style="fill:#003fff;"/>
            <g>
                <rect x="4736.05" y="50338.5" width="6377.95" height="6377.84" style="fill:#fff;"/>
                <path d="M7252.46,51295.8c-164.772,-0 -155.669,155.784 -155.669,155.784l-0,274.813l-284.146,-0c-146.452,-0 -137.234,137.348 -137.234,137.348l0,1717.55l119.143,197.036l173.991,128.13l146.451,1548.05l-1352.52,-0l0,311.569l4720.67,-0l-0,-311.569l-1456.45,-0l146.451,-1548.05l174.106,-128.13l119.027,-164.888l0,-1749.7c0,0 9.218,-137.348 -137.233,-137.348l-284.146,-0l0,-274.813c0,0 9.218,-155.784 -155.669,-155.784c-0,-9.218 -1636.78,-9.218 -1636.78,-0Z" style="fill:#1c1c20;fill-rule:nonzero;"/>
                <path d="M7252.46,51295.8c-164.772,-0 -155.669,155.784 -155.669,155.784l-0,274.813l-284.146,-0c-146.452,-0 -137.234,137.348 -137.234,137.348l0,1717.55l119.143,197.036l173.991,128.13l146.451,1548.05l-1352.52,-0l0,311.569l4720.67,-0l-0,-311.569l-1456.45,-0l146.451,-1548.05l174.106,-128.13l119.027,-164.888l0,-1749.7c0,0 9.218,-137.348 -137.233,-137.348l-284.146,-0l0,-274.813c0,0 9.218,-155.784 -155.669,-155.784c-0,-9.218 -1636.78,-9.218 -1636.78,-0Z" style="fill:none;fill-rule:nonzero;stroke:#1c1c20;stroke-width:10.42px;"/>
                <rect x="7087.8" y="52111.1" width="1966.44" height="1200.07" style="fill:#fff;"/>
                <rect x="7087.8" y="52111.1" width="1966.44" height="1200.07" style="fill:none;stroke:#1c1c20;stroke-width:10.42px;"/>
                <path d="M6695.34,53540.2l-494.547,1264.14c0,0 -215.356,403.173 -572.554,233.562c-0,4.609 -371.026,-119.143 -229.068,-563.222c-4.609,-4.609 494.662,-1342.03 494.662,-1342.03l0,-274.813l274.812,-737.326l100.823,-0c-0,-0 137.348,-480.951 361.807,-462.745c4.494,-4.609 91.72,13.711 22.815,64.18c-0,-9.218 -293.018,146.567 -251.883,421.379c-4.609,0 155.9,256.607 155.9,256.607l0,63.95l155.67,0l-18.437,1076.32Z" style="fill:#1c1c20;fill-rule:nonzero;"/>
                <path d="M6695.34,53540.2l-494.547,1264.14c0,0 -215.356,403.173 -572.554,233.562c-0,4.609 -371.026,-119.143 -229.068,-563.222c-4.609,-4.609 494.662,-1342.03 494.662,-1342.03l0,-274.813l274.812,-737.326l100.823,-0c-0,-0 137.348,-480.951 361.807,-462.745c4.494,-4.609 91.72,13.711 22.815,64.18c-0,-9.218 -293.018,146.567 -251.883,421.379c-4.609,0 155.9,256.607 155.9,256.607l0,63.95l155.67,0l-18.437,1076.32Z" style="fill:none;fill-rule:nonzero;stroke:#1c1c20;stroke-width:10.42px;"/>
                <path d="M6301.5,52853.1l-77.892,160.279l-96.098,73.398l-526.695,1451.84c0,0 -77.892,233.793 100.822,306.961c-9.218,4.494 201.645,96.213 293.133,-128.016c-9.218,0 636.62,-1667.42 636.62,-1667.42c0,-0 -86.995,-82.387 -73.168,-201.53c4.494,0 -100.822,0 -100.822,0c0,0 -141.957,86.996 -132.855,558.843c4.494,-4.609 -77.777,0 -77.777,0c0,0 4.609,-430.366 119.028,-554.234l-64.296,0l0,-0.115Z" style="fill:#fff;"/>
                <path d="M6301.5,52853.1l-77.892,160.279l-96.098,73.398l-526.695,1451.84c0,0 -77.892,233.793 100.822,306.961c-9.218,4.494 201.645,96.213 293.133,-128.016c-9.218,0 636.62,-1667.42 636.62,-1667.42c0,-0 -86.995,-82.387 -73.168,-201.53c4.494,0 -100.822,0 -100.822,0c0,0 -141.957,86.996 -132.855,558.843c4.494,-4.609 -77.777,0 -77.777,0c0,0 4.609,-430.366 119.028,-554.234l-64.296,0l0,-0.115Z" style="fill:none;fill-rule:nonzero;stroke:#1c1c20;stroke-width:10.42px;"/>
            </g>
            <path d="M60481.7,56960.4c-0,1642.71 -1333.67,2976.38 -2976.38,2976.38l-53236.7,0c-1642.71,0 -2976.38,-1333.67 -2976.38,-2976.38l0,-6865.87c0,-1642.71 1333.67,-2976.38 2976.38,-2976.38l53236.7,-0c1642.71,-0 2976.38,1333.67 2976.38,2976.38l-0,6865.87Z" style="fill:none;stroke:#fff;stroke-width:850.39px;stroke-linecap:round;stroke-linejoin:round;stroke-miterlimit:1.5;"/>
            <path d="M60481.7,14921.1c-0,-1642.71 -1333.67,-2976.38 -2976.38,-2976.38l-53236.7,0c-1642.71,0 -2976.38,1333.67 -2976.38,2976.38l0,27586.2c0,1642.71 1333.67,2976.38 2976.38,2976.38l53236.7,-0c1642.71,-0 2976.38,-1333.67 2976.38,-2976.38l-0,-27586.2Z" style="fill:none;stroke:#fff;stroke-width:850.39px;stroke-linecap:round;stroke-linejoin:round;stroke-miterlimit:1.5;"/>
            <g>
                <path d="M5031.32,19758.7l993.603,0l1.476,-1392.22l891.732,2.953c773.623,-106.3 1212.6,-546.752 1316.93,-1321.36c-31.496,-858.267 -471.949,-1352.36 -1321.36,-1482.28l-1882.38,-0l0,4192.91Zm995.079,-3336.61l692.421,1.476c317.914,32.481 493.111,207.186 525.591,524.115c-26.575,324.803 -201.28,504.429 -524.114,538.878l-695.374,-2.953l1.476,-1061.52Z" style="fill:#fff;fill-rule:nonzero;"/>
                <path d="M8759.18,18806.5c33.464,181.102 103.346,346.456 209.645,496.062c497.048,575.788 1074.8,672.737 1733.27,290.847l75.295,160.925l832.678,0l-0,-3054.63l-975.886,-1.476l-0,1683.07c3.937,60.039 -4.429,119.094 -25.099,177.165c-50.196,135.827 -143.7,228.839 -280.511,279.035c-266.733,62.993 -456.201,-31.003 -568.406,-281.988c-25.591,-67.913 -37.894,-138.287 -36.909,-211.122l-1.477,-1646.16l-961.122,1.476l-1.476,2106.79Z" style="fill:#fff;fill-rule:nonzero;"/>
                <path d="M12299.5,18751.8c178.15,591.535 569.39,950.295 1173.72,1076.28c622.047,83.661 1169.29,-81.201 1641.73,-494.587l-615.65,-620.078c-200.787,177.165 -435.039,273.13 -702.756,287.893c-302.165,7.874 -505.905,-129.921 -611.22,-413.385l1970.96,-0c49.213,-299.213 24.115,-591.536 -75.295,-876.969c-300.197,-752.953 -853.346,-1086.61 -1659.45,-1000.98l-13.287,2.953c-551.181,117.126 -916.831,441.929 -1096.95,974.409l-2.953,8.858c-97.441,351.378 -100.393,703.248 -8.858,1055.61Zm893.209,-863.682c56.102,-201.771 185.531,-331.2 388.287,-388.287c317.914,-44.291 528.543,85.138 631.89,388.287l-1020.18,0Z" style="fill:#fff;fill-rule:nonzero;"/>
                <path d="M16620.9,19758.7l0,-1610.73c15.748,-156.496 79.725,-289.862 191.93,-400.098c230.314,-153.544 479.822,-195.375 748.523,-125.493l2.953,-1023.13c-351.378,-28.543 -669.291,61.516 -953.74,270.178l-25.099,-203.741l-947.834,2.953l-0,3090.06l983.267,0Z" style="fill:#fff;fill-rule:nonzero;"/>
                <path d="M18466.4,19231.6c129.921,463.583 435.531,693.898 916.831,690.945c290.354,-15.748 574.803,-66.929 853.346,-153.543l-277.559,-792.815c-148.622,60.039 -291.339,49.213 -428.15,-32.48c-52.165,-61.024 -75.787,-131.89 -70.866,-212.599l0,-1170.77l714.567,-0l1.476,-850.394l-716.043,-0l0,-1080.71l-993.602,273.13l-0,807.579l-466.536,-0l0,850.394l466.536,-0l-0,1671.26Z" style="fill:#fff;fill-rule:nonzero;"/>
                <path d="M21129.8,19441.3c706.693,547.244 1412.89,546.26 2118.6,-2.953c238.189,-235.236 382.874,-517.716 434.055,-847.441c26.575,-193.897 29.528,-388.287 8.858,-583.169c-42.322,-317.913 -165.846,-600.394 -370.57,-847.441c-54.134,-62.992 -112.697,-121.555 -175.689,-175.689c-756.89,-531.496 -1467.03,-474.901 -2130.41,169.784l-5.905,7.381c-200.788,248.032 -318.406,531.004 -352.855,848.918c-30.511,192.913 -24.606,384.842 17.717,575.787c49.212,335.63 198.819,618.603 448.819,848.918l7.382,5.905Zm1637.3,-1433.56c37.401,193.898 35.433,387.303 -5.906,580.217c-66.929,216.535 -208.661,357.775 -425.197,423.72c-366.141,64.961 -614.665,-76.279 -745.57,-423.72c-45.276,-191.93 -50.689,-385.335 -16.241,-580.217c59.056,-273.622 225.394,-440.453 499.016,-500.492c369.095,-24.606 600.394,142.224 693.898,500.492Z" style="fill:#fff;fill-rule:nonzero;"/>
                <path d="M26273.5,19758.7l2737.2,0l0,-913.878l-1849.9,0l-0,-3279.03l-888.78,-0l1.476,4192.91Z" style="fill:#fff;fill-rule:nonzero;"/>
                <path d="M32790.2,19088.4c-77.756,1.968 -154.528,-5.906 -230.315,-23.622c-72.835,-30.512 -108.268,-85.63 -106.299,-165.355l-0,-1291.83c-10.827,-418.307 -214.567,-695.867 -611.221,-832.678c-732.283,-238.189 -1399.61,-117.618 -2001.97,361.713l441.437,704.232c115.157,-109.252 245.57,-195.866 391.24,-259.842c193.897,-88.583 396.161,-116.142 606.791,-82.677c47.244,10.826 91.536,28.051 132.874,51.673c51.181,29.527 84.154,72.835 98.917,129.921c2.953,24.606 -5.413,44.291 -25.098,59.055c-36.417,13.78 -73.819,23.622 -112.205,29.528l-792.815,137.303c-359.252,95.472 -608.76,315.453 -748.523,659.941c-115.158,561.024 88.582,960.138 611.22,1197.34c459.646,158.465 881.89,89.075 1266.73,-208.169c207.678,207.677 458.17,301.673 751.477,281.988l327.756,-748.523Zm-1960.63,-104.823c-38.386,-23.622 -65.945,-57.087 -82.677,-100.394c-30.512,-115.157 8.366,-198.327 116.633,-249.508c30.512,-12.795 62.008,-22.638 94.489,-29.527c183.071,-28.544 364.665,-62.992 544.783,-103.347l-1.476,308.563c-22.638,74.803 -68.406,130.414 -137.303,166.831c-177.166,86.614 -355.315,89.075 -534.449,7.382Z" style="fill:#fff;fill-rule:nonzero;"/>
                <path d="M33196.2,20808.4l934.547,0l-0,-1254.92c422.244,270.669 845.472,272.638 1269.68,5.905c154.528,-104.33 287.894,-230.315 400.098,-377.952c538.386,-872.048 429.134,-1654.04 -327.756,-2345.97c-462.598,-293.307 -921.259,-287.402 -1375.98,17.716l-64.96,-156.496l-831.201,0l-4.429,4111.71Zm2013.78,-2943.9c50.197,235.237 45.768,468.996 -13.287,701.28c-73.819,183.071 -206.201,300.197 -397.146,351.378c-340.551,47.244 -566.437,-92.028 -677.657,-417.815c-15.748,-211.614 -12.304,-422.736 10.334,-633.366c59.055,-213.583 195.374,-350.394 408.957,-410.433c335.63,-48.229 558.563,88.09 668.799,408.956Z" style="fill:#fff;fill-rule:nonzero;"/>
                <path d="M36686.3,19757.2l972.933,-0l0,-3038.39l-972.933,0l0,3038.39Zm388.288,-4222.44c-317.914,102.362 -456.201,318.898 -414.863,649.606c101.378,316.929 317.422,455.217 648.13,414.862c316.929,-101.377 455.217,-317.421 414.862,-648.129c-101.377,-317.914 -317.421,-456.693 -648.129,-416.339Z" style="fill:#fff;fill-rule:nonzero;"/>
                <path d="M38406.3,18940.8c400.591,749.016 1010.34,1012.8 1829.23,791.338c431.102,-175.196 724.409,-482.283 879.921,-921.259l-826.772,-302.658c-25.59,248.032 -156.004,413.878 -391.24,497.54c-330.708,66.929 -559.547,-56.103 -686.516,-369.095c-78.74,-284.449 -72.342,-566.929 19.193,-847.441c90.552,-199.803 245.079,-311.024 463.583,-333.661c331.693,7.874 524.114,175.689 577.264,503.445l1.476,7.381l829.725,-310.039l-5.906,-14.764c-177.165,-465.551 -503.445,-773.622 -978.838,-924.212c-743.111,-172.244 -1303.64,73.326 -1681.6,736.712c-206.693,491.142 -216.535,986.713 -29.528,1486.71Z" style="fill:#fff;fill-rule:nonzero;"/>
                <path d="M41564.3,18751.8c178.15,591.535 569.39,950.295 1173.72,1076.28c622.048,83.661 1169.29,-81.201 1641.73,-494.587l-615.65,-620.078c-200.787,177.165 -435.039,273.13 -702.756,287.893c-302.165,7.874 -505.905,-129.921 -611.22,-413.385l1970.96,-0c49.213,-299.213 24.114,-591.536 -75.295,-876.969c-300.197,-752.953 -853.346,-1086.61 -1659.45,-1000.98l-13.287,2.953c-551.181,117.126 -916.831,441.929 -1096.95,974.409l-2.953,8.858c-97.441,351.378 -100.394,703.248 -8.858,1055.61Zm893.209,-863.682c56.102,-201.771 185.531,-331.2 388.287,-388.287c317.913,-44.291 528.543,85.138 631.89,388.287l-1020.18,0Z" style="fill:#fff;fill-rule:nonzero;"/>
                <path d="M30887,16338.5l625.373,-0l548.607,-1163.28l-930.216,-0l-243.764,1163.28Z" style="fill:#fff;"/>
            </g>
            <path d="M14217.6,55942.3c-317.422,566.929 -257.628,1091.04 179.379,1572.34c380.906,331.447 795.399,380.536 1243.48,147.268l36.54,97.441l654.405,-2.214l-1.108,-2945.37l-710.876,-0l-2.214,755.167c-254.675,-145.423 -521.9,-174.212 -801.673,-86.368c-250.985,87.106 -450.296,241.019 -597.933,461.737Zm1398.5,494.956c5.905,116.634 5.905,233.637 -0,351.009c-42.077,219.98 -173.475,349.163 -394.193,387.549c-274.607,5.167 -439.592,-126.23 -494.956,-394.193c-8.12,-115.157 -5.906,-229.577 6.644,-343.258c43.553,-203.002 166.83,-326.279 369.832,-369.832c273.13,-19.193 444.021,103.715 512.673,368.725Z" style="fill:#fff;fill-rule:nonzero;"/>
            <path d="M16647,57004.2c133.613,443.652 427.043,712.722 880.291,807.21c466.535,62.746 876.968,-60.901 1231.3,-370.94l-461.737,-465.059c-150.591,132.874 -326.28,204.847 -527.067,215.92c-226.624,5.906 -379.429,-97.441 -458.415,-310.039l1478.22,-0c36.909,-224.41 18.086,-443.652 -56.471,-657.727c-225.148,-564.714 -640.01,-814.96 -1244.59,-750.738l-9.966,2.215c-413.385,87.844 -687.623,331.446 -822.711,730.807l-2.215,6.643c-73.081,263.534 -75.295,527.436 -6.644,791.708Zm669.907,-647.761c42.077,-151.328 139.149,-248.4 291.216,-291.215c238.435,-33.219 396.407,63.853 473.917,291.215l-765.133,0Z" style="fill:#fff;fill-rule:nonzero;"/>
            <path d="M23429.1,55270.2c-130.66,-261.319 -326.649,-456.57 -587.968,-585.753c-728.592,-272.391 -1294.78,-76.033 -1698.57,589.075c-265.009,606.053 -269.07,1213.58 -12.18,1822.59c132.874,273.868 336.245,477.239 610.113,610.113c737.451,267.224 1306.23,63.484 1706.32,-611.221c241.388,-610.482 235.483,-1218.75 -17.716,-1824.8Zm-550.32,1340.92c-6.644,34.695 -15.871,68.652 -27.682,101.871c-160.187,334.399 -419.292,453.986 -777.313,358.759c-215.551,-81.939 -345.473,-235.482 -389.764,-460.63c-25.098,-214.074 -29.528,-428.149 -13.287,-642.224c3.691,-35.433 6.274,-70.866 7.751,-106.299c20.669,-293.061 171.628,-481.668 452.878,-565.822c53.888,-14.764 108.514,-21.777 163.878,-21.038c363.928,39.862 560.286,242.126 589.075,606.791l1.108,7.751c25.098,239.911 22.883,480.192 -6.644,720.841Z" style="fill:#fff;fill-rule:nonzero;"/>
            <path d="M27765.2,57256.6c-58.317,1.476 -115.896,-4.429 -172.736,-17.717c-54.626,-22.884 -81.201,-64.222 -79.725,-124.016l0,-968.873c-8.12,-313.73 -160.925,-521.899 -458.415,-624.507c-549.213,-178.642 -1049.7,-88.214 -1501.48,271.284l331.078,528.174c86.368,-81.939 184.178,-146.899 293.43,-194.882c145.423,-66.437 297.121,-87.106 455.094,-62.008c35.433,8.121 68.651,21.039 99.655,38.755c38.386,22.146 63.115,54.626 74.188,97.441c2.215,18.455 -4.06,33.219 -18.824,44.292c-27.313,10.334 -55.364,17.716 -84.153,22.145l-594.611,102.978c-269.439,71.604 -456.57,236.589 -561.393,494.955c-86.368,420.768 66.437,720.104 458.415,898.007c344.735,118.849 661.418,66.806 950.05,-156.127c155.757,155.758 343.627,226.255 563.607,211.491l245.817,-561.392Zm-1470.47,-78.617c-28.789,-17.717 -49.458,-42.815 -62.008,-75.296c-22.883,-86.368 6.275,-148.745 87.476,-187.131c22.884,-9.596 46.506,-16.978 70.866,-22.145c137.303,-21.408 273.499,-47.244 408.588,-77.51l-1.108,231.422c-16.978,56.103 -51.304,97.81 -102.977,125.123c-132.874,64.961 -266.486,66.806 -400.837,5.537Z" style="fill:#fff;fill-rule:nonzero;"/>
            <path d="M29805.9,57759.4l2244.46,0l-0,-662.155l-994.341,-0c140.256,-109.99 275.714,-225.517 406.373,-346.58c175.689,-138.041 325.172,-300.443 448.45,-487.205c260.581,-583.907 149.852,-1085.51 -332.185,-1504.8c-673.967,-373.523 -1263.41,-269.439 -1768.33,312.254c-103.346,247.293 -152.436,505.291 -147.268,773.991l741.88,0c0.738,-90.797 7.751,-180.856 21.038,-270.177c43.553,-191.929 161.294,-310.039 353.223,-354.331c266.487,-22.145 435.532,95.965 507.136,354.331c3.691,152.805 -33.587,294.907 -111.835,426.304c-149.853,164.616 -315.945,311.885 -498.278,441.806l-549.213,420.768c-78.986,59.793 -153.912,124.016 -224.778,192.667c-64.961,81.939 -97.072,174.951 -96.334,279.036l0,424.089Z" style="fill:#fff;fill-rule:nonzero;"/>
            <path d="M34914.9,57304.3l396.408,-0l-0,-686.516l-396.408,0l0,-2004.18l-896.9,0l-1487.08,2068.41l-0,622.293l1648.75,-0l-0,452.879l735.236,-0l0,-452.879Zm-735.236,-686.516l-812.746,0l813.853,-1075.17l-1.107,1075.17Z" style="fill:#fff;fill-rule:nonzero;"/>
            <path d="M39413.8,56229.1c-30.266,-274.607 -161.664,-486.467 -394.193,-635.581l-6.644,-4.429c-339.567,-189.715 -676.55,-186.024 -1010.95,11.073l1.108,-981.053l-702.018,-0l-0,3135.83l3.322,5.537l698.696,-0l-0,-1332.06c31.004,-173.475 132.874,-275.714 305.61,-306.718c214.075,-5.167 343.258,97.072 387.549,306.718l0,1326.53l717.52,0l-0,-1525.84Z" style="fill:#fff;fill-rule:nonzero;"/>
            <path d="M16088.9,52272.6c-58.317,1.476 -115.896,-4.43 -172.737,-17.717c-54.626,-22.884 -81.2,-64.222 -79.724,-124.016l-0,-968.873c-8.12,-313.73 -160.925,-521.899 -458.415,-624.508c-549.213,-178.641 -1049.7,-88.213 -1501.48,271.285l331.078,528.174c86.368,-81.939 184.178,-146.9 293.43,-194.882c145.423,-66.437 297.121,-87.106 455.094,-62.008c35.433,8.12 68.651,21.039 99.655,38.755c38.386,22.146 63.115,54.626 74.188,97.441c2.215,18.455 -4.06,33.219 -18.824,44.291c-27.313,10.335 -55.364,17.717 -84.153,22.146l-594.611,102.977c-269.439,71.605 -456.57,236.59 -561.393,494.956c-86.368,420.768 66.437,720.104 458.415,898.007c344.734,118.848 661.418,66.806 950.049,-156.127c155.758,155.758 343.627,226.255 563.608,211.491l245.817,-561.392Zm-1470.47,-78.618c-28.789,-17.716 -49.458,-42.815 -62.008,-75.295c-22.884,-86.368 6.275,-148.745 87.476,-187.131c22.884,-9.596 46.506,-16.978 70.866,-22.145c137.303,-21.408 273.499,-47.245 408.587,-77.51l-1.107,231.422c-16.978,56.102 -51.304,97.81 -102.977,125.123c-132.874,64.961 -266.486,66.806 -400.837,5.536Z" style="fill:#fff;fill-rule:nonzero;"/>
            <path d="M18007.8,50590.6l702.018,76.402c-2.215,-88.582 22.514,-169.045 74.188,-241.387c10.334,-11.811 21.407,-23.253 33.218,-34.326c259.104,-195.62 508.981,-184.547 749.631,33.218c2.953,4.43 5.536,9.228 7.751,14.395c67.913,175.689 21.777,313.361 -138.41,413.017c-37.648,13.287 -76.772,21.407 -117.373,24.36l-364.296,0l0,649.975l447.343,0c26.575,3.691 51.673,10.704 75.295,21.039c155.02,85.63 204.847,212.598 149.483,380.905c-41.338,70.128 -96.702,126.231 -166.092,168.307c-269.439,130.66 -493.11,76.034 -671.014,-163.878c-41.339,-65.698 -66.806,-136.934 -76.403,-213.705l-734.129,129.552c16.979,165.354 69.39,318.528 157.235,459.523c52.411,71.604 111.466,137.672 177.165,198.203c632.628,477.609 1242.74,449.557 1830.34,-84.153c235.482,-298.967 275.713,-622.294 120.694,-969.981c-71.605,-116.633 -165.724,-211.122 -282.358,-283.464c107.776,-68.652 193.775,-158.342 257.997,-269.07c201.526,-437.746 105.93,-796.506 -286.786,-1076.28c-641.486,-388.287 -1229.09,-319.266 -1762.8,207.063c-114.42,169.045 -175.32,355.807 -182.702,560.285Z" style="fill:#fff;fill-rule:nonzero;"/>
            <path d="M23528.7,50286.1c-130.659,-261.319 -326.648,-456.57 -587.967,-585.753c-728.593,-272.392 -1294.78,-76.033 -1698.57,589.075c-265.01,606.053 -269.07,1213.58 -12.18,1822.59c132.874,273.869 336.245,477.24 610.113,610.114c737.451,267.224 1306.23,63.484 1706.32,-611.221c241.388,-610.482 235.482,-1218.75 -17.717,-1824.8Zm-550.32,1340.92c-6.643,34.695 -15.871,68.652 -27.682,101.87c-160.187,334.4 -419.291,453.987 -777.313,358.76c-215.551,-81.939 -345.472,-235.482 -389.764,-460.63c-25.098,-214.075 -29.527,-428.149 -13.287,-642.224c3.691,-35.433 6.275,-70.866 7.751,-106.299c20.669,-293.061 171.629,-481.669 452.879,-565.822c53.888,-14.764 108.514,-21.777 163.878,-21.039c363.927,39.863 560.285,242.126 589.075,606.792l1.107,7.751c25.098,239.911 22.884,480.192 -6.644,720.841Z" style="fill:#fff;fill-rule:nonzero;"/>
            <path d="M27749.7,52774.2l-847.072,-1379.67l803.888,-883.612l-931.226,-0l-534.818,566.929l1.108,-1416.22l-724.164,0l0,3114.79l723.056,0l0,-718.626l147.269,-148.376l571.358,865.895l790.601,-1.107Z" style="fill:#fff;fill-rule:nonzero;"/>
            <path d="M28166,52773.1l664.37,-0l0,-1351.99c20.67,-125.493 92.274,-204.479 214.813,-236.959c167.569,-19.931 276.452,50.197 326.649,210.384l0,1378.57l680.979,-0l0,-1334.28c15.502,-149.852 97.441,-237.328 245.817,-262.426c166.093,-0 264.641,81.57 295.645,244.71l0,1351.99l665.477,-0l-2.214,-1560.16c-51.673,-215.551 -166.093,-390.502 -343.258,-524.852c-386.811,-261.319 -748.524,-229.946 -1085.14,94.119c-7.382,-8.858 -15.133,-17.717 -23.253,-26.575c-310.039,-296.752 -639.641,-320.374 -988.804,-70.866l-77.51,-121.801l-573.573,-0l0,2210.14Z" style="fill:#fff;fill-rule:nonzero;"/>
            <g>
                <path d="M14217.6,29722.4c-317.422,566.929 -257.628,1091.04 179.379,1572.34c380.906,331.447 795.399,380.536 1243.48,147.269l36.54,97.441l654.405,-2.215l-1.108,-2945.37l-710.876,-0l-2.214,755.167c-254.675,-145.423 -521.9,-174.212 -801.673,-86.368c-250.985,87.106 -450.296,241.019 -597.933,461.737Zm1398.5,494.956c5.905,116.634 5.905,233.637 -0,351.009c-42.077,219.98 -173.475,349.163 -394.193,387.549c-274.607,5.167 -439.592,-126.23 -494.956,-394.193c-8.12,-115.157 -5.906,-229.577 6.644,-343.258c43.553,-203.002 166.83,-326.279 369.832,-369.832c273.13,-19.193 444.021,103.715 512.673,368.725Z" style="fill:#fff;fill-rule:nonzero;"/>
                <path d="M16647,30784.2c133.613,443.652 427.043,712.722 880.291,807.21c466.535,62.746 876.968,-60.901 1231.3,-370.94l-461.737,-465.059c-150.591,132.874 -326.28,204.847 -527.067,215.92c-226.624,5.906 -379.429,-97.441 -458.415,-310.039l1478.22,-0c36.909,-224.41 18.086,-443.652 -56.471,-657.727c-225.148,-564.714 -640.01,-814.96 -1244.59,-750.738l-9.966,2.215c-413.385,87.844 -687.623,331.447 -822.711,730.807l-2.215,6.644c-73.081,263.533 -75.295,527.436 -6.644,791.707Zm669.907,-647.761c42.077,-151.328 139.149,-248.4 291.216,-291.215c238.435,-33.219 396.407,63.853 473.917,291.215l-765.133,0Z" style="fill:#fff;fill-rule:nonzero;"/>
                <path d="M23087,29072.1c-0.523,-1.657 -1.133,-3.286 -1.826,-4.88c-185.282,-426.15 -542.268,-641.284 -1073.41,-641.284c-0,0 -79.725,0 -79.725,0c-1.24,0 -2.479,0.046 -3.716,0.139c-496.748,37.024 -820.397,275.122 -972.478,712.207c-21.701,43.552 -34.928,123.722 -34.928,241.198c0,222.686 100.292,415.419 304.065,576.298c-237.802,131.869 -357.214,347.035 -357.214,646.143c-0,21.994 0.791,43.204 2.362,63.628c1.53,19.9 3.821,42.097 6.882,66.589c0.013,0.104 0.026,0.208 0.04,0.312c55.819,424.84 302.502,695.849 741.701,811.511c90.164,39.22 231.371,60.223 424.015,60.223c147.008,0 287.883,-21.484 422.64,-64.361c134.219,-42.706 266.964,-108.184 398.132,-196.646c1.441,-0.972 2.831,-2.018 4.163,-3.135c212.361,-178.009 319.061,-413.559 319.061,-707.118l-0,-66.437c-0,-261.307 -113.864,-468.428 -343.517,-620.157c199.992,-134.375 299.226,-319.213 299.226,-553.563c-0,-96.03 -18.298,-202.952 -55.471,-320.667Zm-1490.3,1582.36l-0,-17.101c-0,-101.21 27.903,-181.214 86.835,-238.865c60.825,-59.503 152.551,-94.902 273.743,-109.767c15.828,-0.102 30.148,-0.989 42.966,-2.591c9.973,-1.247 21.195,-1.829 33.661,-1.829c214.63,0 361.267,79.834 437.204,244.183c0,0 0,42.432 0,42.432c0,125.082 -31.039,219.78 -98.141,282.321c-68.281,63.641 -171.496,92.875 -308.06,92.875l-48.72,0c-14.977,0 -29.953,-1.252 -44.93,-3.748c-2.716,-0.453 -5.466,-0.681 -8.22,-0.681l-13.287,0c-98.757,0 -178.145,-22.901 -237.27,-71.63c-58.252,-48.011 -95.982,-120.338 -115.781,-215.597l-0,-0.002Zm72.73,-1393.07c68.609,-97.732 171.12,-156.251 306.44,-177.403c12.841,-0.156 24.946,-1.069 36.316,-2.693c8.134,-1.162 16.852,-1.712 26.148,-1.712c180.922,0 305.84,84 375.028,251.602c-2.737,113.476 -31.211,199.755 -89.992,257.272c-60.643,59.339 -151.767,86.5 -271.749,86.5c-9.296,0 -18.013,-0.55 -26.147,-1.712c-11.994,-1.713 -24.806,-2.636 -38.439,-2.712c-110.876,-8.039 -194.825,-35.5 -250.402,-86.5c-53.167,-48.788 -77.925,-118.907 -77.925,-208.978c-0,-33.172 3.63,-71.055 10.722,-113.664l0,0Z" style="fill:#fff;fill-rule:nonzero;"/>
                <path d="M27531.5,31036.7c-58.317,1.476 -115.896,-4.429 -172.736,-17.717c-54.626,-22.884 -81.201,-64.222 -79.725,-124.015l0,-968.873c-8.12,-313.731 -160.925,-521.9 -458.415,-624.508c-549.213,-178.642 -1049.7,-88.214 -1501.48,271.284l331.077,528.174c86.368,-81.939 184.178,-146.899 293.43,-194.882c145.424,-66.437 297.122,-87.106 455.094,-62.007c35.433,8.12 68.652,21.038 99.655,38.754c38.386,22.146 63.116,54.626 74.188,97.441c2.215,18.455 -4.06,33.219 -18.823,44.292c-27.313,10.334 -55.365,17.716 -84.154,22.145l-594.611,102.978c-269.439,71.604 -456.57,236.589 -561.393,494.955c-86.368,420.768 66.437,720.104 458.416,898.007c344.734,118.849 661.417,66.806 950.049,-156.127c155.758,155.758 343.627,226.255 563.607,211.492l245.817,-561.393Zm-1470.47,-78.617c-28.79,-17.717 -49.459,-42.815 -62.008,-75.296c-22.884,-86.368 6.274,-148.745 87.475,-187.13c22.884,-9.597 46.506,-16.979 70.866,-22.146c137.303,-21.408 273.499,-47.244 408.588,-77.51l-1.108,231.422c-16.978,56.103 -51.304,97.81 -102.977,125.123c-132.874,64.961 -266.486,66.806 -400.836,5.537Z" style="fill:#fff;fill-rule:nonzero;"/>
                <path d="M29572.3,31539.4l2244.46,-0l-0,-662.156l-994.341,-0c140.256,-109.99 275.714,-225.517 406.373,-346.58c175.689,-138.041 325.173,-300.443 448.45,-487.204c260.581,-583.908 149.853,-1085.51 -332.185,-1504.8c-673.966,-373.523 -1263.41,-269.439 -1768.33,312.254c-103.347,247.294 -152.437,505.291 -147.269,773.991l741.88,0c0.738,-90.797 7.751,-180.856 21.038,-270.177c43.553,-191.929 161.294,-310.039 353.224,-354.33c266.486,-22.146 435.531,95.964 507.135,354.33c3.691,152.805 -33.587,294.907 -111.835,426.304c-149.853,164.617 -315.945,311.885 -498.278,441.806l-549.212,420.768c-78.987,59.793 -153.913,124.016 -224.779,192.668c-64.961,81.938 -97.072,174.95 -96.334,279.035l0,424.09Z" style="fill:#fff;fill-rule:nonzero;"/>
                <path d="M34981.4,29050.2c-130.659,-261.319 -326.649,-456.57 -587.967,-585.753c-728.593,-272.391 -1294.78,-76.033 -1698.57,589.075c-265.01,606.053 -269.07,1213.58 -12.18,1822.59c132.874,273.868 336.245,477.239 610.113,610.113c737.451,267.224 1306.23,63.484 1706.32,-611.221c241.387,-610.482 235.482,-1218.75 -17.717,-1824.8Zm-550.32,1340.92c-6.643,34.694 -15.871,68.651 -27.682,101.87c-160.187,334.399 -419.291,453.986 -777.313,358.759c-215.551,-81.938 -345.472,-235.482 -389.764,-460.629c-25.098,-214.075 -29.527,-428.15 -13.287,-642.225c3.691,-35.433 6.275,-70.866 7.751,-106.299c20.669,-293.061 171.629,-481.668 452.879,-565.822c53.888,-14.764 108.514,-21.776 163.878,-21.038c363.927,39.862 560.285,242.126 589.075,606.791l1.107,7.751c25.098,239.911 22.884,480.192 -6.644,720.842Z" style="fill:#fff;fill-rule:nonzero;"/>
                <path d="M39082.7,30009.1c-30.266,-274.607 -161.663,-486.467 -394.193,-635.581l-6.644,-4.429c-339.566,-189.715 -676.55,-186.024 -1010.95,11.073l1.107,-981.053l-702.018,-0l0,3135.83l3.322,5.537l698.696,-0l-0,-1332.06c31.004,-173.475 132.874,-275.714 305.61,-306.718c214.075,-5.167 343.258,97.072 387.549,306.718l0,1326.53l717.52,0l0,-1525.84Z" style="fill:#fff;fill-rule:nonzero;"/>
            </g>
            <g transform="matrix(1,0,0,1,12777.6,22537.4)">
                <g transform="matrix(4429.13,0,0,4429.13,742.417,4016.89)">
                    <path d="M0.58,-0.113c-0.013,0 -0.026,-0.001 -0.039,-0.004c-0.012,-0.005 -0.018,-0.015 -0.018,-0.028l0,-0.219c-0.002,-0.071 -0.036,-0.118 -0.103,-0.141c-0.124,-0.04 -0.237,-0.02 -0.339,0.061l0.074,0.119c0.02,-0.018 0.042,-0.033 0.067,-0.043c0.032,-0.016 0.067,-0.02 0.102,-0.015c0.008,0.002 0.016,0.005 0.023,0.009c0.008,0.005 0.014,0.013 0.017,0.022c0,0.004 -0.001,0.008 -0.005,0.01c-0.006,0.003 -0.012,0.004 -0.019,0.005l-0.134,0.023c-0.061,0.017 -0.103,0.054 -0.127,0.112c-0.019,0.095 0.015,0.163 0.104,0.203c0.078,0.027 0.149,0.015 0.214,-0.035c0.035,0.035 0.078,0.051 0.128,0.047l0.055,-0.126Zm-0.332,-0.018c-0.006,-0.004 -0.011,-0.01 -0.014,-0.017c-0.005,-0.02 0.001,-0.034 0.02,-0.042c0.005,-0.002 0.01,-0.004 0.016,-0.005c0.031,-0.005 0.062,-0.011 0.092,-0.018l-0,0.052c-0.004,0.013 -0.012,0.023 -0.023,0.029c-0.03,0.014 -0.061,0.015 -0.091,0.001Z" style="fill:#fff;fill-rule:nonzero;"/>
                </g>
                <g transform="matrix(4429.13,0,0,4429.13,4979.99,4016.89)">
                    <path d="M0.33,-0l-0,-0.709l-0.146,-0l0,0.031c-0.006,0.04 -0.029,0.063 -0.07,0.068l-0.064,0l-0,0.147l0.122,0l-0,0.463l0.158,-0Z" style="fill:#fff;fill-rule:nonzero;"/>
                </g>
                <g transform="matrix(4429.13,0,0,4429.13,6706.25,4016.89)">
                    <path d="M0.089,0.074c0.007,0 0.013,0 0.019,0c0.052,-0.003 0.089,-0.029 0.11,-0.076c0.007,-0.021 0.01,-0.043 0.008,-0.066c-0.009,-0.044 -0.036,-0.07 -0.08,-0.078c-0.046,-0.004 -0.077,0.015 -0.093,0.059c-0.002,0.006 -0.003,0.013 -0.003,0.019c0.003,0.038 0.023,0.06 0.061,0.064c0.002,0.001 0.003,0.003 0.004,0.005c0.001,0.004 -0.001,0.008 -0.005,0.01c-0.008,0.004 -0.017,0.007 -0.026,0.008l-0.001,0c-0.01,0.002 -0.015,0.008 -0.015,0.018c-0.001,0.009 0,0.017 0.003,0.026c0.004,0.007 0.01,0.011 0.018,0.011Z" style="fill:#fff;fill-rule:nonzero;"/>
                </g>
                <g transform="matrix(3283.46,0,0,3283.46,7976.3,4016.89)">
                    <path d="M0.05,-0.188c0.029,0.099 0.094,0.163 0.193,0.193c0.163,0.027 0.274,-0.037 0.331,-0.193c0.014,-0.057 0.011,-0.113 -0.01,-0.168c0,-0.001 0,-0.002 -0,-0.002c-0.073,-0.137 -0.184,-0.182 -0.332,-0.136l0.009,-0.066l0.306,-0l-0.001,-0.15l-0.443,0l-0.046,0.369l0.167,0.027l0.001,-0.002c0.009,-0.014 0.02,-0.025 0.034,-0.034c0.053,-0.026 0.098,-0.016 0.134,0.032c0.024,0.042 0.024,0.085 0.002,0.128c-0.017,0.024 -0.04,0.039 -0.069,0.044c-0.063,0.004 -0.103,-0.025 -0.119,-0.086l-0.157,0.044Z" style="fill:#fff;fill-rule:nonzero;"/>
                </g>
                <g transform="matrix(4429.13,0,0,4429.13,11590.2,4016.89)">
                    <path d="M0.554,-0l-0.191,-0.312l0.181,-0.199l-0.21,0l-0.121,0.128l0,-0.32l-0.163,0l-0,0.704l0.163,-0l0,-0.163l0.033,-0.033l0.129,0.195l0.179,0Z" style="fill:#fff;fill-rule:nonzero;"/>
                </g>
                <g transform="matrix(4429.13,0,0,4429.13,14238.8,4016.89)">
                    <path d="M0.05,-0l0.15,-0l0,-0.306c0.005,-0.028 0.021,-0.046 0.048,-0.053c0.038,-0.005 0.063,0.011 0.074,0.047l0,0.312l0.154,-0l0,-0.302c0.004,-0.033 0.022,-0.053 0.055,-0.059c0.038,0 0.06,0.019 0.067,0.055l0,0.306l0.15,-0l-0,-0.353c-0.012,-0.048 -0.038,-0.088 -0.078,-0.118c-0.087,-0.059 -0.169,-0.052 -0.245,0.021c-0.001,-0.002 -0.003,-0.004 -0.005,-0.006c-0.07,-0.067 -0.144,-0.072 -0.223,-0.016l-0.018,-0.027l-0.129,-0l-0,0.499Z" style="fill:#fff;fill-rule:nonzero;"/>
                </g>
            </g>
            <path d="M53391.4,27154.5l-2255.68,-1408.34l5640.25,-1130.36l-1130.36,5640.25l-1408.34,-2255.68l-3549.66,4056.76l-1352.97,-1352.97l4056.76,-3549.66Zm10.611,6.626l0.471,0.471l0.109,-0.109l-0.58,-0.362Zm828.163,828.163l0.471,0.471l-0.362,-0.58l-0.109,0.109Z" style="fill:#fff;"/>
            <path d="M54636,53155.7l-1727.24,399.442l2125.98,-3191.7l2125.98,3191.7l-1727.24,-399.442l239.048,3585.7l-1275.59,-0l239.048,-3585.7Zm8.125,-1.879l0.444,-0l0,-0.103l-0.444,0.103Zm780.8,-0l0.444,-0l-0.444,-0.103l-0,0.103Z" style="fill:#fff;"/>
            <g>
                <rect x="4736.05" y="24300.5" width="6377.95" height="6377.84" style="fill:#fff;"/>
                <path d="M7252.46,25257.8c-164.772,0 -155.669,155.785 -155.669,155.785l-0,274.812l-284.146,0c-146.452,0 -137.234,137.349 -137.234,137.349l0,1717.55l119.143,197.035l173.991,128.131l146.451,1548.05l-1352.52,0l0,311.569l4720.67,0l-0,-311.569l-1456.45,0l146.451,-1548.05l174.106,-128.131l119.027,-164.887l0,-1749.7c0,0 9.218,-137.349 -137.233,-137.349l-284.146,0l0,-274.812c0,0 9.218,-155.785 -155.669,-155.785c-0,-9.218 -1636.78,-9.218 -1636.78,0Z" style="fill:#1c1c20;fill-rule:nonzero;"/>
                <path d="M7252.46,25257.8c-164.772,0 -155.669,155.785 -155.669,155.785l-0,274.812l-284.146,0c-146.452,0 -137.234,137.349 -137.234,137.349l0,1717.55l119.143,197.035l173.991,128.131l146.451,1548.05l-1352.52,0l0,311.569l4720.67,0l-0,-311.569l-1456.45,0l146.451,-1548.05l174.106,-128.131l119.027,-164.887l0,-1749.7c0,0 9.218,-137.349 -137.233,-137.349l-284.146,0l0,-274.812c0,0 9.218,-155.785 -155.669,-155.785c-0,-9.218 -1636.78,-9.218 -1636.78,0Z" style="fill:none;fill-rule:nonzero;stroke:#1c1c20;stroke-width:10.42px;"/>
                <rect x="7087.8" y="26073.1" width="1966.44" height="1200.07" style="fill:#fff;"/>
                <rect x="7087.8" y="26073.1" width="1966.44" height="1200.07" style="fill:none;stroke:#1c1c20;stroke-width:10.42px;"/>
                <path d="M6695.34,27502.2l-494.547,1264.14c0,-0 -215.356,403.173 -572.554,233.561c-0,4.609 -371.026,-119.143 -229.068,-563.221c-4.609,-4.609 494.662,-1342.03 494.662,-1342.03l0,-274.812l274.812,-737.327l100.823,0c-0,0 137.348,-480.95 361.807,-462.745c4.494,-4.609 91.72,13.712 22.815,64.181c-0,-9.218 -293.018,146.566 -251.883,421.379c-4.609,-0 155.9,256.607 155.9,256.607l0,63.95l155.67,-0l-18.437,1076.32Z" style="fill:#1c1c20;fill-rule:nonzero;"/>
                <path d="M6695.34,27502.2l-494.547,1264.14c0,-0 -215.356,403.173 -572.554,233.561c-0,4.609 -371.026,-119.143 -229.068,-563.221c-4.609,-4.609 494.662,-1342.03 494.662,-1342.03l0,-274.812l274.812,-737.327l100.823,0c-0,0 137.348,-480.95 361.807,-462.745c4.494,-4.609 91.72,13.712 22.815,64.181c-0,-9.218 -293.018,146.566 -251.883,421.379c-4.609,-0 155.9,256.607 155.9,256.607l0,63.95l155.67,-0l-18.437,1076.32Z" style="fill:none;fill-rule:nonzero;stroke:#1c1c20;stroke-width:10.42px;"/>
                <path d="M6301.5,26815.1l-77.892,160.278l-96.098,73.399l-526.695,1451.84c0,0 -77.892,233.792 100.822,306.96c-9.218,4.494 201.645,96.213 293.133,-128.015c-9.218,-0 636.62,-1667.43 636.62,-1667.43c0,0 -86.995,-82.386 -73.168,-201.529c4.494,0 -100.822,0 -100.822,0c0,0 -141.957,86.995 -132.855,558.843c4.494,-4.609 -77.777,-0 -77.777,-0c0,-0 4.609,-430.367 119.028,-554.234l-64.296,0l0,-0.115Z" style="fill:#fff;"/>
                <path d="M6301.5,26815.1l-77.892,160.278l-96.098,73.399l-526.695,1451.84c0,0 -77.892,233.792 100.822,306.96c-9.218,4.494 201.645,96.213 293.133,-128.015c-9.218,-0 636.62,-1667.43 636.62,-1667.43c0,0 -86.995,-82.386 -73.168,-201.529c4.494,0 -100.822,0 -100.822,0c0,0 -141.957,86.995 -132.855,558.843c4.494,-4.609 -77.777,-0 -77.777,-0c0,-0 4.609,-430.367 119.028,-554.234l-64.296,0l0,-0.115Z" style="fill:none;fill-rule:nonzero;stroke:#1c1c20;stroke-width:10.42px;"/>
            </g>
            <g>
                <rect x="22696.8" y="35279.5" width="6378.07" height="6377.95" style="fill:#fff;"/>
                <path d="M26922.5,35991.2c81.35,0 76.28,66.026 76.28,66.026c0,-0 -4.954,442.819 0,442.819c0,56 -56,56 -56,56l-468.054,0l0,228.957c0,0 442.704,5.185 437.634,0c96.676,0 86.42,86.536 86.42,86.536c0,-0 0,264.562 0,259.492c0,96.791 -91.605,91.606 -91.605,91.606c-0,-0 -112.001,10.14 -112.001,-0c-356.168,-0 -320.563,340.958 -320.563,340.958l-0,707.381l162.816,162.816c0,0 0,2280.01 0,2275.05c0,81.351 -142.421,81.351 -142.421,81.351c-106.931,-0 -157.861,66.256 -152.676,66.256c-0,76.28 -147.607,91.605 -147.607,91.605c0,0 -147.606,-15.325 -147.606,-91.605c5.07,-0 -45.745,-66.256 -152.561,-66.256c0,-0 -142.536,-0 -142.536,-81.351c-0,4.955 -0,-2275.05 -0,-2275.05l162.816,-162.816l0,-707.381c0,-0 -25.35,-340.958 -417.354,-340.958l-676.846,-0c0,-0 -40.79,-0 -40.79,-56.001c-0,0 -0,-340.842 -0,-335.772c-0,-51.046 45.861,-45.861 45.861,-45.861c-5.186,5.185 1089.01,0 1089.01,0l-0,-228.957l-1099.15,0c0,0 -40.79,0 -40.79,-40.79c-5.185,-4.955 -0,-300.283 -0,-300.283c-0,-0 -0,-45.63 45.745,-45.63l580.17,-0l178.027,-178.142c0.115,0 1338.71,-5.07 1343.78,0Z" style="fill:#1c1c20;fill-rule:nonzero;"/>
                <path d="M26922.5,35991.2c81.35,0 76.28,66.026 76.28,66.026c0,-0 -4.954,442.819 0,442.819c0,56 -56,56 -56,56l-468.054,0l0,228.957c0,0 442.704,5.185 437.634,0c96.676,0 86.42,86.536 86.42,86.536c0,-0 0,264.562 0,259.492c0,96.791 -91.605,91.606 -91.605,91.606c-0,-0 -112.001,10.14 -112.001,-0c-356.168,-0 -320.563,340.958 -320.563,340.958l-0,707.381l162.816,162.816c0,0 0,2280.01 0,2275.05c0,81.351 -142.421,81.351 -142.421,81.351c-106.931,-0 -157.861,66.256 -152.676,66.256c-0,76.28 -147.607,91.605 -147.607,91.605c0,0 -147.606,-15.325 -147.606,-91.605c5.07,-0 -45.745,-66.256 -152.561,-66.256c0,-0 -142.536,-0 -142.536,-81.351c-0,4.955 -0,-2275.05 -0,-2275.05l162.816,-162.816l0,-707.381c0,-0 -25.35,-340.958 -417.354,-340.958l-676.846,-0c0,-0 -40.79,-0 -40.79,-56.001c-0,0 -0,-340.842 -0,-335.772c-0,-51.046 45.861,-45.861 45.861,-45.861c-5.186,5.185 1089.01,0 1089.01,0l-0,-228.957l-1099.15,0c0,0 -40.79,0 -40.79,-40.79c-5.185,-4.955 -0,-300.283 -0,-300.283c-0,-0 -0,-45.63 45.745,-45.63l580.17,-0l178.027,-178.142c0.115,0 1338.71,-5.07 1343.78,0Z" style="fill:none;fill-rule:nonzero;stroke:#1c1c20;stroke-width:11.59px;"/>
            </g>
            <g>
                <rect x="4736.05" y="35279.5" width="6377.95" height="6377.72" style="fill:#fff;"/>
                <path d="M9370.56,39947.2c335.875,428.861 -108.426,656.311 -108.426,656.311c-351.43,284.256 -609.876,-180.9 -609.876,-180.9l-677.167,-1322.88c-0,-0 -852.537,1379.91 -852.537,1374.5c-294.626,496.151 -676.937,180.9 -687.307,175.715c-403.166,-299.926 -5.185,-692.492 -5.185,-692.492c0,0 1188.53,-1410.91 1188.53,-1416.21c139.535,-160.045 -77.545,-160.045 -92.985,-175.6c-604.692,-129.165 -837.212,-496.036 -837.212,-490.851c-491.082,-651.357 -372.171,-1085.4 -372.171,-1085.4c155.09,-511.706 615.061,-351.431 609.991,-356.616c630.387,165.461 857.722,795.847 862.907,801.147c67.176,144.606 206.711,904.388 206.711,904.388c-0,-0 92.985,-124.211 165.461,-589.252c-0,10.485 5.069,-278.955 330.805,-666.797c5.07,0 134.236,-227.105 490.852,-439.116c-0,0 242.775,-108.54 139.65,103.24c-5.3,5.185 -465.156,682.237 -465.156,682.237c-0,0 -15.44,30.995 15.555,51.966c10.37,-0 30.88,15.325 61.99,-10.485c5.07,-10.371 485.897,-682.353 485.897,-682.353c-0,0 41.249,-61.99 118.795,-20.625c64.294,59.917 32.032,125.709 32.032,125.709c-0,0 -478.753,673.134 -486.934,681.546c-14.403,37.562 6.914,52.196 10.37,61.874c29.613,22.699 53.925,-2.074 53.925,-2.074c-0,0 490.505,-655.274 493.732,-661.957c166.612,-166.843 142.992,98.285 142.992,98.285c-84.113,406.162 -257.179,602.272 -255.566,607.227c-260.519,434.046 -512.628,624.279 -693.759,701.94c-5.07,4.954 -139.42,25.695 -211.665,165.345c-10.485,0 -139.65,216.85 -139.65,216.85c-0,0 1080.22,1390.63 1085.4,1385.33Z" style="fill:#1c1c20;fill-rule:nonzero;"/>
            </g>
            <g>
                <rect x="13716.4" y="35279.5" width="6378.07" height="6377.95" style="fill:#fff;"/>
                <path d="M18579.7,37687.1c123.294,0 223.311,100.133 223.311,223.311l0,502.277l-2734.69,-0l-0,-725.588l2511.38,0Z" style="fill:#1c1c20;fill-rule:nonzero;"/>
                <path d="M18579.7,37687.1c123.294,0 223.311,100.133 223.311,223.311l0,502.277l-2734.69,-0l-0,-725.588l2511.38,0Z" style="fill:none;fill-rule:nonzero;stroke:#1c1c20;stroke-width:11.17px;"/>
                <path d="M14896.3,38524.3l4018.44,-0l0,-613.817c0,-123.178 99.903,-223.311 223.196,-223.311c123.293,0 223.311,100.133 223.311,223.311l-0,1785.91l-446.507,-0l0,-669.817l-4018.44,-0l0,669.817l-446.391,-0l0,-2232.3c0,-123.408 99.903,-223.195 223.311,-223.195c123.294,-0 223.196,99.787 223.196,223.195l-0,1060.21l-0.116,-0Z" style="fill:#1c1c20;fill-rule:nonzero;"/>
                <path d="M14896.3,38524.3l4018.44,-0l0,-613.817c0,-123.178 99.903,-223.311 223.196,-223.311c123.293,0 223.311,100.133 223.311,223.311l-0,1785.91l-446.507,-0l0,-669.817l-4018.44,-0l0,669.817l-446.391,-0l0,-2232.3c0,-123.408 99.903,-223.195 223.311,-223.195c123.294,-0 223.196,99.787 223.196,223.195l-0,1060.21l-0.116,-0Z" style="fill:none;fill-rule:nonzero;stroke:#1c1c20;stroke-width:11.17px;"/>
                <path d="M15008,38412.7l0,-446.507c0,0 27.77,-279.081 474.391,-279.081c446.507,0 474.276,279.081 474.276,279.081l0,446.507l-948.667,-0Z" style="fill:#1c1c20;fill-rule:nonzero;"/>
                <path d="M15008,38412.7l0,-446.507c0,0 27.77,-279.081 474.391,-279.081c446.507,0 474.276,279.081 474.276,279.081l0,446.507l-948.667,-0Z" style="fill:none;fill-rule:nonzero;stroke:#1c1c20;stroke-width:11.17px;"/>
            </g>
        </g>
        <path d="M60481.7,4217.29c-0,-1642.71 -1333.67,-2976.38 -2976.38,-2976.38l-30083.5,-0c-1642.71,-0 -2976.38,1333.67 -2976.38,2976.38l0,3071.88c0,1642.71 1333.67,2976.38 2976.38,2976.38l30083.5,-0c1642.71,-0 2976.38,-1333.67 2976.38,-2976.38l-0,-3071.88Z" style="fill:none;stroke:#fff;stroke-width:850.39px;stroke-linecap:round;stroke-linejoin:round;stroke-miterlimit:1.5;"/>
        <path d="M22811.8,4217.29c0,-1642.71 -1333.67,-2976.38 -2976.38,-2976.38l-15566.8,-0c-1642.71,-0 -2976.38,1333.67 -2976.38,2976.38l0,3071.88c0,1642.71 1333.67,2976.38 2976.38,2976.38l15566.8,-0c1642.71,-0 2976.38,-1333.67 2976.38,-2976.38l0,-3071.88Z" style="fill:none;stroke:#fff;stroke-width:850.39px;stroke-linecap:round;stroke-linejoin:round;stroke-miterlimit:1.5;"/>
        <path d="M30229.8,2794.35l-741.622,-0l-1998.13,6285.13l2471.52,0l268.233,-6285.13Zm1672.25,1789.95l1760.88,-1164.06l-1414.49,-625.888l2575.33,-0l0,2699.41l-589.806,-1507.42l-1841.19,2141.55l938.352,2951.59l-2471.52,0l-268.233,-6285.13l741.622,-0l569.049,1789.95Z" style="fill:#fff;"/>
        <path d="M51083.6,7308.96l1.107,-3140.26l-643.331,0l-0,137.304c-28.052,178.641 -131.767,279.404 -311.147,302.288l-284.572,1.107l0,652.19l539.247,-1.107l0,2048.47l698.696,0Z" style="fill:#fff;fill-rule:nonzero;"/>
        <path d="M51600.7,5126.51l702.018,76.402c-2.214,-88.582 22.515,-169.045 74.188,-241.388c10.335,-11.811 21.408,-23.253 33.219,-34.325c259.104,-195.62 508.981,-184.548 749.631,33.218c2.952,4.429 5.536,9.228 7.751,14.395c67.913,175.689 21.776,313.361 -138.411,413.017c-37.648,13.287 -76.772,21.407 -117.372,24.36l-364.296,-0l-0,649.975l447.342,0c26.575,3.691 51.674,10.704 75.296,21.039c155.019,85.63 204.847,212.598 149.483,380.905c-41.339,70.128 -96.703,126.23 -166.093,168.307c-269.439,130.66 -493.11,76.034 -671.013,-163.878c-41.339,-65.699 -66.807,-136.934 -76.403,-213.705l-734.129,129.552c16.978,165.354 69.39,318.528 157.234,459.522c52.412,71.605 111.467,137.673 177.166,198.204c632.628,477.608 1242.74,449.557 1830.34,-84.153c235.483,-298.967 275.714,-622.294 120.694,-969.981c-71.604,-116.634 -165.723,-211.122 -282.357,-283.464c107.775,-68.652 193.774,-158.342 257.997,-269.07c201.525,-437.746 105.93,-796.506 -286.787,-1076.28c-641.486,-388.287 -1229.08,-319.266 -1762.8,207.062c-114.419,169.046 -175.32,355.807 -182.702,560.286Z" style="fill:#fff;fill-rule:nonzero;"/>
        <path d="M56821.5,6856.08l396.407,0l0,-686.515l-396.407,-0l-0,-2004.18l-896.9,-0l-1487.08,2068.41l-0,622.293l1648.75,0l-0,452.879l735.236,0l-0,-452.879Zm-735.236,-686.515l-812.746,-0l813.853,-1075.17l-1.107,1075.17Z" style="fill:#fff;fill-rule:nonzero;"/>
        <path d="M5396.65,7326.53l1.107,-3140.26l-643.332,-0l0,137.303c-28.051,178.642 -131.767,279.404 -311.147,302.288l-284.571,1.108l-0,652.189l539.247,-1.107l-0,2048.47l698.696,-0Z" style="fill:#fff;fill-rule:nonzero;"/>
        <path d="M8569.02,4839.57c-130.66,-261.319 -326.649,-456.57 -587.968,-585.753c-728.592,-272.392 -1294.78,-76.033 -1698.57,589.075c-265.01,606.053 -269.07,1213.58 -12.18,1822.59c132.874,273.868 336.245,477.24 610.113,610.114c737.451,267.224 1306.23,63.484 1706.32,-611.221c241.388,-610.482 235.482,-1218.75 -17.716,-1824.8Zm-550.32,1340.92c-6.644,34.695 -15.871,68.652 -27.682,101.87c-160.187,334.4 -419.292,453.987 -777.313,358.76c-215.551,-81.939 -345.473,-235.482 -389.764,-460.63c-25.098,-214.075 -29.528,-428.149 -13.287,-642.224c3.69,-35.433 6.274,-70.866 7.751,-106.299c20.669,-293.061 171.628,-481.669 452.878,-565.822c53.888,-14.764 108.514,-21.777 163.878,-21.039c363.928,39.863 560.286,242.126 589.075,606.792l1.107,7.751c25.099,239.911 22.884,480.192 -6.643,720.841Z" style="fill:#fff;fill-rule:nonzero;"/>
        <path d="M11739.2,4839.57c-130.659,-261.319 -326.648,-456.57 -587.967,-585.753c-728.593,-272.392 -1294.78,-76.033 -1698.57,589.075c-265.01,606.053 -269.07,1213.58 -12.18,1822.59c132.874,273.868 336.245,477.24 610.113,610.114c737.451,267.224 1306.23,63.484 1706.32,-611.221c241.388,-610.482 235.482,-1218.75 -17.717,-1824.8Zm-550.32,1340.92c-6.643,34.695 -15.871,68.652 -27.682,101.87c-160.187,334.4 -419.291,453.987 -777.313,358.76c-215.551,-81.939 -345.472,-235.482 -389.764,-460.63c-25.098,-214.075 -29.527,-428.149 -13.287,-642.224c3.691,-35.433 6.275,-70.866 7.751,-106.299c20.669,-293.061 171.629,-481.669 452.879,-565.822c53.888,-14.764 108.514,-21.777 163.878,-21.039c363.927,39.863 560.285,242.126 589.075,606.792l1.107,7.751c25.098,239.911 22.884,480.192 -6.644,720.841Z" style="fill:#fff;fill-rule:nonzero;"/>
        <path d="M14909.3,4839.57c-130.66,-261.319 -326.649,-456.57 -587.968,-585.753c-728.592,-272.392 -1294.78,-76.033 -1698.57,589.075c-265.009,606.053 -269.069,1213.58 -12.18,1822.59c132.874,273.868 336.245,477.24 610.114,610.114c737.45,267.224 1306.23,63.484 1706.32,-611.221c241.388,-610.482 235.483,-1218.75 -17.716,-1824.8Zm-550.32,1340.92c-6.644,34.695 -15.871,68.652 -27.682,101.87c-160.187,334.4 -419.292,453.987 -777.313,358.76c-215.551,-81.939 -345.473,-235.482 -389.764,-460.63c-25.098,-214.075 -29.528,-428.149 -13.287,-642.224c3.691,-35.433 6.274,-70.866 7.751,-106.299c20.669,-293.061 171.629,-481.669 452.879,-565.822c53.887,-14.764 108.513,-21.777 163.878,-21.039c363.927,39.863 560.285,242.126 589.074,606.792l1.108,7.751c25.098,239.911 22.883,480.192 -6.644,720.841Z" style="fill:#fff;fill-rule:nonzero;"/>
        <path d="M16898,7326.53l664.37,-0l-0,-1351.99c20.669,-125.493 92.274,-204.479 214.813,-236.959c167.569,-19.931 276.452,50.197 326.649,210.384l-0,1378.57l680.979,-0l-0,-1334.28c15.502,-149.852 97.441,-237.328 245.817,-262.426c166.092,-0 264.641,81.57 295.645,244.71l-0,1351.99l665.477,-0l-2.215,-1560.16c-51.673,-215.551 -166.092,-390.502 -343.258,-524.852c-386.811,-261.319 -748.523,-229.946 -1085.14,94.119c-7.382,-8.858 -15.133,-17.717 -23.253,-26.575c-310.04,-296.752 -639.641,-320.374 -988.804,-70.866l-77.51,-121.801l-573.573,-0l-0,2210.14Z" style="fill:#fff;fill-rule:nonzero;"/>
    </g>
</svg>
