<?xml version="1.0" encoding="UTF-8" standalone="no"?>
<!DOCTYPE svg PUBLIC "-//W3C//DTD SVG 1.1//EN" "http://www.w3.org/Graphics/SVG/1.1/DTD/svg11.dtd">
<svg width="100%" height="100%" viewBox="0 0 54369 52954" version="1.1" xmlns="http://www.w3.org/2000/svg" xmlns:xlink="http://www.w3.org/1999/xlink" xml:space="preserve" style="fill-rule:evenodd;clip-rule:evenodd;stroke-miterlimit:3.864;">
    <g id="g4799">
        <path d="M53070.2,4238.72c-0,-1642.71 -1333.67,-2976.38 -2976.38,-2976.38l-45876.8,0c-1642.71,0 -2976.38,1333.67 -2976.38,2976.38l-0,44446.2c-0,1642.71 1333.67,2976.38 2976.38,2976.38l45876.8,0c1642.71,0 2976.38,-1333.67 2976.38,-2976.38l-0,-44446.2Z" style="fill:#003fff;"/>
        <path d="M54133.2,4238.72c-0,-2229.39 -1809.98,-4039.37 -4039.37,-4039.37c-0,-0 -45876.8,-0 -45876.8,-0c-2229.39,-0 -4039.37,1809.98 -4039.37,4039.37l-0,44446.2c-0,2229.39 1809.98,4039.37 4039.37,4039.37c-0,-0 45876.8,-0 45876.8,-0c2229.39,-0 4039.37,-1809.98 4039.37,-4039.37l-0,-44446.2Zm-1062.99,-0c-0,-1642.71 -1333.67,-2976.38 -2976.38,-2976.38l-45876.8,0c-1642.71,0 -2976.38,1333.67 -2976.38,2976.38l-0,44446.2c-0,1642.71 1333.67,2976.38 2976.38,2976.38l45876.8,0c1642.71,0 2976.38,-1333.67 2976.38,-2976.38l-0,-44446.2Z"/>
        <path d="M53920.6,4238.72c0,-2112.05 -1714.72,-3826.77 -3826.77,-3826.77c-0,0 -45876.8,0 -45876.8,0c-2112.05,0 -3826.77,1714.72 -3826.77,3826.77l0,44446.2c0,2112.05 1714.72,3826.77 3826.77,3826.77c-0,0 45876.8,0 45876.8,0c2112.05,0 3826.77,-1714.72 3826.77,-3826.77l0,-44446.2Zm-850.393,-0c-0,-1642.71 -1333.67,-2976.38 -2976.38,-2976.38l-45876.8,0c-1642.71,0 -2976.38,1333.67 -2976.38,2976.38l-0,44446.2c-0,1642.71 1333.67,2976.38 2976.38,2976.38l45876.8,0c1642.71,0 2976.38,-1333.67 2976.38,-2976.38l-0,-44446.2Z" style="fill:#003fff;"/>
        <g>
            <rect x="4684.49" y="42063" width="6377.95" height="6377.84" style="fill:#fff;"/>
            <path d="M7200.89,43020.3c-164.772,-0 -155.669,155.784 -155.669,155.784l0,274.813l-284.146,-0c-146.451,-0 -137.233,137.349 -137.233,137.349l-0,1717.55l119.143,197.036l173.99,128.13l146.452,1548.05l-1352.52,-0l-0,311.569l4720.67,-0l0,-311.569l-1456.45,-0l146.452,-1548.05l174.105,-128.13l119.028,-164.888l-0,-1749.7c-0,-0 9.218,-137.349 -137.234,-137.349l-284.145,-0l-0,-274.813c-0,0 9.218,-155.784 -155.67,-155.784c0,-9.218 -1636.78,-9.218 -1636.78,-0Z" style="fill:#1c1c20;fill-rule:nonzero;"/>
            <path d="M7200.89,43020.3c-164.772,-0 -155.669,155.784 -155.669,155.784l0,274.813l-284.146,-0c-146.451,-0 -137.233,137.349 -137.233,137.349l-0,1717.55l119.143,197.036l173.99,128.13l146.452,1548.05l-1352.52,-0l-0,311.569l4720.67,-0l0,-311.569l-1456.45,-0l146.452,-1548.05l174.105,-128.13l119.028,-164.888l-0,-1749.7c-0,-0 9.218,-137.349 -137.234,-137.349l-284.145,-0l-0,-274.813c-0,0 9.218,-155.784 -155.67,-155.784c0,-9.218 -1636.78,-9.218 -1636.78,-0Z" style="fill:none;fill-rule:nonzero;stroke:#1c1c20;stroke-width:10.42px;"/>
            <rect x="7036.24" y="43835.7" width="1966.44" height="1200.07" style="fill:#fff;"/>
            <rect x="7036.24" y="43835.7" width="1966.44" height="1200.07" style="fill:none;stroke:#1c1c20;stroke-width:10.42px;"/>
            <path d="M6643.78,45264.7l-494.547,1264.14c-0,0 -215.356,403.174 -572.555,233.562c0,4.609 -371.025,-119.143 -229.068,-563.222c-4.609,-4.609 494.663,-1342.03 494.663,-1342.03l-0,-274.813l274.812,-737.326l100.822,-0c0,-0 137.349,-480.951 361.808,-462.745c4.493,-4.609 91.719,13.711 22.814,64.18c0,-9.218 -293.018,146.567 -251.882,421.379c-4.609,0 155.9,256.607 155.9,256.607l-0,63.95l155.669,0l-18.436,1076.32Z" style="fill:#1c1c20;fill-rule:nonzero;"/>
            <path d="M6643.78,45264.7l-494.547,1264.14c-0,0 -215.356,403.174 -572.555,233.562c0,4.609 -371.025,-119.143 -229.068,-563.222c-4.609,-4.609 494.663,-1342.03 494.663,-1342.03l-0,-274.813l274.812,-737.326l100.822,-0c0,-0 137.349,-480.951 361.808,-462.745c4.493,-4.609 91.719,13.711 22.814,64.18c0,-9.218 -293.018,146.567 -251.882,421.379c-4.609,0 155.9,256.607 155.9,256.607l-0,63.95l155.669,0l-18.436,1076.32Z" style="fill:none;fill-rule:nonzero;stroke:#1c1c20;stroke-width:10.42px;"/>
            <path d="M6249.94,44577.6l-77.893,160.279l-96.098,73.398l-526.695,1451.84c0,0 -77.892,233.793 100.823,306.961c-9.218,4.494 201.644,96.213 293.133,-128.016c-9.218,0 636.62,-1667.42 636.62,-1667.42c-0,-0 -86.995,-82.387 -73.168,-201.53c4.494,0 -100.822,0 -100.822,0c-0,0 -141.958,86.996 -132.855,558.843c4.494,-4.609 -77.777,0 -77.777,0c-0,0 4.609,-430.366 119.027,-554.234l-64.295,0l-0,-0.115Z" style="fill:#fff;"/>
            <path d="M6249.94,44577.6l-77.893,160.279l-96.098,73.398l-526.695,1451.84c0,0 -77.892,233.793 100.823,306.961c-9.218,4.494 201.644,96.213 293.133,-128.016c-9.218,0 636.62,-1667.42 636.62,-1667.42c-0,-0 -86.995,-82.387 -73.168,-201.53c4.494,0 -100.822,0 -100.822,0c-0,0 -141.958,86.996 -132.855,558.843c4.494,-4.609 -77.777,0 -77.777,0c-0,0 4.609,-430.366 119.027,-554.234l-64.295,0l-0,-0.115Z" style="fill:none;fill-rule:nonzero;stroke:#1c1c20;stroke-width:10.42px;"/>
        </g>
        <path d="M53070.2,48684.9c-0,1642.71 -1333.67,2976.38 -2976.38,2976.38l-45876.8,0c-1642.71,0 -2976.38,-1333.67 -2976.38,-2976.38l-0,-6865.87c-0,-1642.71 1333.67,-2976.38 2976.38,-2976.38l45876.8,-0c1642.71,-0 2976.38,1333.67 2976.38,2976.38l-0,6865.87Z" style="fill:none;stroke:#fff;stroke-width:850.39px;stroke-linecap:round;stroke-linejoin:round;stroke-miterlimit:1.5;"/>
        <path d="M53070.2,15001.1c-0,-1642.71 -1333.67,-2976.38 -2976.38,-2976.38l-45876.8,0c-1642.71,0 -2976.38,1333.67 -2976.38,2976.38l-0,19230.8c-0,1642.71 1333.67,2976.38 2976.38,2976.38l45876.8,-0c1642.71,-0 2976.38,-1333.67 2976.38,-2976.38l-0,-19230.8Z" style="fill:none;stroke:#fff;stroke-width:850.39px;stroke-linecap:round;stroke-linejoin:round;stroke-miterlimit:1.5;"/>
        <path d="M14166,47666.8c-317.421,566.929 -257.628,1091.04 179.38,1572.34c380.905,331.447 795.399,380.536 1243.48,147.268l36.541,97.441l654.404,-2.214l-1.107,-2945.37l-710.876,-0l-2.215,755.167c-254.675,-145.423 -521.899,-174.212 -801.673,-86.368c-250.984,87.106 -450.295,241.019 -597.933,461.737Zm1398.5,494.956c5.906,116.634 5.906,233.637 0,351.009c-42.077,219.98 -173.474,349.163 -394.193,387.549c-274.606,5.167 -439.591,-126.23 -494.956,-394.193c-8.12,-115.157 -5.905,-229.577 6.644,-343.258c43.553,-203.002 166.831,-326.279 369.833,-369.832c273.13,-19.193 444.02,103.715 512.672,368.725Z" style="fill:#fff;fill-rule:nonzero;"/>
        <path d="M16595.4,48728.7c133.612,443.652 427.042,712.722 880.29,807.21c466.536,62.746 876.969,-60.901 1231.3,-370.94l-461.738,-465.059c-150.59,132.874 -326.279,204.847 -527.067,215.92c-226.624,5.906 -379.429,-97.441 -458.415,-310.039l1478.22,-0c36.91,-224.41 18.086,-443.652 -56.471,-657.727c-225.148,-564.714 -640.01,-814.96 -1244.59,-750.738l-9.965,2.215c-413.386,87.844 -687.623,331.447 -822.712,730.807l-2.214,6.643c-73.081,263.534 -75.296,527.436 -6.644,791.708Zm669.906,-647.761c42.077,-151.328 139.149,-248.4 291.216,-291.215c238.435,-33.219 396.407,63.853 473.917,291.215l-765.133,0Z" style="fill:#fff;fill-rule:nonzero;"/>
        <path d="M23377.5,46994.7c-130.659,-261.319 -326.648,-456.57 -587.967,-585.753c-728.593,-272.391 -1294.78,-76.033 -1698.57,589.075c-265.01,606.053 -269.07,1213.58 -12.18,1822.59c132.874,273.868 336.245,477.239 610.113,610.113c737.451,267.224 1306.23,63.484 1706.32,-611.221c241.388,-610.482 235.482,-1218.75 -17.717,-1824.8Zm-550.32,1340.92c-6.643,34.695 -15.871,68.652 -27.682,101.871c-160.187,334.399 -419.291,453.986 -777.313,358.759c-215.551,-81.939 -345.472,-235.482 -389.764,-460.63c-25.098,-214.074 -29.527,-428.149 -13.287,-642.224c3.691,-35.433 6.275,-70.866 7.751,-106.299c20.669,-293.061 171.629,-481.668 452.879,-565.822c53.888,-14.764 108.514,-21.777 163.878,-21.038c363.927,39.862 560.285,242.126 589.075,606.791l1.107,7.751c25.098,239.911 22.884,480.192 -6.644,720.841Z" style="fill:#fff;fill-rule:nonzero;"/>
        <path d="M27713.6,48981.2c-58.317,1.476 -115.895,-4.429 -172.736,-17.717c-54.626,-22.884 -81.201,-64.222 -79.724,-124.016l-0,-968.873c-8.12,-313.73 -160.926,-521.899 -458.416,-624.507c-549.212,-178.642 -1049.7,-88.214 -1501.48,271.284l331.078,528.174c86.368,-81.939 184.178,-146.899 293.43,-194.882c145.423,-66.437 297.121,-87.106 455.093,-62.008c35.433,8.121 68.652,21.039 99.656,38.755c38.386,22.146 63.115,54.626 74.188,97.441c2.214,18.455 -4.06,33.219 -18.824,44.292c-27.313,10.334 -55.364,17.716 -84.154,22.145l-594.611,102.978c-269.439,71.604 -456.57,236.589 -561.393,494.955c-86.368,420.768 66.437,720.104 458.416,898.007c344.734,118.849 661.417,66.806 950.049,-156.127c155.758,155.758 343.627,226.255 563.607,211.491l245.817,-561.392Zm-1470.47,-78.617c-28.79,-17.717 -49.459,-42.815 -62.008,-75.296c-22.884,-86.368 6.275,-148.745 87.475,-187.131c22.884,-9.596 46.506,-16.978 70.866,-22.145c137.304,-21.408 273.499,-47.244 408.588,-77.51l-1.107,231.422c-16.979,56.103 -51.304,97.81 -102.978,125.123c-132.874,64.961 -266.486,66.806 -400.836,5.537Z" style="fill:#fff;fill-rule:nonzero;"/>
        <path d="M29754.3,49483.9l2244.46,0l0,-662.155l-994.34,-0c140.256,-109.99 275.713,-225.517 406.373,-346.58c175.689,-138.041 325.172,-300.443 448.45,-487.205c260.58,-583.907 149.852,-1085.51 -332.186,-1504.8c-673.966,-373.523 -1263.41,-269.439 -1768.33,312.254c-103.347,247.293 -152.436,505.291 -147.269,773.991l741.88,0c0.738,-90.797 7.751,-180.856 21.038,-270.177c43.554,-191.929 161.295,-310.039 353.224,-354.331c266.486,-22.145 435.531,95.965 507.136,354.331c3.691,152.805 -33.588,294.907 -111.836,426.304c-149.852,164.616 -315.945,311.885 -498.278,441.806l-549.212,420.768c-78.986,59.793 -153.913,124.016 -224.779,192.667c-64.96,81.939 -97.072,174.951 -96.333,279.036l-0,424.089Z" style="fill:#fff;fill-rule:nonzero;"/>
        <path d="M34863.4,49028.8l396.407,-0l0,-686.516l-396.407,0l-0,-2004.18l-896.9,0l-1487.08,2068.41l0,622.293l1648.75,-0l0,452.879l735.237,-0l-0,-452.879Zm-735.237,-686.516l-812.746,0l813.854,-1075.17l-1.108,1075.17Z" style="fill:#fff;fill-rule:nonzero;"/>
        <path d="M39362.2,47953.6c-30.265,-274.607 -161.663,-486.467 -394.193,-635.581l-6.643,-4.429c-339.567,-189.715 -676.551,-186.024 -1010.95,11.073l1.107,-981.053l-702.018,-0l0,3135.83l3.322,5.537l698.696,-0l0,-1332.06c31.004,-173.475 132.874,-275.714 305.61,-306.718c214.075,-5.167 343.258,97.072 387.55,306.718l-0,1326.53l717.519,0l0,-1525.84Z" style="fill:#fff;fill-rule:nonzero;"/>
        <path d="M16037.3,43997.1c-58.317,1.476 -115.896,-4.43 -172.736,-17.717c-54.626,-22.884 -81.201,-64.222 -79.725,-124.016l0,-968.873c-8.12,-313.73 -160.925,-521.899 -458.415,-624.508c-549.212,-178.641 -1049.7,-88.213 -1501.48,271.285l331.077,528.174c86.369,-81.939 184.179,-146.9 293.431,-194.882c145.423,-66.437 297.121,-87.106 455.093,-62.008c35.433,8.12 68.652,21.039 99.656,38.755c38.385,22.146 63.115,54.626 74.188,97.441c2.214,18.455 -4.06,33.219 -18.824,44.291c-27.313,10.335 -55.364,17.717 -84.154,22.146l-594.611,102.977c-269.439,71.605 -456.57,236.59 -561.393,494.956c-86.368,420.768 66.437,720.104 458.416,898.007c344.734,118.849 661.417,66.806 950.049,-156.127c155.758,155.758 343.627,226.255 563.607,211.491l245.817,-561.392Zm-1470.47,-78.618c-28.79,-17.716 -49.459,-42.815 -62.008,-75.295c-22.884,-86.368 6.274,-148.745 87.475,-187.131c22.884,-9.596 46.506,-16.978 70.866,-22.145c137.303,-21.408 273.499,-47.245 408.588,-77.51l-1.107,231.422c-16.979,56.102 -51.305,97.81 -102.978,125.123c-132.874,64.961 -266.486,66.806 -400.836,5.536Z" style="fill:#fff;fill-rule:nonzero;"/>
        <path d="M17956.2,42315.2l702.018,76.403c-2.215,-88.583 22.515,-169.046 74.188,-241.388c10.335,-11.811 21.408,-23.253 33.219,-34.326c259.104,-195.62 508.981,-184.547 749.63,33.218c2.953,4.43 5.537,9.228 7.751,14.395c67.914,175.689 21.777,313.361 -138.41,413.017c-37.648,13.287 -76.772,21.407 -117.372,24.36l-364.296,0l-0,649.975l447.342,0c26.575,3.691 51.673,10.704 75.295,21.039c155.02,85.63 204.848,212.598 149.484,380.905c-41.339,70.128 -96.703,126.231 -166.093,168.307c-269.439,130.66 -493.11,76.034 -671.014,-163.877c-41.338,-65.699 -66.806,-136.935 -76.402,-213.706l-734.129,129.552c16.978,165.354 69.39,318.529 157.234,459.523c52.412,71.604 111.467,137.672 177.166,198.203c632.628,477.609 1242.74,449.557 1830.34,-84.153c235.482,-298.967 275.714,-622.293 120.694,-969.981c-71.604,-116.633 -165.723,-211.122 -282.357,-283.464c107.775,-68.652 193.774,-158.342 257.997,-269.07c201.525,-437.746 105.93,-796.506 -286.787,-1076.28c-641.486,-388.288 -1229.08,-319.267 -1762.8,207.062c-114.419,169.045 -175.32,355.807 -182.702,560.285Z" style="fill:#fff;fill-rule:nonzero;"/>
        <path d="M23477.2,42010.7c-130.66,-261.319 -326.649,-456.57 -587.968,-585.753c-728.592,-272.392 -1294.78,-76.033 -1698.57,589.075c-265.01,606.053 -269.07,1213.58 -12.18,1822.59c132.874,273.869 336.245,477.24 610.113,610.114c737.451,267.224 1306.23,63.484 1706.32,-611.221c241.388,-610.482 235.483,-1218.75 -17.716,-1824.8Zm-550.32,1340.92c-6.644,34.695 -15.871,68.652 -27.682,101.87c-160.187,334.4 -419.292,453.987 -777.313,358.76c-215.551,-81.939 -345.473,-235.482 -389.764,-460.63c-25.098,-214.075 -29.528,-428.149 -13.287,-642.224c3.69,-35.433 6.274,-70.866 7.751,-106.299c20.669,-293.061 171.628,-481.669 452.878,-565.822c53.888,-14.764 108.514,-21.777 163.878,-21.039c363.928,39.863 560.286,242.126 589.075,606.792l1.108,7.751c25.098,239.911 22.883,480.192 -6.644,720.841Z" style="fill:#fff;fill-rule:nonzero;"/>
        <path d="M27698.1,44498.7l-847.072,-1379.67l803.888,-883.612l-931.225,-0l-534.818,566.929l1.107,-1416.22l-724.163,0l-0,3114.79l723.056,-0l-0,-718.627l147.269,-148.376l571.358,865.895l790.6,-1.107Z" style="fill:#fff;fill-rule:nonzero;"/>
        <path d="M28114.5,44497.6l664.37,-0l-0,-1351.99c20.669,-125.493 92.274,-204.479 214.813,-236.959c167.569,-19.931 276.452,50.197 326.649,210.384l-0,1378.57l680.979,-0l-0,-1334.28c15.502,-149.852 97.441,-237.328 245.817,-262.426c166.092,-0 264.641,81.57 295.644,244.71l0,1351.99l665.478,-0l-2.215,-1560.16c-51.673,-215.551 -166.092,-390.502 -343.258,-524.852c-386.811,-261.319 -748.523,-229.946 -1085.14,94.119c-7.382,-8.858 -15.133,-17.717 -23.253,-26.575c-310.04,-296.752 -639.641,-320.374 -988.804,-70.866l-77.51,-121.801l-573.573,-0l-0,2210.14Z" style="fill:#fff;fill-rule:nonzero;"/>
        <g>
            <path d="M14166,21446.9c-317.421,566.93 -257.628,1091.04 179.38,1572.34c380.905,331.447 795.399,380.536 1243.48,147.269l36.541,97.441l654.404,-2.215l-1.107,-2945.37l-710.876,-0l-2.215,755.167c-254.675,-145.423 -521.899,-174.212 -801.673,-86.368c-250.984,87.106 -450.295,241.019 -597.933,461.737Zm1398.5,494.956c5.906,116.634 5.906,233.637 0,351.009c-42.077,219.98 -173.474,349.163 -394.193,387.549c-274.606,5.167 -439.591,-126.23 -494.956,-394.193c-8.12,-115.157 -5.905,-229.577 6.644,-343.258c43.553,-203.002 166.831,-326.279 369.833,-369.832c273.13,-19.193 444.02,103.715 512.672,368.725Z" style="fill:#fff;fill-rule:nonzero;"/>
            <path d="M16595.4,22508.8c133.612,443.652 427.042,712.722 880.29,807.21c466.536,62.746 876.969,-60.901 1231.3,-370.94l-461.738,-465.059c-150.59,132.874 -326.279,204.847 -527.067,215.92c-226.624,5.906 -379.429,-97.441 -458.415,-310.039l1478.22,-0c36.91,-224.41 18.086,-443.652 -56.471,-657.727c-225.148,-564.714 -640.01,-814.96 -1244.59,-750.738l-9.965,2.215c-413.386,87.844 -687.623,331.447 -822.712,730.807l-2.214,6.644c-73.081,263.533 -75.296,527.436 -6.644,791.707Zm669.906,-647.761c42.077,-151.328 139.149,-248.4 291.216,-291.215c238.435,-33.219 396.407,63.853 473.917,291.215l-765.133,0Z" style="fill:#fff;fill-rule:nonzero;"/>
            <path d="M23035.4,20796.7c-0.524,-1.657 -1.133,-3.286 -1.826,-4.88c-185.283,-426.15 -542.269,-641.284 -1073.41,-641.284l-79.724,0c-1.24,0 -2.48,0.046 -3.716,0.139c-496.748,37.024 -820.397,275.122 -972.478,712.207c-21.701,43.552 -34.928,123.722 -34.928,241.198c-0,222.686 100.291,415.419 304.064,576.298c-237.802,131.869 -357.214,347.035 -357.214,646.143c0,21.995 0.791,43.204 2.362,63.628c1.531,19.9 3.821,42.097 6.883,66.589c0.013,0.104 0.026,0.208 0.04,0.312c55.818,424.84 302.502,695.849 741.701,811.511c90.164,39.22 231.37,60.223 424.014,60.223c147.008,0 287.884,-21.484 422.641,-64.361c134.218,-42.706 266.964,-108.184 398.131,-196.646c1.441,-0.972 2.831,-2.018 4.163,-3.135c212.362,-178.009 319.061,-413.559 319.061,-707.118c0,0 0,-66.437 0,-66.437c0,-261.307 -113.864,-468.428 -343.517,-620.157c199.992,-134.375 299.226,-319.213 299.226,-553.563c0,-96.03 -18.298,-202.952 -55.47,-320.667Zm-1490.3,1582.36l0,-17.101c0,-101.21 27.903,-181.214 86.835,-238.865c60.826,-59.503 152.552,-94.902 273.744,-109.767c15.827,-0.102 30.148,-0.989 42.966,-2.591c9.972,-1.247 21.194,-1.829 33.66,-1.829c214.63,0 361.267,79.834 437.205,244.183c-0,0 -0,42.432 -0,42.432c-0,125.082 -31.04,219.78 -98.141,282.321c-68.282,63.641 -171.496,92.875 -308.06,92.875l-48.721,0c-14.976,0 -29.952,-1.252 -44.929,-3.748c-2.717,-0.453 -5.466,-0.681 -8.22,-0.681l-13.288,0c-98.757,0 -178.145,-22.901 -237.269,-71.63c-58.253,-48.011 -95.983,-120.337 -115.781,-215.597l-0.001,-0.002Zm72.731,-1393.07c68.609,-97.732 171.12,-156.251 306.439,-177.403c12.842,-0.155 24.947,-1.069 36.317,-2.693c8.134,-1.162 16.851,-1.712 26.147,-1.712c180.922,0 305.84,84 375.028,251.602c-2.736,113.476 -31.211,199.755 -89.992,257.272c-60.643,59.339 -151.767,86.5 -271.748,86.5c-9.297,0 -18.014,-0.55 -26.148,-1.712c-11.994,-1.713 -24.806,-2.635 -38.439,-2.712c-110.876,-8.039 -194.825,-35.5 -250.402,-86.5c-53.166,-48.788 -77.925,-118.907 -77.925,-208.978c0,-33.172 3.631,-71.055 10.722,-113.664l0.001,0Z" style="fill:#fff;fill-rule:nonzero;"/>
            <path d="M27480,22761.2c-58.317,1.476 -115.895,-4.429 -172.736,-17.717c-54.626,-22.884 -81.201,-64.222 -79.724,-124.015l-0,-968.873c-8.12,-313.731 -160.925,-521.9 -458.416,-624.508c-549.212,-178.642 -1049.7,-88.214 -1501.48,271.284l331.078,528.174c86.368,-81.939 184.178,-146.899 293.43,-194.882c145.423,-66.437 297.121,-87.106 455.093,-62.007c35.433,8.12 68.652,21.038 99.656,38.754c38.386,22.146 63.115,54.626 74.188,97.441c2.214,18.455 -4.06,33.219 -18.824,44.292c-27.313,10.334 -55.364,17.716 -84.153,22.145l-594.612,102.978c-269.439,71.604 -456.57,236.589 -561.392,494.955c-86.368,420.768 66.437,720.104 458.415,898.007c344.734,118.849 661.417,66.806 950.049,-156.127c155.758,155.758 343.627,226.255 563.607,211.492l245.817,-561.393Zm-1470.47,-78.617c-28.789,-17.717 -49.459,-42.815 -62.008,-75.296c-22.884,-86.368 6.275,-148.745 87.475,-187.13c22.884,-9.597 46.506,-16.979 70.867,-22.146c137.303,-21.408 273.499,-47.244 408.587,-77.51l-1.107,231.422c-16.978,56.103 -51.304,97.81 -102.977,125.123c-132.874,64.961 -266.487,66.806 -400.837,5.537Z" style="fill:#fff;fill-rule:nonzero;"/>
            <path d="M29520.7,23263.9l2244.46,-0l0,-662.156l-994.34,0c140.256,-109.99 275.713,-225.517 406.373,-346.58c175.689,-138.041 325.172,-300.443 448.45,-487.204c260.58,-583.908 149.852,-1085.51 -332.185,-1504.8c-673.967,-373.523 -1263.41,-269.439 -1768.33,312.254c-103.346,247.294 -152.436,505.291 -147.269,773.991l741.88,0c0.738,-90.797 7.751,-180.856 21.039,-270.177c43.553,-191.929 161.294,-310.039 353.223,-354.33c266.486,-22.146 435.531,95.964 507.136,354.33c3.691,152.805 -33.588,294.907 -111.836,426.304c-149.852,164.617 -315.945,311.885 -498.277,441.806l-549.213,420.768c-78.986,59.794 -153.912,124.016 -224.779,192.668c-64.96,81.939 -97.071,174.95 -96.333,279.035l-0,424.09Z" style="fill:#fff;fill-rule:nonzero;"/>
            <path d="M34929.8,20774.8c-130.66,-261.319 -326.649,-456.57 -587.968,-585.753c-728.592,-272.391 -1294.78,-76.033 -1698.57,589.075c-265.01,606.053 -269.07,1213.58 -12.18,1822.59c132.874,273.868 336.245,477.239 610.113,610.113c737.451,267.224 1306.23,63.484 1706.32,-611.221c241.388,-610.482 235.482,-1218.75 -17.716,-1824.8Zm-550.32,1340.92c-6.644,34.694 -15.871,68.651 -27.682,101.87c-160.187,334.399 -419.292,453.986 -777.313,358.76c-215.552,-81.939 -345.473,-235.483 -389.764,-460.63c-25.099,-214.075 -29.528,-428.15 -13.288,-642.225c3.691,-35.433 6.275,-70.866 7.751,-106.299c20.67,-293.061 171.629,-481.668 452.879,-565.822c53.888,-14.764 108.514,-21.776 163.878,-21.038c363.927,39.862 560.286,242.126 589.075,606.791l1.107,7.751c25.099,239.911 22.884,480.192 -6.643,720.842Z" style="fill:#fff;fill-rule:nonzero;"/>
            <path d="M39031.2,21733.7c-30.266,-274.607 -161.664,-486.467 -394.193,-635.581l-6.644,-4.429c-339.567,-189.715 -676.55,-186.024 -1010.95,11.073l1.107,-981.053l-702.017,-0l-0,3135.83l3.322,5.537l698.695,-0l0,-1332.06c31.004,-173.475 132.874,-275.714 305.611,-306.718c214.074,-5.167 343.257,97.072 387.549,306.718l-0,1326.53l717.52,0l-0,-1525.84Z" style="fill:#fff;fill-rule:nonzero;"/>
        </g>
        <g transform="matrix(1,0,0,1,12726,14261.9)">
            <g transform="matrix(4429.13,0,0,4429.13,742.417,4016.89)">
                <path d="M0.58,-0.113c-0.013,0 -0.026,-0.001 -0.039,-0.004c-0.012,-0.005 -0.018,-0.015 -0.018,-0.028l0,-0.219c-0.002,-0.071 -0.036,-0.118 -0.103,-0.141c-0.124,-0.04 -0.237,-0.02 -0.339,0.061l0.074,0.119c0.02,-0.018 0.042,-0.033 0.067,-0.043c0.032,-0.016 0.067,-0.02 0.102,-0.015c0.008,0.002 0.016,0.005 0.023,0.009c0.008,0.005 0.014,0.013 0.017,0.022c0,0.004 -0.001,0.008 -0.005,0.01c-0.006,0.003 -0.012,0.004 -0.019,0.005l-0.134,0.023c-0.061,0.017 -0.103,0.054 -0.127,0.112c-0.019,0.095 0.015,0.163 0.104,0.203c0.078,0.027 0.149,0.015 0.214,-0.035c0.035,0.035 0.078,0.051 0.128,0.047l0.055,-0.126Zm-0.332,-0.018c-0.006,-0.004 -0.011,-0.01 -0.014,-0.017c-0.005,-0.02 0.001,-0.034 0.02,-0.042c0.005,-0.002 0.01,-0.004 0.016,-0.005c0.031,-0.005 0.062,-0.011 0.092,-0.018l-0,0.052c-0.004,0.013 -0.012,0.023 -0.023,0.029c-0.03,0.014 -0.061,0.015 -0.091,0.001Z" style="fill:#fff;fill-rule:nonzero;"/>
            </g>
            <g transform="matrix(4429.13,0,0,4429.13,4979.99,4016.89)">
                <path d="M0.33,-0l-0,-0.709l-0.146,-0l0,0.031c-0.006,0.04 -0.029,0.063 -0.07,0.068l-0.064,0l-0,0.147l0.122,0l-0,0.463l0.158,-0Z" style="fill:#fff;fill-rule:nonzero;"/>
            </g>
            <g transform="matrix(4429.13,0,0,4429.13,6706.25,4016.89)">
                <path d="M0.089,0.074c0.007,0 0.013,0 0.019,0c0.052,-0.003 0.089,-0.029 0.11,-0.076c0.007,-0.021 0.01,-0.043 0.008,-0.066c-0.009,-0.044 -0.036,-0.07 -0.08,-0.078c-0.046,-0.004 -0.077,0.015 -0.093,0.059c-0.002,0.006 -0.003,0.013 -0.003,0.019c0.003,0.038 0.023,0.06 0.061,0.064c0.002,0.001 0.003,0.003 0.004,0.005c0.001,0.004 -0.001,0.008 -0.005,0.01c-0.008,0.004 -0.017,0.007 -0.026,0.008l-0.001,0c-0.01,0.002 -0.015,0.008 -0.015,0.018c-0.001,0.009 0,0.017 0.003,0.026c0.004,0.007 0.01,0.011 0.018,0.011Z" style="fill:#fff;fill-rule:nonzero;"/>
            </g>
            <g transform="matrix(3283.46,0,0,3283.46,7976.3,4016.89)">
                <path d="M0.05,-0.188c0.029,0.099 0.094,0.163 0.193,0.193c0.163,0.027 0.274,-0.037 0.331,-0.193c0.014,-0.057 0.011,-0.113 -0.01,-0.168c0,-0.001 0,-0.002 -0,-0.002c-0.073,-0.137 -0.184,-0.182 -0.332,-0.136l0.009,-0.066l0.306,-0l-0.001,-0.15l-0.443,0l-0.046,0.369l0.167,0.027l0.001,-0.002c0.009,-0.014 0.02,-0.025 0.034,-0.034c0.053,-0.026 0.098,-0.016 0.134,0.032c0.024,0.042 0.024,0.085 0.002,0.128c-0.017,0.024 -0.04,0.039 -0.069,0.044c-0.063,0.004 -0.103,-0.025 -0.119,-0.086l-0.157,0.044Z" style="fill:#fff;fill-rule:nonzero;"/>
            </g>
            <g transform="matrix(4429.13,0,0,4429.13,11590.2,4016.89)">
                <path d="M0.554,-0l-0.191,-0.312l0.181,-0.199l-0.21,0l-0.121,0.128l0,-0.32l-0.163,0l-0,0.704l0.163,-0l0,-0.163l0.033,-0.033l0.129,0.195l0.179,0Z" style="fill:#fff;fill-rule:nonzero;"/>
            </g>
            <g transform="matrix(4429.13,0,0,4429.13,14238.8,4016.89)">
                <path d="M0.05,-0l0.15,-0l0,-0.306c0.005,-0.028 0.021,-0.046 0.048,-0.053c0.038,-0.005 0.063,0.011 0.074,0.047l0,0.312l0.154,-0l0,-0.302c0.004,-0.033 0.022,-0.053 0.055,-0.059c0.038,0 0.06,0.019 0.067,0.055l0,0.306l0.15,-0l-0,-0.353c-0.012,-0.048 -0.038,-0.088 -0.078,-0.118c-0.087,-0.059 -0.169,-0.052 -0.245,0.021c-0.001,-0.002 -0.003,-0.004 -0.005,-0.006c-0.07,-0.067 -0.144,-0.072 -0.223,-0.016l-0.018,-0.027l-0.129,-0l-0,0.499Z" style="fill:#fff;fill-rule:nonzero;"/>
            </g>
        </g>
        <path d="M46074.1,23533l-2067.71,-1290.98l5170.23,-1036.16l-1036.16,5170.23l-1290.98,-2067.71l-3253.86,3718.7l-1240.22,-1240.22l3718.7,-3253.86Zm9.727,6.073l0.432,0.432l0.099,-0.1l-0.531,-0.332Zm759.149,759.15l0.432,0.432l-0.332,-0.532l-0.1,0.1Z" style="fill:#fff;"/>
        <path d="M47224.6,44880.3l-1727.24,399.442l2125.98,-3191.7l2125.98,3191.7l-1727.24,-399.442l239.048,3585.7l-1275.59,-0l239.047,-3585.7Zm8.126,-1.879l0.444,-0l-0,-0.103l-0.444,0.103Zm780.8,-0l0.444,-0l-0.444,-0.103l-0,0.103Z" style="fill:#fff;"/>
        <g>
            <rect x="4684.49" y="16025" width="6377.95" height="6377.84" style="fill:#fff;"/>
            <path d="M7200.89,16982.3c-164.772,0 -155.669,155.785 -155.669,155.785l0,274.812l-284.146,0c-146.451,0 -137.233,137.349 -137.233,137.349l-0,1717.55l119.143,197.035l173.99,128.131l146.452,1548.05l-1352.52,0l-0,311.57l4720.67,-0l0,-311.57l-1456.45,0l146.452,-1548.05l174.105,-128.131l119.028,-164.887l-0,-1749.7c-0,0 9.218,-137.349 -137.234,-137.349l-284.145,0l-0,-274.812c-0,0 9.218,-155.785 -155.67,-155.785c0,-9.218 -1636.78,-9.218 -1636.78,0Z" style="fill:#1c1c20;fill-rule:nonzero;"/>
            <path d="M7200.89,16982.3c-164.772,0 -155.669,155.785 -155.669,155.785l0,274.812l-284.146,0c-146.451,0 -137.233,137.349 -137.233,137.349l-0,1717.55l119.143,197.035l173.99,128.131l146.452,1548.05l-1352.52,0l-0,311.57l4720.67,-0l0,-311.57l-1456.45,0l146.452,-1548.05l174.105,-128.131l119.028,-164.887l-0,-1749.7c-0,0 9.218,-137.349 -137.234,-137.349l-284.145,0l-0,-274.812c-0,0 9.218,-155.785 -155.67,-155.785c0,-9.218 -1636.78,-9.218 -1636.78,0Z" style="fill:none;fill-rule:nonzero;stroke:#1c1c20;stroke-width:10.42px;"/>
            <rect x="7036.24" y="17797.7" width="1966.44" height="1200.07" style="fill:#fff;"/>
            <rect x="7036.24" y="17797.7" width="1966.44" height="1200.07" style="fill:none;stroke:#1c1c20;stroke-width:10.42px;"/>
            <path d="M6643.78,19226.7l-494.547,1264.14c-0,-0 -215.356,403.173 -572.555,233.561c0,4.609 -371.025,-119.143 -229.068,-563.221c-4.609,-4.609 494.663,-1342.03 494.663,-1342.03l-0,-274.812l274.812,-737.327l100.822,0c0,0 137.349,-480.95 361.808,-462.745c4.493,-4.609 91.719,13.712 22.814,64.181c0,-9.218 -293.018,146.566 -251.882,421.379c-4.609,-0 155.9,256.607 155.9,256.607l-0,63.95l155.669,-0l-18.436,1076.32Z" style="fill:#1c1c20;fill-rule:nonzero;"/>
            <path d="M6643.78,19226.7l-494.547,1264.14c-0,-0 -215.356,403.173 -572.555,233.561c0,4.609 -371.025,-119.143 -229.068,-563.221c-4.609,-4.609 494.663,-1342.03 494.663,-1342.03l-0,-274.812l274.812,-737.327l100.822,0c0,0 137.349,-480.95 361.808,-462.745c4.493,-4.609 91.719,13.712 22.814,64.181c0,-9.218 -293.018,146.566 -251.882,421.379c-4.609,-0 155.9,256.607 155.9,256.607l-0,63.95l155.669,-0l-18.436,1076.32Z" style="fill:none;fill-rule:nonzero;stroke:#1c1c20;stroke-width:10.42px;"/>
            <path d="M6249.94,18539.6l-77.893,160.278l-96.098,73.399l-526.695,1451.84c0,0 -77.892,233.792 100.823,306.96c-9.218,4.494 201.644,96.213 293.133,-128.015c-9.218,-0 636.62,-1667.43 636.62,-1667.43c-0,0 -86.995,-82.386 -73.168,-201.529c4.494,0 -100.822,0 -100.822,0c-0,0 -141.958,86.995 -132.855,558.843c4.494,-4.609 -77.777,-0 -77.777,-0c-0,-0 4.609,-430.367 119.027,-554.234l-64.295,0l-0,-0.115Z" style="fill:#fff;"/>
            <path d="M6249.94,18539.6l-77.893,160.278l-96.098,73.399l-526.695,1451.84c0,0 -77.892,233.792 100.823,306.96c-9.218,4.494 201.644,96.213 293.133,-128.015c-9.218,-0 636.62,-1667.43 636.62,-1667.43c-0,0 -86.995,-82.386 -73.168,-201.529c4.494,0 -100.822,0 -100.822,0c-0,0 -141.958,86.995 -132.855,558.843c4.494,-4.609 -77.777,-0 -77.777,-0c-0,-0 4.609,-430.367 119.027,-554.234l-64.295,0l-0,-0.115Z" style="fill:none;fill-rule:nonzero;stroke:#1c1c20;stroke-width:10.42px;"/>
        </g>
        <g>
            <rect x="22645.3" y="27004" width="6378.07" height="6377.95" style="fill:#fff;"/>
            <path d="M26870.9,27715.8c81.351,0 76.281,66.026 76.281,66.026c-0,-0 -4.955,442.819 -0,442.819c-0,56 -56.001,56 -56.001,56l-468.053,0l-0,228.957c-0,0 442.703,5.185 437.633,0c96.676,0 86.421,86.536 86.421,86.536c-0,-0 -0,264.562 -0,259.492c-0,96.791 -91.606,91.606 -91.606,91.606c0,-0 -112.001,10.14 -112.001,-0c-356.168,-0 -320.563,340.958 -320.563,340.958l0,707.381l162.817,162.816c-0,0 -0,2280.01 -0,2275.05c-0,81.351 -142.421,81.351 -142.421,81.351c-106.931,-0 -157.862,66.256 -152.677,66.256c0,76.28 -147.606,91.605 -147.606,91.605c-0,0 -147.606,-15.325 -147.606,-91.605c5.07,-0 -45.746,-66.256 -152.562,-66.256c0,-0 -142.536,-0 -142.536,-81.351c0,4.955 0,-2275.05 0,-2275.05l162.817,-162.816l-0,-707.381c-0,-0 -25.351,-340.958 -417.354,-340.958l-676.846,-0c-0,-0 -40.791,-0 -40.791,-56.001c0,0 0,-340.842 0,-335.772c0,-51.046 45.861,-45.861 45.861,-45.861c-5.185,5.185 1089.01,0 1089.01,0l0,-228.957l-1099.15,0c-0,0 -40.791,0 -40.791,-40.79c-5.185,-4.955 0,-300.283 0,-300.283c0,0 0,-45.63 45.746,-45.63l580.17,-0l178.026,-178.142c0.115,0 1338.71,-5.07 1343.78,0Z" style="fill:#1c1c20;fill-rule:nonzero;"/>
            <path d="M26870.9,27715.8c81.351,0 76.281,66.026 76.281,66.026c-0,-0 -4.955,442.819 -0,442.819c-0,56 -56.001,56 -56.001,56l-468.053,0l-0,228.957c-0,0 442.703,5.185 437.633,0c96.676,0 86.421,86.536 86.421,86.536c-0,-0 -0,264.562 -0,259.492c-0,96.791 -91.606,91.606 -91.606,91.606c0,-0 -112.001,10.14 -112.001,-0c-356.168,-0 -320.563,340.958 -320.563,340.958l0,707.381l162.817,162.816c-0,0 -0,2280.01 -0,2275.05c-0,81.351 -142.421,81.351 -142.421,81.351c-106.931,-0 -157.862,66.256 -152.677,66.256c0,76.28 -147.606,91.605 -147.606,91.605c-0,0 -147.606,-15.325 -147.606,-91.605c5.07,-0 -45.746,-66.256 -152.562,-66.256c0,-0 -142.536,-0 -142.536,-81.351c0,4.955 0,-2275.05 0,-2275.05l162.817,-162.816l-0,-707.381c-0,-0 -25.351,-340.958 -417.354,-340.958l-676.846,-0c-0,-0 -40.791,-0 -40.791,-56.001c0,0 0,-340.842 0,-335.772c0,-51.046 45.861,-45.861 45.861,-45.861c-5.185,5.185 1089.01,0 1089.01,0l0,-228.957l-1099.15,0c-0,0 -40.791,0 -40.791,-40.79c-5.185,-4.955 0,-300.283 0,-300.283c0,0 0,-45.63 45.746,-45.63l580.17,-0l178.026,-178.142c0.115,0 1338.71,-5.07 1343.78,0Z" style="fill:none;fill-rule:nonzero;stroke:#1c1c20;stroke-width:11.59px;"/>
        </g>
        <g>
            <rect x="4684.49" y="27004" width="6377.95" height="6377.72" style="fill:#fff;"/>
            <path d="M9319,31671.7c335.876,428.861 -108.425,656.311 -108.425,656.311c-351.431,284.256 -609.877,-180.9 -609.877,-180.9l-677.167,-1322.88c0,-0 -852.537,1379.91 -852.537,1374.5c-294.625,496.151 -676.936,180.9 -687.306,175.715c-403.167,-299.926 -5.185,-692.492 -5.185,-692.492c-0,0 1188.53,-1410.91 1188.53,-1416.21c139.536,-160.045 -77.545,-160.045 -92.985,-175.6c-604.691,-129.165 -837.212,-496.036 -837.212,-490.851c-491.081,-651.357 -372.171,-1085.4 -372.171,-1085.4c155.091,-511.706 615.062,-351.431 609.992,-356.616c630.386,165.461 857.722,795.847 862.907,801.147c67.175,144.606 206.71,904.388 206.71,904.388c0,-0 92.986,-124.211 165.461,-589.252c-0,10.485 5.07,-278.955 330.806,-666.797c5.07,0 134.235,-227.105 490.851,-439.116c0,0 242.775,-108.54 139.651,103.24c-5.301,5.185 -465.157,682.237 -465.157,682.237c0,0 -15.44,30.995 15.555,51.966c10.371,-0 30.88,15.325 61.991,-10.485c5.069,-10.371 485.896,-682.353 485.896,-682.353c0,0 41.25,-61.99 118.795,-20.625c64.295,59.917 32.032,125.709 32.032,125.709c0,0 -478.752,673.134 -486.933,681.546c-14.403,37.562 6.913,52.196 10.37,61.874c29.612,22.699 53.924,-2.074 53.924,-2.074c0,0 490.506,-655.274 493.732,-661.957c166.613,-166.843 142.992,98.285 142.992,98.285c-84.113,406.162 -257.178,602.272 -255.565,607.227c-260.52,434.046 -512.628,624.279 -693.759,701.94c-5.07,4.955 -139.42,25.695 -211.665,165.345c-10.486,0 -139.651,216.85 -139.651,216.85c-0,0 1080.22,1390.63 1085.4,1385.33Z" style="fill:#1c1c20;fill-rule:nonzero;"/>
        </g>
        <g>
            <rect x="13664.9" y="27004" width="6378.07" height="6377.95" style="fill:#fff;"/>
            <path d="M18528.2,29411.7c123.293,0 223.31,100.133 223.31,223.311l0,502.277l-2734.69,-0l0,-725.588l2511.38,0Z" style="fill:#1c1c20;fill-rule:nonzero;"/>
            <path d="M18528.2,29411.7c123.293,0 223.31,100.133 223.31,223.311l0,502.277l-2734.69,-0l0,-725.588l2511.38,0Z" style="fill:none;fill-rule:nonzero;stroke:#1c1c20;stroke-width:11.17px;"/>
            <path d="M14844.7,30248.8l4018.44,-0l-0,-613.817c-0,-123.178 99.902,-223.311 223.195,-223.311c123.294,0 223.311,100.133 223.311,223.311l0,1785.91l-446.506,-0l-0,-669.817l-4018.44,-0l-0,669.817l-446.391,-0l-0,-2232.3c-0,-123.408 99.902,-223.195 223.311,-223.195c123.293,-0 223.195,99.787 223.195,223.195l0,1060.21l-0.115,-0Z" style="fill:#1c1c20;fill-rule:nonzero;"/>
            <path d="M14844.7,30248.8l4018.44,-0l-0,-613.817c-0,-123.178 99.902,-223.311 223.195,-223.311c123.294,0 223.311,100.133 223.311,223.311l0,1785.91l-446.506,-0l-0,-669.817l-4018.44,-0l-0,669.817l-446.391,-0l-0,-2232.3c-0,-123.408 99.902,-223.195 223.311,-223.195c123.293,-0 223.195,99.787 223.195,223.195l0,1060.21l-0.115,-0Z" style="fill:none;fill-rule:nonzero;stroke:#1c1c20;stroke-width:11.17px;"/>
            <path d="M14956.5,30137.3l-0,-446.507c-0,0 27.769,-279.081 474.391,-279.081c446.506,0 474.276,279.081 474.276,279.081l-0,446.507l-948.667,-0Z" style="fill:#1c1c20;fill-rule:nonzero;"/>
            <path d="M14956.5,30137.3l-0,-446.507c-0,0 27.769,-279.081 474.391,-279.081c446.506,0 474.276,279.081 474.276,279.081l-0,446.507l-948.667,-0Z" style="fill:none;fill-rule:nonzero;stroke:#1c1c20;stroke-width:11.17px;"/>
        </g>
        <path d="M53070.2,4238.72c-0,-1642.71 -1333.67,-2976.38 -2976.38,-2976.38l-24296.2,0c-1642.71,0 -2976.38,1333.67 -2976.38,2976.38l0,3071.88c0,1642.71 1333.67,2976.38 2976.38,2976.38l24296.2,-0c1642.71,-0 2976.38,-1333.67 2976.38,-2976.38l-0,-3071.88Z" style="fill:none;stroke:#fff;stroke-width:850.39px;stroke-linecap:round;stroke-linejoin:round;stroke-miterlimit:1.5;"/>
        <path d="M21130.5,4238.72c0,-1642.71 -1333.67,-2976.38 -2976.38,-2976.38l-13937.1,0c-1642.71,0 -2976.38,1333.67 -2976.38,2976.38l-0,3071.88c-0,1642.71 1333.67,2976.38 2976.38,2976.38l13937.1,-0c1642.71,-0 2976.38,-1333.67 2976.38,-2976.38l0,-3071.88Z" style="fill:none;stroke:#fff;stroke-width:850.39px;stroke-linecap:round;stroke-linejoin:round;stroke-miterlimit:1.5;"/>
        <path d="M28628.8,2815.78l-741.622,0l-1998.13,6285.13l2471.52,-0l268.233,-6285.13Zm1672.25,1789.95l1760.88,-1164.06l-1414.49,-625.888l2575.33,0l0,2699.41l-589.806,-1507.42l-1841.19,2141.55l938.352,2951.59l-2471.52,-0l-268.232,-6285.13l741.621,0l569.049,1789.95Z" style="fill:#fff;"/>
        <path d="M43672.1,7330.4l1.107,-3140.26l-643.332,-0l0,137.303c-28.051,178.642 -131.766,279.404 -311.146,302.288l-284.572,1.108l-0,652.19l539.247,-1.108l-0,2048.47l698.696,-0Z" style="fill:#fff;fill-rule:nonzero;"/>
        <path d="M44189.2,5147.94l702.018,76.403c-2.215,-88.583 22.515,-169.046 74.188,-241.388c10.335,-11.811 21.407,-23.253 33.218,-34.326c259.105,-195.62 508.982,-184.547 749.631,33.218c2.953,4.43 5.537,9.228 7.751,14.395c67.914,175.689 21.777,313.361 -138.41,413.017c-37.648,13.287 -76.772,21.407 -117.372,24.36l-364.296,0l-0,649.976l447.342,-0c26.575,3.69 51.673,10.703 75.295,21.038c155.02,85.63 204.848,212.598 149.484,380.905c-41.339,70.128 -96.703,126.231 -166.093,168.308c-269.439,130.659 -493.11,76.033 -671.014,-163.878c-41.338,-65.699 -66.806,-136.935 -76.402,-213.706l-734.129,129.552c16.978,165.354 69.39,318.529 157.234,459.523c52.411,71.604 111.467,137.672 177.165,198.203c632.628,477.609 1242.74,449.557 1830.34,-84.153c235.482,-298.967 275.714,-622.293 120.694,-969.98c-71.604,-116.634 -165.724,-211.123 -282.357,-283.465c107.775,-68.652 193.774,-158.342 257.997,-269.07c201.525,-437.746 105.93,-796.506 -286.787,-1076.28c-641.486,-388.288 -1229.08,-319.267 -1762.8,207.062c-114.419,169.045 -175.32,355.807 -182.702,560.285Z" style="fill:#fff;fill-rule:nonzero;"/>
        <path d="M49410.1,6877.52l396.407,-0l0,-686.516l-396.407,0l-0,-2004.18l-896.9,-0l-1487.08,2068.41l0,622.294l1648.75,-0l-0,452.879l735.236,-0l-0,-452.879Zm-735.236,-686.516l-812.747,0l813.854,-1075.17l-1.107,1075.17Z" style="fill:#fff;fill-rule:nonzero;"/>
        <path d="M4107.14,6517.5c130.66,437.746 415.231,722.318 853.716,853.716c724.163,121.063 1212.84,-163.14 1466.04,-852.608c64.961,-253.937 51.304,-503.445 -40.97,-748.524c-0.738,-2.215 -1.845,-4.798 -3.321,-7.751c-323.327,-606.053 -812.746,-806.471 -1468.26,-601.255l37.647,-293.43l1355.32,-0l-1.107,-663.263l-1962.11,0l-205.955,1633.24l738.558,120.694l7.751,-8.858c36.91,-62.746 85.999,-112.943 147.269,-150.591c237.697,-117.372 436.269,-70.128 595.718,141.733c104.085,186.761 107.038,375.738 8.859,566.929c-75.296,107.037 -177.535,171.629 -306.718,193.774c-280.512,18.455 -455.832,-108.144 -525.96,-379.798l-696.481,195.989Z" style="fill:#fff;fill-rule:nonzero;"/>
        <path d="M9639.13,4861c-130.659,-261.319 -326.648,-456.57 -587.967,-585.753c-728.593,-272.391 -1294.78,-76.033 -1698.57,589.075c-265.01,606.053 -269.07,1213.58 -12.18,1822.59c132.874,273.868 336.245,477.239 610.113,610.113c737.451,267.224 1306.23,63.484 1706.32,-611.221c241.388,-610.482 235.482,-1218.75 -17.717,-1824.8Zm-550.32,1340.92c-6.643,34.694 -15.871,68.651 -27.682,101.87c-160.187,334.399 -419.291,453.986 -777.313,358.759c-215.551,-81.939 -345.472,-235.482 -389.763,-460.629c-25.099,-214.075 -29.528,-428.15 -13.288,-642.225c3.691,-35.433 6.275,-70.866 7.751,-106.299c20.669,-293.061 171.629,-481.668 452.879,-565.822c53.888,-14.764 108.514,-21.777 163.878,-21.038c363.927,39.862 560.285,242.126 589.075,606.791l1.107,7.751c25.099,239.911 22.884,480.192 -6.644,720.842Z" style="fill:#fff;fill-rule:nonzero;"/>
        <path d="M12809.3,4861c-130.66,-261.319 -326.649,-456.57 -587.968,-585.753c-728.592,-272.391 -1294.78,-76.033 -1698.57,589.075c-265.009,606.053 -269.069,1213.58 -12.18,1822.59c132.874,273.868 336.245,477.239 610.114,610.113c737.45,267.224 1306.23,63.484 1706.32,-611.221c241.388,-610.482 235.483,-1218.75 -17.716,-1824.8Zm-550.32,1340.92c-6.644,34.694 -15.871,68.651 -27.682,101.87c-160.187,334.399 -419.291,453.986 -777.313,358.759c-215.551,-81.939 -345.473,-235.482 -389.764,-460.629c-25.098,-214.075 -29.527,-428.15 -13.287,-642.225c3.691,-35.433 6.274,-70.866 7.751,-106.299c20.669,-293.061 171.629,-481.668 452.879,-565.822c53.887,-14.764 108.513,-21.777 163.878,-21.038c363.927,39.862 560.285,242.126 589.074,606.791l1.108,7.751c25.098,239.911 22.884,480.192 -6.644,720.842Z" style="fill:#fff;fill-rule:nonzero;"/>
        <path d="M14798,7347.96l664.37,-0l0,-1351.99c20.669,-125.492 92.274,-204.479 214.813,-236.959c167.569,-19.931 276.452,50.197 326.649,210.384l-0,1378.57l680.979,-0l-0,-1334.28c15.502,-149.852 97.441,-237.327 245.817,-262.426c166.092,0 264.641,81.57 295.645,244.71l-0,1351.99l665.477,-0l-2.215,-1560.16c-51.673,-215.552 -166.092,-390.502 -343.257,-524.853c-386.812,-261.319 -748.524,-229.946 -1085.14,94.119c-7.382,-8.858 -15.133,-17.716 -23.253,-26.575c-310.04,-296.752 -639.641,-320.374 -988.804,-70.866l-77.51,-121.801l-573.573,0l-0,2210.14Z" style="fill:#fff;fill-rule:nonzero;"/>
    </g>
</svg>
