<?xml version="1.0" encoding="UTF-8" standalone="no"?>
<!DOCTYPE svg PUBLIC "-//W3C//DTD SVG 1.1//EN" "http://www.w3.org/Graphics/SVG/1.1/DTD/svg11.dtd">
<svg width="100%" height="100%" viewBox="0 0 45052 32731" version="1.1" xmlns="http://www.w3.org/2000/svg" xmlns:xlink="http://www.w3.org/1999/xlink" xml:space="preserve" style="fill-rule:evenodd;clip-rule:evenodd;stroke-linecap:round;stroke-linejoin:round;stroke-miterlimit:1.5;">
    <g id="g4799">
        <path d="M44047.1,9333.23c0,-1232.03 -1000.25,-2232.28 -2232.28,-2232.28l-38738.9,0c-1232.03,0 -2232.28,1000.25 -2232.28,2232.28l0,20156.6c0,1232.03 1000.25,2232.28 2232.28,2232.28l38738.9,0c1232.03,0 2232.28,-1000.25 2232.28,-2232.28l0,-20156.6Z" style="fill:#fff;"/>
        <path d="M44814.9,9333.23c-0,-1655.75 -1344.26,-3000 -3000,-3000l-38738.9,-0c-1655.75,-0 -3000,1344.26 -3000,3000c-0,-0 -0,20156.6 -0,20156.6c-0,1655.75 1344.26,3000 3000,3000l38738.9,-0c1655.75,-0 3000,-1344.26 3000,-3000l-0,-20156.6Zm-767.717,-0c0,-1232.03 -1000.25,-2232.28 -2232.28,-2232.28l-38738.9,0c-1232.03,0 -2232.28,1000.25 -2232.28,2232.28l0,20156.6c0,1232.03 1000.25,2232.28 2232.28,2232.28l38738.9,0c1232.03,0 2232.28,-1000.25 2232.28,-2232.28l0,-20156.6Z"/>
        <path d="M44684.9,9333.23c0,-1584.04 -1286.04,-2870.08 -2870.08,-2870.08l-38738.9,0c-1584.04,0 -2870.08,1286.04 -2870.08,2870.08c0,-0 0,20156.6 0,20156.6c0,1584.04 1286.04,2870.08 2870.08,2870.08l38738.9,-0c1584.04,-0 2870.08,-1286.04 2870.08,-2870.08l0,-20156.6Zm-637.795,-0c0,-1232.03 -1000.25,-2232.28 -2232.28,-2232.28l-38738.9,0c-1232.03,0 -2232.28,1000.25 -2232.28,2232.28l0,20156.6c0,1232.03 1000.25,2232.28 2232.28,2232.28l38738.9,0c1232.03,0 2232.28,-1000.25 2232.28,-2232.28l0,-20156.6Z" style="fill:#fff;"/>
        <g>
            <path d="M29096.1,2356.32c0,-924.023 -750.19,-1674.21 -1674.21,-1674.21l-9926.58,0c-924.023,0 -1674.21,750.19 -1674.21,1674.21l0,1721.66c0,924.023 750.19,1674.21 1674.21,1674.21l9926.58,-0c924.023,-0 1674.21,-750.19 1674.21,-1674.21l0,-1721.66Z" style="fill:#fff;"/>
            <path d="M29686.7,2356.32c0,-1249.96 -1014.81,-2264.76 -2264.76,-2264.76l-9926.58,0c-1249.96,0 -2264.76,1014.81 -2264.76,2264.76c0,0 0,1721.66 0,1721.66c0,1249.96 1014.81,2264.76 2264.76,2264.76c-0,-0 9926.58,-0 9926.58,-0c1249.96,-0 2264.76,-1014.81 2264.76,-2264.76c0,-0 0,-1721.66 0,-1721.66Zm-590.551,0c0,-924.023 -750.19,-1674.21 -1674.21,-1674.21l-9926.58,0c-924.023,0 -1674.21,750.19 -1674.21,1674.21l0,1721.66c0,924.023 750.19,1674.21 1674.21,1674.21l9926.58,-0c924.023,-0 1674.21,-750.19 1674.21,-1674.21l0,-1721.66Z"/>
            <path d="M29574.5,2356.32c0,-1188.03 -964.529,-2152.56 -2152.56,-2152.56l-9926.58,0c-1188.03,0 -2152.56,964.529 -2152.56,2152.56c-0,0 -0,1721.66 -0,1721.66c-0,1188.03 964.529,2152.56 2152.56,2152.56c-0,-0 9926.58,-0 9926.58,-0c1188.03,-0 2152.56,-964.529 2152.56,-2152.56c0,-0 0,-1721.66 0,-1721.66Zm-478.346,0c0,-924.023 -750.19,-1674.21 -1674.21,-1674.21l-9926.58,0c-924.023,0 -1674.21,750.19 -1674.21,1674.21l0,1721.66c0,924.023 750.19,1674.21 1674.21,1674.21l9926.58,-0c924.023,-0 1674.21,-750.19 1674.21,-1674.21l0,-1721.66Z" style="fill:#fff;"/>
            <path d="M29096.1,2356.32c0,-924.023 -750.19,-1674.21 -1674.21,-1674.21l-9926.58,0c-924.023,0 -1674.21,750.19 -1674.21,1674.21l0,1721.66c0,924.023 750.19,1674.21 1674.21,1674.21l9926.58,-0c924.023,-0 1674.21,-750.19 1674.21,-1674.21l0,-1721.66Z" style="fill:none;stroke:#000;stroke-width:478.35px;"/>
            <path d="M17349.2,3754.82c96.862,324.516 307.825,535.479 632.888,632.888c536.846,89.748 899.122,-120.941 1086.83,-632.067c48.158,-188.252 38.034,-373.22 -30.372,-554.905c-0.547,-1.642 -1.368,-3.557 -2.462,-5.746c-239.693,-449.288 -602.516,-597.865 -1088.47,-445.731l27.91,-217.529l1004.74,-0l-0.821,-491.699l-1454.58,-0l-152.681,1210.78l547.518,89.474l5.746,-6.567c27.362,-46.516 63.754,-83.728 109.175,-111.638c176.213,-87.012 323.421,-51.988 441.626,105.071c77.161,138.453 79.35,278.547 6.567,420.284c-55.819,79.35 -131.612,127.234 -227.38,143.651c-207.953,13.681 -337.923,-80.171 -389.911,-281.557l-516.325,145.293Z" style="fill-rule:nonzero;"/>
            <path d="M21450.2,2526.8c-96.862,-193.725 -242.155,-338.471 -435.88,-434.239c-540.13,-201.933 -959.866,-56.366 -1259.21,436.701c-196.461,449.288 -199.471,899.669 -9.03,1351.15c98.504,203.027 249.27,353.793 452.297,452.297c546.697,198.102 968.349,47.063 1264.95,-453.118c178.949,-452.571 174.571,-903.5 -13.134,-1352.79Zm-407.97,994.068c-4.926,25.721 -11.766,50.894 -20.522,75.52c-118.752,247.902 -310.835,336.555 -576.248,265.961c-159.795,-60.744 -256.11,-174.571 -288.945,-341.481c-18.606,-158.7 -21.89,-317.401 -9.85,-476.102c2.736,-26.268 4.651,-52.535 5.746,-78.803c15.323,-217.256 127.234,-357.077 335.734,-419.463c39.949,-10.945 80.445,-16.143 121.488,-15.596c269.792,29.551 415.358,179.496 436.701,449.835l0.821,5.746c18.606,177.854 16.964,355.982 -4.925,534.383Z" style="fill-rule:nonzero;"/>
            <path d="M23800.3,2526.8c-96.862,-193.725 -242.156,-338.471 -435.88,-434.239c-540.13,-201.933 -959.866,-56.366 -1259.21,436.701c-196.46,449.288 -199.47,899.669 -9.029,1351.15c98.504,203.027 249.269,353.793 452.297,452.297c546.697,198.102 968.348,47.063 1264.95,-453.118c178.949,-452.571 174.571,-903.5 -13.134,-1352.79Zm-407.971,994.068c-4.925,25.721 -11.765,50.894 -20.521,75.52c-118.752,247.902 -310.835,336.555 -576.248,265.961c-159.796,-60.744 -256.111,-174.571 -288.945,-341.481c-18.606,-158.7 -21.89,-317.401 -9.851,-476.102c2.737,-26.268 4.652,-52.535 5.747,-78.803c15.322,-217.256 127.234,-357.077 335.734,-419.463c39.949,-10.945 80.445,-16.143 121.488,-15.596c269.791,29.551 415.358,179.496 436.701,449.835l0.821,5.746c18.606,177.854 16.964,355.982 -4.926,534.383Z" style="fill-rule:nonzero;"/>
            <path d="M25274.6,4370.47l492.52,-0l0,-1002.28c15.323,-93.031 68.406,-151.586 159.248,-175.665c124.225,-14.776 204.943,37.213 242.156,155.965l-0,1021.98l504.832,-0l0,-989.144c11.492,-111.09 72.237,-175.939 182.233,-194.545c123.13,-0 196.187,60.47 219.171,181.411l-0,1002.28l493.34,-0l-1.641,-1156.6c-38.307,-159.796 -123.13,-289.493 -254.469,-389.091c-286.756,-193.724 -554.905,-170.467 -804.449,69.774c-5.472,-6.567 -11.218,-13.134 -17.238,-19.701c-229.842,-219.992 -474.187,-237.504 -733.033,-52.536l-57.461,-90.295l-425.209,0l0,1638.45Z" style="fill-rule:nonzero;"/>
        </g>
        <path d="M44073.6,9333.23c-0,-1232.03 -1000.25,-2232.28 -2232.28,-2232.28l-38765.3,0c-1232.03,0 -2232.28,1000.25 -2232.28,2232.28l0,20156.6c0,1232.03 1000.25,2232.28 2232.28,2232.28l38765.3,0c1232.03,0 2232.28,-1000.25 2232.28,-2232.28l-0,-20156.6Z" style="fill:none;stroke:#000;stroke-width:637.8px;"/>
        <g>
            <g>
                <path d="M3511.06,10210.6l773.404,2269.82l785.453,-0l3.287,-1.096l702.197,-2268.72l-725.202,-0l-386.702,1284.99l-0,6.573l-423.948,-1291.56l-728.489,-0Z" style="fill-rule:nonzero;"/>
                <rect x="6180.72" y="10224.8" width="721.916" height="2254.48" style="fill-rule:nonzero;"/>
                <path d="M9572.31,11983.1c-57.695,1.461 -114.659,-4.382 -170.894,-17.527c-54.043,-22.64 -80.334,-63.538 -78.874,-122.693l0,-958.539c-8.033,-310.384 -159.208,-516.332 -453.525,-617.846c-543.355,-176.736 -1038.51,-87.273 -1485.46,268.391l327.546,522.54c85.447,-81.065 182.214,-145.333 290.3,-192.803c143.873,-65.729 293.952,-86.177 450.24,-61.347c35.055,8.034 67.919,20.814 98.592,38.342c37.977,21.909 62.442,54.043 73.397,96.401c2.191,18.258 -4.017,32.865 -18.623,43.819c-27.022,10.225 -54.774,17.528 -83.256,21.91l-588.269,101.879c-266.565,70.84 -451.7,234.066 -555.404,489.676c-85.447,416.279 65.728,712.422 453.525,888.428c341.057,117.581 654.362,66.094 939.916,-154.462c154.096,154.097 339.961,223.842 557.595,209.236l243.195,-555.405Zm-1454.79,-77.778c-28.483,-17.528 -48.932,-42.359 -61.347,-74.493c-22.64,-85.446 6.208,-147.158 86.542,-185.134c22.64,-9.494 46.01,-16.798 70.111,-21.91c135.838,-21.179 270.581,-46.74 404.229,-76.683l-1.095,228.954c-16.798,55.504 -50.757,96.767 -101.879,123.788c-131.457,64.268 -263.644,66.094 -396.561,5.478Z" style="fill-rule:nonzero;"/>
                <path d="M11869.5,10682.7c-314.036,560.882 -254.88,1079.41 177.466,1555.57c376.843,327.912 786.915,376.478 1230.22,145.698l36.15,96.402l647.425,-2.191l-1.096,-2913.96l-703.293,-0l-2.191,747.112c-251.959,-143.872 -516.333,-172.354 -793.122,-85.447c-248.307,86.177 -445.492,238.448 -591.555,456.812Zm1383.58,489.677c5.843,115.389 5.843,231.144 0,347.264c-41.628,217.634 -171.624,345.439 -389.988,383.416c-271.677,5.112 -434.902,-124.884 -489.676,-389.989c-8.033,-113.929 -5.843,-227.128 6.573,-339.596c43.088,-200.837 165.051,-322.799 365.888,-365.888c270.216,-18.988 439.284,102.609 507.203,364.793Z" style="fill-rule:nonzero;"/>
                <path d="M14251.1,11733.3c132.187,438.92 422.487,705.119 870.9,798.6c461.559,62.077 867.615,-60.251 1218.17,-366.983l-456.812,-460.099c-148.985,131.457 -322.8,202.663 -521.445,213.617c-224.207,5.843 -375.382,-96.401 -453.526,-306.732l1462.46,-0c36.516,-222.016 17.893,-438.919 -55.869,-650.711c-222.746,-558.691 -633.183,-806.267 -1231.31,-742.73l-9.859,2.191c-408.977,86.907 -680.289,327.911 -813.936,723.012l-2.191,6.573c-72.302,260.722 -74.493,521.81 -6.573,783.262Zm662.761,-640.851c41.628,-149.715 137.664,-245.751 288.109,-288.109c235.892,-32.864 392.179,63.172 468.862,288.109l-756.971,0Z" style="fill-rule:nonzero;"/>
                <path d="M18308.7,12049.9c119.771,151.175 268.756,263.278 446.952,336.31c401.674,176.736 803.347,176.371 1205.02,-1.096c147.524,-74.492 254.88,-187.325 322.069,-338.5c127.075,-393.64 9.129,-689.783 -353.838,-888.429c-141.681,-60.616 -288.109,-107.721 -439.284,-141.316c-87.638,-20.448 -173.45,-46.74 -257.436,-78.874c-19.719,-8.033 -33.96,-21.544 -42.723,-40.532c-16.067,-46.74 -2.557,-82.526 40.532,-107.356c59.156,-24.101 120.502,-31.769 184.039,-23.005c77.414,3.651 151.541,20.449 222.381,50.391c100.053,36.516 181.849,97.132 245.386,181.849l432.712,-489.676c-246.847,-185.5 -522.906,-298.699 -828.177,-339.597c-268.756,-25.561 -518.889,30.673 -750.399,168.703c-59.156,44.549 -110.278,97.132 -153.366,157.748c-213.982,373.921 -157.383,700.372 169.798,979.352c139.49,78.874 288.109,132.553 445.857,161.035c109.548,18.258 217.634,43.454 324.26,75.587c29.943,9.495 50.027,28.483 60.251,56.965c13.146,54.043 -5.477,92.02 -55.869,113.929c-168.703,21.91 -329.372,-5.477 -482.008,-82.16c-103.705,-40.168 -197.185,-97.497 -280.441,-171.989l-455.716,420.661Z" style="fill-rule:nonzero;"/>
                <path d="M20753.8,11733.3c132.187,438.92 422.487,705.119 870.901,798.6c461.559,62.077 867.614,-60.251 1218.16,-366.983l-456.812,-460.099c-148.984,131.457 -322.799,202.663 -521.445,213.617c-224.206,5.843 -375.382,-96.401 -453.525,-306.732l1462.45,-0c36.516,-222.016 17.893,-438.919 -55.869,-650.711c-222.746,-558.691 -633.183,-806.267 -1231.31,-742.73l-9.859,2.191c-408.976,86.907 -680.288,327.911 -813.936,723.012l-2.191,6.573c-72.301,260.722 -74.492,521.81 -6.573,783.262Zm662.761,-640.851c41.628,-149.715 137.664,-245.751 288.109,-288.109c235.892,-32.864 392.179,63.172 468.862,288.109l-756.971,0Z" style="fill-rule:nonzero;"/>
                <path d="M23960.2,12480.4l0,-1195.16c11.685,-116.12 59.156,-215.078 142.411,-296.873c170.894,-113.929 356.029,-144.967 555.405,-93.115l2.191,-759.162c-260.723,-21.18 -496.614,45.644 -707.675,200.471l-18.623,-151.175l-703.294,2.191l0,2292.82l729.585,-0Z" style="fill-rule:nonzero;"/>
                <path d="M24997.7,10210.6l773.404,2269.82l785.454,-0l3.286,-1.096l702.198,-2268.72l-725.203,-0l-386.702,1284.99l0,6.573l-423.947,-1291.56l-728.49,-0Z" style="fill-rule:nonzero;"/>
                <path d="M27667.3,12479.3l721.916,0l0,-2254.48l-721.916,-0l-0,2254.48Zm288.109,-3133.05c-235.892,75.953 -338.501,236.622 -307.828,482.008c75.223,235.161 235.527,337.77 480.913,307.828c235.161,-75.223 337.77,-235.527 307.827,-480.913c-75.222,-235.892 -235.526,-338.866 -480.912,-308.923Z" style="fill-rule:nonzero;"/>
                <path d="M28943.5,11873.5c297.238,555.77 749.668,751.494 1357.29,587.173c319.877,-129.996 537.511,-357.854 652.901,-683.575l-613.464,-224.572c-18.989,184.04 -115.755,307.098 -290.301,369.175c-245.386,49.661 -415.184,-41.628 -509.394,-273.868c-58.426,-211.061 -53.679,-420.662 14.241,-628.802c67.189,-148.254 181.848,-230.779 343.978,-247.576c246.116,5.842 388.893,130.361 428.33,373.556l1.095,5.477l615.656,-230.049l-4.382,-10.955c-131.457,-345.439 -373.556,-574.027 -726.298,-685.766c-551.388,-127.805 -967.302,54.409 -1247.74,546.641c-153.367,364.427 -160.67,732.141 -21.91,1103.14Z" style="fill-rule:nonzero;"/>
                <path d="M31248.4,12479.3l721.917,0l-0,-2254.48l-721.917,-0l0,2254.48Zm288.109,-3133.05c-235.891,75.953 -338.501,236.622 -307.827,482.008c75.222,235.161 235.526,337.77 480.912,307.828c235.161,-75.223 337.771,-235.527 307.828,-480.913c-75.223,-235.892 -235.527,-338.866 -480.913,-308.923Z" style="fill-rule:nonzero;"/>
                <path d="M32707.6,12244.9c524.367,406.055 1048.37,405.325 1572,-2.191c176.737,-174.545 284.093,-384.146 322.069,-628.801c19.719,-143.872 21.91,-288.109 6.573,-432.712c-31.403,-235.891 -123.058,-445.492 -274.963,-628.801c-40.168,-46.74 -83.622,-90.194 -130.362,-130.361c-561.612,-394.37 -1088.53,-352.377 -1580.77,125.979l-4.382,5.478c-148.985,184.039 -236.257,394.004 -261.818,629.896c-22.64,143.142 -18.258,285.553 13.145,427.234c36.516,249.038 147.524,459.003 333.024,629.897l5.477,4.382Zm1214.88,-1063.7c27.752,143.872 26.292,287.379 -4.381,430.521c-49.662,160.669 -154.827,265.469 -315.497,314.401c-271.677,48.2 -456.081,-56.6 -553.213,-314.401c-33.595,-142.411 -37.611,-285.918 -12.05,-430.521c43.819,-203.027 167.242,-326.816 370.269,-371.365c273.868,-18.258 445.492,105.531 514.872,371.365Z" style="fill-rule:nonzero;"/>
            </g>
            <path d="M6300.94,10035.8l419.73,-0l368.208,-780.758l-624.331,-0l-163.607,780.758Z"/>
        </g>
        <g>
            <path d="M9952.17,20272.3c-235.315,420.284 -190.988,808.827 132.981,1165.63c282.378,245.713 589.655,282.104 921.832,109.175l27.089,72.236l485.132,-1.641l-0.821,-2183.5l-526.996,-0l-1.642,559.83c-188.799,-107.807 -386.901,-129.149 -594.307,-64.027c-186.063,64.575 -333.819,178.675 -443.268,342.301Zm1036.75,366.927c4.378,86.465 4.378,173.203 0,260.215c-31.193,163.079 -128.602,258.846 -292.228,287.303c-203.575,3.831 -325.884,-93.579 -366.927,-292.228c-6.02,-85.371 -4.378,-170.193 4.925,-254.469c32.287,-150.492 123.677,-241.882 274.169,-274.169c202.481,-14.229 329.168,76.888 380.061,273.348Z" style="fill-rule:nonzero;"/>
            <path d="M11753.1,21059.5c99.051,328.893 316.58,528.364 652.588,598.411c345.859,46.516 650.126,-45.148 912.803,-274.99l-342.301,-344.764c-111.638,98.504 -241.882,151.86 -390.732,160.069c-168.004,4.378 -281.283,-72.236 -339.839,-229.842l1095.86,-0c27.362,-166.363 13.407,-328.894 -41.864,-487.595c-166.91,-418.642 -474.461,-604.157 -922.654,-556.547l-7.388,1.642c-306.457,65.122 -509.758,245.712 -609.903,541.771l-1.642,4.925c-54.177,195.367 -55.819,391.006 -4.925,586.92Zm496.624,-480.207c31.193,-112.185 103.155,-184.148 215.888,-215.888c176.759,-24.626 293.87,47.337 351.33,215.888l-567.218,-0Z" style="fill-rule:nonzero;"/>
            <path d="M16531.6,19778.2c-0.435,-1.378 -0.942,-2.732 -1.518,-4.056c-138.086,-317.598 -404.032,-478.108 -799.878,-478.108l-59.102,0c-1.031,0 -2.061,0.039 -3.089,0.115c-370.179,27.591 -611.333,205.072 -724.741,530.701c-16.208,32.647 -26.243,92.654 -26.243,180.572c0,164.519 73.134,307.198 221.895,426.591c-173.822,98.874 -261.296,258.53 -261.296,479.645c-0,16.425 0.591,32.263 1.764,47.514c1.139,14.816 2.844,31.343 5.124,49.578c0.01,0.086 0.021,0.173 0.033,0.259c41.62,316.777 225.442,518.951 552.826,605.274c67.225,29.156 172.39,44.881 315.813,44.881c109.456,-0 214.346,-16.001 314.681,-47.925c99.886,-31.782 198.681,-80.502 296.298,-146.337c1.198,-0.808 2.353,-1.677 3.46,-2.606c158.471,-132.836 238.138,-308.591 238.138,-527.654c-0,0 -0,-49.252 -0,-49.252c-0,-193.17 -83.245,-346.714 -251.123,-459.779c145.87,-100.214 218.288,-237.203 218.288,-410.339c0,-71.594 -13.616,-151.313 -41.33,-239.074Zm-465.358,1082.01l-0,30.467c-0,91.232 -22.383,160.39 -71.325,206.006c-49.923,46.531 -125.465,67.646 -225.311,67.646l-36.118,-0c-10.857,-0 -21.713,-0.909 -32.569,-2.718c-2.258,-0.377 -4.544,-0.566 -6.833,-0.566c0,0 -9.85,0 -9.85,0c-72.004,0 -129.93,-16.548 -173.038,-52.076c-42.384,-34.932 -69.737,-87.592 -84.197,-156.827l0,-12.213c0,-73.644 20.141,-131.917 63.022,-173.866c44.456,-43.489 111.547,-69.2 200.082,-80.094c11.823,-0.085 22.53,-0.755 32.12,-1.954c7.228,-0.903 15.362,-1.321 24.396,-1.321c156.654,0 263.948,57.856 319.621,177.516Zm-650.777,107.823l-0.18,-0.756c-0.066,-0.279 -0.132,-0.559 -0.198,-0.839l-0.136,-0.58c1.763,-1.7 4.133,-4.059 6.286,-6.441l5.764,-5.764l0,-0.121c0.029,3.403 -1.124,6.746 -3.312,9.43c-2.113,2.591 -5.02,4.36 -8.224,5.071Zm65.225,-1046.41c50.122,-70.91 124.852,-113.322 223.285,-128.773c9.604,-0.129 18.665,-0.82 27.182,-2.037c5.832,-0.833 12.082,-1.224 18.748,-1.224c131.805,-0 222.913,61.042 273.504,182.863c-2.133,82.254 -22.659,144.912 -65.34,186.676c-44.238,43.285 -110.791,62.843 -198.314,62.843c-6.665,0 -12.916,-0.391 -18.748,-1.224c-9.039,-1.291 -18.69,-1.991 -28.958,-2.054c-80.887,-5.886 -142.209,-25.727 -182.767,-62.944c-38.553,-35.378 -56.312,-86.297 -56.312,-151.611c-0,-24.112 2.619,-51.612 7.72,-82.515Zm-1.862,2.663l-12.107,6.349l-0.008,0.005c5.033,-0 9.551,-2.544 12.218,-6.502l-0.103,0.148Zm-14.318,5.382l-0.118,0.787c0.762,0.122 1.538,0.185 2.321,0.185l-0,-0.001c-0.029,-0.011 -0.899,-0.338 -2.203,-0.971Zm0.468,-3.063l-0.086,0.56l1.819,3.469l-0.12,-0.286c-0.24,-0.572 -0.822,-1.946 -1.613,-3.743Z" style="fill-rule:nonzero;"/>
            <path d="M19822.3,21246.7c-43.232,1.095 -85.917,-3.283 -128.055,-13.134c-40.496,-16.964 -60.197,-47.61 -59.103,-91.937l0,-718.258c-6.019,-232.578 -119.299,-386.901 -339.838,-462.968c-407.15,-132.433 -778.181,-65.396 -1113.1,201.112l245.439,391.553c64.028,-60.744 136.538,-108.901 217.53,-144.472c107.807,-49.252 220.266,-64.575 337.376,-45.969c26.268,6.02 50.894,15.597 73.878,28.731c28.456,16.417 46.789,40.496 54.998,72.236c1.642,13.681 -3.01,24.626 -13.955,32.834c-20.248,7.662 -41.043,13.134 -62.386,16.418l-440.805,76.34c-199.744,53.083 -338.47,175.392 -416.179,366.928c-64.028,311.929 49.252,533.836 339.839,665.722c255.563,88.106 490.33,49.526 704.303,-115.742c115.468,115.468 254.742,167.73 417.821,156.785l182.232,-416.179Zm-1090.11,-58.281c-21.343,-13.134 -36.666,-31.741 -45.969,-55.819c-16.964,-64.028 4.652,-110.27 64.849,-138.727c16.964,-7.114 34.476,-12.586 52.535,-16.417c101.787,-15.87 202.754,-35.024 302.9,-57.461l-0.821,171.561c-12.587,41.591 -38.034,72.51 -76.341,92.758c-98.504,48.158 -197.555,49.526 -297.153,4.105Z" style="fill-rule:nonzero;"/>
            <path d="M21335.1,21619.4l1663.9,0l-0,-490.878l-737.138,0c103.976,-81.539 204.396,-167.183 301.258,-256.931c130.244,-102.334 241.061,-222.728 332.451,-361.181c193.177,-432.87 111.09,-804.722 -246.26,-1115.56c-499.634,-276.905 -936.608,-199.744 -1310.92,231.484c-76.615,183.327 -113.006,374.589 -109.176,573.786l549.981,-0c0.547,-67.311 5.746,-134.075 15.596,-200.292c32.288,-142.283 119.573,-229.842 261.857,-262.677c197.555,-16.417 322.874,71.142 375.956,262.677c2.736,113.28 -24.899,218.624 -82.907,316.034c-111.091,122.035 -234.221,231.211 -369.39,327.526l-407.15,311.929c-58.555,44.326 -114.1,91.937 -166.635,142.83c-48.158,60.744 -71.963,129.697 -71.416,206.859l0,314.391Z" style="fill-rule:nonzero;"/>
            <path d="M25345.1,19774.1c-96.862,-193.724 -242.155,-338.47 -435.88,-434.238c-540.13,-201.933 -959.866,-56.366 -1259.21,436.701c-196.461,449.287 -199.471,899.669 -9.03,1351.15c98.504,203.027 249.27,353.793 452.297,452.297c546.697,198.102 968.349,47.063 1264.95,-453.118c178.949,-452.571 174.571,-903.5 -13.134,-1352.79Zm-407.97,994.069c-4.925,25.721 -11.766,50.894 -20.522,75.52c-118.752,247.901 -310.834,336.555 -576.248,265.961c-159.795,-60.745 -256.11,-174.571 -288.945,-341.481c-18.606,-158.701 -21.89,-317.401 -9.85,-476.102c2.736,-26.268 4.651,-52.536 5.746,-78.803c15.323,-217.256 127.234,-357.077 335.734,-419.463c39.949,-10.945 80.445,-16.144 121.488,-15.596c269.792,29.551 415.359,179.496 436.701,449.834l0.821,5.746c18.606,177.855 16.965,355.983 -4.925,534.384Z" style="fill-rule:nonzero;"/>
            <path d="M28385.5,20484.9c-22.437,-203.574 -119.846,-360.633 -292.228,-471.177l-4.925,-3.283c-251.732,-140.642 -501.549,-137.906 -749.451,8.208l0.821,-727.287l-520.429,-0l-0,2324.69l2.462,4.104l517.967,0l0,-987.502c22.984,-128.602 98.504,-204.395 226.559,-227.38c158.701,-3.83 254.469,71.963 287.303,227.38l0,983.398l531.921,-0l0,-1131.15Z" style="fill-rule:nonzero;"/>
        </g>
        <g transform="matrix(1,0,0,1,8692.61,14647.3)">
            <g transform="matrix(3283.46,0,0,3283.46,742.417,3010.85)">
                <path d="M0.58,-0.113c-0.013,0 -0.026,-0.001 -0.039,-0.004c-0.012,-0.005 -0.018,-0.015 -0.018,-0.028l0,-0.219c-0.002,-0.071 -0.036,-0.118 -0.103,-0.141c-0.124,-0.04 -0.237,-0.02 -0.339,0.061l0.074,0.119c0.02,-0.018 0.042,-0.033 0.067,-0.043c0.032,-0.016 0.067,-0.02 0.102,-0.015c0.008,0.002 0.016,0.005 0.023,0.009c0.008,0.005 0.014,0.013 0.017,0.022c0,0.004 -0.001,0.008 -0.005,0.01c-0.006,0.003 -0.012,0.004 -0.019,0.005l-0.134,0.023c-0.061,0.017 -0.103,0.054 -0.127,0.112c-0.019,0.095 0.015,0.163 0.104,0.203c0.078,0.027 0.149,0.015 0.214,-0.035c0.035,0.035 0.078,0.051 0.128,0.047l0.055,-0.126Zm-0.332,-0.018c-0.006,-0.004 -0.011,-0.01 -0.014,-0.017c-0.005,-0.02 0.001,-0.034 0.02,-0.042c0.005,-0.002 0.01,-0.004 0.016,-0.005c0.031,-0.005 0.062,-0.011 0.092,-0.018l-0,0.052c-0.004,0.013 -0.012,0.023 -0.023,0.029c-0.03,0.014 -0.061,0.015 -0.091,0.001Z" style="fill-rule:nonzero;"/>
            </g>
            <g transform="matrix(3283.46,0,0,3283.46,3883.87,3010.85)">
                <path d="M0.33,-0l-0,-0.709l-0.146,-0l0,0.031c-0.006,0.04 -0.029,0.063 -0.07,0.068l-0.064,0l-0,0.147l0.122,0l-0,0.463l0.158,-0Z" style="fill-rule:nonzero;"/>
            </g>
            <g transform="matrix(3283.46,0,0,3283.46,5163.6,3010.85)">
                <path d="M0.089,0.074c0.007,0 0.013,0 0.019,0c0.052,-0.003 0.089,-0.029 0.11,-0.076c0.007,-0.021 0.01,-0.043 0.008,-0.066c-0.009,-0.044 -0.036,-0.07 -0.08,-0.078c-0.046,-0.004 -0.077,0.015 -0.093,0.059c-0.002,0.006 -0.003,0.013 -0.003,0.019c0.003,0.038 0.023,0.06 0.061,0.064c0.002,0.001 0.003,0.003 0.004,0.005c0.001,0.004 -0.001,0.008 -0.005,0.01c-0.008,0.004 -0.017,0.007 -0.026,0.008l-0.001,0c-0.01,0.002 -0.015,0.008 -0.015,0.018c-0.001,0.009 0,0.017 0.003,0.026c0.004,0.007 0.01,0.011 0.018,0.011Z" style="fill-rule:nonzero;"/>
            </g>
            <g transform="matrix(2456.69,0,0,2456.69,6105.14,3010.85)">
                <path d="M0.05,-0.188c0.029,0.099 0.094,0.163 0.193,0.193c0.163,0.027 0.274,-0.037 0.331,-0.193c0.014,-0.057 0.011,-0.113 -0.01,-0.168c0,-0.001 0,-0.002 -0,-0.002c-0.073,-0.137 -0.184,-0.182 -0.332,-0.136l0.009,-0.066l0.306,-0l-0.001,-0.15l-0.443,0l-0.046,0.369l0.167,0.027l0.001,-0.002c0.009,-0.014 0.02,-0.025 0.034,-0.034c0.053,-0.026 0.098,-0.016 0.134,0.032c0.024,0.042 0.024,0.085 0.002,0.128c-0.017,0.024 -0.04,0.039 -0.069,0.044c-0.063,0.004 -0.103,-0.025 -0.119,-0.086l-0.157,0.044Z" style="fill-rule:nonzero;"/>
            </g>
            <g transform="matrix(3283.46,0,0,3283.46,8798.7,3010.85)">
                <path d="M0.554,-0l-0.191,-0.312l0.181,-0.199l-0.21,0l-0.121,0.128l0,-0.32l-0.163,0l-0,0.704l0.163,-0l0,-0.163l0.033,-0.033l0.129,0.195l0.179,0Z" style="fill-rule:nonzero;"/>
            </g>
            <g transform="matrix(3283.46,0,0,3283.46,10762.2,3010.85)">
                <path d="M0.05,-0l0.15,-0l0,-0.306c0.005,-0.028 0.021,-0.046 0.048,-0.053c0.038,-0.005 0.063,0.011 0.074,0.047l0,0.312l0.154,-0l0,-0.302c0.004,-0.033 0.022,-0.053 0.055,-0.059c0.038,0 0.06,0.019 0.067,0.055l0,0.306l0.15,-0l-0,-0.353c-0.012,-0.048 -0.038,-0.088 -0.078,-0.118c-0.087,-0.059 -0.169,-0.052 -0.245,0.021c-0.001,-0.002 -0.003,-0.004 -0.005,-0.006c-0.07,-0.067 -0.144,-0.072 -0.223,-0.016l-0.018,-0.027l-0.129,-0l-0,0.499Z" style="fill-rule:nonzero;"/>
            </g>
        </g>
        <path d="M39216.1,18226l-1691.76,-1056.25l4230.19,-847.768l-847.768,4230.19l-1056.25,-1691.76l-2662.24,3042.57l-1014.73,-1014.73l3042.57,-2662.25Zm7.958,4.969l0.354,0.353l0.081,-0.081l-0.435,-0.272Zm621.123,621.123l0.353,0.353l-0.272,-0.435l-0.081,0.082Z"/>
        <g>
            <rect x="3291.96" y="16091.3" width="4783.47" height="4783.38" style="fill:#fff;"/>
            <path d="M8193.54,20992.7l0,-5019.6l-5019.69,-0l0,5019.6l5019.69,0Zm-118.11,-4901.49l-4783.47,0l0,4783.38l4783.47,0l0,-4783.38Z"/>
            <path d="M5179.27,16809.2c-123.579,0 -116.752,116.839 -116.752,116.839l-0,206.109l-213.109,-0c-109.839,-0 -102.925,103.011 -102.925,103.011l-0,1288.16l89.357,147.776l130.493,96.098l109.838,1161.04l-1014.39,-0l-0,233.677l3540.5,-0l0,-233.677l-1092.34,-0l109.838,-1161.04l130.579,-96.098l89.271,-123.665l0,-1312.27c0,0 6.914,-103.011 -102.925,-103.011l-213.109,-0l0,-206.109c0,-0 6.914,-116.839 -116.752,-116.839c-0,-6.913 -1227.58,-6.913 -1227.58,0Z" style="fill:#1c1c20;fill-rule:nonzero;"/>
            <path d="M5179.27,16809.2c-123.579,0 -116.752,116.839 -116.752,116.839l-0,206.109l-213.109,-0c-109.839,-0 -102.925,103.011 -102.925,103.011l-0,1288.16l89.357,147.776l130.493,96.098l109.838,1161.04l-1014.39,-0l-0,233.677l3540.5,-0l0,-233.677l-1092.34,-0l109.838,-1161.04l130.579,-96.098l89.271,-123.665l0,-1312.27c0,0 6.914,-103.011 -102.925,-103.011l-213.109,-0l0,-206.109c0,-0 6.914,-116.839 -116.752,-116.839c-0,-6.913 -1227.58,-6.913 -1227.58,0Z" style="fill:none;fill-rule:nonzero;stroke:#1c1c20;stroke-width:7.81px;stroke-linecap:butt;stroke-linejoin:miter;stroke-miterlimit:3.864;"/>
            <rect x="5055.77" y="17420.7" width="1474.83" height="900.054" style="fill:#fff;"/>
            <rect x="5055.77" y="17420.7" width="1474.83" height="900.054" style="fill:none;stroke:#1c1c20;stroke-width:7.81px;stroke-linecap:butt;stroke-linejoin:miter;stroke-miterlimit:3.864;"/>
            <path d="M4761.43,18492.5l-370.91,948.103c-0,0 -161.517,302.38 -429.416,175.172c-0,3.456 -278.269,-89.358 -171.801,-422.417c-3.457,-3.456 370.997,-1006.52 370.997,-1006.52l-0,-206.109l206.109,-552.995l75.617,-0c-0,-0 103.011,-360.713 271.355,-347.059c3.371,-3.457 68.79,10.284 17.111,48.136c0,-6.914 -219.763,109.925 -188.912,316.034c-3.457,-0 116.925,192.455 116.925,192.455l0,47.962l116.752,0l-13.827,807.24Z" style="fill:#1c1c20;fill-rule:nonzero;"/>
            <path d="M4761.43,18492.5l-370.91,948.103c-0,0 -161.517,302.38 -429.416,175.172c-0,3.456 -278.269,-89.358 -171.801,-422.417c-3.457,-3.456 370.997,-1006.52 370.997,-1006.52l-0,-206.109l206.109,-552.995l75.617,-0c-0,-0 103.011,-360.713 271.355,-347.059c3.371,-3.457 68.79,10.284 17.111,48.136c0,-6.914 -219.763,109.925 -188.912,316.034c-3.457,-0 116.925,192.455 116.925,192.455l0,47.962l116.752,0l-13.827,807.24Z" style="fill:none;fill-rule:nonzero;stroke:#1c1c20;stroke-width:7.81px;stroke-linecap:butt;stroke-linejoin:miter;stroke-miterlimit:3.864;"/>
            <path d="M4466.05,17977.2l-58.419,120.209l-72.074,55.049l-395.021,1088.88c0,0 -58.419,175.344 75.617,230.22c-6.914,3.371 151.233,72.16 219.85,-96.011c-6.914,-0 477.465,-1250.57 477.465,-1250.57c-0,0 -65.247,-61.789 -54.876,-151.146c3.37,-0 -75.617,-0 -75.617,-0c-0,-0 -106.468,65.246 -99.641,419.132c3.37,-3.457 -58.333,-0 -58.333,-0c-0,-0 3.457,-322.775 89.271,-415.676l-48.222,0l0,-0.086Z" style="fill:#fff;"/>
            <path d="M4466.05,17977.2l-58.419,120.209l-72.074,55.049l-395.021,1088.88c0,0 -58.419,175.344 75.617,230.22c-6.914,3.371 151.233,72.16 219.85,-96.011c-6.914,-0 477.465,-1250.57 477.465,-1250.57c-0,0 -65.247,-61.789 -54.876,-151.146c3.37,-0 -75.617,-0 -75.617,-0c-0,-0 -106.468,65.246 -99.641,419.132c3.37,-3.457 -58.333,-0 -58.333,-0c-0,-0 3.457,-322.775 89.271,-415.676l-48.222,0l0,-0.086Z" style="fill:none;fill-rule:nonzero;stroke:#1c1c20;stroke-width:7.81px;stroke-linecap:butt;stroke-linejoin:miter;stroke-miterlimit:3.864;"/>
        </g>
        <g>
            <rect x="16762.6" y="24229.3" width="4783.55" height="4783.47" style="fill:#fff;"/>
            <path d="M21664.2,29130.9l0,-5019.69l-5019.77,-0l-0,5019.69l5019.77,-0Zm-118.11,-4901.57l-4783.55,-0l0,4783.47l4783.55,-0l0,-4783.47Z"/>
            <path d="M19931.8,24763.1c61.013,-0 57.21,49.519 57.21,49.519c0,-0 -3.716,332.114 0,332.114c0,42 -42,42 -42,42l-351.04,0l-0,171.718c-0,0 332.027,3.889 328.225,0c72.507,0 64.815,64.902 64.815,64.902c0,-0 0,198.421 0,194.619c0,72.593 -68.704,68.704 -68.704,68.704c-0,0 -84.001,7.605 -84.001,0c-267.126,0 -240.422,255.719 -240.422,255.719l0,530.536l122.112,122.112c0,-0 0,1710 0,1706.29c0,61.013 -106.815,61.013 -106.815,61.013c-80.199,0 -118.397,49.692 -114.508,49.692c0,57.211 -110.704,68.705 -110.704,68.705c-0,-0 -110.705,-11.494 -110.705,-68.705c3.802,0 -34.309,-49.692 -114.421,-49.692c0,0 -106.902,0 -106.902,-61.013c-0,3.717 -0,-1706.29 -0,-1706.29l122.112,-122.112l0,-530.536c0,-0 -19.012,-255.719 -313.015,-255.719l-507.635,0c0,0 -30.592,0 -30.592,-42c-0,-0 -0,-255.632 -0,-251.83c-0,-38.284 34.395,-34.395 34.395,-34.395c-3.889,3.889 816.761,0 816.761,0l-0,-171.718l-824.366,0c-0,0 -30.593,0 -30.593,-30.593c-3.889,-3.716 0,-225.211 0,-225.211c0,-0 0,-34.223 34.309,-34.223l435.128,-0l133.519,-133.606c0.087,-0 1004.03,-3.803 1007.84,-0Z" style="fill:#1c1c20;fill-rule:nonzero;"/>
            <path d="M19931.8,24763.1c61.013,-0 57.21,49.519 57.21,49.519c0,-0 -3.716,332.114 0,332.114c0,42 -42,42 -42,42l-351.04,0l-0,171.718c-0,0 332.027,3.889 328.225,0c72.507,0 64.815,64.902 64.815,64.902c0,-0 0,198.421 0,194.619c0,72.593 -68.704,68.704 -68.704,68.704c-0,0 -84.001,7.605 -84.001,0c-267.126,0 -240.422,255.719 -240.422,255.719l0,530.536l122.112,122.112c0,-0 0,1710 0,1706.29c0,61.013 -106.815,61.013 -106.815,61.013c-80.199,0 -118.397,49.692 -114.508,49.692c0,57.211 -110.704,68.705 -110.704,68.705c-0,-0 -110.705,-11.494 -110.705,-68.705c3.802,0 -34.309,-49.692 -114.421,-49.692c0,0 -106.902,0 -106.902,-61.013c-0,3.717 -0,-1706.29 -0,-1706.29l122.112,-122.112l0,-530.536c0,-0 -19.012,-255.719 -313.015,-255.719l-507.635,0c0,0 -30.592,0 -30.592,-42c-0,-0 -0,-255.632 -0,-251.83c-0,-38.284 34.395,-34.395 34.395,-34.395c-3.889,3.889 816.761,0 816.761,0l-0,-171.718l-824.366,0c-0,0 -30.593,0 -30.593,-30.593c-3.889,-3.716 0,-225.211 0,-225.211c0,-0 0,-34.223 34.309,-34.223l435.128,-0l133.519,-133.606c0.087,-0 1004.03,-3.803 1007.84,-0Z" style="fill:none;fill-rule:nonzero;stroke:#1c1c20;stroke-width:8.69px;stroke-linecap:butt;stroke-linejoin:miter;stroke-miterlimit:3.864;"/>
        </g>
        <g>
            <rect x="3291.96" y="24229.3" width="4783.47" height="4783.29" style="fill:#fff;"/>
            <path d="M8193.54,29130.7l0,-5019.51l-5019.69,-0l0,5019.51l5019.69,-0Zm-118.11,-4901.4l-4783.47,-0l0,4783.29l4783.47,-0l0,-4783.29Z"/>
            <path d="M6767.85,27730c251.907,321.646 -81.319,492.234 -81.319,492.234c-263.573,213.192 -457.408,-135.675 -457.408,-135.675l-507.875,-992.159c0,0 -639.403,1034.93 -639.403,1030.87c-220.969,372.113 -507.702,135.675 -515.48,131.786c-302.374,-224.944 -3.888,-519.368 -3.888,-519.368c-0,-0 891.396,-1058.18 891.396,-1062.16c104.651,-120.034 -58.159,-120.034 -69.739,-131.7c-453.519,-96.874 -627.909,-372.027 -627.909,-368.139c-368.312,-488.517 -279.129,-814.052 -279.129,-814.052c116.318,-383.78 461.297,-263.573 457.494,-267.462c472.79,124.096 643.292,596.885 647.18,600.861c50.382,108.453 155.033,678.29 155.033,678.29c0,0 69.739,-93.158 124.096,-441.939c-0,7.864 3.802,-209.216 248.104,-500.097c3.803,-0 100.677,-170.329 368.138,-329.337c0,-0 182.082,-81.406 104.738,77.43c-3.975,3.888 -348.867,511.677 -348.867,511.677c0,0 -11.58,23.247 11.667,38.975c7.777,-0 23.159,11.493 46.492,-7.864c3.803,-7.778 364.422,-511.764 364.422,-511.764c0,-0 30.938,-46.493 89.097,-15.469c48.221,44.937 24.024,94.281 24.024,94.281c-0,0 -359.065,504.851 -365.2,511.159c-10.802,28.173 5.185,39.148 7.777,46.407c22.21,17.024 40.444,-1.556 40.444,-1.556c-0,0 367.879,-491.456 370.298,-496.468c124.96,-125.133 107.245,73.714 107.245,73.714c-63.085,304.621 -192.884,451.704 -191.674,455.42c-195.39,325.534 -384.472,468.21 -520.32,526.455c-3.802,3.716 -104.565,19.271 -158.749,124.009c-7.864,-0 -104.738,162.638 -104.738,162.638c0,-0 810.164,1042.97 814.053,1039Z" style="fill:#1c1c20;fill-rule:nonzero;"/>
        </g>
        <g>
            <rect x="10027.3" y="24229.3" width="4783.55" height="4783.47" style="fill:#fff;"/>
            <path d="M14928.9,29130.9l0,-5019.69l-5019.77,-0l0,5019.69l5019.77,-0Zm-118.11,-4901.57l-4783.55,-0l0,4783.47l4783.55,-0l0,-4783.47Z"/>
            <path d="M13674.7,26035c92.47,-0 167.483,75.099 167.483,167.483l-0,376.707l-2051.02,-0l0,-544.19l1883.54,-0Z" style="fill:#1c1c20;fill-rule:nonzero;"/>
            <path d="M13674.7,26035c92.47,-0 167.483,75.099 167.483,167.483l-0,376.707l-2051.02,-0l0,-544.19l1883.54,-0Z" style="fill:none;fill-rule:nonzero;stroke:#1c1c20;stroke-width:8.37px;stroke-linecap:butt;stroke-linejoin:miter;stroke-miterlimit:3.864;"/>
            <path d="M10912.1,26662.9l3013.83,0l0,-460.362c0,-92.384 74.927,-167.483 167.397,-167.483c92.47,-0 167.483,75.099 167.483,167.483l-0,1339.43l-334.88,-0l0,-502.363l-3013.83,0l0,502.363l-334.793,-0l0,-1674.23c0,-92.556 74.927,-167.396 167.483,-167.396c92.47,-0 167.397,74.84 167.397,167.396l-0,795.156l-0.087,0Z" style="fill:#1c1c20;fill-rule:nonzero;"/>
            <path d="M10912.1,26662.9l3013.83,0l0,-460.362c0,-92.384 74.927,-167.483 167.397,-167.483c92.47,-0 167.483,75.099 167.483,167.483l-0,1339.43l-334.88,-0l0,-502.363l-3013.83,0l0,502.363l-334.793,-0l0,-1674.23c0,-92.556 74.927,-167.396 167.483,-167.396c92.47,-0 167.397,74.84 167.397,167.396l-0,795.156l-0.087,0Z" style="fill:none;fill-rule:nonzero;stroke:#1c1c20;stroke-width:8.37px;stroke-linecap:butt;stroke-linejoin:miter;stroke-miterlimit:3.864;"/>
            <path d="M10995.9,26579.2l0,-334.88c0,0 20.828,-209.31 355.794,-209.31c334.879,-0 355.707,209.31 355.707,209.31l-0,334.88l-711.501,-0Z" style="fill:#1c1c20;fill-rule:nonzero;"/>
            <path d="M10995.9,26579.2l0,-334.88c0,0 20.828,-209.31 355.794,-209.31c334.879,-0 355.707,209.31 355.707,209.31l-0,334.88l-711.501,-0Z" style="fill:none;fill-rule:nonzero;stroke:#1c1c20;stroke-width:8.37px;stroke-linecap:butt;stroke-linejoin:miter;stroke-miterlimit:3.864;"/>
        </g>
    </g>
</svg>
