<?xml version="1.0" encoding="UTF-8" standalone="no"?>
<!DOCTYPE svg PUBLIC "-//W3C//DTD SVG 1.1//EN" "http://www.w3.org/Graphics/SVG/1.1/DTD/svg11.dtd">
<svg width="100%" height="100%" viewBox="0 0 45052 43568" version="1.1" xmlns="http://www.w3.org/2000/svg" xmlns:xlink="http://www.w3.org/1999/xlink" xml:space="preserve" style="fill-rule:evenodd;clip-rule:evenodd;stroke-linecap:round;stroke-linejoin:round;stroke-miterlimit:1.5;">
    <g id="g4799">
        <path d="M44076.8,9375.98c0,-1232.03 -1000.25,-2232.28 -2232.28,-2232.28l-38738.9,-0c-1232.03,-0 -2232.28,1000.25 -2232.28,2232.28l-0,31015.7c-0,1232.03 1000.25,2232.28 2232.28,2232.28l38738.9,0c1232.03,0 2232.28,-1000.25 2232.28,-2232.28l0,-31015.7Z" style="fill:#fff;"/>
        <path d="M44844.5,9375.98c-0,-1655.75 -1344.26,-3000 -3000,-3000l-38738.9,0c-1655.75,0 -3000,1344.26 -3000,3000l0,31015.7c0,1655.75 1344.26,3000 3000,3000c-0,-0 38738.9,-0 38738.9,-0c1655.75,-0 3000,-1344.26 3000,-3000c-0,-0 -0,-31015.7 -0,-31015.7Zm-767.717,0c0,-1232.03 -1000.25,-2232.28 -2232.28,-2232.28l-38738.9,-0c-1232.03,-0 -2232.28,1000.25 -2232.28,2232.28l-0,31015.7c-0,1232.03 1000.25,2232.28 2232.28,2232.28l38738.9,0c1232.03,0 2232.28,-1000.25 2232.28,-2232.28l0,-31015.7Z"/>
        <path d="M44714.6,9375.98c-0,-1584.04 -1286.04,-2870.08 -2870.08,-2870.08l-38738.9,-0c-1584.04,-0 -2870.08,1286.04 -2870.08,2870.08l0,31015.7c0,1584.04 1286.04,2870.08 2870.08,2870.08c-0,0 38738.9,0 38738.9,0c1584.04,0 2870.08,-1286.04 2870.08,-2870.08c-0,-0 -0,-31015.7 -0,-31015.7Zm-637.796,0c0,-1232.03 -1000.25,-2232.28 -2232.28,-2232.28l-38738.9,-0c-1232.03,-0 -2232.28,1000.25 -2232.28,2232.28l-0,31015.7c-0,1232.03 1000.25,2232.28 2232.28,2232.28l38738.9,0c1232.03,0 2232.28,-1000.25 2232.28,-2232.28l0,-31015.7Z" style="fill:#fff;"/>
        <g>
            <path d="M29125.8,2409.66c0,-924.023 -750.189,-1674.21 -1674.21,-1674.21l-9926.58,0c-924.023,0 -1674.21,750.19 -1674.21,1674.21l0,1721.66c0,924.023 750.19,1674.21 1674.21,1674.21l9926.58,0c924.024,0 1674.21,-750.189 1674.21,-1674.21l0,-1721.66Z" style="fill:#fff;"/>
            <path d="M29716.4,2409.66c0,-1249.96 -1014.81,-2264.76 -2264.76,-2264.76c0,0 -9926.58,0 -9926.58,0c-1249.96,0 -2264.76,1014.81 -2264.76,2264.76l0,1721.66c0,1249.96 1014.81,2264.76 2264.76,2264.76l9926.58,0c1249.96,0 2264.76,-1014.81 2264.76,-2264.76c0,-0 0,-1721.66 0,-1721.66Zm-590.551,-0c0,-924.023 -750.189,-1674.21 -1674.21,-1674.21l-9926.58,0c-924.023,0 -1674.21,750.19 -1674.21,1674.21l0,1721.66c0,924.023 750.19,1674.21 1674.21,1674.21l9926.58,0c924.024,0 1674.21,-750.189 1674.21,-1674.21l0,-1721.66Z"/>
            <path d="M29604.2,2409.66c-0,-1188.03 -964.53,-2152.56 -2152.56,-2152.56c0,-0 -9926.58,-0 -9926.58,-0c-1188.03,-0 -2152.56,964.529 -2152.56,2152.56l-0,1721.66c-0,1188.03 964.529,2152.56 2152.56,2152.56l9926.58,-0c1188.03,-0 2152.56,-964.53 2152.56,-2152.56c-0,-0 -0,-1721.66 -0,-1721.66Zm-478.347,-0c0,-924.023 -750.189,-1674.21 -1674.21,-1674.21l-9926.58,0c-924.023,0 -1674.21,750.19 -1674.21,1674.21l0,1721.66c0,924.023 750.19,1674.21 1674.21,1674.21l9926.58,0c924.024,0 1674.21,-750.189 1674.21,-1674.21l0,-1721.66Z" style="fill:#fff;"/>
            <path d="M29125.8,2409.66c0,-924.023 -750.189,-1674.21 -1674.21,-1674.21l-9926.58,0c-924.023,0 -1674.21,750.19 -1674.21,1674.21l0,1721.66c0,924.023 750.19,1674.21 1674.21,1674.21l9926.58,0c924.024,0 1674.21,-750.189 1674.21,-1674.21l0,-1721.66Z" style="fill:none;stroke:#000;stroke-width:478.35px;"/>
            <path d="M17378.8,3808.15c96.862,324.516 307.825,535.478 632.888,632.888c536.846,89.748 899.122,-120.941 1086.83,-632.067c48.157,-188.252 38.033,-373.221 -30.372,-554.906c-0.548,-1.641 -1.369,-3.557 -2.463,-5.746c-239.693,-449.287 -602.516,-597.864 -1088.47,-445.73l27.91,-217.53l1004.74,0l-0.821,-491.698l-1454.58,-0l-152.681,1210.78l547.518,89.475l5.746,-6.567c27.362,-46.516 63.754,-83.729 109.175,-111.638c176.213,-87.012 323.421,-51.988 441.626,105.071c77.162,138.453 79.351,278.547 6.567,420.283c-55.819,79.351 -131.612,127.234 -227.38,143.652c-207.953,13.681 -337.923,-80.171 -389.911,-281.557l-516.325,145.293Z" style="fill-rule:nonzero;"/>
            <path d="M21479.9,2580.14c-96.862,-193.724 -242.155,-338.47 -435.88,-434.238c-540.13,-201.933 -959.866,-56.366 -1259.21,436.701c-196.461,449.287 -199.471,899.669 -9.03,1351.15c98.504,203.027 249.27,353.793 452.297,452.297c546.697,198.102 968.349,47.063 1264.95,-453.118c178.949,-452.571 174.571,-903.5 -13.134,-1352.79Zm-407.97,994.069c-4.925,25.721 -11.766,50.894 -20.522,75.52c-118.752,247.901 -310.835,336.555 -576.248,265.961c-159.795,-60.745 -256.11,-174.571 -288.945,-341.481c-18.606,-158.701 -21.89,-317.401 -9.85,-476.102c2.736,-26.268 4.651,-52.536 5.746,-78.803c15.323,-217.256 127.234,-357.077 335.734,-419.463c39.949,-10.945 80.445,-16.144 121.488,-15.596c269.792,29.551 415.359,179.496 436.701,449.834l0.821,5.746c18.606,177.855 16.965,355.983 -4.925,534.384Z" style="fill-rule:nonzero;"/>
            <path d="M23830,2580.14c-96.862,-193.724 -242.156,-338.47 -435.88,-434.238c-540.13,-201.933 -959.866,-56.366 -1259.21,436.701c-196.46,449.287 -199.47,899.669 -9.029,1351.15c98.504,203.027 249.27,353.793 452.297,452.297c546.697,198.102 968.349,47.063 1264.95,-453.118c178.949,-452.571 174.571,-903.5 -13.134,-1352.79Zm-407.97,994.069c-4.926,25.721 -11.766,50.894 -20.522,75.52c-118.752,247.901 -310.835,336.555 -576.248,265.961c-159.795,-60.745 -256.11,-174.571 -288.945,-341.481c-18.606,-158.701 -21.89,-317.401 -9.85,-476.102c2.736,-26.268 4.651,-52.536 5.746,-78.803c15.322,-217.256 127.234,-357.077 335.734,-419.463c39.949,-10.945 80.445,-16.144 121.488,-15.596c269.791,29.551 415.358,179.496 436.701,449.834l0.821,5.746c18.606,177.855 16.964,355.983 -4.925,534.384Z" style="fill-rule:nonzero;"/>
            <path d="M25304.3,4423.8l492.519,-0l0,-1002.28c15.323,-93.031 68.406,-151.587 159.248,-175.665c124.225,-14.776 204.943,37.212 242.156,155.964l-0,1021.98l504.832,-0l0,-989.144c11.493,-111.091 72.237,-175.939 182.233,-194.545c123.13,-0 196.187,60.47 219.171,181.411l0,1002.28l493.341,-0l-1.642,-1156.6c-38.307,-159.795 -123.13,-289.492 -254.469,-389.09c-286.756,-193.725 -554.905,-170.467 -804.448,69.773c-5.473,-6.567 -11.219,-13.134 -17.239,-19.7c-229.842,-219.993 -474.187,-237.504 -733.033,-52.536l-57.461,-90.295l-425.208,-0l-0,1638.45Z" style="fill-rule:nonzero;"/>
        </g>
        <path d="M44103.3,9375.98c0,-1232.03 -1000.25,-2232.28 -2232.28,-2232.28l-38765.3,-0c-1232.03,-0 -2232.28,1000.25 -2232.28,2232.28l-0,20156.6c-0,1232.03 1000.25,2232.28 2232.28,2232.28l38765.3,-0c1232.03,-0 2232.28,-1000.25 2232.28,-2232.28l0,-20156.6Z" style="fill:none;stroke:#000;stroke-width:637.8px;"/>
        <g>
            <g>
                <path d="M3540.74,10253.3l773.404,2269.82l785.453,0l3.287,-1.095l702.198,-2268.72l-725.203,0l-386.702,1284.99l0,6.573l-423.948,-1291.56l-728.489,0Z" style="fill-rule:nonzero;"/>
                <path d="M6210.41,12522.1l721.917,-0l-0,-2254.48l-721.917,0l0,2254.48Z" style="fill-rule:nonzero;"/>
                <path d="M9601.99,12025.8c-57.695,1.46 -114.659,-4.382 -170.894,-17.528c-54.043,-22.64 -80.334,-63.537 -78.874,-122.693l0,-958.538c-8.033,-310.384 -159.208,-516.333 -453.525,-617.847c-543.355,-176.736 -1038.51,-87.272 -1485.46,268.391l327.546,522.54c85.447,-81.065 182.214,-145.332 290.301,-192.803c143.872,-65.728 293.951,-86.177 450.239,-61.346c35.055,8.033 67.919,20.814 98.592,38.341c37.977,21.91 62.442,54.044 73.397,96.402c2.191,18.258 -4.017,32.864 -18.623,43.819c-27.022,10.224 -54.774,17.527 -83.256,21.909l-588.269,101.879c-266.565,70.841 -451.699,234.066 -555.404,489.676c-85.447,416.28 65.728,712.423 453.525,888.428c341.057,117.581 654.363,66.094 939.916,-154.461c154.096,154.096 339.961,223.841 557.595,209.235l243.195,-555.404Zm-1454.79,-77.779c-28.483,-17.528 -48.931,-42.358 -61.347,-74.492c-22.64,-85.447 6.208,-147.159 86.543,-185.135c22.639,-9.494 46.009,-16.797 70.11,-21.909c135.838,-21.18 270.581,-46.741 404.229,-76.683l-1.095,228.953c-16.798,55.504 -50.757,96.767 -101.879,123.789c-131.457,64.267 -263.644,66.093 -396.561,5.477Z" style="fill-rule:nonzero;"/>
                <path d="M11899.2,10725.5c-314.036,560.882 -254.88,1079.4 177.466,1555.57c376.843,327.911 786.915,376.477 1230.22,145.697l36.15,96.402l647.425,-2.191l-1.096,-2913.96l-703.293,0l-2.191,747.113c-251.959,-143.872 -516.333,-172.355 -793.122,-85.447c-248.307,86.177 -445.492,238.448 -591.555,456.812Zm1383.58,489.676c5.843,115.39 5.843,231.145 0,347.265c-41.627,217.634 -171.624,345.439 -389.988,383.415c-271.677,5.112 -434.902,-124.884 -489.676,-389.988c-8.033,-113.929 -5.842,-227.128 6.573,-339.597c43.089,-200.836 165.051,-322.799 365.888,-365.887c270.216,-18.989 439.284,102.609 507.203,364.792Z" style="fill-rule:nonzero;"/>
                <path d="M14280.8,11776c132.187,438.919 422.487,705.119 870.9,798.599c461.56,62.077 867.615,-60.251 1218.17,-366.983l-456.812,-460.098c-148.984,131.456 -322.799,202.662 -521.445,213.617c-224.207,5.842 -375.382,-96.402 -453.526,-306.733l1462.46,0c36.516,-222.015 17.893,-438.919 -55.869,-650.71c-222.746,-558.691 -633.183,-806.268 -1231.31,-742.731l-9.859,2.191c-408.977,86.908 -680.289,327.912 -813.936,723.012l-2.191,6.573c-72.301,260.722 -74.492,521.81 -6.573,783.263Zm662.761,-640.852c41.628,-149.714 137.664,-245.751 288.109,-288.109c235.892,-32.864 392.179,63.172 468.862,288.109l-756.971,0Z" style="fill-rule:nonzero;"/>
                <path d="M18338.4,12092.6c119.771,151.176 268.756,263.279 446.953,336.31c401.673,176.737 803.346,176.371 1205.02,-1.095c147.524,-74.492 254.88,-187.326 322.069,-338.501c127.075,-393.64 9.129,-689.783 -353.837,-888.428c-141.682,-60.616 -288.11,-107.722 -439.285,-141.316c-87.638,-20.449 -173.45,-46.74 -257.436,-78.874c-19.718,-8.034 -33.96,-21.544 -42.723,-40.533c-16.067,-46.74 -2.556,-82.525 40.532,-107.356c59.156,-24.1 120.502,-31.769 184.04,-23.005c77.413,3.652 151.54,20.449 222.38,50.392c100.054,36.516 181.849,97.132 245.386,181.848l432.712,-489.676c-246.847,-185.5 -522.906,-298.699 -828.177,-339.596c-268.756,-25.561 -518.889,30.673 -750.399,168.702c-59.155,44.55 -110.277,97.132 -153.366,157.748c-213.982,373.922 -157.383,700.373 169.798,979.353c139.49,78.874 288.109,132.552 445.857,161.034c109.548,18.258 217.634,43.454 324.26,75.588c29.943,9.494 50.027,28.482 60.251,56.964c13.146,54.044 -5.477,92.02 -55.869,113.93c-168.703,21.909 -329.372,-5.478 -482.008,-82.161c-103.704,-40.167 -197.185,-97.497 -280.441,-171.989l-455.716,420.661Z" style="fill-rule:nonzero;"/>
                <path d="M20783.5,11776c132.187,438.919 422.488,705.119 870.901,798.599c461.559,62.077 867.614,-60.251 1218.16,-366.983l-456.812,-460.098c-148.984,131.456 -322.799,202.662 -521.445,213.617c-224.206,5.842 -375.382,-96.402 -453.525,-306.733l1462.45,0c36.516,-222.015 17.893,-438.919 -55.869,-650.71c-222.746,-558.691 -633.183,-806.268 -1231.31,-742.731l-9.859,2.191c-408.976,86.908 -680.288,327.912 -813.936,723.012l-2.191,6.573c-72.301,260.722 -74.492,521.81 -6.573,783.263Zm662.761,-640.852c41.628,-149.714 137.664,-245.751 288.109,-288.109c235.892,-32.864 392.18,63.172 468.863,288.109l-756.972,0Z" style="fill-rule:nonzero;"/>
                <path d="M23989.9,12523.2l0,-1195.16c11.685,-116.12 59.156,-215.078 142.412,-296.873c170.893,-113.93 356.028,-144.968 555.404,-93.116l2.191,-759.162c-260.722,-21.179 -496.614,45.645 -707.675,200.471l-18.623,-151.175l-703.294,2.191l0,2292.82l729.585,0Z" style="fill-rule:nonzero;"/>
                <path d="M25027.3,10253.3l773.403,2269.82l785.454,0l3.286,-1.095l702.198,-2268.72l-725.203,0l-386.701,1284.99l-0,6.573l-423.948,-1291.56l-728.489,0Z" style="fill-rule:nonzero;"/>
                <path d="M27697,12522.1l721.916,-0l0,-2254.48l-721.916,0l-0,2254.48Zm288.109,-3133.05c-235.892,75.953 -338.501,236.622 -307.828,482.008c75.223,235.162 235.527,337.771 480.913,307.828c235.161,-75.222 337.77,-235.527 307.828,-480.912c-75.223,-235.892 -235.527,-338.867 -480.913,-308.924Z" style="fill-rule:nonzero;"/>
                <path d="M28973.2,11916.3c297.238,555.77 749.669,751.494 1357.29,587.174c319.878,-129.997 537.511,-357.855 652.901,-683.575l-613.464,-224.572c-18.989,184.039 -115.755,307.097 -290.301,369.174c-245.385,49.662 -415.184,-41.628 -509.394,-273.868c-58.425,-211.061 -53.678,-420.661 14.241,-628.801c67.189,-148.254 181.848,-230.78 343.978,-247.577c246.116,5.843 388.893,130.361 428.33,373.556l1.095,5.478l615.656,-230.05l-4.382,-10.954c-131.457,-345.439 -373.556,-574.028 -726.298,-685.766c-551.388,-127.805 -967.302,54.408 -1247.74,546.641c-153.366,364.427 -160.67,732.14 -21.91,1103.14Z" style="fill-rule:nonzero;"/>
                <path d="M31278.1,12522.1l721.917,-0l-0,-2254.48l-721.917,0l0,2254.48Zm288.11,-3133.05c-235.892,75.953 -338.501,236.622 -307.828,482.008c75.222,235.162 235.526,337.771 480.912,307.828c235.162,-75.222 337.771,-235.527 307.828,-480.912c-75.223,-235.892 -235.527,-338.867 -480.912,-308.924Z" style="fill-rule:nonzero;"/>
                <path d="M32737.3,12287.6c524.366,406.056 1048.37,405.325 1572,-2.19c176.736,-174.546 284.092,-384.146 322.068,-628.802c19.719,-143.872 21.91,-288.109 6.573,-432.711c-31.403,-235.892 -123.058,-445.492 -274.963,-628.801c-40.168,-46.741 -83.621,-90.194 -130.362,-130.362c-561.612,-394.37 -1088.53,-352.377 -1580.77,125.98l-4.382,5.477c-148.984,184.039 -236.257,394.005 -261.818,629.897c-22.64,143.141 -18.258,285.553 13.146,427.234c36.515,249.037 147.523,459.003 333.023,629.897l5.478,4.381Zm1214.88,-1063.7c27.751,143.872 26.291,287.379 -4.382,430.52c-49.662,160.67 -154.827,265.47 -315.496,314.401c-271.678,48.201 -456.082,-56.599 -553.214,-314.401c-33.595,-142.411 -37.611,-285.918 -12.05,-430.52c43.819,-203.028 167.242,-326.816 370.269,-371.365c273.869,-18.258 445.493,105.53 514.873,371.365Z" style="fill-rule:nonzero;"/>
            </g>
            <path d="M6330.63,10078.5l419.73,0l368.209,-780.758l-624.332,0l-163.607,780.758Z"/>
        </g>
        <g>
            <path d="M9981.86,20315.1c-235.315,420.284 -190.989,808.827 132.98,1165.63c282.378,245.713 589.655,282.105 921.833,109.176l27.088,72.236l485.132,-1.642l-0.821,-2183.5l-526.996,0l-1.642,559.831c-188.799,-107.807 -386.901,-129.15 -594.307,-64.028c-186.063,64.575 -333.819,178.676 -443.267,342.301Zm1036.75,366.928c4.378,86.464 4.378,173.202 0,260.214c-31.192,163.079 -128.602,258.847 -292.228,287.303c-203.575,3.831 -325.884,-93.578 -366.927,-292.228c-6.02,-85.37 -4.378,-170.193 4.925,-254.468c32.288,-150.493 123.677,-241.882 274.169,-274.17c202.481,-14.228 329.168,76.888 380.061,273.349Z" style="fill-rule:nonzero;"/>
            <path d="M11782.8,21102.3c99.051,328.894 316.581,528.364 652.588,598.412c345.859,46.515 650.126,-45.148 912.804,-274.991l-342.302,-344.763c-111.637,98.504 -241.882,151.86 -390.732,160.068c-168.004,4.378 -281.283,-72.236 -339.838,-229.842l1095.86,-0c27.362,-166.362 13.407,-328.894 -41.864,-487.595c-166.91,-418.641 -474.461,-604.157 -922.654,-556.547l-7.388,1.642c-306.456,65.122 -509.758,245.713 -609.903,541.772l-1.642,4.925c-54.177,195.366 -55.819,391.006 -4.925,586.919Zm496.624,-480.207c31.193,-112.185 103.155,-184.147 215.888,-215.887c176.759,-24.626 293.87,47.336 351.33,215.887l-567.218,0Z" style="fill-rule:nonzero;"/>
            <path d="M16555,19822.9c-0.366,-1.157 -0.791,-2.294 -1.275,-3.407c-137.007,-315.116 -401.029,-474.111 -793.782,-474.111c0,0 -59.102,0 -59.102,0c-0.866,0 -1.732,0.032 -2.595,0.097c-367.33,27.378 -606.674,203.42 -719.101,526.67c-16.04,32.059 -25.729,91.224 -25.729,177.973c-0,165.375 74.961,308.341 227.149,427.548c-177.459,97.238 -266.551,256.648 -266.551,478.688c0,16.249 0.584,31.917 1.745,47.005c1.132,14.722 2.827,31.143 5.092,49.263c0.009,0.072 0.018,0.145 0.028,0.218c41.265,314.072 223.687,514.371 548.42,599.84c66.649,29.038 171.099,44.533 313.629,44.533c108.754,-0 212.972,-15.892 312.664,-47.612c99.316,-31.601 197.539,-80.056 294.597,-145.513c1.007,-0.679 1.977,-1.41 2.907,-2.19c156.932,-131.546 235.761,-305.623 235.761,-522.559c-0,-0 -0,-49.252 -0,-49.252c-0,-193.992 -85.015,-347.52 -256.408,-459.73c149.41,-99.338 223.573,-236.359 223.573,-410.388c-0,-70.997 -13.54,-150.045 -41.022,-237.073Zm-1104.91,1172.62l-0,-12.899c-0,-75.694 20.946,-135.501 65.021,-178.617c45.396,-44.41 113.832,-70.907 204.302,-81.988c11.69,-0.071 22.263,-0.722 31.724,-1.905c7.472,-0.934 15.88,-1.372 25.221,-1.372c160.293,0 269.681,59.807 326.267,182.701c0,0 0,31.929 0,31.929c0,93.445 -23.311,164.147 -73.44,210.87c-50.953,47.49 -127.936,69.429 -229.843,69.429l-36.118,0c-11.221,0 -22.441,-0.938 -33.662,-2.808c-1.897,-0.316 -3.817,-0.475 -5.74,-0.475l-9.85,0c-73.791,-0 -133.088,-17.184 -177.266,-53.594c-43.568,-35.907 -71.834,-89.987 -86.616,-161.268l-0,-0.003Zm54.027,-1033.79c51.214,-73.196 127.817,-117.04 229.037,-132.829c9.478,-0.109 18.411,-0.779 26.799,-1.977c6.124,-0.875 12.688,-1.291 19.688,-1.291c135.234,-0 228.565,62.85 280.184,188.272c-1.981,85.021 -23.369,149.609 -67.371,192.665c-45.302,44.328 -113.334,64.74 -202.963,64.74c-6.999,0 -13.563,-0.416 -19.688,-1.291c-8.82,-1.26 -18.243,-1.935 -28.271,-1.989c-82.828,-5.997 -145.499,-26.601 -187.008,-64.692c-39.826,-36.547 -58.466,-89.037 -58.466,-156.508c0,-24.82 2.727,-53.183 8.059,-85.099l0,-0.001Z" style="fill-rule:nonzero;"/>
            <path d="M19852,21289.4c-43.232,1.094 -85.917,-3.284 -128.055,-13.134c-40.496,-16.965 -60.197,-47.61 -59.102,-91.937l-0,-718.258c-6.02,-232.579 -119.3,-386.902 -339.839,-462.969c-407.15,-132.433 -778.181,-65.395 -1113.1,201.113l245.439,391.553c64.028,-60.744 136.538,-108.902 217.53,-144.473c107.807,-49.252 220.266,-64.575 337.376,-45.968c26.268,6.019 50.894,15.596 73.878,28.73c28.457,16.417 46.789,40.496 54.998,72.236c1.642,13.681 -3.01,24.626 -13.955,32.835c-20.248,7.661 -41.043,13.134 -62.386,16.417l-440.805,76.341c-199.744,53.082 -338.47,175.392 -416.179,366.927c-64.027,311.929 49.252,533.837 339.839,665.722c255.563,88.107 490.33,49.526 704.303,-115.742c115.468,115.469 254.742,167.731 417.821,156.786l182.232,-416.179Zm-1090.11,-58.282c-21.343,-13.134 -36.666,-31.74 -45.969,-55.819c-16.964,-64.027 4.652,-110.269 64.849,-138.726c16.964,-7.114 34.476,-12.587 52.535,-16.417c101.788,-15.871 202.754,-35.024 302.9,-57.461l-0.821,171.561c-12.587,41.59 -38.034,72.51 -76.341,92.758c-98.504,48.157 -197.555,49.525 -297.153,4.104Z" style="fill-rule:nonzero;"/>
            <path d="M21364.8,21662.1l1663.9,-0l-0,-490.878l-737.138,-0c103.977,-81.539 204.396,-167.183 301.258,-256.931c130.244,-102.335 241.061,-222.729 332.451,-361.181c193.177,-432.87 111.09,-804.723 -246.26,-1115.56c-499.634,-276.906 -936.608,-199.745 -1310.92,231.484c-76.614,183.327 -113.006,374.588 -109.175,573.785l549.98,0c0.547,-67.311 5.746,-134.075 15.596,-200.291c32.288,-142.284 119.573,-229.843 261.857,-262.677c197.555,-16.418 322.874,71.141 375.956,262.677c2.737,113.279 -24.899,218.624 -82.907,316.033c-111.091,122.036 -234.221,231.211 -369.39,327.526l-407.15,311.929c-58.555,44.327 -114.1,91.937 -166.635,142.831c-48.158,60.744 -71.963,129.697 -71.416,206.858l0,314.392Z" style="fill-rule:nonzero;"/>
            <path d="M25374.7,19816.8c-96.862,-193.725 -242.155,-338.471 -435.88,-434.238c-540.129,-201.934 -959.866,-56.367 -1259.21,436.7c-196.461,449.288 -199.471,899.67 -9.03,1351.15c98.504,203.028 249.27,353.793 452.298,452.297c546.696,198.103 968.348,47.063 1264.95,-453.118c178.949,-452.571 174.571,-903.5 -13.134,-1352.79Zm-407.97,994.069c-4.925,25.72 -11.766,50.893 -20.522,75.519c-118.752,247.902 -310.834,336.555 -576.248,265.961c-159.795,-60.744 -256.11,-174.571 -288.945,-341.48c-18.606,-158.701 -21.889,-317.402 -9.85,-476.103c2.736,-26.267 4.652,-52.535 5.746,-78.803c15.323,-217.256 127.234,-357.077 335.734,-419.462c39.949,-10.945 80.445,-16.144 121.488,-15.597c269.792,29.551 415.359,179.496 436.701,449.835l0.821,5.746c18.606,177.854 16.965,355.982 -4.925,534.384Z" style="fill-rule:nonzero;"/>
            <path d="M28415.2,20527.7c-22.437,-203.575 -119.847,-360.634 -292.229,-471.177l-4.925,-3.284c-251.732,-140.642 -501.549,-137.905 -749.451,8.209l0.821,-727.288l-520.429,0l0,2324.69l2.463,4.105l517.966,-0l0,-987.502c22.984,-128.603 98.504,-204.396 226.559,-227.38c158.701,-3.831 254.469,71.962 287.303,227.38l0,983.397l531.922,0l-0,-1131.15Z" style="fill-rule:nonzero;"/>
        </g>
        <g transform="matrix(1,0,0,1,8722.29,14690)">
            <g transform="matrix(3283.46,0,0,3283.46,742.417,3010.85)">
                <path d="M0.58,-0.113c-0.013,0 -0.026,-0.001 -0.039,-0.004c-0.012,-0.005 -0.018,-0.015 -0.018,-0.028l0,-0.219c-0.002,-0.071 -0.036,-0.118 -0.103,-0.141c-0.124,-0.04 -0.237,-0.02 -0.339,0.061l0.074,0.119c0.02,-0.018 0.042,-0.033 0.067,-0.043c0.032,-0.016 0.067,-0.02 0.102,-0.015c0.008,0.002 0.016,0.005 0.023,0.009c0.008,0.005 0.014,0.013 0.017,0.022c0,0.004 -0.001,0.008 -0.005,0.01c-0.006,0.003 -0.012,0.004 -0.019,0.005l-0.134,0.023c-0.061,0.017 -0.103,0.054 -0.127,0.112c-0.019,0.095 0.015,0.163 0.104,0.203c0.078,0.027 0.149,0.015 0.214,-0.035c0.035,0.035 0.078,0.051 0.128,0.047l0.055,-0.126Zm-0.332,-0.018c-0.006,-0.004 -0.011,-0.01 -0.014,-0.017c-0.005,-0.02 0.001,-0.034 0.02,-0.042c0.005,-0.002 0.01,-0.004 0.016,-0.005c0.031,-0.005 0.062,-0.011 0.092,-0.018l-0,0.052c-0.004,0.013 -0.012,0.023 -0.023,0.029c-0.03,0.014 -0.061,0.015 -0.091,0.001Z" style="fill-rule:nonzero;"/>
            </g>
            <g transform="matrix(3283.46,0,0,3283.46,3883.87,3010.85)">
                <path d="M0.33,-0l-0,-0.709l-0.146,-0l0,0.031c-0.006,0.04 -0.029,0.063 -0.07,0.068l-0.064,0l-0,0.147l0.122,0l-0,0.463l0.158,-0Z" style="fill-rule:nonzero;"/>
            </g>
            <g transform="matrix(3283.46,0,0,3283.46,5163.6,3010.85)">
                <path d="M0.089,0.074c0.007,0 0.013,0 0.019,0c0.052,-0.003 0.089,-0.029 0.11,-0.076c0.007,-0.021 0.01,-0.043 0.008,-0.066c-0.009,-0.044 -0.036,-0.07 -0.08,-0.078c-0.046,-0.004 -0.077,0.015 -0.093,0.059c-0.002,0.006 -0.003,0.013 -0.003,0.019c0.003,0.038 0.023,0.06 0.061,0.064c0.002,0.001 0.003,0.003 0.004,0.005c0.001,0.004 -0.001,0.008 -0.005,0.01c-0.008,0.004 -0.017,0.007 -0.026,0.008l-0.001,0c-0.01,0.002 -0.015,0.008 -0.015,0.018c-0.001,0.009 0,0.017 0.003,0.026c0.004,0.007 0.01,0.011 0.018,0.011Z" style="fill-rule:nonzero;"/>
            </g>
            <g transform="matrix(2456.69,0,0,2456.69,6105.14,3010.85)">
                <path d="M0.05,-0.188c0.029,0.099 0.094,0.163 0.193,0.193c0.163,0.027 0.274,-0.037 0.331,-0.193c0.014,-0.057 0.011,-0.113 -0.01,-0.168c0,-0.001 0,-0.002 -0,-0.002c-0.073,-0.137 -0.184,-0.182 -0.332,-0.136l0.009,-0.066l0.306,-0l-0.001,-0.15l-0.443,0l-0.046,0.369l0.167,0.027l0.001,-0.002c0.009,-0.014 0.02,-0.025 0.034,-0.034c0.053,-0.026 0.098,-0.016 0.134,0.032c0.024,0.042 0.024,0.085 0.002,0.128c-0.017,0.024 -0.04,0.039 -0.069,0.044c-0.063,0.004 -0.103,-0.025 -0.119,-0.086l-0.157,0.044Z" style="fill-rule:nonzero;"/>
            </g>
            <g transform="matrix(3283.46,0,0,3283.46,8798.7,3010.85)">
                <path d="M0.554,-0l-0.191,-0.312l0.181,-0.199l-0.21,0l-0.121,0.128l0,-0.32l-0.163,0l-0,0.704l0.163,-0l0,-0.163l0.033,-0.033l0.129,0.195l0.179,0Z" style="fill-rule:nonzero;"/>
            </g>
            <g transform="matrix(3283.46,0,0,3283.46,10762.2,3010.85)">
                <path d="M0.05,-0l0.15,-0l0,-0.306c0.005,-0.028 0.021,-0.046 0.048,-0.053c0.038,-0.005 0.063,0.011 0.074,0.047l0,0.312l0.154,-0l0,-0.302c0.004,-0.033 0.022,-0.053 0.055,-0.059c0.038,0 0.06,0.019 0.067,0.055l0,0.306l0.15,-0l-0,-0.353c-0.012,-0.048 -0.038,-0.088 -0.078,-0.118c-0.087,-0.059 -0.169,-0.052 -0.245,0.021c-0.001,-0.002 -0.003,-0.004 -0.005,-0.006c-0.07,-0.067 -0.144,-0.072 -0.223,-0.016l-0.018,-0.027l-0.129,-0l-0,0.499Z" style="fill-rule:nonzero;"/>
            </g>
        </g>
        <path d="M39245.8,18268.8l-1691.76,-1056.26l4230.19,-847.767l-847.768,4230.19l-1056.25,-1691.76l-2662.24,3042.57l-1014.73,-1014.73l3042.57,-2662.24Zm7.959,4.969l0.353,0.353l0.081,-0.082l-0.434,-0.271Zm621.122,621.122l0.353,0.353l-0.271,-0.435l-0.082,0.082Z"/>
        <g>
            <rect x="3321.65" y="16134" width="4783.47" height="4783.38" style="fill:#fff;"/>
            <path d="M8223.23,21035.5l0,-5019.6l-5019.69,0l0,5019.6l5019.69,-0Zm-118.11,-4901.49l-4783.46,0l-0,4783.38l4783.46,-0l0,-4783.38Z"/>
            <path d="M5208.95,16852c-123.579,-0 -116.752,116.838 -116.752,116.838l0,206.109l-213.109,0c-109.839,0 -102.925,103.012 -102.925,103.012l-0,1288.16l89.357,147.777l130.493,96.098l109.838,1161.04l-1014.39,0l0,233.677l3540.5,0l0,-233.677l-1092.34,0l109.838,-1161.04l130.58,-96.098l89.27,-123.666l0,-1312.27c0,-0 6.914,-103.012 -102.925,-103.012l-213.109,0l0,-206.109c0,0 6.914,-116.838 -116.752,-116.838c0,-6.914 -1227.58,-6.914 -1227.58,-0Z" style="fill:#1c1c20;fill-rule:nonzero;"/>
            <path d="M5208.95,16852c-123.579,-0 -116.752,116.838 -116.752,116.838l0,206.109l-213.109,0c-109.839,0 -102.925,103.012 -102.925,103.012l-0,1288.16l89.357,147.777l130.493,96.098l109.838,1161.04l-1014.39,0l0,233.677l3540.5,0l0,-233.677l-1092.34,0l109.838,-1161.04l130.58,-96.098l89.27,-123.666l0,-1312.27c0,-0 6.914,-103.012 -102.925,-103.012l-213.109,0l0,-206.109c0,0 6.914,-116.838 -116.752,-116.838c0,-6.914 -1227.58,-6.914 -1227.58,-0Z" style="fill:none;fill-rule:nonzero;stroke:#1c1c20;stroke-width:7.81px;stroke-linecap:butt;stroke-linejoin:miter;stroke-miterlimit:3.864;"/>
            <rect x="5085.46" y="17463.5" width="1474.83" height="900.054" style="fill:#fff;"/>
            <rect x="5085.46" y="17463.5" width="1474.83" height="900.054" style="fill:none;stroke:#1c1c20;stroke-width:7.81px;stroke-linecap:butt;stroke-linejoin:miter;stroke-miterlimit:3.864;"/>
            <path d="M4791.12,18535.2l-370.91,948.103c-0,-0 -161.517,302.38 -429.416,175.171c-0,3.457 -278.269,-89.357 -171.801,-422.416c-3.457,-3.457 370.997,-1006.52 370.997,-1006.52l-0,-206.109l206.109,-552.996l75.617,0c-0,0 103.011,-360.713 271.355,-347.058c3.371,-3.457 68.79,10.283 17.111,48.135c0,-6.914 -219.763,109.925 -188.912,316.034c-3.456,0 116.925,192.455 116.925,192.455l0,47.963l116.752,-0l-13.827,807.24Z" style="fill:#1c1c20;fill-rule:nonzero;"/>
            <path d="M4791.12,18535.2l-370.91,948.103c-0,-0 -161.517,302.38 -429.416,175.171c-0,3.457 -278.269,-89.357 -171.801,-422.416c-3.457,-3.457 370.997,-1006.52 370.997,-1006.52l-0,-206.109l206.109,-552.996l75.617,0c-0,0 103.011,-360.713 271.355,-347.058c3.371,-3.457 68.79,10.283 17.111,48.135c0,-6.914 -219.763,109.925 -188.912,316.034c-3.456,0 116.925,192.455 116.925,192.455l0,47.963l116.752,-0l-13.827,807.24Z" style="fill:none;fill-rule:nonzero;stroke:#1c1c20;stroke-width:7.81px;stroke-linecap:butt;stroke-linejoin:miter;stroke-miterlimit:3.864;"/>
            <path d="M4495.74,18019.9l-58.419,120.209l-72.074,55.049l-395.021,1088.88c0,0 -58.419,175.345 75.617,230.221c-6.914,3.37 151.233,72.16 219.85,-96.012c-6.914,0 477.465,-1250.57 477.465,-1250.57c-0,-0 -65.247,-61.79 -54.876,-151.147c3.37,-0 -75.617,-0 -75.617,-0c0,-0 -106.468,65.246 -99.641,419.132c3.37,-3.457 -58.333,0 -58.333,0c0,0 3.457,-322.775 89.271,-415.675l-48.222,-0l0,-0.087Z" style="fill:#fff;"/>
            <path d="M4495.74,18019.9l-58.419,120.209l-72.074,55.049l-395.021,1088.88c0,0 -58.419,175.345 75.617,230.221c-6.914,3.37 151.233,72.16 219.85,-96.012c-6.914,0 477.465,-1250.57 477.465,-1250.57c-0,-0 -65.247,-61.79 -54.876,-151.147c3.37,-0 -75.617,-0 -75.617,-0c0,-0 -106.468,65.246 -99.641,419.132c3.37,-3.457 -58.333,0 -58.333,0c0,0 3.457,-322.775 89.271,-415.675l-48.222,-0l0,-0.087Z" style="fill:none;fill-rule:nonzero;stroke:#1c1c20;stroke-width:7.81px;stroke-linecap:butt;stroke-linejoin:miter;stroke-miterlimit:3.864;"/>
        </g>
        <g>
            <rect x="16792.2" y="24272" width="4783.55" height="4783.47" style="fill:#fff;"/>
            <path d="M21693.9,29173.6l0,-5019.69l-5019.77,0l-0,5019.69l5019.77,0Zm-118.11,-4901.57l-4783.55,0l0,4783.47l4783.55,-0l0,-4783.47Z"/>
            <path d="M19961.5,24805.9c61.013,0 57.21,49.519 57.21,49.519c0,0 -3.716,332.114 0,332.114c0,42.001 -42,42.001 -42,42.001l-351.04,-0l-0,171.717c-0,0 332.028,3.889 328.225,0c72.507,0 64.815,64.902 64.815,64.902c0,0 0,198.422 0,194.619c0,72.594 -68.704,68.705 -68.704,68.705c0,-0 -84.001,7.605 -84.001,-0c-267.126,-0 -240.422,255.718 -240.422,255.718l0,530.536l122.113,122.112c-0,0 -0,1710 -0,1706.29c-0,61.013 -106.816,61.013 -106.816,61.013c-80.199,-0 -118.396,49.692 -114.507,49.692c-0,57.21 -110.705,68.704 -110.705,68.704c-0,-0 -110.705,-11.494 -110.705,-68.704c3.803,-0 -34.309,-49.692 -114.421,-49.692c0,-0 -106.902,-0 -106.902,-61.013c-0,3.716 -0,-1706.29 -0,-1706.29l122.112,-122.112l0,-530.536c0,0 -19.012,-255.718 -313.015,-255.718l-507.634,-0c-0,-0 -30.593,-0 -30.593,-42.001c-0,0 -0,-255.632 -0,-251.829c-0,-38.284 34.395,-34.396 34.395,-34.396c-3.889,3.889 816.761,0 816.761,0l-0,-171.717l-824.366,-0c0,-0 -30.593,-0 -30.593,-30.593c-3.889,-3.716 0,-225.212 0,-225.212c0,-0 0,-34.223 34.309,-34.223l435.128,0l133.519,-133.606c0.087,0 1004.03,-3.802 1007.84,0Z" style="fill:#1c1c20;fill-rule:nonzero;"/>
            <path d="M19961.5,24805.9c61.013,0 57.21,49.519 57.21,49.519c0,0 -3.716,332.114 0,332.114c0,42.001 -42,42.001 -42,42.001l-351.04,-0l-0,171.717c-0,0 332.028,3.889 328.225,0c72.507,0 64.815,64.902 64.815,64.902c0,0 0,198.422 0,194.619c0,72.594 -68.704,68.705 -68.704,68.705c0,-0 -84.001,7.605 -84.001,-0c-267.126,-0 -240.422,255.718 -240.422,255.718l0,530.536l122.113,122.112c-0,0 -0,1710 -0,1706.29c-0,61.013 -106.816,61.013 -106.816,61.013c-80.199,-0 -118.396,49.692 -114.507,49.692c-0,57.21 -110.705,68.704 -110.705,68.704c-0,-0 -110.705,-11.494 -110.705,-68.704c3.803,-0 -34.309,-49.692 -114.421,-49.692c0,-0 -106.902,-0 -106.902,-61.013c-0,3.716 -0,-1706.29 -0,-1706.29l122.112,-122.112l0,-530.536c0,0 -19.012,-255.718 -313.015,-255.718l-507.634,-0c-0,-0 -30.593,-0 -30.593,-42.001c-0,0 -0,-255.632 -0,-251.829c-0,-38.284 34.395,-34.396 34.395,-34.396c-3.889,3.889 816.761,0 816.761,0l-0,-171.717l-824.366,-0c0,-0 -30.593,-0 -30.593,-30.593c-3.889,-3.716 0,-225.212 0,-225.212c0,-0 0,-34.223 34.309,-34.223l435.128,0l133.519,-133.606c0.087,0 1004.03,-3.802 1007.84,0Z" style="fill:none;fill-rule:nonzero;stroke:#1c1c20;stroke-width:8.69px;stroke-linecap:butt;stroke-linejoin:miter;stroke-miterlimit:3.864;"/>
        </g>
        <g>
            <rect x="3321.65" y="24272" width="4783.47" height="4783.29" style="fill:#fff;"/>
            <path d="M8223.23,29173.4l0,-5019.51l-5019.69,0l0,5019.51l5019.69,0Zm-118.11,-4901.4l-4783.46,0l-0,4783.29l4783.46,0l0,-4783.29Z"/>
            <path d="M6797.53,27772.8c251.907,321.646 -81.319,492.234 -81.319,492.234c-263.573,213.191 -457.407,-135.676 -457.407,-135.676l-507.876,-992.158c0,-0 -639.402,1034.93 -639.402,1030.87c-220.97,372.114 -507.703,135.676 -515.48,131.787c-302.375,-224.945 -3.889,-519.369 -3.889,-519.369c-0,0 891.396,-1058.18 891.396,-1062.16c104.651,-120.034 -58.159,-120.034 -69.739,-131.7c-453.519,-96.874 -627.909,-372.027 -627.909,-368.138c-368.311,-488.518 -279.129,-814.052 -279.129,-814.052c116.318,-383.78 461.297,-263.574 457.494,-267.462c472.79,124.095 643.292,596.885 647.181,600.86c50.381,108.454 155.032,678.291 155.032,678.291c0,-0 69.739,-93.158 124.096,-441.939c-0,7.864 3.802,-209.217 248.104,-500.098c3.803,0 100.677,-170.329 368.139,-329.337c-0,0 182.081,-81.405 104.738,77.43c-3.976,3.889 -348.868,511.678 -348.868,511.678c0,-0 -11.58,23.246 11.667,38.974c7.777,0 23.16,11.494 46.492,-7.864c3.803,-7.777 364.423,-511.764 364.423,-511.764c-0,0 30.937,-46.493 89.096,-15.469c48.221,44.937 24.024,94.282 24.024,94.282c0,-0 -359.064,504.85 -365.2,511.159c-10.802,28.172 5.185,39.147 7.778,46.406c22.209,17.024 40.443,-1.555 40.443,-1.555c-0,-0 367.879,-491.456 370.299,-496.469c124.959,-125.132 107.244,73.714 107.244,73.714c-63.085,304.622 -192.884,451.704 -191.674,455.42c-195.39,325.535 -384.471,468.21 -520.32,526.455c-3.802,3.716 -104.565,19.271 -158.748,124.009c-7.864,0 -104.738,162.638 -104.738,162.638c-0,0 810.163,1042.97 814.052,1039Z" style="fill:#1c1c20;fill-rule:nonzero;"/>
        </g>
        <g>
            <rect x="10056.9" y="24272" width="4783.55" height="4783.47" style="fill:#fff;"/>
            <path d="M14958.6,29173.6l-0,-5019.69l-5019.77,0l0,5019.69l5019.77,0Zm-118.111,-4901.57l-4783.55,0l0,4783.47l4783.55,-0l0,-4783.47Z"/>
            <path d="M13704.4,26077.8c92.47,0 167.483,75.1 167.483,167.483l-0,376.707l-2051.02,0l0,-544.19l1883.54,0Z" style="fill:#1c1c20;fill-rule:nonzero;"/>
            <path d="M13704.4,26077.8c92.47,0 167.483,75.1 167.483,167.483l-0,376.707l-2051.02,0l0,-544.19l1883.54,0Z" style="fill:none;fill-rule:nonzero;stroke:#1c1c20;stroke-width:8.37px;stroke-linecap:butt;stroke-linejoin:miter;stroke-miterlimit:3.864;"/>
            <path d="M10941.8,26705.6l3013.83,0l0,-460.362c0,-92.383 74.927,-167.483 167.397,-167.483c92.47,0 167.483,75.1 167.483,167.483l-0,1339.43l-334.88,0l0,-502.362l-3013.83,-0l-0,502.362l-334.794,0l0,-1674.23c0,-92.557 74.927,-167.397 167.483,-167.397c92.47,0 167.397,74.84 167.397,167.397l-0,795.155l-0.086,0Z" style="fill:#1c1c20;fill-rule:nonzero;"/>
            <path d="M10941.8,26705.6l3013.83,0l0,-460.362c0,-92.383 74.927,-167.483 167.397,-167.483c92.47,0 167.483,75.1 167.483,167.483l-0,1339.43l-334.88,0l0,-502.362l-3013.83,-0l-0,502.362l-334.794,0l0,-1674.23c0,-92.557 74.927,-167.397 167.483,-167.397c92.47,0 167.397,74.84 167.397,167.397l-0,795.155l-0.086,0Z" style="fill:none;fill-rule:nonzero;stroke:#1c1c20;stroke-width:8.37px;stroke-linecap:butt;stroke-linejoin:miter;stroke-miterlimit:3.864;"/>
            <path d="M11025.6,26622l0,-334.879c0,-0 20.828,-209.311 355.794,-209.311c334.88,0 355.707,209.311 355.707,209.311l-0,334.879l-711.501,0Z" style="fill:#1c1c20;fill-rule:nonzero;"/>
            <path d="M11025.6,26622l0,-334.879c0,-0 20.828,-209.311 355.794,-209.311c334.88,0 355.707,209.311 355.707,209.311l-0,334.879l-711.501,0Z" style="fill:none;fill-rule:nonzero;stroke:#1c1c20;stroke-width:8.37px;stroke-linecap:butt;stroke-linejoin:miter;stroke-miterlimit:3.864;"/>
        </g>
    </g>
    <path d="M44076.8,40391.7c0,1232.03 -1000.25,2232.28 -2232.28,2232.28l-38765.3,0c-1232.03,0 -2232.28,-1000.25 -2232.28,-2232.28l-0,-5271.72c-0,-1232.03 1000.25,-2232.28 2232.28,-2232.28l38765.3,0c1232.03,0 2232.28,1000.25 2232.28,2232.28l0,5271.72Z" style="fill:none;stroke:#000;stroke-width:637.8px;"/>
    <path d="M39890.6,37458.3l-1295.43,299.582l1594.49,-2393.77l1594.49,2393.77l-1295.43,-299.582l179.286,2689.28l-956.693,-0l179.286,-2689.28Zm6.094,-1.409l0.333,-0l0,-0.077l-0.333,0.077Zm585.6,-0l0.333,-0l-0.333,-0.077l0,0.077Z"/>
    <path d="M9981.86,39524.7c-235.315,420.284 -190.989,808.827 132.98,1165.63c282.378,245.713 589.655,282.105 921.833,109.176l27.088,72.236l485.132,-1.642l-0.821,-2183.5l-526.996,0l-1.642,559.831c-188.799,-107.807 -386.901,-129.15 -594.307,-64.028c-186.063,64.575 -333.819,178.675 -443.267,342.301Zm1036.75,366.928c4.378,86.464 4.378,173.202 0,260.214c-31.192,163.079 -128.602,258.847 -292.228,287.303c-203.575,3.831 -325.884,-93.578 -366.927,-292.228c-6.02,-85.37 -4.378,-170.193 4.925,-254.468c32.288,-150.493 123.677,-241.882 274.169,-274.17c202.481,-14.228 329.168,76.888 380.061,273.349Z" style="fill-rule:nonzero;"/>
    <path d="M11782.8,40311.9c99.051,328.894 316.581,528.364 652.588,598.412c345.859,46.515 650.126,-45.148 912.804,-274.991l-342.302,-344.763c-111.637,98.504 -241.882,151.86 -390.732,160.068c-168.004,4.378 -281.283,-72.236 -339.838,-229.842l1095.86,-0c27.362,-166.362 13.407,-328.894 -41.864,-487.595c-166.91,-418.641 -474.461,-604.157 -922.654,-556.547l-7.388,1.642c-306.456,65.122 -509.758,245.713 -609.903,541.772l-1.642,4.925c-54.177,195.366 -55.819,391.006 -4.925,586.919Zm496.624,-480.207c31.193,-112.185 103.155,-184.147 215.888,-215.887c176.759,-24.626 293.87,47.336 351.33,215.887l-567.218,0Z" style="fill-rule:nonzero;"/>
    <path d="M16810.6,39026.4c-96.862,-193.725 -242.156,-338.471 -435.88,-434.238c-540.13,-201.934 -959.866,-56.367 -1259.21,436.7c-196.46,449.288 -199.47,899.67 -9.029,1351.15c98.504,203.028 249.27,353.793 452.297,452.297c546.697,198.103 968.349,47.063 1264.95,-453.118c178.949,-452.571 174.571,-903.5 -13.134,-1352.79Zm-407.971,994.069c-4.925,25.72 -11.765,50.893 -20.521,75.519c-118.752,247.902 -310.835,336.555 -576.248,265.961c-159.795,-60.744 -256.11,-174.571 -288.945,-341.48c-18.606,-158.701 -21.89,-317.402 -9.85,-476.103c2.736,-26.267 4.651,-52.535 5.746,-78.803c15.322,-217.256 127.234,-357.077 335.734,-419.462c39.949,-10.945 80.445,-16.144 121.488,-15.597c269.791,29.551 415.358,179.496 436.701,449.835l0.821,5.746c18.606,177.854 16.964,355.982 -4.926,534.384Z" style="fill-rule:nonzero;"/>
    <path d="M20025.2,40499c-43.233,1.094 -85.918,-3.284 -128.055,-13.134c-40.496,-16.965 -60.197,-47.611 -59.103,-91.937l0,-718.258c-6.019,-232.579 -119.299,-386.902 -339.838,-462.969c-407.15,-132.433 -778.181,-65.395 -1113.1,201.113l245.439,391.553c64.028,-60.744 136.538,-108.902 217.53,-144.473c107.807,-49.252 220.265,-64.575 337.376,-45.968c26.267,6.019 50.893,15.596 73.878,28.73c28.456,16.417 46.789,40.496 54.998,72.236c1.641,13.681 -3.01,24.626 -13.955,32.835c-20.248,7.661 -41.043,13.134 -62.386,16.417l-440.805,76.341c-199.744,53.082 -338.47,175.392 -416.179,366.927c-64.028,311.929 49.252,533.837 339.838,665.722c255.563,88.107 490.331,49.526 704.304,-115.742c115.468,115.469 254.742,167.731 417.82,156.786l182.233,-416.179Zm-1090.11,-58.282c-21.343,-13.134 -36.666,-31.74 -45.969,-55.819c-16.965,-64.027 4.652,-110.269 64.848,-138.726c16.965,-7.114 34.477,-12.587 52.536,-16.418c101.787,-15.87 202.754,-35.023 302.899,-57.46l-0.82,171.561c-12.587,41.59 -38.034,72.51 -76.341,92.758c-98.504,48.157 -197.555,49.525 -297.153,4.104Z" style="fill-rule:nonzero;"/>
    <path d="M21538,40871.7l1663.9,-0l-0,-490.878l-737.138,-0c103.976,-81.54 204.396,-167.183 301.258,-256.931c130.244,-102.335 241.061,-222.729 332.451,-361.181c193.177,-432.87 111.09,-804.723 -246.26,-1115.56c-499.634,-276.906 -936.609,-199.745 -1310.92,231.484c-76.615,183.327 -113.006,374.588 -109.176,573.785l549.981,0c0.547,-67.311 5.746,-134.075 15.596,-200.291c32.288,-142.284 119.573,-229.843 261.856,-262.677c197.556,-16.418 322.874,71.141 375.957,262.677c2.736,113.279 -24.9,218.624 -82.907,316.033c-111.091,122.036 -234.221,231.211 -369.39,327.526l-407.15,311.929c-58.555,44.327 -114.1,91.937 -166.636,142.831c-48.157,60.744 -71.962,129.697 -71.415,206.858l0,314.392Z" style="fill-rule:nonzero;"/>
    <path d="M25325.5,40534.3l293.871,-0l-0,-508.937l-293.871,-0l0,-1485.77l-664.901,0l-1102.42,1533.38l-0,461.327l1222.27,-0l0,335.734l545.055,0l0,-335.734Zm-545.055,-508.937l-602.515,-0l603.336,-797.061l-0.821,797.061Z" style="fill-rule:nonzero;"/>
    <path d="M28660.7,39737.3c-22.437,-203.575 -119.847,-360.634 -292.229,-471.177l-4.925,-3.284c-251.732,-140.642 -501.549,-137.905 -749.451,8.209l0.821,-727.288l-520.429,0l-0,2324.69l2.463,4.105l517.966,-0l0,-987.502c22.984,-128.603 98.504,-204.396 226.559,-227.38c158.701,-3.831 254.469,71.962 287.303,227.38l0,983.397l531.922,0l-0,-1131.15Z" style="fill-rule:nonzero;"/>
    <path d="M11369.1,36538.6c-43.232,1.094 -85.917,-3.284 -128.055,-13.134c-40.496,-16.965 -60.197,-47.61 -59.102,-91.937l-0,-718.258c-6.02,-232.579 -119.299,-386.902 -339.839,-462.969c-407.149,-132.433 -778.181,-65.395 -1113.09,201.113l245.439,391.553c64.027,-60.744 136.537,-108.902 217.529,-144.473c107.807,-49.252 220.266,-64.574 337.376,-45.968c26.268,6.02 50.894,15.596 73.878,28.73c28.457,16.417 46.79,40.496 54.998,72.236c1.642,13.681 -3.01,24.626 -13.955,32.835c-20.248,7.661 -41.043,13.134 -62.385,16.417l-440.805,76.341c-199.745,53.083 -338.471,175.392 -416.18,366.927c-64.027,311.929 49.252,533.837 339.839,665.722c255.563,88.107 490.331,49.526 704.303,-115.742c115.469,115.469 254.742,167.731 417.821,156.786l182.232,-416.179Zm-1090.11,-58.282c-21.342,-13.134 -36.665,-31.74 -45.968,-55.819c-16.965,-64.027 4.651,-110.269 64.848,-138.726c16.965,-7.114 34.476,-12.587 52.535,-16.417c101.788,-15.871 202.754,-35.024 302.9,-57.461l-0.821,171.561c-12.586,41.591 -38.033,72.51 -76.34,92.758c-98.504,48.157 -197.556,49.525 -297.154,4.104Z" style="fill-rule:nonzero;"/>
    <path d="M13688.1,36909.6l0.821,-2327.98l-476.923,-0l-0,101.787c-20.795,132.433 -97.683,207.132 -230.664,224.097l-210.962,0.82l-0,483.491l399.762,-0.821l-0,1518.6l517.966,0Z" style="fill-rule:nonzero;"/>
    <path d="M16039.9,35066c-96.863,-193.725 -242.156,-338.471 -435.88,-434.238c-540.13,-201.933 -959.866,-56.367 -1259.21,436.7c-196.461,449.288 -199.47,899.67 -9.029,1351.15c98.503,203.028 249.269,353.793 452.297,452.297c546.697,198.103 968.348,47.063 1264.95,-453.118c178.948,-452.571 174.57,-903.5 -13.134,-1352.79Zm-407.971,994.069c-4.925,25.72 -11.766,50.893 -20.521,75.519c-118.752,247.902 -310.835,336.555 -576.249,265.961c-159.795,-60.744 -256.11,-174.571 -288.944,-341.48c-18.607,-158.701 -21.89,-317.402 -9.851,-476.103c2.736,-26.267 4.652,-52.535 5.746,-78.803c15.323,-217.256 127.235,-357.077 335.735,-419.462c39.948,-10.945 80.444,-16.144 121.488,-15.597c269.791,29.551 415.358,179.496 436.701,449.835l0.82,5.746c18.607,177.854 16.965,355.982 -4.925,534.384Z" style="fill-rule:nonzero;"/>
    <path d="M19169,36910.4l-627.962,-1022.8l595.949,-655.051l-690.349,-0l-396.478,420.283l0.821,-1049.89l-536.847,0l0,2309.1l536.026,-0l-0,-532.742l109.175,-109.996l423.567,641.917l586.098,-0.821Z" style="fill-rule:nonzero;"/>
    <path d="M19477.6,36909.6l492.52,0l-0,-1002.28c15.323,-93.032 68.405,-151.587 159.248,-175.666c124.224,-14.775 204.943,37.213 242.155,155.965l0,1021.98l504.833,0l-0,-989.144c11.492,-111.09 72.236,-175.939 182.232,-194.545c123.13,0 196.187,60.471 219.171,181.412l0,1002.28l493.341,0l-1.642,-1156.6c-38.307,-159.796 -123.13,-289.492 -254.468,-389.091c-286.756,-193.724 -554.906,-170.466 -804.449,69.774c-5.472,-6.567 -11.219,-13.134 -17.238,-19.701c-229.843,-219.992 -474.187,-237.504 -733.034,-52.535l-57.46,-90.296l-425.209,0l0,1638.45Z" style="fill-rule:nonzero;"/>
    <g>
        <rect x="3321.65" y="35343.6" width="4783.47" height="4783.38" style="fill:#fff;"/>
        <path d="M8223.23,40245.1l0,-5019.6l-5019.69,0l0,5019.6l5019.69,-0Zm-118.11,-4901.49l-4783.46,0l-0,4783.38l4783.46,-0l0,-4783.38Z"/>
        <path d="M5208.95,36061.6c-123.579,-0 -116.752,116.838 -116.752,116.838l0,206.109l-213.109,0c-109.839,0 -102.925,103.012 -102.925,103.012l-0,1288.16l89.357,147.777l130.493,96.098l109.838,1161.04l-1014.39,0l0,233.677l3540.5,0l0,-233.677l-1092.34,0l109.838,-1161.04l130.58,-96.098l89.27,-123.666l0,-1312.27c0,-0 6.914,-103.012 -102.925,-103.012l-213.109,0l0,-206.109c0,0 6.914,-116.838 -116.752,-116.838c0,-6.914 -1227.58,-6.914 -1227.58,-0Z" style="fill:#1c1c20;fill-rule:nonzero;"/>
        <path d="M5208.95,36061.6c-123.579,-0 -116.752,116.838 -116.752,116.838l0,206.109l-213.109,0c-109.839,0 -102.925,103.012 -102.925,103.012l-0,1288.16l89.357,147.777l130.493,96.098l109.838,1161.04l-1014.39,0l0,233.677l3540.5,0l0,-233.677l-1092.34,0l109.838,-1161.04l130.58,-96.098l89.27,-123.666l0,-1312.27c0,-0 6.914,-103.012 -102.925,-103.012l-213.109,0l0,-206.109c0,0 6.914,-116.838 -116.752,-116.838c0,-6.914 -1227.58,-6.914 -1227.58,-0Z" style="fill:none;fill-rule:nonzero;stroke:#1c1c20;stroke-width:7.81px;stroke-linecap:butt;stroke-linejoin:miter;stroke-miterlimit:3.864;"/>
        <rect x="5085.46" y="36673.1" width="1474.83" height="900.054" style="fill:#fff;"/>
        <rect x="5085.46" y="36673.1" width="1474.83" height="900.054" style="fill:none;stroke:#1c1c20;stroke-width:7.81px;stroke-linecap:butt;stroke-linejoin:miter;stroke-miterlimit:3.864;"/>
        <path d="M4791.12,37744.8l-370.91,948.103c-0,-0 -161.517,302.38 -429.416,175.171c-0,3.457 -278.269,-89.357 -171.801,-422.416c-3.457,-3.457 370.997,-1006.52 370.997,-1006.52l-0,-206.109l206.109,-552.996l75.617,0c-0,0 103.011,-360.713 271.355,-347.058c3.371,-3.457 68.79,10.283 17.111,48.135c0,-6.914 -219.763,109.925 -188.912,316.034c-3.456,0 116.925,192.455 116.925,192.455l0,47.963l116.752,-0l-13.827,807.24Z" style="fill:#1c1c20;fill-rule:nonzero;"/>
        <path d="M4791.12,37744.8l-370.91,948.103c-0,-0 -161.517,302.38 -429.416,175.171c-0,3.457 -278.269,-89.357 -171.801,-422.416c-3.457,-3.457 370.997,-1006.52 370.997,-1006.52l-0,-206.109l206.109,-552.996l75.617,0c-0,0 103.011,-360.713 271.355,-347.058c3.371,-3.457 68.79,10.283 17.111,48.135c0,-6.914 -219.763,109.925 -188.912,316.034c-3.456,0 116.925,192.455 116.925,192.455l0,47.963l116.752,-0l-13.827,807.24Z" style="fill:none;fill-rule:nonzero;stroke:#1c1c20;stroke-width:7.81px;stroke-linecap:butt;stroke-linejoin:miter;stroke-miterlimit:3.864;"/>
        <path d="M4495.74,37229.5l-58.419,120.209l-72.074,55.049l-395.021,1088.88c0,0 -58.419,175.345 75.617,230.221c-6.914,3.37 151.233,72.16 219.85,-96.012c-6.914,0 477.465,-1250.57 477.465,-1250.57c-0,-0 -65.247,-61.79 -54.876,-151.147c3.37,-0 -75.617,-0 -75.617,-0c0,-0 -106.468,65.246 -99.641,419.132c3.37,-3.457 -58.333,0 -58.333,0c0,0 3.457,-322.775 89.271,-415.675l-48.222,-0l0,-0.087Z" style="fill:#fff;"/>
        <path d="M4495.74,37229.5l-58.419,120.209l-72.074,55.049l-395.021,1088.88c0,0 -58.419,175.345 75.617,230.221c-6.914,3.37 151.233,72.16 219.85,-96.012c-6.914,0 477.465,-1250.57 477.465,-1250.57c-0,-0 -65.247,-61.79 -54.876,-151.147c3.37,-0 -75.617,-0 -75.617,-0c0,-0 -106.468,65.246 -99.641,419.132c3.37,-3.457 -58.333,0 -58.333,0c0,0 3.457,-322.775 89.271,-415.675l-48.222,-0l0,-0.087Z" style="fill:none;fill-rule:nonzero;stroke:#1c1c20;stroke-width:7.81px;stroke-linecap:butt;stroke-linejoin:miter;stroke-miterlimit:3.864;"/>
    </g>
</svg>
