<?xml version="1.0" encoding="UTF-8" standalone="no"?>
<!DOCTYPE svg PUBLIC "-//W3C//DTD SVG 1.1//EN" "http://www.w3.org/Graphics/SVG/1.1/DTD/svg11.dtd">
<svg width="100%" height="100%" viewBox="0 0 61643 32063" version="1.1" xmlns="http://www.w3.org/2000/svg" xmlns:xlink="http://www.w3.org/1999/xlink" xml:space="preserve" style="fill-rule:evenodd;clip-rule:evenodd;stroke-linecap:round;stroke-linejoin:round;stroke-miterlimit:1.5;">
    <g id="g4799">
    </g>
    <path d="M60416.2,4308.36c0,-1642.71 -1333.67,-2976.38 -2976.38,-2976.38l-53236.7,0c-1642.71,0 -2976.38,1333.67 -2976.38,2976.38l-0,23395.2c-0,1642.71 1333.67,2976.38 2976.38,2976.38l53236.7,0c1642.71,0 2976.38,-1333.67 2976.38,-2976.38l0,-23395.2Z" style="fill:#003fff;"/>
    <path d="M61479.2,4308.36c0,-2229.39 -1809.98,-4039.37 -4039.37,-4039.37c0,0 -53236.7,0 -53236.7,0c-2229.39,0 -4039.37,1809.98 -4039.37,4039.37l-0,23395.2c-0,2229.39 1809.98,4039.37 4039.37,4039.37l53236.7,-0c2229.39,-0 4039.37,-1809.98 4039.37,-4039.37c0,0 0,-23395.2 0,-23395.2Zm-1062.99,0c0,-1642.71 -1333.67,-2976.38 -2976.38,-2976.38l-53236.7,0c-1642.71,0 -2976.38,1333.67 -2976.38,2976.38l-0,23395.2c-0,1642.71 1333.67,2976.38 2976.38,2976.38l53236.7,0c1642.71,0 2976.38,-1333.67 2976.38,-2976.38l0,-23395.2Z"/>
    <path d="M61266.6,4308.36c-0,-2112.05 -1714.72,-3826.77 -3826.77,-3826.77c0,0 -53236.7,0 -53236.7,0c-2112.05,0 -3826.77,1714.72 -3826.77,3826.77l0,23395.2c0,2112.05 1714.72,3826.77 3826.77,3826.77l53236.7,0c2112.05,0 3826.77,-1714.72 3826.77,-3826.77c-0,0 -0,-23395.2 -0,-23395.2Zm-850.394,0c0,-1642.71 -1333.67,-2976.38 -2976.38,-2976.38l-53236.7,0c-1642.71,0 -2976.38,1333.67 -2976.38,2976.38l-0,23395.2c-0,1642.71 1333.67,2976.38 2976.38,2976.38l53236.7,0c1642.71,0 2976.38,-1333.67 2976.38,-2976.38l0,-23395.2Z" style="fill:#003fff;"/>
    <path d="M60416.2,4308.36c0,-1642.71 -1333.67,-2976.38 -2976.38,-2976.38l-30083.5,0c-1642.71,0 -2976.38,1333.67 -2976.38,2976.38l-0,3071.88c-0,1642.71 1333.67,2976.38 2976.38,2976.38l30083.5,-0c1642.71,-0 2976.38,-1333.67 2976.38,-2976.38l0,-3071.88Z" style="fill:none;stroke:#fff;stroke-width:850.39px;"/>
    <path d="M22746.4,4308.36c-0,-1642.71 -1333.67,-2976.38 -2976.38,-2976.38l-15566.8,0c-1642.71,0 -2976.38,1333.67 -2976.38,2976.38l-0,3071.88c-0,1642.71 1333.67,2976.38 2976.38,2976.38l15566.8,-0c1642.71,-0 2976.38,-1333.67 2976.38,-2976.38l-0,-3071.88Z" style="fill:none;stroke:#fff;stroke-width:850.39px;"/>
    <path d="M30164.4,2885.41l-741.621,0l-1998.13,6285.13l2471.52,-0l268.232,-6285.13Zm1672.25,1789.95l1760.88,-1164.06l-1414.49,-625.888l2575.33,0l-0,2699.41l-589.807,-1507.42l-1841.19,2141.55l938.353,2951.59l-2471.52,-0l-268.232,-6285.13l741.621,0l569.049,1789.95Z" style="fill:#fff;"/>
    <path d="M49079.3,5217.57l702.018,76.403c-2.215,-88.583 22.515,-169.046 74.188,-241.388c10.334,-11.811 21.407,-23.253 33.218,-34.326c259.105,-195.62 508.982,-184.547 749.631,33.219c2.953,4.429 5.537,9.227 7.751,14.394c67.914,175.689 21.777,313.361 -138.41,413.017c-37.648,13.287 -76.772,21.407 -117.372,24.36l-364.297,0l0,649.976l447.343,-0c26.575,3.691 51.673,10.703 75.295,21.038c155.02,85.63 204.848,212.598 149.484,380.906c-41.339,70.127 -96.703,126.23 -166.093,168.307c-269.439,130.659 -493.11,76.033 -671.014,-163.878c-41.338,-65.699 -66.806,-136.934 -76.402,-213.706l-734.129,129.552c16.978,165.354 69.39,318.529 157.234,459.523c52.411,71.604 111.467,137.672 177.165,198.203c632.628,477.609 1242.74,449.558 1830.34,-84.153c235.482,-298.967 275.714,-622.293 120.694,-969.98c-71.605,-116.634 -165.724,-211.122 -282.357,-283.465c107.775,-68.652 193.774,-158.341 257.997,-269.07c201.525,-437.746 105.93,-796.506 -286.787,-1076.28c-641.486,-388.288 -1229.08,-319.267 -1762.8,207.062c-114.419,169.045 -175.32,355.807 -182.702,560.285Z" style="fill:#fff;fill-rule:nonzero;"/>
    <path d="M52066.7,7402.24l2244.46,0l0,-662.155l-994.34,-0c140.256,-109.99 275.714,-225.517 406.373,-346.58c175.689,-138.041 325.172,-300.443 448.45,-487.205c260.58,-583.907 149.852,-1085.51 -332.185,-1504.8c-673.967,-373.523 -1263.41,-269.439 -1768.33,312.254c-103.346,247.293 -152.436,505.29 -147.269,773.991l741.88,0c0.738,-90.797 7.751,-180.856 21.039,-270.177c43.553,-191.929 161.294,-310.039 353.223,-354.331c266.486,-22.145 435.532,95.965 507.136,354.331c3.691,152.805 -33.588,294.907 -111.836,426.304c-149.852,164.616 -315.945,311.885 -498.277,441.806l-549.213,420.768c-78.986,59.793 -153.912,124.016 -224.778,192.667c-64.961,81.939 -97.072,174.951 -96.334,279.036l-0,424.089Z" style="fill:#fff;fill-rule:nonzero;"/>
    <path d="M55059.7,4892.03c-92.274,254.675 -147.638,517.101 -166.092,787.278c-67.914,464.321 17.716,898.376 256.889,1302.17c443.652,524.852 968.873,625.615 1575.66,302.288c125.492,-87.106 230.315,-194.513 314.468,-322.219c333.662,-631.89 221.088,-1170.77 -337.721,-1616.63l-3.322,-2.215c-337.352,-179.38 -675.443,-180.856 -1014.27,-4.429c3.691,-175.689 82.308,-306.348 235.852,-391.978c247.293,-98.918 442.175,-36.172 584.645,188.238l659.941,-245.817l-2.214,-5.537c-123.278,-266.486 -318.898,-460.629 -586.861,-582.431c-668.799,-221.456 -1174.46,-24.36 -1516.98,591.29Zm1342.03,1131.64c129.183,209.646 121.063,414.124 -24.361,613.435c-19.192,20.67 -40.6,39.494 -64.222,56.472c-220.719,128.445 -414.862,95.965 -582.431,-97.441c-124.754,-197.835 -119.587,-391.978 15.502,-582.431c18.455,-22.146 39.124,-42.446 62.008,-60.901c217.027,-140.256 414.862,-116.634 593.504,70.866Z" style="fill:#fff;fill-rule:nonzero;"/>
    <path d="M5331.18,7417.59l1.107,-3140.26l-643.331,0l-0,137.303c-28.052,178.642 -131.767,279.405 -311.147,302.289l-284.572,1.107l0,652.19l539.247,-1.107l0,2048.47l698.696,0Z" style="fill:#fff;fill-rule:nonzero;"/>
    <path d="M8503.54,4930.63c-130.659,-261.319 -326.649,-456.57 -587.967,-585.753c-728.593,-272.391 -1294.78,-76.033 -1698.57,589.075c-265.01,606.053 -269.07,1213.58 -12.18,1822.59c132.874,273.868 336.245,477.239 610.113,610.113c737.451,267.224 1306.23,63.484 1706.32,-611.22c241.387,-610.483 235.482,-1218.75 -17.717,-1824.8Zm-550.32,1340.92c-6.643,34.695 -15.871,68.651 -27.682,101.87c-160.187,334.399 -419.291,453.986 -777.313,358.76c-215.551,-81.939 -345.472,-235.483 -389.764,-460.63c-25.098,-214.075 -29.527,-428.15 -13.287,-642.225c3.691,-35.433 6.275,-70.866 7.751,-106.299c20.669,-293.061 171.629,-481.668 452.879,-565.822c53.888,-14.764 108.514,-21.776 163.878,-21.038c363.927,39.862 560.285,242.126 589.075,606.791l1.107,7.751c25.098,239.912 22.884,480.192 -6.644,720.842Z" style="fill:#fff;fill-rule:nonzero;"/>
    <path d="M11673.7,4930.63c-130.66,-261.319 -326.649,-456.57 -587.968,-585.753c-728.592,-272.391 -1294.78,-76.033 -1698.57,589.075c-265.01,606.053 -269.07,1213.58 -12.18,1822.59c132.874,273.868 336.245,477.239 610.113,610.113c737.451,267.224 1306.23,63.484 1706.32,-611.22c241.388,-610.483 235.482,-1218.75 -17.716,-1824.8Zm-550.32,1340.92c-6.644,34.695 -15.871,68.651 -27.682,101.87c-160.187,334.399 -419.292,453.986 -777.313,358.76c-215.551,-81.939 -345.473,-235.483 -389.764,-460.63c-25.099,-214.075 -29.528,-428.15 -13.287,-642.225c3.69,-35.433 6.274,-70.866 7.75,-106.299c20.67,-293.061 171.629,-481.668 452.879,-565.822c53.888,-14.764 108.514,-21.776 163.878,-21.038c363.928,39.862 560.286,242.126 589.075,606.791l1.107,7.751c25.099,239.912 22.884,480.192 -6.643,720.842Z" style="fill:#fff;fill-rule:nonzero;"/>
    <path d="M14843.8,4930.63c-130.659,-261.319 -326.648,-456.57 -587.967,-585.753c-728.593,-272.391 -1294.78,-76.033 -1698.57,589.075c-265.01,606.053 -269.07,1213.58 -12.18,1822.59c132.874,273.868 336.245,477.239 610.113,610.113c737.451,267.224 1306.23,63.484 1706.32,-611.22c241.388,-610.483 235.482,-1218.75 -17.717,-1824.8Zm-550.32,1340.92c-6.643,34.695 -15.871,68.651 -27.682,101.87c-160.187,334.399 -419.291,453.986 -777.313,358.76c-215.551,-81.939 -345.472,-235.483 -389.764,-460.63c-25.098,-214.075 -29.527,-428.15 -13.287,-642.225c3.691,-35.433 6.275,-70.866 7.751,-106.299c20.669,-293.061 171.629,-481.668 452.879,-565.822c53.888,-14.764 108.514,-21.776 163.878,-21.038c363.927,39.862 560.285,242.126 589.075,606.791l1.107,7.751c25.098,239.912 22.884,480.192 -6.644,720.842Z" style="fill:#fff;fill-rule:nonzero;"/>
    <path d="M16832.5,7417.59l664.37,0l0,-1351.99c20.67,-125.492 92.274,-204.478 214.813,-236.959c167.569,-19.931 276.452,50.197 326.649,210.384l0,1378.57l680.979,0l0,-1334.28c15.502,-149.852 97.441,-237.327 245.817,-262.426c166.093,0 264.641,81.57 295.645,244.71l-0,1351.99l665.477,0l-2.214,-1560.16c-51.673,-215.552 -166.093,-390.502 -343.258,-524.853c-386.811,-261.319 -748.524,-229.946 -1085.14,94.119c-7.382,-8.858 -15.133,-17.716 -23.253,-26.574c-310.039,-296.752 -639.641,-320.374 -988.804,-70.867l-77.51,-121.801l-573.573,0l0,2210.14Z" style="fill:#fff;fill-rule:nonzero;"/>
    <path d="M60416.2,15012.2c0,-1642.71 -1333.67,-2976.38 -2976.38,-2976.38l-53236.7,-0c-1642.71,-0 -2976.38,1333.67 -2976.38,2976.38l-0,12691.3c-0,1642.71 1333.67,2976.38 2976.38,2976.38l53236.7,0c1642.71,0 2976.38,-1333.67 2976.38,-2976.38l0,-12691.3Z" style="fill:none;stroke:#fff;stroke-width:850.39px;"/>
    <g>
        <g>
            <path d="M4965.85,16790.7l1042.32,3059.06l1058.56,-0l4.429,-1.477l946.358,-3057.58l-977.362,-0l-521.162,1731.79l0,8.858l-571.358,-1740.65l-981.791,-0Z" style="fill:#fff;fill-rule:nonzero;"/>
            <rect x="8563.78" y="16809.9" width="972.933" height="3038.39" style="fill:#fff;fill-rule:nonzero;"/>
            <path d="M13134.7,19179.5c-77.756,1.969 -154.527,-5.905 -230.315,-23.622c-72.835,-30.512 -108.268,-85.63 -106.299,-165.354l-0,-1291.83c-10.827,-418.307 -214.567,-695.866 -611.221,-832.677c-732.283,-238.189 -1399.61,-117.618 -2001.97,361.712l441.437,704.233c115.157,-109.252 245.571,-195.866 391.24,-259.843c193.898,-88.582 396.162,-116.142 606.791,-82.677c47.245,10.827 91.536,28.051 132.874,51.673c51.182,29.528 84.154,72.835 98.918,129.922c2.953,24.606 -5.414,44.291 -25.099,59.055c-36.417,13.779 -73.819,23.622 -112.204,29.527l-792.815,137.303c-359.252,95.473 -608.76,315.453 -748.524,659.941c-115.157,561.024 88.583,960.138 611.221,1197.34c459.645,158.464 881.889,89.075 1266.73,-208.169c207.677,207.677 458.169,301.673 751.476,281.988l327.756,-748.524Zm-1960.63,-104.823c-38.386,-23.622 -65.945,-57.086 -82.677,-100.393c-30.512,-115.158 8.366,-198.327 116.634,-249.508c30.512,-12.796 62.008,-22.638 94.488,-29.528c183.071,-28.543 364.665,-62.992 544.784,-103.346l-1.477,308.563c-22.638,74.803 -68.405,130.413 -137.303,166.83c-177.165,86.615 -355.315,89.075 -534.449,7.382Z" style="fill:#fff;fill-rule:nonzero;"/>
            <path d="M16230.6,17427c-423.229,755.906 -343.504,1454.73 239.173,2096.46c507.874,441.929 1060.53,507.382 1657.97,196.358l48.721,129.922l872.539,-2.953l-1.476,-3927.16l-947.835,-0l-2.953,1006.89c-339.567,-193.897 -695.866,-232.283 -1068.9,-115.157c-334.646,116.142 -600.394,321.358 -797.244,615.649Zm1864.66,659.941c7.874,155.512 7.874,311.516 0,468.012c-56.102,293.307 -231.299,465.551 -525.591,516.733c-366.141,6.889 -586.122,-168.308 -659.94,-525.591c-10.827,-153.543 -7.874,-306.102 8.858,-457.677c58.071,-270.669 222.441,-435.04 493.11,-493.11c364.173,-25.591 592.028,138.287 683.563,491.633Z" style="fill:#fff;fill-rule:nonzero;"/>
            <path d="M19440.3,18842.9c178.15,591.535 569.39,950.295 1173.72,1076.28c622.047,83.662 1169.29,-81.2 1641.73,-494.586l-615.65,-620.079c-200.787,177.165 -435.039,273.13 -702.755,287.894c-302.166,7.874 -505.906,-129.921 -611.221,-413.386l1970.97,-0c49.212,-299.213 24.114,-591.535 -75.296,-876.969c-300.196,-752.952 -853.346,-1086.61 -1659.45,-1000.98l-13.288,2.953c-551.181,117.126 -916.831,441.929 -1096.95,974.409l-2.952,8.859c-97.441,351.378 -100.394,703.248 -8.859,1055.61Zm893.209,-863.681c56.102,-201.772 185.531,-331.201 388.287,-388.288c317.914,-44.291 528.544,85.138 631.89,388.288l-1020.18,-0Z" style="fill:#fff;fill-rule:nonzero;"/>
            <path d="M24908.8,19269.6c161.418,203.74 362.205,354.823 602.362,453.248c541.339,238.189 1082.68,237.697 1624.02,-1.476c198.819,-100.394 343.504,-252.461 434.055,-456.201c171.26,-530.512 12.303,-929.626 -476.87,-1197.34c-190.945,-81.693 -388.287,-145.178 -592.027,-190.453c-118.111,-27.559 -233.76,-62.992 -346.949,-106.299c-26.575,-10.827 -45.768,-29.036 -57.579,-54.626c-21.653,-62.993 -3.445,-111.221 54.626,-144.685c79.725,-32.481 162.402,-42.815 248.032,-31.004c104.33,4.921 204.232,27.559 299.704,67.913c134.843,49.213 245.079,130.905 330.709,245.079l583.169,-659.941c-332.677,-250 -704.724,-402.559 -1116.14,-457.677c-362.205,-34.449 -699.311,41.338 -1011.32,227.362c-79.725,60.039 -148.622,130.905 -206.693,212.598c-288.386,503.937 -212.107,943.898 228.838,1319.88c187.992,106.299 388.288,178.642 600.886,217.028c147.638,24.606 293.307,58.563 437.008,101.87c40.354,12.795 67.421,38.386 81.201,76.771c17.716,72.835 -7.382,124.016 -75.295,153.544c-227.363,29.527 -443.898,-7.382 -649.607,-110.729c-139.764,-54.133 -265.748,-131.397 -377.953,-231.791l-614.173,566.929Z" style="fill:#fff;fill-rule:nonzero;"/>
            <path d="M28204,18842.9c178.149,591.535 569.39,950.295 1173.72,1076.28c622.048,83.662 1169.29,-81.2 1641.73,-494.586l-615.65,-620.079c-200.787,177.165 -435.039,273.13 -702.756,287.894c-302.165,7.874 -505.905,-129.921 -611.22,-413.386l1970.96,-0c49.213,-299.213 24.114,-591.535 -75.295,-876.969c-300.197,-752.952 -853.347,-1086.61 -1659.45,-1000.98l-13.287,2.953c-551.181,117.126 -916.831,441.929 -1096.95,974.409l-2.953,8.859c-97.441,351.378 -100.394,703.248 -8.858,1055.61Zm893.209,-863.681c56.102,-201.772 185.531,-331.201 388.287,-388.288c317.913,-44.291 528.543,85.138 631.89,388.288l-1020.18,-0Z" style="fill:#fff;fill-rule:nonzero;"/>
            <path d="M32525.4,19849.8l0,-1610.73c15.748,-156.496 79.725,-289.862 191.929,-400.098c230.315,-153.543 479.823,-195.374 748.524,-125.492l2.953,-1023.13c-351.378,-28.543 -669.292,61.516 -953.741,270.177l-25.098,-203.74l-947.835,2.953l0,3090.06l983.268,-0Z" style="fill:#fff;fill-rule:nonzero;"/>
            <path d="M33923.5,16790.7l1042.32,3059.06l1058.56,-0l4.429,-1.477l946.358,-3057.58l-977.362,-0l-521.161,1731.79l-0,8.858l-571.359,-1740.65l-981.791,-0Z" style="fill:#fff;fill-rule:nonzero;"/>
            <path d="M37521.5,19848.3l972.933,0l0,-3038.39l-972.933,0l0,3038.39Zm388.288,-4222.44c-317.914,102.363 -456.201,318.898 -414.863,649.607c101.378,316.929 317.422,455.216 648.13,414.862c316.929,-101.378 455.217,-317.421 414.862,-648.13c-101.378,-317.913 -317.421,-456.693 -648.129,-416.339Z" style="fill:#fff;fill-rule:nonzero;"/>
            <path d="M39241.4,19031.9c400.591,749.016 1010.34,1012.8 1829.23,791.339c431.102,-175.197 724.409,-482.284 879.921,-921.26l-826.772,-302.657c-25.59,248.031 -156.004,413.878 -391.24,497.539c-330.708,66.929 -559.547,-56.102 -686.516,-369.095c-78.74,-284.448 -72.342,-566.929 19.193,-847.44c90.552,-199.804 245.079,-311.024 463.583,-333.662c331.693,7.874 524.114,175.689 577.264,503.445l1.476,7.382l829.725,-310.04l-5.906,-14.763c-177.165,-465.551 -503.445,-773.622 -978.839,-924.213c-743.11,-172.244 -1303.64,73.327 -1681.59,736.713c-206.693,491.141 -216.535,986.712 -29.528,1486.71Z" style="fill:#fff;fill-rule:nonzero;"/>
            <path d="M42347.7,19848.3l972.933,0l-0,-3038.39l-972.933,0l-0,3038.39Zm388.287,-4222.44c-317.913,102.363 -456.201,318.898 -414.862,649.607c101.378,316.929 317.421,455.216 648.13,414.862c316.929,-101.378 455.216,-317.421 414.862,-648.13c-101.378,-317.913 -317.421,-456.693 -648.13,-416.339Z" style="fill:#fff;fill-rule:nonzero;"/>
            <path d="M44314.3,19532.4c706.693,547.245 1412.89,546.26 2118.6,-2.952c238.189,-235.237 382.874,-517.717 434.056,-847.441c26.574,-193.898 29.527,-388.288 8.858,-583.17c-42.323,-317.913 -165.847,-600.393 -370.571,-847.441c-54.134,-62.992 -112.697,-121.555 -175.689,-175.688c-756.89,-531.497 -1467.03,-474.902 -2130.41,169.783l-5.906,7.382c-200.787,248.031 -318.405,531.004 -352.854,848.917c-30.512,192.914 -24.607,384.843 17.716,575.788c49.213,335.63 198.819,618.602 448.819,848.917l7.382,5.905Zm1637.3,-1433.56c37.402,193.898 35.433,387.304 -5.905,580.217c-66.929,216.535 -208.662,357.776 -425.197,423.72c-366.142,64.961 -614.665,-76.279 -745.571,-423.72c-45.276,-191.929 -50.689,-385.335 -16.24,-580.217c59.055,-273.622 225.394,-440.452 499.016,-500.492c369.094,-24.606 600.393,142.225 693.897,500.492Z" style="fill:#fff;fill-rule:nonzero;"/>
        </g>
        <path d="M8655.2,16619.6l625.373,0l548.607,-1163.28l-930.216,0l-243.764,1163.28Z" style="fill:#fff;"/>
    </g>
    <g>
        <path d="M4613.44,24116.3c-71.85,392.716 -66.929,784.449 14.764,1175.2c212.599,806.102 721.457,1316.44 1526.58,1531c1224.41,156.496 2027.56,-352.363 2409.45,-1526.58l1.476,-4.429c68.898,-389.764 70.866,-780.02 5.906,-1170.77l-1.477,-7.382c-211.614,-828.74 -731.791,-1348.42 -1560.53,-1559.06c-1230.32,-140.748 -2029.04,379.921 -2396.16,1562.01Zm1055.61,17.716c102.362,-355.315 330.708,-584.645 685.039,-687.992c572.835,-89.567 956.693,138.78 1151.58,685.04c103.346,389.763 93.012,776.574 -31.004,1160.43l-2.953,10.334c-109.252,277.559 -304.134,467.028 -584.645,568.406c-561.024,131.89 -959.154,-65.945 -1194.39,-593.504c-107.284,-378.937 -115.158,-759.843 -23.622,-1142.72Z" style="fill:#fff;fill-rule:nonzero;"/>
        <path d="M10090.8,26784.1l-0,-1610.73c15.748,-156.496 79.724,-289.862 191.929,-400.098c230.315,-153.543 479.823,-195.374 748.523,-125.492l2.953,-1023.13c-351.378,-28.543 -669.291,61.516 -953.74,270.177l-25.098,-203.74l-947.835,2.953l-0,3090.06l983.268,-0Z" style="fill:#fff;fill-rule:nonzero;"/>
        <path d="M11973.2,26466.7c706.692,547.245 1412.89,546.26 2118.6,-2.952c238.189,-235.237 382.874,-517.717 434.055,-847.441c26.575,-193.898 29.528,-388.288 8.858,-583.17c-42.323,-317.913 -165.846,-600.393 -370.571,-847.44c-54.133,-62.993 -112.696,-121.556 -175.689,-175.689c-756.889,-531.497 -1467.03,-474.902 -2130.41,169.783l-5.905,7.382c-200.788,248.031 -318.406,531.004 -352.855,848.917c-30.512,192.914 -24.606,384.843 17.717,575.788c49.212,335.63 198.819,618.602 448.819,848.917l7.382,5.905Zm1637.3,-1433.56c37.401,193.898 35.433,387.304 -5.906,580.217c-66.929,216.535 -208.661,357.776 -425.197,423.72c-366.141,64.961 -614.665,-76.279 -745.571,-423.72c-45.275,-191.929 -50.688,-385.335 -16.24,-580.217c59.055,-273.622 225.394,-440.452 499.016,-500.492c369.095,-24.606 600.394,142.225 693.898,500.492Z" style="fill:#fff;fill-rule:nonzero;"/>
        <path d="M15073.6,27833.8l934.548,0l-0,-1254.92c422.244,270.669 845.472,272.638 1269.68,5.906c154.527,-104.331 287.893,-230.315 400.098,-377.953c538.386,-872.047 429.134,-1654.04 -327.756,-2345.97c-462.598,-293.307 -921.26,-287.401 -1375.98,17.717l-64.961,-156.496l-831.201,-0l-4.429,4111.71Zm2013.78,-2943.9c50.197,235.236 45.768,468.996 -13.288,701.279c-73.819,183.071 -206.2,300.197 -397.145,351.378c-340.551,47.244 -566.437,-92.027 -677.658,-417.815c-15.748,-211.614 -12.303,-422.736 10.335,-633.366c59.055,-213.582 195.374,-350.394 408.957,-410.433c335.629,-48.228 558.563,88.091 668.799,408.957Z" style="fill:#fff;fill-rule:nonzero;"/>
        <path d="M18661.2,25777.2c178.149,591.535 569.389,950.295 1173.72,1076.28c622.047,83.662 1169.29,-81.2 1641.73,-494.586l-615.649,-620.079c-200.788,177.165 -435.04,273.13 -702.756,287.894c-302.165,7.874 -505.906,-129.921 -611.221,-413.386l1970.97,0c49.213,-299.213 24.114,-591.535 -75.295,-876.968c-300.197,-752.953 -853.347,-1086.62 -1659.45,-1000.99l-13.287,2.953c-551.182,117.126 -916.831,441.929 -1096.95,974.409l-2.953,8.859c-97.441,351.378 -100.394,703.248 -8.858,1055.61Zm893.208,-863.681c56.103,-201.772 185.532,-331.201 388.288,-388.288c317.913,-44.291 528.543,85.138 631.89,388.288l-1020.18,-0Z" style="fill:#fff;fill-rule:nonzero;"/>
        <path d="M21913.6,26203.9c161.418,203.74 362.205,354.823 602.363,453.248c541.338,238.189 1082.68,237.697 1624.02,-1.476c198.819,-100.394 343.504,-252.461 434.055,-456.201c171.26,-530.512 12.304,-929.626 -476.87,-1197.34c-190.945,-81.693 -388.287,-145.178 -592.027,-190.453c-118.11,-27.559 -233.76,-62.992 -346.949,-106.299c-26.575,-10.827 -45.768,-29.036 -57.579,-54.626c-21.653,-62.993 -3.445,-111.221 54.626,-144.685c79.725,-32.481 162.402,-42.815 248.032,-31.004c104.33,4.921 204.232,27.559 299.704,67.913c134.843,49.213 245.079,130.906 330.709,245.079l583.169,-659.941c-332.677,-250 -704.724,-402.559 -1116.14,-457.677c-362.205,-34.449 -699.311,41.338 -1011.32,227.362c-79.725,60.039 -148.622,130.905 -206.693,212.598c-288.386,503.937 -212.106,943.898 228.838,1319.88c187.993,106.299 388.288,178.642 600.886,217.028c147.638,24.606 293.307,58.563 437.008,101.87c40.354,12.795 67.421,38.386 81.201,76.771c17.716,72.835 -7.382,124.016 -75.295,153.544c-227.363,29.527 -443.898,-7.382 -649.607,-110.729c-139.763,-54.133 -265.748,-131.397 -377.952,-231.791l-614.174,566.929Z" style="fill:#fff;fill-rule:nonzero;"/>
        <path d="M28222.2,26113.8c-77.756,1.969 -154.527,-5.905 -230.315,-23.622c-72.834,-30.512 -108.267,-85.63 -106.299,-165.354l0,-1291.83c-10.827,-418.307 -214.567,-695.866 -611.22,-832.677c-732.284,-238.189 -1399.61,-117.618 -2001.97,361.712l441.437,704.233c115.158,-109.252 245.571,-195.866 391.24,-259.843c193.898,-88.582 396.162,-116.141 606.792,-82.677c47.244,10.827 91.535,28.051 132.874,51.673c51.181,29.528 84.153,72.835 98.917,129.922c2.953,24.606 -5.413,44.291 -25.098,59.055c-36.418,13.779 -73.819,23.622 -112.205,29.527l-792.815,137.303c-359.252,95.473 -608.76,315.453 -748.524,659.941c-115.157,561.024 88.583,960.138 611.221,1197.34c459.645,158.464 881.89,89.075 1266.73,-208.169c207.677,207.677 458.169,301.673 751.476,281.988l327.756,-748.524Zm-1960.63,-104.823c-38.385,-23.622 -65.944,-57.086 -82.677,-100.393c-30.512,-115.158 8.366,-198.327 116.634,-249.508c30.512,-12.796 62.008,-22.638 94.488,-29.528c183.071,-28.543 364.666,-62.992 544.784,-103.346l-1.477,308.563c-22.637,74.803 -68.405,130.413 -137.303,166.83c-177.165,86.615 -355.315,89.075 -534.449,7.382Z" style="fill:#fff;fill-rule:nonzero;"/>
    </g>
    <path d="M54103.4,20495.3l-1684.24,-1051.56l4211.39,-844l-844,4211.39l-1051.56,-1684.24l-2650.41,3029.05l-1010.22,-1010.22l3029.05,-2650.41Zm7.923,4.947l0.352,0.351l0.081,-0.081l-0.433,-0.27Zm618.362,618.361l0.352,0.352l-0.271,-0.433l-0.081,0.081Z" style="fill:#fff;"/>
</svg>
