<?xml version="1.0" encoding="UTF-8" standalone="no"?>
<!DOCTYPE svg PUBLIC "-//W3C//DTD SVG 1.1//EN" "http://www.w3.org/Graphics/SVG/1.1/DTD/svg11.dtd">
<svg width="100%" height="100%" viewBox="0 0 61643 61360" version="1.1" xmlns="http://www.w3.org/2000/svg" xmlns:xlink="http://www.w3.org/1999/xlink" xml:space="preserve" style="fill-rule:evenodd;clip-rule:evenodd;stroke-linecap:round;stroke-linejoin:round;stroke-miterlimit:1.5;">
    <g id="g4799">
    </g>
    <path d="M60384.1,4273.94c0,-1642.71 -1333.67,-2976.38 -2976.38,-2976.38l-53236.7,0c-1642.71,0 -2976.38,1333.67 -2976.38,2976.38l-0,52743.1c-0,1642.71 1333.67,2976.38 2976.38,2976.38l53236.7,-0c1642.71,-0 2976.38,-1333.67 2976.38,-2976.38l0,-52743.1Z" style="fill:#003fff;"/>
    <path d="M61447.1,4273.94c0,-2229.39 -1809.98,-4039.37 -4039.37,-4039.37l-53236.7,-0c-2229.39,-0 -4039.37,1809.98 -4039.37,4039.37c-0,0 -0,52743.1 -0,52743.1c-0,2229.39 1809.98,4039.37 4039.37,4039.37c-0,-0 53236.7,-0 53236.7,-0c2229.39,-0 4039.37,-1809.98 4039.37,-4039.37l0,-52743.1Zm-1062.99,0c0,-1642.71 -1333.67,-2976.38 -2976.38,-2976.38l-53236.7,0c-1642.71,0 -2976.38,1333.67 -2976.38,2976.38l-0,52743.1c-0,1642.71 1333.67,2976.38 2976.38,2976.38l53236.7,-0c1642.71,-0 2976.38,-1333.67 2976.38,-2976.38l0,-52743.1Z"/>
    <path d="M61234.5,4273.94c-0,-2112.05 -1714.72,-3826.77 -3826.77,-3826.77l-53236.7,0c-2112.05,0 -3826.77,1714.72 -3826.77,3826.77c0,0 0,52743.1 0,52743.1c0,2112.05 1714.72,3826.77 3826.77,3826.77c-0,0 53236.7,0 53236.7,0c2112.05,0 3826.77,-1714.72 3826.77,-3826.77l-0,-52743.1Zm-850.394,0c0,-1642.71 -1333.67,-2976.38 -2976.38,-2976.38l-53236.7,0c-1642.71,0 -2976.38,1333.67 -2976.38,2976.38l-0,52743.1c-0,1642.71 1333.67,2976.38 2976.38,2976.38l53236.7,-0c1642.71,-0 2976.38,-1333.67 2976.38,-2976.38l0,-52743.1Z" style="fill:#003fff;"/>
    <path d="M60384.1,4273.94c0,-1642.71 -1333.67,-2976.38 -2976.38,-2976.38l-31717.1,0c-1642.71,0 -2976.38,1333.67 -2976.38,2976.38l-0,3071.88c-0,1642.71 1333.67,2976.38 2976.38,2976.38l31717.1,-0c1642.71,-0 2976.38,-1333.67 2976.38,-2976.38l0,-3071.88Z" style="fill:none;stroke:#fff;stroke-width:850.39px;"/>
    <path d="M20996.4,4273.94c0,-1642.71 -1333.67,-2976.38 -2976.38,-2976.38l-13848.9,0c-1642.71,0 -2976.38,1333.67 -2976.38,2976.38l-0,3071.88c-0,1642.71 1333.67,2976.38 2976.38,2976.38l13848.9,-0c1642.71,-0 2976.38,-1333.67 2976.38,-2976.38l0,-3071.88Z" style="fill:none;stroke:#fff;stroke-width:850.39px;"/>
    <path d="M28725.6,2851l-741.622,0l-1998.13,6285.13l2471.52,-0l268.233,-6285.13Zm1672.25,1789.95l1760.88,-1164.06l-1414.49,-625.888l2575.33,0l0,2699.41l-589.806,-1507.42l-1841.19,2141.55l938.352,2951.59l-2471.52,-0l-268.233,-6285.13l741.622,0l569.049,1789.95Z" style="fill:#fff;"/>
    <path d="M4061.18,6552.72c130.659,437.746 415.231,722.318 853.716,853.716c724.163,121.063 1212.84,-163.14 1466.04,-852.608c64.96,-253.937 51.304,-503.445 -40.97,-748.524c-0.738,-2.215 -1.845,-4.798 -3.322,-7.751c-323.326,-606.053 -812.746,-806.471 -1468.26,-601.255l37.647,-293.43l1355.32,-0l-1.107,-663.263l-1962.11,0l-205.955,1633.24l738.558,120.694l7.751,-8.858c36.909,-62.746 85.999,-112.943 147.269,-150.591c237.697,-117.372 436.269,-70.128 595.718,141.733c104.085,186.761 107.038,375.738 8.858,566.929c-75.295,107.037 -177.534,171.629 -306.717,193.774c-280.512,18.455 -455.832,-108.144 -525.96,-379.798l-696.481,195.989Z" style="fill:#fff;fill-rule:nonzero;"/>
    <path d="M9593.17,4896.22c-130.659,-261.319 -326.648,-456.57 -587.967,-585.753c-728.593,-272.391 -1294.78,-76.033 -1698.57,589.075c-265.01,606.053 -269.07,1213.58 -12.18,1822.59c132.874,273.868 336.245,477.239 610.113,610.113c737.451,267.224 1306.23,63.484 1706.32,-611.221c241.387,-610.482 235.482,-1218.75 -17.717,-1824.8Zm-550.32,1340.92c-6.643,34.694 -15.871,68.651 -27.682,101.87c-160.187,334.399 -419.291,453.986 -777.313,358.759c-215.551,-81.938 -345.472,-235.482 -389.764,-460.629c-25.098,-214.075 -29.527,-428.15 -13.287,-642.225c3.691,-35.433 6.275,-70.866 7.751,-106.299c20.669,-293.061 171.629,-481.668 452.879,-565.822c53.888,-14.764 108.514,-21.776 163.878,-21.038c363.927,39.862 560.285,242.126 589.075,606.791l1.107,7.751c25.098,239.911 22.884,480.192 -6.644,720.842Z" style="fill:#fff;fill-rule:nonzero;"/>
    <path d="M12763.3,4896.22c-130.66,-261.319 -326.649,-456.57 -587.968,-585.753c-728.592,-272.391 -1294.78,-76.033 -1698.57,589.075c-265.009,606.053 -269.07,1213.58 -12.18,1822.59c132.874,273.868 336.245,477.239 610.113,610.113c737.451,267.224 1306.23,63.484 1706.32,-611.221c241.388,-610.482 235.483,-1218.75 -17.716,-1824.8Zm-550.32,1340.92c-6.644,34.694 -15.871,68.651 -27.682,101.87c-160.187,334.399 -419.292,453.986 -777.313,358.759c-215.551,-81.938 -345.473,-235.482 -389.764,-460.629c-25.098,-214.075 -29.528,-428.15 -13.287,-642.225c3.691,-35.433 6.274,-70.866 7.751,-106.299c20.669,-293.061 171.628,-481.668 452.878,-565.822c53.888,-14.764 108.514,-21.776 163.878,-21.038c363.928,39.862 560.286,242.126 589.075,606.791l1.108,7.751c25.098,239.911 22.883,480.192 -6.644,720.842Z" style="fill:#fff;fill-rule:nonzero;"/>
    <path d="M14752,7383.18l664.37,-0l-0,-1351.99c20.669,-125.492 92.274,-204.478 214.813,-236.959c167.569,-19.931 276.452,50.197 326.649,210.384l-0,1378.57l680.979,-0l-0,-1334.28c15.502,-149.852 97.441,-237.327 245.817,-262.426c166.092,0 264.641,81.57 295.644,244.71l0,1351.99l665.478,-0l-2.215,-1560.16c-51.673,-215.552 -166.092,-390.502 -343.258,-524.853c-386.811,-261.319 -748.523,-229.946 -1085.14,94.119c-7.382,-8.858 -15.133,-17.716 -23.253,-26.575c-310.04,-296.751 -639.641,-320.374 -988.805,-70.866l-77.509,-121.801l-573.573,0l-0,2210.14Z" style="fill:#fff;fill-rule:nonzero;"/>
    <path d="M60384.1,14977.8c0,-1642.71 -1333.67,-2976.38 -2976.38,-2976.38l-53236.7,-0c-1642.71,-0 -2976.38,1333.67 -2976.38,2976.38l-0,27586.2c-0,1642.71 1333.67,2976.38 2976.38,2976.38l53236.7,-0c1642.71,-0 2976.38,-1333.67 2976.38,-2976.38l0,-27586.2Z" style="fill:none;stroke:#fff;stroke-width:850.39px;"/>
    <g>
        <g>
            <path d="M4933.8,16756.3l1042.32,3059.06l1058.56,-0l4.429,-1.477l946.358,-3057.58l-977.362,-0l-521.162,1731.79l0,8.858l-571.358,-1740.65l-981.791,-0Z" style="fill:#fff;fill-rule:nonzero;"/>
            <rect x="8531.73" y="16775.5" width="972.933" height="3038.39" style="fill:#fff;fill-rule:nonzero;"/>
            <path d="M13102.6,19145.1c-77.756,1.969 -154.528,-5.905 -230.315,-23.622c-72.835,-30.512 -108.268,-85.63 -106.299,-165.354l-0,-1291.83c-10.827,-418.307 -214.567,-695.866 -611.221,-832.677c-732.283,-238.189 -1399.61,-117.618 -2001.97,361.712l441.437,704.233c115.157,-109.252 245.571,-195.866 391.24,-259.843c193.898,-88.583 396.161,-116.142 606.791,-82.677c47.244,10.827 91.536,28.051 132.874,51.673c51.181,29.528 84.154,72.835 98.918,129.921c2.952,24.607 -5.414,44.292 -25.099,59.056c-36.417,13.779 -73.819,23.622 -112.204,29.527l-792.815,137.303c-359.252,95.473 -608.76,315.453 -748.524,659.941c-115.158,561.024 88.583,960.138 611.22,1197.34c459.646,158.464 881.89,89.075 1266.73,-208.17c207.677,207.678 458.169,301.674 751.476,281.989l327.756,-748.524Zm-1960.63,-104.823c-38.386,-23.622 -65.945,-57.086 -82.677,-100.393c-30.512,-115.158 8.366,-198.327 116.634,-249.508c30.512,-12.796 62.008,-22.638 94.488,-29.528c183.071,-28.543 364.665,-62.992 544.783,-103.346l-1.476,308.563c-22.638,74.803 -68.405,130.413 -137.303,166.83c-177.165,86.614 -355.315,89.075 -534.449,7.382Z" style="fill:#fff;fill-rule:nonzero;"/>
            <path d="M16198.6,17392.6c-423.229,755.906 -343.504,1454.73 239.173,2096.46c507.874,441.929 1060.53,507.382 1657.97,196.358l48.721,129.922l872.539,-2.953l-1.476,-3927.16l-947.835,-0l-2.953,1006.89c-339.567,-193.897 -695.866,-232.283 -1068.9,-115.157c-334.646,116.142 -600.394,321.358 -797.244,615.649Zm1864.66,659.941c7.874,155.512 7.874,311.516 -0,468.012c-56.102,293.307 -231.299,465.551 -525.591,516.732c-366.141,6.89 -586.122,-168.307 -659.941,-525.59c-10.826,-153.543 -7.874,-306.102 8.859,-457.677c58.071,-270.67 222.441,-435.04 493.11,-493.111c364.173,-25.59 592.027,138.288 683.563,491.634Z" style="fill:#fff;fill-rule:nonzero;"/>
            <path d="M19408.2,18808.5c178.15,591.535 569.39,950.295 1173.72,1076.28c622.047,83.662 1169.29,-81.2 1641.73,-494.586l-615.65,-620.079c-200.787,177.165 -435.039,273.13 -702.756,287.894c-302.165,7.874 -505.905,-129.922 -611.22,-413.386l1970.97,-0c49.212,-299.213 24.114,-591.536 -75.296,-876.969c-300.197,-752.952 -853.346,-1086.61 -1659.45,-1000.98l-13.287,2.953c-551.181,117.126 -916.831,441.929 -1096.95,974.409l-2.952,8.859c-97.441,351.378 -100.394,703.248 -8.859,1055.61Zm893.209,-863.681c56.102,-201.772 185.531,-331.201 388.287,-388.288c317.914,-44.291 528.544,85.138 631.89,388.288l-1020.18,-0Z" style="fill:#fff;fill-rule:nonzero;"/>
            <path d="M24876.7,19235.1c161.417,203.74 362.205,354.823 602.362,453.248c541.339,238.189 1082.68,237.697 1624.02,-1.476c198.819,-100.394 343.504,-252.461 434.055,-456.201c171.26,-530.512 12.303,-929.626 -476.87,-1197.34c-190.945,-81.692 -388.287,-145.177 -592.027,-190.452c-118.111,-27.559 -233.76,-62.992 -346.949,-106.3c-26.575,-10.826 -45.768,-29.035 -57.579,-54.626c-21.653,-62.992 -3.445,-111.22 54.626,-144.685c79.724,-32.48 162.402,-42.815 248.032,-31.003c104.33,4.921 204.232,27.559 299.704,67.913c134.843,49.212 245.079,130.905 330.709,245.079l583.169,-659.941c-332.677,-250 -704.724,-402.559 -1116.14,-457.677c-362.204,-34.449 -699.311,41.338 -1011.32,227.362c-79.725,60.039 -148.622,130.905 -206.693,212.598c-288.386,503.937 -212.107,943.898 228.838,1319.88c187.992,106.299 388.288,178.642 600.886,217.028c147.638,24.606 293.307,58.563 437.008,101.87c40.354,12.795 67.421,38.386 81.201,76.771c17.716,72.835 -7.382,124.016 -75.296,153.544c-227.362,29.527 -443.897,-7.382 -649.606,-110.729c-139.764,-54.134 -265.748,-131.397 -377.953,-231.791l-614.173,566.929Z" style="fill:#fff;fill-rule:nonzero;"/>
            <path d="M28172,18808.5c178.149,591.535 569.39,950.295 1173.72,1076.28c622.047,83.662 1169.29,-81.2 1641.73,-494.586l-615.65,-620.079c-200.787,177.165 -435.039,273.13 -702.756,287.894c-302.165,7.874 -505.906,-129.922 -611.22,-413.386l1970.96,-0c49.213,-299.213 24.114,-591.536 -75.295,-876.969c-300.197,-752.952 -853.347,-1086.61 -1659.45,-1000.98l-13.287,2.953c-551.181,117.126 -916.831,441.929 -1096.95,974.409l-2.953,8.859c-97.441,351.378 -100.394,703.248 -8.858,1055.61Zm893.208,-863.681c56.103,-201.772 185.532,-331.201 388.288,-388.288c317.913,-44.291 528.543,85.138 631.89,388.288l-1020.18,-0Z" style="fill:#fff;fill-rule:nonzero;"/>
            <path d="M32493.3,19815.4l0,-1610.73c15.748,-156.496 79.724,-289.862 191.929,-400.098c230.315,-153.543 479.823,-195.374 748.524,-125.492l2.953,-1023.13c-351.378,-28.543 -669.292,61.516 -953.741,270.177l-25.098,-203.74l-947.835,2.953l0,3090.06l983.268,-0Z" style="fill:#fff;fill-rule:nonzero;"/>
            <path d="M33891.5,16756.3l1042.32,3059.06l1058.56,-0l4.429,-1.477l946.358,-3057.58l-977.362,-0l-521.161,1731.79l-0,8.858l-571.359,-1740.65l-981.791,-0Z" style="fill:#fff;fill-rule:nonzero;"/>
            <path d="M37489.4,19813.9l972.933,0l0,-3038.39l-972.933,0l0,3038.39Zm388.287,-4222.44c-317.913,102.363 -456.2,318.898 -414.862,649.607c101.378,316.929 317.421,455.216 648.13,414.862c316.929,-101.378 455.217,-317.421 414.862,-648.13c-101.378,-317.913 -317.421,-456.693 -648.13,-416.339Z" style="fill:#fff;fill-rule:nonzero;"/>
            <path d="M39209.4,18997.4c400.591,749.016 1010.34,1012.8 1829.23,791.339c431.102,-175.197 724.409,-482.284 879.921,-921.26l-826.772,-302.657c-25.59,248.031 -156.004,413.877 -391.24,497.539c-330.709,66.929 -559.547,-56.102 -686.516,-369.095c-78.74,-284.448 -72.342,-566.929 19.193,-847.441c90.551,-199.803 245.079,-311.023 463.583,-333.661c331.693,7.874 524.114,175.689 577.264,503.445l1.476,7.382l829.724,-310.04l-5.905,-14.763c-177.165,-465.552 -503.445,-773.622 -978.839,-924.213c-743.11,-172.244 -1303.64,73.327 -1681.59,736.713c-206.693,491.141 -216.536,986.712 -29.528,1486.71Z" style="fill:#fff;fill-rule:nonzero;"/>
            <path d="M42315.7,19813.9l972.933,0l-0,-3038.39l-972.933,0l-0,3038.39Zm388.287,-4222.44c-317.913,102.363 -456.201,318.898 -414.862,649.607c101.378,316.929 317.421,455.216 648.13,414.862c316.929,-101.378 455.216,-317.421 414.862,-648.13c-101.378,-317.913 -317.421,-456.693 -648.13,-416.339Z" style="fill:#fff;fill-rule:nonzero;"/>
            <path d="M44282.2,19497.9c706.693,547.244 1412.89,546.26 2118.6,-2.952c238.189,-235.237 382.874,-517.717 434.055,-847.441c26.575,-193.898 29.528,-388.288 8.859,-583.17c-42.323,-317.913 -165.847,-600.393 -370.571,-847.441c-54.134,-62.992 -112.697,-121.555 -175.689,-175.689c-756.89,-531.496 -1467.03,-474.901 -2130.41,169.784l-5.906,7.382c-200.787,248.031 -318.406,531.004 -352.854,848.917c-30.512,192.914 -24.607,384.843 17.716,575.788c49.213,335.629 198.819,618.602 448.819,848.917l7.382,5.905Zm1637.3,-1433.56c37.402,193.898 35.433,387.304 -5.905,580.217c-66.93,216.535 -208.662,357.776 -425.197,423.72c-366.142,64.961 -614.666,-76.279 -745.571,-423.72c-45.276,-191.929 -50.689,-385.335 -16.24,-580.217c59.055,-273.622 225.393,-440.452 499.015,-500.492c369.095,-24.606 600.394,142.225 693.898,500.492Z" style="fill:#fff;fill-rule:nonzero;"/>
        </g>
        <path d="M8623.15,16585.2l625.373,0l548.607,-1163.28l-930.216,0l-243.764,1163.28Z" style="fill:#fff;"/>
    </g>
    <g>
        <path d="M14120,29779c-317.421,566.929 -257.628,1091.04 179.38,1572.34c380.905,331.447 795.398,380.537 1243.48,147.269l36.541,97.441l654.404,-2.215l-1.107,-2945.37l-710.876,0l-2.215,755.168c-254.675,-145.424 -521.899,-174.213 -801.673,-86.369c-250.984,87.107 -450.295,241.019 -597.933,461.738Zm1398.5,494.955c5.905,116.634 5.905,233.637 -0,351.009c-42.077,219.981 -173.474,349.164 -394.193,387.549c-274.606,5.168 -439.592,-126.23 -494.956,-394.192c-8.12,-115.158 -5.905,-229.577 6.644,-343.258c43.553,-203.002 166.831,-326.28 369.833,-369.833c273.13,-19.193 444.02,103.716 512.672,368.725Z" style="fill:#fff;fill-rule:nonzero;"/>
        <path d="M16549.4,30840.9c133.612,443.651 427.042,712.721 880.29,807.209c466.536,62.746 876.969,-60.9 1231.3,-370.94l-461.737,-465.059c-150.59,132.874 -326.279,204.848 -527.067,215.92c-226.624,5.906 -379.429,-97.441 -458.415,-310.039l1478.22,0c36.91,-224.409 18.086,-443.652 -56.471,-657.726c-225.148,-564.715 -640.01,-814.961 -1244.59,-750.739l-9.965,2.215c-413.386,87.845 -687.623,331.447 -822.712,730.807l-2.214,6.644c-73.081,263.533 -75.296,527.436 -6.644,791.708Zm669.906,-647.761c42.077,-151.329 139.149,-248.401 291.216,-291.216c238.435,-33.218 396.407,63.853 473.917,291.216l-765.133,-0Z" style="fill:#fff;fill-rule:nonzero;"/>
        <path d="M22989.5,29128.8c-0.523,-1.658 -1.132,-3.286 -1.825,-4.88c-185.283,-426.151 -542.269,-641.284 -1073.41,-641.284c0,-0 -79.724,-0 -79.724,-0c-1.24,-0 -2.48,0.046 -3.717,0.138c-496.747,37.025 -820.396,275.122 -972.477,712.207c-21.701,43.553 -34.928,123.722 -34.928,241.198c-0,222.686 100.291,415.42 304.064,576.298c-237.802,131.87 -357.214,347.035 -357.214,646.143c0,21.995 0.791,43.204 2.362,63.628c1.531,19.9 3.821,42.097 6.883,66.589c0.013,0.104 0.026,0.208 0.039,0.312c55.819,424.84 302.503,695.849 741.702,811.512c90.164,39.219 231.37,60.223 424.014,60.223c147.008,-0 287.883,-21.485 422.641,-64.362c134.218,-42.706 266.963,-108.183 398.131,-196.645c1.441,-0.972 2.831,-2.019 4.163,-3.135c212.362,-178.009 319.061,-413.559 319.061,-707.118c0,-0 0,-66.437 0,-66.437c0,-261.307 -113.864,-468.429 -343.517,-620.158c199.992,-134.375 299.226,-319.213 299.226,-553.563c-0,-96.03 -18.298,-202.952 -55.471,-320.666Zm-1490.3,1582.35l0,-17.101c0,-101.209 27.903,-181.214 86.835,-238.865c60.825,-59.503 152.552,-94.902 273.744,-109.767c15.827,-0.102 30.147,-0.989 42.965,-2.591c9.973,-1.246 21.195,-1.828 33.661,-1.828c214.63,-0 361.267,79.833 437.205,244.182c-0,0 -0,42.432 -0,42.432c-0,125.082 -31.04,219.78 -98.141,282.321c-68.282,63.642 -171.496,92.876 -308.06,92.876l-48.721,-0c-14.976,-0 -29.953,-1.253 -44.929,-3.749c-2.717,-0.453 -5.466,-0.68 -8.22,-0.68l-13.288,-0c-98.757,-0 -178.145,-22.902 -237.269,-71.631c-58.253,-48.01 -95.983,-120.337 -115.782,-215.597l0,-0.002Zm72.73,-1393.07c68.609,-97.733 171.121,-156.252 306.44,-177.403c12.841,-0.156 24.946,-1.069 36.317,-2.694c8.134,-1.162 16.851,-1.712 26.147,-1.712c180.922,0 305.84,84 375.028,251.602c-2.737,113.476 -31.211,199.755 -89.992,257.272c-60.643,59.339 -151.767,86.5 -271.749,86.5c-9.296,0 -18.013,-0.55 -26.147,-1.712c-11.994,-1.713 -24.806,-2.635 -38.439,-2.712c-110.876,-8.039 -194.825,-35.5 -250.402,-86.5c-53.167,-48.788 -77.925,-118.907 -77.925,-208.977c0,-33.173 3.631,-71.055 10.722,-113.664l0,-0Z" style="fill:#fff;fill-rule:nonzero;"/>
        <path d="M27434,31093.3c-58.317,1.477 -115.895,-4.429 -172.736,-17.716c-54.626,-22.884 -81.201,-64.223 -79.724,-124.016l-0,-968.873c-8.12,-313.73 -160.926,-521.9 -458.416,-624.508c-549.212,-178.642 -1049.7,-88.214 -1501.48,271.284l331.078,528.175c86.368,-81.939 184.178,-146.9 293.43,-194.882c145.423,-66.437 297.121,-87.107 455.093,-62.008c35.433,8.12 68.652,21.038 99.656,38.755c38.386,22.145 63.115,54.626 74.188,97.441c2.214,18.454 -4.06,33.218 -18.824,44.291c-27.313,10.335 -55.364,17.717 -84.154,22.146l-594.611,102.977c-269.439,71.604 -456.57,236.59 -561.393,494.956c-86.368,420.768 66.438,720.103 458.416,898.007c344.734,118.848 661.417,66.806 950.049,-156.127c155.758,155.758 343.627,226.255 563.607,211.491l245.817,-561.393Zm-1470.47,-78.617c-28.79,-17.717 -49.459,-42.815 -62.008,-75.295c-22.884,-86.368 6.275,-148.745 87.475,-187.131c22.884,-9.597 46.506,-16.978 70.866,-22.146c137.304,-21.407 273.5,-47.244 408.588,-77.51l-1.107,231.423c-16.979,56.102 -51.304,97.81 -102.978,125.123c-132.874,64.96 -266.486,66.806 -400.836,5.536Z" style="fill:#fff;fill-rule:nonzero;"/>
        <path d="M29474.7,31596.1l2244.46,-0l0,-662.156l-994.34,0c140.256,-109.99 275.713,-225.516 406.373,-346.579c175.689,-138.042 325.172,-300.443 448.45,-487.205c260.58,-583.908 149.852,-1085.51 -332.185,-1504.8c-673.967,-373.524 -1263.41,-269.439 -1768.33,312.254c-103.347,247.293 -152.436,505.29 -147.269,773.991l741.88,-0c0.738,-90.798 7.751,-180.857 21.038,-270.177c43.554,-191.93 161.295,-310.04 353.224,-354.331c266.486,-22.146 435.531,95.964 507.136,354.331c3.691,152.805 -33.588,294.906 -111.836,426.304c-149.852,164.616 -315.945,311.885 -498.277,441.806l-549.213,420.768c-78.986,59.793 -153.912,124.015 -224.779,192.667c-64.96,81.939 -97.071,174.951 -96.333,279.035l-0,424.09Z" style="fill:#fff;fill-rule:nonzero;"/>
        <path d="M34883.8,29106.9c-130.659,-261.319 -326.648,-456.57 -587.967,-585.753c-728.593,-272.392 -1294.78,-76.034 -1698.57,589.074c-265.01,606.054 -269.07,1213.58 -12.18,1822.59c132.874,273.868 336.245,477.239 610.113,610.113c737.451,267.225 1306.23,63.484 1706.32,-611.22c241.388,-610.483 235.482,-1218.75 -17.717,-1824.8Zm-550.319,1340.92c-6.644,34.695 -15.872,68.651 -27.683,101.87c-160.187,334.4 -419.291,453.986 -777.313,358.76c-215.551,-81.939 -345.472,-235.482 -389.763,-460.63c-25.099,-214.075 -29.528,-428.15 -13.288,-642.225c3.691,-35.433 6.275,-70.866 7.751,-106.299c20.67,-293.061 171.629,-481.668 452.879,-565.822c53.888,-14.763 108.514,-21.776 163.878,-21.038c363.927,39.862 560.286,242.126 589.075,606.791l1.107,7.751c25.099,239.912 22.884,480.192 -6.643,720.842Z" style="fill:#fff;fill-rule:nonzero;"/>
        <path d="M38985.2,30065.8c-30.265,-274.606 -161.663,-486.466 -394.193,-635.581l-6.643,-4.429c-339.567,-189.714 -676.55,-186.023 -1010.95,11.073l1.107,-981.053l-702.017,-0l-0,3135.83l3.321,5.536l698.696,0l0,-1332.06c31.004,-173.474 132.874,-275.713 305.61,-306.717c214.075,-5.168 343.258,97.071 387.55,306.717l-0,1326.53l717.519,-0l0,-1525.84Z" style="fill:#fff;fill-rule:nonzero;"/>
    </g>
    <g transform="matrix(1,0,0,1,12680,22594)">
        <g transform="matrix(4429.13,0,0,4429.13,742.417,4016.89)">
            <path d="M0.58,-0.113c-0.013,0 -0.026,-0.001 -0.039,-0.004c-0.012,-0.005 -0.018,-0.015 -0.018,-0.028l0,-0.219c-0.002,-0.071 -0.036,-0.118 -0.103,-0.141c-0.124,-0.04 -0.237,-0.02 -0.339,0.061l0.074,0.119c0.02,-0.018 0.042,-0.033 0.067,-0.043c0.032,-0.016 0.067,-0.02 0.102,-0.015c0.008,0.002 0.016,0.005 0.023,0.009c0.008,0.005 0.014,0.013 0.017,0.022c0,0.004 -0.001,0.008 -0.005,0.01c-0.006,0.003 -0.012,0.004 -0.019,0.005l-0.134,0.023c-0.061,0.017 -0.103,0.054 -0.127,0.112c-0.019,0.095 0.015,0.163 0.104,0.203c0.078,0.027 0.149,0.015 0.214,-0.035c0.035,0.035 0.078,0.051 0.128,0.047l0.055,-0.126Zm-0.332,-0.018c-0.006,-0.004 -0.011,-0.01 -0.014,-0.017c-0.005,-0.02 0.001,-0.034 0.02,-0.042c0.005,-0.002 0.01,-0.004 0.016,-0.005c0.031,-0.005 0.062,-0.011 0.092,-0.018l-0,0.052c-0.004,0.013 -0.012,0.023 -0.023,0.029c-0.03,0.014 -0.061,0.015 -0.091,0.001Z" style="fill:#fff;fill-rule:nonzero;"/>
        </g>
        <g transform="matrix(4429.13,0,0,4429.13,4979.99,4016.89)">
            <path d="M0.33,-0l-0,-0.709l-0.146,-0l0,0.031c-0.006,0.04 -0.029,0.063 -0.07,0.068l-0.064,0l-0,0.147l0.122,0l-0,0.463l0.158,-0Z" style="fill:#fff;fill-rule:nonzero;"/>
        </g>
        <g transform="matrix(4429.13,0,0,4429.13,6706.25,4016.89)">
            <path d="M0.089,0.074c0.007,0 0.013,0 0.019,0c0.052,-0.003 0.089,-0.029 0.11,-0.076c0.007,-0.021 0.01,-0.043 0.008,-0.066c-0.009,-0.044 -0.036,-0.07 -0.08,-0.078c-0.046,-0.004 -0.077,0.015 -0.093,0.059c-0.002,0.006 -0.003,0.013 -0.003,0.019c0.003,0.038 0.023,0.06 0.061,0.064c0.002,0.001 0.003,0.003 0.004,0.005c0.001,0.004 -0.001,0.008 -0.005,0.01c-0.008,0.004 -0.017,0.007 -0.026,0.008l-0.001,0c-0.01,0.002 -0.015,0.008 -0.015,0.018c-0.001,0.009 0,0.017 0.003,0.026c0.004,0.007 0.01,0.011 0.018,0.011Z" style="fill:#fff;fill-rule:nonzero;"/>
        </g>
        <g transform="matrix(3283.46,0,0,3283.46,7976.3,4016.89)">
            <path d="M0.05,-0.188c0.029,0.099 0.094,0.163 0.193,0.193c0.163,0.027 0.274,-0.037 0.331,-0.193c0.014,-0.057 0.011,-0.113 -0.01,-0.168c0,-0.001 0,-0.002 -0,-0.002c-0.073,-0.137 -0.184,-0.182 -0.332,-0.136l0.009,-0.066l0.306,-0l-0.001,-0.15l-0.443,0l-0.046,0.369l0.167,0.027l0.001,-0.002c0.009,-0.014 0.02,-0.025 0.034,-0.034c0.053,-0.026 0.098,-0.016 0.134,0.032c0.024,0.042 0.024,0.085 0.002,0.128c-0.017,0.024 -0.04,0.039 -0.069,0.044c-0.063,0.004 -0.103,-0.025 -0.119,-0.086l-0.157,0.044Z" style="fill:#fff;fill-rule:nonzero;"/>
        </g>
        <g transform="matrix(4429.13,0,0,4429.13,11590.2,4016.89)">
            <path d="M0.554,-0l-0.191,-0.312l0.181,-0.199l-0.21,0l-0.121,0.128l0,-0.32l-0.163,0l-0,0.704l0.163,-0l0,-0.163l0.033,-0.033l0.129,0.195l0.179,0Z" style="fill:#fff;fill-rule:nonzero;"/>
        </g>
        <g transform="matrix(4429.13,0,0,4429.13,14238.8,4016.89)">
            <path d="M0.05,-0l0.15,-0l0,-0.306c0.005,-0.028 0.021,-0.046 0.048,-0.053c0.038,-0.005 0.063,0.011 0.074,0.047l0,0.312l0.154,-0l0,-0.302c0.004,-0.033 0.022,-0.053 0.055,-0.059c0.038,0 0.06,0.019 0.067,0.055l0,0.306l0.15,-0l-0,-0.353c-0.012,-0.048 -0.038,-0.088 -0.078,-0.118c-0.087,-0.059 -0.169,-0.052 -0.245,0.021c-0.001,-0.002 -0.003,-0.004 -0.005,-0.006c-0.07,-0.067 -0.144,-0.072 -0.223,-0.016l-0.018,-0.027l-0.129,-0l-0,0.499Z" style="fill:#fff;fill-rule:nonzero;"/>
        </g>
    </g>
    <g>
        <rect x="4638.52" y="24357.2" width="6377.95" height="6377.84" style="fill:#fff;"/>
        <path d="M7154.93,25314.5c-164.772,-0 -155.669,155.784 -155.669,155.784l-0,274.813l-284.146,-0c-146.451,-0 -137.233,137.348 -137.233,137.348l-0,1717.55l119.143,197.036l173.99,128.13l146.451,1548.05l-1352.52,-0l0,311.569l4720.67,-0l0,-311.569l-1456.45,-0l146.451,-1548.05l174.106,-128.13l119.028,-164.888l-0,-1749.7c-0,0 9.218,-137.348 -137.234,-137.348l-284.145,-0l-0,-274.813c-0,0 9.218,-155.784 -155.67,-155.784c0,-9.218 -1636.78,-9.218 -1636.78,-0Z" style="fill:#1c1c20;fill-rule:nonzero;"/>
        <path d="M7154.93,25314.5c-164.772,-0 -155.669,155.784 -155.669,155.784l-0,274.813l-284.146,-0c-146.451,-0 -137.233,137.348 -137.233,137.348l-0,1717.55l119.143,197.036l173.99,128.13l146.451,1548.05l-1352.52,-0l0,311.569l4720.67,-0l0,-311.569l-1456.45,-0l146.451,-1548.05l174.106,-128.13l119.028,-164.888l-0,-1749.7c-0,0 9.218,-137.348 -137.234,-137.348l-284.145,-0l-0,-274.813c-0,0 9.218,-155.784 -155.67,-155.784c0,-9.218 -1636.78,-9.218 -1636.78,-0Z" style="fill:none;fill-rule:nonzero;stroke:#1c1c20;stroke-width:10.42px;stroke-linecap:butt;stroke-linejoin:miter;stroke-miterlimit:3.864;"/>
        <rect x="6990.27" y="26129.8" width="1966.44" height="1200.07" style="fill:#fff;"/>
        <rect x="6990.27" y="26129.8" width="1966.44" height="1200.07" style="fill:none;stroke:#1c1c20;stroke-width:10.42px;stroke-linecap:butt;stroke-linejoin:miter;stroke-miterlimit:3.864;"/>
        <path d="M6597.81,27558.8l-494.547,1264.14c-0,-0 -215.356,403.173 -572.555,233.562c-0,4.609 -371.026,-119.143 -229.068,-563.222c-4.609,-4.609 494.662,-1342.03 494.662,-1342.03l0,-274.813l274.813,-737.327l100.822,0c-0,0 137.349,-480.95 361.808,-462.744c4.493,-4.61 91.719,13.711 22.814,64.18c0,-9.218 -293.018,146.567 -251.882,421.379c-4.609,0 155.899,256.607 155.899,256.607l0,63.95l155.67,-0l-18.436,1076.32Z" style="fill:#1c1c20;fill-rule:nonzero;"/>
        <path d="M6597.81,27558.8l-494.547,1264.14c-0,-0 -215.356,403.173 -572.555,233.562c-0,4.609 -371.026,-119.143 -229.068,-563.222c-4.609,-4.609 494.662,-1342.03 494.662,-1342.03l0,-274.813l274.813,-737.327l100.822,0c-0,0 137.349,-480.95 361.808,-462.744c4.493,-4.61 91.719,13.711 22.814,64.18c0,-9.218 -293.018,146.567 -251.882,421.379c-4.609,0 155.899,256.607 155.899,256.607l0,63.95l155.67,-0l-18.436,1076.32Z" style="fill:none;fill-rule:nonzero;stroke:#1c1c20;stroke-width:10.42px;stroke-linecap:butt;stroke-linejoin:miter;stroke-miterlimit:3.864;"/>
        <path d="M6203.97,26871.7l-77.893,160.279l-96.098,73.398l-526.695,1451.84c0,0 -77.892,233.793 100.823,306.961c-9.219,4.493 201.644,96.213 293.133,-128.016c-9.218,0 636.62,-1667.43 636.62,-1667.43c-0,0 -86.995,-82.386 -73.168,-201.529c4.493,0 -100.823,0 -100.823,0c0,0 -141.957,86.995 -132.854,558.843c4.493,-4.609 -77.777,0 -77.777,0c-0,0 4.609,-430.366 119.027,-554.234l-64.295,0l-0,-0.115Z" style="fill:#fff;"/>
        <path d="M6203.97,26871.7l-77.893,160.279l-96.098,73.398l-526.695,1451.84c0,0 -77.892,233.793 100.823,306.961c-9.219,4.493 201.644,96.213 293.133,-128.016c-9.218,0 636.62,-1667.43 636.62,-1667.43c-0,0 -86.995,-82.386 -73.168,-201.529c4.493,0 -100.823,0 -100.823,0c0,0 -141.957,86.995 -132.854,558.843c4.493,-4.609 -77.777,0 -77.777,0c-0,0 4.609,-430.366 119.027,-554.234l-64.295,0l-0,-0.115Z" style="fill:none;fill-rule:nonzero;stroke:#1c1c20;stroke-width:10.42px;stroke-linecap:butt;stroke-linejoin:miter;stroke-miterlimit:3.864;"/>
    </g>
    <g>
        <rect x="22599.3" y="35336.1" width="6378.07" height="6377.95" style="fill:#fff;"/>
        <path d="M26824.9,36047.9c81.351,-0 76.281,66.025 76.281,66.025c-0,-0 -4.955,442.819 -0,442.819c-0,56 -56.001,56 -56.001,56l-468.054,0l0,228.957c0,0 442.704,5.186 437.634,0c96.676,0 86.421,86.536 86.421,86.536c-0,0 -0,264.562 -0,259.492c-0,96.791 -91.606,91.606 -91.606,91.606c-0,0 -112.001,10.14 -112.001,0c-356.168,0 -320.563,340.958 -320.563,340.958l0,707.381l162.817,162.816c-0,0 -0,2280.01 -0,2275.05c-0,81.35 -142.422,81.35 -142.422,81.35c-106.931,0 -157.861,66.256 -152.676,66.256c0,76.28 -147.606,91.606 -147.606,91.606c-0,-0 -147.607,-15.326 -147.607,-91.606c5.07,-0 -45.745,-66.256 -152.561,-66.256c0,0 -142.536,0 -142.536,-81.35c0,4.954 0,-2275.05 0,-2275.05l162.816,-162.816l0,-707.381c0,0 -25.35,-340.958 -417.353,-340.958l-676.846,0c-0,0 -40.791,0 -40.791,-56c0,-0 0,-340.843 0,-335.773c0,-51.046 45.861,-45.861 45.861,-45.861c-5.185,5.186 1089.01,0 1089.01,0l0,-228.957l-1099.15,0c-0,0 -40.791,0 -40.791,-40.79c-5.185,-4.955 0,-300.283 0,-300.283c0,0 0,-45.63 45.746,-45.63l580.17,0l178.026,-178.141c0.115,-0 1338.71,-5.07 1343.78,-0Z" style="fill:#1c1c20;fill-rule:nonzero;"/>
        <path d="M26824.9,36047.9c81.351,-0 76.281,66.025 76.281,66.025c-0,-0 -4.955,442.819 -0,442.819c-0,56 -56.001,56 -56.001,56l-468.054,0l0,228.957c0,0 442.704,5.186 437.634,0c96.676,0 86.421,86.536 86.421,86.536c-0,0 -0,264.562 -0,259.492c-0,96.791 -91.606,91.606 -91.606,91.606c-0,0 -112.001,10.14 -112.001,0c-356.168,0 -320.563,340.958 -320.563,340.958l0,707.381l162.817,162.816c-0,0 -0,2280.01 -0,2275.05c-0,81.35 -142.422,81.35 -142.422,81.35c-106.931,0 -157.861,66.256 -152.676,66.256c0,76.28 -147.606,91.606 -147.606,91.606c-0,-0 -147.607,-15.326 -147.607,-91.606c5.07,-0 -45.745,-66.256 -152.561,-66.256c0,0 -142.536,0 -142.536,-81.35c0,4.954 0,-2275.05 0,-2275.05l162.816,-162.816l0,-707.381c0,0 -25.35,-340.958 -417.353,-340.958l-676.846,0c-0,0 -40.791,0 -40.791,-56c0,-0 0,-340.843 0,-335.773c0,-51.046 45.861,-45.861 45.861,-45.861c-5.185,5.186 1089.01,0 1089.01,0l0,-228.957l-1099.15,0c-0,0 -40.791,0 -40.791,-40.79c-5.185,-4.955 0,-300.283 0,-300.283c0,0 0,-45.63 45.746,-45.63l580.17,0l178.026,-178.141c0.115,-0 1338.71,-5.07 1343.78,-0Z" style="fill:none;fill-rule:nonzero;stroke:#1c1c20;stroke-width:11.59px;stroke-linecap:butt;stroke-linejoin:miter;stroke-miterlimit:3.864;"/>
    </g>
    <g>
        <rect x="4638.52" y="35336.1" width="6377.95" height="6377.72" style="fill:#fff;"/>
        <path d="M9273.03,40003.8c335.876,428.861 -108.425,656.312 -108.425,656.312c-351.431,284.255 -609.877,-180.901 -609.877,-180.901l-677.167,-1322.88c0,-0 -852.537,1379.91 -852.537,1374.5c-294.626,496.151 -676.936,180.901 -687.306,175.716c-403.167,-299.927 -5.186,-692.492 -5.186,-692.492c0,-0 1188.53,-1410.91 1188.53,-1416.21c139.536,-160.045 -77.545,-160.045 -92.985,-175.6c-604.691,-129.166 -837.212,-496.037 -837.212,-490.852c-491.082,-651.357 -372.171,-1085.4 -372.171,-1085.4c155.09,-511.706 615.062,-351.43 609.992,-356.616c630.386,165.461 857.722,795.847 862.907,801.148c67.175,144.605 206.71,904.387 206.71,904.387c0,0 92.985,-124.211 165.461,-589.252c-0,10.486 5.07,-278.955 330.806,-666.797c5.07,0 134.235,-227.105 490.851,-439.115c-0,-0 242.775,-108.541 139.65,103.24c-5.3,5.185 -465.156,682.236 -465.156,682.236c0,0 -15.44,30.996 15.555,51.966c10.37,0 30.88,15.325 61.99,-10.485c5.07,-10.37 485.897,-682.352 485.897,-682.352c-0,-0 41.25,-61.99 118.795,-20.625c64.295,59.916 32.032,125.708 32.032,125.708c0,0 -478.752,673.135 -486.933,681.546c-14.403,37.563 6.913,52.196 10.37,61.875c29.612,22.699 53.924,-2.074 53.924,-2.074c0,-0 490.506,-655.275 493.732,-661.958c166.613,-166.843 142.992,98.286 142.992,98.286c-84.113,406.162 -257.178,602.272 -255.565,607.226c-260.52,434.046 -512.628,624.28 -693.759,701.94c-5.07,4.955 -139.421,25.695 -211.666,165.346c-10.485,-0 -139.65,216.85 -139.65,216.85c-0,-0 1080.22,1390.63 1085.4,1385.33Z" style="fill:#1c1c20;fill-rule:nonzero;"/>
    </g>
    <g>
        <rect x="13618.9" y="35336.1" width="6378.07" height="6377.95" style="fill:#fff;"/>
        <path d="M18482.2,37743.8c123.293,-0 223.31,100.132 223.31,223.311l0,502.276l-2734.69,-0l0,-725.587l2511.38,-0Z" style="fill:#1c1c20;fill-rule:nonzero;"/>
        <path d="M18482.2,37743.8c123.293,-0 223.31,100.132 223.31,223.311l0,502.276l-2734.69,-0l0,-725.587l2511.38,-0Z" style="fill:none;fill-rule:nonzero;stroke:#1c1c20;stroke-width:11.17px;stroke-linecap:butt;stroke-linejoin:miter;stroke-miterlimit:3.864;"/>
        <path d="M14798.7,38580.9l4018.44,-0l-0,-613.816c-0,-123.179 99.902,-223.311 223.195,-223.311c123.294,-0 223.311,100.132 223.311,223.311l-0,1785.91l-446.506,0l-0,-669.817l-4018.44,0l-0,669.817l-446.391,0l-0,-2232.3c-0,-123.409 99.902,-223.196 223.31,-223.196c123.294,0 223.196,99.787 223.196,223.196l0,1060.21l-0.115,-0Z" style="fill:#1c1c20;fill-rule:nonzero;"/>
        <path d="M14798.7,38580.9l4018.44,-0l-0,-613.816c-0,-123.179 99.902,-223.311 223.195,-223.311c123.294,-0 223.311,100.132 223.311,223.311l-0,1785.91l-446.506,0l-0,-669.817l-4018.44,0l-0,669.817l-446.391,0l-0,-2232.3c-0,-123.409 99.902,-223.196 223.31,-223.196c123.294,0 223.196,99.787 223.196,223.196l0,1060.21l-0.115,-0Z" style="fill:none;fill-rule:nonzero;stroke:#1c1c20;stroke-width:11.17px;stroke-linecap:butt;stroke-linejoin:miter;stroke-miterlimit:3.864;"/>
        <path d="M14910.5,38469.4l0,-446.506c0,-0 27.77,-279.081 474.392,-279.081c446.506,-0 474.276,279.081 474.276,279.081l-0,446.506l-948.668,-0Z" style="fill:#1c1c20;fill-rule:nonzero;"/>
        <path d="M14910.5,38469.4l0,-446.506c0,-0 27.77,-279.081 474.392,-279.081c446.506,-0 474.276,279.081 474.276,279.081l-0,446.506l-948.668,-0Z" style="fill:none;fill-rule:nonzero;stroke:#1c1c20;stroke-width:11.17px;stroke-linecap:butt;stroke-linejoin:miter;stroke-miterlimit:3.864;"/>
    </g>
    <path d="M51395.8,7365.61l1.108,-3140.26l-643.332,-0l-0,137.303c-28.051,178.642 -131.767,279.405 -311.147,302.288l-284.572,1.108l0,652.19l539.247,-1.108l0,2048.47l698.696,-0Z" style="fill:#fff;fill-rule:nonzero;"/>
    <path d="M51884.1,6535.15c130.66,437.746 415.232,722.318 853.716,853.716c724.163,121.063 1212.84,-163.14 1466.04,-852.609c64.961,-253.937 51.304,-503.444 -40.969,-748.523c-0.739,-2.215 -1.846,-4.798 -3.322,-7.751c-323.327,-606.053 -812.746,-806.472 -1468.26,-601.255l37.648,-293.43l1355.32,-0l-1.108,-663.263l-1962.11,-0l-205.955,1633.24l738.558,120.694l7.751,-8.858c36.91,-62.746 85.999,-112.943 147.269,-150.591c237.697,-117.372 436.27,-70.128 595.718,141.732c104.085,186.762 107.038,375.739 8.859,566.93c-75.296,107.037 -177.535,171.629 -306.718,193.774c-280.512,18.455 -455.831,-108.144 -525.959,-379.798l-696.482,195.989Z" style="fill:#fff;fill-rule:nonzero;"/>
    <path d="M54882.6,7367.83l2244.46,0l0,-662.155l-994.34,-0c140.256,-109.99 275.713,-225.517 406.373,-346.58c175.689,-138.041 325.172,-300.443 448.45,-487.205c260.58,-583.907 149.852,-1085.51 -332.185,-1504.8c-673.967,-373.524 -1263.41,-269.439 -1768.33,312.254c-103.346,247.293 -152.436,505.29 -147.269,773.991l741.88,0c0.738,-90.797 7.751,-180.856 21.039,-270.177c43.553,-191.929 161.294,-310.039 353.223,-354.331c266.486,-22.145 435.532,95.965 507.136,354.331c3.691,152.805 -33.588,294.907 -111.836,426.304c-149.852,164.616 -315.945,311.885 -498.277,441.806l-549.213,420.768c-78.986,59.793 -153.912,124.016 -224.778,192.667c-64.961,81.939 -97.072,174.951 -96.334,279.036l-0,424.089Z" style="fill:#fff;fill-rule:nonzero;"/>
    <g>
        <rect x="4638.52" y="50395.2" width="6377.95" height="6377.84" style="fill:#fff;"/>
        <path d="M7154.93,51352.5c-164.772,0 -155.669,155.785 -155.669,155.785l-0,274.812l-284.146,0c-146.451,0 -137.233,137.349 -137.233,137.349l-0,1717.55l119.143,197.035l173.99,128.131l146.451,1548.05l-1352.52,-0l0,311.569l4720.67,0l0,-311.569l-1456.45,-0l146.451,-1548.05l174.106,-128.131l119.028,-164.887l-0,-1749.7c-0,-0 9.218,-137.349 -137.234,-137.349l-284.145,0l-0,-274.812c-0,-0 9.218,-155.785 -155.67,-155.785c0,-9.218 -1636.78,-9.218 -1636.78,0Z" style="fill:#1c1c20;fill-rule:nonzero;"/>
        <path d="M7154.93,51352.5c-164.772,0 -155.669,155.785 -155.669,155.785l-0,274.812l-284.146,0c-146.451,0 -137.233,137.349 -137.233,137.349l-0,1717.55l119.143,197.035l173.99,128.131l146.451,1548.05l-1352.52,-0l0,311.569l4720.67,0l0,-311.569l-1456.45,-0l146.451,-1548.05l174.106,-128.131l119.028,-164.887l-0,-1749.7c-0,-0 9.218,-137.349 -137.234,-137.349l-284.145,0l-0,-274.812c-0,-0 9.218,-155.785 -155.67,-155.785c0,-9.218 -1636.78,-9.218 -1636.78,0Z" style="fill:none;fill-rule:nonzero;stroke:#1c1c20;stroke-width:10.42px;stroke-linecap:butt;stroke-linejoin:miter;stroke-miterlimit:3.864;"/>
        <rect x="6990.27" y="52167.8" width="1966.44" height="1200.07" style="fill:#fff;"/>
        <rect x="6990.27" y="52167.8" width="1966.44" height="1200.07" style="fill:none;stroke:#1c1c20;stroke-width:10.42px;stroke-linecap:butt;stroke-linejoin:miter;stroke-miterlimit:3.864;"/>
        <path d="M6597.81,53596.8l-494.547,1264.14c-0,0 -215.356,403.174 -572.555,233.562c-0,4.609 -371.026,-119.143 -229.068,-563.221c-4.609,-4.609 494.662,-1342.03 494.662,-1342.03l0,-274.812l274.813,-737.327l100.822,-0c-0,-0 137.349,-480.951 361.808,-462.745c4.493,-4.609 91.719,13.712 22.814,64.18c0,-9.218 -293.018,146.567 -251.882,421.379c-4.609,0 155.899,256.607 155.899,256.607l0,63.95l155.67,0l-18.436,1076.32Z" style="fill:#1c1c20;fill-rule:nonzero;"/>
        <path d="M6597.81,53596.8l-494.547,1264.14c-0,0 -215.356,403.174 -572.555,233.562c-0,4.609 -371.026,-119.143 -229.068,-563.221c-4.609,-4.609 494.662,-1342.03 494.662,-1342.03l0,-274.812l274.813,-737.327l100.822,-0c-0,-0 137.349,-480.951 361.808,-462.745c4.493,-4.609 91.719,13.712 22.814,64.18c0,-9.218 -293.018,146.567 -251.882,421.379c-4.609,0 155.899,256.607 155.899,256.607l0,63.95l155.67,0l-18.436,1076.32Z" style="fill:none;fill-rule:nonzero;stroke:#1c1c20;stroke-width:10.42px;stroke-linecap:butt;stroke-linejoin:miter;stroke-miterlimit:3.864;"/>
        <path d="M6203.97,52909.7l-77.893,160.278l-96.098,73.399l-526.695,1451.84c0,-0 -77.892,233.792 100.823,306.96c-9.219,4.494 201.644,96.213 293.133,-128.015c-9.218,-0 636.62,-1667.43 636.62,-1667.43c-0,-0 -86.995,-82.386 -73.168,-201.529c4.493,-0 -100.823,-0 -100.823,-0c0,-0 -141.957,86.995 -132.854,558.843c4.493,-4.609 -77.777,-0 -77.777,-0c-0,-0 4.609,-430.367 119.027,-554.234l-64.295,-0l-0,-0.115Z" style="fill:#fff;"/>
        <path d="M6203.97,52909.7l-77.893,160.278l-96.098,73.399l-526.695,1451.84c0,-0 -77.892,233.792 100.823,306.96c-9.219,4.494 201.644,96.213 293.133,-128.015c-9.218,-0 636.62,-1667.43 636.62,-1667.43c-0,-0 -86.995,-82.386 -73.168,-201.529c4.493,-0 -100.823,-0 -100.823,-0c0,-0 -141.957,86.995 -132.854,558.843c4.493,-4.609 -77.777,-0 -77.777,-0c-0,-0 4.609,-430.367 119.027,-554.234l-64.295,-0l-0,-0.115Z" style="fill:none;fill-rule:nonzero;stroke:#1c1c20;stroke-width:10.42px;stroke-linecap:butt;stroke-linejoin:miter;stroke-miterlimit:3.864;"/>
    </g>
    <path d="M60384.1,57017c0,1642.71 -1333.67,2976.38 -2976.38,2976.38l-53236.7,-0c-1642.71,-0 -2976.38,-1333.67 -2976.38,-2976.38l-0,-6865.87c-0,-1642.71 1333.67,-2976.38 2976.38,-2976.38l53236.7,-0c1642.71,-0 2976.38,1333.67 2976.38,2976.38l0,6865.87Z" style="fill:none;stroke:#fff;stroke-width:850.39px;"/>
    <path d="M14120,55999c-317.421,566.929 -257.628,1091.04 179.38,1572.34c380.905,331.447 795.398,380.537 1243.48,147.269l36.541,97.441l654.404,-2.215l-1.107,-2945.37l-710.876,0l-2.215,755.167c-254.675,-145.423 -521.899,-174.212 -801.673,-86.368c-250.984,87.107 -450.295,241.019 -597.933,461.738Zm1398.5,494.955c5.905,116.634 5.905,233.637 -0,351.009c-42.077,219.98 -173.474,349.164 -394.193,387.549c-274.606,5.168 -439.592,-126.23 -494.956,-394.193c-8.12,-115.157 -5.905,-229.576 6.644,-343.257c43.553,-203.002 166.831,-326.28 369.833,-369.833c273.13,-19.193 444.02,103.715 512.672,368.725Z" style="fill:#fff;fill-rule:nonzero;"/>
    <path d="M16549.4,57060.8c133.612,443.652 427.042,712.722 880.29,807.21c466.536,62.746 876.969,-60.901 1231.3,-370.94l-461.737,-465.059c-150.59,132.874 -326.279,204.848 -527.067,215.92c-226.624,5.906 -379.429,-97.441 -458.415,-310.039l1478.22,-0c36.91,-224.409 18.086,-443.652 -56.471,-657.726c-225.148,-564.715 -640.01,-814.961 -1244.59,-750.739l-9.965,2.215c-413.386,87.844 -687.623,331.447 -822.712,730.807l-2.214,6.644c-73.081,263.533 -75.296,527.436 -6.644,791.707Zm669.906,-647.76c42.077,-151.329 139.149,-248.401 291.216,-291.216c238.435,-33.218 396.407,63.853 473.917,291.216l-765.133,-0Z" style="fill:#fff;fill-rule:nonzero;"/>
    <path d="M23331.5,55326.8c-130.659,-261.319 -326.649,-456.57 -587.967,-585.753c-728.593,-272.392 -1294.78,-76.034 -1698.57,589.074c-265.01,606.054 -269.07,1213.58 -12.18,1822.59c132.874,273.868 336.245,477.239 610.113,610.113c737.451,267.225 1306.23,63.484 1706.32,-611.22c241.387,-610.483 235.482,-1218.75 -17.717,-1824.8Zm-550.32,1340.92c-6.644,34.695 -15.871,68.651 -27.682,101.87c-160.187,334.399 -419.291,453.986 -777.313,358.76c-215.551,-81.939 -345.472,-235.483 -389.764,-460.63c-25.098,-214.075 -29.527,-428.15 -13.287,-642.225c3.691,-35.433 6.275,-70.866 7.751,-106.299c20.669,-293.061 171.629,-481.668 452.879,-565.822c53.888,-14.763 108.514,-21.776 163.878,-21.038c363.927,39.862 560.285,242.126 589.075,606.791l1.107,7.751c25.098,239.912 22.884,480.192 -6.644,720.842Z" style="fill:#fff;fill-rule:nonzero;"/>
    <path d="M27667.7,57313.3c-58.317,1.476 -115.896,-4.429 -172.736,-17.716c-54.626,-22.884 -81.201,-64.223 -79.725,-124.016l0,-968.873c-8.12,-313.731 -160.925,-521.9 -458.415,-624.508c-549.212,-178.642 -1049.7,-88.214 -1501.48,271.284l331.077,528.175c86.369,-81.939 184.179,-146.9 293.431,-194.882c145.423,-66.437 297.121,-87.107 455.093,-62.008c35.433,8.12 68.652,21.038 99.656,38.755c38.385,22.145 63.115,54.626 74.188,97.441c2.214,18.454 -4.06,33.218 -18.824,44.291c-27.313,10.335 -55.364,17.717 -84.154,22.146l-594.611,102.977c-269.439,71.604 -456.57,236.59 -561.393,494.956c-86.368,420.767 66.437,720.103 458.416,898.007c344.734,118.848 661.417,66.806 950.049,-156.127c155.758,155.758 343.627,226.255 563.607,211.491l245.817,-561.393Zm-1470.47,-78.617c-28.79,-17.717 -49.459,-42.815 -62.008,-75.295c-22.884,-86.368 6.274,-148.745 87.475,-187.131c22.884,-9.597 46.506,-16.979 70.866,-22.146c137.303,-21.407 273.499,-47.244 408.588,-77.51l-1.107,231.422c-16.979,56.103 -51.305,97.811 -102.978,125.124c-132.874,64.96 -266.486,66.806 -400.836,5.536Z" style="fill:#fff;fill-rule:nonzero;"/>
    <path d="M29708.4,57816l2244.46,-0l0,-662.156l-994.34,0c140.255,-109.99 275.713,-225.516 406.373,-346.579c175.689,-138.042 325.172,-300.443 448.449,-487.205c260.581,-583.908 149.853,-1085.51 -332.185,-1504.8c-673.966,-373.524 -1263.41,-269.439 -1768.33,312.254c-103.347,247.293 -152.436,505.29 -147.269,773.991l741.88,-0c0.738,-90.798 7.751,-180.857 21.038,-270.178c43.553,-191.929 161.295,-310.039 353.224,-354.33c266.486,-22.146 435.531,95.964 507.136,354.33c3.69,152.806 -33.588,294.907 -111.836,426.305c-149.852,164.616 -315.945,311.884 -498.278,441.806l-549.212,420.767c-78.987,59.794 -153.913,124.016 -224.779,192.668c-64.96,81.939 -97.072,174.951 -96.333,279.035l-0,424.09Z" style="fill:#fff;fill-rule:nonzero;"/>
    <path d="M34817.4,57360.9l396.408,0l-0,-686.515l-396.408,-0l0,-2004.18l-896.899,0l-1487.08,2068.41l0,622.293l1648.75,0l0,452.879l735.236,0l0,-452.879Zm-735.236,-686.515l-812.746,-0l813.853,-1075.17l-1.107,1075.17Z" style="fill:#fff;fill-rule:nonzero;"/>
    <path d="M39316.3,56285.7c-30.266,-274.606 -161.663,-486.467 -394.193,-635.581l-6.643,-4.429c-339.567,-189.714 -676.551,-186.023 -1010.95,11.073l1.107,-981.053l-702.018,-0l0,3135.83l3.322,5.536l698.696,0l0,-1332.06c31.004,-173.474 132.874,-275.714 305.61,-306.717c214.075,-5.168 343.258,97.071 387.549,306.717l0,1326.53l717.52,-0l0,-1525.84Z" style="fill:#fff;fill-rule:nonzero;"/>
    <path d="M15991.4,52329.3c-58.317,1.476 -115.896,-4.429 -172.736,-17.717c-54.626,-22.884 -81.201,-64.222 -79.725,-124.015l0,-968.873c-8.12,-313.731 -160.925,-521.9 -458.415,-624.508c-549.213,-178.642 -1049.7,-88.214 -1501.48,271.284l331.077,528.174c86.368,-81.939 184.178,-146.899 293.43,-194.882c145.424,-66.437 297.122,-87.106 455.094,-62.007c35.433,8.12 68.652,21.038 99.655,38.754c38.386,22.146 63.116,54.626 74.188,97.441c2.215,18.455 -4.06,33.219 -18.823,44.292c-27.313,10.334 -55.365,17.716 -84.154,22.145l-594.611,102.978c-269.439,71.604 -456.57,236.589 -561.393,494.956c-86.368,420.767 66.437,720.103 458.416,898.006c344.734,118.849 661.417,66.807 950.049,-156.127c155.758,155.758 343.627,226.255 563.607,211.492l245.817,-561.393Zm-1470.47,-78.617c-28.79,-17.717 -49.459,-42.815 -62.008,-75.296c-22.884,-86.368 6.274,-148.745 87.475,-187.13c22.884,-9.597 46.506,-16.979 70.866,-22.146c137.303,-21.408 273.499,-47.244 408.588,-77.51l-1.108,231.422c-16.978,56.103 -51.304,97.81 -102.977,125.123c-132.874,64.961 -266.486,66.806 -400.836,5.537Z" style="fill:#fff;fill-rule:nonzero;"/>
    <path d="M19119.4,52829.7l1.107,-3140.26l-643.332,0l0,137.303c-28.051,178.642 -131.766,279.405 -311.146,302.289l-284.572,1.107l-0,652.19l539.247,-1.107l-0,2048.47l698.696,-0Z" style="fill:#fff;fill-rule:nonzero;"/>
    <path d="M22291.8,50342.8c-130.66,-261.319 -326.649,-456.57 -587.968,-585.753c-728.592,-272.391 -1294.78,-76.033 -1698.57,589.075c-265.01,606.053 -269.07,1213.58 -12.181,1822.59c132.874,273.868 336.245,477.239 610.114,610.113c737.45,267.224 1306.23,63.484 1706.32,-611.221c241.388,-610.482 235.483,-1218.75 -17.716,-1824.8Zm-550.32,1340.92c-6.644,34.694 -15.871,68.651 -27.682,101.87c-160.187,334.399 -419.291,453.986 -777.313,358.76c-215.551,-81.939 -345.473,-235.483 -389.764,-460.63c-25.098,-214.075 -29.527,-428.15 -13.287,-642.225c3.691,-35.433 6.274,-70.866 7.751,-106.299c20.669,-293.061 171.629,-481.668 452.879,-565.822c53.887,-14.764 108.513,-21.776 163.878,-21.038c363.927,39.862 560.285,242.126 589.074,606.791l1.108,7.751c25.098,239.911 22.884,480.192 -6.644,720.842Z" style="fill:#fff;fill-rule:nonzero;"/>
    <path d="M26512.8,52830.9l-847.071,-1379.67l803.887,-883.612l-931.225,-0l-534.818,566.929l1.107,-1416.22l-724.163,0l-0,3114.79l723.056,-0l0,-718.627l147.269,-148.376l571.358,865.896l790.6,-1.108Z" style="fill:#fff;fill-rule:nonzero;"/>
    <path d="M26929.1,52829.7l664.37,-0l0,-1351.99c20.669,-125.492 92.274,-204.478 214.813,-236.959c167.569,-19.931 276.452,50.197 326.649,210.384l-0,1378.57l680.979,-0l0,-1334.28c15.502,-149.852 97.441,-237.327 245.817,-262.426c166.092,0 264.641,81.57 295.645,244.71l-0,1351.99l665.477,-0l-2.215,-1560.16c-51.673,-215.552 -166.092,-390.502 -343.257,-524.853c-386.811,-261.319 -748.524,-229.946 -1085.14,94.119c-7.382,-8.858 -15.133,-17.716 -23.253,-26.574c-310.04,-296.752 -639.641,-320.375 -988.804,-70.867l-77.51,-121.801l-573.573,0l0,2210.14Z" style="fill:#fff;fill-rule:nonzero;"/>
    <path d="M53293.9,27211.1l-2255.68,-1408.34l5640.25,-1130.36l-1130.36,5640.25l-1408.34,-2255.68l-3549.66,4056.76l-1352.97,-1352.97l4056.76,-3549.66Zm10.612,6.625l0.471,0.471l0.109,-0.109l-0.58,-0.362Zm828.163,828.163l0.471,0.471l-0.362,-0.58l-0.109,0.109Z" style="fill:#fff;"/>
    <path d="M54538.5,53212.4l-1727.24,399.442l2125.98,-3191.7l2125.99,3191.7l-1727.24,-399.442l239.048,3585.7l-1275.59,0l239.048,-3585.7Zm8.126,-1.879l0.444,-0l-0,-0.103l-0.444,0.103Zm780.799,-0l0.444,-0l-0.444,-0.103l0,0.103Z" style="fill:#fff;"/>
</svg>
