<?xml version="1.0" encoding="UTF-8" standalone="no"?>
<!DOCTYPE svg PUBLIC "-//W3C//DTD SVG 1.1//EN" "http://www.w3.org/Graphics/SVG/1.1/DTD/svg11.dtd">
<svg width="100%" height="100%" viewBox="0 0 152 227" version="1.1" xmlns="http://www.w3.org/2000/svg" xmlns:xlink="http://www.w3.org/1999/xlink" xml:space="preserve" xmlns:serif="http://www.serif.com/" style="fill-rule:evenodd;clip-rule:evenodd;stroke-miterlimit:3.864;">
    <g>
        <g>
            <g id="Capa_1">
                <path d="M142.591,0.404c4.621,0 8.363,3.744 8.363,8.363l0,209.1c0,4.617 -3.742,8.367 -8.363,8.367l-133.824,0c-4.619,0 -8.367,-3.75 -8.367,-8.367l0,-209.104c0,-4.619 3.748,-8.363 8.367,-8.363l133.824,0l0,0.004Z" style="fill:#fff;fill-rule:nonzero;"/>
                <path d="M142.591,0.404c4.621,0 8.363,3.744 8.363,8.363l0,209.1c0,4.617 -3.742,8.367 -8.363,8.367l-133.824,0c-4.619,0 -8.367,-3.75 -8.367,-8.367l0,-209.104c0,-4.619 3.748,-8.363 8.367,-8.363l133.824,0l0,0.004Z" style="fill:none;fill-rule:nonzero;stroke:#1c1d20;stroke-width:0.8px;"/>
                <path d="M8.767,4.083c-2.588,0 -4.684,2.1 -4.684,4.684l0,209.1c0,2.586 2.096,4.688 4.684,4.688l133.824,0c2.59,0 4.684,-2.098 4.684,-4.688l0,-209.104c0,-2.584 -2.09,-4.684 -4.684,-4.684l-133.824,0" style="fill:#003fff;fill-rule:nonzero;"/>
                <path d="M33.859,209.496l8.365,0l-0,-172.293l8.363,0l-12.545,-20.077l-12.546,20.077l8.363,0l0,172.293" style="fill:#fff;fill-rule:nonzero;"/>
                <path d="M79.86,143.019l-0,66.477l-8.365,0l0,-172.293l-8.363,0l12.546,-20.077l12.545,20.077l-8.363,0l-0,35.624l17.224,-17.224l-5.914,-5.914l23.033,-5.291l-5.292,23.032l-5.914,-5.913l-23.137,23.137l-0,46.538l17.224,-17.224l-5.914,-5.914l23.033,-5.291l-5.292,23.032l-5.914,-5.913l-23.137,23.137Z" style="fill:#fff;fill-rule:nonzero;"/>
            </g>
        </g>
    </g>
    <path d="M110.848,99.031l4.857,0l0.988,-3.066l7.441,0.007l0.959,3.059l5.009,0l-6.87,-20.487l-5.564,-0.007l-6.82,20.494Zm7.462,-7.642l2.302,-7.101l2.309,7.101l-4.611,0Z" style="fill:#fff;fill-rule:nonzero;"/>
    <path d="M112.855,39.815l11.352,0c1.828,-0.293 3.235,-1.227 4.221,-2.8c1.545,-3.233 0.871,-5.908 -2.02,-8.024c1.236,-1.03 1.912,-2.346 2.028,-3.948c-0.135,-3.315 -1.843,-5.215 -5.124,-5.701l-10.464,-0.021l0,0.036l0.007,20.458Zm4.742,-12.564l0.007,-3.644l4.272,0c0.173,-0.009 0.339,0.019 0.498,0.087c0.467,0.207 0.801,0.543 1.003,1.01c0.346,1.102 0.01,1.927 -1.01,2.475c-0.159,0.044 -0.323,0.07 -0.491,0.08l-4.279,-0.008Zm0.014,8.234l0,-4.293l4.539,-0c0.274,-0.029 0.541,0.009 0.801,0.115c0.765,0.322 1.225,0.89 1.378,1.703c0.077,1.333 -0.529,2.16 -1.818,2.483l-4.9,-0.008Z" style="fill:#fff;fill-rule:nonzero;"/>
</svg>
