<?xml version="1.0" encoding="UTF-8" standalone="no"?>
<!DOCTYPE svg PUBLIC "-//W3C//DTD SVG 1.1//EN" "http://www.w3.org/Graphics/SVG/1.1/DTD/svg11.dtd">
<svg width="100%" height="100%" viewBox="0 0 61119 66895" version="1.1" xmlns="http://www.w3.org/2000/svg" xmlns:xlink="http://www.w3.org/1999/xlink" xml:space="preserve" style="fill-rule:evenodd;clip-rule:evenodd;stroke-linejoin:round;stroke-miterlimit:2;">
    <path d="M59387.1,13827.8c-0,-1642.71 -1333.67,-2976.38 -2976.38,-2976.38l-51702.9,0c-1642.71,0 -2976.38,1333.67 -2976.38,2976.38l0,48317c0,1642.71 1333.67,2976.38 2976.38,2976.38l51702.9,-0c1642.71,-0 2976.38,-1333.67 2976.38,-2976.38l-0,-48317Z" style="fill:#003fff;"/>
    <path d="M60450.1,13827.8c0,-2229.39 -1809.98,-4039.37 -4039.37,-4039.37l-51702.9,0c-2229.39,0 -4039.37,1809.98 -4039.37,4039.37c0,0 0,48317 0,48317c0,2229.39 1809.98,4039.37 4039.37,4039.37c0,-0 51702.9,-0 51702.9,-0c2229.39,-0 4039.37,-1809.98 4039.37,-4039.37l0,-48317Zm-1062.99,0c-0,-1642.71 -1333.67,-2976.38 -2976.38,-2976.38l-51702.9,0c-1642.71,0 -2976.38,1333.67 -2976.38,2976.38l0,48317c0,1642.71 1333.67,2976.38 2976.38,2976.38l51702.9,-0c1642.71,-0 2976.38,-1333.67 2976.38,-2976.38l-0,-48317Z"/>
    <path d="M60237.5,13827.8c-0,-2112.05 -1714.72,-3826.77 -3826.77,-3826.77l-51702.9,-0c-2112.05,-0 -3826.77,1714.72 -3826.77,3826.77c-0,0 -0,48317 -0,48317c-0,2112.05 1714.72,3826.77 3826.77,3826.77c0,-0 51702.9,-0 51702.9,-0c2112.05,-0 3826.77,-1714.72 3826.77,-3826.77l-0,-48317Zm-850.394,0c-0,-1642.71 -1333.67,-2976.38 -2976.38,-2976.38l-51702.9,0c-1642.71,0 -2976.38,1333.67 -2976.38,2976.38l0,48317c0,1642.71 1333.67,2976.38 2976.38,2976.38l51702.9,-0c1642.71,-0 2976.38,-1333.67 2976.38,-2976.38l-0,-48317Z" style="fill:#003fff;"/>
    <rect x="6223.1" y="29379" width="6377.95" height="6377.95" style="fill:#fff;"/>
    <rect x="6223.1" y="38916.2" width="33319.1" height="7566.94" style="fill:#fff;"/>
    <rect x="6909.82" y="39510.7" width="6377.95" height="6377.95" style="fill:#003fff;"/>
    <path d="M8079.51,45342.1l1251.94,-0l1.861,-1754.2l1123.58,3.72c974.764,-133.937 1527.87,-688.907 1659.33,-1664.91c-39.685,-1081.42 -594.656,-1703.98 -1664.91,-1867.68l-2371.8,-0l0,5283.07Zm1253.8,-4204.13l872.45,1.86c400.571,40.925 621.319,261.053 662.244,660.384c-33.484,409.252 -253.612,635.581 -660.383,678.986l-876.172,-3.72l1.861,-1337.51Z" style="fill:#fff;fill-rule:nonzero;stroke:#fff;stroke-width:1px;"/>
    <g>
        <rect x="13287.8" y="39510.7" width="6377.95" height="6377.95" style="fill:#fff;"/>
        <path d="M19665.7,39510.7l-6377.95,0l0,6377.95l6377.95,-0l-0,-6377.95Zm-145.833,145.833l-0,6086.29c-0,-0 -5148.01,-0 -6086.29,-0c-0,-0.001 -0,-6086.29 -0,-6086.29c-0,0 6086.29,0 6086.29,0l-0,0Z"/>
        <g>
            <path id="path41" d="M19158.5,41625.1c-20.822,-0.833 -34.976,-0.652 -34.976,-0.652l-3573.93,0l-60.167,30.084l-6.003,54.141l-589.644,0l-198.557,788.202l-683.409,-0c-0,-0 -42.847,-7.526 -85.086,65.635c-42.239,73.16 0,629.663 0,629.663l-212.726,-0l17.031,263.773l5440.63,-0c0,-0 37.596,6.603 61.663,-20.472c17.297,-30.084 -7.521,-1738.83 -7.521,-1738.83c-0,-0 7.751,-21.597 -23.729,-47.76c-18.426,-18.426 -27.38,-23.137 -43.575,-23.785l0,-0Zm-4028.36,362.796c2.991,-0 4.862,0.256 4.862,0.256l344.601,-0l0,514.796l-455.233,-0c-0,-0 55.314,-467.981 68.078,-493.507c9.572,-19.145 28.717,-21.545 37.692,-21.545l-0,-0Z" style="fill-rule:nonzero;"/>
            <circle id="path47" cx="14828.7" cy="43549.5" r="425.446"/>
            <circle id="path47-9" cx="18079.1" cy="43532.5" r="425.446"/>
        </g>
    </g>
    <rect x="15203.5" y="29379" width="6377.95" height="6377.95" style="fill:#fff;"/>
    <rect x="24183.9" y="29379" width="6377.95" height="6377.95" style="fill:#fff;"/>
    <rect x="33164.3" y="29379" width="6377.95" height="6377.95" style="fill:#fff;"/>
    <g>
        <rect x="6223.1" y="17756.1" width="6377.95" height="6377.95" style="fill:#fff;"/>
        <path d="M7080.27,22514.1c133.937,166.181 284.617,315 452.038,446.456l11.161,9.302c178.583,143.858 371.427,266.013 578.534,366.466l9.301,3.721c942.52,479.941 1881.94,475.6 2818.26,-13.022c225.708,-136.417 406.151,-317.48 541.328,-543.189c405.532,-860.669 223.849,-1570.66 -545.049,-2129.97c-300.118,-189.744 -623.799,-319.96 -971.043,-390.649c-230.669,-71.929 -465.679,-128.977 -705.03,-171.142c-176.102,-38.445 -279.035,-146.959 -308.799,-325.541c-3.72,-226.949 105.414,-362.746 327.402,-407.392c229.429,-52.087 458.238,-48.366 686.427,11.161c347.244,80.611 649.842,243.691 907.795,489.243l7.441,-7.441l853.849,-788.74c-245.552,-213.308 -509.085,-399.331 -790.601,-558.071c-840.827,-374.528 -1692.19,-399.951 -2554.1,-76.27c-111.614,42.165 -213.307,101.073 -305.079,176.722c-106.653,89.292 -199.665,192.225 -279.035,308.8c-445.217,813.543 -310.04,1514.85 405.531,2103.93c321.201,208.346 672.166,336.082 1052.89,383.208l7.441,3.721l693.868,195.325c164.941,44.645 270.974,148.199 318.1,310.659c39.685,257.953 -63.248,430.335 -308.799,517.146l-5.581,3.72c-231.909,70.689 -465.679,75.03 -701.309,13.022c-489.862,-75.65 -889.193,-307.559 -1197.99,-695.728l-998.947,764.557Z" style="fill-rule:nonzero;"/>
    </g>
    <g>
        <rect x="6223.1" y="55497.8" width="6377.95" height="6377.95" style="fill:#fff;"/>
        <path d="M7080.27,60255.8c133.937,166.181 284.617,315 452.038,446.457l11.161,9.301c178.583,143.858 371.427,266.014 578.534,366.466l9.301,3.721c942.52,479.941 1881.94,475.6 2818.26,-13.022c225.708,-136.417 406.151,-317.48 541.328,-543.189c405.532,-860.669 223.849,-1570.66 -545.049,-2129.97c-300.118,-189.744 -623.799,-319.961 -971.043,-390.65c-230.669,-71.929 -465.679,-128.976 -705.03,-171.142c-176.102,-38.444 -279.035,-146.958 -308.799,-325.541c-3.72,-226.949 105.414,-362.746 327.402,-407.392c229.429,-52.086 458.238,-48.366 686.427,11.162c347.244,80.61 649.842,243.691 907.795,489.242l7.441,-7.441l853.849,-788.74c-245.552,-213.307 -509.085,-399.331 -790.601,-558.071c-840.827,-374.528 -1692.19,-399.951 -2554.1,-76.27c-111.614,42.166 -213.307,101.073 -305.079,176.723c-106.653,89.291 -199.665,192.224 -279.035,308.799c-445.217,813.543 -310.04,1514.85 405.531,2103.93c321.201,208.347 672.166,336.083 1052.89,383.209l7.441,3.72l693.868,195.325c164.941,44.646 270.974,148.199 318.1,310.659c39.685,257.953 -63.248,430.335 -308.799,517.146l-5.581,3.721c-231.909,70.689 -465.679,75.029 -701.309,13.021c-489.862,-75.649 -889.193,-307.559 -1197.99,-695.728l-998.947,764.557Z" style="fill-rule:nonzero;"/>
    </g>
    <path d="M59387.1,62144.7c-0,1642.71 -1333.67,2976.38 -2976.38,2976.38l-51702.9,-0c-1642.71,-0 -2976.38,-1333.67 -2976.38,-2976.38l0,-6865.87c0,-1642.71 1333.67,-2976.38 2976.38,-2976.38l51702.9,-0c1642.71,-0 2976.38,1333.67 2976.38,2976.38l-0,6865.87Z" style="fill:none;stroke:#fff;stroke-width:850.39px;stroke-linecap:round;stroke-miterlimit:1.5;"/>
    <path d="M59387.1,13827.8c-0,-1642.71 -1333.67,-2976.38 -2976.38,-2976.38l-51702.9,0c-1642.71,0 -2976.38,1333.67 -2976.38,2976.38l0,33864c0,1642.71 1333.67,2976.38 2976.38,2976.38l51702.9,0c1642.71,0 2976.38,-1333.67 2976.38,-2976.38l-0,-33864Z" style="fill:none;stroke:#fff;stroke-width:850.39px;stroke-linecap:round;stroke-miterlimit:1.5;"/>
    <path d="M40001.2,4005.29c-0,-1232.03 -1000.25,-2232.28 -2232.28,-2232.28l-14419.2,0c-1232.03,0 -2232.28,1000.25 -2232.28,2232.28l-0,2821.06c-0,1232.03 1000.25,2232.28 2232.28,2232.28l14419.2,-0c1232.03,-0 2232.28,-1000.25 2232.28,-2232.28l-0,-2821.06Z" style="fill:#003fff;"/>
    <path d="M40828,4005.29c0,-1688.34 -1370.72,-3059.06 -3059.06,-3059.06l-14419.2,-0c-1688.34,-0 -3059.06,1370.72 -3059.06,3059.06c0,-0 0,2821.06 0,2821.06c0,1688.34 1370.72,3059.06 3059.06,3059.06l14419.2,0c1688.34,0 3059.06,-1370.72 3059.06,-3059.06c0,0 0,-2821.06 0,-2821.06Zm-826.771,-0c-0,-1232.03 -1000.25,-2232.28 -2232.28,-2232.28l-14419.2,0c-1232.03,0 -2232.28,1000.25 -2232.28,2232.28l-0,2821.06c-0,1232.03 1000.25,2232.28 2232.28,2232.28l14419.2,-0c1232.03,-0 2232.28,-1000.25 2232.28,-2232.28l-0,-2821.06Z"/>
    <path d="M40639,4005.29c-0,-1584.04 -1286.04,-2870.08 -2870.08,-2870.08l-14419.2,0c-1584.04,0 -2870.08,1286.04 -2870.08,2870.08c0,-0 0,2821.06 0,2821.06c0,1584.04 1286.04,2870.08 2870.08,2870.08l14419.2,-0c1584.04,-0 2870.08,-1286.04 2870.08,-2870.08c-0,0 -0,-2821.06 -0,-2821.06Zm-637.795,-0c-0,-1232.03 -1000.25,-2232.28 -2232.28,-2232.28l-14419.2,0c-1232.03,0 -2232.28,1000.25 -2232.28,2232.28l-0,2821.06c-0,1232.03 1000.25,2232.28 2232.28,2232.28l14419.2,-0c1232.03,-0 2232.28,-1000.25 2232.28,-2232.28l-0,-2821.06Z" style="fill:#003fff;"/>
    <path d="M40001.2,4005.29c-0,-1232.03 -1000.25,-2232.28 -2232.28,-2232.28l-14419.2,0c-1232.03,0 -2232.28,1000.25 -2232.28,2232.28l-0,2821.06c-0,1232.03 1000.25,2232.28 2232.28,2232.28l14419.2,-0c1232.03,-0 2232.28,-1000.25 2232.28,-2232.28l-0,-2821.06Z" style="fill:none;stroke:#fff;stroke-width:637.8px;stroke-linecap:round;stroke-miterlimit:1.5;"/>
    <path d="M15382.3,19863.3l924.212,0l-5.905,-2741.63l1141.24,1669.78l1161.91,-1663.88l2.952,2735.73l913.878,0l0,-4191.44l-1034.94,0l-1043.8,1469l-1020.18,-1470.47l-1039.37,1.476l-0,4191.44Z" style="fill:#fff;fill-rule:nonzero;"/>
    <path d="M20660.4,19545.9c706.693,547.244 1412.89,546.26 2118.6,-2.953c238.189,-235.236 382.874,-517.716 434.056,-847.441c26.574,-193.897 29.527,-388.287 8.858,-583.169c-42.323,-317.913 -165.847,-600.394 -370.571,-847.441c-54.134,-62.992 -112.697,-121.555 -175.689,-175.689c-756.89,-531.496 -1467.03,-474.902 -2130.41,169.784l-5.906,7.381c-200.787,248.032 -318.405,531.004 -352.854,848.918c-30.512,192.913 -24.607,384.842 17.716,575.787c49.213,335.63 198.819,618.603 448.819,848.917l7.382,5.906Zm1637.3,-1433.56c37.402,193.898 35.433,387.303 -5.905,580.217c-66.929,216.535 -208.662,357.775 -425.197,423.72c-366.142,64.961 -614.666,-76.28 -745.571,-423.72c-45.276,-191.93 -50.689,-385.335 -16.24,-580.217c59.055,-273.622 225.393,-440.453 499.016,-500.492c369.094,-24.606 600.393,142.224 693.897,500.492Z" style="fill:#fff;fill-rule:nonzero;"/>
    <path d="M23756.3,16926.8l-1.477,2936.52l913.878,0l0,-1765.75c37.402,-212.598 160.925,-343.504 370.571,-392.716c277.559,-23.622 453.74,98.425 528.543,366.141l0,1792.32l927.166,0l-0,-2018.21c-41.339,-323.819 -191.437,-584.154 -450.296,-781.004c-478.346,-295.276 -954.232,-290.847 -1427.66,13.287l-59.055,-150.591l-801.673,0Z" style="fill:#fff;fill-rule:nonzero;"/>
    <path d="M27439.9,19336.3c129.921,463.583 435.531,693.898 916.83,690.945c290.355,-15.748 574.803,-66.929 853.347,-153.543l-277.559,-792.815c-148.622,60.039 -291.339,49.213 -428.15,-32.48c-52.165,-61.024 -75.787,-131.89 -70.866,-212.599l-0,-1170.77l714.567,0l1.476,-850.393l-716.043,-0l-0,-1080.71l-993.602,273.13l-0,807.579l-466.536,-0l0,850.393l466.536,0l-0,1671.26Z" style="fill:#fff;fill-rule:nonzero;"/>
    <path d="M29613.1,19283.1c161.417,203.74 362.205,354.823 602.362,453.248c541.339,238.189 1082.68,237.697 1624.02,-1.477c198.819,-100.393 343.504,-252.46 434.055,-456.2c171.26,-530.512 12.303,-929.626 -476.87,-1197.34c-190.945,-81.693 -388.287,-145.177 -592.028,-190.453c-118.11,-27.559 -233.759,-62.992 -346.948,-106.299c-26.575,-10.827 -45.768,-29.035 -57.579,-54.626c-21.654,-62.992 -3.445,-111.22 54.626,-144.685c79.724,-32.48 162.401,-42.815 248.031,-31.004c104.331,4.921 204.233,27.559 299.705,67.914c134.843,49.212 245.079,130.905 330.709,245.078l583.169,-659.941c-332.677,-250 -704.724,-402.559 -1116.14,-457.677c-362.204,-34.449 -699.311,41.339 -1011.32,227.362c-79.724,60.04 -148.622,130.906 -206.693,212.599c-288.385,503.937 -212.106,943.897 228.839,1319.88c187.992,106.299 388.287,178.641 600.886,217.027c147.638,24.607 293.307,58.563 437.008,101.87c40.354,12.796 67.421,38.386 81.2,76.772c17.717,72.835 -7.381,124.016 -75.295,153.543c-227.362,29.528 -443.897,-7.382 -649.606,-110.728c-139.764,-54.134 -265.748,-131.398 -377.953,-231.791l-614.173,566.929Z" style="fill:#fff;fill-rule:nonzero;"/>
    <path d="M32908.4,18856.5c178.149,591.536 569.389,950.296 1173.72,1076.28c622.047,83.661 1169.29,-81.201 1641.73,-494.587l-615.649,-620.078c-200.788,177.165 -435.04,273.13 -702.756,287.893c-302.166,7.874 -505.906,-129.921 -611.221,-413.385l1970.97,-0c49.212,-299.213 24.114,-591.536 -75.295,-876.969c-300.197,-752.953 -853.347,-1086.61 -1659.45,-1000.98l-13.288,2.953c-551.181,117.126 -916.83,441.929 -1096.95,974.409l-2.953,8.858c-97.441,351.378 -100.394,703.248 -8.858,1055.61Zm893.208,-863.681c56.103,-201.771 185.532,-331.2 388.288,-388.287c317.913,-44.291 528.543,85.138 631.889,388.287l-1020.18,0Z" style="fill:#fff;fill-rule:nonzero;"/>
    <path d="M36264.2,16926.8l-1.477,2936.52l913.878,0l0,-1765.75c37.402,-212.598 160.925,-343.504 370.571,-392.716c277.559,-23.622 453.74,98.425 528.543,366.141l0,1792.32l927.166,0l-0,-2018.21c-41.339,-323.819 -191.437,-584.154 -450.296,-781.004c-478.346,-295.276 -954.232,-290.847 -1427.66,13.287l-59.055,-150.591l-801.673,0Z" style="fill:#fff;fill-rule:nonzero;"/>
    <path d="M39609.7,20722.6c393.701,198.819 785.433,195.374 1175.2,-10.334c250,-213.583 423.72,-477.363 521.161,-791.339l1085.14,-3116.63l-1030.51,1.477l-493.11,1548.72l-535.925,-1550.2l-1023.13,0l1062.99,2828.74c3.937,9.843 7.874,20.177 11.811,31.004c29.528,148.622 -25.59,251.969 -165.354,310.04c-172.244,40.354 -335.63,17.224 -490.158,-69.39l-118.11,817.913Z" style="fill:#fff;fill-rule:nonzero;"/>
    <path d="M23667,6141.09c130.66,437.746 415.232,722.318 853.716,853.716c724.163,121.063 1212.84,-163.14 1466.04,-852.609c64.961,-253.937 51.304,-503.444 -40.969,-748.523c-0.739,-2.215 -1.846,-4.798 -3.322,-7.751c-323.327,-606.053 -812.746,-806.472 -1468.26,-601.255l37.648,-293.43l1355.32,-0l-1.108,-663.263l-1962.11,0l-205.955,1633.24l738.558,120.694l7.751,-8.858c36.91,-62.746 85.999,-112.943 147.269,-150.591c237.697,-117.372 436.27,-70.128 595.718,141.733c104.085,186.761 107.038,375.738 8.859,566.929c-75.296,107.037 -177.535,171.629 -306.718,193.774c-280.512,18.455 -455.831,-108.144 -525.959,-379.798l-696.482,195.989Z" style="fill:#fff;fill-rule:nonzero;"/>
    <path d="M29199,4484.59c-130.659,-261.319 -326.648,-456.57 -587.967,-585.753c-728.593,-272.392 -1294.78,-76.033 -1698.57,589.075c-265.01,606.053 -269.07,1213.58 -12.18,1822.59c132.874,273.868 336.245,477.239 610.113,610.113c737.451,267.224 1306.23,63.484 1706.32,-611.221c241.388,-610.482 235.482,-1218.75 -17.717,-1824.8Zm-550.319,1340.92c-6.644,34.695 -15.871,68.652 -27.683,101.87c-160.187,334.4 -419.291,453.987 -777.312,358.76c-215.552,-81.939 -345.473,-235.482 -389.764,-460.63c-25.099,-214.074 -29.528,-428.149 -13.288,-642.224c3.691,-35.433 6.275,-70.866 7.751,-106.299c20.67,-293.061 171.629,-481.669 452.879,-565.822c53.888,-14.764 108.514,-21.777 163.878,-21.038c363.927,39.862 560.286,242.126 589.075,606.791l1.107,7.751c25.099,239.911 22.884,480.192 -6.643,720.841Z" style="fill:#fff;fill-rule:nonzero;"/>
    <path d="M32369.2,4484.59c-130.659,-261.319 -326.649,-456.57 -587.967,-585.753c-728.593,-272.392 -1294.78,-76.033 -1698.57,589.075c-265.01,606.053 -269.07,1213.58 -12.18,1822.59c132.874,273.868 336.245,477.239 610.113,610.113c737.451,267.224 1306.23,63.484 1706.32,-611.221c241.387,-610.482 235.482,-1218.75 -17.717,-1824.8Zm-550.32,1340.92c-6.644,34.695 -15.871,68.652 -27.682,101.87c-160.187,334.4 -419.291,453.987 -777.313,358.76c-215.551,-81.939 -345.472,-235.482 -389.764,-460.63c-25.098,-214.074 -29.527,-428.149 -13.287,-642.224c3.691,-35.433 6.274,-70.866 7.751,-106.299c20.669,-293.061 171.629,-481.669 452.879,-565.822c53.888,-14.764 108.514,-21.777 163.878,-21.038c363.927,39.862 560.285,242.126 589.075,606.791l1.107,7.751c25.098,239.911 22.884,480.192 -6.644,720.841Z" style="fill:#fff;fill-rule:nonzero;"/>
    <path d="M34357.8,6971.55l664.37,-0l0,-1351.99c20.669,-125.492 92.274,-204.479 214.813,-236.959c167.569,-19.931 276.452,50.197 326.649,210.384l-0,1378.57l680.979,-0l0,-1334.28c15.502,-149.852 97.441,-237.328 245.817,-262.426c166.093,0 264.641,81.57 295.645,244.71l-0,1351.99l665.477,-0l-2.214,-1560.16c-51.674,-215.551 -166.093,-390.502 -343.258,-524.852c-386.811,-261.319 -748.524,-229.946 -1085.14,94.119c-7.382,-8.858 -15.133,-17.716 -23.253,-26.575c-310.039,-296.752 -639.641,-320.374 -988.804,-70.866l-77.51,-121.801l-573.573,0l0,2210.14Z" style="fill:#fff;fill-rule:nonzero;"/>
    <path d="M15704.6,23925c-317.421,566.93 -257.628,1091.04 179.38,1572.34c380.905,331.447 795.398,380.536 1243.48,147.269l36.54,97.441l654.405,-2.215l-1.107,-2945.37l-710.876,0l-2.215,755.167c-254.675,-145.423 -521.899,-174.212 -801.673,-86.368c-250.984,87.107 -450.295,241.019 -597.933,461.737Zm1398.5,494.956c5.905,116.634 5.905,233.637 -0,351.009c-42.077,219.98 -173.475,349.163 -394.193,387.549c-274.606,5.168 -439.592,-126.23 -494.956,-394.193c-8.12,-115.157 -5.905,-229.576 6.644,-343.258c43.553,-203.002 166.831,-326.279 369.833,-369.832c273.13,-19.193 444.02,103.715 512.672,368.725Z" style="fill:#fff;fill-rule:nonzero;"/>
    <path d="M18134,24986.9c133.612,443.652 427.042,712.722 880.29,807.21c466.536,62.746 876.969,-60.901 1231.3,-370.94l-461.737,-465.059c-150.59,132.874 -326.279,204.847 -527.067,215.92c-226.624,5.906 -379.429,-97.441 -458.415,-310.039l1478.22,-0c36.91,-224.41 18.086,-443.652 -56.471,-657.727c-225.148,-564.714 -640.01,-814.96 -1244.59,-750.738l-9.965,2.215c-413.386,87.844 -687.623,331.447 -822.712,730.807l-2.215,6.644c-73.08,263.533 -75.295,527.436 -6.643,791.707Zm669.906,-647.761c42.077,-151.328 139.149,-248.4 291.216,-291.215c238.435,-33.219 396.407,63.853 473.917,291.215l-765.133,0Z" style="fill:#fff;fill-rule:nonzero;"/>
    <path d="M24916.1,23252.9c-130.659,-261.318 -326.649,-456.569 -587.968,-585.753c-728.592,-272.391 -1294.78,-76.033 -1698.57,589.075c-265.01,606.053 -269.07,1213.58 -12.18,1822.59c132.874,273.868 336.245,477.239 610.113,610.113c737.45,267.224 1306.23,63.484 1706.32,-611.22c241.387,-610.483 235.482,-1218.75 -17.717,-1824.8Zm-550.32,1340.92c-6.644,34.695 -15.871,68.651 -27.682,101.87c-160.187,334.399 -419.291,453.986 -777.313,358.76c-215.551,-81.939 -345.472,-235.483 -389.764,-460.63c-25.098,-214.075 -29.527,-428.15 -13.287,-642.225c3.691,-35.433 6.274,-70.866 7.751,-106.299c20.669,-293.061 171.629,-481.668 452.879,-565.822c53.888,-14.764 108.514,-21.776 163.878,-21.038c363.927,39.862 560.285,242.126 589.075,606.791l1.107,7.751c25.098,239.912 22.884,480.192 -6.644,720.842Z" style="fill:#fff;fill-rule:nonzero;"/>
    <path d="M29252.2,25239.3c-58.317,1.476 -115.896,-4.429 -172.736,-17.717c-54.626,-22.883 -81.201,-64.222 -79.725,-124.015l0,-968.873c-8.12,-313.731 -160.925,-521.9 -458.415,-624.508c-549.213,-178.642 -1049.7,-88.214 -1501.48,271.284l331.077,528.174c86.369,-81.939 184.179,-146.899 293.431,-194.881c145.423,-66.437 297.121,-87.107 455.093,-62.008c35.433,8.12 68.652,21.038 99.656,38.755c38.385,22.145 63.115,54.626 74.188,97.441c2.214,18.454 -4.06,33.218 -18.824,44.291c-27.313,10.335 -55.364,17.716 -84.154,22.146l-594.611,102.977c-269.439,71.604 -456.57,236.589 -561.393,494.956c-86.368,420.767 66.437,720.103 458.416,898.006c344.734,118.849 661.417,66.807 950.049,-156.126c155.758,155.757 343.627,226.254 563.607,211.491l245.817,-561.393Zm-1470.47,-78.617c-28.79,-17.717 -49.459,-42.815 -62.008,-75.295c-22.884,-86.369 6.274,-148.746 87.475,-187.131c22.884,-9.597 46.506,-16.979 70.866,-22.146c137.303,-21.408 273.499,-47.244 408.588,-77.51l-1.107,231.422c-16.979,56.103 -51.305,97.81 -102.978,125.123c-132.874,64.961 -266.486,66.807 -400.836,5.537Z" style="fill:#fff;fill-rule:nonzero;"/>
    <path d="M31293,25742l2244.46,-0l0,-662.156l-994.341,0c140.256,-109.99 275.714,-225.517 406.374,-346.58c175.688,-138.041 325.172,-300.443 448.449,-487.204c260.581,-583.908 149.853,-1085.51 -332.185,-1504.8c-673.966,-373.523 -1263.41,-269.439 -1768.33,312.254c-103.347,247.294 -152.436,505.291 -147.269,773.992l741.88,-0c0.738,-90.798 7.751,-180.857 21.038,-270.178c43.553,-191.929 161.294,-310.039 353.224,-354.33c266.486,-22.146 435.531,95.964 507.135,354.33c3.691,152.805 -33.587,294.907 -111.835,426.304c-149.853,164.617 -315.945,311.885 -498.278,441.807l-549.212,420.767c-78.987,59.794 -153.913,124.016 -224.779,192.668c-64.961,81.939 -97.072,174.95 -96.334,279.035l0,424.09Z" style="fill:#fff;fill-rule:nonzero;"/>
    <path d="M36402,25286.9l396.408,0l-0,-686.516l-396.408,0l0,-2004.18l-896.899,0l-1487.08,2068.41l0,622.293l1648.75,0l0,452.879l735.236,0l0,-452.879Zm-735.236,-686.516l-812.746,0l813.853,-1075.17l-1.107,1075.17Z" style="fill:#fff;fill-rule:nonzero;"/>
    <path d="M40900.9,24211.8c-30.266,-274.606 -161.663,-486.467 -394.193,-635.581l-6.644,-4.429c-339.566,-189.715 -676.55,-186.024 -1010.95,11.073l1.107,-981.053l-702.018,-0l0,3135.83l3.322,5.536l698.696,-0l-0,-1332.06c31.004,-173.474 132.874,-275.714 305.61,-306.718c214.075,-5.167 343.258,97.072 387.549,306.718l0,1326.53l717.52,-0l0,-1525.84Z" style="fill:#fff;fill-rule:nonzero;"/>
    <path d="M15704.6,61126.6c-317.421,566.929 -257.628,1091.04 179.38,1572.34c380.905,331.447 795.398,380.537 1243.48,147.269l36.54,97.441l654.405,-2.215l-1.107,-2945.37l-710.876,0l-2.215,755.168c-254.675,-145.424 -521.899,-174.213 -801.673,-86.369c-250.984,87.107 -450.295,241.019 -597.933,461.738Zm1398.5,494.955c5.905,116.634 5.905,233.637 -0,351.009c-42.077,219.981 -173.475,349.164 -394.193,387.549c-274.606,5.168 -439.592,-126.23 -494.956,-394.192c-8.12,-115.158 -5.905,-229.577 6.644,-343.258c43.553,-203.002 166.831,-326.28 369.833,-369.833c273.13,-19.193 444.02,103.716 512.672,368.725Z" style="fill:#fff;fill-rule:nonzero;"/>
    <path d="M18134,62188.5c133.612,443.651 427.042,712.721 880.29,807.209c466.536,62.746 876.969,-60.9 1231.3,-370.94l-461.737,-465.059c-150.59,132.874 -326.279,204.848 -527.067,215.92c-226.624,5.906 -379.429,-97.441 -458.415,-310.039l1478.22,0c36.91,-224.409 18.086,-443.652 -56.471,-657.726c-225.148,-564.715 -640.01,-814.961 -1244.59,-750.739l-9.965,2.215c-413.386,87.845 -687.623,331.447 -822.712,730.807l-2.215,6.644c-73.08,263.533 -75.295,527.436 -6.643,791.708Zm669.906,-647.761c42.077,-151.329 139.149,-248.401 291.216,-291.216c238.435,-33.218 396.407,63.853 473.917,291.216l-765.133,-0Z" style="fill:#fff;fill-rule:nonzero;"/>
    <path d="M22647.3,62941.5l769.562,0l1031.99,-2588.83l0,-554.749l-2216.78,-0l-0,684.301l1388.53,-0l-973.302,2459.28Z" style="fill:#fff;fill-rule:nonzero;"/>
    <path d="M28786.1,62441c-58.317,1.477 -115.896,-4.429 -172.737,-17.716c-54.626,-22.884 -81.2,-64.223 -79.724,-124.016l0,-968.873c-8.12,-313.73 -160.925,-521.9 -458.415,-624.508c-549.213,-178.642 -1049.7,-88.214 -1501.48,271.284l331.078,528.175c86.368,-81.939 184.178,-146.9 293.43,-194.882c145.423,-66.437 297.121,-87.107 455.094,-62.008c35.433,8.12 68.651,21.038 99.655,38.755c38.386,22.145 63.115,54.626 74.188,97.441c2.215,18.454 -4.06,33.218 -18.824,44.291c-27.313,10.335 -55.364,17.717 -84.153,22.146l-594.611,102.977c-269.439,71.604 -456.57,236.59 -561.393,494.956c-86.368,420.768 66.437,720.103 458.415,898.007c344.735,118.848 661.418,66.806 950.049,-156.127c155.758,155.758 343.627,226.255 563.608,211.491l245.817,-561.393Zm-1470.47,-78.617c-28.789,-17.717 -49.458,-42.815 -62.008,-75.295c-22.883,-86.368 6.275,-148.745 87.476,-187.131c22.884,-9.597 46.506,-16.978 70.866,-22.146c137.303,-21.407 273.499,-47.244 408.588,-77.51l-1.108,231.423c-16.978,56.102 -51.304,97.81 -102.977,125.123c-132.874,64.96 -266.486,66.806 -400.837,5.536Z" style="fill:#fff;fill-rule:nonzero;"/>
    <path d="M30826.8,62943.7l2244.46,-0l-0,-662.156l-994.341,0c140.256,-109.99 275.714,-225.516 406.373,-346.579c175.689,-138.042 325.172,-300.443 448.45,-487.205c260.581,-583.908 149.852,-1085.51 -332.185,-1504.8c-673.967,-373.524 -1263.41,-269.439 -1768.33,312.254c-103.346,247.293 -152.436,505.29 -147.268,773.991l741.879,-0c0.739,-90.798 7.751,-180.857 21.039,-270.177c43.553,-191.93 161.294,-310.04 353.223,-354.331c266.487,-22.146 435.532,95.964 507.136,354.331c3.691,152.805 -33.587,294.906 -111.836,426.304c-149.852,164.616 -315.944,311.885 -498.277,441.806l-549.213,420.768c-78.986,59.793 -153.912,124.015 -224.778,192.667c-64.961,81.939 -97.072,174.951 -96.334,279.035l0,424.09Z" style="fill:#fff;fill-rule:nonzero;"/>
    <path d="M36235.9,60454.5c-130.66,-261.319 -326.649,-456.57 -587.968,-585.753c-728.592,-272.392 -1294.78,-76.034 -1698.57,589.074c-265.009,606.054 -269.069,1213.58 -12.18,1822.59c132.874,273.868 336.245,477.239 610.114,610.113c737.45,267.225 1306.23,63.484 1706.32,-611.22c241.388,-610.483 235.483,-1218.75 -17.716,-1824.8Zm-550.32,1340.92c-6.644,34.695 -15.871,68.651 -27.682,101.87c-160.187,334.4 -419.291,453.986 -777.313,358.76c-215.551,-81.939 -345.473,-235.482 -389.764,-460.63c-25.098,-214.075 -29.527,-428.15 -13.287,-642.225c3.691,-35.433 6.274,-70.866 7.751,-106.299c20.669,-293.061 171.629,-481.668 452.879,-565.822c53.887,-14.763 108.513,-21.776 163.878,-21.038c363.927,39.862 560.285,242.126 589.074,606.791l1.108,7.751c25.098,239.912 22.884,480.192 -6.644,720.842Z" style="fill:#fff;fill-rule:nonzero;"/>
    <path d="M40337.3,61413.4c-30.266,-274.606 -161.664,-486.466 -394.193,-635.581l-6.644,-4.429c-339.567,-189.714 -676.55,-186.023 -1010.95,11.073l1.108,-981.053l-702.018,-0l-0,3135.83l3.322,5.536l698.696,0l-0,-1332.06c31.004,-173.474 132.874,-275.713 305.61,-306.717c214.075,-5.168 343.258,97.071 387.549,306.717l0,1326.53l717.52,-0l-0,-1525.84Z" style="fill:#fff;fill-rule:nonzero;"/>
    <g>
        <path d="M17575.9,57457c-58.317,1.476 -115.896,-4.429 -172.736,-17.717c-54.626,-22.883 -81.201,-64.222 -79.725,-124.015l0,-968.873c-8.12,-313.731 -160.925,-521.9 -458.415,-624.508c-549.213,-178.642 -1049.7,-88.214 -1501.48,271.284l331.077,528.174c86.368,-81.939 184.178,-146.899 293.43,-194.881c145.424,-66.437 297.121,-87.107 455.094,-62.008c35.433,8.12 68.651,21.038 99.655,38.755c38.386,22.145 63.116,54.626 74.188,97.441c2.215,18.454 -4.06,33.218 -18.823,44.291c-27.313,10.335 -55.365,17.716 -84.154,22.146l-594.611,102.977c-269.439,71.604 -456.57,236.589 -561.393,494.956c-86.368,420.767 66.437,720.103 458.415,898.006c344.735,118.849 661.418,66.807 950.05,-156.126c155.758,155.757 343.627,226.254 563.607,211.491l245.817,-561.393Zm-1470.47,-78.617c-28.789,-17.717 -49.458,-42.815 -62.007,-75.295c-22.884,-86.369 6.274,-148.746 87.475,-187.131c22.884,-9.597 46.506,-16.979 70.866,-22.146c137.303,-21.408 273.499,-47.244 408.588,-77.51l-1.108,231.422c-16.978,56.103 -51.304,97.81 -102.977,125.123c-132.874,64.961 -266.486,66.807 -400.837,5.537Z" style="fill:#fff;fill-rule:nonzero;"/>
        <path d="M19616.7,57959.7l2244.46,-0l-0,-662.156l-994.341,0c140.256,-109.99 275.714,-225.517 406.373,-346.58c175.689,-138.041 325.173,-300.443 448.45,-487.204c260.581,-583.908 149.853,-1085.51 -332.185,-1504.8c-673.966,-373.523 -1263.41,-269.439 -1768.33,312.254c-103.346,247.294 -152.436,505.291 -147.268,773.992l741.88,-0c0.738,-90.798 7.751,-180.857 21.038,-270.178c43.553,-191.929 161.294,-310.039 353.223,-354.33c266.487,-22.146 435.532,95.964 507.136,354.33c3.691,152.805 -33.587,294.907 -111.835,426.305c-149.853,164.616 -315.945,311.884 -498.278,441.806l-549.212,420.767c-78.987,59.794 -153.913,124.016 -224.779,192.668c-64.961,81.939 -97.072,174.95 -96.334,279.035l0,424.09Z" style="fill:#fff;fill-rule:nonzero;"/>
        <path d="M24793.7,55410.3c-0.534,-1.69 -1.155,-3.351 -1.862,-4.977c-192.289,-442.266 -562.797,-665.498 -1114.03,-665.498l-82.805,-0c-1.264,-0 -2.529,0.047 -3.79,0.141c-515.538,38.425 -851.436,285.518 -1009.25,739.153c-22.519,45.134 -36.207,128.286 -36.207,250.154c0,231.417 104.432,431.634 316.565,598.704c-247.496,136.739 -371.768,360.175 -371.768,670.97c0,22.82 0.821,44.825 2.451,66.015c1.589,20.655 3.966,43.695 7.144,69.117c0.013,0.106 0.026,0.212 0.04,0.318c57.925,440.874 313.943,722.089 769.738,842.101c93.566,40.719 240.127,62.5 440.089,62.5c152.589,0 298.813,-22.299 438.686,-66.804c139.324,-44.33 277.118,-112.3 413.275,-204.127c1.47,-0.991 2.887,-2.059 4.245,-3.198c220.35,-184.705 331.054,-429.119 331.054,-733.72c0,-0 0,-69.004 0,-69.004c0,-271.523 -118.525,-486.64 -357.547,-644.113c208.218,-139.447 311.544,-331.424 311.544,-574.958c0,-99.656 -18.993,-210.615 -57.57,-332.774Zm-1547.92,1643.31l-0,-17.859c-0,-105.409 29.094,-188.721 90.471,-248.764c63.309,-61.932 158.769,-98.81 284.916,-114.276c16.419,-0.104 31.275,-1.022 44.57,-2.684c10.393,-1.299 22.087,-1.906 35.078,-1.906c223.437,0 376.036,83.19 455.034,254.348c0,0.001 0,44.278 0,44.278c0,130.227 -32.369,228.802 -102.231,293.915c-71.065,66.236 -178.471,96.716 -320.602,96.716l-50.602,0c-15.607,0 -31.214,-1.305 -46.82,-3.906c-2.771,-0.462 -5.575,-0.694 -8.384,-0.694l-13.8,-0c-102.826,-0 -185.474,-23.876 -247.034,-74.612c-60.67,-50.003 -99.987,-125.325 -120.596,-224.554l-0,-0.002Zm75.588,-1447.36c71.413,-101.833 178.149,-162.814 319.091,-184.83c13.32,-0.159 25.874,-1.104 37.666,-2.789c8.489,-1.212 17.587,-1.787 27.29,-1.787c188.396,-0 318.456,87.497 390.46,262.085c-2.822,118.252 -32.518,208.137 -93.755,268.058c-63.137,61.778 -157.99,90.11 -282.904,90.11c-9.703,-0 -18.801,-0.575 -27.291,-1.788c-12.427,-1.775 -25.702,-2.729 -39.829,-2.807c-115.433,-8.367 -202.815,-36.996 -260.673,-90.089c-55.4,-50.838 -81.24,-123.888 -81.24,-217.743c0,-34.554 3.786,-74.021 11.185,-118.42l-0,0Z" style="fill:#fff;fill-rule:nonzero;"/>
        <path d="M29013.1,57958.6l-847.072,-1379.67l803.888,-883.612l-931.226,-0l-534.818,566.929l1.108,-1416.21l-724.164,-0l0,3114.79l723.056,-0l0,-718.627l147.269,-148.376l571.358,865.896l790.601,-1.108Z" style="fill:#fff;fill-rule:nonzero;"/>
        <path d="M29429.4,57957.4l664.37,0l0,-1351.99c20.67,-125.492 92.274,-204.478 214.813,-236.959c167.569,-19.931 276.452,50.197 326.649,210.384l0,1378.57l680.979,0l0,-1334.28c15.502,-149.853 97.441,-237.328 245.817,-262.427c166.093,0 264.641,81.57 295.645,244.71l0,1351.99l665.477,0l-2.214,-1560.16c-51.673,-215.552 -166.093,-390.502 -343.258,-524.853c-386.811,-261.319 -748.524,-229.946 -1085.14,94.119c-7.382,-8.858 -15.133,-17.716 -23.253,-26.574c-310.039,-296.752 -639.641,-320.374 -988.804,-70.867l-77.51,-121.801l-573.573,0l0,2210.14Z" style="fill:#fff;fill-rule:nonzero;"/>
    </g>
    <g transform="matrix(1,0,0,1,19933,40239.6)">
        <g transform="matrix(4429.13,0,0,4429.13,742.417,4016.89)">
            <path d="M0.05,-0.518l0.177,0.518l0.179,0l0.001,-0l0.16,-0.518l-0.166,0l-0.088,0.294l0,0.001l-0.097,-0.295l-0.166,0Z" style="fill-rule:nonzero;"/>
        </g>
        <g transform="matrix(4429.13,0,0,4429.13,3396.58,4016.89)">
            <path d="M0.065,-0l0.165,-0l-0,-0.515l-0.165,0.001l0,0.514Zm0.066,-0.715c-0.054,0.017 -0.078,0.054 -0.071,0.11c0.018,0.054 0.054,0.077 0.11,0.07c0.054,-0.017 0.077,-0.053 0.071,-0.11c-0.018,-0.053 -0.054,-0.077 -0.11,-0.07Z" style="fill-rule:nonzero;"/>
        </g>
        <g transform="matrix(4429.13,0,0,4429.13,4302.33,4016.89)">
            <path d="M0.123,0.109c0.035,0.018 0.071,0.032 0.109,0.042c0.091,0.037 0.182,0.034 0.271,-0.007c0.066,-0.04 0.102,-0.098 0.107,-0.175l0,-0.481l-0.136,0l-0.011,0.026c-0,0 -0,0 -0,0c-0.078,-0.048 -0.155,-0.049 -0.233,-0.001c-0.027,0.018 -0.05,0.04 -0.068,0.068c-0.075,0.133 -0.053,0.25 0.065,0.347c0.072,0.048 0.149,0.054 0.228,0.019l0,0c0.002,0.044 -0.018,0.071 -0.06,0.081c-0.074,0.007 -0.142,-0.009 -0.203,-0.051l-0.069,0.132Zm0.329,-0.426c0.009,0.03 0.008,0.06 -0.002,0.09c-0.01,0.021 -0.025,0.036 -0.045,0.045c-0.055,0.02 -0.096,0.005 -0.125,-0.045c-0.01,-0.03 -0.011,-0.06 -0.003,-0.09c0.01,-0.032 0.031,-0.053 0.064,-0.063c0.054,-0.01 0.092,0.011 0.111,0.063Z" style="fill-rule:nonzero;"/>
        </g>
        <g transform="matrix(4429.13,0,0,4429.13,7192.34,4016.89)">
            <path d="M0.065,-0l0.165,-0l-0,-0.515l-0.165,0.001l0,0.514Zm0.066,-0.715c-0.054,0.017 -0.078,0.054 -0.071,0.11c0.018,0.054 0.054,0.077 0.11,0.07c0.054,-0.017 0.077,-0.053 0.071,-0.11c-0.018,-0.053 -0.054,-0.077 -0.11,-0.07Z" style="fill-rule:nonzero;"/>
        </g>
        <g transform="matrix(4429.13,0,0,4429.13,8496.72,4016.89)">
            <path d="M0.051,-0.134c-0.001,0.072 0.033,0.119 0.101,0.142c0.055,0.01 0.109,0.008 0.162,-0.007l-0.015,-0.148c-0.02,0.01 -0.041,0.015 -0.064,0.013l-0,-0c-0.015,-0.003 -0.022,-0.012 -0.022,-0.027l0,-0.542l-0.163,0l-0,0.568l0.001,0.001Z" style="fill-rule:nonzero;"/>
        </g>
        <g transform="matrix(4429.13,0,0,4429.13,9930.66,4016.89)">
            <path d="M0.58,-0.113c-0.013,0 -0.026,-0.001 -0.039,-0.004c-0.012,-0.005 -0.018,-0.015 -0.018,-0.028l0,-0.219c-0.002,-0.071 -0.036,-0.118 -0.103,-0.141c-0.124,-0.04 -0.237,-0.02 -0.339,0.061l0.074,0.119c0.02,-0.018 0.042,-0.033 0.067,-0.043c0.032,-0.016 0.067,-0.02 0.102,-0.015c0.008,0.002 0.016,0.005 0.023,0.009c0.008,0.005 0.014,0.013 0.017,0.022c0,0.004 -0.001,0.008 -0.005,0.01c-0.006,0.003 -0.012,0.004 -0.019,0.005l-0.134,0.023c-0.061,0.017 -0.103,0.054 -0.127,0.112c-0.019,0.095 0.015,0.163 0.104,0.203c0.078,0.027 0.149,0.015 0.214,-0.035c0.035,0.035 0.078,0.051 0.128,0.047l0.055,-0.126Zm-0.332,-0.018c-0.006,-0.004 -0.011,-0.01 -0.014,-0.017c-0.005,-0.02 0.001,-0.034 0.02,-0.042c0.005,-0.002 0.01,-0.004 0.016,-0.005c0.031,-0.005 0.062,-0.011 0.092,-0.018l-0,0.052c-0.004,0.013 -0.012,0.023 -0.023,0.029c-0.03,0.014 -0.061,0.015 -0.091,0.001Z" style="fill-rule:nonzero;"/>
        </g>
        <g transform="matrix(4429.13,0,0,4429.13,12222.7,4016.89)">
            <path d="M0.158,-0.41c-0.072,0.128 -0.059,0.246 0.04,0.355c0.086,0.075 0.18,0.086 0.281,0.033l0.008,0.022l0.148,-0l-0,-0.665l-0.161,-0l-0,0.17c-0.058,-0.033 -0.118,-0.039 -0.182,-0.019c-0.056,0.019 -0.101,0.054 -0.134,0.104Zm0.315,0.112c0.002,0.026 0.002,0.053 0,0.079c-0.009,0.05 -0.039,0.079 -0.089,0.088c-0.062,0.001 -0.099,-0.029 -0.111,-0.089c-0.002,-0.026 -0.002,-0.052 0.001,-0.078c0.01,-0.046 0.038,-0.074 0.083,-0.083c0.062,-0.005 0.101,0.023 0.116,0.083Z" style="fill-rule:nonzero;"/>
        </g>
        <g transform="matrix(4429.13,0,0,4429.13,15158.1,4016.89)">
            <path d="M0.138,-0.054c0.12,0.093 0.239,0.093 0.359,0c0.04,-0.04 0.065,-0.088 0.073,-0.144c0.005,-0.032 0.005,-0.065 0.002,-0.098c-0.007,-0.054 -0.028,-0.102 -0.063,-0.144c-0.009,-0.01 -0.019,-0.02 -0.03,-0.029c-0.128,-0.09 -0.248,-0.081 -0.36,0.028l-0.001,0.002c-0.034,0.042 -0.054,0.089 -0.06,0.143c-0.005,0.033 -0.004,0.065 0.003,0.098c0.008,0.057 0.033,0.105 0.076,0.144l0.001,0.001Zm0.277,-0.243c0.007,0.033 0.006,0.065 -0.001,0.098c-0.011,0.037 -0.035,0.061 -0.072,0.072c-0.062,0.011 -0.104,-0.013 -0.126,-0.072c-0.008,-0.032 -0.009,-0.065 -0.003,-0.098c0.01,-0.047 0.038,-0.075 0.085,-0.085c0.062,-0.004 0.101,0.024 0.117,0.085Z" style="fill-rule:nonzero;"/>
        </g>
    </g>
    <path d="M52183.9,29104.4l-2481.25,-1549.17l6204.28,-1243.39l-1243.39,6204.28l-1549.17,-2481.25l-3904.63,4462.43l-1488.27,-1488.27l4462.43,-3904.63Zm11.673,7.287l0.518,0.518l0.119,-0.119l-0.637,-0.399Zm910.979,910.98l0.518,0.518l-0.398,-0.638l-0.12,0.12Z" style="fill:#fff;"/>
    <path d="M53541.4,58340.1l-1727.24,399.442l2125.98,-3191.7l2125.98,3191.7l-1727.24,-399.442l239.048,3585.7l-1275.59,0l239.048,-3585.7Zm8.125,-1.879l0.444,0l0,-0.103l-0.444,0.103Zm780.8,0l0.444,0l-0.444,-0.103l-0,0.103Z" style="fill:#fff;"/>
    <g>
        <rect x="6223.1" y="29379" width="6377.95" height="6377.84" style="fill:#fff;"/>
        <path d="M8739.51,30336.3c-164.772,-0 -155.669,155.784 -155.669,155.784l-0,274.813l-284.146,-0c-146.451,-0 -137.233,137.348 -137.233,137.348l-0,1717.55l119.143,197.036l173.99,128.13l146.451,1548.05l-1352.52,-0l0,311.569l4720.67,-0l0,-311.569l-1456.45,-0l146.451,-1548.05l174.106,-128.13l119.028,-164.888l-0,-1749.7c-0,0 9.218,-137.348 -137.234,-137.348l-284.145,-0l-0,-274.813c-0,0 9.218,-155.784 -155.67,-155.784c0,-9.218 -1636.78,-9.218 -1636.78,-0Z" style="fill:#1c1c20;fill-rule:nonzero;"/>
        <path d="M8739.51,30336.3c-164.772,-0 -155.669,155.784 -155.669,155.784l-0,274.813l-284.146,-0c-146.451,-0 -137.233,137.348 -137.233,137.348l-0,1717.55l119.143,197.036l173.99,128.13l146.451,1548.05l-1352.52,-0l0,311.569l4720.67,-0l0,-311.569l-1456.45,-0l146.451,-1548.05l174.106,-128.13l119.028,-164.888l-0,-1749.7c-0,0 9.218,-137.348 -137.234,-137.348l-284.145,-0l-0,-274.813c-0,0 9.218,-155.784 -155.67,-155.784c0,-9.218 -1636.78,-9.218 -1636.78,-0Z" style="fill:none;fill-rule:nonzero;stroke:#1c1c20;stroke-width:10.42px;stroke-linejoin:miter;stroke-miterlimit:3.864;"/>
        <rect x="8574.85" y="31151.6" width="1966.44" height="1200.07" style="fill:#fff;"/>
        <rect x="8574.85" y="31151.6" width="1966.44" height="1200.07" style="fill:none;stroke:#1c1c20;stroke-width:10.42px;stroke-linejoin:miter;stroke-miterlimit:3.864;"/>
        <path d="M8182.39,32580.6l-494.547,1264.14c-0,0 -215.357,403.173 -572.555,233.562c-0,4.609 -371.026,-119.143 -229.068,-563.222c-4.609,-4.609 494.662,-1342.03 494.662,-1342.03l0,-274.813l274.813,-737.326l100.822,-0c-0,-0 137.349,-480.951 361.807,-462.745c4.494,-4.609 91.72,13.711 22.815,64.18c0,-9.218 -293.018,146.567 -251.883,421.379c-4.609,0 155.9,256.607 155.9,256.607l0,63.95l155.67,0l-18.436,1076.32Z" style="fill:#1c1c20;fill-rule:nonzero;"/>
        <path d="M8182.39,32580.6l-494.547,1264.14c-0,0 -215.357,403.173 -572.555,233.562c-0,4.609 -371.026,-119.143 -229.068,-563.222c-4.609,-4.609 494.662,-1342.03 494.662,-1342.03l0,-274.813l274.813,-737.326l100.822,-0c-0,-0 137.349,-480.951 361.807,-462.745c4.494,-4.609 91.72,13.711 22.815,64.18c0,-9.218 -293.018,146.567 -251.883,421.379c-4.609,0 155.9,256.607 155.9,256.607l0,63.95l155.67,0l-18.436,1076.32Z" style="fill:none;fill-rule:nonzero;stroke:#1c1c20;stroke-width:10.42px;stroke-linejoin:miter;stroke-miterlimit:3.864;"/>
        <path d="M7788.55,31893.6l-77.893,160.279l-96.098,73.398l-526.695,1451.84c0,0 -77.892,233.793 100.822,306.961c-9.218,4.493 201.645,96.213 293.134,-128.016c-9.218,0 636.62,-1667.42 636.62,-1667.42c-0,-0 -86.995,-82.387 -73.168,-201.53c4.493,0 -100.823,0 -100.823,0c0,0 -141.957,86.996 -132.854,558.843c4.493,-4.609 -77.777,0 -77.777,0c-0,0 4.609,-430.366 119.027,-554.234l-64.295,0l-0,-0.115Z" style="fill:#fff;"/>
        <path d="M7788.55,31893.6l-77.893,160.279l-96.098,73.398l-526.695,1451.84c0,0 -77.892,233.793 100.822,306.961c-9.218,4.493 201.645,96.213 293.134,-128.016c-9.218,0 636.62,-1667.42 636.62,-1667.42c-0,-0 -86.995,-82.387 -73.168,-201.53c4.493,0 -100.823,0 -100.823,0c0,0 -141.957,86.996 -132.854,558.843c4.493,-4.609 -77.777,0 -77.777,0c-0,0 4.609,-430.366 119.027,-554.234l-64.295,0l-0,-0.115Z" style="fill:none;fill-rule:nonzero;stroke:#1c1c20;stroke-width:10.42px;stroke-linejoin:miter;stroke-miterlimit:3.864;"/>
    </g>
    <g>
        <rect x="15203.5" y="29379" width="6378.07" height="6377.95" style="fill:#fff;"/>
        <path d="M19429.1,30090.8c81.351,0 76.281,66.026 76.281,66.026c-0,-0 -4.955,442.819 -0,442.819c-0,56 -56.001,56 -56.001,56l-468.054,0l0,228.957c0,0 442.704,5.185 437.634,0c96.676,0 86.421,86.536 86.421,86.536c-0,-0 -0,264.562 -0,259.492c-0,96.791 -91.606,91.606 -91.606,91.606c-0,-0 -112.001,10.14 -112.001,-0c-356.168,-0 -320.563,340.958 -320.563,340.958l0,707.381l162.816,162.816c0,0 0,2280.01 0,2275.05c0,81.351 -142.421,81.351 -142.421,81.351c-106.931,-0 -157.861,66.256 -152.676,66.256c-0,76.28 -147.606,91.605 -147.606,91.605c-0,0 -147.607,-15.325 -147.607,-91.605c5.07,-0 -45.745,-66.256 -152.561,-66.256c0,-0 -142.536,-0 -142.536,-81.351c-0,4.955 -0,-2275.05 -0,-2275.05l162.816,-162.816l0,-707.381c0,-0 -25.35,-340.958 -417.353,-340.958l-676.846,-0c-0,-0 -40.791,-0 -40.791,-56.001c0,0 0,-340.842 0,-335.772c0,-51.046 45.861,-45.861 45.861,-45.861c-5.186,5.185 1089.01,0 1089.01,0l0,-228.957l-1099.15,0c-0,0 -40.791,0 -40.791,-40.79c-5.185,-4.955 0,-300.283 0,-300.283c0,0 0,-45.63 45.745,-45.63l580.171,0l178.026,-178.142c0.115,0 1338.71,-5.07 1343.78,0Z" style="fill:#1c1c20;fill-rule:nonzero;"/>
        <path d="M19429.1,30090.8c81.351,0 76.281,66.026 76.281,66.026c-0,-0 -4.955,442.819 -0,442.819c-0,56 -56.001,56 -56.001,56l-468.054,0l0,228.957c0,0 442.704,5.185 437.634,0c96.676,0 86.421,86.536 86.421,86.536c-0,-0 -0,264.562 -0,259.492c-0,96.791 -91.606,91.606 -91.606,91.606c-0,-0 -112.001,10.14 -112.001,-0c-356.168,-0 -320.563,340.958 -320.563,340.958l0,707.381l162.816,162.816c0,0 0,2280.01 0,2275.05c0,81.351 -142.421,81.351 -142.421,81.351c-106.931,-0 -157.861,66.256 -152.676,66.256c-0,76.28 -147.606,91.605 -147.606,91.605c-0,0 -147.607,-15.325 -147.607,-91.605c5.07,-0 -45.745,-66.256 -152.561,-66.256c0,-0 -142.536,-0 -142.536,-81.351c-0,4.955 -0,-2275.05 -0,-2275.05l162.816,-162.816l0,-707.381c0,-0 -25.35,-340.958 -417.353,-340.958l-676.846,-0c-0,-0 -40.791,-0 -40.791,-56.001c0,0 0,-340.842 0,-335.772c0,-51.046 45.861,-45.861 45.861,-45.861c-5.186,5.185 1089.01,0 1089.01,0l0,-228.957l-1099.15,0c-0,0 -40.791,0 -40.791,-40.79c-5.185,-4.955 0,-300.283 0,-300.283c0,0 0,-45.63 45.745,-45.63l580.171,0l178.026,-178.142c0.115,0 1338.71,-5.07 1343.78,0Z" style="fill:none;fill-rule:nonzero;stroke:#1c1c20;stroke-width:11.59px;stroke-linejoin:miter;stroke-miterlimit:3.864;"/>
    </g>
    <g>
        <rect x="33164.3" y="29379" width="6377.95" height="6377.72" style="fill:#fff;"/>
        <path d="M37798.8,34046.7c335.876,428.861 -108.425,656.311 -108.425,656.311c-351.431,284.256 -609.877,-180.9 -609.877,-180.9l-677.167,-1322.88c0,-0 -852.537,1379.91 -852.537,1374.5c-294.626,496.151 -676.936,180.9 -687.306,175.715c-403.167,-299.926 -5.185,-692.491 -5.185,-692.491c-0,-0 1188.53,-1410.91 1188.53,-1416.21c139.536,-160.046 -77.545,-160.046 -92.985,-175.601c-604.691,-129.165 -837.212,-496.036 -837.212,-490.851c-491.081,-651.357 -372.171,-1085.4 -372.171,-1085.4c155.09,-511.706 615.062,-351.431 609.992,-356.616c630.386,165.461 857.722,795.847 862.907,801.148c67.175,144.605 206.71,904.387 206.71,904.387c0,-0 92.986,-124.211 165.461,-589.252c-0,10.485 5.07,-278.955 330.806,-666.797c5.07,0 134.235,-227.105 490.851,-439.116c-0,0 242.775,-108.54 139.651,103.24c-5.301,5.185 -465.157,682.237 -465.157,682.237c0,0 -15.44,30.995 15.555,51.966c10.371,-0 30.88,15.325 61.991,-10.485c5.069,-10.37 485.896,-682.352 485.896,-682.352c-0,-0 41.25,-61.991 118.795,-20.625c64.295,59.916 32.032,125.708 32.032,125.708c0,0 -478.752,673.134 -486.933,681.546c-14.403,37.562 6.913,52.196 10.37,61.875c29.612,22.699 53.924,-2.074 53.924,-2.074c0,-0 490.506,-655.275 493.732,-661.958c166.613,-166.843 142.992,98.285 142.992,98.285c-84.113,406.162 -257.178,602.272 -255.565,607.227c-260.52,434.046 -512.628,624.28 -693.759,701.94c-5.07,4.955 -139.42,25.695 -211.665,165.345c-10.486,0 -139.651,216.851 -139.651,216.851c-0,-0 1080.22,1390.63 1085.4,1385.33Z" style="fill:#1c1c20;fill-rule:nonzero;"/>
    </g>
    <g>
        <rect x="24183.9" y="29379" width="6378.07" height="6377.95" style="fill:#fff;"/>
        <path d="M29047.2,31786.7c123.293,-0 223.31,100.132 223.31,223.31l0,502.277l-2734.69,-0l0,-725.587l2511.38,-0Z" style="fill:#1c1c20;fill-rule:nonzero;"/>
        <path d="M29047.2,31786.7c123.293,-0 223.31,100.132 223.31,223.31l0,502.277l-2734.69,-0l0,-725.587l2511.38,-0Z" style="fill:none;fill-rule:nonzero;stroke:#1c1c20;stroke-width:11.17px;stroke-linejoin:miter;stroke-miterlimit:3.864;"/>
        <path d="M25363.7,32623.8l4018.44,-0l-0,-613.817c-0,-123.178 99.902,-223.31 223.195,-223.31c123.294,-0 223.311,100.132 223.311,223.31l-0,1785.91l-446.506,0l-0,-669.817l-4018.44,0l-0,669.817l-446.391,0l-0,-2232.3c-0,-123.408 99.902,-223.195 223.31,-223.195c123.294,-0 223.196,99.787 223.196,223.195l-0,1060.21l-0.115,-0Z" style="fill:#1c1c20;fill-rule:nonzero;"/>
        <path d="M25363.7,32623.8l4018.44,-0l-0,-613.817c-0,-123.178 99.902,-223.31 223.195,-223.31c123.294,-0 223.311,100.132 223.311,223.31l-0,1785.91l-446.506,0l-0,-669.817l-4018.44,0l-0,669.817l-446.391,0l-0,-2232.3c-0,-123.408 99.902,-223.195 223.31,-223.195c123.294,-0 223.196,99.787 223.196,223.195l-0,1060.21l-0.115,-0Z" style="fill:none;fill-rule:nonzero;stroke:#1c1c20;stroke-width:11.17px;stroke-linejoin:miter;stroke-miterlimit:3.864;"/>
        <path d="M25475.5,32512.3l0,-446.507c0,0 27.77,-279.08 474.392,-279.08c446.506,-0 474.276,279.08 474.276,279.08l-0,446.507l-948.668,-0Z" style="fill:#1c1c20;fill-rule:nonzero;"/>
        <path d="M25475.5,32512.3l0,-446.507c0,0 27.77,-279.08 474.392,-279.08c446.506,-0 474.276,279.08 474.276,279.08l-0,446.507l-948.668,-0Z" style="fill:none;fill-rule:nonzero;stroke:#1c1c20;stroke-width:11.17px;stroke-linejoin:miter;stroke-miterlimit:3.864;"/>
    </g>
</svg>
