<?xml version="1.0" encoding="UTF-8" standalone="no"?>
<!DOCTYPE svg PUBLIC "-//W3C//DTD SVG 1.1//EN" "http://www.w3.org/Graphics/SVG/1.1/DTD/svg11.dtd">
<svg width="100%" height="100%" viewBox="0 0 52791 35200" version="1.1" xmlns="http://www.w3.org/2000/svg" xmlns:xlink="http://www.w3.org/1999/xlink" xml:space="preserve" style="fill-rule:evenodd;clip-rule:evenodd;stroke-linecap:round;stroke-linejoin:round;stroke-miterlimit:1.5;">
    <g id="g4799">
        <path d="M51258,4747.14c-0,-1825.23 -1481.86,-3307.09 -3307.09,-3307.09l-42999.8,0c-1825.23,0 -3307.09,1481.86 -3307.09,3307.09l0,25494.3c0,1825.23 1481.86,3307.09 3307.09,3307.09l42999.8,-0c1825.23,-0 3307.09,-1481.86 3307.09,-3307.09l-0,-25494.3Z" style="fill:#fff;"/>
        <path d="M52321,4747.14c0,-2411.91 -1958.17,-4370.08 -4370.08,-4370.08l-42999.8,-0c-2411.91,-0 -4370.08,1958.17 -4370.08,4370.08l0,25494.3c0,2411.91 1958.17,4370.08 4370.08,4370.08c0,-0 42999.8,-0 42999.8,-0c2411.91,-0 4370.08,-1958.17 4370.08,-4370.08c0,-0 0,-25494.3 0,-25494.3Zm-1062.99,-0c-0,-1825.23 -1481.86,-3307.09 -3307.09,-3307.09l-42999.8,0c-1825.23,0 -3307.09,1481.86 -3307.09,3307.09l0,25494.3c0,1825.23 1481.86,3307.09 3307.09,3307.09l42999.8,-0c1825.23,-0 3307.09,-1481.86 3307.09,-3307.09l-0,-25494.3Z"/>
        <path d="M52202.9,4747.14c-0,-2346.73 -1905.24,-4251.97 -4251.97,-4251.97l-42999.8,0c-2346.72,0 -4251.97,1905.24 -4251.97,4251.97l-0,25494.3c-0,2346.72 1905.24,4251.97 4251.97,4251.97c0,0 42999.8,0 42999.8,0c2346.73,0 4251.97,-1905.24 4251.97,-4251.97c-0,-0 -0,-25494.3 -0,-25494.3Zm-944.882,-0c-0,-1825.23 -1481.86,-3307.09 -3307.09,-3307.09l-42999.8,0c-1825.23,0 -3307.09,1481.86 -3307.09,3307.09l0,25494.3c0,1825.23 1481.86,3307.09 3307.09,3307.09l42999.8,-0c1825.23,-0 3307.09,-1481.86 3307.09,-3307.09l-0,-25494.3Z" style="fill:#fff;"/>
        <path d="M51258,16916c-0,-1825.23 -1481.86,-3307.09 -3307.09,-3307.09l-42999.8,0c-1825.23,0 -3307.09,1481.86 -3307.09,3307.09l0,13325.5c0,1825.23 1481.86,3307.09 3307.09,3307.09l42999.8,-0c1825.23,-0 3307.09,-1481.86 3307.09,-3307.09l-0,-13325.5Z" style="fill:none;stroke:#000;stroke-width:944.88px;"/>
        <path d="M51258,4747.14c-0,-1825.23 -1481.86,-3307.09 -3307.09,-3307.09l-42999.8,0c-1825.23,0 -3307.09,1481.86 -3307.09,3307.09l0,3705.72c0,1825.23 1481.86,3307.09 3307.09,3307.09l42999.8,-0c1825.23,-0 3307.09,-1481.86 3307.09,-3307.09l-0,-3705.72Z" style="fill:none;stroke:#000;stroke-width:944.88px;"/>
        <path d="M7680.43,3329.15l-830.884,-0l-2238.63,6832.49l2769,0l300.517,-6832.49Zm1873.52,1945.83l1972.83,-1265.43l-1584.74,-680.395l2885.3,-0l-0,2934.5l-660.797,-1638.7l-2062.8,2328.06l1051.29,3208.64l-2769,0l-300.517,-6832.49l830.884,-0l637.541,1945.83Z"/>
        <path d="M5408.78,22105.1l3361.81,0l-0,-1002.05l-2312.66,-0l-0,-865.625l1867.67,-0l-0,-1002.05l-1867.67,0l-0,-797.415l2088.54,0l0,-943.58l-3137.69,0l0,4610.71Z" style="fill-rule:nonzero;"/>
        <path d="M9395.85,22103.4l3011.01,0l-0,-1005.29l-2034.95,-0l0,-3607.04l-977.685,-0l1.624,4612.34Z" style="fill-rule:nonzero;"/>
        <path d="M15325.3,22105.1l3361.81,0l0,-1002.05l-2312.66,-0l0,-865.625l1867.67,-0l0,-1002.05l-1867.67,0l0,-797.415l2088.55,0l-0,-943.58l-3137.69,0l-0,4610.71Z" style="fill-rule:nonzero;"/>
        <path d="M19253.9,21166.3c116.933,145.083 248.482,275.008 394.647,389.775l9.745,8.121c155.91,125.594 324.271,232.241 505.083,319.94l8.12,3.248c822.859,419.008 1643.01,415.219 2460.45,-11.368c197.053,-119.098 354.587,-277.174 472.602,-474.227c354.046,-751.399 195.429,-1371.25 -475.85,-1859.55c-262.015,-165.655 -544.602,-279.339 -847.761,-341.053c-201.383,-62.797 -406.557,-112.602 -615.519,-149.414c-153.745,-33.564 -243.61,-128.301 -269.595,-284.211c-3.248,-198.136 92.031,-316.692 285.835,-355.67c200.301,-45.473 400.061,-42.225 599.279,9.745c303.159,70.376 567.34,212.752 792.543,427.128l6.496,-6.496l745.445,-688.603c-214.376,-186.225 -444.452,-348.632 -690.227,-487.218c-734.076,-326.978 -1477.36,-349.174 -2229.84,-66.587c-97.443,36.812 -186.225,88.241 -266.346,154.286c-93.113,77.955 -174.316,167.82 -243.609,269.594c-388.692,710.257 -270.677,1322.53 354.045,1836.82c280.422,181.895 586.828,293.414 919.22,334.557l6.496,3.248l605.775,170.527c144.001,38.977 236.572,129.383 277.715,271.218c34.647,225.203 -55.218,375.7 -269.594,451.489l-4.873,3.249c-202.466,61.714 -406.556,65.503 -612.271,11.368c-427.67,-66.045 -776.302,-268.512 -1045.9,-607.399l-872.122,667.489Z" style="fill-rule:nonzero;"/>
        <path d="M27245.9,20331.6l-1.624,11.369c-102.858,481.805 -395.73,773.053 -878.618,873.745c-642.046,38.978 -1042.11,-253.895 -1200.18,-878.618c-74.707,-359.459 -74.166,-718.918 1.624,-1078.38c99.609,-502.377 401.143,-800.663 904.602,-894.858c639.881,-20.572 1029.66,281.504 1169.33,906.226l989.055,-419.008c-240.362,-660.452 -691.851,-1108.15 -1354.47,-1343.1c-1273.27,-289.084 -2170.29,164.571 -2691.07,1360.96c-212.211,618.226 -216,1236.99 -11.369,1856.3c238.196,670.197 691.851,1124.39 1360.96,1362.59c1278.68,294.496 2181.66,-158.617 2708.94,-1359.34l3.248,-16.241l-1000.42,-381.655Z" style="fill-rule:nonzero;"/>
        <path d="M28736.8,19168.8c-79.038,432.001 -73.624,862.919 16.241,1292.75c233.865,886.738 793.625,1448.12 1679.28,1684.15c1346.89,172.151 2230.38,-387.61 2650.47,-1679.28l1.624,-4.872c75.79,-428.752 77.955,-858.046 6.497,-1287.88l-1.624,-8.121c-232.783,-911.64 -804.994,-1483.31 -1716.63,-1715.01c-1353.38,-154.827 -2232,417.926 -2635.85,1718.26Zm1161.2,19.489c112.601,-390.858 363.79,-643.129 753.565,-756.813c630.136,-98.526 1052.39,152.662 1266.77,753.565c113.685,428.753 102.316,854.257 -34.105,1276.51l-3.248,11.369c-120.181,305.323 -334.557,513.745 -643.129,625.264c-617.143,145.083 -1055.1,-72.542 -1313.87,-652.873c-118.015,-416.843 -126.677,-835.851 -25.985,-1257.03Z" style="fill-rule:nonzero;"/>
        <path d="M33794.1,22100.2l1070.26,3.248l-0,-1788.09l545.685,1.624l1034.53,1786.47l1088.12,0l-1101.12,-1888.78l17.865,-6.497c365.955,-154.827 626.347,-416.301 781.174,-784.422c247.94,-831.52 -13.534,-1445.96 -784.422,-1843.31c-129.925,-50.887 -264.181,-80.12 -402.768,-87.699l-2249.33,3.248l-0,4604.22Zm1065.38,-2676.45l3.248,-969.565l959.821,-0c247.94,42.226 392.482,187.85 433.624,436.873c2.166,297.745 -143.458,475.309 -436.872,532.692l-959.821,0Z" style="fill-rule:nonzero;"/>
        <rect x="38110.9" y="17494.3" width="1067.01" height="4612.34" style="fill-rule:nonzero;"/>
        <path d="M39767.4,22103.4l1092.99,0l222.496,-690.226l1674.41,1.624l216,688.602l1127.1,0l-1546.11,-4610.71l-1252.15,-1.624l-1534.74,4612.34Zm1679.28,-1719.88l518.076,-1598.08l519.7,1598.08l-1037.78,0Z" style="fill-rule:nonzero;"/>
        <path d="M44722.5,22103.4l3011.01,0l0,-1005.29l-2034.95,-0l-0,-3607.04l-977.686,-0l1.624,4612.34Z" style="fill-rule:nonzero;"/>
        <path d="M27518.4,27948.1l1590.01,-2504.82l0,5094.51l-5094.51,-0l2504.82,-1590.01l-2500.06,-2500.06l999.672,-999.673l2500.06,2500.06Z"/>
    </g>
    <g transform="matrix(1,0,0,1,36814.4,4139.95)">
        <g transform="matrix(4872.05,0,0,4872.05,6115.09,4115.06)">
            <path d="M0.33,-0l-0,-0.709l-0.146,-0l0,0.031c-0.006,0.04 -0.029,0.063 -0.07,0.068l-0.064,0l-0,0.147l0.122,0l-0,0.463l0.158,-0Z" style="fill-rule:nonzero;"/>
        </g>
        <g transform="matrix(4895.83,0,0,4895.83,8155.26,4031.73)">
            <path d="M0.568,-0.544c0.008,0.025 0.012,0.048 0.012,0.069c-0,0.055 -0.026,0.096 -0.078,0.125c0.059,0.033 0.088,0.079 0.088,0.14l-0,0.015c-0,0.063 -0.023,0.113 -0.068,0.151c-0.029,0.019 -0.058,0.034 -0.087,0.043c-0.029,0.009 -0.06,0.014 -0.092,0.014c-0.042,0 -0.073,-0.004 -0.092,-0.013c-0.095,-0.025 -0.148,-0.083 -0.16,-0.174c-0.001,-0.005 -0.001,-0.01 -0.002,-0.014c0,-0.005 0,-0.009 0,-0.014c0,-0.069 0.03,-0.117 0.091,-0.144c-0.053,-0.036 -0.079,-0.08 -0.079,-0.132c0,-0.025 0.002,-0.041 0.007,-0.05c0.033,-0.095 0.103,-0.146 0.21,-0.154l0.018,0c0.115,0 0.192,0.046 0.232,0.138Zm-0.32,0.035c-0.002,0.011 -0.003,0.021 -0.003,0.03c-0,0.048 0.028,0.074 0.085,0.078l0.015,0.001c0.061,0 0.092,-0.03 0.093,-0.091c-0.017,-0.044 -0.049,-0.066 -0.096,-0.066l-0.015,0.001c-0.035,0.005 -0.062,0.021 -0.079,0.047Zm-0.017,0.32c0.01,0.05 0.04,0.075 0.091,0.075l0.003,0c0.004,0.001 0.008,0.001 0.012,0.001l0.011,0c0.069,0 0.103,-0.032 0.103,-0.096l-0,-0.012c-0.019,-0.043 -0.055,-0.064 -0.11,-0.064l-0.018,0.001c-0.061,0.007 -0.092,0.037 -0.092,0.09l-0,0.005Z" style="fill-rule:nonzero;"/>
        </g>
    </g>
</svg>
