<?xml version="1.0" encoding="UTF-8" standalone="no"?>
<!DOCTYPE svg PUBLIC "-//W3C//DTD SVG 1.1//EN" "http://www.w3.org/Graphics/SVG/1.1/DTD/svg11.dtd">
<svg width="100%" height="100%" viewBox="0 0 26932 28365" version="1.1" xmlns="http://www.w3.org/2000/svg" xmlns:xlink="http://www.w3.org/1999/xlink" style="fill-rule:evenodd;clip-rule:evenodd;stroke-linecap:round;stroke-linejoin:round;stroke-miterlimit:1.5;">
    <g id="g4799">
    </g>
    <path d="M25562.6,3796.65c0,-1368.92 -1111.39,-2480.32 -2480.32,-2480.32l-19395.1,-0c-1368.92,-0 -2480.32,1111.39 -2480.32,2480.32l0,20681.9c0,1368.92 1111.39,2480.32 2480.32,2480.32l19395.1,-0c1368.92,-0 2480.32,-1111.39 2480.32,-2480.32l0,-20681.9Z" style="fill:#003fff;"/>
    <path d="M26389.3,3796.65c-0,-1825.23 -1481.86,-3307.09 -3307.09,-3307.09l-19395.1,0c-1825.23,0 -3307.09,1481.86 -3307.09,3307.09l0,20681.9c0,1825.23 1481.86,3307.09 3307.09,3307.09c0,0 19395.1,0 19395.1,0c1825.23,0 3307.09,-1481.86 3307.09,-3307.09c-0,-0 -0,-20681.9 -0,-20681.9Zm-826.772,-0c0,-1368.92 -1111.39,-2480.32 -2480.32,-2480.32l-19395.1,-0c-1368.92,-0 -2480.32,1111.39 -2480.32,2480.32l0,20681.9c0,1368.92 1111.39,2480.32 2480.32,2480.32l19395.1,-0c1368.92,-0 2480.32,-1111.39 2480.32,-2480.32l0,-20681.9Z"/>
    <path d="M26271.2,3796.65c-0,-1760.04 -1428.93,-3188.98 -3188.98,-3188.98l-19395.1,0c-1760.04,0 -3188.98,1428.93 -3188.98,3188.98l-0,20681.9c-0,1760.04 1428.93,3188.98 3188.98,3188.98c0,-0 19395.1,-0 19395.1,-0c1760.04,-0 3188.98,-1428.93 3188.98,-3188.98c-0,-0 -0,-20681.9 -0,-20681.9Zm-708.662,-0c0,-1368.92 -1111.39,-2480.32 -2480.32,-2480.32l-19395.1,-0c-1368.92,-0 -2480.32,1111.39 -2480.32,2480.32l0,20681.9c0,1368.92 1111.39,2480.32 2480.32,2480.32l19395.1,-0c1368.92,-0 2480.32,-1111.39 2480.32,-2480.32l0,-20681.9Z" style="fill:#003fff;"/>
    <path d="M25562.6,3796.65c0,-1368.92 -1111.39,-2480.32 -2480.32,-2480.32l-19395.1,-0c-1368.92,-0 -2480.32,1111.39 -2480.32,2480.32l0,20681.9c0,1368.92 1111.39,2480.32 2480.32,2480.32l19395.1,-0c1368.92,-0 2480.32,-1111.39 2480.32,-2480.32l0,-20681.9Z" style="fill:none;stroke:#fff;stroke-width:708.66px;"/>
    <g>
        <path d="M17450,9737.23l-0,-4257.58l-8130.49,-0l-0,4257.58l8130.49,-0Zm-208.333,-4049.25l-7713.82,0l-0,3840.91l7713.82,-0l-0,-3840.91Z" style="fill:#fff;"/>
        <path d="M10178.9,8979.43l655.778,-0l133.494,-414.124l1004.62,0.974l129.596,413.15l676.241,-0l-927.638,-2766.35l-751.27,-0.975l-920.817,2767.32Zm1007.54,-1031.9l310.837,-958.819l311.811,958.819l-622.648,0Z" style="fill:#fff;fill-rule:nonzero;"/>
        <rect x="13168.4" y="7741.93" width="954.921" height="511.565" style="fill:#fff;fill-rule:nonzero;"/>
        <path d="M14748.9,6770.44c-81.2,224.114 -129.921,455.049 -146.161,692.805c-59.764,408.602 15.591,790.571 226.063,1145.9c390.413,461.87 852.608,550.542 1386.59,266.014c110.433,-76.653 202.677,-171.171 276.732,-283.553c293.622,-556.063 194.557,-1030.28 -297.195,-1422.64l-2.923,-1.949c-296.87,-157.854 -594.39,-159.153 -892.559,-3.897c3.248,-154.607 72.431,-269.587 207.549,-344.941c217.618,-87.047 389.114,-31.831 514.488,165.649l580.748,-216.318l-1.949,-4.873c-108.484,-234.507 -280.63,-405.354 -516.437,-512.539c-588.543,-194.882 -1033.52,-21.437 -1334.94,520.335Zm1180.99,995.846c113.681,184.488 106.535,364.429 -21.437,539.823c-16.89,18.189 -35.729,34.754 -56.516,49.695c-194.232,113.031 -365.079,84.449 -512.539,-85.748c-109.784,-174.095 -105.237,-344.941 13.641,-512.539c16.24,-19.489 34.429,-37.353 54.567,-53.593c190.984,-123.425 365.079,-102.638 522.284,62.362Z" style="fill:#fff;fill-rule:nonzero;"/>
    </g>
    <path d="M14112,21405.9l1590.01,-2504.82l-0,5094.51l-5094.51,0l2504.82,-1590.01l-2500.06,-2500.06l999.672,-999.672l2500.06,2500.06Z" style="fill:#fff;"/>
    <g transform="matrix(1,0,0,1,2294.29,11422.1)">
        <g transform="matrix(4868.5,0,0,4868.5,3434.46,4112.57)">
            <path d="M0.05,0l0.157,0l-0.002,-0.464l0.194,0.283l0.197,-0.282l-0,0.463l0.155,0l-0,-0.71l-0.176,0l-0.176,0.249l-0.173,-0.249l-0.176,0l-0,0.71Z" style="fill:#fff;fill-rule:nonzero;"/>
        </g>
        <g transform="matrix(4868.5,0,0,4868.5,7332.91,4112.57)">
            <path d="M0.58,-0.113c-0.013,0 -0.026,-0.001 -0.039,-0.004c-0.012,-0.005 -0.018,-0.015 -0.018,-0.028l0,-0.219c-0.002,-0.071 -0.036,-0.118 -0.103,-0.141c-0.124,-0.04 -0.237,-0.02 -0.339,0.061l0.074,0.119c0.02,-0.018 0.042,-0.033 0.067,-0.043c0.032,-0.016 0.067,-0.02 0.102,-0.015c0.008,0.002 0.016,0.005 0.023,0.009c0.008,0.005 0.014,0.013 0.017,0.022c0,0.004 -0.001,0.008 -0.005,0.01c-0.006,0.003 -0.012,0.004 -0.019,0.005l-0.134,0.023c-0.061,0.017 -0.103,0.054 -0.127,0.112c-0.019,0.095 0.015,0.163 0.104,0.203c0.078,0.027 0.149,0.015 0.214,-0.035c0.035,0.035 0.078,0.051 0.128,0.047l0.055,-0.126Zm-0.332,-0.018c-0.006,-0.004 -0.011,-0.01 -0.014,-0.017c-0.005,-0.02 0.001,-0.034 0.02,-0.042c0.005,-0.002 0.01,-0.004 0.016,-0.005c0.031,-0.005 0.062,-0.011 0.092,-0.018l-0,0.052c-0.004,0.013 -0.012,0.023 -0.023,0.029c-0.03,0.014 -0.061,0.015 -0.091,0.001Z" style="fill:#fff;fill-rule:nonzero;"/>
        </g>
        <g transform="matrix(4868.5,0,0,4868.5,9803.68,4112.57)">
            <path d="M0.158,-0.41c-0.072,0.128 -0.059,0.246 0.04,0.355c0.086,0.075 0.18,0.086 0.281,0.033l0.008,0.022l0.148,-0l-0,-0.665l-0.161,-0l-0,0.17c-0.058,-0.033 -0.118,-0.039 -0.182,-0.019c-0.056,0.019 -0.101,0.054 -0.134,0.104Zm0.315,0.112c0.002,0.026 0.002,0.053 0,0.079c-0.009,0.05 -0.039,0.079 -0.089,0.088c-0.062,0.001 -0.099,-0.029 -0.111,-0.089c-0.002,-0.026 -0.002,-0.052 0.001,-0.078c0.01,-0.046 0.038,-0.074 0.083,-0.083c0.062,-0.005 0.101,0.023 0.116,0.083Z" style="fill:#fff;fill-rule:nonzero;"/>
        </g>
        <g transform="matrix(4868.5,0,0,4868.5,13225,4112.57)">
            <path d="M0.217,0l-0.001,-0.273c0.003,-0.026 0.014,-0.049 0.033,-0.067c0.039,-0.026 0.081,-0.033 0.127,-0.021l0,-0.174c-0.059,-0.005 -0.113,0.011 -0.161,0.046l-0.005,-0.034l-0.16,0l0,0.523l0.167,0Z" style="fill:#fff;fill-rule:nonzero;"/>
        </g>
        <g transform="matrix(4868.5,0,0,4868.5,15132.3,4112.57)">
            <path d="M0.065,-0l0.165,-0l-0,-0.515l-0.165,0.001l0,0.514Zm0.066,-0.715c-0.054,0.017 -0.078,0.054 -0.071,0.11c0.018,0.054 0.054,0.077 0.11,0.07c0.054,-0.017 0.077,-0.053 0.071,-0.11c-0.018,-0.053 -0.054,-0.077 -0.11,-0.07Z" style="fill:#fff;fill-rule:nonzero;"/>
        </g>
        <g transform="matrix(4868.5,0,0,4868.5,16127.9,4112.57)">
            <path d="M0.158,-0.41c-0.072,0.128 -0.059,0.246 0.04,0.355c0.086,0.075 0.18,0.086 0.281,0.033l0.008,0.022l0.148,-0l-0,-0.665l-0.161,-0l-0,0.17c-0.058,-0.033 -0.118,-0.039 -0.182,-0.019c-0.056,0.019 -0.101,0.054 -0.134,0.104Zm0.315,0.112c0.002,0.026 0.002,0.053 0,0.079c-0.009,0.05 -0.039,0.079 -0.089,0.088c-0.062,0.001 -0.099,-0.029 -0.111,-0.089c-0.002,-0.026 -0.002,-0.052 0.001,-0.078c0.01,-0.046 0.038,-0.074 0.083,-0.083c0.062,-0.005 0.101,0.023 0.116,0.083Z" style="fill:#fff;fill-rule:nonzero;"/>
        </g>
    </g>
</svg>
