<?xml version="1.0" encoding="UTF-8" standalone="no"?>
<!DOCTYPE svg PUBLIC "-//W3C//DTD SVG 1.1//EN" "http://www.w3.org/Graphics/SVG/1.1/DTD/svg11.dtd">
<svg width="100%" height="100%" viewBox="0 0 36807 55921" version="1.1" xmlns="http://www.w3.org/2000/svg" xmlns:xlink="http://www.w3.org/1999/xlink" xml:space="preserve" style="fill-rule:evenodd;clip-rule:evenodd;stroke-linecap:round;stroke-linejoin:round;stroke-miterlimit:1.5;">
    <g id="g4799">
        <g>
            <path d="M28023.3,4000.94c0,-1460.18 -1185.48,-2645.67 -2645.67,-2645.67l-13997.3,-0c-1460.18,-0 -2645.67,1185.48 -2645.67,2645.67l-0,2937.89c-0,1460.18 1185.48,2645.67 2645.67,2645.67l13997.3,-0c1460.18,-0 2645.67,-1185.49 2645.67,-2645.67l0,-2937.89Z" style="fill:#039900;"/>
            <path d="M28897.3,4000.94c0,-1942.57 -1577.12,-3519.68 -3519.68,-3519.68c0,0 -13997.3,0 -13997.3,0c-1942.57,0 -3519.68,1577.12 -3519.68,3519.68l-0,2937.89c-0,1942.57 1577.12,3519.68 3519.68,3519.68l13997.3,0c1942.57,0 3519.68,-1577.12 3519.68,-3519.68c0,0 0,-2937.89 0,-2937.89Zm-874.016,0c0,-1460.18 -1185.48,-2645.67 -2645.67,-2645.67l-13997.3,-0c-1460.18,-0 -2645.67,1185.48 -2645.67,2645.67l-0,2937.89c-0,1460.18 1185.48,2645.67 2645.67,2645.67l13997.3,-0c1460.18,-0 2645.67,-1185.49 2645.67,-2645.67l0,-2937.89Z"/>
            <path d="M28779.2,4000.94c-0,-1877.38 -1524.19,-3401.58 -3401.58,-3401.58c0,0 -13997.3,0 -13997.3,0c-1877.38,0 -3401.58,1524.19 -3401.58,3401.58l-0,2937.89c-0,1877.38 1524.19,3401.58 3401.58,3401.58l13997.3,0c1877.38,0 3401.58,-1524.19 3401.58,-3401.58c-0,0 -0,-2937.89 -0,-2937.89Zm-755.906,0c0,-1460.18 -1185.48,-2645.67 -2645.67,-2645.67l-13997.3,-0c-1460.18,-0 -2645.67,1185.48 -2645.67,2645.67l-0,2937.89c-0,1460.18 1185.48,2645.67 2645.67,2645.67l13997.3,-0c1460.18,-0 2645.67,-1185.49 2645.67,-2645.67l0,-2937.89Z" style="fill:#039900;"/>
            <path d="M28023.3,4000.94c0,-1460.18 -1185.48,-2645.67 -2645.67,-2645.67l-13997.3,-0c-1460.18,-0 -2645.67,1185.48 -2645.67,2645.67l-0,2937.89c-0,1460.18 1185.48,2645.67 2645.67,2645.67l13997.3,-0c1460.18,-0 2645.67,-1185.49 2645.67,-2645.67l0,-2937.89Z" style="fill:none;stroke:#fff;stroke-width:755.91px;"/>
            <path d="M11664,7402.35l2689.37,-0l-0,-801.614l-1850.08,-0l0,-692.481l1494.09,0l0,-801.614l-1494.09,0l0,-637.913l1670.79,-0l0,-754.843l-2510.08,0l-0,3688.47Z" style="fill:#fff;fill-rule:nonzero;"/>
            <rect x="14873.1" y="5751.05" width="1273.23" height="682.087" style="fill:#fff;fill-rule:nonzero;"/>
            <path d="M19620.4,6660.49c73.622,-209.606 125.59,-424.409 155.905,-644.409c77.087,-518.819 25.984,-1025.08 -153.307,-1518.78c-116.929,-265.039 -291.024,-484.606 -522.283,-658.7c-504.961,-303.15 -1004.73,-295.788 -1499.29,22.086c-145.512,103.937 -266.771,231.693 -363.779,383.268c-381.103,747.48 -239.922,1378.03 423.543,1891.65l3.898,2.599c399.291,205.275 796.417,201.378 1191.38,-11.693c-2.599,206.142 -93.111,360.748 -271.536,463.819c-288.425,119.527 -517.953,48.937 -688.582,-211.772l-770.434,300.118l2.599,6.496c148.11,314.41 381.102,542.638 698.976,684.685c793.386,258.111 1391.02,21.654 1792.91,-709.37Zm-1617.52,-1326.5c-155.039,-243.386 -148.976,-483.307 18.189,-719.764c22.52,-24.251 47.205,-46.771 74.055,-67.559c257.244,-154.173 485.906,-119.527 685.984,103.937c149.843,230.394 146.811,458.622 -9.094,684.685c-21.654,25.985 -45.473,49.804 -71.457,71.457c-252.047,168.898 -484.606,144.646 -697.677,-72.756Z" style="fill:#fff;fill-rule:nonzero;"/>
            <path d="M23121.8,4480.42c-153.308,-306.615 -383.268,-535.709 -689.882,-687.284c-854.882,-319.606 -1519.21,-89.212 -1992.99,691.181c-310.945,711.103 -315.709,1423.94 -14.292,2138.5c155.906,321.339 394.528,559.961 715.866,715.866c865.276,313.544 1532.64,74.488 2002.09,-717.165c283.228,-716.299 276.299,-1430 -20.787,-2141.1Zm-645.709,1573.35c-7.795,40.709 -18.622,80.551 -32.48,119.528c-187.953,392.362 -491.969,532.677 -912.048,420.944c-252.913,-96.141 -405.354,-276.299 -457.322,-540.472c-29.449,-251.181 -34.646,-502.362 -15.591,-753.543c4.331,-41.575 7.362,-83.15 9.094,-124.725c24.252,-343.858 201.378,-565.157 531.378,-663.897c63.229,-17.323 127.323,-25.551 192.284,-24.685c427.008,46.771 657.401,284.094 691.181,711.968l1.299,9.095c29.449,281.496 26.851,563.425 -7.795,845.787Z" style="fill:#fff;fill-rule:nonzero;"/>
            <path d="M25092.7,7398.45l1.299,-3684.57l-754.842,0l-0,161.103c-32.914,209.606 -154.607,327.834 -365.079,354.685l-333.898,1.299l0,765.236l632.717,-1.299l-0,2403.54l819.803,0Z" style="fill:#fff;fill-rule:nonzero;"/>
        </g>
        <path d="M35110.1,15081.2c-0,-1825.23 -1481.86,-3307.09 -3307.09,-3307.09l-26848,0c-1825.23,0 -3307.09,1481.86 -3307.09,3307.09l0,35756.1c0,1825.23 1481.86,3307.09 3307.09,3307.09l26848,-0c1825.23,-0 3307.09,-1481.86 3307.09,-3307.09l-0,-35756.1Z" style="fill:#003fff;"/>
        <path d="M36173.1,15081.2c-0,-2411.91 -1958.17,-4370.08 -4370.08,-4370.08l-26848,0c-2411.91,0 -4370.08,1958.17 -4370.08,4370.08c0,-0 0,35756.1 0,35756.1c0,2411.91 1958.17,4370.08 4370.08,4370.08c-0,-0 26848,-0 26848,-0c2411.91,-0 4370.08,-1958.17 4370.08,-4370.08c-0,-0 -0,-35756.1 -0,-35756.1Zm-1062.99,-0c-0,-1825.23 -1481.86,-3307.09 -3307.09,-3307.09l-26848,0c-1825.23,0 -3307.09,1481.86 -3307.09,3307.09l0,35756.1c0,1825.23 1481.86,3307.09 3307.09,3307.09l26848,-0c1825.23,-0 3307.09,-1481.86 3307.09,-3307.09l-0,-35756.1Z"/>
        <path d="M36055,15081.2c-0,-2346.72 -1905.24,-4251.97 -4251.97,-4251.97l-26848,0c-2346.73,0 -4251.97,1905.24 -4251.97,4251.97c0,-0 0,35756.1 0,35756.1c0,2346.72 1905.24,4251.97 4251.97,4251.97c-0,-0 26848,-0 26848,-0c2346.72,-0 4251.97,-1905.24 4251.97,-4251.97c-0,-0 -0,-35756.1 -0,-35756.1Zm-944.882,-0c-0,-1825.23 -1481.86,-3307.09 -3307.09,-3307.09l-26848,0c-1825.23,0 -3307.09,1481.86 -3307.09,3307.09l0,35756.1c0,1825.23 1481.86,3307.09 3307.09,3307.09l26848,-0c1825.23,-0 3307.09,-1481.86 3307.09,-3307.09l-0,-35756.1Z" style="fill:#003fff;"/>
        <path d="M35110.1,27250c-0,-1825.23 -1481.86,-3307.09 -3307.09,-3307.09l-26848,0c-1825.23,0 -3307.09,1481.86 -3307.09,3307.09l0,23587.2c0,1825.23 1481.86,3307.09 3307.09,3307.09l26848,-0c1825.23,-0 3307.09,-1481.86 3307.09,-3307.09l-0,-23587.2Z" style="fill:none;stroke:#fff;stroke-width:944.88px;"/>
        <path d="M35110.1,15081.2c-0,-1825.23 -1481.86,-3307.09 -3307.09,-3307.09l-26848,0c-1825.23,0 -3307.09,1481.86 -3307.09,3307.09l0,3705.72c0,1825.23 1481.86,3307.09 3307.09,3307.09l26848,-0c1825.23,-0 3307.09,-1481.86 3307.09,-3307.09l-0,-3705.72Z" style="fill:none;stroke:#fff;stroke-width:944.88px;"/>
        <path d="M7684.3,13663.2l-830.885,-0l-2238.63,6832.49l2769,0l300.518,-6832.49Zm1873.52,1945.83l1972.83,-1265.43l-1584.74,-680.395l2885.3,-0l0,2934.5l-660.796,-1638.7l-2062.8,2328.06l1051.3,3208.64l-2769,0l-300.518,-6832.49l830.885,-0l637.541,1945.83Z" style="fill:#fff;"/>
        <g>
            <path d="M23540.2,33171l0,-5790.04l-10802.4,0l-0,5790.04l10802.4,0Zm-291.666,-5498.37l-10219.1,-0l0,5206.71l10219.1,-0l-0,-5206.71Z" style="fill:#fff;"/>
            <path d="M13854.2,32104l874.37,0l177.992,-552.165l1339.49,1.299l172.796,550.866l901.653,0l-1236.85,-3688.46l-1001.69,-1.299l-1227.76,3689.76Zm1343.39,-1375.87l414.448,-1278.42l415.749,1278.42l-830.197,0Z" style="fill:#fff;fill-rule:nonzero;"/>
            <rect x="17840.2" y="30454" width="1273.23" height="682.087" style="fill:#fff;fill-rule:nonzero;"/>
            <path d="M19666.9,29540.6l823.701,89.646c-2.599,-103.937 26.417,-198.347 87.047,-283.229c12.126,-13.858 25.118,-27.283 38.976,-40.275c304.016,-229.528 597.205,-216.536 879.567,38.976c3.465,5.197 6.496,10.827 9.095,16.89c79.685,206.141 25.551,367.677 -162.402,484.606c-44.173,15.591 -90.078,25.118 -137.716,28.583l-427.441,-0l-0,762.637l524.882,0c31.181,4.331 60.63,12.56 88.346,24.686c181.89,100.472 240.354,249.448 175.394,446.929c-48.504,82.283 -113.465,148.11 -194.882,197.48c-316.142,153.307 -578.583,89.213 -787.323,-192.283c-48.504,-77.087 -78.386,-160.67 -89.646,-250.749l-861.378,152.008c19.922,194.016 81.418,373.741 184.489,539.174c61.496,84.015 130.787,161.535 207.874,232.559c742.283,560.393 1458.15,527.48 2147.6,-98.741c276.299,-350.787 323.504,-730.157 141.614,-1138.11c-84.015,-136.85 -194.449,-247.716 -331.299,-332.598c126.457,-80.551 227.362,-185.788 302.717,-315.709c236.456,-513.622 124.291,-934.567 -336.496,-1262.83c-752.678,-455.591 -1442.13,-374.607 -2068.35,242.952c-134.252,198.347 -205.709,417.481 -214.37,657.402Z" style="fill:#fff;fill-rule:nonzero;"/>
        </g>
        <path d="M22803.4,18647.8l2468.91,0l-0,-728.371l-1093.78,0c154.282,-120.989 303.285,-248.068 447.011,-381.238c193.257,-151.845 357.689,-330.487 493.294,-535.925c286.639,-642.298 164.838,-1194.06 -365.403,-1655.28c-741.363,-410.876 -1389.75,-296.383 -1945.16,343.479c-113.681,272.023 -167.68,555.82 -161.996,851.391l816.068,-0c0.812,-99.877 8.526,-198.942 23.143,-297.195c47.908,-211.122 177.423,-341.044 388.545,-389.764c293.135,-24.36 479.085,105.561 557.85,389.764c4.06,168.085 -36.947,324.397 -123.019,468.934c-164.838,181.078 -347.54,343.074 -548.106,485.987l-604.134,462.845c-86.884,65.772 -169.303,136.417 -247.256,211.934c-71.457,90.132 -106.779,192.445 -105.967,306.939l-0,466.498Z" style="fill:#fff;fill-rule:nonzero;"/>
        <path d="M28423.3,18147.2l436.049,0l-0,-755.167l-436.049,-0l0,-2204.6l-986.589,-0l-1635.79,2275.25l-0,684.522l1813.62,0l-0,498.167l808.759,0l0,-498.167Zm-808.759,-755.167l-894.021,-0l895.239,-1182.69l-1.218,1182.69Z" style="fill:#fff;fill-rule:nonzero;"/>
        <path d="M32347.8,15909.7c-143.725,-287.451 -359.313,-502.227 -646.764,-644.329c-801.452,-299.631 -1424.26,-83.637 -1868.43,647.983c-291.511,666.658 -295.977,1334.94 -13.398,2004.85c146.161,301.255 369.87,524.963 671.124,671.125c811.196,293.946 1436.85,69.832 1876.96,-672.343c265.526,-671.53 259.03,-1340.62 -19.489,-2007.28Zm-605.351,1475.01c-7.308,38.164 -17.459,75.517 -30.451,112.057c-176.205,367.84 -461.22,499.385 -855.044,394.636c-237.106,-90.133 -380.02,-259.031 -428.74,-506.693c-27.608,-235.482 -32.48,-470.965 -14.616,-706.447c4.06,-38.976 6.902,-77.953 8.526,-116.929c22.736,-322.367 188.792,-529.835 498.167,-622.404c59.276,-16.24 119.365,-23.954 180.265,-23.142c400.32,43.848 616.314,266.338 647.983,667.47l1.218,8.526c27.608,263.903 25.172,528.211 -7.308,792.926Z" style="fill:#fff;fill-rule:nonzero;"/>
    </g>
    <path d="M6770.19,40980.1l1240.78,0l1203.43,-4612.34l-1034.53,-0l-794.166,2946.05l-799.039,-2946.05l-1076.75,-0l1260.27,4612.34Z" style="fill:#fff;fill-rule:nonzero;"/>
    <path d="M12892.9,40242.8c-85.534,2.165 -169.985,-6.496 -253.354,-25.985c-80.12,-33.564 -119.098,-94.196 -116.932,-181.895l-0,-1421.06c-11.91,-460.151 -236.031,-765.475 -672.362,-915.971c-805.535,-262.015 -1539.61,-129.384 -2202.23,397.895l485.595,774.678c126.677,-120.181 270.135,-215.459 430.376,-285.835c213.294,-97.444 435.79,-127.76 667.49,-90.947c51.97,11.909 100.692,30.857 146.166,56.842c56.3,32.481 92.571,80.12 108.812,142.917c3.248,27.068 -5.955,48.722 -27.609,64.963c-40.061,15.158 -81.203,25.985 -123.429,32.481l-872.122,151.038c-395.188,105.023 -669.655,347.008 -823.399,725.956c-126.677,617.143 97.443,1056.18 672.362,1317.11c505.624,174.316 970.106,97.986 1393.44,-228.992c228.452,228.451 504.001,331.85 826.648,310.196l360.542,-823.4Zm-2156.76,-115.309c-42.226,-25.985 -72.542,-62.797 -90.948,-110.436c-33.564,-126.677 9.203,-218.166 128.301,-274.466c33.564,-14.076 68.211,-24.903 103.94,-32.482c201.384,-31.398 401.144,-69.293 599.279,-113.684l-1.624,339.429c-24.902,82.286 -75.248,143.459 -151.038,183.519c-194.887,95.278 -390.857,97.985 -587.91,8.12Z" style="fill:#fff;fill-rule:nonzero;"/>
    <path d="M13266.4,40108c-2.165,467.73 218.166,775.76 660.994,924.091c352.963,63.88 702.136,48.181 1047.52,-47.098l-92.572,-963.069c-131.007,69.294 -270.135,97.444 -417.384,84.452l-3.248,-0c-94.195,-19.489 -140.752,-77.414 -139.669,-173.775l1.624,-3519.34l-1062.14,-1.624l0,3691.49l4.872,4.873Z" style="fill:#fff;fill-rule:nonzero;"/>
    <path d="M15476.8,39872.5c195.971,650.707 626.347,1045.36 1291.13,1183.94c684.272,92.03 1286.26,-89.323 1805.96,-544.061l-677.234,-682.106c-220.872,194.887 -478.557,300.452 -773.053,316.692c-332.392,8.662 -556.512,-142.917 -672.362,-454.737l2168.12,-0c54.136,-329.144 26.527,-650.708 -82.827,-964.693c-330.226,-828.272 -938.708,-1195.31 -1825.45,-1101.12l-14.617,3.248c-606.316,128.843 -1008.54,486.136 -1206.68,1071.88l-3.248,9.744c-107.188,386.527 -110.437,773.595 -9.745,1161.2Zm982.558,-950.077c61.714,-221.955 204.091,-364.331 427.129,-427.128c349.714,-48.722 581.414,93.654 695.098,427.128l-1122.23,0Z" style="fill:#fff;fill-rule:nonzero;"/>
    <path d="M19135.8,37749.8l-1.624,3230.26l1005.3,0l-0,-1942.38c41.143,-233.865 177.023,-377.865 407.639,-432c305.324,-25.985 499.129,108.271 581.415,402.767l-0,1971.61l1019.91,0l0,-2220.09c-45.474,-356.211 -210.587,-642.588 -495.339,-859.129c-526.196,-324.813 -1049.69,-319.941 -1570.47,14.616l-64.963,-165.654l-881.866,-0Z" style="fill:#fff;fill-rule:nonzero;"/>
    <path d="M23014.1,40080.3c440.663,823.941 1111.4,1114.11 2012.21,870.497c474.226,-192.722 796.873,-530.527 967.941,-1013.42l-909.475,-332.933c-28.15,272.843 -171.609,455.279 -430.377,547.309c-363.79,73.625 -615.519,-61.714 -755.189,-406.015c-86.616,-312.903 -79.579,-623.64 21.113,-932.212c99.609,-219.79 269.595,-342.136 509.956,-367.038c364.873,8.661 576.542,193.263 635.008,553.805l1.624,8.12l912.723,-341.053l-6.496,-16.24c-194.887,-512.121 -553.805,-851.009 -1076.75,-1016.66c-817.445,-189.473 -1434.05,80.662 -1849.81,810.408c-227.369,540.271 -238.196,1085.41 -32.482,1635.43Z" style="fill:#fff;fill-rule:nonzero;"/>
    <path d="M26398.6,40978.5l1070.26,0l-0,-3342.32l-1070.26,-0l-0,3342.32Zm427.128,-4644.82c-349.715,112.602 -501.835,350.798 -456.362,714.588c111.519,348.632 349.174,500.753 712.964,456.361c348.632,-111.518 500.753,-349.173 456.361,-712.963c-111.518,-349.715 -349.173,-502.377 -712.963,-457.986Z" style="fill:#fff;fill-rule:nonzero;"/>
    <path d="M31394.2,40242.8c-85.534,2.165 -169.985,-6.496 -253.354,-25.985c-80.12,-33.564 -119.098,-94.196 -116.932,-181.895l-0,-1421.06c-11.91,-460.151 -236.031,-765.475 -672.362,-915.971c-805.535,-262.015 -1539.61,-129.384 -2202.23,397.895l485.595,774.678c126.677,-120.181 270.135,-215.459 430.376,-285.835c213.294,-97.444 435.79,-127.76 667.49,-90.947c51.97,11.909 100.692,30.857 146.166,56.842c56.3,32.481 92.571,80.12 108.812,142.917c3.248,27.068 -5.955,48.722 -27.609,64.963c-40.061,15.158 -81.203,25.985 -123.429,32.481l-872.122,151.038c-395.188,105.023 -669.655,347.008 -823.399,725.956c-126.677,617.143 97.443,1056.18 672.362,1317.11c505.624,174.316 970.106,97.986 1393.44,-228.992c228.452,228.451 504.001,331.85 826.648,310.196l360.542,-823.4Zm-2156.76,-115.309c-42.226,-25.985 -72.542,-62.797 -90.948,-110.436c-33.564,-126.677 9.203,-218.166 128.301,-274.466c33.564,-14.076 68.211,-24.903 103.94,-32.482c201.384,-31.398 401.144,-69.293 599.279,-113.684l-1.624,339.429c-24.902,82.286 -75.248,143.459 -151.038,183.519c-194.887,95.278 -390.857,97.985 -587.91,8.12Z" style="fill:#fff;fill-rule:nonzero;"/>
    <path d="M19096.2,48189.7l1590.01,-2504.82l-0,5094.51l-5094.51,0l2504.82,-1590.01l-2500.06,-2500.06l999.673,-999.672l2500.06,2500.06Z" style="fill:#fff;"/>
</svg>
