<?xml version="1.0" encoding="UTF-8" standalone="no"?>
<!DOCTYPE svg PUBLIC "-//W3C//DTD SVG 1.1//EN" "http://www.w3.org/Graphics/SVG/1.1/DTD/svg11.dtd">
<svg width="100%" height="100%" viewBox="0 0 79719 33266" version="1.1" xmlns="http://www.w3.org/2000/svg" xmlns:xlink="http://www.w3.org/1999/xlink" xml:space="preserve" style="fill-rule:evenodd;clip-rule:evenodd;stroke-linecap:round;stroke-linejoin:round;stroke-miterlimit:1.5;">
    <g id="g4799">
        <path d="M32507.9,4074.18c0,-1368.92 -1111.39,-2480.32 -2480.32,-2480.32l-26195.6,-0c-1368.92,-0 -2480.32,1111.39 -2480.32,2480.32l-0,25268.7c-0,1368.92 1111.39,2480.32 2480.32,2480.32l26195.6,-0c1368.92,-0 2480.32,-1111.39 2480.32,-2480.32l0,-25268.7Z" style="fill:#fff;"/>
        <path d="M33334.7,4074.18c0,-1825.23 -1481.86,-3307.09 -3307.09,-3307.09c0,-0 -26195.6,-0 -26195.6,-0c-1825.23,-0 -3307.09,1481.86 -3307.09,3307.09l0,25268.7c0,1825.23 1481.86,3307.09 3307.09,3307.09l26195.6,-0c1825.23,-0 3307.09,-1481.86 3307.09,-3307.09c0,-0 0,-25268.7 0,-25268.7Zm-826.772,-0c0,-1368.92 -1111.39,-2480.32 -2480.32,-2480.32l-26195.6,-0c-1368.92,-0 -2480.32,1111.39 -2480.32,2480.32l-0,25268.7c-0,1368.92 1111.39,2480.32 2480.32,2480.32l26195.6,-0c1368.92,-0 2480.32,-1111.39 2480.32,-2480.32l0,-25268.7Z"/>
        <path d="M33216.6,4074.18c-0,-1760.04 -1428.93,-3188.98 -3188.98,-3188.98c0,0 -26195.6,0 -26195.6,0c-1760.04,0 -3188.98,1428.93 -3188.98,3188.98l0,25268.7c0,1760.04 1428.93,3188.98 3188.98,3188.98l26195.6,0c1760.04,0 3188.98,-1428.93 3188.98,-3188.98c-0,-0 -0,-25268.7 -0,-25268.7Zm-708.662,-0c0,-1368.92 -1111.39,-2480.32 -2480.32,-2480.32l-26195.6,-0c-1368.92,-0 -2480.32,1111.39 -2480.32,2480.32l-0,25268.7c-0,1368.92 1111.39,2480.32 2480.32,2480.32l26195.6,-0c1368.92,-0 2480.32,-1111.39 2480.32,-2480.32l0,-25268.7Z" style="fill:#fff;"/>
        <path d="M32507.9,4074.18c0,-1368.92 -1111.39,-2480.32 -2480.32,-2480.32l-26195.6,-0c-1368.92,-0 -2480.32,1111.39 -2480.32,2480.32l-0,25268.7c-0,1368.92 1111.39,2480.32 2480.32,2480.32l26195.6,-0c1368.92,-0 2480.32,-1111.39 2480.32,-2480.32l0,-25268.7Z" style="fill:none;stroke:#000;stroke-width:708.66px;"/>
        <path d="M78405,4074.18c-0,-1368.92 -1111.39,-2480.32 -2480.32,-2480.32l-38829.6,-0c-1368.92,-0 -2480.32,1111.39 -2480.32,2480.32l0,25268.7c0,1368.92 1111.39,2480.32 2480.32,2480.32l38829.6,-0c1368.92,-0 2480.32,-1111.39 2480.32,-2480.32l-0,-25268.7Z" style="fill:#fff;"/>
        <path d="M79231.8,4074.18c0,-1825.23 -1481.86,-3307.09 -3307.09,-3307.09c-0,-0 -38829.6,-0 -38829.6,-0c-1825.23,-0 -3307.09,1481.86 -3307.09,3307.09c-0,-0 -0,25268.7 -0,25268.7c-0,1825.23 1481.86,3307.09 3307.09,3307.09l38829.6,-0c1825.23,-0 3307.09,-1481.86 3307.09,-3307.09c0,-0 0,-25268.7 0,-25268.7Zm-826.771,-0c-0,-1368.92 -1111.39,-2480.32 -2480.32,-2480.32l-38829.6,-0c-1368.92,-0 -2480.32,1111.39 -2480.32,2480.32l0,25268.7c0,1368.92 1111.39,2480.32 2480.32,2480.32l38829.6,-0c1368.92,-0 2480.32,-1111.39 2480.32,-2480.32l-0,-25268.7Z"/>
        <path d="M79113.7,4074.18c-0,-1760.04 -1428.93,-3188.98 -3188.98,-3188.98c-0,0 -38829.6,0 -38829.6,0c-1760.04,0 -3188.98,1428.93 -3188.98,3188.98c-0,-0 -0,25268.7 -0,25268.7c-0,1760.04 1428.93,3188.98 3188.98,3188.98l38829.6,0c1760.04,0 3188.98,-1428.93 3188.98,-3188.98l0,-25268.7Zm-708.661,0.001c-0,-1368.92 -1111.39,-2480.32 -2480.32,-2480.32l-38829.6,-0c-1368.92,-0 -2480.32,1111.39 -2480.32,2480.32l0,25268.7c0,1368.92 1111.39,2480.32 2480.32,2480.32l38829.6,-0c1368.92,-0 2480.32,-1111.39 2480.32,-2480.32l-0,-25268.7Z" style="fill:#fff;"/>
        <path d="M78405,4074.18c-0,-1368.92 -1111.39,-2480.32 -2480.32,-2480.32l-38829.6,-0c-1368.92,-0 -2480.32,1111.39 -2480.32,2480.32l0,25268.7c0,1368.92 1111.39,2480.32 2480.32,2480.32l38829.6,-0c1368.92,-0 2480.32,-1111.39 2480.32,-2480.32l-0,-25268.7Z" style="fill:none;stroke:#000;stroke-width:708.66px;"/>
        <path d="M4356.1,20618.5l819.097,0l166.741,-517.26l1254.81,1.217l161.872,516.043l844.655,0l-1158.66,-3455.3l-938.371,-1.217l-1150.14,3456.52Zm1258.46,-1288.89l388.25,-1197.61l389.467,1197.61l-777.717,0Z" style="fill-rule:nonzero;"/>
        <path d="M8069.43,20618.5l2256.47,0l-0,-753.374l-1525.01,-0l0,-2703.14l-732.684,-0l1.217,3456.52Z" style="fill-rule:nonzero;"/>
        <path d="M10784.7,20618.5l1914.47,0c308.328,-49.494 545.659,-206.904 711.994,-472.228c260.456,-545.253 146.862,-996.386 -340.783,-1353.4c208.527,-173.637 322.527,-395.552 342,-665.744c-22.719,-559.047 -310.762,-879.546 -864.129,-961.496l-1764.77,-3.651l1.217,3456.52Zm799.624,-2118.94l1.217,-614.627l720.513,0c29.21,-1.623 57.203,3.246 83.979,14.605c78.705,34.89 135.096,91.687 169.175,170.392c58.42,185.808 1.623,324.961 -170.392,417.459c-26.776,7.303 -54.363,11.766 -82.762,13.388l-721.73,-1.217Zm2.434,1388.69l0,-724.164l765.546,-0c46.249,-4.869 91.281,1.623 135.096,19.473c129.011,54.363 206.498,150.107 232.463,287.232c12.982,224.754 -89.253,364.313 -306.705,418.676l-826.4,-1.217Z" style="fill-rule:nonzero;"/>
        <path d="M13839.6,20618.5l819.098,0l166.74,-517.26l1254.81,1.217l161.872,516.043l844.656,0l-1158.66,-3455.3l-938.371,-1.217l-1150.14,3456.52Zm1258.46,-1288.89l388.249,-1197.61l389.467,1197.61l-777.716,0Z" style="fill-rule:nonzero;"/>
        <path d="M19803.3,19290.6l-1.217,8.52c-77.082,361.068 -296.563,579.332 -658.442,654.791c-481.154,29.21 -780.962,-190.271 -899.425,-658.442c-55.986,-269.381 -55.58,-538.762 1.217,-808.144c74.648,-376.484 300.62,-600.022 677.916,-670.613c479.53,-15.416 771.63,210.962 876.3,679.133l741.203,-314.008c-180.128,-494.947 -518.477,-830.456 -1015.05,-1006.53c-954.194,-216.641 -1626.43,123.331 -2016.71,1019.92c-159.032,463.303 -161.872,927.012 -8.52,1391.13c178.506,502.249 518.478,842.627 1019.92,1021.13c958.25,220.697 1634.95,-118.869 2030.1,-1018.7l2.434,-12.171l-749.723,-286.015Z" style="fill-rule:nonzero;"/>
        <path d="M20912.1,20619.7l2519.36,0l0,-750.94l-1733.13,-0l-0,-648.705l1399.64,-0l0,-750.941l-1399.64,0l-0,-597.588l1565.17,0l-0,-707.125l-2351.41,-0l-0,3455.3Z" style="fill-rule:nonzero;"/>
        <path d="M24764.2,20618.5l797.19,0l0,-2716.53l960.279,0l-0,-739.986l-2762.78,-0l-0,739.986l1005.31,0l0,2716.53Z" style="fill-rule:nonzero;"/>
        <path d="M26984.1,20619.7l2519.36,0l-0,-750.94l-1733.13,-0l0,-648.705l1399.65,-0l0,-750.941l-1399.65,0l0,-597.588l1565.17,0l0,-707.125l-2351.41,-0l0,3455.3Z" style="fill-rule:nonzero;"/>
        <path d="M6176.86,14931.1l2256.47,0l0,-753.374l-1525.01,-0l-0,-2703.14l-732.684,-0l1.217,3456.52Z" style="fill-rule:nonzero;"/>
        <path d="M8834.97,14931.1l819.097,0l166.74,-517.26l1254.81,1.217l161.872,516.043l844.656,0l-1158.66,-3455.3l-938.371,-1.217l-1150.14,3456.52Zm1258.46,-1288.89l388.25,-1197.61l389.466,1197.61l-777.716,0Z" style="fill-rule:nonzero;"/>
        <path d="M14269.2,14928.7l802.058,2.434l-0,-1340.01l408.94,1.217l775.282,1338.79l815.446,0l-825.183,-1415.47l13.388,-4.868c274.25,-116.029 469.389,-311.979 585.417,-587.851c185.808,-623.147 -10.142,-1083.61 -587.851,-1381.39c-97.367,-38.135 -197.979,-60.043 -301.837,-65.722l-1685.66,2.434l-0,3450.43Zm798.407,-2005.75l2.434,-726.599l719.296,0c185.808,31.644 294.128,140.776 324.961,327.395c1.623,223.132 -107.509,356.2 -327.395,399.204l-719.296,-0Z" style="fill-rule:nonzero;"/>
        <path d="M17488.4,12731.9c-59.231,323.744 -55.174,646.677 12.171,968.798c175.26,664.528 594.748,1085.23 1258.46,1262.12c1009.37,129.011 1671.46,-290.477 1986.28,-1258.46l1.217,-3.651c56.798,-321.31 58.42,-643.026 4.869,-965.147l-1.217,-6.085c-174.449,-683.19 -603.268,-1111.6 -1286.46,-1285.24c-1014.24,-116.029 -1672.68,313.196 -1975.33,1287.67Zm870.215,14.605c84.384,-292.912 272.627,-481.965 564.727,-567.161c472.228,-73.836 788.67,114.406 949.325,564.727c85.195,321.31 76.676,640.185 -25.559,956.627l-2.434,8.52c-90.065,228.811 -250.72,385.004 -481.965,468.577c-462.492,108.726 -790.699,-54.363 -984.621,-489.268c-88.441,-312.384 -94.932,-626.392 -19.473,-942.022Z" style="fill-rule:nonzero;"/>
        <path d="M21282.1,14937.2l1403.3,-3.652c607.73,-10.548 1062.51,-279.523 1364.35,-806.926c259.644,-599.616 258.427,-1198.83 -3.652,-1797.63c-295.345,-537.951 -748.912,-821.937 -1360.7,-851.958l-1406.95,-0l3.651,3460.17Zm791.104,-733.902l0,-1997.23l612.193,-0c184.185,14.605 339.972,89.253 467.36,223.943c363.502,525.78 366.342,1053.59 8.52,1583.42c-129.011,137.937 -287.638,201.225 -475.88,189.865l-612.193,0Z" style="fill-rule:nonzero;"/>
        <path d="M24436.8,14931.1l819.097,0l166.741,-517.26l1254.81,1.217l161.873,516.043l844.655,0l-1158.66,-3455.3l-938.371,-1.217l-1150.14,3456.52Zm1258.46,-1288.89l388.25,-1197.61l389.466,1197.61l-777.716,0Z" style="fill-rule:nonzero;"/>
        <path d="M17636.7,25901.1l2895.49,-647.894l-3602.36,3602.36l-3602.36,-3602.36l2895.49,647.894l-0,-2124.27l1413.75,-0l0,2124.27Z"/>
        <path d="M57207.2,26310.3l1590.01,-2504.82l0,5094.51l-5094.51,0.001l2504.82,-1590.01l-2500.06,-2500.06l999.672,-999.672l2500.06,2500.06Z"/>
        <g>
            <rect x="10703.8" y="4931.39" width="12452" height="4022.81" style="fill:#f00;"/>
            <path d="M23447.5,9245.87l0,-4606.14l-13035.4,0l-0,4606.14l13035.4,-0Zm-291.666,-4314.48l-12452,-0l0,4022.81l12452,-0l-0,-4022.81Z" style="fill:#fff;"/>
            <path d="M11577.6,8313.74l650.883,0l0.974,-1727.57l1130.28,1720.75l3.898,6.82l704.473,0l0.974,-2766.25l-627.497,-0l-0.975,1777.26l-1186.79,-1778.24l-677.19,0l0.974,2767.22Z" style="fill:#fff;fill-rule:nonzero;"/>
            <rect x="14497.8" y="7076.29" width="954.888" height="511.547" style="fill:#fff;fill-rule:nonzero;"/>
            <path d="M15906.7,6391.3l617.754,67.231c-1.949,-77.95 19.812,-148.754 65.283,-212.413c9.094,-10.394 18.838,-20.462 29.231,-30.206c228.004,-172.139 447.888,-162.396 659.652,29.231c2.599,3.898 4.872,8.12 6.821,12.667c59.762,154.601 19.163,275.748 -121.797,363.442c-33.129,11.693 -67.557,18.838 -103.284,21.436l-320.569,0l-0,571.958l393.647,0c23.385,3.248 45.471,9.419 66.258,18.514c136.412,75.351 180.259,187.08 131.541,335.185c-36.377,61.71 -85.096,111.078 -146.157,148.105c-237.098,114.976 -433.921,66.907 -590.471,-144.208c-36.377,-57.813 -58.787,-120.498 -67.232,-188.054l-646.01,114.002c14.94,145.506 61.06,280.295 138.361,404.365c46.12,63.01 98.087,121.148 155.9,174.413c556.693,420.281 1093.57,395.597 1610.64,-74.052c207.217,-263.081 242.619,-547.599 106.207,-853.553c-63.01,-102.634 -145.832,-185.78 -248.466,-249.44c94.839,-60.411 170.516,-139.335 227.029,-236.773c177.337,-385.203 93.216,-700.9 -252.363,-947.092c-564.488,-341.681 -1081.56,-280.945 -1551.2,182.208c-100.685,148.754 -154.276,313.099 -160.772,493.034Z" style="fill:#fff;fill-rule:nonzero;"/>
            <path d="M20764.9,6123.35c-114.976,-229.952 -287.441,-401.767 -517.393,-515.444c-641.139,-239.696 -1139.37,-66.907 -1494.69,518.368c-233.201,533.308 -236.773,1067.91 -10.718,1603.82c116.925,240.995 295.885,419.955 536.88,536.88c648.934,235.15 1149.44,55.865 1501.51,-537.855c212.414,-537.205 207.217,-1072.46 -15.59,-1605.77Zm-484.264,1179.97c-5.847,30.53 -13.966,60.411 -24.36,89.642c-140.959,294.261 -368.963,399.494 -684.011,315.698c-189.678,-72.104 -304.005,-207.217 -342.98,-405.34c-22.086,-188.38 -25.983,-376.759 -11.692,-565.138c3.247,-31.18 5.521,-62.36 6.82,-93.54c18.189,-257.884 151.028,-423.853 398.52,-497.906c47.419,-12.991 95.488,-19.162 144.207,-18.513c320.245,35.078 493.034,213.064 518.368,533.958l0.974,6.82c22.086,211.115 20.137,422.554 -5.846,634.319Z" style="fill:#fff;fill-rule:nonzero;"/>
            <path d="M22282,8311.8l0.974,-2763.33l-566.112,0l0,120.823c-24.684,157.199 -115.95,245.867 -273.799,266.004l-250.414,0.974l-0,573.907l474.52,-0.974l0,1802.59l614.831,-0Z" style="fill:#fff;fill-rule:nonzero;"/>
        </g>
        <path d="M37798.4,14930.2c87.633,108.73 186.22,206.1 295.762,292.11l7.303,6.086c116.844,94.124 243.019,174.049 378.526,239.774l6.085,2.434c616.678,314.018 1231.33,311.178 1843.95,-8.52c147.678,-89.256 265.739,-207.723 354.184,-355.401c265.333,-563.123 146.461,-1027.66 -356.618,-1393.61c-196.363,-124.147 -408.143,-209.346 -635.34,-255.596c-150.923,-47.063 -304.687,-84.388 -461.291,-111.976c-115.221,-25.154 -182.568,-96.153 -202.042,-212.997c-2.435,-148.49 68.97,-237.34 214.214,-266.551c150.112,-34.079 299.818,-31.645 449.119,7.303c227.197,52.742 425.183,159.444 593.958,320.104l4.868,-4.868l558.661,-516.062c-160.661,-139.564 -333.087,-261.276 -517.279,-365.138c-550.14,-245.048 -1107.18,-261.682 -1671.11,-49.902c-73.028,27.588 -139.564,66.131 -199.609,115.627c-69.782,58.422 -130.638,125.77 -182.569,202.043c-291.299,532.29 -202.854,991.146 265.333,1376.57c210.158,136.318 439.789,219.894 688.894,250.728l4.868,2.434l453.988,127.798c107.919,29.211 177.295,96.964 208.129,203.26c25.965,168.775 -41.383,281.562 -202.043,338.361l-3.652,2.434c-151.735,46.251 -304.687,49.091 -458.856,8.52c-320.51,-49.496 -581.786,-201.231 -783.829,-455.205l-653.597,500.239Z" style="fill-rule:nonzero;"/>
        <path d="M41059.1,15632.5l819.125,-0l166.747,-517.279l1254.86,1.217l161.877,516.062l844.686,-0l-1158.7,-3455.42l-938.404,-1.217l-1150.18,3456.64Zm1258.51,-1288.94l388.263,-1197.65l389.48,1197.65l-777.743,0Z" style="fill-rule:nonzero;"/>
        <path d="M44732.4,15632.5l813.04,-0l1.217,-2157.97l1411.87,2149.45l4.869,8.52l879.982,-0l1.217,-3455.42l-783.829,-0l-1.217,2220.04l-1482.46,-2221.26l-845.902,-0l1.217,3456.64Z" style="fill-rule:nonzero;"/>
        <path d="M52467.2,14304.6l-1.218,8.52c-77.084,361.081 -296.573,579.352 -658.465,654.814c-481.17,29.211 -780.989,-190.278 -899.456,-658.465c-55.988,-269.391 -55.582,-538.781 1.217,-808.172c74.651,-376.498 300.63,-600.043 677.939,-670.636c479.548,-15.417 771.658,210.968 876.331,679.156l741.23,-314.019c-180.135,-494.964 -518.496,-830.485 -1015.08,-1006.56c-954.227,-216.648 -1626.49,123.336 -2016.78,1019.95c-159.038,463.319 -161.878,927.044 -8.52,1391.17c178.512,502.267 518.496,842.657 1019.95,1021.17c958.284,220.705 1635.01,-118.873 2030.17,-1018.74l2.434,-12.171l-749.749,-286.025Z" style="fill-rule:nonzero;"/>
        <path d="M53524.9,15632.5l2256.55,-0l-0,-753.401l-1525.06,-0l-0,-2703.24l-732.71,-0l1.217,3456.64Z" style="fill-rule:nonzero;"/>
        <path d="M56189.2,15633.7l2519.45,-0l-0,-750.967l-1733.19,0l0,-648.728l1399.69,-0l0,-750.967l-1399.69,0l0,-597.609l1565.22,0l0,-707.15l-2351.49,0l-0,3455.42Z" style="fill-rule:nonzero;"/>
        <path d="M59144.4,15632.5l761.921,-0l-4.869,-2260.2l940.838,1376.57l957.879,-1371.7l2.434,2255.34l753.401,-0l-0,-3455.42l-853.205,-0l-860.509,1211.04l-841.034,-1212.26l-856.856,1.217l-0,3455.42Z" style="fill-rule:nonzero;"/>
        <path d="M63042.8,15633.7l2519.45,-0l0,-750.967l-1733.19,0l-0,-648.728l1399.69,-0l-0,-750.967l-1399.69,0l-0,-597.609l1565.22,0l-0,-707.15l-2351.49,0l0,3455.42Z" style="fill-rule:nonzero;"/>
        <path d="M65994.4,15632.5l813.04,-0l1.217,-2157.97l1411.87,2149.45l4.869,8.52l879.982,-0l1.217,-3455.42l-783.829,-0l-1.217,2220.04l-1482.46,-2221.26l-845.902,-0l1.217,3456.64Z" style="fill-rule:nonzero;"/>
        <path d="M70530.6,15632.5l797.218,-0l-0,-2716.63l960.312,0l0,-740.012l-2762.88,-0l0,740.012l1005.35,0l0,2716.63Z" style="fill-rule:nonzero;"/>
        <path d="M72702,15633.7l2519.45,-0l-0,-750.967l-1733.19,0l0,-648.728l1399.69,-0l0,-750.967l-1399.69,0l0,-597.609l1565.22,0l0,-707.15l-2351.49,0l0,3455.42Z" style="fill-rule:nonzero;"/>
    </g>
</svg>
