<?xml version="1.0" encoding="UTF-8" standalone="no"?>
<!DOCTYPE svg PUBLIC "-//W3C//DTD SVG 1.1//EN" "http://www.w3.org/Graphics/SVG/1.1/DTD/svg11.dtd">
<svg width="100%" height="100%" viewBox="0 0 60341 35971" version="1.1" xmlns="http://www.w3.org/2000/svg" xmlns:xlink="http://www.w3.org/1999/xlink" xml:space="preserve" style="fill-rule:evenodd;clip-rule:evenodd;stroke-linecap:round;stroke-linejoin:round;stroke-miterlimit:1.5;">
    <g id="g4799">
    </g>
    <path d="M31875.6,10861.5c-0,-1368.92 -1111.39,-2480.32 -2480.32,-2480.32l-25265.9,-0c-1368.92,-0 -2480.32,1111.39 -2480.32,2480.32l-0,20681.9c-0,1368.92 1111.39,2480.32 2480.32,2480.32l25265.9,-0c1368.92,-0 2480.32,-1111.39 2480.32,-2480.32l-0,-20681.9Z" style="fill:#fff;"/>
    <path d="M32702.4,10861.5c-0,-1825.23 -1481.86,-3307.09 -3307.09,-3307.09l-25265.9,0c-1825.23,0 -3307.09,1481.86 -3307.09,3307.09l0,20681.9c0,1825.23 1481.86,3307.09 3307.09,3307.09l25265.9,0c1825.23,0 3307.09,-1481.86 3307.09,-3307.09c-0,-0 -0,-20681.9 -0,-20681.9Zm-826.772,-0c-0,-1368.92 -1111.39,-2480.32 -2480.32,-2480.32l-25265.9,-0c-1368.92,-0 -2480.32,1111.39 -2480.32,2480.32l-0,20681.9c-0,1368.92 1111.39,2480.32 2480.32,2480.32l25265.9,-0c1368.92,-0 2480.32,-1111.39 2480.32,-2480.32l-0,-20681.9Z"/>
    <path d="M32584.3,10861.5c0,-1760.04 -1428.93,-3188.98 -3188.98,-3188.98l-25265.9,0c-1760.04,0 -3188.98,1428.93 -3188.98,3188.98l-0,20681.9c-0,1760.04 1428.93,3188.98 3188.98,3188.98l25265.9,-0c1760.04,-0 3188.98,-1428.93 3188.98,-3188.98c0,-0 0,-20681.9 0,-20681.9Zm-708.661,-0c-0,-1368.92 -1111.39,-2480.32 -2480.32,-2480.32l-25265.9,-0c-1368.92,-0 -2480.32,1111.39 -2480.32,2480.32l-0,20681.9c-0,1368.92 1111.39,2480.32 2480.32,2480.32l25265.9,-0c1368.92,-0 2480.32,-1111.39 2480.32,-2480.32l-0,-20681.9Z" style="fill:#fff;"/>
    <path d="M31875.6,10861.5c-0,-1368.92 -1111.39,-2480.32 -2480.32,-2480.32l-25265.9,-0c-1368.92,-0 -2480.32,1111.39 -2480.32,2480.32l-0,20681.9c-0,1368.92 1111.39,2480.32 2480.32,2480.32l25265.9,-0c1368.92,-0 2480.32,-1111.39 2480.32,-2480.32l-0,-20681.9Z" style="fill:none;stroke:#000;stroke-width:708.66px;"/>
    <path d="M58391.7,10861.5c-0,-1368.92 -1111.39,-2480.32 -2480.32,-2480.32l-19395.1,-0c-1368.92,-0 -2480.32,1111.39 -2480.32,2480.32l-0,20681.9c-0,1368.92 1111.39,2480.32 2480.32,2480.32l19395.1,-0c1368.92,-0 2480.32,-1111.39 2480.32,-2480.32l-0,-20681.9Z" style="fill:#003fff;"/>
    <path d="M59218.5,10861.5c0,-1825.23 -1481.86,-3307.09 -3307.09,-3307.09l-19395.1,0c-1825.23,0 -3307.09,1481.86 -3307.09,3307.09c-0,-0 -0,20681.9 -0,20681.9c-0,1825.23 1481.86,3307.09 3307.09,3307.09l19395.1,0c1825.23,0 3307.09,-1481.86 3307.09,-3307.09c0,-0 0,-20681.9 0,-20681.9Zm-826.771,-0c-0,-1368.92 -1111.39,-2480.32 -2480.32,-2480.32l-19395.1,-0c-1368.92,-0 -2480.32,1111.39 -2480.32,2480.32l-0,20681.9c-0,1368.92 1111.39,2480.32 2480.32,2480.32l19395.1,-0c1368.92,-0 2480.32,-1111.39 2480.32,-2480.32l-0,-20681.9Z"/>
    <path d="M59100.4,10861.5c0,-1760.04 -1428.93,-3188.98 -3188.98,-3188.98l-19395.1,0c-1760.04,0 -3188.98,1428.93 -3188.98,3188.98c0,-0 0,20681.9 0,20681.9c0,1760.04 1428.93,3188.98 3188.98,3188.98l19395.1,-0c1760.04,-0 3188.98,-1428.93 3188.98,-3188.98c0,-0 0,-20681.9 0,-20681.9Zm-708.661,-0c-0,-1368.92 -1111.39,-2480.32 -2480.32,-2480.32l-19395.1,-0c-1368.92,-0 -2480.32,1111.39 -2480.32,2480.32l-0,20681.9c-0,1368.92 1111.39,2480.32 2480.32,2480.32l19395.1,-0c1368.92,-0 2480.32,-1111.39 2480.32,-2480.32l-0,-20681.9Z" style="fill:#003fff;"/>
    <path d="M58391.7,10861.5c-0,-1368.92 -1111.39,-2480.32 -2480.32,-2480.32l-19395.1,-0c-1368.92,-0 -2480.32,1111.39 -2480.32,2480.32l-0,20681.9c-0,1368.92 1111.39,2480.32 2480.32,2480.32l19395.1,-0c1368.92,-0 2480.32,-1111.39 2480.32,-2480.32l-0,-20681.9Z" style="fill:none;stroke:#fff;stroke-width:708.66px;"/>
    <g>
        <path d="M52282.1,3287.98c-0,-1095.14 -889.114,-1984.25 -1984.25,-1984.25l-8168.03,-0c-1095.14,-0 -1984.25,889.113 -1984.25,1984.25l-0,1648.98c-0,1095.14 889.113,1984.25 1984.25,1984.25l8168.03,-0c1095.14,-0 1984.25,-889.114 1984.25,-1984.25l-0,-1648.98Z" style="fill:#039900;"/>
        <path d="M52931.7,3287.98c0,-1453.67 -1180.19,-2633.86 -2633.86,-2633.86l-8168.03,0c-1453.67,0 -2633.86,1180.19 -2633.86,2633.86c0,0 0,1648.84 0,1648.98c0.001,1453.67 1180.19,2633.86 2633.86,2633.86l8168.03,0c1453.67,0 2633.86,-1180.19 2633.86,-2633.86l0,-1648.98Zm-649.606,0c-0,-1095.14 -889.114,-1984.25 -1984.25,-1984.25l-8168.03,-0c-1095.14,-0 -1984.25,889.113 -1984.25,1984.25l-0,1648.98c-0,1095.14 889.113,1984.25 1984.25,1984.25l8168.03,-0c1095.14,-0 1984.25,-889.114 1984.25,-1984.25l-0,-1648.98Z"/>
        <path d="M52849,3287.98c-0,-1408.04 -1143.15,-2551.18 -2551.18,-2551.18l-8168.03,0c-1408.04,0 -2551.18,1143.15 -2551.18,2551.18c0,0 0,1648.98 0,1648.98c0.001,1408.04 1143.15,2551.18 2551.18,2551.18l8168.03,-0c1408.04,-0 2551.18,-1143.15 2551.18,-2551.18l-0,-1648.98Zm-566.929,0c-0,-1095.14 -889.114,-1984.25 -1984.25,-1984.25l-8168.03,-0c-1095.14,-0 -1984.25,889.113 -1984.25,1984.25l-0,1648.98c-0,1095.14 889.113,1984.25 1984.25,1984.25l8168.03,-0c1095.14,-0 1984.25,-889.114 1984.25,-1984.25l-0,-1648.98Z" style="fill:#039900;"/>
        <path d="M52282.1,3287.98c-0,-1095.14 -889.114,-1984.25 -1984.25,-1984.25l-8168.03,-0c-1095.14,-0 -1984.25,889.113 -1984.25,1984.25l-0,1648.98c-0,1095.14 889.113,1984.25 1984.25,1984.25l8168.03,-0c1095.14,-0 1984.25,-889.114 1984.25,-1984.25l-0,-1648.98Z" style="fill:none;stroke:#fff;stroke-width:566.93px;"/>
        <path d="M41917.7,5384.37l2017.03,-0l-0,-601.211l-1387.56,0l-0,-519.36l1120.57,-0l-0,-601.211l-1120.57,0l-0,-478.435l1253.09,0l0,-566.132l-1882.56,0l0,2766.35Z" style="fill:#fff;fill-rule:nonzero;"/>
        <rect x="44324.5" y="4145.89" width="954.921" height="511.565" style="fill:#fff;fill-rule:nonzero;"/>
        <path d="M47885,4827.98c55.216,-157.205 94.193,-318.307 116.929,-483.307c57.815,-389.114 19.488,-768.809 -114.98,-1139.09c-87.697,-198.779 -218.268,-363.454 -391.713,-494.025c-378.72,-227.362 -753.543,-221.841 -1124.47,16.565c-109.134,77.952 -200.079,173.769 -272.835,287.45c-285.827,560.611 -179.941,1033.52 317.657,1418.74l2.924,1.948c299.468,153.957 597.313,151.034 893.533,-8.769c-1.949,154.606 -69.833,270.561 -203.651,347.864c-216.319,89.646 -388.465,36.703 -516.438,-158.829l-577.824,225.089l1.949,4.872c111.082,235.807 285.826,406.978 524.232,513.514c595.039,193.582 1043.27,16.24 1344.68,-532.028Zm-1213.14,-994.872c-116.279,-182.539 -111.732,-362.48 13.642,-539.823c16.89,-18.189 35.403,-35.079 55.541,-50.669c192.933,-115.63 364.429,-89.646 514.488,77.953c112.382,172.795 110.109,343.966 -6.821,513.513c-16.24,19.489 -34.104,37.353 -53.592,53.593c-189.035,126.673 -363.455,108.484 -523.258,-54.567Z" style="fill:#fff;fill-rule:nonzero;"/>
        <path d="M50511,3192.92c-114.98,-229.961 -287.45,-401.782 -517.411,-515.463c-641.162,-239.704 -1139.41,-66.909 -1494.74,518.386c-233.209,533.327 -236.782,1067.95 -10.719,1603.88c116.929,241.004 295.896,419.971 536.9,536.9c648.957,235.157 1149.48,55.866 1501.57,-537.874c212.421,-537.225 207.224,-1072.5 -15.591,-1605.83Zm-484.281,1180.01c-5.847,30.531 -13.967,60.413 -24.36,89.645c-140.965,294.272 -368.977,399.508 -684.036,315.709c-189.685,-72.106 -304.016,-207.224 -342.992,-405.354c-22.087,-188.386 -25.984,-376.772 -11.693,-565.158c3.248,-31.181 5.522,-62.362 6.821,-93.543c18.189,-257.894 151.033,-423.868 398.533,-497.923c47.422,-12.992 95.493,-19.164 144.213,-18.514c320.256,35.079 493.051,213.071 518.386,533.976l0.974,6.821c22.087,211.122 20.138,422.569 -5.846,634.341Z" style="fill:#fff;fill-rule:nonzero;"/>
    </g>
    <path d="M5969.86,22819l797.189,-0l0,-2716.53l960.279,-0l-0,-739.987l-2762.78,0l-0,739.987l1005.31,-0l-0,2716.53Z" style="fill-rule:nonzero;"/>
    <path d="M8119.23,20619.8c-59.232,323.745 -55.175,646.677 12.171,968.799c175.26,664.527 594.748,1085.23 1258.46,1262.12c1009.37,129.011 1671.46,-290.477 1986.28,-1258.46l1.217,-3.651c56.797,-321.31 58.42,-643.026 4.868,-965.147l-1.217,-6.086c-174.449,-683.189 -603.268,-1111.6 -1286.46,-1285.24c-1014.24,-116.028 -1672.68,313.196 -1975.33,1287.67Zm870.214,14.605c84.385,-292.911 272.627,-481.965 564.727,-567.16c472.228,-73.837 788.67,114.405 949.325,564.726c85.196,321.31 76.676,640.186 -25.559,956.628l-2.434,8.519c-90.064,228.812 -250.719,385.004 -481.965,468.577c-462.492,108.726 -790.698,-54.363 -984.62,-489.267c-88.442,-312.385 -94.933,-626.392 -19.474,-942.023Z" style="fill-rule:nonzero;"/>
    <path d="M11909.2,22816.6l802.058,2.434l0,-1340.01l408.94,1.217l775.282,1338.79l815.446,-0l-825.182,-1415.47l13.387,-4.868c274.25,-116.029 469.389,-311.979 585.418,-587.852c185.808,-623.146 -10.143,-1083.61 -587.852,-1381.39c-97.366,-38.135 -197.979,-60.043 -301.836,-65.723l-1685.66,2.435l0,3450.43Zm798.407,-2005.75l2.434,-726.598l719.296,-0c185.808,31.644 294.129,140.776 324.962,327.395c1.622,223.132 -107.51,356.2 -327.396,399.203l-719.296,0Z" style="fill-rule:nonzero;"/>
    <path d="M15186.8,22816.6l802.058,2.434l-0,-1340.01l408.94,1.217l775.282,1338.79l815.445,-0l-825.182,-1415.47l13.388,-4.868c274.249,-116.029 469.388,-311.979 585.417,-587.852c185.808,-623.146 -10.142,-1083.61 -587.851,-1381.39c-97.367,-38.135 -197.979,-60.043 -301.837,-65.723l-1685.66,2.435l-0,3450.43Zm798.406,-2005.75l2.434,-726.598l719.297,-0c185.808,31.644 294.128,140.776 324.961,327.395c1.623,223.132 -107.509,356.2 -327.395,399.203l-719.297,0Z" style="fill-rule:nonzero;"/>
    <rect x="18421.8" y="19365" width="799.624" height="3456.52" style="fill-rule:nonzero;"/>
    <path d="M19613.4,22821.5c328.612,74.648 659.659,88.442 993.14,41.381c11.359,-0 22.313,-0.406 32.861,-1.217c499.815,-88.442 752.969,-386.627 759.46,-894.556l-0,-2600.91l-788.67,-0l-0,2407.39c-0.811,44.627 -10.548,87.225 -29.21,127.794c-62.477,116.84 -160.249,176.072 -293.317,177.694c-191.488,15.417 -381.759,6.491 -570.812,-26.776l-103.452,769.197Z" style="fill-rule:nonzero;"/>
    <path d="M21966,20619.8c-59.232,323.745 -55.175,646.677 12.171,968.799c175.26,664.527 594.748,1085.23 1258.46,1262.12c1009.37,129.011 1671.46,-290.477 1986.28,-1258.46l1.217,-3.651c56.797,-321.31 58.42,-643.026 4.868,-965.147l-1.217,-6.086c-174.449,-683.189 -603.268,-1111.6 -1286.46,-1285.24c-1014.24,-116.028 -1672.68,313.196 -1975.33,1287.67Zm870.214,14.605c84.385,-292.911 272.627,-481.965 564.727,-567.16c472.228,-73.837 788.67,114.405 949.325,564.726c85.196,321.31 76.676,640.186 -25.559,956.628l-2.434,8.519c-90.064,228.812 -250.719,385.004 -481.965,468.577c-462.492,108.726 -790.698,-54.363 -984.62,-489.267c-88.442,-312.385 -94.933,-626.392 -19.474,-942.023Z" style="fill-rule:nonzero;"/>
    <path d="M25508.9,22116.8c87.63,108.726 186.214,206.093 295.752,292.1l7.302,6.085c116.84,94.121 243.011,174.043 378.513,239.766l6.085,2.434c616.656,314.007 1231.28,311.168 1843.88,-8.52c147.672,-89.252 265.73,-207.715 354.171,-355.388c265.324,-563.104 146.456,-1027.62 -356.605,-1393.56c-196.357,-124.143 -408.129,-209.339 -635.318,-255.588c-150.918,-47.061 -304.677,-84.384 -461.275,-111.972c-115.217,-25.153 -182.562,-96.149 -202.035,-212.989c-2.435,-148.484 68.968,-237.331 214.206,-266.541c150.107,-34.079 299.808,-31.645 449.104,7.302c227.189,52.74 425.168,159.438 593.937,320.093l4.868,-4.868l558.641,-516.044c-160.655,-139.559 -333.075,-261.267 -517.26,-365.125c-550.122,-245.039 -1107.14,-261.673 -1671.06,-49.9c-73.025,27.587 -139.558,66.128 -199.601,115.623c-69.78,58.42 -130.634,125.765 -182.563,202.036c-291.288,532.271 -202.847,991.111 265.324,1376.52c210.15,136.313 439.773,219.886 688.87,250.719l4.868,2.434l453.972,127.794c107.915,29.21 177.288,96.961 208.121,203.253c25.965,168.769 -41.381,281.552 -202.036,338.349l-3.651,2.434c-151.73,46.249 -304.676,49.089 -458.84,8.52c-320.499,-49.495 -581.766,-201.225 -783.802,-455.189l-653.574,500.221Z" style="fill-rule:nonzero;"/>
    <g>
        <path d="M50279.1,16802.1l0,-4257.58l-8130.49,-0l-0,4257.58l8130.49,-0Zm-208.333,-4049.25l-7713.82,0l0,3840.91l7713.82,-0l-0,-3840.91Z" style="fill:#fff;"/>
        <path d="M43008,16044.3l655.777,-0l133.494,-414.124l1004.62,0.974l129.597,413.15l676.24,-0l-927.638,-2766.35l-751.27,-0.974l-920.816,2767.32Zm1007.54,-1031.9l310.837,-958.819l311.811,958.819l-622.648,0Z" style="fill:#fff;fill-rule:nonzero;"/>
        <rect x="45997.5" y="14806.8" width="954.921" height="511.565" style="fill:#fff;fill-rule:nonzero;"/>
        <path d="M47342.2,15311.5c114.98,385.217 365.403,635.64 751.269,751.27c637.264,106.535 1067.3,-143.563 1290.12,-750.296c57.165,-223.464 45.147,-443.031 -36.054,-658.7c-0.649,-1.949 -1.624,-4.223 -2.923,-6.821c-284.527,-533.327 -715.216,-709.695 -1292.07,-529.105l33.13,-258.218l1192.68,-0l-0.974,-583.671l-1726.65,-0l-181.24,1437.25l649.931,106.21l6.821,-7.795c32.481,-55.217 75.679,-99.39 129.597,-132.52c209.173,-103.287 383.917,-61.712 524.232,124.725c91.594,164.35 94.193,330.649 7.795,498.897c-66.26,94.193 -156.23,151.034 -269.911,170.522c-246.851,16.24 -401.132,-95.167 -462.845,-334.222l-612.903,172.47Z" style="fill:#fff;fill-rule:nonzero;"/>
    </g>
    <path d="M17469.2,28061.7l2895.49,-647.895l-3602.36,3602.36l-3602.36,-3602.36l2895.49,647.895l-0,-2124.27l1413.75,0l0,2124.27Z"/>
    <path d="M46941.1,28470.8l1590.01,-2504.82l0,5094.51l-5094.51,0l2504.82,-1590.01l-2500.06,-2500.06l999.672,-999.672l2500.06,2500.06Z" style="fill:#fff;"/>
    <g>
        <rect x="10910" y="12752.9" width="11704.7" height="4022.81" style="fill:#f00;"/>
        <path d="M22906.4,17067.3l0,-4606.14l-12288.1,0l-0,4606.14l12288.1,-0Zm-291.667,-4314.48l-11704.7,0l0,4022.81l11704.7,0l0,-4022.81Z" style="fill:#fff;"/>
        <path d="M11911.4,16135.2l650.883,-0l0.974,-1727.57l1130.28,1720.75l3.897,6.821l704.474,-0l0.974,-2766.25l-627.498,0l-0.974,1777.26l-1186.79,-1778.23l-677.19,-0l0.974,2767.22Z" style="fill:#fff;fill-rule:nonzero;"/>
        <rect x="14831.6" y="14897.7" width="954.888" height="511.547" style="fill:#fff;fill-rule:nonzero;"/>
        <path d="M17304.6,16133.3l0.974,-2763.33l-566.112,-0l0,120.822c-24.684,157.199 -115.95,245.867 -273.799,266.004l-250.415,0.975l0,573.907l474.521,-0.975l0,1802.59l614.831,0Z" style="fill:#fff;fill-rule:nonzero;"/>
        <path d="M18823.6,16133.3l0.975,-2763.33l-566.112,-0l-0,120.822c-24.684,157.199 -115.951,245.867 -273.8,266.004l-250.414,0.975l0,573.907l474.521,-0.975l-0,1802.59l614.83,0Z" style="fill:#fff;fill-rule:nonzero;"/>
        <path d="M21615.2,13944.8c-114.977,-229.953 -287.441,-401.768 -517.393,-515.445c-641.139,-239.696 -1139.37,-66.907 -1494.69,518.368c-233.2,533.308 -236.773,1067.91 -10.718,1603.82c116.925,240.996 295.885,419.956 536.881,536.881c648.934,235.149 1149.44,55.864 1501.51,-537.855c212.413,-537.206 207.217,-1072.46 -15.59,-1605.77Zm-484.265,1179.97c-5.846,30.53 -13.966,60.411 -24.359,89.642c-140.96,294.262 -368.963,399.494 -684.011,315.698c-189.679,-72.104 -304.005,-207.217 -342.98,-405.34c-22.086,-188.379 -25.984,-376.758 -11.693,-565.138c3.248,-31.18 5.522,-62.36 6.821,-93.54c18.188,-257.884 151.028,-423.853 398.519,-497.905c47.42,-12.992 95.489,-19.163 144.208,-18.513c320.244,35.077 493.033,213.063 518.367,533.957l0.975,6.821c22.085,211.114 20.137,422.554 -5.847,634.318Z" style="fill:#fff;fill-rule:nonzero;"/>
    </g>
    <g transform="matrix(1,0,0,1,35123.4,18487)">
        <g transform="matrix(4868.5,0,0,4868.5,3434.46,4112.57)">
            <path d="M0.05,0l0.157,0l-0.002,-0.464l0.194,0.283l0.197,-0.282l-0,0.463l0.155,0l-0,-0.71l-0.176,0l-0.176,0.249l-0.173,-0.249l-0.176,0l-0,0.71Z" style="fill:#fff;fill-rule:nonzero;"/>
        </g>
        <g transform="matrix(4868.5,0,0,4868.5,7332.91,4112.57)">
            <path d="M0.58,-0.113c-0.013,0 -0.026,-0.001 -0.039,-0.004c-0.012,-0.005 -0.018,-0.015 -0.018,-0.028l0,-0.219c-0.002,-0.071 -0.036,-0.118 -0.103,-0.141c-0.124,-0.04 -0.237,-0.02 -0.339,0.061l0.074,0.119c0.02,-0.018 0.042,-0.033 0.067,-0.043c0.032,-0.016 0.067,-0.02 0.102,-0.015c0.008,0.002 0.016,0.005 0.023,0.009c0.008,0.005 0.014,0.013 0.017,0.022c0,0.004 -0.001,0.008 -0.005,0.01c-0.006,0.003 -0.012,0.004 -0.019,0.005l-0.134,0.023c-0.061,0.017 -0.103,0.054 -0.127,0.112c-0.019,0.095 0.015,0.163 0.104,0.203c0.078,0.027 0.149,0.015 0.214,-0.035c0.035,0.035 0.078,0.051 0.128,0.047l0.055,-0.126Zm-0.332,-0.018c-0.006,-0.004 -0.011,-0.01 -0.014,-0.017c-0.005,-0.02 0.001,-0.034 0.02,-0.042c0.005,-0.002 0.01,-0.004 0.016,-0.005c0.031,-0.005 0.062,-0.011 0.092,-0.018l-0,0.052c-0.004,0.013 -0.012,0.023 -0.023,0.029c-0.03,0.014 -0.061,0.015 -0.091,0.001Z" style="fill:#fff;fill-rule:nonzero;"/>
        </g>
        <g transform="matrix(4868.5,0,0,4868.5,9803.68,4112.57)">
            <path d="M0.158,-0.41c-0.072,0.128 -0.059,0.246 0.04,0.355c0.086,0.075 0.18,0.086 0.281,0.033l0.008,0.022l0.148,-0l-0,-0.665l-0.161,-0l-0,0.17c-0.058,-0.033 -0.118,-0.039 -0.182,-0.019c-0.056,0.019 -0.101,0.054 -0.134,0.104Zm0.315,0.112c0.002,0.026 0.002,0.053 0,0.079c-0.009,0.05 -0.039,0.079 -0.089,0.088c-0.062,0.001 -0.099,-0.029 -0.111,-0.089c-0.002,-0.026 -0.002,-0.052 0.001,-0.078c0.01,-0.046 0.038,-0.074 0.083,-0.083c0.062,-0.005 0.101,0.023 0.116,0.083Z" style="fill:#fff;fill-rule:nonzero;"/>
        </g>
        <g transform="matrix(4868.5,0,0,4868.5,13225,4112.57)">
            <path d="M0.217,0l-0.001,-0.273c0.003,-0.026 0.014,-0.049 0.033,-0.067c0.039,-0.026 0.081,-0.033 0.127,-0.021l0,-0.174c-0.059,-0.005 -0.113,0.011 -0.161,0.046l-0.005,-0.034l-0.16,0l0,0.523l0.167,0Z" style="fill:#fff;fill-rule:nonzero;"/>
        </g>
        <g transform="matrix(4868.5,0,0,4868.5,15132.3,4112.57)">
            <path d="M0.065,-0l0.165,-0l-0,-0.515l-0.165,0.001l0,0.514Zm0.066,-0.715c-0.054,0.017 -0.078,0.054 -0.071,0.11c0.018,0.054 0.054,0.077 0.11,0.07c0.054,-0.017 0.077,-0.053 0.071,-0.11c-0.018,-0.053 -0.054,-0.077 -0.11,-0.07Z" style="fill:#fff;fill-rule:nonzero;"/>
        </g>
        <g transform="matrix(4868.5,0,0,4868.5,16127.9,4112.57)">
            <path d="M0.158,-0.41c-0.072,0.128 -0.059,0.246 0.04,0.355c0.086,0.075 0.18,0.086 0.281,0.033l0.008,0.022l0.148,-0l-0,-0.665l-0.161,-0l-0,0.17c-0.058,-0.033 -0.118,-0.039 -0.182,-0.019c-0.056,0.019 -0.101,0.054 -0.134,0.104Zm0.315,0.112c0.002,0.026 0.002,0.053 0,0.079c-0.009,0.05 -0.039,0.079 -0.089,0.088c-0.062,0.001 -0.099,-0.029 -0.111,-0.089c-0.002,-0.026 -0.002,-0.052 0.001,-0.078c0.01,-0.046 0.038,-0.074 0.083,-0.083c0.062,-0.005 0.101,0.023 0.116,0.083Z" style="fill:#fff;fill-rule:nonzero;"/>
        </g>
    </g>
</svg>
