<?xml version="1.0" encoding="UTF-8" standalone="no"?>
<!DOCTYPE svg PUBLIC "-//W3C//DTD SVG 1.1//EN" "http://www.w3.org/Graphics/SVG/1.1/DTD/svg11.dtd">
<svg width="100%" height="100%" viewBox="0 0 114960 55131" version="1.1" xmlns="http://www.w3.org/2000/svg" xmlns:xlink="http://www.w3.org/1999/xlink" xml:space="preserve" style="fill-rule:evenodd;clip-rule:evenodd;stroke-linecap:round;stroke-linejoin:round;stroke-miterlimit:1.5;">
    <g id="g4799">
        <path d="M59266.8,15225.2c0,-1825.23 -1481.86,-3307.09 -3307.09,-3307.09l-50535,-0c-1825.23,-0 -3307.09,1481.86 -3307.09,3307.09l0,34070.7c0,1825.23 1481.86,3307.09 3307.09,3307.09l50535,-0c1825.23,-0 3307.09,-1481.86 3307.09,-3307.09l0,-34070.7Z" style="fill:#003fff;"/>
        <path d="M60329.8,15225.2c0,-2411.91 -1958.17,-4370.08 -4370.08,-4370.08c-0,-0 -50535,-0 -50535,-0c-2411.91,-0 -4370.08,1958.17 -4370.08,4370.08c0,0 0,34070.7 0,34070.7c0,2411.91 1958.17,4370.08 4370.08,4370.08c0,-0 50535,-0 50535,-0c2411.91,-0 4370.08,-1958.17 4370.08,-4370.08l0,-34070.7Zm-1062.99,0c0,-1825.23 -1481.86,-3307.09 -3307.09,-3307.09l-50535,-0c-1825.23,-0 -3307.09,1481.86 -3307.09,3307.09l0,34070.7c0,1825.23 1481.86,3307.09 3307.09,3307.09l50535,-0c1825.23,-0 3307.09,-1481.86 3307.09,-3307.09l0,-34070.7Z"/>
        <path d="M60211.7,15225.2c0,-2346.72 -1905.24,-4251.97 -4251.97,-4251.97c-0,-0 -50535,-0 -50535,-0c-2346.72,-0 -4251.97,1905.24 -4251.97,4251.97c-0,0 -0,34070.7 -0,34070.7c-0,2346.72 1905.24,4251.97 4251.97,4251.97c0,0 50535,0 50535,0c2346.72,0 4251.97,-1905.24 4251.97,-4251.97l0,-34070.7Zm-944.882,0c0,-1825.23 -1481.86,-3307.09 -3307.09,-3307.09l-50535,-0c-1825.23,-0 -3307.09,1481.86 -3307.09,3307.09l0,34070.7c0,1825.23 1481.86,3307.09 3307.09,3307.09l50535,-0c1825.23,-0 3307.09,-1481.86 3307.09,-3307.09l0,-34070.7Z" style="fill:#003fff;"/>
        <path d="M59266.8,15225.2c0,-1825.23 -1481.86,-3307.09 -3307.09,-3307.09l-50535,-0c-1825.23,-0 -3307.09,1481.86 -3307.09,3307.09l0,34070.7c0,1825.23 1481.86,3307.09 3307.09,3307.09l50535,-0c1825.23,-0 3307.09,-1481.86 3307.09,-3307.09l0,-34070.7Z" style="fill:none;stroke:#fff;stroke-width:944.88px;"/>
        <g>
            <path d="M37247.2,4346.42c-0,-1460.18 -1185.49,-2645.67 -2645.67,-2645.67l-7818.62,-0c-1460.18,-0 -2645.67,1185.48 -2645.67,2645.67l0,2937.89c0,1460.18 1185.49,2645.67 2645.67,2645.67l7818.62,-0c1460.18,-0 2645.67,-1185.49 2645.67,-2645.67l-0,-2937.89Z" style="fill:#039900;"/>
            <path d="M38121.2,4346.42c0,-1942.57 -1577.12,-3519.68 -3519.68,-3519.68l-7818.62,-0c-1942.57,-0 -3519.68,1577.12 -3519.68,3519.68l0,2937.89c0,1942.57 1577.12,3519.68 3519.68,3519.68l7818.62,0c1942.57,0 3519.68,-1577.12 3519.68,-3519.68c0,0 0,-2937.89 0,-2937.89Zm-874.015,-0c-0,-1460.18 -1185.49,-2645.67 -2645.67,-2645.67l-7818.62,-0c-1460.18,-0 -2645.67,1185.48 -2645.67,2645.67l0,2937.89c0,1460.18 1185.49,2645.67 2645.67,2645.67l7818.62,-0c1460.18,-0 2645.67,-1185.49 2645.67,-2645.67l-0,-2937.89Z"/>
            <path d="M38003.1,4346.42c0,-1877.38 -1524.19,-3401.58 -3401.58,-3401.58l-7818.62,0c-1877.38,0 -3401.57,1524.19 -3401.57,3401.58l-0,2937.89c-0,1877.38 1524.19,3401.58 3401.57,3401.58l7818.62,0c1877.38,0 3401.58,-1524.19 3401.58,-3401.58c0,0 0,-2937.89 0,-2937.89Zm-755.905,-0c-0,-1460.18 -1185.49,-2645.67 -2645.67,-2645.67l-7818.62,-0c-1460.18,-0 -2645.67,1185.48 -2645.67,2645.67l0,2937.89c0,1460.18 1185.49,2645.67 2645.67,2645.67l7818.62,-0c1460.18,-0 2645.67,-1185.49 2645.67,-2645.67l-0,-2937.89Z" style="fill:#039900;"/>
            <path d="M37247.2,4346.42c-0,-1460.18 -1185.49,-2645.67 -2645.67,-2645.67l-7818.62,-0c-1460.18,-0 -2645.67,1185.48 -2645.67,2645.67l0,2937.89c0,1460.18 1185.49,2645.67 2645.67,2645.67l7818.62,-0c1460.18,-0 2645.67,-1185.49 2645.67,-2645.67l-0,-2937.89Z" style="fill:none;stroke:#fff;stroke-width:755.91px;"/>
            <path d="M26806.2,7747.83l2689.37,-0l-0,-801.615l-1850.08,0l-0,-692.48l1494.09,0l0,-801.614l-1494.09,-0l-0,-637.913l1670.79,-0l0,-754.843l-2510.08,0l-0,3688.47Z" style="fill:#fff;fill-rule:nonzero;"/>
            <rect x="30015.3" y="6096.53" width="1273.23" height="682.087" style="fill:#fff;fill-rule:nonzero;"/>
            <path d="M31808.2,6769.52c153.307,513.622 487.205,847.519 1001.69,1001.69c849.685,142.048 1423.07,-191.417 1720.16,-1000.39c76.221,-297.953 60.197,-590.709 -48.07,-878.268c-0.867,-2.598 -2.166,-5.63 -3.898,-9.094c-379.37,-711.103 -953.622,-946.26 -1722.76,-705.473l44.173,-344.291l1590.24,-0l-1.299,-778.229l-2302.2,0l-241.654,1916.34l866.575,141.614l9.094,-10.394c43.307,-73.622 100.906,-132.519 172.796,-176.692c278.897,-137.717 511.889,-82.284 698.976,166.299c122.126,219.134 125.59,440.866 10.394,665.197c-88.347,125.59 -208.307,201.378 -359.882,227.362c-329.134,21.653 -534.843,-126.89 -617.126,-445.63l-817.205,229.961Z" style="fill:#fff;fill-rule:nonzero;"/>
        </g>
        <g>
            <g transform="matrix(1,0,0,1,16426.1,32063)">
                <g transform="matrix(6496.06,0,0,6496.06,261.384,5256.75)">
                    <path d="M0.57,-0.273l0,0.002c-0.016,0.074 -0.061,0.119 -0.135,0.135c-0.099,0.006 -0.161,-0.039 -0.185,-0.136c-0.012,-0.055 -0.011,-0.11 0,-0.165c0.016,-0.078 0.062,-0.124 0.139,-0.138c0.099,-0.003 0.159,0.043 0.18,0.139l0.153,-0.064c-0.037,-0.102 -0.107,-0.171 -0.209,-0.207c-0.196,-0.044 -0.334,0.025 -0.414,0.21c-0.033,0.095 -0.033,0.19 -0.002,0.285c0.037,0.103 0.107,0.173 0.21,0.21c0.197,0.045 0.336,-0.024 0.417,-0.209l0,-0.003l-0.154,-0.058Z" style="fill:#fff;fill-rule:nonzero;"/>
                </g>
                <g transform="matrix(6496.06,0,0,6496.06,5071.72,5256.75)">
                    <path d="M0.138,-0.054c0.12,0.093 0.239,0.093 0.359,0c0.04,-0.04 0.065,-0.088 0.073,-0.144c0.005,-0.032 0.005,-0.065 0.002,-0.098c-0.007,-0.054 -0.028,-0.102 -0.063,-0.144c-0.009,-0.01 -0.019,-0.02 -0.03,-0.029c-0.128,-0.09 -0.248,-0.081 -0.36,0.028l-0.001,0.002c-0.034,0.042 -0.054,0.089 -0.06,0.143c-0.005,0.033 -0.004,0.065 0.003,0.098c0.008,0.057 0.033,0.105 0.076,0.144l0.001,0.001Zm0.277,-0.243c0.007,0.033 0.006,0.065 -0.001,0.098c-0.011,0.037 -0.035,0.061 -0.072,0.072c-0.062,0.011 -0.104,-0.013 -0.126,-0.072c-0.008,-0.032 -0.009,-0.065 -0.003,-0.098c0.01,-0.047 0.038,-0.075 0.085,-0.085c0.062,-0.004 0.101,0.024 0.117,0.085Z" style="fill:#fff;fill-rule:nonzero;"/>
                </g>
                <g transform="matrix(6496.06,0,0,6496.06,9061.93,5256.75)">
                    <path d="M0.217,0l-0.001,-0.273c0.003,-0.026 0.014,-0.049 0.033,-0.067c0.039,-0.026 0.081,-0.033 0.127,-0.021l0,-0.174c-0.059,-0.005 -0.113,0.011 -0.161,0.046l-0.005,-0.034l-0.16,0l0,0.523l0.167,0Z" style="fill:#fff;fill-rule:nonzero;"/>
                </g>
                <g transform="matrix(6496.06,0,0,6496.06,11246.2,5256.75)">
                    <path d="M0.158,-0.41c-0.072,0.128 -0.059,0.246 0.04,0.355c0.086,0.075 0.18,0.086 0.281,0.033l0.008,0.022l0.148,-0l-0,-0.665l-0.161,-0l-0,0.17c-0.058,-0.033 -0.118,-0.039 -0.182,-0.019c-0.056,0.019 -0.101,0.054 -0.134,0.104Zm0.315,0.112c0.002,0.026 0.002,0.053 0,0.079c-0.009,0.05 -0.039,0.079 -0.089,0.088c-0.062,0.001 -0.099,-0.029 -0.111,-0.089c-0.002,-0.026 -0.002,-0.052 0.001,-0.078c0.01,-0.046 0.038,-0.074 0.083,-0.083c0.062,-0.005 0.101,0.023 0.116,0.083Z" style="fill:#fff;fill-rule:nonzero;"/>
                </g>
                <g transform="matrix(6496.06,0,0,6496.06,15681.4,5256.75)">
                    <path d="M0.138,-0.054c0.12,0.093 0.239,0.093 0.359,0c0.04,-0.04 0.065,-0.088 0.073,-0.144c0.005,-0.032 0.005,-0.065 0.002,-0.098c-0.007,-0.054 -0.028,-0.102 -0.063,-0.144c-0.009,-0.01 -0.019,-0.02 -0.03,-0.029c-0.128,-0.09 -0.248,-0.081 -0.36,0.028l-0.001,0.002c-0.034,0.042 -0.054,0.089 -0.06,0.143c-0.005,0.033 -0.004,0.065 0.003,0.098c0.008,0.057 0.033,0.105 0.076,0.144l0.001,0.001Zm0.277,-0.243c0.007,0.033 0.006,0.065 -0.001,0.098c-0.011,0.037 -0.035,0.061 -0.072,0.072c-0.062,0.011 -0.104,-0.013 -0.126,-0.072c-0.008,-0.032 -0.009,-0.065 -0.003,-0.098c0.01,-0.047 0.038,-0.075 0.085,-0.085c0.062,-0.004 0.101,0.024 0.117,0.085Z" style="fill:#fff;fill-rule:nonzero;"/>
                </g>
                <g transform="matrix(6496.06,0,0,6496.06,19699.2,5256.75)">
                    <path d="M0.496,-0.067c0.044,-0.048 0.069,-0.104 0.075,-0.169c0.006,-0.144 -0.059,-0.24 -0.196,-0.286c-0.058,-0.014 -0.113,-0.005 -0.164,0.025l-0,-0.171l-0.161,0l0,0.668l0.146,0l0.011,-0.022c0.107,0.054 0.203,0.039 0.289,-0.045Zm-0.285,-0.234c0.01,-0.046 0.038,-0.074 0.084,-0.083c0.061,-0.005 0.1,0.023 0.116,0.083c0.003,0.026 0.003,0.051 0.001,0.077c-0.008,0.05 -0.038,0.08 -0.088,0.09c-0.062,0.002 -0.099,-0.028 -0.113,-0.088c-0.001,-0.027 -0.001,-0.053 0,-0.079Z" style="fill:#fff;fill-rule:nonzero;"/>
                </g>
                <g transform="matrix(6496.06,0,0,6496.06,23642.3,5256.75)">
                    <path d="M0.58,-0.113c-0.013,0 -0.026,-0.001 -0.039,-0.004c-0.012,-0.005 -0.018,-0.015 -0.018,-0.028l0,-0.219c-0.002,-0.071 -0.036,-0.118 -0.103,-0.141c-0.124,-0.04 -0.237,-0.02 -0.339,0.061l0.074,0.119c0.02,-0.018 0.042,-0.033 0.067,-0.043c0.032,-0.016 0.067,-0.02 0.102,-0.015c0.008,0.002 0.016,0.005 0.023,0.009c0.008,0.005 0.014,0.013 0.017,0.022c0,0.004 -0.001,0.008 -0.005,0.01c-0.006,0.003 -0.012,0.004 -0.019,0.005l-0.134,0.023c-0.061,0.017 -0.103,0.054 -0.127,0.112c-0.019,0.095 0.015,0.163 0.104,0.203c0.078,0.027 0.149,0.015 0.214,-0.035c0.035,0.035 0.078,0.051 0.128,0.047l0.055,-0.126Zm-0.332,-0.018c-0.006,-0.004 -0.011,-0.01 -0.014,-0.017c-0.005,-0.02 0.001,-0.034 0.02,-0.042c0.005,-0.002 0.01,-0.004 0.016,-0.005c0.031,-0.005 0.062,-0.011 0.092,-0.018l-0,0.052c-0.004,0.013 -0.012,0.023 -0.023,0.029c-0.03,0.014 -0.061,0.015 -0.091,0.001Z" style="fill:#fff;fill-rule:nonzero;"/>
                </g>
            </g>
            <path d="M23256.5,33388.8l683.655,-0l599.735,-1271.69l-1016.91,0l-266.482,1271.69Z" style="fill:#fff;"/>
        </g>
        <g>
            <path d="M36158.3,28805.3l-0,-5790.04l-10932.2,0l0,5790.04l10932.2,0Zm-291.667,-5498.37l-10348.8,-0l-0,5206.71l10348.8,-0l0,-5206.71Z" style="fill:#fff;"/>
            <path d="M26171.6,27738.3l874.37,0l177.992,-552.165l1339.49,1.299l172.795,550.866l901.653,0l-1236.85,-3688.46l-1001.69,-1.299l-1227.76,3689.76Zm1343.39,-1375.87l414.449,-1278.42l415.748,1278.42l-830.197,0Z" style="fill:#fff;fill-rule:nonzero;"/>
            <rect x="30157.6" y="26088.3" width="1273.23" height="682.087" style="fill:#fff;fill-rule:nonzero;"/>
            <path d="M34747.7,27204.3l465.118,0l-0,-805.512l-465.118,0l-0,-2351.58l-1052.36,0l-1744.84,2426.93l-0,730.157l1934.53,0l0,531.378l862.678,0l-0,-531.378Zm-862.678,-805.512l-953.622,0l954.922,-1261.54l-1.3,1261.54Z" style="fill:#fff;fill-rule:nonzero;"/>
        </g>
        <path d="M9619.46,46710.8l2895.49,-647.894l-3602.36,3602.36l-3602.36,-3602.36l2895.49,647.894l0,-2124.27l1413.75,-0l-0,2124.27Z" style="fill:#fff;"/>
        <path d="M53168.7,46710.8l2895.49,-647.894l-3602.36,3602.36l-3602.36,-3602.36l2895.49,647.894l0,-2124.27l1413.75,-0l0,2124.27Z" style="fill:#fff;"/>
        <path d="M112711,15225.2c-0,-1825.23 -1481.86,-3307.09 -3307.09,-3307.09l-42999.8,-0c-1825.23,-0 -3307.09,1481.86 -3307.09,3307.09l0,34070.7c0,1825.23 1481.86,3307.09 3307.09,3307.09l42999.8,-0c1825.23,-0 3307.09,-1481.86 3307.09,-3307.09l-0,-34070.7Z" style="fill:#fff;"/>
        <path d="M113774,15225.2c-0,-2411.91 -1958.17,-4370.08 -4370.08,-4370.08c-0,-0 -42999.8,-0 -42999.8,-0c-2411.91,-0 -4370.08,1958.17 -4370.08,4370.08c-0,0 -0,34070.7 -0,34070.7c-0,2411.91 1958.17,4370.08 4370.08,4370.08c-0,-0 42999.8,-0 42999.8,-0c2411.91,-0 4370.08,-1958.17 4370.08,-4370.08l-0,-34070.7Zm-1062.99,0c-0,-1825.23 -1481.86,-3307.09 -3307.09,-3307.09l-42999.8,-0c-1825.23,-0 -3307.09,1481.86 -3307.09,3307.09l0,34070.7c0,1825.23 1481.86,3307.09 3307.09,3307.09l42999.8,-0c1825.23,-0 3307.09,-1481.86 3307.09,-3307.09l-0,-34070.7Z"/>
        <path d="M113656,15225.2c0,-2346.72 -1905.24,-4251.97 -4251.97,-4251.97c-0,-0 -42999.8,-0 -42999.8,-0c-2346.73,-0 -4251.97,1905.24 -4251.97,4251.97c0,0 0,34070.7 0,34070.7c0,2346.72 1905.24,4251.97 4251.97,4251.97c-0,0 42999.8,0 42999.8,0c2346.72,0 4251.97,-1905.24 4251.97,-4251.97l0,-34070.7Zm-944.881,0c-0,-1825.23 -1481.86,-3307.09 -3307.09,-3307.09l-42999.8,-0c-1825.23,-0 -3307.09,1481.86 -3307.09,3307.09l0,34070.7c0,1825.23 1481.86,3307.09 3307.09,3307.09l42999.8,-0c1825.23,-0 3307.09,-1481.86 3307.09,-3307.09l-0,-34070.7Z" style="fill:#fff;"/>
        <path d="M112711,27394c-0,-1825.23 -1481.86,-3307.09 -3307.09,-3307.09l-42999.8,-0c-1825.23,-0 -3307.09,1481.86 -3307.09,3307.09l0,21901.9c0,1825.23 1481.86,3307.09 3307.09,3307.09l42999.8,-0c1825.23,-0 3307.09,-1481.86 3307.09,-3307.09l-0,-21901.9Z" style="fill:none;stroke:#000;stroke-width:944.88px;"/>
        <path d="M112711,15225.2c-0,-1825.23 -1481.86,-3307.09 -3307.09,-3307.09l-42999.8,-0c-1825.23,-0 -3307.09,1481.86 -3307.09,3307.09l0,3705.72c0,1825.23 1481.86,3307.09 3307.09,3307.09l42999.8,0c1825.23,0 3307.09,-1481.86 3307.09,-3307.09l-0,-3705.72Z" style="fill:none;stroke:#000;stroke-width:944.88px;"/>
        <path d="M69133.3,13807.2l-830.885,0l-2238.63,6832.49l2769,-0l300.518,-6832.49Zm1873.52,1945.83l1972.83,-1265.43l-1584.74,-680.396l2885.3,0l0,2934.5l-660.797,-1638.7l-2062.8,2328.06l1051.3,3208.64l-2769,-0l-300.518,-6832.49l830.885,0l637.541,1945.83Z"/>
        <path d="M74446.8,40860.3l1092.99,0l222.496,-690.226l1674.41,1.624l216,688.602l1127.1,0l-1546.11,-4610.71l-1252.15,-1.624l-1534.74,4612.34Zm1679.28,-1719.88l518.076,-1598.08l519.7,1598.08l-1037.78,0Z" style="fill-rule:nonzero;"/>
        <path d="M79413.2,40868.4l1872.54,-4.873c810.948,-14.075 1417.81,-372.993 1820.57,-1076.75c346.467,-800.122 344.843,-1599.7 -4.872,-2398.74c-394.106,-717.836 -999.34,-1096.78 -1815.7,-1136.84l-1877.42,-0l4.872,4617.21Zm1055.64,-979.31l-0,-2665.09l816.903,0c245.775,19.489 453.655,119.098 623.64,298.828c485.053,701.595 488.843,1405.9 11.368,2112.91c-172.15,184.061 -383.82,268.512 -635.008,253.354l-816.903,-0Z" style="fill-rule:nonzero;"/>
        <path d="M83622.8,40860.3l1092.99,0l222.497,-690.226l1674.41,1.624l216,688.602l1127.1,0l-1546.11,-4610.71l-1252.15,-1.624l-1534.74,4612.34Zm1679.28,-1719.88l518.075,-1598.08l519.7,1598.08l-1037.78,0Z" style="fill-rule:nonzero;"/>
        <path d="M88592.4,40860.3l1016.66,0l-6.496,-3015.88l1255.4,1836.82l1278.14,-1830.32l3.248,3009.39l1005.29,0l0,-4610.71l-1138.47,-0l-1148.21,1615.94l-1122.23,-1617.57l-1143.34,1.624l0,4610.71Z" style="fill-rule:nonzero;"/>
        <path d="M93859.2,39125.8c134.256,1097.87 750.317,1713.93 1848.18,1848.18c1179.07,-62.797 1847.1,-678.859 2004.09,-1848.18l0,-2877.84l-1054.02,-0l-0,2877.84c-77.955,428.753 -331.309,682.107 -760.062,760.062c-532.692,14.075 -855.339,-239.279 -967.941,-760.062l0,-2876.21l-1070.26,-1.624l-0,2877.84Z" style="fill-rule:nonzero;"/>
        <path d="M98304.3,40860.3l3296.85,-3.248l-0,-1045.9l-1953.75,3.248l1862.8,-2665.09l-3.248,-902.978l-3144.18,-0l0,972.813l1750.74,4.872l-1810.83,2626.11l1.624,1010.17Z" style="fill-rule:nonzero;"/>
        <path d="M66856,32581.5l1092.99,0l1.624,-1531.49l980.934,3.248c851.008,-116.932 1333.9,-601.444 1448.66,-1453.54c-34.646,-944.121 -519.158,-1487.64 -1453.54,-1630.56l-2070.68,-0l-0,4612.34Zm1094.62,-3670.38l761.685,1.624c349.715,35.729 542.437,227.91 578.166,576.542c-29.233,357.294 -221.414,554.888 -576.542,592.783l-764.933,-3.248l1.624,-1167.7Z" style="fill-rule:nonzero;"/>
        <path d="M71011.9,32583.1l3361.81,0l-0,-1002.05l-2312.66,-0l-0,-865.626l1867.67,0l-0,-1002.05l-1867.67,-0l-0,-797.415l2088.54,0l0,-943.58l-3137.69,-0l-0,4610.71Z" style="fill-rule:nonzero;"/>
        <path d="M75015.2,32589.6l1872.54,-4.872c810.948,-14.075 1417.81,-372.993 1820.57,-1076.75c346.466,-800.122 344.842,-1599.7 -4.872,-2398.74c-394.106,-717.836 -999.34,-1096.78 -1815.7,-1136.84l-1877.42,-0l4.873,4617.21Zm1055.64,-979.309l0,-2665.09l816.904,0c245.774,19.489 453.654,119.098 623.64,298.828c485.053,701.595 488.843,1405.9 11.368,2112.91c-172.15,184.06 -383.82,268.512 -635.008,253.354l-816.904,-0Z" style="fill-rule:nonzero;"/>
        <path d="M79681.2,32578.2l1070.26,3.248l0,-1788.09l545.685,1.624l1034.53,1786.47l1088.12,0l-1101.11,-1888.79l17.864,-6.496c365.956,-154.827 626.347,-416.301 781.174,-784.422c247.941,-831.52 -13.533,-1445.96 -784.422,-1843.31c-129.925,-50.887 -264.181,-80.12 -402.767,-87.699l-2249.33,3.248l0,4604.22Zm1065.38,-2676.45l3.248,-969.565l959.821,-0c247.94,42.225 392.482,187.85 433.625,436.873c2.165,297.744 -143.459,475.308 -436.873,532.692l-959.821,0Z" style="fill-rule:nonzero;"/>
        <path d="M83976.8,29646.8c-79.038,432.001 -73.625,862.919 16.24,1292.75c233.865,886.738 793.625,1448.12 1679.28,1684.15c1346.89,172.15 2230.38,-387.61 2650.47,-1679.28l1.624,-4.872c75.789,-428.753 77.955,-858.046 6.496,-1287.88l-1.624,-8.12c-232.782,-911.64 -804.994,-1483.31 -1716.63,-1715.01c-1353.38,-154.827 -2232,417.926 -2635.85,1718.26Zm1161.2,19.489c112.602,-390.858 363.79,-643.129 753.565,-756.813c630.136,-98.527 1052.39,152.662 1266.77,753.565c113.684,428.752 102.316,854.257 -34.105,1276.51l-3.248,11.368c-120.181,305.324 -334.557,513.746 -643.129,625.264c-617.144,145.083 -1055.1,-72.541 -1313.87,-652.873c-118.015,-416.842 -126.677,-835.85 -25.985,-1257.02Z" style="fill-rule:nonzero;"/>
        <path d="M91238,32581.5l1092.99,0l222.497,-690.226l1674.41,1.624l216,688.602l1127.1,0l-1546.11,-4610.71l-1252.15,-1.624l-1534.74,4612.34Zm1679.28,-1719.88l518.076,-1598.08l519.7,1598.08l-1037.78,-0Z" style="fill-rule:nonzero;"/>
        <path d="M96197.9,32581.5l2554.65,0c411.429,-66.045 728.121,-276.09 950.077,-630.136c347.549,-727.58 195.97,-1329.57 -454.738,-1805.96c278.256,-231.699 430.377,-527.82 456.362,-888.362c-30.316,-745.986 -414.678,-1173.66 -1153.09,-1283.01l-2354.89,-4.872l1.624,4612.34Zm1067.01,-2827.49l1.624,-820.151l961.445,-0c38.977,-2.166 76.331,4.331 112.06,19.489c105.023,46.556 180.271,122.346 225.745,227.368c77.955,247.94 2.165,433.625 -227.369,557.054c-35.729,9.744 -72.541,15.699 -110.436,17.864l-963.069,-1.624Zm3.248,1853.06l0,-966.318l1021.53,0c61.715,-6.496 121.805,2.166 180.271,25.985c172.151,72.542 275.55,200.302 310.196,383.279c17.324,299.91 -119.098,486.136 -409.264,558.678l-1102.74,-1.624Z" style="fill-rule:nonzero;"/>
        <path d="M100274,32581.5l1092.99,0l222.496,-690.226l1674.41,1.624l216,688.602l1127.1,0l-1546.11,-4610.71l-1252.15,-1.624l-1534.74,4612.34Zm1679.28,-1719.88l518.076,-1598.08l519.7,1598.08l-1037.78,-0Z" style="fill-rule:nonzero;"/>
        <path d="M105241,32589.6l1872.54,-4.872c810.948,-14.075 1417.81,-372.993 1820.57,-1076.75c346.467,-800.122 344.843,-1599.7 -4.872,-2398.74c-394.106,-717.836 -999.34,-1096.78 -1815.7,-1136.84l-1877.42,-0l4.872,4617.21Zm1055.64,-979.309l0,-2665.09l816.904,0c245.775,19.489 453.655,119.098 623.64,298.828c485.053,701.595 488.843,1405.9 11.368,2112.91c-172.15,184.06 -383.82,268.512 -635.008,253.354l-816.904,-0Z" style="fill-rule:nonzero;"/>
        <path d="M88971.2,47120l1590.01,-2504.82l-0,5094.51l-5094.51,0l2504.82,-1590.01l-2500.06,-2500.06l999.672,-999.672l2500.06,2500.06Z"/>
    </g>
    <g>
        <path d="M100023,16331.1l772.219,84.042c-2.436,-97.441 24.766,-185.949 81.607,-265.526c11.368,-12.992 23.548,-25.578 36.54,-37.759c285.015,-215.182 559.88,-203.002 824.594,36.541c3.248,4.872 6.09,10.15 8.526,15.834c74.705,193.258 23.955,344.697 -152.251,454.318c-41.412,14.616 -84.449,23.549 -129.109,26.797l-400.726,-0l-0,714.972l492.077,0c29.232,4.061 56.84,11.775 82.824,23.143c170.522,94.193 225.333,233.858 164.432,418.996c-45.472,77.141 -106.373,138.853 -182.702,185.138c-296.383,143.725 -542.421,83.636 -738.115,-180.266c-45.472,-72.269 -73.487,-150.628 -84.043,-235.076l-807.542,142.507c18.677,181.89 76.329,350.381 172.958,505.475c57.653,78.765 122.613,151.439 194.882,218.024c695.891,525.369 1367.02,494.513 2013.37,-92.569c259.03,-328.863 303.284,-684.523 132.763,-1066.98c-78.765,-128.298 -182.296,-232.235 -310.593,-311.811c118.553,-75.517 213.152,-174.176 283.797,-295.977c221.678,-481.521 116.523,-876.157 -315.466,-1183.91c-705.634,-427.116 -1351.99,-351.193 -1939.07,227.769c-125.862,185.949 -192.852,391.387 -200.972,616.314Z" style="fill-rule:nonzero;"/>
        <path d="M103580,15973c-101.501,280.143 -162.401,568.812 -182.702,866.006c-74.704,510.753 19.489,988.214 282.579,1432.38c488.017,577.338 1065.76,688.177 1733.23,332.518c138.041,-95.817 253.346,-213.965 345.915,-354.442c367.028,-695.079 243.197,-1287.84 -371.493,-1778.3l-3.654,-2.436c-371.088,-197.318 -742.987,-198.942 -1115.7,-4.872c4.06,-193.258 90.539,-336.983 259.436,-431.176c272.023,-108.809 486.393,-39.789 643.111,207.062l725.935,-270.399l-2.436,-6.09c-135.606,-293.135 -350.788,-506.693 -645.547,-640.674c-735.679,-243.603 -1291.9,-26.797 -1668.68,650.418Zm1476.23,1244.81c142.101,230.61 133.169,455.537 -26.797,674.779c-21.112,22.736 -44.66,43.442 -70.644,62.118c-242.791,141.29 -456.349,105.561 -640.675,-107.185c-137.229,-217.618 -131.545,-431.176 17.053,-640.674c20.3,-24.36 43.036,-46.69 68.208,-66.991c238.731,-154.281 456.349,-128.297 652.855,77.953Z" style="fill-rule:nonzero;"/>
        <path d="M109251,15971.3c-0.523,-1.658 -1.132,-3.286 -1.825,-4.88c-203.951,-469.087 -597.029,-705.689 -1181.69,-705.689l-88.125,0c-1.24,0 -2.48,0.046 -3.717,0.138c-546.826,40.758 -903.139,302.8 -1070.47,784.042c-23.873,47.599 -38.207,135.558 -38.207,264.57c-0,246.865 112.365,460.118 340.372,637.805c-265.732,144.485 -399.122,382.079 -399.122,713.445c-0,24.173 0.869,47.482 2.595,69.929c1.686,21.922 4.21,46.375 7.583,73.356c0.013,0.104 0.026,0.208 0.04,0.312c61.418,467.462 332.989,765.539 816.362,892.715c99.19,43.262 254.711,66.292 466.962,66.292c161.942,0 317.129,-23.662 465.576,-70.895c147.909,-47.062 294.188,-119.229 438.735,-216.714c1.441,-0.972 2.831,-2.018 4.163,-3.135c233.518,-195.743 350.796,-454.784 350.796,-777.589c0,-0 0,-73.438 0,-73.438c0,-289.519 -127.344,-518.422 -384.008,-685.47c223.89,-147.849 335.05,-352.151 335.05,-611.925c0,-105.676 -20.164,-223.332 -61.071,-352.869Zm-1647.58,1748.04l0,-19.444c0,-113.499 31.481,-203.149 97.569,-267.8c67.98,-66.502 170.438,-106.254 305.935,-122.834c17.385,-0.102 33.11,-1.067 47.177,-2.825c11.218,-1.402 23.839,-2.062 37.861,-2.062c240.135,-0 403.89,89.772 488.541,274.024c0.001,0.001 0.001,48.059 0.001,48.059c-0,140.017 -35.046,245.916 -110.159,315.924c-76.293,71.108 -191.526,104.076 -344.112,104.076l-53.854,0c-16.844,0 -33.687,-1.408 -50.53,-4.215c-2.717,-0.453 -5.466,-0.681 -8.22,-0.681l-14.688,0c-110.58,0 -199.419,-25.818 -265.622,-80.381c-65.329,-53.843 -107.76,-134.92 -129.898,-241.84l-0.001,-0.001Zm80.663,-1542.44c76.699,-109.852 191.498,-175.668 343.29,-199.315c14.094,-0.156 27.372,-1.148 39.837,-2.928c9.223,-1.318 19.107,-1.946 29.648,-1.946c202.702,0 342.556,94.266 419.837,282.398c-2.908,127.629 -35.065,224.533 -101.082,289.13c-67.877,66.417 -169.774,97.118 -304.068,97.118c-10.54,0 -20.424,-0.628 -29.647,-1.945c-13.085,-1.869 -27.065,-2.87 -41.944,-2.946c-124.099,-8.976 -217.963,-39.935 -280.15,-97.001c-59.778,-54.855 -87.842,-133.608 -87.842,-234.879c-0,-37.225 4.098,-79.781 12.121,-127.685l-0,-0.001Z" style="fill-rule:nonzero;"/>
    </g>
</svg>
