<?xml version="1.0" encoding="UTF-8" standalone="no"?>
<!DOCTYPE svg PUBLIC "-//W3C//DTD SVG 1.1//EN" "http://www.w3.org/Graphics/SVG/1.1/DTD/svg11.dtd">
<svg width="100%" height="100%" viewBox="0 0 98124 62850" version="1.1" xmlns="http://www.w3.org/2000/svg" xmlns:xlink="http://www.w3.org/1999/xlink" xml:space="preserve" style="fill-rule:evenodd;clip-rule:evenodd;stroke-linecap:round;stroke-linejoin:round;stroke-miterlimit:1.5;">
    <g id="g4799">
        <path d="M58819.9,15330.6c0,-1825.23 -1481.86,-3307.09 -3307.09,-3307.09l-50535,0c-1825.23,0 -3307.09,1481.86 -3307.09,3307.09l0,42278.7c0,1825.23 1481.86,3307.09 3307.09,3307.09l50535,0c1825.23,0 3307.09,-1481.86 3307.09,-3307.09l0,-42278.7Z" style="fill:#003fff;"/>
        <path d="M59882.9,15330.6c0,-2411.91 -1958.17,-4370.08 -4370.08,-4370.08l-50535,0c-2411.91,0 -4370.08,1958.17 -4370.08,4370.08l0,42278.7c0,2411.91 1958.17,4370.08 4370.08,4370.08l50535,-0c2411.91,-0 4370.08,-1958.17 4370.08,-4370.08l0,-42278.7Zm-1062.99,0c0,-1825.23 -1481.86,-3307.09 -3307.09,-3307.09l-50535,0c-1825.23,0 -3307.09,1481.86 -3307.09,3307.09l0,42278.7c0,1825.23 1481.86,3307.09 3307.09,3307.09l50535,0c1825.23,0 3307.09,-1481.86 3307.09,-3307.09l0,-42278.7Z"/>
        <path d="M59764.8,15330.6c0,-2346.72 -1905.24,-4251.97 -4251.97,-4251.97l-50535,0c-2346.72,0 -4251.97,1905.24 -4251.97,4251.97l0,42278.7c0,2346.73 1905.24,4251.97 4251.97,4251.97l50535,0c2346.73,0 4251.97,-1905.24 4251.97,-4251.97l0,-42278.7Zm-944.882,0c0,-1825.23 -1481.86,-3307.09 -3307.09,-3307.09l-50535,0c-1825.23,0 -3307.09,1481.86 -3307.09,3307.09l0,42278.7c0,1825.23 1481.86,3307.09 3307.09,3307.09l50535,0c1825.23,0 3307.09,-1481.86 3307.09,-3307.09l0,-42278.7Z" style="fill:#003fff;"/>
        <path d="M58819.9,15330.6c0,-1825.23 -1481.86,-3307.09 -3307.09,-3307.09l-50535,0c-1825.23,0 -3307.09,1481.86 -3307.09,3307.09l0,42278.7c0,1825.23 1481.86,3307.09 3307.09,3307.09l50535,0c1825.23,0 3307.09,-1481.86 3307.09,-3307.09l0,-42278.7Z" style="fill:none;stroke:#fff;stroke-width:944.88px;"/>
        <g>
            <path d="M89036.6,4250.41c0,-1460.18 -1185.48,-2645.67 -2645.67,-2645.67l-13997.3,0c-1460.18,0 -2645.67,1185.49 -2645.67,2645.67l0,2937.9c0,1460.18 1185.48,2645.67 2645.67,2645.67l13997.3,0c1460.18,0 2645.67,-1185.49 2645.67,-2645.67l0,-2937.9Z" style="fill:#039900;"/>
            <path d="M89910.6,4250.41c0,-1942.57 -1577.12,-3519.68 -3519.68,-3519.68l-13997.3,0c-1942.57,0 -3519.68,1577.12 -3519.68,3519.68l0,2937.9c0,1942.57 1577.12,3519.68 3519.68,3519.68l13997.3,0c1942.57,0 3519.68,-1577.12 3519.68,-3519.68l0,-2937.9Zm-874.016,0c0,-1460.18 -1185.48,-2645.67 -2645.67,-2645.67l-13997.3,0c-1460.18,0 -2645.67,1185.49 -2645.67,2645.67l0,2937.9c0,1460.18 1185.48,2645.67 2645.67,2645.67l13997.3,0c1460.18,0 2645.67,-1185.49 2645.67,-2645.67l0,-2937.9Z"/>
            <path d="M89792.5,4250.41c0,-1877.38 -1524.19,-3401.57 -3401.58,-3401.57l-13997.3,0c-1877.38,0 -3401.58,1524.19 -3401.58,3401.57l0,2937.9c0,1877.38 1524.19,3401.58 3401.58,3401.58l13997.3,0c1877.38,0 3401.58,-1524.19 3401.58,-3401.58l0,-2937.9Zm-755.906,0c0,-1460.18 -1185.48,-2645.67 -2645.67,-2645.67l-13997.3,0c-1460.18,0 -2645.67,1185.49 -2645.67,2645.67l0,2937.9c0,1460.18 1185.48,2645.67 2645.67,2645.67l13997.3,0c1460.18,0 2645.67,-1185.49 2645.67,-2645.67l0,-2937.9Z" style="fill:#039900;"/>
            <path d="M89036.6,4250.41c0,-1460.18 -1185.48,-2645.67 -2645.67,-2645.67l-13997.3,0c-1460.18,0 -2645.67,1185.49 -2645.67,2645.67l0,2937.9c0,1460.18 1185.48,2645.67 2645.67,2645.67l13997.3,0c1460.18,0 2645.67,-1185.49 2645.67,-2645.67l0,-2937.9Z" style="fill:none;stroke:#fff;stroke-width:755.91px;"/>
            <path d="M72677.3,7651.82l2689.37,0l0,-801.614l-1850.08,0l0,-692.48l1494.1,0l0,-801.615l-1494.1,0l0,-637.913l1670.79,0l0,-754.842l-2510.08,0l0,3688.46Z" style="fill:#fff;fill-rule:nonzero;"/>
            <rect x="75886.3" y="6000.52" width="1273.23" height="682.087" style="fill:#fff;"/>
            <path d="M80633.7,6909.97c73.622,-209.607 125.59,-424.41 155.905,-644.41c77.087,-518.819 25.984,-1025.08 -153.307,-1518.78c-116.929,-265.04 -291.024,-484.607 -522.283,-658.701c-504.961,-303.15 -1004.73,-295.787 -1499.29,22.087c-145.512,103.937 -266.771,231.692 -363.779,383.267c-381.103,747.481 -239.922,1378.03 423.543,1891.65l3.898,2.598c399.291,205.276 796.417,201.378 1191.38,-11.693c-2.599,206.142 -93.111,360.748 -271.536,463.819c-288.425,119.528 -517.953,48.937 -688.582,-211.771l-770.434,300.118l2.599,6.496c148.11,314.409 381.102,542.638 698.976,684.685c793.386,258.11 1391.02,21.653 1792.91,-709.37l-0,0.005Zm-1617.52,-1326.5c-155.039,-243.386 -148.976,-483.307 18.189,-719.764c22.52,-24.252 47.205,-46.772 74.055,-67.559c257.244,-154.173 485.906,-119.528 685.984,103.937c149.843,230.393 146.811,458.622 -9.094,684.685c-21.654,25.984 -45.473,49.803 -71.457,71.457c-252.047,168.897 -484.606,144.645 -697.677,-72.756Z" style="fill:#fff;fill-rule:nonzero;"/>
            <path d="M84135,4729.89c-153.307,-306.614 -383.268,-535.709 -689.882,-687.284c-854.882,-319.606 -1519.21,-89.212 -1992.99,691.182c-310.945,711.102 -315.709,1423.94 -14.292,2138.5c155.906,321.338 394.528,559.96 715.866,715.866c865.276,313.543 1532.64,74.488 2002.09,-717.166c283.228,-716.299 276.299,-1430 -20.787,-2141.1l-0.005,0.002Zm-645.709,1573.35c-7.795,40.709 -18.622,80.552 -32.48,119.528c-187.953,392.362 -491.969,532.677 -912.048,420.945c-252.913,-96.142 -405.354,-276.299 -457.322,-540.473c-29.449,-251.181 -34.646,-502.362 -15.591,-753.543c4.331,-41.575 7.362,-83.15 9.094,-124.724c24.252,-343.859 201.378,-565.158 531.378,-663.898c63.229,-17.323 127.323,-25.551 192.284,-24.685c427.008,46.772 657.401,284.094 691.181,711.969l1.299,9.094c29.449,281.496 26.851,563.425 -7.795,845.787Z" style="fill:#fff;fill-rule:nonzero;"/>
            <path d="M86106,7647.92l1.299,-3684.57l-754.842,0l0,161.102c-32.914,209.606 -154.607,327.835 -365.079,354.685l-333.898,1.299l0,765.236l632.717,-1.299l0,2403.54l819.803,0l0,0.007Z" style="fill:#fff;fill-rule:nonzero;"/>
        </g>
        <g>
            <path d="M38133.6,22827.3l0,-5790.04l-15776.5,0l0,5790.04l15776.5,0Zm-291.667,-5498.37l-15193.2,0l0,5206.71l15193.2,0l0,-5206.71Z" style="fill:#fff;"/>
            <path d="M23803.2,21760.2l813.307,0l-5.197,-2412.64l1004.29,1469.41l1022.48,-1464.21l2.599,2407.44l804.213,0l0,-3688.47l-910.749,0l-918.543,1292.72l-897.756,-1294.02l-914.645,1.299l0,3688.47l0.001,0.001Z" style="fill:#fff;fill-rule:nonzero;"/>
            <rect x="27964.6" y="20110.2" width="1273.23" height="682.087" style="fill:#fff;"/>
            <path d="M32554.7,21226.3l465.118,0l0,-805.512l-465.118,0l0,-2351.58l-1052.36,0l-1744.84,2426.93l0,730.158l1934.53,0l0,531.377l862.678,0l0,-531.377l-0.008,0.004Zm-862.678,-805.512l-953.622,0l954.922,-1261.54l-1.3,1261.54Z" style="fill:#fff;fill-rule:nonzero;"/>
            <path d="M36688.8,18839.6c-153.307,-306.614 -383.268,-535.709 -689.882,-687.283c-854.882,-319.607 -1519.21,-89.213 -1992.99,691.181c-310.945,711.102 -315.709,1423.94 -14.291,2138.5c155.905,321.338 394.527,559.96 715.866,715.866c865.276,313.543 1532.64,74.488 2002.09,-717.166c283.228,-716.299 276.299,-1430 -20.788,-2141.1l-0.005,0.002Zm-645.709,1573.35c-7.795,40.709 -18.622,80.552 -32.48,119.528c-187.953,392.362 -491.968,532.677 -912.047,420.945c-252.913,-96.142 -405.354,-276.299 -457.323,-540.473c-29.449,-251.181 -34.646,-502.362 -15.59,-753.543c4.33,-41.575 7.362,-83.149 9.094,-124.724c24.252,-343.859 201.378,-565.158 531.378,-663.898c63.228,-17.323 127.323,-25.551 192.283,-24.685c427.008,46.772 657.402,284.095 691.182,711.969l1.299,9.094c29.449,281.496 26.85,563.425 -7.796,845.787Z" style="fill:#fff;fill-rule:nonzero;"/>
        </g>
        <path d="M9172.6,54735.4l2895.49,-647.894l-3602.36,3602.36l-3602.36,-3602.36l2895.49,647.894l0,-2124.27l1413.75,0l0,2124.27l-0.01,0Z" style="fill:#fff;"/>
        <path d="M52721.8,54735.4l2895.49,-647.894l-3602.36,3602.36l-3602.36,-3602.36l2895.49,647.894l0,-2124.27l1413.75,0l0,2124.27l-0.01,0Z" style="fill:#fff;"/>
        <path d="M96123.4,15330.6c-0,-1825.23 -1481.86,-3307.09 -3307.09,-3307.09l-26848,0c-1825.23,0 -3307.09,1481.86 -3307.09,3307.09l-0,42278.7c-0,1825.23 1481.86,3307.09 3307.09,3307.09l26848,0c1825.23,0 3307.09,-1481.86 3307.09,-3307.09l-0,-42278.7Z" style="fill:#003fff;"/>
        <path d="M97186.3,15330.6c0,-2411.91 -1958.17,-4370.08 -4370.08,-4370.08l-26848,0c-2411.91,0 -4370.08,1958.17 -4370.08,4370.08l0,42278.7c0,2411.91 1958.17,4370.08 4370.08,4370.08l26848,-0c2411.91,-0 4370.08,-1958.17 4370.08,-4370.08l0,-42278.7Zm-1062.99,0c0,-1825.23 -1481.86,-3307.09 -3307.09,-3307.09l-26848,0c-1825.23,0 -3307.09,1481.86 -3307.09,3307.09l0,42278.7c0,1825.23 1481.86,3307.09 3307.09,3307.09l26848,0c1825.23,0 3307.09,-1481.86 3307.09,-3307.09l0,-42278.7Z"/>
        <path d="M97068.2,15330.6c0,-2346.72 -1905.24,-4251.97 -4251.97,-4251.97l-26848,0c-2346.73,0 -4251.97,1905.24 -4251.97,4251.97l0,42278.7c0,2346.73 1905.24,4251.97 4251.97,4251.97l26848,0c2346.73,0 4251.97,-1905.24 4251.97,-4251.97l0,-42278.7Zm-944.882,0c0,-1825.23 -1481.86,-3307.09 -3307.09,-3307.09l-26848,0c-1825.23,0 -3307.09,1481.86 -3307.09,3307.09l0,42278.7c0,1825.23 1481.86,3307.09 3307.09,3307.09l26848,0c1825.23,0 3307.09,-1481.86 3307.09,-3307.09l0,-42278.7Z" style="fill:#003fff;"/>
        <path d="M96123.4,27499.5c-0,-1825.23 -1481.86,-3307.09 -3307.09,-3307.09l-26848,0c-1825.23,0 -3307.09,1481.86 -3307.09,3307.09l-0,30109.9c-0,1825.23 1481.86,3307.09 3307.09,3307.09l26848,0c1825.23,0 3307.09,-1481.86 3307.09,-3307.09l-0,-30109.9Z" style="fill:none;stroke:#fff;stroke-width:944.88px;"/>
        <path d="M96123.4,15330.6c-0,-1825.23 -1481.86,-3307.09 -3307.09,-3307.09l-26848,0c-1825.23,0 -3307.09,1481.86 -3307.09,3307.09l-0,3705.72c-0,1825.23 1481.86,3307.09 3307.09,3307.09l26848,0c1825.23,0 3307.09,-1481.86 3307.09,-3307.09l-0,-3705.72Z" style="fill:none;stroke:#fff;stroke-width:944.88px;"/>
        <path d="M68697.6,13912.6l-830.888,0l-2238.63,6832.49l2769,0l300.518,-6832.49Zm1873.52,1945.83l1972.83,-1265.43l-1584.74,-680.396l2885.3,0l0,2934.5l-660.796,-1638.7l-2062.8,2328.06l1051.3,3208.64l-2769,0l-300.518,-6832.49l830.885,0l637.541,1945.83l-0.002,-0.014Z" style="fill:#fff;"/>
        <g>
            <path d="M84553.5,37595.1l0,-5790.04l-10802.4,0l0,5790.04l10802.4,0Zm-291.666,-5498.37l-10219.1,0l0,5206.71l10219.1,0l0,-5206.71Z" style="fill:#fff;"/>
            <path d="M74867.5,36528l874.37,0l177.992,-552.165l1339.49,1.299l172.796,550.866l901.653,0l-1236.85,-3688.47l-1001.69,-1.299l-1227.76,3689.76l-0.001,0.009Zm1343.39,-1375.87l414.448,-1278.42l415.749,1278.42l-830.197,0Z" style="fill:#fff;fill-rule:nonzero;"/>
            <rect x="78853.5" y="34878" width="1273.23" height="682.087" style="fill:#fff;"/>
            <path d="M80680.1,33964.7l823.701,89.645c-2.599,-103.937 26.417,-198.346 87.047,-283.228c12.126,-13.858 25.118,-27.284 38.976,-40.276c304.016,-229.527 597.205,-216.535 879.567,38.977c3.465,5.197 6.496,10.826 9.095,16.889c79.685,206.142 25.551,367.678 -162.402,484.607c-44.173,15.59 -90.078,25.118 -137.716,28.582l-427.441,0l0,762.638l524.882,0c31.181,4.331 60.63,12.559 88.346,24.685c181.89,100.473 240.354,249.449 175.394,446.929c-48.504,82.284 -113.465,148.111 -194.882,197.481c-316.142,153.307 -578.583,89.212 -787.323,-192.284c-48.504,-77.086 -78.386,-160.669 -89.646,-250.748l-861.378,152.008c19.922,194.016 81.418,373.74 184.489,539.173c61.496,84.016 130.787,161.536 207.874,232.559c742.283,560.394 1458.15,527.481 2147.6,-98.74c276.299,-350.787 323.504,-730.157 141.614,-1138.11c-84.015,-136.85 -194.449,-247.717 -331.299,-332.598c126.457,-80.552 227.362,-185.788 302.717,-315.709c236.456,-513.622 124.291,-934.567 -336.496,-1262.84c-752.678,-455.59 -1442.13,-374.606 -2068.35,242.953c-134.252,198.346 -205.709,417.48 -214.37,657.402l0.001,0.005Z" style="fill:#fff;fill-rule:nonzero;"/>
        </g>
        <path d="M67783.5,45404.1l1240.79,0l1203.43,-4612.34l-1034.53,0l-794.166,2946.05l-799.039,-2946.05l-1076.75,0l1260.27,4612.34Z" style="fill:#fff;fill-rule:nonzero;"/>
        <path d="M73906.2,44666.8c-85.534,2.165 -169.985,-6.497 -253.354,-25.985c-80.12,-33.564 -119.098,-94.196 -116.932,-181.895l0,-1421.06c-11.91,-460.151 -236.031,-765.475 -672.362,-915.971c-805.535,-262.016 -1539.61,-129.384 -2202.23,397.895l485.595,774.678c126.677,-120.181 270.135,-215.459 430.376,-285.835c213.294,-97.444 435.79,-127.76 667.49,-90.948c51.97,11.91 100.692,30.857 146.166,56.842c56.3,32.482 92.571,80.121 108.812,142.918c3.248,27.068 -5.955,48.722 -27.609,64.962c-40.061,15.158 -81.203,25.985 -123.429,32.482l-872.122,151.038c-395.188,105.022 -669.655,347.008 -823.399,725.955c-126.677,617.144 97.443,1056.18 672.362,1317.12c505.624,174.316 970.106,97.985 1393.44,-228.993c228.452,228.452 504.001,331.85 826.648,310.196l360.542,-823.399l0.006,-0Zm-2156.76,-115.309c-42.226,-25.985 -72.542,-62.797 -90.948,-110.436c-33.564,-126.677 9.203,-218.166 128.301,-274.467c33.564,-14.075 68.211,-24.902 103.94,-32.481c201.384,-31.398 401.144,-69.293 599.279,-113.684l-1.624,339.429c-24.902,82.286 -75.248,143.459 -151.038,183.519c-194.887,95.278 -390.857,97.985 -587.91,8.12Z" style="fill:#fff;fill-rule:nonzero;"/>
        <path d="M74279.7,44532c-2.165,467.73 218.166,775.761 660.994,924.092c352.963,63.88 702.136,48.18 1047.52,-47.098l-92.572,-963.069c-131.007,69.293 -270.135,97.444 -417.384,84.451l-3.248,0c-94.195,-19.488 -140.752,-77.413 -139.669,-173.774l1.624,-3519.34l-1062.14,-1.624l0,3691.49l4.872,4.872l0.003,0Z" style="fill:#fff;fill-rule:nonzero;"/>
        <path d="M76490.1,44296.5c195.971,650.708 626.347,1045.36 1291.13,1183.94c684.272,92.03 1286.26,-89.324 1805.96,-544.061l-677.234,-682.106c-220.872,194.887 -478.557,300.451 -773.053,316.692c-332.392,8.662 -556.512,-142.918 -672.362,-454.738l2168.12,0c54.136,-329.143 26.527,-650.707 -82.827,-964.693c-330.226,-828.272 -938.708,-1195.31 -1825.45,-1101.11l-14.617,3.248c-606.316,128.842 -1008.54,486.136 -1206.68,1071.88l-3.248,9.745c-107.188,386.527 -110.437,773.595 -9.745,1161.2l0.006,0.003Zm982.558,-950.076c61.714,-221.955 204.091,-364.332 427.129,-427.129c349.714,-48.722 581.414,93.655 695.098,427.129l-1122.23,0l0.003,0Z" style="fill:#fff;fill-rule:nonzero;"/>
        <path d="M80149.1,42173.9l-1.624,3230.26l1005.3,0l0,-1942.38c41.143,-233.865 177.023,-377.865 407.639,-432c305.324,-25.985 499.129,108.27 581.415,402.767l0,1971.61l1019.91,0l0,-2220.09c-45.474,-356.212 -210.587,-642.588 -495.339,-859.13c-526.196,-324.812 -1049.69,-319.94 -1570.47,14.617l-64.963,-165.654l-881.868,-0Z" style="fill:#fff;fill-rule:nonzero;"/>
        <path d="M84027.3,44504.4c440.663,823.941 1111.4,1114.11 2012.21,870.498c474.226,-192.722 796.873,-530.527 967.941,-1013.42l-909.475,-332.933c-28.15,272.843 -171.609,455.279 -430.377,547.309c-363.79,73.624 -615.519,-61.714 -755.189,-406.016c-86.616,-312.902 -79.579,-623.64 21.113,-932.211c99.609,-219.79 269.595,-342.136 509.956,-367.039c364.873,8.662 576.542,193.264 635.008,553.806l1.624,8.12l912.723,-341.053l-6.496,-16.241c-194.887,-512.121 -553.805,-851.008 -1076.75,-1016.66c-817.445,-189.474 -1434.05,80.662 -1849.81,810.407c-227.369,540.272 -238.196,1085.42 -32.482,1635.43l0.004,0.003Z" style="fill:#fff;fill-rule:nonzero;"/>
        <path d="M87411.9,45402.5l1070.26,0l-0,-3342.32l-1070.26,0l-0,3342.32Zm427.128,-4644.82c-349.715,112.602 -501.835,350.798 -456.362,714.588c111.519,348.632 349.174,500.752 712.964,456.361c348.632,-111.519 500.753,-349.173 456.361,-712.963c-111.518,-349.715 -349.173,-502.377 -712.963,-457.986Z" style="fill:#fff;fill-rule:nonzero;"/>
        <path d="M92407.5,44666.8c-85.534,2.165 -169.985,-6.497 -253.354,-25.985c-80.12,-33.564 -119.098,-94.196 -116.932,-181.895l0,-1421.06c-11.91,-460.151 -236.031,-765.475 -672.362,-915.971c-805.535,-262.016 -1539.61,-129.384 -2202.23,397.895l485.595,774.678c126.677,-120.181 270.135,-215.459 430.376,-285.835c213.294,-97.444 435.79,-127.76 667.49,-90.948c51.97,11.91 100.692,30.857 146.166,56.842c56.3,32.482 92.571,80.121 108.812,142.918c3.248,27.068 -5.955,48.722 -27.609,64.962c-40.061,15.158 -81.203,25.985 -123.429,32.482l-872.122,151.038c-395.188,105.022 -669.655,347.008 -823.399,725.955c-126.677,617.144 97.443,1056.18 672.362,1317.12c505.624,174.316 970.106,97.985 1393.44,-228.993c228.452,228.452 504.001,331.85 826.648,310.196l360.542,-823.399l0.006,-0Zm-2156.76,-115.309c-42.226,-25.985 -72.542,-62.797 -90.948,-110.436c-33.564,-126.677 9.203,-218.166 128.301,-274.467c33.564,-14.075 68.211,-24.902 103.94,-32.481c201.384,-31.398 401.144,-69.293 599.279,-113.684l-1.624,339.429c-24.902,82.286 -75.248,143.459 -151.038,183.519c-194.887,95.278 -390.857,97.985 -587.91,8.12Z" style="fill:#fff;fill-rule:nonzero;"/>
        <path d="M88999.3,18897.2l2468.91,0l0,-728.371l-1093.77,0c154.281,-120.989 303.284,-248.068 447.01,-381.237c193.258,-151.846 357.689,-330.488 493.295,-535.926c286.638,-642.298 164.837,-1194.06 -365.404,-1655.28c-741.363,-410.876 -1389.75,-296.382 -1945.16,343.48c-113.681,272.022 -167.679,555.819 -161.995,851.39l816.068,0c0.812,-99.877 8.526,-198.942 23.142,-297.195c47.908,-211.122 177.424,-341.043 388.546,-389.764c293.134,-24.36 479.084,105.561 557.849,389.764c4.06,168.086 -36.946,324.397 -123.019,468.935c-164.838,181.077 -347.54,343.073 -548.106,485.986l-604.133,462.845c-86.885,65.773 -169.304,136.417 -247.257,211.934c-71.456,90.133 -106.779,192.446 -105.967,306.939l0,466.498l-0.009,0.002Z" style="fill:#fff;fill-rule:nonzero;"/>
        <path d="M93358.6,18894.8l1.218,-3454.28l-707.664,0l0,151.033c-30.857,196.506 -144.944,307.345 -342.262,332.518l-313.029,1.218l0,717.409l593.172,-1.218l0,2253.32l768.565,0Z" style="fill:#fff;fill-rule:nonzero;"/>
        <path d="M80109.5,55144.6l1590.01,-2504.82l0,5094.51l-5094.51,0l2504.82,-1590.01l-2500.06,-2500.06l999.673,-999.672l2500.06,2500.06l0.007,-0.008Z" style="fill:#fff;"/>
        <g>
            <g>
                <g>
                    <g>
                        <path d="M26627.5,29142.1l0,12.992c-103.937,480.708 -396.259,773.031 -876.968,876.968c-643.11,38.976 -1045.87,-253.346 -1201.77,-883.464c-77.953,-357.284 -71.457,-714.567 0,-1071.85c103.937,-506.693 402.756,-805.512 902.952,-896.457c643.11,-19.488 1032.87,279.331 1169.29,902.953l993.897,-415.748c-240.354,-662.598 -695.078,-1110.83 -1357.68,-1344.68c-1273.23,-285.827 -2169.68,162.401 -2689.37,1364.17c-214.37,617.126 -214.37,1234.25 -12.992,1851.38c240.354,669.094 695.078,1123.82 1364.17,1364.17c1279.72,292.323 2182.68,-155.906 2708.86,-1357.68l0,-19.488l-1000.39,-376.771l0,-6.496Z" style="fill:#fff;fill-rule:nonzero;"/>
                    </g>
                    <g>
                        <path d="M28631.6,30564.8c779.527,604.133 1552.56,604.133 2332.09,-0c259.842,-259.843 422.244,-571.654 474.212,-935.433c32.481,-207.874 32.481,-422.244 12.992,-636.614c-45.472,-350.787 -181.889,-662.598 -409.251,-935.432c-58.465,-64.961 -123.426,-129.922 -194.882,-188.386c-831.496,-584.646 -1611.02,-526.181 -2338.58,181.89l-6.496,12.992c-220.866,272.834 -350.787,578.149 -389.764,928.936c-32.48,214.37 -25.984,422.244 19.489,636.614c51.968,370.276 214.37,682.086 493.7,935.433l6.496,6.496l0,-6.496Zm1799.41,-1578.54c45.472,214.37 38.976,422.244 -6.496,636.614c-71.457,240.354 -227.362,396.26 -467.716,467.716c-402.756,71.457 -675.591,-84.448 -818.504,-467.716c-51.969,-207.874 -58.465,-422.244 -19.488,-636.614c64.96,-305.315 246.85,-487.204 552.165,-552.165c402.756,-25.984 656.102,155.906 760.039,552.165Z" style="fill:#fff;fill-rule:nonzero;"/>
                    </g>
                    <g>
                        <path d="M33135,30915.5l-6.496,-1773.42c19.488,-168.898 90.945,-318.307 214.37,-435.236c253.346,-168.898 526.181,-214.37 825,-136.418l-0,-1130.31c-383.268,-32.48 -734.055,71.457 -1045.87,298.819l-32.48,-220.866l-1039.37,-0l0,3397.44l1084.84,0Z" style="fill:#fff;fill-rule:nonzero;"/>
                    </g>
                    <g>
                        <path d="M34936,28252.2c-467.716,831.496 -383.267,1598.03 259.843,2306.1c558.661,487.204 1169.29,558.661 1825.39,214.37l51.968,142.913l961.417,0l0,-4319.88l-1045.87,0l0,1104.33c-376.771,-214.37 -766.535,-253.346 -1182.28,-123.425c-363.78,123.425 -656.103,350.787 -870.473,675.59Zm2046.26,727.559c12.993,168.898 12.993,344.291 0,513.189c-58.464,324.803 -253.346,513.189 -578.149,571.653c-402.756,6.496 -643.11,-188.386 -721.063,-578.149c-12.992,-168.898 -12.992,-337.795 6.496,-506.693c64.961,-298.819 246.851,-480.708 539.173,-539.173c402.756,-32.48 656.102,149.41 753.543,539.173Z" style="fill:#fff;fill-rule:nonzero;"/>
                    </g>
                    <g>
                        <path d="M39241.3,30564.8c779.527,604.133 1552.56,604.133 2332.09,-0c259.842,-259.843 422.244,-571.654 474.212,-935.433c32.48,-207.874 32.48,-422.244 12.992,-636.614c-45.472,-350.787 -181.889,-662.598 -409.251,-935.432c-58.465,-64.961 -123.426,-129.922 -194.882,-188.386c-831.496,-584.646 -1611.02,-526.181 -2338.58,181.89l-6.496,12.992c-220.866,272.834 -350.787,578.149 -389.764,928.936c-32.48,214.37 -25.984,422.244 19.489,636.614c51.968,370.276 214.37,682.086 493.7,935.433l6.496,6.496l0,-6.496Zm1799.41,-1578.54c45.472,214.37 38.976,422.244 -6.496,636.614c-71.457,240.354 -227.362,396.26 -467.716,467.716c-402.756,71.457 -675.591,-84.448 -818.504,-467.716c-51.969,-207.874 -58.465,-422.244 -19.488,-636.614c64.96,-305.315 246.85,-487.204 552.165,-552.165c402.756,-25.984 656.102,155.906 760.039,552.165Z" style="fill:#fff;fill-rule:nonzero;"/>
                    </g>
                    <g>
                        <path d="M45584.6,30480.3c285.826,-311.811 448.228,-675.59 487.204,-1097.83c38.977,-935.433 -383.267,-1559.06 -1273.23,-1857.87c-376.772,-90.945 -734.055,-32.481 -1065.35,162.401l-0,-1110.83l-1045.87,-0l0,4339.37l948.425,-0l71.456,-142.913c695.079,350.787 1318.7,253.346 1877.36,-292.323Zm-1851.38,-1520.08c64.96,-298.819 246.85,-480.709 545.669,-539.173c396.259,-32.48 649.606,149.409 753.543,539.173c19.488,168.897 19.488,331.299 6.496,500.197c-51.969,324.803 -246.851,519.684 -571.654,584.645c-402.755,12.992 -643.109,-181.89 -734.054,-571.653c-6.496,-175.394 -6.496,-344.292 -0,-513.189Z" style="fill:#fff;fill-rule:nonzero;"/>
                    </g>
                    <g>
                        <path d="M50073.4,30181.5c-84.449,0 -168.898,-6.496 -253.347,-25.984c-77.952,-32.48 -116.929,-97.441 -116.929,-181.89l0,-1422.64c-12.992,-461.22 -233.858,-766.535 -669.094,-915.944c-805.511,-259.843 -1539.57,-129.922 -2202.16,396.259l480.708,773.032c129.921,-116.93 272.835,-214.37 435.236,-279.331c207.874,-103.937 435.236,-129.921 662.598,-97.441c51.969,12.992 103.937,32.48 149.41,58.465c51.968,32.48 90.945,84.448 110.433,142.913c-0,25.984 -6.496,51.968 -32.48,64.96c-38.977,19.489 -77.953,25.985 -123.426,32.481l-870.472,149.409c-396.259,110.433 -669.094,350.787 -824.999,727.559c-123.425,617.126 97.441,1058.86 675.59,1318.7c506.693,175.394 967.913,97.441 1390.16,-227.362c227.362,227.362 506.693,331.299 831.496,305.315l357.283,-818.504Zm-2156.69,-116.929c-38.976,-25.984 -71.457,-64.96 -90.945,-110.433c-32.48,-129.921 6.496,-220.866 129.921,-272.834c32.481,-12.993 64.961,-25.985 103.937,-32.481c201.378,-32.48 402.756,-71.456 597.638,-116.929l-0,337.795c-25.985,84.449 -77.953,149.41 -149.41,188.386c-194.881,90.945 -396.259,97.441 -591.141,6.496Z" style="fill:#fff;fill-rule:nonzero;"/>
                    </g>
                </g>
                <path d="M29493.9,26984.7l683.657,0l599.735,-1271.69l-1016.91,0l-266.482,1271.69Z" style="fill:#fff;"/>
            </g>
            <g>
                <path d="M21138.3,31369.4l0,-5793.83l-11392.5,0l0,5793.83l11392.5,0Zm-291.666,-5502.16l-10809.2,0l0,5210.5l10809.2,0l0,-5210.5Z" style="fill:#fff;"/>
                <path d="M10844.6,30300.4l874.37,0l177.992,-552.165l1339.49,1.299l172.795,550.866l901.654,0l-1236.85,-3688.46l-1001.69,-1.3l-1227.76,3689.76l-0.001,0Zm1343.38,-1375.87l414.449,-1278.42l415.748,1278.42l-830.197,0Z" style="fill:#fff;fill-rule:nonzero;"/>
                <rect x="14882.6" y="28650.4" width="1273.23" height="682.087" style="fill:#fff;"/>
                <path d="M19524.6,29766.4l465.118,0l-0,-805.512l-465.118,0l-0,-2351.58l-1052.36,0l-1744.84,2426.93l-0,730.158l1934.53,0l-0,531.378l862.677,0l-0,-531.378l-0.007,0.004Zm-862.677,-805.512l-953.622,-0l954.921,-1261.54l-1.299,1261.54Z" style="fill:#fff;fill-rule:nonzero;"/>
            </g>
        </g>
        <g>
            <g>
                <g>
                    <g>
                        <path d="M29464.6,39430l1065.35,-0l-0,-3624.8l1286.22,-0l-6.496,-987.402l-3683.27,0l-0,987.402l1338.19,-0l-0,3624.8Z" style="fill:#fff;fill-rule:nonzero;"/>
                    </g>
                    <g>
                        <path d="M32223.8,39079.2c779.527,604.133 1552.56,604.133 2332.09,-0c259.842,-259.843 422.244,-571.654 474.212,-935.433c32.48,-207.874 32.48,-422.244 12.992,-636.614c-45.472,-350.787 -181.889,-662.598 -409.251,-935.432c-58.465,-64.961 -123.426,-129.922 -194.882,-188.386c-831.496,-584.646 -1611.02,-526.181 -2338.58,181.89l-6.496,12.992c-220.866,272.834 -350.787,578.149 -389.764,928.936c-32.48,214.37 -25.984,422.244 19.489,636.614c51.968,370.276 214.37,682.086 493.7,935.433l6.496,6.496l0,-6.496Zm1799.41,-1578.54c45.472,214.37 38.976,422.244 -6.496,636.614c-71.457,240.354 -227.362,396.26 -467.716,467.716c-402.756,71.457 -675.591,-84.448 -818.504,-467.716c-51.969,-207.874 -58.465,-422.244 -19.488,-636.614c64.96,-305.315 246.85,-487.204 552.165,-552.165c402.756,-25.984 656.102,155.906 760.039,552.165Z" style="fill:#fff;fill-rule:nonzero;"/>
                    </g>
                    <g>
                        <path d="M35635.8,38559.5c-6.496,467.716 214.37,773.031 656.102,922.44c357.283,64.961 708.071,51.969 1052.36,-45.472l-97.441,-961.417c-129.921,64.961 -266.339,97.441 -415.748,84.449c-97.441,-19.488 -142.913,-77.953 -142.913,-175.394l-0,-3520.86l-1058.86,-0l-0,3689.76l6.496,6.496Z" style="fill:#fff;fill-rule:nonzero;"/>
                    </g>
                    <g>
                        <path d="M37907.8,38325.6c194.882,649.606 630.118,1045.87 1292.72,1182.28c682.087,90.945 1286.22,-90.945 1805.9,-545.669l-675.59,-682.087c-220.866,194.882 -480.709,305.315 -773.031,318.307c-331.299,6.496 -558.662,-142.913 -675.591,-454.724l2169.68,0c51.969,-331.299 25.985,-649.606 -84.448,-967.913c-331.299,-824.999 -935.433,-1195.28 -1825.39,-1097.83l-12.992,6.496c-604.134,123.425 -1006.89,480.709 -1208.27,1065.35l0,12.992c-110.433,383.268 -110.433,773.031 -12.992,1162.8Zm987.401,-954.921c58.465,-220.866 201.378,-363.779 422.244,-422.244c350.788,-51.968 584.646,90.945 695.079,422.244l-1123.82,-0l6.496,-0Z" style="fill:#fff;fill-rule:nonzero;"/>
                    </g>
                    <g>
                        <path d="M41833.1,36766.6c-467.716,831.496 -383.267,1598.03 259.843,2306.1c558.661,487.204 1169.29,558.661 1825.39,214.37l51.968,142.913l961.417,-0l0,-4319.88l-1045.87,0l0,1104.33c-376.771,-214.37 -766.535,-253.346 -1182.28,-123.425c-363.78,123.425 -656.103,350.787 -870.473,675.59Zm2046.26,727.559c12.993,168.898 12.993,344.291 0,513.189c-58.464,324.803 -253.346,513.189 -578.149,571.653c-402.756,6.496 -643.11,-188.386 -721.063,-578.149c-12.992,-168.898 -12.992,-337.795 6.496,-506.693c64.961,-298.819 246.851,-480.708 539.173,-539.173c402.756,-32.48 656.102,149.41 753.543,539.173Z" style="fill:#fff;fill-rule:nonzero;"/>
                    </g>
                    <g>
                        <path d="M46073.4,39079.2c779.527,604.133 1552.56,604.133 2332.09,-0c259.842,-259.843 422.244,-571.654 474.212,-935.433c32.48,-207.874 32.48,-422.244 12.992,-636.614c-45.472,-350.787 -181.889,-662.598 -409.251,-935.432c-58.465,-64.961 -123.426,-129.922 -194.882,-188.386c-831.496,-584.646 -1611.02,-526.181 -2338.58,181.89l-6.496,12.992c-220.866,272.834 -350.787,578.149 -389.764,928.936c-32.48,214.37 -25.984,422.244 19.489,636.614c51.968,370.276 214.37,682.086 493.7,935.433l6.496,6.496l0,-6.496Zm1799.41,-1578.54c45.472,214.37 38.976,422.244 -6.496,636.614c-71.457,240.354 -227.362,396.26 -467.716,467.716c-402.756,71.457 -675.591,-84.448 -818.504,-467.716c-51.969,-207.874 -58.465,-422.244 -19.488,-636.614c64.96,-305.315 246.85,-487.204 552.165,-552.165c402.756,-25.984 656.102,155.906 760.039,552.165Z" style="fill:#fff;fill-rule:nonzero;"/>
                    </g>
                </g>
            </g>
            <g>
                <path d="M26107.9,39883.8l0,-5793.83l-15136.3,0l0,5793.83l15136.3,0Zm-291.667,-5502.16l-14552.9,0l0,5210.5l14552.9,0l0,-5210.5Z" style="fill:#fff;"/>
                <path d="M12046.6,38814.8l874.37,0l177.992,-552.166l1339.49,1.3l172.795,550.866l901.653,0l-1236.85,-3688.47l-1001.69,-1.299l-1227.76,3689.76l0,0.009Zm1343.39,-1375.87l414.449,-1278.43l415.748,1278.43l-830.197,-0Z" style="fill:#fff;fill-rule:nonzero;"/>
                <rect x="16084.5" y="37164.8" width="1273.23" height="682.087" style="fill:#fff;"/>
                <path d="M20726.6,38280.9l465.118,0l-0,-805.511l-465.118,0l-0,-2351.58l-1052.36,0l-1744.84,2426.93l-0,730.157l1934.53,0l-0,531.378l862.678,0l-0,-531.378l-0.008,0.004Zm-862.678,-805.511l-953.622,0l954.922,-1261.54l-1.3,1261.54Z" style="fill:#fff;fill-rule:nonzero;"/>
                <path d="M21940.1,38814.8l2633.5,0l-0,-776.929l-1166.69,0c164.567,-129.055 323.504,-264.607 476.811,-406.654c206.142,-161.968 381.536,-352.52 526.181,-571.653c305.748,-685.119 175.827,-1273.66 -389.764,-1765.63c-790.787,-438.268 -1482.4,-316.142 -2074.84,366.378c-121.26,290.157 -178.858,592.874 -172.795,908.149l870.472,0c0.866,-106.535 9.095,-212.205 24.685,-317.008c51.102,-225.197 189.252,-363.779 414.449,-415.748c312.677,-25.984 511.024,112.599 595.039,415.748c4.331,179.292 -39.409,346.024 -131.22,500.197c-175.827,193.15 -370.709,365.945 -584.646,518.386l-644.409,493.701c-92.677,70.157 -180.591,145.512 -263.74,226.063c-76.221,96.142 -113.898,205.275 -113.032,327.401l-0,497.599l-0.001,0Z" style="fill:#fff;fill-rule:nonzero;"/>
            </g>
        </g>
        <g>
            <g>
                <g>
                    <g>
                        <path d="M24473.4,47801.3l2559.45,0c409.251,-64.961 727.558,-272.835 948.424,-630.118c344.292,-727.559 194.882,-1325.2 -454.724,-1805.9c279.331,-227.363 428.74,-526.181 454.724,-889.961c-32.48,-740.551 -415.747,-1169.29 -1156.3,-1279.72l-2351.57,-6.496l0,4612.2Zm1065.35,-2825.79l6.496,-818.504l961.417,0c38.976,-6.496 71.456,0 110.433,19.489c103.937,45.472 181.889,123.425 227.362,227.362c77.953,246.85 -0,435.236 -227.362,558.661c-38.977,6.496 -71.457,12.992 -110.433,12.992l-967.913,-0Zm6.496,1851.38l-0,-961.417l1019.88,0c64.961,-6.496 123.425,0 181.89,25.984c168.898,71.457 272.835,194.882 311.811,383.268c12.992,298.819 -123.425,480.708 -409.252,558.661l-1104.33,-6.496Z" style="fill:#fff;fill-rule:nonzero;"/>
                    </g>
                    <g>
                        <path d="M32207,47067.3c-84.449,0 -168.898,-6.496 -253.347,-25.984c-77.952,-32.48 -116.929,-97.441 -116.929,-181.89l0,-1422.64c-12.992,-461.22 -233.858,-766.535 -669.094,-915.944c-805.511,-259.843 -1539.57,-129.921 -2202.16,396.259l480.708,773.032c129.922,-116.93 272.835,-214.37 435.236,-279.331c207.874,-103.937 435.236,-129.921 662.598,-97.441c51.969,12.992 103.937,32.48 149.41,58.465c51.968,32.48 90.945,84.448 110.433,142.913c-0,25.984 -6.496,51.968 -32.48,64.96c-38.977,19.489 -77.953,25.985 -123.426,32.481l-870.472,149.409c-396.259,110.433 -669.094,350.787 -824.999,727.559c-123.425,617.126 97.441,1058.86 675.59,1318.7c506.693,175.394 967.913,97.441 1390.16,-227.362c227.362,227.362 506.693,331.299 831.496,305.315l357.283,-818.504Zm-2156.69,-116.929c-38.976,-25.984 -71.457,-64.96 -90.945,-110.433c-32.48,-129.921 6.496,-220.866 129.921,-272.834c32.481,-12.993 64.961,-25.985 103.937,-32.481c201.378,-32.48 402.756,-71.456 597.638,-116.929l-0,337.795c-25.985,84.449 -77.953,149.41 -149.41,188.386c-194.881,90.945 -396.259,97.441 -591.141,6.496Z" style="fill:#fff;fill-rule:nonzero;"/>
                    </g>
                    <g>
                        <path d="M32827.4,45138c-467.716,831.496 -383.267,1598.03 259.843,2306.1c558.661,487.204 1169.29,558.661 1825.39,214.37l51.968,142.913l961.417,-0l0,-4319.88l-1045.87,0l0,1104.33c-376.771,-214.37 -766.535,-253.346 -1182.28,-123.425c-363.78,123.425 -656.103,350.787 -870.473,675.59Zm2046.26,727.559c12.992,168.898 12.992,344.291 0,513.189c-58.464,324.803 -253.346,513.189 -578.149,571.653c-402.756,6.496 -643.11,-188.386 -721.063,-578.149c-12.992,-168.898 -12.992,-337.795 6.496,-506.693c64.961,-298.819 246.851,-480.708 539.173,-539.173c402.756,-32.48 656.102,149.41 753.543,539.173Z" style="fill:#fff;fill-rule:nonzero;"/>
                    </g>
                    <g>
                        <path d="M39873.9,47067.3c-84.449,0 -168.898,-6.496 -253.347,-25.984c-77.952,-32.48 -116.929,-97.441 -116.929,-181.89l0,-1422.64c-12.992,-461.22 -233.858,-766.535 -669.094,-915.944c-805.511,-259.843 -1539.57,-129.921 -2202.16,396.259l480.708,773.032c129.921,-116.93 272.835,-214.37 435.236,-279.331c207.874,-103.937 435.236,-129.921 662.598,-97.441c51.969,12.992 103.937,32.48 149.41,58.465c51.968,32.48 90.945,84.448 110.433,142.913c-0,25.984 -6.496,51.968 -32.48,64.96c-38.977,19.489 -77.953,25.985 -123.426,32.481l-870.472,149.409c-396.259,110.433 -669.094,350.787 -824.999,727.559c-123.425,617.126 97.441,1058.86 675.59,1318.7c506.693,175.394 967.913,97.441 1390.16,-227.362c227.362,227.362 506.693,331.299 831.496,305.315l357.283,-818.504Zm-2156.69,-116.929c-38.976,-25.984 -71.457,-64.96 -90.945,-110.433c-32.48,-129.921 6.496,-220.866 129.921,-272.834c32.481,-12.993 64.961,-25.985 103.937,-32.481c201.378,-32.48 402.756,-71.456 597.638,-116.929l-0,337.795c-25.985,84.449 -77.953,149.41 -149.41,188.386c-194.881,90.945 -396.259,97.441 -591.141,6.496Z" style="fill:#fff;fill-rule:nonzero;"/>
                    </g>
                    <g>
                        <path d="M39893.4,48808.2c435.236,142.914 870.472,162.402 1318.7,51.969c370.276,-201.378 552.165,-506.693 552.165,-928.937l6.496,-3449.41l-1084.84,0l6.496,3241.53c6.496,116.929 -45.472,194.882 -162.401,227.362c-129.921,0 -253.346,-32.48 -370.276,-103.937l-266.338,961.417Zm1325.2,-5664.56c-363.779,32.48 -558.661,233.858 -591.141,591.141c32.48,363.78 227.362,558.662 591.141,597.638c363.78,-38.976 558.661,-233.858 591.142,-597.638c-32.481,-357.283 -227.362,-558.661 -591.142,-591.141Z" style="fill:#fff;fill-rule:nonzero;"/>
                    </g>
                    <g>
                        <path d="M42958,47450.6c779.527,604.133 1552.56,604.133 2332.09,-0c259.842,-259.843 422.244,-571.654 474.212,-935.433c32.48,-207.874 32.48,-422.244 12.992,-636.614c-45.472,-350.787 -181.889,-662.598 -409.251,-935.432c-58.465,-64.961 -123.426,-129.922 -194.882,-188.386c-831.496,-584.646 -1611.02,-526.181 -2338.58,181.89l-6.496,12.992c-220.866,272.834 -350.787,578.149 -389.764,928.936c-32.48,214.37 -25.984,422.244 19.489,636.614c51.968,370.276 214.37,682.086 493.7,935.433l6.496,6.496l0,-6.496Zm1799.41,-1578.54c45.472,214.37 38.976,422.244 -6.496,636.614c-71.457,240.354 -227.362,396.26 -467.716,467.716c-402.756,71.457 -675.591,-84.448 -818.504,-467.716c-51.969,-207.874 -58.465,-422.244 -19.488,-636.614c64.96,-305.315 246.85,-487.204 552.165,-552.165c402.756,-25.984 656.102,155.906 760.039,552.165Z" style="fill:#fff;fill-rule:nonzero;"/>
                    </g>
                    <g>
                        <path d="M46249.8,47801.3l2728.35,0l0,-889.96l-1292.72,-0l1214.76,-1611.02l0,-863.976l-2565.94,-0l-0,941.929l1188.78,-0l-1273.23,1662.99l0,760.039Z" style="fill:#fff;fill-rule:nonzero;"/>
                    </g>
                </g>
            </g>
            <g>
                <path d="M21795.8,48255.2l0,-5793.83l-11208.4,-0l0,5793.83l11208.4,-0Zm-291.667,-5502.16l-10625,-0l0,5210.5l10625,-0l0,-5210.5Z" style="fill:#fff;"/>
                <path d="M11695.7,47186.2l874.37,-0l177.992,-552.166l1339.49,1.3l172.795,550.866l901.654,-0l-1236.85,-3688.47l-1001.69,-1.299l-1227.76,3689.76l-0.001,0.009Zm1343.38,-1375.87l414.449,-1278.43l415.748,1278.43l-830.197,-0Z" style="fill:#fff;fill-rule:nonzero;"/>
                <rect x="15733.6" y="45536.2" width="1273.23" height="682.087" style="fill:#fff;"/>
                <path d="M17578.5,46209.2c153.307,513.622 487.205,847.52 1001.69,1001.69c849.685,142.047 1423.07,-191.417 1720.16,-1000.39c76.22,-297.953 60.196,-590.709 -48.071,-878.268c-0.866,-2.598 -2.166,-5.63 -3.898,-9.094c-379.37,-711.102 -953.622,-946.26 -1722.76,-705.473l44.173,-344.291l1590.24,0l-1.3,-778.228l-2302.2,0l-241.654,1916.34l866.575,141.615l9.094,-10.394c43.307,-73.622 100.906,-132.52 172.796,-176.693c278.897,-137.717 511.889,-82.284 698.976,166.299c122.126,219.134 125.591,440.866 10.394,665.197c-88.347,125.591 -208.307,201.378 -359.882,227.362c-329.134,21.654 -534.843,-126.89 -617.126,-445.63l-817.205,229.961l-0.002,-0.003Z" style="fill:#fff;fill-rule:nonzero;"/>
            </g>
        </g>
        <g>
            <g>
                <path d="M46439.8,4250.41c0,-1460.18 -1185.48,-2645.67 -2645.67,-2645.67l-11981.9,0c-1460.18,0 -2645.67,1185.49 -2645.67,2645.67l-0,2937.9c-0,1460.18 1185.48,2645.67 2645.67,2645.67l11981.9,-0c1460.18,-0 2645.67,-1185.49 2645.67,-2645.67l0,-2937.9Z" style="fill:#039900;"/>
                <path d="M47313.8,4250.41c0,-1942.57 -1577.12,-3519.68 -3519.68,-3519.68l-11981.9,0c-1942.57,0 -3519.68,1577.12 -3519.68,3519.68l-0,2937.9c-0,1942.57 1577.12,3519.68 3519.68,3519.68c0,-0 11981.9,-0 11981.9,-0c1942.57,-0 3519.68,-1577.12 3519.68,-3519.68c0,-0 0,-2937.9 0,-2937.9Zm-874.016,0c0,-1460.18 -1185.48,-2645.67 -2645.67,-2645.67l-11981.9,0c-1460.18,0 -2645.67,1185.49 -2645.67,2645.67l-0,2937.9c-0,1460.18 1185.48,2645.67 2645.67,2645.67l11981.9,-0c1460.18,-0 2645.67,-1185.49 2645.67,-2645.67l0,-2937.9Z"/>
                <path d="M47195.7,4250.41c-0,-1877.38 -1524.19,-3401.57 -3401.58,-3401.57l-11981.9,-0c-1877.38,-0 -3401.58,1524.19 -3401.58,3401.57l0,2937.9c0,1877.38 1524.19,3401.57 3401.58,3401.57c0,0 11981.9,0 11981.9,0c1877.38,0 3401.58,-1524.19 3401.58,-3401.57c-0,-0 -0,-2937.9 -0,-2937.9Zm-755.906,0c0,-1460.18 -1185.48,-2645.67 -2645.67,-2645.67l-11981.9,0c-1460.18,0 -2645.67,1185.49 -2645.67,2645.67l-0,2937.9c-0,1460.18 1185.48,2645.67 2645.67,2645.67l11981.9,-0c1460.18,-0 2645.67,-1185.49 2645.67,-2645.67l0,-2937.9Z" style="fill:#039900;"/>
                <path d="M46439.8,4250.41c0,-1460.18 -1185.48,-2645.67 -2645.67,-2645.67l-11981.9,0c-1460.18,0 -2645.67,1185.49 -2645.67,2645.67l-0,2937.9c-0,1460.18 1185.48,2645.67 2645.67,2645.67l11981.9,-0c1460.18,-0 2645.67,-1185.49 2645.67,-2645.67l0,-2937.9Z" style="fill:none;stroke:#fff;stroke-width:755.91px;"/>
                <path d="M32075,7548.65l2689.37,0l0,-801.614l-1850.08,0l-0,-692.48l1494.09,-0l0,-801.614l-1494.09,-0l-0,-637.914l1670.79,0l-0,-754.842l-2510.08,-0l0,3688.46Z" style="fill:#fff;fill-rule:nonzero;"/>
                <rect x="35284" y="5897.35" width="1273.23" height="682.087" style="fill:#fff;fill-rule:nonzero;"/>
                <path d="M40031.3,6806.8c73.622,-209.606 125.591,-424.41 155.906,-644.41c77.086,-518.818 25.984,-1025.08 -153.307,-1518.78c-116.93,-265.039 -291.024,-484.606 -522.284,-658.701c-504.961,-303.149 -1004.72,-295.787 -1499.29,22.087c-145.512,103.937 -266.772,231.693 -363.78,383.268c-381.102,747.48 -239.921,1378.03 423.544,1891.65l3.897,2.598c399.292,205.276 796.418,201.378 1191.38,-11.692c-2.598,206.141 -93.11,360.748 -271.535,463.818c-288.425,119.528 -517.953,48.937 -688.583,-211.771l-770.433,300.118l2.598,6.496c148.111,314.409 381.103,542.638 698.977,684.685c793.386,258.11 1391.02,21.654 1792.91,-709.37Zm-1617.52,-1326.5c-155.039,-243.386 -148.976,-483.307 18.189,-719.764c22.52,-24.252 47.205,-46.772 74.056,-67.559c257.244,-154.173 485.905,-119.528 685.984,103.937c149.842,230.394 146.811,458.622 -9.095,684.685c-21.653,25.984 -45.472,49.803 -71.456,71.457c-252.048,168.897 -484.607,144.645 -697.678,-72.756Z" style="fill:#fff;fill-rule:nonzero;"/>
                <path d="M43532.7,4626.72c-153.307,-306.614 -383.268,-535.708 -689.882,-687.283c-854.882,-319.607 -1519.21,-89.213 -1992.99,691.181c-310.945,711.102 -315.709,1423.94 -14.291,2138.5c155.905,321.338 394.527,559.96 715.866,715.866c865.275,313.543 1532.64,74.488 2002.09,-717.165c283.228,-716.3 276.299,-1430 -20.788,-2141.1Zm-645.709,1573.35c-7.795,40.708 -18.622,80.551 -32.48,119.527c-187.953,392.362 -491.968,532.677 -912.047,420.945c-252.913,-96.142 -405.354,-276.299 -457.323,-540.472c-29.449,-251.181 -34.646,-502.363 -15.59,-753.544c4.33,-41.574 7.362,-83.149 9.094,-124.724c24.252,-343.858 201.378,-565.158 531.378,-663.898c63.228,-17.323 127.323,-25.551 192.283,-24.685c427.008,46.772 657.402,284.095 691.182,711.969l1.299,9.094c29.449,281.496 26.85,563.425 -7.796,845.788Z" style="fill:#fff;fill-rule:nonzero;"/>
            </g>
            <g>
                <path d="M27140.6,4250.41c-0,-1460.18 -1185.49,-2645.67 -2645.67,-2645.67l-7798.47,0c-1460.18,0 -2645.67,1185.49 -2645.67,2645.67l-0,2937.9c-0,1460.18 1185.48,2645.67 2645.67,2645.67l7798.47,-0c1460.18,-0 2645.67,-1185.49 2645.67,-2645.67l-0,-2937.9Z" style="fill:#039900;"/>
                <path d="M28014.7,4250.41c0,-1942.57 -1577.12,-3519.68 -3519.68,-3519.68l-7798.47,0c-1942.57,0 -3519.68,1577.12 -3519.68,3519.68c-0,0 -0,2937.9 -0,2937.9c-0,1942.57 1577.12,3519.68 3519.68,3519.68c-0,-0 7798.47,-0 7798.47,-0c1942.57,-0 3519.68,-1577.12 3519.68,-3519.68c0,-0 0,-2937.9 0,-2937.9Zm-874.015,0c-0,-1460.18 -1185.49,-2645.67 -2645.67,-2645.67l-7798.47,0c-1460.18,0 -2645.67,1185.49 -2645.67,2645.67l-0,2937.9c-0,1460.18 1185.48,2645.67 2645.67,2645.67l7798.47,-0c1460.18,-0 2645.67,-1185.49 2645.67,-2645.67l-0,-2937.9Z"/>
                <path d="M27896.6,4250.41c0,-1877.38 -1524.19,-3401.57 -3401.57,-3401.57l-7798.47,-0c-1877.38,-0 -3401.58,1524.19 -3401.58,3401.57c0,0 0,2937.9 0,2937.9c0,1877.38 1524.19,3401.57 3401.58,3401.57c-0,0 7798.47,0 7798.47,0c1877.38,0 3401.57,-1524.19 3401.57,-3401.57c0,-0 0,-2937.9 0,-2937.9Zm-755.905,0c-0,-1460.18 -1185.49,-2645.67 -2645.67,-2645.67l-7798.47,0c-1460.18,0 -2645.67,1185.49 -2645.67,2645.67l-0,2937.9c-0,1460.18 1185.48,2645.67 2645.67,2645.67l7798.47,-0c1460.18,-0 2645.67,-1185.49 2645.67,-2645.67l-0,-2937.9Z" style="fill:#039900;"/>
                <path d="M27140.6,4250.41c-0,-1460.18 -1185.49,-2645.67 -2645.67,-2645.67l-7798.47,0c-1460.18,0 -2645.67,1185.49 -2645.67,2645.67l-0,2937.9c-0,1460.18 1185.48,2645.67 2645.67,2645.67l7798.47,-0c1460.18,-0 2645.67,-1185.49 2645.67,-2645.67l-0,-2937.9Z" style="fill:none;stroke:#fff;stroke-width:755.91px;"/>
                <path d="M16709.8,7548.65l2689.37,0l-0,-801.614l-1850.08,0l0,-692.48l1494.1,-0l-0,-801.614l-1494.1,-0l0,-637.914l1670.79,0l-0,-754.842l-2510.08,-0l-0,3688.46Z" style="fill:#fff;fill-rule:nonzero;"/>
                <rect x="19918.9" y="5897.35" width="1273.23" height="682.087" style="fill:#fff;fill-rule:nonzero;"/>
                <path d="M21711.8,6570.34c153.307,513.622 487.205,847.52 1001.69,1001.69c849.685,142.047 1423.07,-191.417 1720.16,-1000.39c76.22,-297.952 60.197,-590.708 -48.071,-878.267c-0.866,-2.599 -2.166,-5.63 -3.898,-9.095c-379.37,-711.102 -953.622,-946.26 -1722.76,-705.472l44.174,-344.292l1590.24,0l-1.299,-778.228l-2302.2,0l-241.654,1916.34l866.575,141.614l9.095,-10.394c43.307,-73.622 100.905,-132.519 172.795,-176.693c278.897,-137.716 511.89,-82.283 698.976,166.299c122.126,219.134 125.591,440.867 10.394,665.197c-88.347,125.591 -208.307,201.378 -359.882,227.363c-329.134,21.653 -534.843,-126.89 -617.126,-445.63l-817.205,229.96Z" style="fill:#fff;fill-rule:nonzero;"/>
            </g>
        </g>
    </g>
</svg>
