<?xml version="1.0" encoding="UTF-8" standalone="no"?>
<!DOCTYPE svg PUBLIC "-//W3C//DTD SVG 1.1//EN" "http://www.w3.org/Graphics/SVG/1.1/DTD/svg11.dtd">
<svg width="100%" height="100%" viewBox="0 0 136849 47985" version="1.1" xmlns="http://www.w3.org/2000/svg" xmlns:xlink="http://www.w3.org/1999/xlink" xml:space="preserve" style="fill-rule:evenodd;clip-rule:evenodd;stroke-linecap:round;stroke-linejoin:round;stroke-miterlimit:1.5;">
    <g id="g4799">
        <path d="M42546.7,4996.77c0,-1825.23 -1481.86,-3307.09 -3307.09,-3307.09l-34225.8,-0c-1825.23,-0 -3307.09,1481.86 -3307.09,3307.09l-0,37929.3c-0,1825.23 1481.86,3307.09 3307.09,3307.09l34225.8,-0c1825.23,-0 3307.09,-1481.86 3307.09,-3307.09l0,-37929.3Z" style="fill:#003fff;"/>
        <path d="M43609.7,4996.77c0,-2411.91 -1958.17,-4370.08 -4370.08,-4370.08l-34225.8,-0c-2411.91,-0 -4370.08,1958.17 -4370.08,4370.08l-0,37929.3c-0,2411.91 1958.17,4370.08 4370.08,4370.08c-0,-0 34225.8,-0 34225.8,-0c2411.91,-0 4370.08,-1958.17 4370.08,-4370.08l0,-37929.3Zm-1062.99,0c0,-1825.23 -1481.86,-3307.09 -3307.09,-3307.09l-34225.8,-0c-1825.23,-0 -3307.09,1481.86 -3307.09,3307.09l-0,37929.3c-0,1825.23 1481.86,3307.09 3307.09,3307.09l34225.8,-0c1825.23,-0 3307.09,-1481.86 3307.09,-3307.09l0,-37929.3Z"/>
        <path d="M43491.6,4996.77c0,-2346.72 -1905.24,-4251.97 -4251.97,-4251.97l-34225.8,-0c-2346.73,-0 -4251.97,1905.24 -4251.97,4251.97l0,37929.3c0,2346.72 1905.24,4251.97 4251.97,4251.97c-0,-0 34225.8,-0 34225.8,-0c2346.73,-0 4251.97,-1905.24 4251.97,-4251.97l0,-37929.3Zm-944.882,0c0,-1825.23 -1481.86,-3307.09 -3307.09,-3307.09l-34225.8,-0c-1825.23,-0 -3307.09,1481.86 -3307.09,3307.09l-0,37929.3c-0,1825.23 1481.86,3307.09 3307.09,3307.09l34225.8,-0c1825.23,-0 3307.09,-1481.86 3307.09,-3307.09l0,-37929.3Z" style="fill:#003fff;"/>
        <path d="M42546.7,4996.77c0,-1825.23 -1481.86,-3307.09 -3307.09,-3307.09l-34225.8,-0c-1825.23,-0 -3307.09,1481.86 -3307.09,3307.09l-0,37929.3c-0,1825.23 1481.86,3307.09 3307.09,3307.09l34225.8,-0c1825.23,-0 3307.09,-1481.86 3307.09,-3307.09l0,-37929.3Z" style="fill:none;stroke:#fff;stroke-width:944.88px;"/>
        <path d="M95893.3,4996.77c-0,-1825.23 -1481.86,-3307.09 -3307.09,-3307.09l-42594.7,-0c-1825.23,-0 -3307.09,1481.86 -3307.09,3307.09l-0,37929.3c-0,1825.23 1481.86,3307.09 3307.09,3307.09l42594.7,-0c1825.23,-0 3307.09,-1481.86 3307.09,-3307.09l-0,-37929.3Z" style="fill:#003fff;"/>
        <path d="M96956.3,4996.77c-0,-2411.91 -1958.17,-4370.08 -4370.08,-4370.08l-42594.7,-0c-2411.91,-0 -4370.08,1958.17 -4370.08,4370.08l0,37929.3c0,2411.91 1958.17,4370.08 4370.08,4370.08c0,-0 42594.7,-0 42594.7,-0c2411.91,-0 4370.08,-1958.17 4370.08,-4370.08c-0,0 -0,-37929.3 -0,-37929.3Zm-1062.99,0c-0,-1825.23 -1481.86,-3307.09 -3307.09,-3307.09l-42594.7,-0c-1825.23,-0 -3307.09,1481.86 -3307.09,3307.09l-0,37929.3c-0,1825.23 1481.86,3307.09 3307.09,3307.09l42594.7,-0c1825.23,-0 3307.09,-1481.86 3307.09,-3307.09l-0,-37929.3Z"/>
        <path d="M96838.2,4996.77c-0,-2346.72 -1905.24,-4251.97 -4251.97,-4251.97l-42594.7,-0c-2346.72,-0 -4251.97,1905.24 -4251.97,4251.97l-0,37929.3c-0,2346.72 1905.24,4251.97 4251.97,4251.97c0,-0 42594.7,-0 42594.7,-0c2346.72,-0 4251.97,-1905.24 4251.97,-4251.97c-0,0 -0,-37929.3 -0,-37929.3Zm-944.882,0c-0,-1825.23 -1481.86,-3307.09 -3307.09,-3307.09l-42594.7,-0c-1825.23,-0 -3307.09,1481.86 -3307.09,3307.09l-0,37929.3c-0,1825.23 1481.86,3307.09 3307.09,3307.09l42594.7,-0c1825.23,-0 3307.09,-1481.86 3307.09,-3307.09l-0,-37929.3Z" style="fill:#003fff;"/>
        <path d="M95893.3,17165.6c-0,-1825.23 -1481.86,-3307.09 -3307.09,-3307.09l-42594.7,-0c-1825.23,-0 -3307.09,1481.86 -3307.09,3307.09l-0,25760.5c-0,1825.23 1481.86,3307.09 3307.09,3307.09l42594.7,-0c1825.23,-0 3307.09,-1481.86 3307.09,-3307.09l-0,-25760.5Z" style="fill:none;stroke:#fff;stroke-width:944.88px;"/>
        <path d="M95893.3,4996.77c-0,-1825.23 -1481.86,-3307.09 -3307.09,-3307.09l-18262.8,-0c-1825.23,-0 -3307.09,1481.86 -3307.09,3307.09l0,3705.72c0,1825.23 1481.86,3307.09 3307.09,3307.09l18262.8,0c1825.23,0 3307.09,-1481.86 3307.09,-3307.09l-0,-3705.72Z" style="fill:none;stroke:#fff;stroke-width:944.88px;"/>
        <path d="M69136.2,4996.77c0,-1825.23 -1481.86,-3307.09 -3307.09,-3307.09l-15837.6,-0c-1825.23,-0 -3307.09,1481.86 -3307.09,3307.09l-0,3705.72c-0,1825.23 1481.86,3307.09 3307.09,3307.09l15837.6,0c1825.23,0 3307.09,-1481.86 3307.09,-3307.09l0,-3705.72Z" style="fill:none;stroke:#fff;stroke-width:944.88px;"/>
        <path d="M77052.7,3578.78l-830.885,0l-2238.63,6832.49l2769,-0l300.517,-6832.49Zm1873.52,1945.83l1972.83,-1265.43l-1584.74,-680.396l2885.3,0l-0,2934.5l-660.797,-1638.7l-2062.8,2328.06l1051.3,3208.64l-2769,-0l-300.517,-6832.49l830.884,0l637.541,1945.83Z" style="fill:#fff;"/>
        <g>
            <path d="M7586.52,30770.2l1093,-0l222.496,-690.227l1674.41,1.624l216,688.603l1127.1,-0l-1546.11,-4610.71l-1252.15,-1.624l-1534.74,4612.34Zm1679.28,-1719.88l518.076,-1598.08l519.7,1598.08l-1037.78,0Z" style="fill:#fff;fill-rule:nonzero;"/>
            <path d="M18087.7,28998.4l-1.624,11.369c-102.858,481.805 -395.73,773.054 -878.618,873.745c-642.046,38.978 -1042.11,-253.895 -1200.18,-878.617c-74.707,-359.46 -74.166,-718.919 1.624,-1078.38c99.609,-502.377 401.143,-800.663 904.602,-894.858c639.881,-20.572 1029.66,281.504 1169.33,906.227l989.054,-419.009c-240.361,-660.452 -691.85,-1108.15 -1354.47,-1343.1c-1273.27,-289.083 -2170.29,164.571 -2691.07,1360.96c-212.211,618.227 -216.001,1236.99 -11.369,1856.3c238.196,670.196 691.851,1124.39 1360.96,1362.59c1278.68,294.497 2181.66,-158.617 2708.94,-1359.34l3.248,-16.241l-1000.42,-381.655Z" style="fill:#fff;fill-rule:nonzero;"/>
            <path d="M20025.2,30421.1c777.385,601.986 1554.23,600.903 2330.53,-3.248c262.015,-258.767 421.173,-569.505 477.474,-932.212c29.233,-213.293 32.481,-427.128 9.745,-641.505c-46.557,-349.714 -182.437,-660.452 -407.64,-932.211c-59.549,-69.294 -123.97,-133.715 -193.264,-193.264c-832.602,-584.662 -1613.78,-522.407 -2343.52,186.767l-6.496,8.121c-220.872,272.842 -350.256,584.121 -388.151,933.836c-33.564,212.21 -27.068,423.338 19.489,633.384c54.135,369.203 218.707,680.482 493.715,933.836l8.12,6.496Zm1801.09,-1576.97c41.143,213.294 38.978,426.046 -6.496,638.257c-73.624,238.196 -229.534,393.564 -467.73,466.106c-402.767,71.459 -676.151,-83.91 -820.151,-466.106c-49.805,-211.128 -55.76,-423.88 -17.865,-638.257c64.962,-300.993 247.94,-484.512 548.933,-550.557c406.016,-27.067 660.452,156.452 763.309,550.557Z" style="fill:#fff;fill-rule:nonzero;"/>
            <path d="M24460.5,30770.2l-0,-1771.85c17.323,-172.15 87.699,-318.857 211.128,-440.121c253.354,-168.902 527.82,-214.917 823.4,-138.045l3.248,-1125.48c-386.527,-31.399 -736.242,67.669 -1049.14,297.203l-27.609,-224.12l-1042.65,3.248l0,3399.16l1081.63,-0Z" style="fill:#fff;fill-rule:nonzero;"/>
            <path d="M26014.8,29722.7c36.812,199.219 113.684,381.114 230.617,545.685c546.767,633.385 1182.32,740.031 1906.65,319.941l82.827,177.022l915.971,0l0,-3360.18l-1073.51,-1.624l0,1851.43c4.331,66.045 -4.872,131.008 -27.609,194.888c-55.218,149.413 -158.075,251.729 -308.572,306.948c-293.414,69.293 -501.835,-34.106 -625.264,-310.196c-28.15,-74.707 -41.684,-152.121 -40.602,-232.241l-1.624,-1810.83l-1057.26,1.624l-1.624,2317.54Z" style="fill:#fff;fill-rule:nonzero;"/>
            <path d="M29802.1,27540l-1.624,3230.26l1005.3,-0l0,-1942.38c41.143,-233.865 177.023,-377.865 407.64,-432.001c305.323,-25.985 499.128,108.271 581.414,402.768l0,1971.61l1019.91,-0l0,-2220.09c-45.473,-356.211 -210.586,-642.587 -495.339,-859.129c-526.196,-324.812 -1049.68,-319.94 -1570.47,14.617l-64.963,-165.655l-881.866,0Z" style="fill:#fff;fill-rule:nonzero;"/>
            <path d="M36813.1,30032.9c-85.534,2.166 -169.985,-6.496 -253.354,-25.985c-80.12,-33.564 -119.097,-94.195 -116.932,-181.895l-0,-1421.06c-11.91,-460.151 -236.03,-765.474 -672.362,-915.971c-805.535,-262.015 -1539.61,-129.383 -2202.23,397.896l485.595,774.677c126.677,-120.18 270.136,-215.459 430.377,-285.835c213.293,-97.443 435.79,-127.759 667.489,-90.947c51.97,11.91 100.692,30.857 146.166,56.842c56.301,32.481 92.571,80.12 108.812,142.918c3.248,27.067 -5.955,48.721 -27.609,64.962c-40.06,15.158 -81.203,25.985 -123.429,32.481l-872.121,151.038c-395.189,105.023 -669.655,347.008 -823.4,725.956c-126.677,617.144 97.444,1056.18 672.362,1317.12c505.625,174.316 970.107,97.985 1393.45,-228.993c228.451,228.451 504,331.85 826.647,310.196l360.542,-823.4Zm-2156.76,-115.308c-42.225,-25.985 -72.541,-62.797 -90.947,-110.437c-33.564,-126.676 9.203,-218.165 128.301,-274.466c33.564,-14.075 68.21,-24.902 103.94,-32.481c201.383,-31.399 401.143,-69.294 599.279,-113.685l-1.624,339.429c-24.903,82.286 -75.249,143.459 -151.038,183.519c-194.888,95.279 -390.858,97.986 -587.911,8.121Z" style="fill:#fff;fill-rule:nonzero;"/>
            <rect x="30295.7" y="26476.9" width="1827.42" height="484.443" style="fill:#fff;"/>
        </g>
        <g transform="matrix(1,0,0,1,7370.75,18072.3)">
            <g transform="matrix(4872.05,0,0,4872.05,1614.27,4543.03)">
                <path d="M0.257,0l0.163,0l0,-0.558l0.198,0l-0.001,-0.152l-0.567,0l-0,0.152l0.206,0l0,0.558Z" style="fill:#fff;fill-rule:nonzero;"/>
            </g>
            <g transform="matrix(4872.05,0,0,4872.05,4209.85,4543.03)">
                <path d="M0.138,-0.054c0.12,0.093 0.239,0.093 0.359,0c0.04,-0.04 0.065,-0.088 0.073,-0.144c0.005,-0.032 0.005,-0.065 0.002,-0.098c-0.007,-0.054 -0.028,-0.102 -0.063,-0.144c-0.009,-0.01 -0.019,-0.02 -0.03,-0.029c-0.128,-0.09 -0.248,-0.081 -0.36,0.028l-0.001,0.002c-0.034,0.042 -0.054,0.089 -0.06,0.143c-0.005,0.033 -0.004,0.065 0.003,0.098c0.008,0.057 0.033,0.105 0.076,0.144l0.001,0.001Zm0.277,-0.243c0.007,0.033 0.006,0.065 -0.001,0.098c-0.011,0.037 -0.035,0.061 -0.072,0.072c-0.062,0.011 -0.104,-0.013 -0.126,-0.072c-0.008,-0.032 -0.009,-0.065 -0.003,-0.098c0.01,-0.047 0.038,-0.075 0.085,-0.085c0.062,-0.004 0.101,0.024 0.117,0.085Z" style="fill:#fff;fill-rule:nonzero;"/>
            </g>
            <g transform="matrix(4872.05,0,0,4872.05,7374.24,4543.03)">
                <path d="M0.217,0l-0.001,-0.273c0.003,-0.026 0.014,-0.049 0.033,-0.067c0.039,-0.026 0.081,-0.033 0.127,-0.021l0,-0.174c-0.059,-0.005 -0.113,0.011 -0.161,0.046l-0.005,-0.034l-0.16,0l0,0.523l0.167,0Z" style="fill:#fff;fill-rule:nonzero;"/>
            </g>
            <g transform="matrix(4872.05,0,0,4872.05,8963.75,4543.03)">
                <path d="M0.158,-0.41c-0.072,0.128 -0.059,0.246 0.04,0.355c0.086,0.075 0.18,0.086 0.281,0.033l0.008,0.022l0.148,-0l-0,-0.665l-0.161,-0l-0,0.17c-0.058,-0.033 -0.118,-0.039 -0.182,-0.019c-0.056,0.019 -0.101,0.054 -0.134,0.104Zm0.315,0.112c0.002,0.026 0.002,0.053 0,0.079c-0.009,0.05 -0.039,0.079 -0.089,0.088c-0.062,0.001 -0.099,-0.029 -0.111,-0.089c-0.002,-0.026 -0.002,-0.052 0.001,-0.078c0.01,-0.046 0.038,-0.074 0.083,-0.083c0.062,-0.005 0.101,0.023 0.116,0.083Z" style="fill:#fff;fill-rule:nonzero;"/>
            </g>
            <g transform="matrix(4872.05,0,0,4872.05,12192.7,4543.03)">
                <path d="M0.073,-0.17c0.03,0.1 0.097,0.161 0.199,0.182c0.105,0.014 0.198,-0.014 0.278,-0.084l-0.104,-0.105c-0.034,0.03 -0.074,0.047 -0.119,0.049c-0.051,0.001 -0.086,-0.022 -0.104,-0.07l0.334,0c0.008,-0.051 0.004,-0.1 -0.013,-0.149c-0.051,-0.127 -0.144,-0.184 -0.281,-0.169l-0.002,0.001c-0.093,0.019 -0.155,0.074 -0.186,0.164l-0,0.002c-0.017,0.059 -0.017,0.119 -0.002,0.179Zm0.152,-0.147c0.009,-0.034 0.031,-0.056 0.065,-0.065c0.054,-0.008 0.09,0.014 0.107,0.065l-0.173,0Z" style="fill:#fff;fill-rule:nonzero;"/>
            </g>
            <g transform="matrix(4872.05,0,0,4872.05,14912.5,4543.03)">
                <path d="M0.061,-0.098c0.027,0.035 0.061,0.06 0.102,0.077c0.091,0.04 0.183,0.04 0.275,-0c0.033,-0.017 0.058,-0.043 0.073,-0.078c0.029,-0.09 0.002,-0.157 -0.081,-0.202c-0.032,-0.014 -0.065,-0.025 -0.1,-0.033c-0.02,-0.004 -0.039,-0.01 -0.058,-0.018c-0.005,-0.002 -0.008,-0.005 -0.01,-0.009c-0.004,-0.011 -0.001,-0.019 0.009,-0.024c0.014,-0.006 0.028,-0.008 0.042,-0.006c0.018,0.001 0.035,0.005 0.051,0.012c0.023,0.008 0.041,0.022 0.056,0.041l0.099,-0.111c-0.057,-0.043 -0.12,-0.069 -0.189,-0.078c-0.062,-0.006 -0.119,0.007 -0.172,0.039c-0.013,0.01 -0.025,0.022 -0.035,0.036c-0.049,0.085 -0.036,0.159 0.039,0.223c0.032,0.018 0.066,0.03 0.102,0.037c0.025,0.004 0.049,0.01 0.074,0.017c0.007,0.002 0.011,0.007 0.014,0.013c0.003,0.012 -0.002,0.021 -0.013,0.026c-0.039,0.005 -0.075,-0.001 -0.11,-0.019c-0.024,-0.009 -0.045,-0.022 -0.064,-0.039l-0.104,0.096Z" style="fill:#fff;fill-rule:nonzero;"/>
            </g>
            <g transform="matrix(4872.05,0,0,4872.05,17520.3,4543.03)">
                <path d="M0.065,-0l0.165,-0l-0,-0.515l-0.165,0.001l0,0.514Zm0.066,-0.715c-0.054,0.017 -0.078,0.054 -0.071,0.11c0.018,0.054 0.054,0.077 0.11,0.07c0.054,-0.017 0.077,-0.053 0.071,-0.11c-0.018,-0.053 -0.054,-0.077 -0.11,-0.07Z" style="fill:#fff;fill-rule:nonzero;"/>
            </g>
            <g transform="matrix(4872.05,0,0,4872.05,19150,4543.03)">
                <path d="M0.051,-0.134c-0.001,0.072 0.033,0.119 0.101,0.142c0.055,0.01 0.109,0.008 0.162,-0.007l-0.015,-0.148c-0.02,0.01 -0.041,0.015 -0.064,0.013l-0,-0c-0.015,-0.003 -0.022,-0.012 -0.022,-0.027l0,-0.542l-0.163,0l-0,0.568l0.001,0.001Z" style="fill:#fff;fill-rule:nonzero;"/>
            </g>
            <g transform="matrix(4872.05,0,0,4872.05,20732.2,4543.03)">
                <path d="M0.051,-0.134c-0.001,0.072 0.033,0.119 0.101,0.142c0.055,0.01 0.109,0.008 0.162,-0.007l-0.015,-0.148c-0.02,0.01 -0.041,0.015 -0.064,0.013l-0,-0c-0.015,-0.003 -0.022,-0.012 -0.022,-0.027l0,-0.542l-0.163,0l-0,0.568l0.001,0.001Z" style="fill:#fff;fill-rule:nonzero;"/>
            </g>
            <g transform="matrix(4872.05,0,0,4872.05,22325.3,4543.03)">
                <path d="M0.58,-0.113c-0.013,0 -0.026,-0.001 -0.039,-0.004c-0.012,-0.005 -0.018,-0.015 -0.018,-0.028l0,-0.219c-0.002,-0.071 -0.036,-0.118 -0.103,-0.141c-0.124,-0.04 -0.237,-0.02 -0.339,0.061l0.074,0.119c0.02,-0.018 0.042,-0.033 0.067,-0.043c0.032,-0.016 0.067,-0.02 0.102,-0.015c0.008,0.002 0.016,0.005 0.023,0.009c0.008,0.005 0.014,0.013 0.017,0.022c0,0.004 -0.001,0.008 -0.005,0.01c-0.006,0.003 -0.012,0.004 -0.019,0.005l-0.134,0.023c-0.061,0.017 -0.103,0.054 -0.127,0.112c-0.019,0.095 0.015,0.163 0.104,0.203c0.078,0.027 0.149,0.015 0.214,-0.035c0.035,0.035 0.078,0.051 0.128,0.047l0.055,-0.126Zm-0.332,-0.018c-0.006,-0.004 -0.011,-0.01 -0.014,-0.017c-0.005,-0.02 0.001,-0.034 0.02,-0.042c0.005,-0.002 0.01,-0.004 0.016,-0.005c0.031,-0.005 0.062,-0.011 0.092,-0.018l-0,0.052c-0.004,0.013 -0.012,0.023 -0.023,0.029c-0.03,0.014 -0.061,0.015 -0.091,0.001Z" style="fill:#fff;fill-rule:nonzero;"/>
            </g>
            <g transform="matrix(4872.05,0,0,4872.05,25154.8,4543.03)">
                <path d="M0.061,-0.098c0.027,0.035 0.061,0.06 0.102,0.077c0.091,0.04 0.183,0.04 0.275,-0c0.033,-0.017 0.058,-0.043 0.073,-0.078c0.029,-0.09 0.002,-0.157 -0.081,-0.202c-0.032,-0.014 -0.065,-0.025 -0.1,-0.033c-0.02,-0.004 -0.039,-0.01 -0.058,-0.018c-0.005,-0.002 -0.008,-0.005 -0.01,-0.009c-0.004,-0.011 -0.001,-0.019 0.009,-0.024c0.014,-0.006 0.028,-0.008 0.042,-0.006c0.018,0.001 0.035,0.005 0.051,0.012c0.023,0.008 0.041,0.022 0.056,0.041l0.099,-0.111c-0.057,-0.043 -0.12,-0.069 -0.189,-0.078c-0.062,-0.006 -0.119,0.007 -0.172,0.039c-0.013,0.01 -0.025,0.022 -0.035,0.036c-0.049,0.085 -0.036,0.159 0.039,0.223c0.032,0.018 0.066,0.03 0.102,0.037c0.025,0.004 0.049,0.01 0.074,0.017c0.007,0.002 0.011,0.007 0.014,0.013c0.003,0.012 -0.002,0.021 -0.013,0.026c-0.039,0.005 -0.075,-0.001 -0.11,-0.019c-0.024,-0.009 -0.045,-0.022 -0.064,-0.039l-0.104,0.096Z" style="fill:#fff;fill-rule:nonzero;"/>
            </g>
        </g>
        <g>
            <path d="M27592.8,16090.4l0,-5790.04l-10932.2,-0l-0,5790.04l10932.2,-0Zm-291.666,-5498.37l-10348.8,0l0,5206.71l10348.8,0l-0,-5206.71Z" style="fill:#fff;"/>
            <path d="M17852.3,15023.3l874.37,0l177.992,-552.165l1339.49,1.299l172.795,550.866l901.654,0l-1236.85,-3688.47l-1001.69,-1.299l-1227.76,3689.76Zm1343.38,-1375.87l414.449,-1278.42l415.748,1278.42l-830.197,-0Z" style="fill:#fff;fill-rule:nonzero;"/>
            <rect x="21838.3" y="13373.3" width="1273.23" height="682.087" style="fill:#fff;fill-rule:nonzero;"/>
            <path d="M23945.6,12078c-108.268,298.819 -173.229,606.732 -194.882,923.74c-79.685,544.803 20.787,1054.1 301.417,1527.87c520.551,615.827 1136.81,734.055 1848.78,354.685c147.244,-102.204 270.236,-228.228 368.976,-378.071c391.496,-741.417 259.409,-1373.7 -396.26,-1896.85l-3.897,-2.598c-395.827,-210.473 -792.52,-212.205 -1190.08,-5.197c4.33,-206.142 96.575,-359.449 276.732,-459.922c290.158,-116.063 518.819,-42.44 685.984,220.867l774.331,-288.426l-2.598,-6.496c-144.646,-312.677 -374.174,-540.472 -688.583,-683.385c-784.724,-259.843 -1378.03,-28.583 -1779.92,693.779Zm1574.64,1327.8c151.575,245.985 142.048,485.906 -28.582,719.764c-22.52,24.252 -47.638,46.339 -75.355,66.26c-258.976,150.709 -486.771,112.598 -683.385,-114.331c-146.378,-232.126 -140.315,-459.921 18.188,-683.386c21.654,-25.984 45.906,-49.803 72.756,-71.456c254.646,-164.567 486.772,-136.851 696.378,83.149Z" style="fill:#fff;fill-rule:nonzero;"/>
        </g>
        <g>
            <path d="M76690.1,23834.8l0,-5790.04l-10802.4,0l-0,5790.04l10802.4,-0Zm-291.666,-5498.37l-10219.1,0l0,5206.71l10219.1,0l-0,-5206.71Z" style="fill:#fff;"/>
            <path d="M67014.5,22767.7l874.37,-0l177.992,-552.166l1339.49,1.3l172.795,550.866l901.654,-0l-1236.85,-3688.47l-1001.69,-1.299l-1227.76,3689.76Zm1343.38,-1375.87l414.449,-1278.43l415.748,1278.43l-830.197,-0Z" style="fill:#fff;fill-rule:nonzero;"/>
            <rect x="71000.4" y="21117.7" width="1273.23" height="682.087" style="fill:#fff;fill-rule:nonzero;"/>
            <path d="M73107.8,19822.4c-108.268,298.819 -173.229,606.732 -194.882,923.74c-79.685,544.803 20.787,1054.09 301.417,1527.87c520.551,615.827 1136.81,734.055 1848.78,354.685c147.244,-102.205 270.236,-228.228 368.976,-378.071c391.496,-741.417 259.41,-1373.7 -396.26,-1896.85l-3.897,-2.599c-395.827,-210.472 -792.52,-212.204 -1190.08,-5.197c4.331,-206.141 96.575,-359.448 276.732,-459.921c290.158,-116.063 518.819,-42.441 685.984,220.866l774.331,-288.425l-2.598,-6.496c-144.646,-312.677 -374.174,-540.472 -688.583,-683.386c-784.724,-259.842 -1378.03,-28.582 -1779.92,693.78Zm1574.64,1327.8c151.575,245.984 142.048,485.906 -28.582,719.764c-22.52,24.252 -47.638,46.338 -75.355,66.26c-258.976,150.708 -486.771,112.598 -683.385,-114.331c-146.378,-232.126 -140.315,-459.921 18.189,-683.386c21.653,-25.984 45.905,-49.803 72.755,-71.457c254.646,-164.567 486.772,-136.85 696.378,83.15Z" style="fill:#fff;fill-rule:nonzero;"/>
        </g>
        <path d="M84707.5,5802.14c-101.501,280.142 -162.402,568.811 -182.702,866.006c-74.705,510.753 19.488,988.214 282.579,1432.38c488.016,577.338 1065.76,688.177 1733.23,332.517c138.041,-95.817 253.346,-213.964 345.915,-354.441c367.027,-695.079 243.196,-1287.85 -371.494,-1778.3l-3.654,-2.436c-371.087,-197.318 -742.987,-198.942 -1115.7,-4.872c4.06,-193.258 90.539,-336.984 259.437,-431.177c272.023,-108.809 486.393,-39.788 643.11,207.062l725.935,-270.398l-2.436,-6.09c-135.605,-293.135 -350.787,-506.693 -645.546,-640.675c-735.679,-243.602 -1291.9,-26.796 -1668.68,650.419Zm1476.23,1244.81c142.101,230.61 133.169,455.536 -26.796,674.778c-21.112,22.737 -44.661,43.443 -70.645,62.119c-242.79,141.289 -456.348,105.561 -640.674,-107.185c-137.229,-217.618 -131.545,-431.176 17.052,-640.674c20.3,-24.36 43.037,-46.691 68.209,-66.991c238.73,-154.281 456.348,-128.297 652.854,77.953Z" style="fill:#fff;fill-rule:nonzero;"/>
        <path d="M87577.2,6160.24l772.219,84.043c-2.436,-97.441 24.766,-185.95 81.607,-265.527c11.368,-12.992 23.548,-25.578 36.54,-37.758c285.015,-215.182 559.88,-203.002 824.594,36.54c3.248,4.873 6.09,10.151 8.526,15.835c74.705,193.258 23.955,344.697 -152.251,454.318c-41.413,14.616 -84.449,23.548 -129.109,26.796l-400.726,0l-0,714.973l492.076,0c29.233,4.06 56.841,11.774 82.825,23.142c170.522,94.193 225.332,233.859 164.432,418.997c-45.473,77.14 -106.373,138.853 -182.702,185.137c-296.383,143.726 -542.421,83.637 -738.115,-180.265c-45.473,-72.269 -73.487,-150.628 -84.043,-235.077l-807.542,142.508c18.676,181.889 76.329,350.381 172.958,505.475c57.653,78.764 122.613,151.439 194.882,218.024c695.891,525.369 1367.02,494.512 2013.37,-92.569c259.031,-328.863 303.285,-684.523 132.764,-1066.98c-78.765,-128.297 -182.296,-232.234 -310.593,-311.811c118.553,-75.516 213.152,-174.175 283.796,-295.976c221.679,-481.521 116.524,-876.157 -315.465,-1183.91c-705.635,-427.116 -1351.99,-351.193 -1939.07,227.768c-125.862,185.95 -192.852,391.388 -200.972,616.314Z" style="fill:#fff;fill-rule:nonzero;"/>
        <path d="M90698.9,8563.38l1915.93,-0c308.563,-49.533 546.076,-207.062 712.537,-472.589c260.655,-545.669 146.974,-997.146 -341.043,-1354.43c208.686,-173.77 322.773,-395.854 342.261,-666.253c-22.736,-559.473 -310.999,-880.216 -864.788,-962.229l-1766.12,-3.654l1.218,3459.15Zm800.234,-2120.56l1.218,-615.096l721.063,0c29.232,-1.624 57.246,3.248 84.042,14.616c78.765,34.917 135.2,91.757 169.304,170.522c58.465,185.95 1.624,325.209 -170.522,417.778c-26.796,7.308 -54.404,11.774 -82.824,13.398l-722.281,-1.218Zm2.436,1389.75l-0,-724.717l766.129,0c46.285,-4.872 91.351,1.624 135.199,19.489c129.11,54.404 206.656,150.221 232.641,287.45c12.992,224.927 -89.321,364.592 -306.939,418.996l-827.03,-1.218Z" style="fill:#fff;fill-rule:nonzero;"/>
        <path d="M50541.8,8563.38l2468.91,-0l0,-728.372l-1093.78,0c154.282,-120.989 303.285,-248.068 447.011,-381.237c193.258,-151.846 357.689,-330.487 493.295,-535.925c286.638,-642.299 164.837,-1194.06 -365.404,-1655.28c-741.363,-410.876 -1389.75,-296.383 -1945.16,343.479c-113.681,272.023 -167.679,555.819 -161.995,851.39l816.068,0c0.812,-99.877 8.526,-198.942 23.142,-297.195c47.908,-211.122 177.423,-341.043 388.546,-389.764c293.134,-24.36 479.084,105.561 557.849,389.764c4.06,168.086 -36.946,324.397 -123.019,468.935c-164.838,181.078 -347.54,343.073 -548.106,485.987l-604.133,462.844c-86.885,65.773 -169.304,136.417 -247.257,211.934c-71.457,90.133 -106.779,192.446 -105.967,306.939l0,466.499Z" style="fill:#fff;fill-rule:nonzero;"/>
        <path d="M56491.8,5825.28c-143.726,-287.451 -359.314,-502.227 -646.764,-644.328c-801.452,-299.631 -1424.26,-83.637 -1868.43,647.982c-291.51,666.659 -295.976,1334.94 -13.398,2004.85c146.162,301.255 369.87,524.964 671.125,671.125c811.196,293.947 1436.85,69.833 1876.96,-672.343c265.527,-671.53 259.031,-1340.62 -19.488,-2007.28Zm-605.352,1475.01c-7.308,38.165 -17.458,75.517 -30.45,112.057c-176.206,367.84 -461.221,499.385 -855.045,394.636c-237.106,-90.133 -380.019,-259.03 -428.74,-506.693c-27.608,-235.482 -32.48,-470.964 -14.616,-706.447c4.06,-38.976 6.902,-77.952 8.526,-116.929c22.736,-322.367 188.792,-529.835 498.167,-622.404c59.277,-16.24 119.365,-23.954 180.266,-23.142c400.32,43.848 616.314,266.339 647.982,667.471l1.218,8.526c27.608,263.902 25.172,528.211 -7.308,792.925Z" style="fill:#fff;fill-rule:nonzero;"/>
        <path d="M59979,5825.28c-143.726,-287.451 -359.314,-502.227 -646.765,-644.328c-801.451,-299.631 -1424.26,-83.637 -1868.43,647.982c-291.511,666.659 -295.977,1334.94 -13.398,2004.85c146.162,301.255 369.87,524.964 671.125,671.125c811.196,293.947 1436.85,69.833 1876.96,-672.343c265.526,-671.53 259.03,-1340.62 -19.488,-2007.28Zm-605.352,1475.01c-7.308,38.165 -17.458,75.517 -30.451,112.057c-176.205,367.84 -461.22,499.385 -855.044,394.636c-237.106,-90.133 -380.019,-259.03 -428.74,-506.693c-27.608,-235.482 -32.48,-470.964 -14.616,-706.447c4.06,-38.976 6.902,-77.952 8.526,-116.929c22.736,-322.367 188.792,-529.835 498.167,-622.404c59.276,-16.24 119.365,-23.954 180.266,-23.142c400.319,43.848 616.314,266.339 647.982,667.471l1.218,8.526c27.608,263.902 25.172,528.211 -7.308,792.925Z" style="fill:#fff;fill-rule:nonzero;"/>
        <path d="M62166.6,8560.94l730.807,-0l-0,-1487.19c22.736,-138.041 101.501,-224.926 236.294,-260.654c184.326,-21.925 304.097,55.216 359.314,231.422l-0,1516.42l749.077,-0l-0,-1467.7c17.052,-164.837 107.185,-261.06 270.399,-288.668c182.701,-0 291.104,89.726 325.209,269.18l-0,1487.19l732.025,-0l-2.436,-1716.18c-56.841,-237.106 -182.702,-429.552 -377.584,-577.338c-425.492,-287.45 -823.376,-252.94 -1193.65,103.531c-8.12,-9.744 -16.647,-19.488 -25.579,-29.232c-341.043,-326.427 -703.604,-352.411 -1087.68,-77.953l-85.261,-133.981l-630.93,-0l-0,2431.15Z" style="fill:#fff;fill-rule:nonzero;"/>
        <path d="M22833.6,40103.1l2895.49,-647.894l-3602.36,3602.36l-3602.36,-3602.36l2895.49,647.894l-0,-2124.27l1413.75,-0l0,2124.27Z" style="fill:#fff;"/>
        <path d="M71995.7,40197.5l2895.49,-647.895l-3602.36,3602.36l-3602.36,-3602.36l2895.49,647.895l0,-2124.27l1413.75,0l0,2124.27Z" style="fill:#fff;"/>
        <path d="M135087,4996.77c0,-1825.23 -1481.86,-3307.09 -3307.09,-3307.09l-28598.7,-0c-1825.23,-0 -3307.09,1481.86 -3307.09,3307.09l0,37929.3c0,1825.23 1481.86,3307.09 3307.09,3307.09l28598.7,-0c1825.23,-0 3307.09,-1481.86 3307.09,-3307.09l0,-37929.3Z" style="fill:#fff;"/>
        <path d="M136150,4996.77c-0,-2411.91 -1958.17,-4370.08 -4370.08,-4370.08l-28598.7,-0c-2411.91,-0 -4370.08,1958.17 -4370.08,4370.08l0,37929.3c0,2411.91 1958.17,4370.08 4370.08,4370.08c0,-0 28598.7,-0 28598.7,-0c2411.91,-0 4370.08,-1958.17 4370.08,-4370.08c-0,0 -0,-37929.3 -0,-37929.3Zm-1062.99,0c0,-1825.23 -1481.86,-3307.09 -3307.09,-3307.09l-28598.7,-0c-1825.23,-0 -3307.09,1481.86 -3307.09,3307.09l0,37929.3c0,1825.23 1481.86,3307.09 3307.09,3307.09l28598.7,-0c1825.23,-0 3307.09,-1481.86 3307.09,-3307.09l0,-37929.3Z"/>
        <path d="M136032,4996.77c0,-2346.72 -1905.24,-4251.97 -4251.97,-4251.97l-28598.7,-0c-2346.72,-0 -4251.97,1905.24 -4251.97,4251.97l0,37929.3c0,2346.72 1905.24,4251.97 4251.97,4251.97c0,-0 28598.7,-0 28598.7,-0c2346.72,-0 4251.97,-1905.24 4251.97,-4251.97c0,0 0,-37929.3 0,-37929.3Zm-944.882,0c0,-1825.23 -1481.86,-3307.09 -3307.09,-3307.09l-28598.7,-0c-1825.23,-0 -3307.09,1481.86 -3307.09,3307.09l0,37929.3c0,1825.23 1481.86,3307.09 3307.09,3307.09l28598.7,-0c1825.23,-0 3307.09,-1481.86 3307.09,-3307.09l0,-37929.3Z" style="fill:#fff;"/>
        <path d="M135087,17165.6c0,-1825.23 -1481.86,-3307.09 -3307.09,-3307.09l-28598.7,-0c-1825.23,-0 -3307.09,1481.86 -3307.09,3307.09l0,25760.5c0,1825.23 1481.86,3307.09 3307.09,3307.09l28598.7,-0c1825.23,-0 3307.09,-1481.86 3307.09,-3307.09l0,-25760.5Z" style="fill:none;stroke:#000;stroke-width:944.88px;"/>
        <path d="M135087,4996.77c0,-1825.23 -1481.86,-3307.09 -3307.09,-3307.09l-28598.7,-0c-1825.23,-0 -3307.09,1481.86 -3307.09,3307.09l0,3705.72c0,1825.23 1481.86,3307.09 3307.09,3307.09l28598.7,0c1825.23,0 3307.09,-1481.86 3307.09,-3307.09l0,-3705.72Z" style="fill:none;stroke:#000;stroke-width:944.88px;"/>
        <path d="M105911,3578.78l-830.885,0l-2238.63,6832.49l2769,-0l300.518,-6832.49Zm1873.52,1945.83l1972.83,-1265.43l-1584.74,-680.396l2885.3,0l-0,2934.5l-660.797,-1638.7l-2062.8,2328.06l1051.3,3208.64l-2769,-0l-300.517,-6832.49l830.884,0l637.541,1945.83Z"/>
        <g>
            <rect x="109938" y="19872.6" width="15259.9" height="5210.5" style="fill:#f00;"/>
            <path d="M125489,25083.1l0,-5502.16l-15843.2,0l0,5793.83l15843.2,-0l0,-291.667Zm-291.666,-5210.5l-15259.9,-0l0,5210.5l15259.9,0l-0,-5210.5Z" style="fill:#fff;"/>
            <path d="M111100,24305.8l867.874,-0l1.299,-2303.5l1507.09,2294.41l5.197,9.095l939.33,-0l1.3,-3688.47l-836.693,-0l-1.3,2369.76l-1582.44,-2371.06l-902.952,-0l1.299,3689.76Z" style="fill:#fff;fill-rule:nonzero;"/>
            <rect x="114993" y="22655.8" width="1273.23" height="682.087" style="fill:#fff;fill-rule:nonzero;"/>
            <path d="M118291,24303.2l1.299,-3684.57l-754.843,0l0,161.103c-32.913,209.606 -154.606,327.834 -365.078,354.685l-333.898,1.299l-0,765.236l632.716,-1.299l0,2403.54l819.804,0Z" style="fill:#fff;fill-rule:nonzero;"/>
            <path d="M120316,24303.2l1.299,-3684.57l-754.842,0l-0,161.103c-32.914,209.606 -154.607,327.834 -365.079,354.685l-333.898,1.299l0,765.236l632.717,-1.299l-0,2403.54l819.803,0Z" style="fill:#fff;fill-rule:nonzero;"/>
            <path d="M124039,21385.2c-153.307,-306.615 -383.268,-535.709 -689.882,-687.284c-854.882,-319.606 -1519.21,-89.212 -1992.99,691.181c-310.945,711.103 -315.709,1423.94 -14.291,2138.5c155.905,321.339 394.527,559.961 715.866,715.866c865.276,313.544 1532.64,74.488 2002.09,-717.165c283.228,-716.299 276.299,-1430 -20.788,-2141.1Zm-645.708,1573.35c-7.796,40.709 -18.623,80.551 -32.481,119.528c-187.953,392.362 -491.968,532.677 -912.047,420.944c-252.913,-96.141 -405.354,-276.299 -457.323,-540.472c-29.449,-251.181 -34.646,-502.362 -15.59,-753.543c4.33,-41.575 7.362,-83.15 9.094,-124.725c24.252,-343.858 201.378,-565.157 531.378,-663.897c63.228,-17.323 127.323,-25.551 192.283,-24.685c427.008,46.771 657.402,284.094 691.182,711.968l1.299,9.095c29.449,281.496 26.85,563.425 -7.795,845.787Z" style="fill:#fff;fill-rule:nonzero;"/>
        </g>
        <path d="M103428,32061.4c116.933,145.083 248.482,275.008 394.647,389.775l9.745,8.12c155.91,125.594 324.271,232.241 505.083,319.94l8.12,3.249c822.859,419.008 1643.01,415.218 2460.45,-11.369c197.053,-119.098 354.587,-277.173 472.602,-474.226c354.046,-751.4 195.429,-1371.25 -475.85,-1859.55c-262.016,-165.654 -544.602,-279.338 -847.761,-341.053c-201.383,-62.797 -406.557,-112.602 -615.519,-149.414c-153.745,-33.564 -243.61,-128.301 -269.595,-284.211c-3.248,-198.135 92.03,-316.692 285.835,-355.669c200.301,-45.474 400.061,-42.226 599.279,9.744c303.159,70.376 567.339,212.752 792.543,427.129l6.496,-6.497l745.445,-688.602c-214.377,-186.226 -444.452,-348.632 -690.227,-487.219c-734.076,-326.978 -1477.36,-349.173 -2229.84,-66.586c-97.443,36.812 -186.226,88.24 -266.346,154.285c-93.113,77.955 -174.316,167.82 -243.609,269.595c-388.693,710.257 -270.677,1322.53 354.045,1836.82c280.422,181.895 586.828,293.413 919.22,334.556l6.496,3.249l605.775,170.526c144,38.978 236.572,129.384 277.715,271.219c34.647,225.203 -55.218,375.699 -269.594,451.489l-4.873,3.248c-202.466,61.714 -406.557,65.504 -612.271,11.368c-427.67,-66.045 -776.302,-268.511 -1045.9,-607.399l-872.122,667.49Z" style="fill-rule:nonzero;"/>
        <path d="M108076,33000.1l3361.81,-0l0,-1002.05l-2312.66,0l0,-865.625l1867.67,0l0,-1002.05l-1867.67,0l0,-797.414l2088.55,-0l-0,-943.581l-3137.69,0l-0,4610.71Z" style="fill-rule:nonzero;"/>
        <path d="M115376,32785.8l112.06,212.752l760.061,-0l-12.992,-2718.68l-2025.21,0l-0,971.19l1115.73,-0c-14.075,102.857 -41.143,202.466 -81.203,298.827c-121.264,271.76 -320.482,462.317 -597.655,571.67c-622.558,171.068 -1075.67,-33.564 -1359.34,-613.896c-49.804,-192.722 -81.203,-388.692 -94.195,-587.91l-0,-459.61c16.24,-200.301 51.97,-397.354 107.188,-591.159c113.684,-246.857 295.038,-425.504 544.061,-535.94c612.813,-199.219 1074.05,-16.241 1383.7,548.933l967.941,-433.625c-205.714,-388.692 -502.376,-688.061 -889.986,-898.106c-1207.22,-505.625 -2171.37,-212.753 -2892.45,878.617c-403.85,879.16 -396.271,1755.07 22.737,2627.73c1.082,1.082 1.624,2.706 1.624,4.872c779.55,1052.39 1758.86,1293.84 2937.93,724.332Z" style="fill-rule:nonzero;"/>
        <path d="M116624,30063.8c-79.038,432.001 -73.624,862.918 16.24,1292.75c233.865,886.738 793.626,1448.12 1679.28,1684.15c1346.89,172.151 2230.38,-387.609 2650.47,-1679.28l1.624,-4.872c75.79,-428.753 77.955,-858.047 6.496,-1287.88l-1.624,-8.12c-232.782,-911.641 -804.993,-1483.31 -1716.63,-1715.01c-1353.38,-154.828 -2232,417.925 -2635.85,1718.26Zm1161.2,19.489c112.601,-390.858 363.79,-643.129 753.565,-756.813c630.136,-98.527 1052.39,152.661 1266.77,753.565c113.685,428.752 102.316,854.256 -34.105,1276.51l-3.248,11.368c-120.181,305.324 -334.557,513.745 -643.129,625.264c-617.144,145.083 -1055.1,-72.541 -1313.87,-652.873c-118.016,-416.843 -126.677,-835.851 -25.985,-1257.02Z" style="fill-rule:nonzero;"/>
        <path d="M122473,32998.5l1240.78,-0l1203.43,-4612.34l-1034.53,0l-794.166,2946.05l-799.039,-2946.05l-1076.75,0l1260.27,4612.34Z" style="fill-rule:nonzero;"/>
        <rect x="125428" y="28389.4" width="1067.01" height="4612.34" style="fill-rule:nonzero;"/>
        <path d="M127019,32998.5l1092.99,-0l222.497,-690.227l1674.41,1.624l216,688.603l1127.1,-0l-1546.11,-4610.71l-1252.15,-1.624l-1534.74,4612.34Zm1679.28,-1719.88l518.075,-1598.08l519.7,1598.08l-1037.78,-0Z" style="fill-rule:nonzero;"/>
        <path d="M123306,5744.63c-101.501,280.143 -162.401,568.811 -182.701,866.006c-74.705,510.753 19.488,988.214 282.578,1432.38c488.017,577.338 1065.76,688.177 1733.23,332.517c138.041,-95.817 253.347,-213.964 345.915,-354.441c367.028,-695.079 243.197,-1287.85 -371.493,-1778.3l-3.654,-2.436c-371.088,-197.318 -742.987,-198.942 -1115.7,-4.872c4.06,-193.258 90.539,-336.984 259.436,-431.177c272.023,-108.809 486.393,-39.788 643.111,207.062l725.935,-270.398l-2.436,-6.09c-135.606,-293.135 -350.788,-506.693 -645.547,-640.674c-735.679,-243.603 -1291.9,-26.797 -1668.68,650.418Zm1476.23,1244.81c142.101,230.61 133.169,455.536 -26.797,674.778c-21.112,22.737 -44.66,43.443 -70.644,62.119c-242.791,141.289 -456.349,105.561 -640.675,-107.185c-137.229,-217.618 -131.545,-431.176 17.053,-640.674c20.3,-24.36 43.036,-46.691 68.208,-66.991c238.731,-154.281 456.349,-128.297 652.855,77.953Z" style="fill-rule:nonzero;"/>
        <path d="M126176,6102.72l772.22,84.043c-2.436,-97.441 24.766,-185.95 81.606,-265.526c11.369,-12.993 23.549,-25.579 36.541,-37.759c285.015,-215.182 559.879,-203.002 824.594,36.541c3.248,4.872 6.09,10.15 8.526,15.834c74.705,193.258 23.954,344.697 -152.252,454.318c-41.412,14.616 -84.448,23.548 -129.109,26.796l-400.726,0l0,714.973l492.077,0c29.232,4.06 56.841,11.774 82.825,23.143c170.521,94.192 225.332,233.858 164.431,418.996c-45.472,77.14 -106.373,138.853 -182.701,185.137c-296.383,143.726 -542.422,83.637 -738.116,-180.265c-45.472,-72.269 -73.486,-150.628 -84.042,-235.077l-807.542,142.508c18.676,181.89 76.329,350.381 172.958,505.475c57.652,78.764 122.613,151.439 194.881,218.024c695.891,525.369 1367.02,494.513 2013.37,-92.569c259.03,-328.863 303.285,-684.523 132.763,-1066.98c-78.765,-128.298 -182.296,-232.235 -310.593,-311.811c118.553,-75.517 213.152,-174.176 283.797,-295.977c221.678,-481.521 116.523,-876.157 -315.465,-1183.91c-705.635,-427.116 -1351.99,-351.193 -1939.08,227.768c-125.861,185.95 -192.852,391.388 -200.972,616.314Z" style="fill-rule:nonzero;"/>
        <path d="M129296,8505.86l819.722,-0l166.868,-517.655l1255.77,1.218l161.996,516.437l845.3,-0l-1159.55,-3457.94l-939.087,-1.218l-1151.02,3459.15Zm1259.42,-1289.88l388.545,-1198.52l389.764,1198.52l-778.309,0Z" style="fill-rule:nonzero;"/>
        <path d="M118398,40512.3l1590.01,-2504.82l-0,5094.51l-5094.51,0l2504.82,-1590.01l-2500.06,-2500.06l999.672,-999.672l2500.06,2500.06Z"/>
        <g>
            <path d="M72011.9,32995.6l1092.96,-0l222.49,-690.207l1674.36,1.624l215.994,688.583l1127.07,-0l-1546.06,-4610.58l-1252.12,-1.624l-1534.69,4612.2Zm1679.23,-1719.83l518.061,-1598.03l519.685,1598.03l-1037.75,-0Z" style="fill:#fff;fill-rule:nonzero;"/>
            <path d="M76284.7,29630.6l1146.56,3364.96l1164.42,-0l4.872,-1.625l1040.99,-3363.34l-1075.1,-0l-573.278,1904.97l0,9.744l-628.494,-1914.71l-1079.97,-0Z" style="fill:#fff;fill-rule:nonzero;"/>
            <path d="M80274.9,32993.9l1070.23,0l-0,-3342.22l-1070.23,0l0,3342.22Zm427.117,-4644.69c-349.705,112.599 -501.821,350.788 -456.349,714.567c111.516,348.622 349.163,500.739 712.943,456.349c348.622,-111.516 500.738,-349.164 456.348,-712.943c-111.515,-349.705 -349.163,-502.362 -712.942,-457.973Z" style="fill:#fff;fill-rule:nonzero;"/>
            <path d="M81884.3,32123.5c-2.165,467.717 218.159,775.738 660.974,924.065c352.953,63.878 702.117,48.179 1047.49,-47.096l-92.569,-963.042c-131.004,69.292 -270.128,97.441 -417.372,84.449l-3.248,0c-94.193,-19.488 -140.748,-77.411 -139.666,-173.77l1.624,-3519.24l-1062.11,-1.624l-0,3691.39l4.872,4.872Z" style="fill:#fff;fill-rule:nonzero;"/>
            <path d="M87511.6,32258.3c-85.532,2.166 -169.981,-6.496 -253.347,-25.984c-80.118,-33.563 -119.094,-94.193 -116.929,-181.89l-0,-1421.01c-11.909,-460.138 -236.024,-765.453 -672.343,-915.945c-805.511,-262.008 -1539.57,-129.38 -2202.16,397.884l485.581,774.655c126.673,-120.177 270.128,-215.453 430.364,-285.827c213.287,-97.441 435.778,-127.756 667.47,-90.945c51.969,11.91 100.689,30.857 146.162,56.841c56.299,32.48 92.569,80.118 108.809,142.913c3.248,27.067 -5.955,48.721 -27.608,64.961c-40.059,15.157 -81.201,25.984 -123.426,32.48l-872.096,151.034c-395.177,105.019 -669.636,346.998 -823.376,725.935c-126.673,617.126 97.441,1056.15 672.343,1317.08c505.61,174.311 970.078,97.982 1393.4,-228.987c228.445,228.445 503.986,331.841 826.624,310.187l360.532,-823.376Zm-2156.69,-115.305c-42.225,-25.984 -72.54,-62.795 -90.945,-110.433c-33.563,-126.673 9.203,-218.159 128.297,-274.458c33.563,-14.075 68.209,-24.902 103.937,-32.481c201.378,-31.397 401.132,-69.291 599.262,-113.681l-1.624,339.419c-24.902,82.284 -75.246,143.455 -151.034,183.514c-194.882,95.276 -390.846,97.982 -587.893,8.12Z" style="fill:#fff;fill-rule:nonzero;"/>
            <path d="M73910.2,27969.8l683.655,0l599.735,-1271.69l-1016.91,-0l-266.482,1271.69Z" style="fill:#fff;"/>
        </g>
        <g>
            <rect x="54721.6" y="27945.6" width="15259.9" height="5210.5" style="fill:#f00;"/>
            <path d="M70273.1,33447.7l0,-5793.83l-15843.2,-0l0,5793.83l15843.2,-0Zm-291.667,-5502.16l-15259.9,-0l-0,5210.5l15259.9,-0l0,-5210.5Z" style="fill:#fff;"/>
            <path d="M55883.4,32378.8l867.874,0l1.299,-2303.5l1507.09,2294.41l5.197,9.094l939.331,0l1.299,-3688.46l-836.693,-0l-1.299,2369.76l-1582.44,-2371.06l-902.953,-0l1.3,3689.76Z" style="fill:#fff;fill-rule:nonzero;"/>
            <rect x="59777.1" y="30728.8" width="1273.23" height="682.087" style="fill:#fff;fill-rule:nonzero;"/>
            <path d="M63074.5,32376.2l1.3,-3684.57l-754.843,0l0,161.102c-32.913,209.607 -154.606,327.835 -365.079,354.685l-333.897,1.3l-0,765.236l632.716,-1.299l0,2403.54l819.803,-0Z" style="fill:#fff;fill-rule:nonzero;"/>
            <path d="M65100,32376.2l1.299,-3684.57l-754.843,0l0,161.102c-32.913,209.607 -154.606,327.835 -365.078,354.685l-333.898,1.3l0,765.236l632.717,-1.299l-0,2403.54l819.803,-0Z" style="fill:#fff;fill-rule:nonzero;"/>
            <path d="M68822.2,29458.2c-153.307,-306.614 -383.268,-535.708 -689.882,-687.283c-854.882,-319.606 -1519.21,-89.213 -1992.99,691.181c-310.945,711.102 -315.709,1423.94 -14.291,2138.5c155.905,321.339 394.527,559.961 715.866,715.866c865.275,313.543 1532.64,74.488 2002.09,-717.165c283.229,-716.299 276.299,-1430 -20.787,-2141.1Zm-645.709,1573.35c-7.795,40.709 -18.622,80.551 -32.48,119.527c-187.953,392.363 -491.969,532.678 -912.047,420.945c-252.914,-96.141 -405.355,-276.299 -457.323,-540.472c-29.449,-251.181 -34.646,-502.362 -15.591,-753.543c4.331,-41.575 7.362,-83.15 9.095,-124.725c24.252,-343.858 201.378,-565.157 531.378,-663.897c63.228,-17.323 127.323,-25.552 192.283,-24.685c427.008,46.771 657.402,284.094 691.181,711.968l1.299,9.095c29.449,281.496 26.851,563.425 -7.795,845.787Z" style="fill:#fff;fill-rule:nonzero;"/>
        </g>
    </g>
</svg>
