<?xml version="1.0" encoding="UTF-8" standalone="no"?>
<!DOCTYPE svg PUBLIC "-//W3C//DTD SVG 1.1//EN" "http://www.w3.org/Graphics/SVG/1.1/DTD/svg11.dtd">
<svg width="100%" height="100%" viewBox="0 0 169972 72843" version="1.1" xmlns="http://www.w3.org/2000/svg" xmlns:xlink="http://www.w3.org/1999/xlink" xml:space="preserve" style="fill-rule:evenodd;clip-rule:evenodd;stroke-linecap:round;stroke-linejoin:round;stroke-miterlimit:1.5;">
    <g id="g4799">
        <path d="M59310.7,15553.5c0,-1825.23 -1481.86,-3307.09 -3307.09,-3307.09l-50535,0c-1825.23,0 -3307.09,1481.86 -3307.09,3307.09l0,52229c0,1825.23 1481.86,3307.09 3307.09,3307.09l50535,0c1825.23,0 3307.09,-1481.86 3307.09,-3307.09l0,-52229Z" style="fill:#003fff;"/>
        <path d="M60373.7,15553.5c0,-2411.91 -1958.17,-4370.08 -4370.08,-4370.08l-50535,-0c-2411.91,-0 -4370.08,1958.17 -4370.08,4370.08l0,52229c0,2411.91 1958.17,4370.08 4370.08,4370.08l50535,0c2411.91,0 4370.08,-1958.17 4370.08,-4370.08l0,-52229Zm-1062.99,-0c0,-1825.23 -1481.86,-3307.09 -3307.09,-3307.09l-50535,0c-1825.23,0 -3307.09,1481.86 -3307.09,3307.09l0,52229c0,1825.23 1481.86,3307.09 3307.09,3307.09l50535,0c1825.23,0 3307.09,-1481.86 3307.09,-3307.09l0,-52229Z"/>
        <path d="M60255.6,15553.5c0,-2346.73 -1905.24,-4251.97 -4251.97,-4251.97l-50535,0c-2346.72,0 -4251.97,1905.24 -4251.97,4251.97l0,52229c0,2346.72 1905.24,4251.97 4251.97,4251.97l50535,0c2346.73,0 4251.97,-1905.24 4251.97,-4251.97l0,-52229Zm-944.882,-0c0,-1825.23 -1481.86,-3307.09 -3307.09,-3307.09l-50535,0c-1825.23,0 -3307.09,1481.86 -3307.09,3307.09l0,52229c0,1825.23 1481.86,3307.09 3307.09,3307.09l50535,0c1825.23,0 3307.09,-1481.86 3307.09,-3307.09l0,-52229Z" style="fill:#003fff;"/>
        <path d="M59310.7,15553.5c0,-1825.23 -1481.86,-3307.09 -3307.09,-3307.09l-50535,0c-1825.23,0 -3307.09,1481.86 -3307.09,3307.09l0,52229c0,1825.23 1481.86,3307.09 3307.09,3307.09l50535,0c1825.23,0 3307.09,-1481.86 3307.09,-3307.09l0,-52229Z" style="fill:none;stroke:#fff;stroke-width:944.88px;"/>
        <g>
            <path d="M131994,4473.26c-0,-1460.18 -1185.49,-2645.67 -2645.67,-2645.67l-11981.9,-0c-1460.18,-0 -2645.67,1185.48 -2645.67,2645.67l0,2937.89c0,1460.18 1185.49,2645.67 2645.67,2645.67l11981.9,0c1460.18,0 2645.67,-1185.48 2645.67,-2645.67l-0,-2937.89Z" style="fill:#039900;"/>
            <path d="M132868,4473.26c-0,-1942.57 -1577.12,-3519.68 -3519.68,-3519.68c-0,-0 -11981.9,-0 -11981.9,-0c-1942.57,-0 -3519.69,1577.12 -3519.69,3519.68l0,2937.89c0,1942.57 1577.12,3519.68 3519.69,3519.68l11981.9,0c1942.57,0 3519.68,-1577.12 3519.68,-3519.68l-0,-2937.89Zm-874.016,-0c-0,-1460.18 -1185.49,-2645.67 -2645.67,-2645.67l-11981.9,-0c-1460.18,-0 -2645.67,1185.48 -2645.67,2645.67l0,2937.89c0,1460.18 1185.49,2645.67 2645.67,2645.67l11981.9,0c1460.18,0 2645.67,-1185.48 2645.67,-2645.67l-0,-2937.89Z"/>
            <path d="M132750,4473.26c0,-1877.38 -1524.19,-3401.58 -3401.57,-3401.58c-0,0 -11981.9,0 -11981.9,0c-1877.38,0 -3401.58,1524.19 -3401.58,3401.58l-0,2937.89c-0,1877.38 1524.19,3401.58 3401.58,3401.58l11981.9,-0c1877.38,-0 3401.57,-1524.19 3401.57,-3401.58l0,-2937.89Zm-755.905,-0c-0,-1460.18 -1185.49,-2645.67 -2645.67,-2645.67l-11981.9,-0c-1460.18,-0 -2645.67,1185.48 -2645.67,2645.67l0,2937.89c0,1460.18 1185.49,2645.67 2645.67,2645.67l11981.9,0c1460.18,0 2645.67,-1185.48 2645.67,-2645.67l-0,-2937.89Z" style="fill:#039900;"/>
            <path d="M131994,4473.26c-0,-1460.18 -1185.49,-2645.67 -2645.67,-2645.67l-11981.9,-0c-1460.18,-0 -2645.67,1185.48 -2645.67,2645.67l0,2937.89c0,1460.18 1185.49,2645.67 2645.67,2645.67l11981.9,0c1460.18,0 2645.67,-1185.48 2645.67,-2645.67l-0,-2937.89Z" style="fill:none;stroke:#fff;stroke-width:755.91px;"/>
            <path d="M117629,7771.5l2689.37,-0l-0,-801.614l-1850.08,-0l0,-692.481l1494.1,0l-0,-801.614l-1494.1,0l0,-637.913l1670.79,-0l0,-754.843l-2510.08,0l-0,3688.47Z" style="fill:#fff;fill-rule:nonzero;"/>
            <rect x="120838" y="6120.2" width="1273.23" height="682.087" style="fill:#fff;fill-rule:nonzero;"/>
            <path d="M125585,7029.65c73.622,-209.606 125.59,-424.409 155.905,-644.409c77.087,-518.819 25.984,-1025.08 -153.307,-1518.78c-116.929,-265.039 -291.024,-484.606 -522.283,-658.7c-504.961,-303.15 -1004.73,-295.788 -1499.29,22.086c-145.512,103.937 -266.771,231.693 -363.779,383.268c-381.103,747.48 -239.922,1378.03 423.543,1891.65l3.898,2.598c399.291,205.276 796.417,201.378 1191.38,-11.693c-2.599,206.142 -93.111,360.748 -271.536,463.819c-288.425,119.527 -517.953,48.937 -688.582,-211.772l-770.434,300.118l2.599,6.496c148.11,314.41 381.102,542.638 698.976,684.685c793.386,258.111 1391.02,21.654 1792.91,-709.37Zm-1617.52,-1326.5c-155.039,-243.385 -148.976,-483.307 18.189,-719.763c22.52,-24.252 47.205,-46.772 74.055,-67.559c257.244,-154.174 485.906,-119.528 685.984,103.937c149.843,230.393 146.811,458.622 -9.094,684.685c-21.654,25.984 -45.473,49.803 -71.457,71.456c-252.047,168.898 -484.606,144.646 -697.677,-72.756Z" style="fill:#fff;fill-rule:nonzero;"/>
            <path d="M129087,4849.57c-153.307,-306.614 -383.268,-535.709 -689.882,-687.284c-854.882,-319.606 -1519.21,-89.212 -1992.99,691.181c-310.945,711.103 -315.709,1423.94 -14.292,2138.5c155.906,321.339 394.528,559.961 715.866,715.866c865.276,313.544 1532.64,74.489 2002.09,-717.165c283.228,-716.299 276.299,-1430 -20.787,-2141.1Zm-645.709,1573.35c-7.795,40.709 -18.622,80.551 -32.48,119.528c-187.953,392.362 -491.969,532.677 -912.048,420.945c-252.913,-96.142 -405.354,-276.3 -457.322,-540.473c-29.449,-251.181 -34.646,-502.362 -15.591,-753.543c4.331,-41.575 7.362,-83.15 9.094,-124.725c24.252,-343.858 201.378,-565.157 531.378,-663.897c63.229,-17.323 127.323,-25.551 192.284,-24.685c427.008,46.771 657.401,284.094 691.181,711.968l1.299,9.095c29.449,281.496 26.851,563.425 -7.795,845.787Z" style="fill:#fff;fill-rule:nonzero;"/>
        </g>
        <g>
            <path d="M152967,4473.26c0,-1460.18 -1185.48,-2645.67 -2645.67,-2645.67l-13741.4,-0c-1460.18,-0 -2645.67,1185.48 -2645.67,2645.67l0,2937.89c0,1460.18 1185.49,2645.67 2645.67,2645.67l13741.4,0c1460.18,0 2645.67,-1185.48 2645.67,-2645.67l0,-2937.89Z" style="fill:#039900;"/>
            <path d="M153841,4473.26c0,-1942.57 -1577.12,-3519.68 -3519.68,-3519.68c0,-0 -13741.4,-0 -13741.4,-0c-1942.57,-0 -3519.68,1577.12 -3519.68,3519.68c0,-0 0,2937.89 0,2937.89c0,1942.57 1577.12,3519.68 3519.68,3519.68l13741.4,0c1942.57,0 3519.68,-1577.12 3519.68,-3519.68l0,-2937.89Zm-874.016,-0c0,-1460.18 -1185.48,-2645.67 -2645.67,-2645.67l-13741.4,-0c-1460.18,-0 -2645.67,1185.48 -2645.67,2645.67l0,2937.89c0,1460.18 1185.49,2645.67 2645.67,2645.67l13741.4,0c1460.18,0 2645.67,-1185.48 2645.67,-2645.67l0,-2937.89Z"/>
            <path d="M153723,4473.26c-0,-1877.38 -1524.19,-3401.58 -3401.58,-3401.58c0,0 -13741.4,0 -13741.4,0c-1877.38,0 -3401.57,1524.19 -3401.57,3401.58c-0,-0 -0,2937.89 -0,2937.89c-0,1877.38 1524.19,3401.58 3401.57,3401.58l13741.4,-0c1877.38,-0 3401.58,-1524.19 3401.58,-3401.58l-0,-2937.89Zm-755.906,-0c0,-1460.18 -1185.48,-2645.67 -2645.67,-2645.67l-13741.4,-0c-1460.18,-0 -2645.67,1185.48 -2645.67,2645.67l0,2937.89c0,1460.18 1185.49,2645.67 2645.67,2645.67l13741.4,0c1460.18,0 2645.67,-1185.48 2645.67,-2645.67l0,-2937.89Z" style="fill:#039900;"/>
            <path d="M152967,4473.26c0,-1460.18 -1185.48,-2645.67 -2645.67,-2645.67l-13741.4,-0c-1460.18,-0 -2645.67,1185.48 -2645.67,2645.67l0,2937.89c0,1460.18 1185.49,2645.67 2645.67,2645.67l13741.4,0c1460.18,0 2645.67,-1185.48 2645.67,-2645.67l0,-2937.89Z" style="fill:none;stroke:#fff;stroke-width:755.91px;"/>
            <path d="M136736,7771.5l2689.37,-0l-0,-801.614l-1850.08,-0l-0,-692.481l1494.09,0l0,-801.614l-1494.09,0l-0,-637.913l1670.79,-0l0,-754.843l-2510.08,0l0,3688.47Z" style="fill:#fff;fill-rule:nonzero;"/>
            <rect x="139945" y="6120.2" width="1273.23" height="682.087" style="fill:#fff;fill-rule:nonzero;"/>
            <path d="M144692,7029.65c73.622,-209.606 125.591,-424.409 155.906,-644.409c77.087,-518.819 25.984,-1025.08 -153.307,-1518.78c-116.929,-265.039 -291.024,-484.606 -522.284,-658.7c-504.96,-303.15 -1004.72,-295.788 -1499.29,22.086c-145.512,103.937 -266.772,231.693 -363.78,383.268c-381.102,747.48 -239.921,1378.03 423.544,1891.65l3.897,2.598c399.292,205.276 796.418,201.378 1191.38,-11.693c-2.598,206.142 -93.11,360.748 -271.535,463.819c-288.425,119.527 -517.953,48.937 -688.583,-211.772l-770.433,300.118l2.599,6.496c148.11,314.41 381.102,542.638 698.976,684.685c793.386,258.111 1391.02,21.654 1792.91,-709.37Zm-1617.52,-1326.5c-155.04,-243.385 -148.977,-483.307 18.189,-719.763c22.519,-24.252 47.204,-46.772 74.055,-67.559c257.244,-154.174 485.905,-119.528 685.984,103.937c149.843,230.393 146.811,458.622 -9.094,684.685c-21.654,25.984 -45.473,49.803 -71.457,71.456c-252.047,168.898 -484.606,144.646 -697.677,-72.756Z" style="fill:#fff;fill-rule:nonzero;"/>
            <path d="M148194,4849.57c-153.307,-306.614 -383.267,-535.709 -689.882,-687.284c-854.881,-319.606 -1519.21,-89.212 -1992.99,691.181c-310.945,711.103 -315.708,1423.94 -14.291,2138.5c155.905,321.339 394.528,559.961 715.866,715.866c865.276,313.544 1532.64,74.489 2002.09,-717.165c283.228,-716.299 276.299,-1430 -20.788,-2141.1Zm-645.708,1573.35c-7.796,40.709 -18.622,80.551 -32.481,119.528c-187.952,392.362 -491.968,532.677 -912.047,420.945c-252.913,-96.142 -405.354,-276.3 -457.323,-540.473c-29.449,-251.181 -34.645,-502.362 -15.59,-753.543c4.33,-41.575 7.362,-83.15 9.094,-124.725c24.252,-343.858 201.378,-565.157 531.378,-663.897c63.229,-17.323 127.323,-25.551 192.284,-24.685c427.008,46.771 657.401,284.094 691.181,711.968l1.299,9.095c29.449,281.496 26.85,563.425 -7.795,845.787Z" style="fill:#fff;fill-rule:nonzero;"/>
            <path d="M150164,7767.6l1.299,-3684.57l-754.842,0l-0,161.103c-32.914,209.606 -154.607,327.834 -365.079,354.685l-333.898,1.299l0,765.236l632.717,-1.299l-0,2403.54l819.803,0Z" style="fill:#fff;fill-rule:nonzero;"/>
        </g>
        <g>
            <path d="M167944,4473.26c-0,-1460.18 -1185.49,-2645.67 -2645.67,-2645.67l-7798.47,-0c-1460.18,-0 -2645.67,1185.48 -2645.67,2645.67l-0,2937.89c-0,1460.18 1185.48,2645.67 2645.67,2645.67l7798.47,0c1460.18,0 2645.67,-1185.48 2645.67,-2645.67l-0,-2937.89Z" style="fill:#039900;"/>
            <path d="M168818,4473.26c0,-1942.57 -1577.12,-3519.68 -3519.68,-3519.68c-0,-0 -7798.47,-0 -7798.47,-0c-1942.57,-0 -3519.68,1577.12 -3519.68,3519.68l-0,2937.89c-0,1942.57 1577.12,3519.68 3519.68,3519.68l7798.47,0c1942.57,0 3519.68,-1577.12 3519.68,-3519.68l0,-2937.89Zm-874.015,-0c-0,-1460.18 -1185.49,-2645.67 -2645.67,-2645.67l-7798.47,-0c-1460.18,-0 -2645.67,1185.48 -2645.67,2645.67l-0,2937.89c-0,1460.18 1185.48,2645.67 2645.67,2645.67l7798.47,0c1460.18,0 2645.67,-1185.48 2645.67,-2645.67l-0,-2937.89Z"/>
            <path d="M168700,4473.26c0,-1877.38 -1524.19,-3401.58 -3401.57,-3401.58c-0,0 -7798.47,0 -7798.47,0c-1877.38,0 -3401.58,1524.19 -3401.58,3401.58l0,2937.89c0,1877.38 1524.19,3401.58 3401.58,3401.58l7798.47,-0c1877.38,-0 3401.57,-1524.19 3401.57,-3401.58l0,-2937.89Zm-755.905,-0c-0,-1460.18 -1185.49,-2645.67 -2645.67,-2645.67l-7798.47,-0c-1460.18,-0 -2645.67,1185.48 -2645.67,2645.67l-0,2937.89c-0,1460.18 1185.48,2645.67 2645.67,2645.67l7798.47,0c1460.18,0 2645.67,-1185.48 2645.67,-2645.67l-0,-2937.89Z" style="fill:#039900;"/>
            <path d="M167944,4473.26c-0,-1460.18 -1185.49,-2645.67 -2645.67,-2645.67l-7798.47,-0c-1460.18,-0 -2645.67,1185.48 -2645.67,2645.67l-0,2937.89c-0,1460.18 1185.48,2645.67 2645.67,2645.67l7798.47,0c1460.18,0 2645.67,-1185.48 2645.67,-2645.67l-0,-2937.89Z" style="fill:none;stroke:#fff;stroke-width:755.91px;"/>
            <path d="M157513,7771.5l2689.37,-0l-0,-801.614l-1850.08,-0l0,-692.481l1494.1,0l-0,-801.614l-1494.1,0l0,-637.913l1670.79,-0l-0,-754.843l-2510.08,0l-0,3688.47Z" style="fill:#fff;fill-rule:nonzero;"/>
            <rect x="160722" y="6120.2" width="1273.23" height="682.087" style="fill:#fff;fill-rule:nonzero;"/>
            <path d="M162515,6793.19c153.307,513.622 487.205,847.519 1001.69,1001.69c849.685,142.047 1423.07,-191.418 1720.16,-1000.39c76.22,-297.953 60.197,-590.709 -48.071,-878.268c-0.866,-2.598 -2.166,-5.63 -3.898,-9.094c-379.37,-711.103 -953.622,-946.26 -1722.76,-705.473l44.174,-344.291l1590.24,-0l-1.299,-778.228l-2302.2,-0l-241.654,1916.34l866.575,141.614l9.095,-10.393c43.307,-73.622 100.905,-132.52 172.795,-176.693c278.897,-137.717 511.89,-82.284 698.976,166.299c122.126,219.134 125.591,440.866 10.394,665.197c-88.347,125.59 -208.307,201.378 -359.882,227.362c-329.134,21.654 -534.843,-126.89 -617.126,-445.63l-817.205,229.961Z" style="fill:#fff;fill-rule:nonzero;"/>
        </g>
        <g>
            <path d="M96317.7,4473.26c-0,-1460.18 -1185.49,-2645.67 -2645.67,-2645.67l-11981.9,-0c-1460.18,-0 -2645.67,1185.48 -2645.67,2645.67l0,2937.89c0,1460.18 1185.49,2645.67 2645.67,2645.67l11981.9,0c1460.18,0 2645.67,-1185.48 2645.67,-2645.67l-0,-2937.89Z" style="fill:#039900;"/>
            <path d="M97191.7,4473.26c-0,-1942.57 -1577.12,-3519.68 -3519.69,-3519.68c0,-0 -11981.9,-0 -11981.9,-0c-1942.57,-0 -3519.68,1577.12 -3519.68,3519.68l0,2937.89c0,1942.57 1577.12,3519.68 3519.68,3519.68l11981.9,0c1942.57,0 3519.69,-1577.12 3519.69,-3519.68l-0,-2937.89Zm-874.016,-0c-0,-1460.18 -1185.49,-2645.67 -2645.67,-2645.67l-11981.9,-0c-1460.18,-0 -2645.67,1185.48 -2645.67,2645.67l0,2937.89c0,1460.18 1185.49,2645.67 2645.67,2645.67l11981.9,0c1460.18,0 2645.67,-1185.48 2645.67,-2645.67l-0,-2937.89Z"/>
            <path d="M97073.6,4473.26c0,-1877.38 -1524.19,-3401.58 -3401.58,-3401.58c0,0 -11981.9,0 -11981.9,0c-1877.38,0 -3401.57,1524.19 -3401.57,3401.58l-0,2937.89c-0,1877.38 1524.19,3401.58 3401.57,3401.58l11981.9,-0c1877.38,-0 3401.58,-1524.19 3401.58,-3401.58l0,-2937.89Zm-755.905,-0c-0,-1460.18 -1185.49,-2645.67 -2645.67,-2645.67l-11981.9,-0c-1460.18,-0 -2645.67,1185.48 -2645.67,2645.67l0,2937.89c0,1460.18 1185.49,2645.67 2645.67,2645.67l11981.9,0c1460.18,0 2645.67,-1185.48 2645.67,-2645.67l-0,-2937.89Z" style="fill:#039900;"/>
            <path d="M96317.7,4473.26c-0,-1460.18 -1185.49,-2645.67 -2645.67,-2645.67l-11981.9,-0c-1460.18,-0 -2645.67,1185.48 -2645.67,2645.67l0,2937.89c0,1460.18 1185.49,2645.67 2645.67,2645.67l11981.9,0c1460.18,0 2645.67,-1185.48 2645.67,-2645.67l-0,-2937.89Z" style="fill:none;stroke:#fff;stroke-width:755.91px;"/>
            <path d="M81952.9,7771.5l2689.37,-0l-0,-801.614l-1850.08,-0l-0,-692.481l1494.09,0l0,-801.614l-1494.09,0l-0,-637.913l1670.79,-0l0,-754.843l-2510.08,0l-0,3688.47Z" style="fill:#fff;fill-rule:nonzero;"/>
            <rect x="85162" y="6120.2" width="1273.23" height="682.087" style="fill:#fff;fill-rule:nonzero;"/>
            <path d="M89909.3,7029.65c73.622,-209.606 125.59,-424.409 155.905,-644.409c77.087,-518.819 25.984,-1025.08 -153.307,-1518.78c-116.929,-265.039 -291.024,-484.606 -522.283,-658.7c-504.961,-303.15 -1004.73,-295.788 -1499.29,22.086c-145.512,103.937 -266.771,231.693 -363.779,383.268c-381.103,747.48 -239.922,1378.03 423.543,1891.65l3.898,2.598c399.291,205.276 796.417,201.378 1191.38,-11.693c-2.599,206.142 -93.111,360.748 -271.536,463.819c-288.425,119.527 -517.953,48.937 -688.583,-211.772l-770.433,300.118l2.599,6.496c148.11,314.41 381.102,542.638 698.976,684.685c793.386,258.111 1391.02,21.654 1792.91,-709.37Zm-1617.52,-1326.5c-155.039,-243.385 -148.976,-483.307 18.189,-719.763c22.52,-24.252 47.205,-46.772 74.055,-67.559c257.244,-154.174 485.906,-119.528 685.984,103.937c149.843,230.393 146.811,458.622 -9.094,684.685c-21.654,25.984 -45.473,49.803 -71.457,71.456c-252.047,168.898 -484.606,144.646 -697.677,-72.756Z" style="fill:#fff;fill-rule:nonzero;"/>
            <path d="M93410.7,4849.57c-153.308,-306.614 -383.268,-535.709 -689.882,-687.284c-854.882,-319.606 -1519.21,-89.212 -1992.99,691.181c-310.945,711.103 -315.709,1423.94 -14.292,2138.5c155.906,321.339 394.528,559.961 715.866,715.866c865.276,313.544 1532.64,74.489 2002.09,-717.165c283.228,-716.299 276.299,-1430 -20.787,-2141.1Zm-645.709,1573.35c-7.795,40.709 -18.622,80.551 -32.48,119.528c-187.953,392.362 -491.969,532.677 -912.048,420.945c-252.913,-96.142 -405.354,-276.3 -457.323,-540.473c-29.448,-251.181 -34.645,-502.362 -15.59,-753.543c4.331,-41.575 7.362,-83.15 9.094,-124.725c24.252,-343.858 201.378,-565.157 531.378,-663.897c63.229,-17.323 127.323,-25.551 192.284,-24.685c427.008,46.771 657.401,284.094 691.181,711.968l1.299,9.095c29.449,281.496 26.851,563.425 -7.795,845.787Z" style="fill:#fff;fill-rule:nonzero;"/>
        </g>
        <path d="M112179,15553.5c0,-1825.23 -1481.86,-3307.09 -3307.09,-3307.09l-42381.4,0c-1825.23,0 -3307.09,1481.86 -3307.09,3307.09l-0,52229c-0,1825.23 1481.86,3307.09 3307.09,3307.09l42381.4,0c1825.23,0 3307.09,-1481.86 3307.09,-3307.09l0,-52229Z" style="fill:#003fff;"/>
        <path d="M113242,15553.5c0,-2411.91 -1958.17,-4370.08 -4370.08,-4370.08l-42381.4,-0c-2411.91,-0 -4370.08,1958.17 -4370.08,4370.08l-0,52229c-0,2411.91 1958.17,4370.08 4370.08,4370.08l42381.4,0c2411.91,0 4370.08,-1958.17 4370.08,-4370.08l0,-52229Zm-1062.99,-0c0,-1825.23 -1481.86,-3307.09 -3307.09,-3307.09l-42381.4,0c-1825.23,0 -3307.09,1481.86 -3307.09,3307.09l-0,52229c-0,1825.23 1481.86,3307.09 3307.09,3307.09l42381.4,0c1825.23,0 3307.09,-1481.86 3307.09,-3307.09l0,-52229Z"/>
        <path d="M113124,15553.5c0,-2346.73 -1905.24,-4251.97 -4251.97,-4251.97l-42381.4,0c-2346.72,0 -4251.97,1905.24 -4251.97,4251.97l-0,52229c-0,2346.72 1905.24,4251.97 4251.97,4251.97l42381.4,0c2346.72,0 4251.97,-1905.24 4251.97,-4251.97l0,-52229Zm-944.882,-0c0,-1825.23 -1481.86,-3307.09 -3307.09,-3307.09l-42381.4,0c-1825.23,0 -3307.09,1481.86 -3307.09,3307.09l-0,52229c-0,1825.23 1481.86,3307.09 3307.09,3307.09l42381.4,0c1825.23,0 3307.09,-1481.86 3307.09,-3307.09l0,-52229Z" style="fill:#003fff;"/>
        <path d="M112179,27722.3c0,-1825.23 -1481.86,-3307.09 -3307.09,-3307.09l-42381.4,0c-1825.23,0 -3307.09,1481.86 -3307.09,3307.09l-0,40060.2c-0,1825.23 1481.86,3307.09 3307.09,3307.09l42381.4,0c1825.23,0 3307.09,-1481.86 3307.09,-3307.09l0,-40060.2Z" style="fill:none;stroke:#fff;stroke-width:944.88px;"/>
        <path d="M112179,15553.5c0,-1825.23 -1481.86,-3307.09 -3307.09,-3307.09l-18049.5,0c-1825.23,0 -3307.09,1481.86 -3307.09,3307.09l0,3705.72c0,1825.23 1481.86,3307.09 3307.09,3307.09l18049.5,0c1825.23,0 3307.09,-1481.86 3307.09,-3307.09l0,-3705.72Z" style="fill:none;stroke:#fff;stroke-width:944.88px;"/>
        <path d="M85635,15553.5c0,-1825.23 -1481.86,-3307.09 -3307.09,-3307.09l-15837.6,0c-1825.23,0 -3307.09,1481.86 -3307.09,3307.09l-0,3705.72c-0,1825.23 1481.86,3307.09 3307.09,3307.09l15837.6,0c1825.23,0 3307.09,-1481.86 3307.09,-3307.09l0,-3705.72Z" style="fill:none;stroke:#fff;stroke-width:944.88px;"/>
        <path d="M93551.6,14135.5l-830.884,0l-2238.63,6832.49l2769,0l300.517,-6832.49Zm1873.52,1945.83l1972.83,-1265.43l-1584.74,-680.396l2885.3,0l-0,2934.5l-660.797,-1638.7l-2062.8,2328.06l1051.29,3208.64l-2769,0l-300.517,-6832.49l830.884,0l637.541,1945.83Z" style="fill:#fff;"/>
        <g>
            <g transform="matrix(1,0,0,1,15823,39902.1)">
                <g transform="matrix(6496.25,0,0,6496.25,8945.44,5256.88)">
                    <path d="M0.05,0l0.157,0l-0.002,-0.464l0.194,0.283l0.197,-0.282l-0,0.463l0.155,0l-0,-0.71l-0.176,0l-0.176,0.249l-0.173,-0.249l-0.176,0l-0,0.71Z" style="fill:#fff;fill-rule:nonzero;"/>
                </g>
                <g transform="matrix(6496.25,0,0,6496.25,14147.3,5256.88)">
                    <path d="M0.58,-0.113c-0.013,0 -0.026,-0.001 -0.039,-0.004c-0.012,-0.005 -0.018,-0.015 -0.018,-0.028l0,-0.219c-0.002,-0.071 -0.036,-0.118 -0.103,-0.141c-0.124,-0.04 -0.237,-0.02 -0.339,0.061l0.074,0.119c0.02,-0.018 0.042,-0.033 0.067,-0.043c0.032,-0.016 0.067,-0.02 0.102,-0.015c0.008,0.002 0.016,0.005 0.023,0.009c0.008,0.005 0.014,0.013 0.017,0.022c0,0.004 -0.001,0.008 -0.005,0.01c-0.006,0.003 -0.012,0.004 -0.019,0.005l-0.134,0.023c-0.061,0.017 -0.103,0.054 -0.127,0.112c-0.019,0.095 0.015,0.163 0.104,0.203c0.078,0.027 0.149,0.015 0.214,-0.035c0.035,0.035 0.078,0.051 0.128,0.047l0.055,-0.126Zm-0.332,-0.018c-0.006,-0.004 -0.011,-0.01 -0.014,-0.017c-0.005,-0.02 0.001,-0.034 0.02,-0.042c0.005,-0.002 0.01,-0.004 0.016,-0.005c0.031,-0.005 0.062,-0.011 0.092,-0.018l-0,0.052c-0.004,0.013 -0.012,0.023 -0.023,0.029c-0.03,0.014 -0.061,0.015 -0.091,0.001Z" style="fill:#fff;fill-rule:nonzero;"/>
                </g>
                <g transform="matrix(6496.25,0,0,6496.25,17444.2,5256.88)">
                    <path d="M0.158,-0.41c-0.072,0.128 -0.059,0.246 0.04,0.355c0.086,0.075 0.18,0.086 0.281,0.033l0.008,0.022l0.148,-0l-0,-0.665l-0.161,-0l-0,0.17c-0.058,-0.033 -0.118,-0.039 -0.182,-0.019c-0.056,0.019 -0.101,0.054 -0.134,0.104Zm0.315,0.112c0.002,0.026 0.002,0.053 0,0.079c-0.009,0.05 -0.039,0.079 -0.089,0.088c-0.062,0.001 -0.099,-0.029 -0.111,-0.089c-0.002,-0.026 -0.002,-0.052 0.001,-0.078c0.01,-0.046 0.038,-0.074 0.083,-0.083c0.062,-0.005 0.101,0.023 0.116,0.083Z" style="fill:#fff;fill-rule:nonzero;"/>
                </g>
                <g transform="matrix(6496.25,0,0,6496.25,22009.4,5256.88)">
                    <path d="M0.217,0l-0.001,-0.273c0.003,-0.026 0.014,-0.049 0.033,-0.067c0.039,-0.026 0.081,-0.033 0.127,-0.021l0,-0.174c-0.059,-0.005 -0.113,0.011 -0.161,0.046l-0.005,-0.034l-0.16,0l0,0.523l0.167,0Z" style="fill:#fff;fill-rule:nonzero;"/>
                </g>
                <g transform="matrix(6496.25,0,0,6496.25,24554.3,5256.88)">
                    <path d="M0.065,-0l0.165,-0l-0,-0.515l-0.165,0.001l0,0.514Zm0.066,-0.715c-0.054,0.017 -0.078,0.054 -0.071,0.11c0.018,0.054 0.054,0.077 0.11,0.07c0.054,-0.017 0.077,-0.053 0.071,-0.11c-0.018,-0.053 -0.054,-0.077 -0.11,-0.07Z" style="fill:#fff;fill-rule:nonzero;"/>
                </g>
                <g transform="matrix(6496.25,0,0,6496.25,25882.8,5256.88)">
                    <path d="M0.158,-0.41c-0.072,0.128 -0.059,0.246 0.04,0.355c0.086,0.075 0.18,0.086 0.281,0.033l0.008,0.022l0.148,-0l-0,-0.665l-0.161,-0l-0,0.17c-0.058,-0.033 -0.118,-0.039 -0.182,-0.019c-0.056,0.019 -0.101,0.054 -0.134,0.104Zm0.315,0.112c0.002,0.026 0.002,0.053 0,0.079c-0.009,0.05 -0.039,0.079 -0.089,0.088c-0.062,0.001 -0.099,-0.029 -0.111,-0.089c-0.002,-0.026 -0.002,-0.052 0.001,-0.078c0.01,-0.046 0.038,-0.074 0.083,-0.083c0.062,-0.005 0.101,0.023 0.116,0.083Z" style="fill:#fff;fill-rule:nonzero;"/>
                </g>
            </g>
            <g>
                <rect x="15720.8" y="39297.5" width="7086.61" height="7089.13" style="fill:#fff;"/>
                <g>
                    <circle cx="19264.2" cy="42842.1" r="690.548"/>
                    <circle cx="19264.2" cy="42842.1" r="1476.38" style="fill:none;stroke:#000;stroke-width:45.83px;stroke-linejoin:miter;"/>
                    <circle cx="19264.2" cy="42842.1" r="1742.13" style="fill:none;stroke:#000;stroke-width:45.83px;stroke-linejoin:miter;"/>
                    <circle cx="19264.2" cy="42842.1" r="2007.87" style="fill:none;stroke:#000;stroke-width:45.83px;stroke-linejoin:miter;"/>
                    <circle cx="19264.2" cy="42842.1" r="2273.62" style="fill:none;stroke:#000;stroke-width:45.83px;stroke-linejoin:miter;"/>
                </g>
            </g>
        </g>
        <g>
            <path d="M38257.9,30948.9l-0,-291.667l-15043.6,0l0,5790.04l15043.6,-0l-0,-5498.37Zm-291.667,0l-14460.3,0l0,5206.71l14460.3,-0l0,-5206.71Z" style="fill:#fff;"/>
            <path d="M24529.7,35380.3l813.307,-0l-5.197,-2412.64l1004.29,1469.41l1022.48,-1464.21l2.599,2407.44l804.212,-0l0,-3688.47l-910.748,0l-918.543,1292.72l-897.756,-1294.02l-914.645,1.299l-0,3688.47Z" style="fill:#fff;fill-rule:nonzero;"/>
            <rect x="28691.1" y="33730.3" width="1273.23" height="682.087" style="fill:#fff;fill-rule:nonzero;"/>
            <path d="M30517.8,32816.9l823.701,89.646c-2.598,-103.937 26.418,-198.347 87.047,-283.229c12.126,-13.858 25.119,-27.283 38.977,-40.275c304.016,-229.528 597.205,-216.536 879.567,38.976c3.464,5.197 6.496,10.827 9.094,16.89c79.685,206.142 25.551,367.677 -162.401,484.606c-44.174,15.591 -90.079,25.118 -137.717,28.583l-427.441,-0l0,762.638l524.882,-0c31.181,4.331 60.63,12.559 88.347,24.685c181.889,100.472 240.354,249.449 175.393,446.929c-48.504,82.283 -113.464,148.11 -194.882,197.48c-316.141,153.307 -578.582,89.213 -787.322,-192.283c-48.504,-77.087 -78.386,-160.669 -89.646,-250.748l-861.378,152.008c19.921,194.015 81.417,373.74 184.488,539.173c61.496,84.016 130.788,161.535 207.874,232.559c742.284,560.394 1458.15,527.48 2147.6,-98.74c276.299,-350.788 323.503,-730.158 141.614,-1138.11c-84.016,-136.851 -194.449,-247.717 -331.299,-332.599c126.456,-80.551 227.362,-185.787 302.716,-315.709c236.457,-513.622 124.291,-934.566 -336.496,-1262.83c-752.677,-455.591 -1442.13,-374.606 -2068.35,242.953c-134.252,198.346 -205.709,417.48 -214.371,657.401Z" style="fill:#fff;fill-rule:nonzero;"/>
            <path d="M36943.7,32459.6c-153.307,-306.614 -383.268,-535.709 -689.882,-687.284c-854.882,-319.606 -1519.21,-89.212 -1992.99,691.181c-310.945,711.103 -315.709,1423.94 -14.291,2138.5c155.905,321.339 394.527,559.961 715.866,715.866c865.275,313.544 1532.64,74.489 2002.09,-717.165c283.229,-716.299 276.3,-1430 -20.787,-2141.1Zm-645.709,1573.35c-7.795,40.709 -18.622,80.551 -32.48,119.528c-187.953,392.362 -491.969,532.677 -912.047,420.945c-252.914,-96.142 -405.355,-276.3 -457.323,-540.473c-29.449,-251.181 -34.646,-502.362 -15.591,-753.543c4.331,-41.575 7.363,-83.15 9.095,-124.725c24.252,-343.858 201.378,-565.157 531.378,-663.897c63.228,-17.323 127.323,-25.551 192.283,-24.685c427.008,46.771 657.402,284.094 691.181,711.968l1.3,9.095c29.448,281.496 26.85,563.425 -7.796,845.787Z" style="fill:#fff;fill-rule:nonzero;"/>
        </g>
        <g>
            <path d="M95202.9,33230l-0,-5790.04l-15043.6,0l0,291.667l0,5498.37l15043.6,0Zm-291.667,-5498.37l-14460.3,-0l-0,5206.71l14460.3,-0l0,-5206.71Z" style="fill:#fff;"/>
            <path d="M81239,32162.9l813.307,-0l-5.196,-2412.64l1004.29,1469.41l1022.48,-1464.21l2.599,2407.44l804.212,-0l0,-3688.47l-910.748,-0l-918.543,1292.72l-897.756,-1294.02l-914.646,1.299l0,3688.47Z" style="fill:#fff;fill-rule:nonzero;"/>
            <rect x="85400.4" y="30512.9" width="1273.23" height="682.087" style="fill:#fff;fill-rule:nonzero;"/>
            <path d="M89990.5,31628.9l465.118,0l0,-805.512l-465.118,0l0,-2351.57l-1052.36,-0l-1744.84,2426.93l-0,730.157l1934.53,0l0,531.378l862.677,0l0,-531.378Zm-862.677,-805.512l-953.622,0l954.921,-1261.54l-1.299,1261.54Z" style="fill:#fff;fill-rule:nonzero;"/>
            <path d="M94124.6,29242.3c-153.307,-306.615 -383.268,-535.709 -689.882,-687.284c-854.882,-319.606 -1519.21,-89.212 -1992.99,691.181c-310.945,711.103 -315.709,1423.94 -14.291,2138.5c155.905,321.339 394.527,559.961 715.866,715.866c865.275,313.544 1532.64,74.489 2002.09,-717.165c283.229,-716.299 276.299,-1430 -20.787,-2141.1Zm-645.709,1573.35c-7.795,40.709 -18.622,80.551 -32.48,119.528c-187.953,392.362 -491.969,532.677 -912.047,420.944c-252.914,-96.141 -405.355,-276.299 -457.323,-540.472c-29.449,-251.181 -34.646,-502.362 -15.591,-753.543c4.331,-41.575 7.362,-83.15 9.095,-124.725c24.252,-343.858 201.378,-565.157 531.378,-663.897c63.228,-17.323 127.323,-25.551 192.283,-24.685c427.008,46.771 657.402,284.094 691.181,711.968l1.299,9.095c29.449,281.496 26.851,563.425 -7.795,845.787Z" style="fill:#fff;fill-rule:nonzero;"/>
        </g>
        <g>
            <g>
                <path d="M77334.1,41562.8l-0,-5790.04l-10802.4,0l-0,5790.04l10802.4,-0Zm-291.667,-5498.37l-10219.1,-0l-0,5206.71l10219.1,-0l-0,-5206.71Z" style="fill:#fff;"/>
                <path d="M67658.5,40495.8l874.37,-0l177.992,-552.166l1339.49,1.299l172.795,550.867l901.654,-0l-1236.85,-3688.47l-1001.69,-1.299l-1227.76,3689.76Zm1343.39,-1375.87l414.448,-1278.42l415.748,1278.42l-830.196,0Z" style="fill:#fff;fill-rule:nonzero;"/>
                <rect x="71644.4" y="38845.8" width="1273.23" height="682.087" style="fill:#fff;fill-rule:nonzero;"/>
                <path d="M73751.8,37550.4c-108.268,298.818 -173.228,606.732 -194.882,923.74c-79.685,544.803 20.787,1054.09 301.417,1527.87c520.551,615.827 1136.81,734.055 1848.78,354.685c147.244,-102.205 270.236,-228.229 368.976,-378.071c391.496,-741.417 259.41,-1373.7 -396.26,-1896.85l-3.897,-2.599c-395.827,-210.472 -792.52,-212.205 -1190.08,-5.197c4.331,-206.141 96.575,-359.449 276.732,-459.921c290.158,-116.063 518.819,-42.441 685.985,220.866l774.33,-288.425l-2.598,-6.496c-144.646,-312.677 -374.173,-540.473 -688.583,-683.386c-784.724,-259.842 -1378.03,-28.583 -1779.92,693.78Zm1574.65,1327.8c151.574,245.984 142.047,485.905 -28.583,719.764c-22.52,24.252 -47.638,46.338 -75.354,66.259c-258.977,150.709 -486.772,112.599 -683.386,-114.33c-146.378,-232.126 -140.315,-459.921 18.189,-683.386c21.653,-25.984 45.905,-49.803 72.756,-71.457c254.645,-164.567 486.771,-136.85 696.378,83.15Z" style="fill:#fff;fill-rule:nonzero;"/>
            </g>
            <g>
                <path d="M78999.2,40982.9l1092.99,-0l222.497,-690.227l1674.41,1.624l216,688.603l1127.1,-0l-1546.11,-4610.71l-1252.15,-1.624l-1534.74,4612.34Zm1679.28,-1719.88l518.076,-1598.08l519.7,1598.08l-1037.78,-0Z" style="fill:#fff;fill-rule:nonzero;"/>
                <path d="M89500.4,39211l-1.624,11.368c-102.857,481.805 -395.73,773.054 -878.618,873.746c-642.046,38.977 -1042.11,-253.895 -1200.18,-878.618c-74.707,-359.459 -74.165,-718.918 1.624,-1078.38c99.609,-502.376 401.144,-800.662 904.603,-894.858c639.881,-20.572 1029.66,281.504 1169.33,906.227l989.054,-419.008c-240.361,-660.452 -691.851,-1108.15 -1354.47,-1343.1c-1273.27,-289.083 -2170.29,164.572 -2691.07,1360.96c-212.21,618.227 -216,1237 -11.368,1856.3c238.196,670.196 691.851,1124.39 1360.96,1362.59c1278.68,294.497 2181.66,-158.617 2708.94,-1359.34l3.248,-16.241l-1000.42,-381.654Z" style="fill:#fff;fill-rule:nonzero;"/>
                <path d="M91437.9,40633.7c777.384,601.986 1554.23,600.903 2330.53,-3.248c262.016,-258.767 421.174,-569.504 477.475,-932.212c29.233,-213.293 32.481,-427.128 9.744,-641.504c-46.556,-349.715 -182.436,-660.452 -407.639,-932.212c-59.549,-69.294 -123.971,-133.715 -193.264,-193.264c-832.603,-584.662 -1613.78,-522.406 -2343.52,186.768l-6.496,8.12c-220.873,272.842 -350.257,584.121 -388.151,933.836c-33.564,212.211 -27.068,423.339 19.488,633.384c54.136,369.204 218.708,680.482 493.715,933.836l8.121,6.496Zm1801.09,-1576.96c41.143,213.293 38.978,426.045 -6.496,638.256c-73.624,238.196 -229.534,393.565 -467.73,466.106c-402.768,71.459 -676.152,-83.91 -820.152,-466.106c-49.804,-211.128 -55.759,-423.88 -17.864,-638.256c64.962,-300.993 247.94,-484.512 548.933,-550.558c406.015,-27.067 660.452,156.452 763.309,550.558Z" style="fill:#fff;fill-rule:nonzero;"/>
                <path d="M95873.3,40982.9l0,-1771.85c17.324,-172.151 87.7,-318.858 211.129,-440.121c253.353,-168.903 527.82,-214.918 823.399,-138.046l3.248,-1125.48c-386.526,-31.399 -736.241,67.669 -1049.14,297.203l-27.609,-224.12l-1042.65,3.248l-0,3399.16l1081.62,-0Z" style="fill:#fff;fill-rule:nonzero;"/>
                <path d="M97427.5,39935.4c36.812,199.219 113.685,381.114 230.617,545.685c546.768,633.385 1182.32,740.032 1906.65,319.941l82.827,177.023l915.971,-0l-0,-3360.19l-1073.51,-1.624l-0,1851.43c4.33,66.046 -4.873,131.008 -27.609,194.888c-55.219,149.414 -158.076,251.73 -308.572,306.948c-293.414,69.293 -501.836,-34.106 -625.264,-310.196c-28.151,-74.707 -41.685,-152.121 -40.602,-232.241l-1.624,-1810.83l-1057.27,1.624l-1.624,2317.54Z" style="fill:#fff;fill-rule:nonzero;"/>
                <path d="M101215,37752.6l-1.624,3230.26l1005.3,-0l-0,-1942.38c41.143,-233.865 177.022,-377.865 407.639,-432.001c305.324,-25.985 499.129,108.271 581.415,402.768l-0,1971.61l1019.91,-0l-0,-2220.09c-45.474,-356.211 -210.587,-642.587 -495.339,-859.129c-526.196,-324.812 -1049.69,-319.94 -1570.47,14.617l-64.962,-165.655l-881.866,0Z" style="fill:#fff;fill-rule:nonzero;"/>
                <path d="M108226,40245.6c-85.534,2.166 -169.985,-6.496 -253.354,-25.985c-80.12,-33.564 -119.098,-94.195 -116.932,-181.895l-0,-1421.05c-11.91,-460.151 -236.031,-765.475 -672.362,-915.972c-805.535,-262.015 -1539.61,-129.383 -2202.23,397.896l485.595,774.678c126.677,-120.181 270.135,-215.459 430.376,-285.835c213.294,-97.444 435.79,-127.76 667.49,-90.948c51.97,11.91 100.692,30.857 146.166,56.842c56.3,32.482 92.571,80.121 108.812,142.918c3.248,27.067 -5.955,48.722 -27.609,64.962c-40.061,15.158 -81.203,25.985 -123.429,32.482l-872.122,151.037c-395.188,105.023 -669.655,347.008 -823.399,725.956c-126.677,617.144 97.443,1056.18 672.362,1317.12c505.624,174.316 970.106,97.985 1393.44,-228.993c228.452,228.452 504.001,331.85 826.648,310.196l360.542,-823.4Zm-2156.76,-115.308c-42.226,-25.985 -72.542,-62.797 -90.948,-110.436c-33.564,-126.677 9.203,-218.166 128.301,-274.467c33.564,-14.075 68.211,-24.902 103.94,-32.481c201.384,-31.399 401.144,-69.293 599.279,-113.684l-1.624,339.429c-24.902,82.285 -75.248,143.458 -151.038,183.519c-194.887,95.278 -390.857,97.985 -587.91,8.12Z" style="fill:#fff;fill-rule:nonzero;"/>
                <rect x="101845" y="36689.6" width="1600.93" height="484.443" style="fill:#fff;"/>
            </g>
        </g>
        <g>
            <g>
                <path d="M79686.9,49917.9l0,-5790.04l-10802.4,-0l-0,5790.04l10802.4,-0Zm-291.666,-5498.37l-10219.1,0l0,5206.71l10219.1,0l-0,-5206.71Z" style="fill:#fff;"/>
                <path d="M70011.2,48850.9l874.37,-0l177.992,-552.165l1339.49,1.299l172.795,550.866l901.654,-0l-1236.85,-3688.47l-1001.69,-1.299l-1227.76,3689.76Zm1343.38,-1375.87l414.449,-1278.42l415.748,1278.42l-830.197,-0Z" style="fill:#fff;fill-rule:nonzero;"/>
                <rect x="73997.2" y="47200.9" width="1273.23" height="682.087" style="fill:#fff;fill-rule:nonzero;"/>
                <path d="M75790.1,47873.9c153.307,513.622 487.205,847.52 1001.69,1001.69c849.685,142.047 1423.07,-191.417 1720.16,-1000.39c76.22,-297.952 60.196,-590.708 -48.071,-878.267c-0.866,-2.599 -2.166,-5.63 -3.898,-9.095c-379.37,-711.102 -953.622,-946.26 -1722.76,-705.472l44.173,-344.292l1590.24,0l-1.3,-778.228l-2302.2,-0l-241.654,1916.34l866.575,141.614l9.094,-10.394c43.308,-73.622 100.906,-132.52 172.796,-176.693c278.897,-137.716 511.89,-82.283 698.976,166.299c122.126,219.134 125.591,440.866 10.394,665.197c-88.347,125.591 -208.307,201.378 -359.882,227.362c-329.134,21.654 -534.843,-126.889 -617.126,-445.63l-817.205,229.961Z" style="fill:#fff;fill-rule:nonzero;"/>
            </g>
            <g transform="matrix(1,0,0,1,80284.8,44079.5)">
                <g transform="matrix(6496.06,0,0,6496.06,742.417,5256.75)">
                    <path d="M0.05,0l0.394,0c0.063,-0.01 0.112,-0.042 0.146,-0.097c0.053,-0.112 0.03,-0.204 -0.07,-0.278c0.043,-0.035 0.066,-0.081 0.07,-0.137c-0.005,-0.114 -0.064,-0.18 -0.178,-0.197l-0.362,-0.001l0,0.71Zm0.164,-0.435l0.001,-0.126l0.148,-0c0.006,-0.001 0.011,0 0.017,0.003c0.016,0.007 0.028,0.019 0.035,0.035c0.012,0.038 0,0.067 -0.035,0.086c-0.006,0.001 -0.011,0.002 -0.017,0.002l-0.149,0Zm0.001,0.285l-0,-0.148l0.157,-0c0.01,-0.001 0.019,-0 0.028,0.004c0.026,0.011 0.042,0.03 0.048,0.059c0.002,0.046 -0.019,0.074 -0.063,0.086l-0.17,-0.001Z" style="fill:#fff;fill-rule:nonzero;"/>
                </g>
                <g transform="matrix(6496.06,0,0,6496.06,5033.07,5256.75)">
                    <path d="M0.58,-0.113c-0.013,0 -0.026,-0.001 -0.039,-0.004c-0.012,-0.005 -0.018,-0.015 -0.018,-0.028l0,-0.219c-0.002,-0.071 -0.036,-0.118 -0.103,-0.141c-0.124,-0.04 -0.237,-0.02 -0.339,0.061l0.074,0.119c0.02,-0.018 0.042,-0.033 0.067,-0.043c0.032,-0.016 0.067,-0.02 0.102,-0.015c0.008,0.002 0.016,0.005 0.023,0.009c0.008,0.005 0.014,0.013 0.017,0.022c0,0.004 -0.001,0.008 -0.005,0.01c-0.006,0.003 -0.012,0.004 -0.019,0.005l-0.134,0.023c-0.061,0.017 -0.103,0.054 -0.127,0.112c-0.019,0.095 0.015,0.163 0.104,0.203c0.078,0.027 0.149,0.015 0.214,-0.035c0.035,0.035 0.078,0.051 0.128,0.047l0.055,-0.126Zm-0.332,-0.018c-0.006,-0.004 -0.011,-0.01 -0.014,-0.017c-0.005,-0.02 0.001,-0.034 0.02,-0.042c0.005,-0.002 0.01,-0.004 0.016,-0.005c0.031,-0.005 0.062,-0.011 0.092,-0.018l-0,0.052c-0.004,0.013 -0.012,0.023 -0.023,0.029c-0.03,0.014 -0.061,0.015 -0.091,0.001Z" style="fill:#fff;fill-rule:nonzero;"/>
                </g>
                <g transform="matrix(6496.06,0,0,6496.06,8394.78,5256.75)">
                    <path d="M0.158,-0.41c-0.072,0.128 -0.059,0.246 0.04,0.355c0.086,0.075 0.18,0.086 0.281,0.033l0.008,0.022l0.148,-0l-0,-0.665l-0.161,-0l-0,0.17c-0.058,-0.033 -0.118,-0.039 -0.182,-0.019c-0.056,0.019 -0.101,0.054 -0.134,0.104Zm0.315,0.112c0.002,0.026 0.002,0.053 0,0.079c-0.009,0.05 -0.039,0.079 -0.089,0.088c-0.062,0.001 -0.099,-0.029 -0.111,-0.089c-0.002,-0.026 -0.002,-0.052 0.001,-0.078c0.01,-0.046 0.038,-0.074 0.083,-0.083c0.062,-0.005 0.101,0.023 0.116,0.083Z" style="fill:#fff;fill-rule:nonzero;"/>
                </g>
                <g transform="matrix(6496.06,0,0,6496.06,12700,5256.75)">
                    <path d="M0.58,-0.113c-0.013,0 -0.026,-0.001 -0.039,-0.004c-0.012,-0.005 -0.018,-0.015 -0.018,-0.028l0,-0.219c-0.002,-0.071 -0.036,-0.118 -0.103,-0.141c-0.124,-0.04 -0.237,-0.02 -0.339,0.061l0.074,0.119c0.02,-0.018 0.042,-0.033 0.067,-0.043c0.032,-0.016 0.067,-0.02 0.102,-0.015c0.008,0.002 0.016,0.005 0.023,0.009c0.008,0.005 0.014,0.013 0.017,0.022c0,0.004 -0.001,0.008 -0.005,0.01c-0.006,0.003 -0.012,0.004 -0.019,0.005l-0.134,0.023c-0.061,0.017 -0.103,0.054 -0.127,0.112c-0.019,0.095 0.015,0.163 0.104,0.203c0.078,0.027 0.149,0.015 0.214,-0.035c0.035,0.035 0.078,0.051 0.128,0.047l0.055,-0.126Zm-0.332,-0.018c-0.006,-0.004 -0.011,-0.01 -0.014,-0.017c-0.005,-0.02 0.001,-0.034 0.02,-0.042c0.005,-0.002 0.01,-0.004 0.016,-0.005c0.031,-0.005 0.062,-0.011 0.092,-0.018l-0,0.052c-0.004,0.013 -0.012,0.023 -0.023,0.029c-0.03,0.014 -0.061,0.015 -0.091,0.001Z" style="fill:#fff;fill-rule:nonzero;"/>
                </g>
                <g transform="matrix(6496.06,0,0,6496.06,16162.4,5256.75)">
                    <path d="M0.05,0.155c0.067,0.022 0.134,0.025 0.203,0.008c0.057,-0.031 0.085,-0.078 0.085,-0.143l0.001,-0.531l-0.167,-0l0.001,0.499c0.001,0.018 -0.007,0.03 -0.025,0.035c-0.02,0 -0.039,-0.005 -0.057,-0.016l-0.041,0.148Zm0.204,-0.872l-0,0c-0.056,0.005 -0.086,0.036 -0.091,0.091c0.005,0.056 0.035,0.086 0.091,0.092l0,-0c0.056,-0.006 0.086,-0.036 0.091,-0.092c-0.005,-0.055 -0.035,-0.086 -0.091,-0.091Z" style="fill:#fff;fill-rule:nonzero;"/>
                </g>
                <g transform="matrix(6496.06,0,0,6496.06,18655.3,5256.75)">
                    <path d="M0.138,-0.054c0.12,0.093 0.239,0.093 0.359,0c0.04,-0.04 0.065,-0.088 0.073,-0.144c0.005,-0.032 0.005,-0.065 0.002,-0.098c-0.007,-0.054 -0.028,-0.102 -0.063,-0.144c-0.009,-0.01 -0.019,-0.02 -0.03,-0.029c-0.128,-0.09 -0.248,-0.081 -0.36,0.028l-0.001,0.002c-0.034,0.042 -0.054,0.089 -0.06,0.143c-0.005,0.033 -0.004,0.065 0.003,0.098c0.008,0.057 0.033,0.105 0.076,0.144l0.001,0.001Zm0.277,-0.243c0.007,0.033 0.006,0.065 -0.001,0.098c-0.011,0.037 -0.035,0.061 -0.072,0.072c-0.062,0.011 -0.104,-0.013 -0.126,-0.072c-0.008,-0.032 -0.009,-0.065 -0.003,-0.098c0.01,-0.047 0.038,-0.075 0.085,-0.085c0.062,-0.004 0.101,0.024 0.117,0.085Z" style="fill:#fff;fill-rule:nonzero;"/>
                </g>
                <g transform="matrix(6496.06,0,0,6496.06,22518.8,5256.75)">
                    <path d="M0.05,0l0.42,0l-0,-0.137l-0.199,0l0.187,-0.248l-0,-0.133l-0.395,0l0,0.145l0.183,0l-0.196,0.256l0,0.117Z" style="fill:#fff;fill-rule:nonzero;"/>
                </g>
            </g>
        </g>
        <g>
            <g>
                <path d="M83819,58273.4l0,-5790.04l-14663.9,-0l0,5790.04l14663.9,-0Zm-291.666,-5498.37l-14080.6,0l-0,5206.71l14080.6,0l-0,-5206.71Z" style="fill:#fff;"/>
                <path d="M70305.3,57206.4l874.37,-0l177.992,-552.166l1339.49,1.3l172.795,550.866l901.654,-0l-1236.85,-3688.47l-1001.69,-1.299l-1227.76,3689.76Zm1343.38,-1375.87l414.449,-1278.43l415.748,1278.43l-830.197,-0Z" style="fill:#fff;fill-rule:nonzero;"/>
                <rect x="74291.3" y="55556.4" width="1273.23" height="682.087" style="fill:#fff;fill-rule:nonzero;"/>
                <path d="M78881.4,56672.4l465.118,0l0,-805.511l-465.118,-0l-0,-2351.58l-1052.36,-0l-1744.84,2426.93l0,730.157l1934.53,0l-0,531.378l862.677,0l-0,-531.378Zm-862.677,-805.511l-953.622,-0l954.921,-1261.54l-1.299,1261.54Z" style="fill:#fff;fill-rule:nonzero;"/>
                <path d="M80042.9,57206.4l2633.5,-0l-0,-776.929l-1166.69,-0c164.567,-129.055 323.504,-264.607 476.811,-406.654c206.142,-161.968 381.535,-352.52 526.181,-571.653c305.748,-685.119 175.827,-1273.66 -389.764,-1765.63c-790.787,-438.268 -1482.4,-316.142 -2074.84,366.378c-121.26,290.157 -178.858,592.874 -172.795,908.149l870.472,0c0.866,-106.535 9.095,-212.205 24.685,-317.008c51.102,-225.197 189.252,-363.779 414.449,-415.748c312.677,-25.984 511.024,112.599 595.039,415.748c4.331,179.292 -39.409,346.024 -131.22,500.197c-175.827,193.15 -370.709,365.945 -584.646,518.386l-644.409,493.701c-92.678,70.157 -180.591,145.512 -263.74,226.063c-76.221,96.142 -113.898,205.275 -113.032,327.401l0,497.599Z" style="fill:#fff;fill-rule:nonzero;"/>
            </g>
            <g transform="matrix(1,0,0,1,84416.9,52435)">
                <g transform="matrix(6496.06,0,0,6496.06,37.2696,5256.75)">
                    <path d="M0.257,0l0.163,0l0,-0.558l0.198,0l-0.001,-0.152l-0.567,0l-0,0.152l0.206,0l0,0.558Z" style="fill:#fff;fill-rule:nonzero;"/>
                </g>
                <g transform="matrix(6496.06,0,0,6496.06,3563.01,5256.75)">
                    <path d="M0.138,-0.054c0.12,0.093 0.239,0.093 0.359,0c0.04,-0.04 0.065,-0.088 0.073,-0.144c0.005,-0.032 0.005,-0.065 0.002,-0.098c-0.007,-0.054 -0.028,-0.102 -0.063,-0.144c-0.009,-0.01 -0.019,-0.02 -0.03,-0.029c-0.128,-0.09 -0.248,-0.081 -0.36,0.028l-0.001,0.002c-0.034,0.042 -0.054,0.089 -0.06,0.143c-0.005,0.033 -0.004,0.065 0.003,0.098c0.008,0.057 0.033,0.105 0.076,0.144l0.001,0.001Zm0.277,-0.243c0.007,0.033 0.006,0.065 -0.001,0.098c-0.011,0.037 -0.035,0.061 -0.072,0.072c-0.062,0.011 -0.104,-0.013 -0.126,-0.072c-0.008,-0.032 -0.009,-0.065 -0.003,-0.098c0.01,-0.047 0.038,-0.075 0.085,-0.085c0.062,-0.004 0.101,0.024 0.117,0.085Z" style="fill:#fff;fill-rule:nonzero;"/>
                </g>
                <g transform="matrix(6496.06,0,0,6496.06,7540.22,5256.75)">
                    <path d="M0.051,-0.134c-0.001,0.072 0.033,0.119 0.101,0.142c0.055,0.01 0.109,0.008 0.162,-0.007l-0.015,-0.148c-0.02,0.01 -0.041,0.015 -0.064,0.013l-0,-0c-0.015,-0.003 -0.022,-0.012 -0.022,-0.027l0,-0.542l-0.163,0l-0,0.568l0.001,0.001Z" style="fill:#fff;fill-rule:nonzero;"/>
                </g>
                <g transform="matrix(6496.06,0,0,6496.06,9669.31,5256.75)">
                    <path d="M0.073,-0.17c0.03,0.1 0.097,0.161 0.199,0.182c0.105,0.014 0.198,-0.014 0.278,-0.084l-0.104,-0.105c-0.034,0.03 -0.074,0.047 -0.119,0.049c-0.051,0.001 -0.086,-0.022 -0.104,-0.07l0.334,0c0.008,-0.051 0.004,-0.1 -0.013,-0.149c-0.051,-0.127 -0.144,-0.184 -0.281,-0.169l-0.002,0.001c-0.093,0.019 -0.155,0.074 -0.186,0.164l-0,0.002c-0.017,0.059 -0.017,0.119 -0.002,0.179Zm0.152,-0.147c0.009,-0.034 0.031,-0.056 0.065,-0.065c0.054,-0.008 0.09,0.014 0.107,0.065l-0.173,0Z" style="fill:#fff;fill-rule:nonzero;"/>
                </g>
                <g transform="matrix(6496.06,0,0,6496.06,13042.4,5256.75)">
                    <path d="M0.158,-0.41c-0.072,0.128 -0.059,0.246 0.04,0.355c0.086,0.075 0.18,0.086 0.281,0.033l0.008,0.022l0.148,-0l-0,-0.665l-0.161,-0l-0,0.17c-0.058,-0.033 -0.118,-0.039 -0.182,-0.019c-0.056,0.019 -0.101,0.054 -0.134,0.104Zm0.315,0.112c0.002,0.026 0.002,0.053 0,0.079c-0.009,0.05 -0.039,0.079 -0.089,0.088c-0.062,0.001 -0.099,-0.029 -0.111,-0.089c-0.002,-0.026 -0.002,-0.052 0.001,-0.078c0.01,-0.046 0.038,-0.074 0.083,-0.083c0.062,-0.005 0.101,0.023 0.116,0.083Z" style="fill:#fff;fill-rule:nonzero;"/>
                </g>
                <g transform="matrix(6496.06,0,0,6496.06,17412.6,5256.75)">
                    <path d="M0.138,-0.054c0.12,0.093 0.239,0.093 0.359,0c0.04,-0.04 0.065,-0.088 0.073,-0.144c0.005,-0.032 0.005,-0.065 0.002,-0.098c-0.007,-0.054 -0.028,-0.102 -0.063,-0.144c-0.009,-0.01 -0.019,-0.02 -0.03,-0.029c-0.128,-0.09 -0.248,-0.081 -0.36,0.028l-0.001,0.002c-0.034,0.042 -0.054,0.089 -0.06,0.143c-0.005,0.033 -0.004,0.065 0.003,0.098c0.008,0.057 0.033,0.105 0.076,0.144l0.001,0.001Zm0.277,-0.243c0.007,0.033 0.006,0.065 -0.001,0.098c-0.011,0.037 -0.035,0.061 -0.072,0.072c-0.062,0.011 -0.104,-0.013 -0.126,-0.072c-0.008,-0.032 -0.009,-0.065 -0.003,-0.098c0.01,-0.047 0.038,-0.075 0.085,-0.085c0.062,-0.004 0.101,0.024 0.117,0.085Z" style="fill:#fff;fill-rule:nonzero;"/>
                </g>
            </g>
        </g>
        <path d="M102398,19120.1l2468.91,-0l0,-728.371l-1093.78,-0c154.282,-120.989 303.285,-248.069 447.011,-381.238c193.258,-151.845 357.689,-330.487 493.295,-535.925c286.638,-642.298 164.837,-1194.06 -365.404,-1655.28c-741.363,-410.876 -1389.75,-296.383 -1945.16,343.479c-113.681,272.023 -167.679,555.82 -161.995,851.39l816.067,0c0.812,-99.877 8.527,-198.941 23.143,-297.194c47.908,-211.122 177.423,-341.044 388.545,-389.764c293.135,-24.36 479.085,105.561 557.85,389.764c4.06,168.085 -36.946,324.397 -123.019,468.934c-164.838,181.078 -347.54,343.073 -548.106,485.987l-604.133,462.844c-86.885,65.773 -169.304,136.418 -247.257,211.934c-71.457,90.133 -106.779,192.446 -105.967,306.939l0,466.499Z" style="fill:#fff;fill-rule:nonzero;"/>
        <path d="M105397,19120.1l1915.93,-0c308.563,-49.533 546.075,-207.062 712.537,-472.589c260.654,-545.669 146.973,-997.145 -341.044,-1354.43c208.686,-173.77 322.773,-395.854 342.262,-666.252c-22.737,-559.474 -310.999,-880.217 -864.789,-962.23l-1766.12,-3.654l1.218,3459.15Zm800.234,-2120.56l1.218,-615.096l721.063,0c29.232,-1.624 57.246,3.248 84.043,14.616c78.765,34.917 135.199,91.757 169.303,170.522c58.465,185.95 1.624,325.209 -170.521,417.778c-26.797,7.308 -54.405,11.774 -82.825,13.398l-722.281,-1.218Zm2.436,1389.75l-0,-724.717l766.129,-0c46.285,-4.872 91.351,1.624 135.2,19.488c129.109,54.404 206.656,150.221 232.64,287.451c12.992,224.926 -89.321,364.591 -306.939,418.996l-827.03,-1.218Z" style="fill:#fff;fill-rule:nonzero;"/>
        <path d="M66906.7,16716.9l772.219,84.042c-2.436,-97.441 24.767,-185.949 81.607,-265.526c11.368,-12.992 23.549,-25.578 36.541,-37.759c285.014,-215.182 559.879,-203.002 824.594,36.541c3.248,4.872 6.09,10.15 8.526,15.834c74.704,193.258 23.954,344.697 -152.252,454.318c-41.412,14.616 -84.449,23.549 -129.109,26.797l-400.726,-0l0,714.973l492.077,-0c29.232,4.06 56.84,11.774 82.825,23.142c170.521,94.193 225.332,233.858 164.431,418.996c-45.472,77.141 -106.373,138.853 -182.701,185.138c-296.383,143.725 -542.422,83.636 -738.116,-180.266c-45.472,-72.269 -73.486,-150.628 -84.042,-235.076l-807.542,142.507c18.676,181.89 76.328,350.381 172.957,505.475c57.653,78.765 122.614,151.439 194.882,218.024c695.891,525.369 1367.02,494.513 2013.37,-92.569c259.03,-328.863 303.285,-684.523 132.763,-1066.98c-78.765,-128.297 -182.296,-232.234 -310.593,-311.811c118.553,-75.517 213.152,-174.176 283.797,-295.977c221.678,-481.521 116.523,-876.157 -315.465,-1183.91c-705.635,-427.116 -1351.99,-351.193 -1939.08,227.769c-125.861,185.949 -192.852,391.387 -200.972,616.314Z" style="fill:#fff;fill-rule:nonzero;"/>
        <path d="M72979.7,16382c-143.725,-287.45 -359.314,-502.227 -646.764,-644.328c-801.452,-299.631 -1424.26,-83.637 -1868.43,647.982c-291.511,666.659 -295.977,1334.94 -13.399,2004.85c146.162,301.255 369.87,524.963 671.125,671.124c811.196,293.947 1436.85,69.833 1876.96,-672.342c265.527,-671.531 259.031,-1340.62 -19.488,-2007.28Zm-605.352,1475.01c-7.308,38.164 -17.458,75.516 -30.45,112.057c-176.206,367.839 -461.221,499.385 -855.045,394.636c-237.106,-90.133 -380.019,-259.031 -428.74,-506.693c-27.608,-235.483 -32.48,-470.965 -14.616,-706.447c4.06,-38.977 6.902,-77.953 8.526,-116.929c22.736,-322.367 188.792,-529.835 498.167,-622.404c59.277,-16.241 119.365,-23.955 180.266,-23.143c400.32,43.849 616.314,266.339 647.982,667.471l1.218,8.526c27.608,263.902 25.172,528.211 -7.308,792.926Z" style="fill:#fff;fill-rule:nonzero;"/>
        <path d="M76466.9,16382c-143.726,-287.45 -359.314,-502.227 -646.765,-644.328c-801.451,-299.631 -1424.26,-83.637 -1868.43,647.982c-291.511,666.659 -295.977,1334.94 -13.398,2004.85c146.162,301.255 369.87,524.963 671.125,671.124c811.196,293.947 1436.85,69.833 1876.96,-672.342c265.526,-671.531 259.03,-1340.62 -19.488,-2007.28Zm-605.352,1475.01c-7.308,38.164 -17.458,75.516 -30.45,112.057c-176.206,367.839 -461.221,499.385 -855.045,394.636c-237.106,-90.133 -380.019,-259.031 -428.74,-506.693c-27.608,-235.483 -32.48,-470.965 -14.616,-706.447c4.06,-38.977 6.902,-77.953 8.526,-116.929c22.736,-322.367 188.792,-529.835 498.167,-622.404c59.276,-16.241 119.365,-23.955 180.266,-23.143c400.319,43.849 616.314,266.339 647.982,667.471l1.218,8.526c27.608,263.902 25.172,528.211 -7.308,792.926Z" style="fill:#fff;fill-rule:nonzero;"/>
        <path d="M78654.5,19117.6l730.807,-0l0,-1487.19c22.736,-138.041 101.501,-224.926 236.294,-260.654c184.326,-21.924 304.097,55.216 359.314,231.422l-0,1516.42l749.077,-0l0,-1467.7c17.052,-164.838 107.185,-261.061 270.399,-288.669c182.701,-0 291.104,89.727 325.209,269.18l-0,1487.19l732.025,-0l-2.436,-1716.18c-56.841,-237.106 -182.702,-429.552 -377.584,-577.337c-425.492,-287.451 -823.376,-252.941 -1193.65,103.531c-8.12,-9.744 -16.646,-19.489 -25.579,-29.233c-341.043,-326.427 -703.604,-352.411 -1087.68,-77.952l-85.261,-133.982l-630.93,0l-0,2431.15Z" style="fill:#fff;fill-rule:nonzero;"/>
        <path d="M9663.36,64384.1l2895.49,-647.894l-3602.36,3602.36l-3602.36,-3602.36l2895.49,647.894l0,-2124.27l1413.75,-0l0,2124.27Z" style="fill:#fff;"/>
        <path d="M53212.6,64384.1l2895.49,-647.894l-3602.36,3602.36l-3602.36,-3602.36l2895.49,647.894l-0,-2124.27l1413.75,-0l0,2124.27Z" style="fill:#fff;"/>
        <path d="M88388,64478.5l2895.49,-647.894l-3602.36,3602.36l-3602.36,-3602.36l2895.49,647.894l-0,-2124.27l1413.75,-0l0,2124.27Z" style="fill:#fff;"/>
        <path d="M166998,15553.5c0,-2411.91 -1958.17,-4370.08 -4370.08,-4370.08l-42590.5,-0c-2411.91,-0 -4370.08,1958.17 -4370.08,4370.08c0,-0 0,52229 0,52229c0,2411.91 1958.17,4370.08 4370.08,4370.08l42590.5,0c2411.91,0 4370.08,-1958.17 4370.08,-4370.08c0,-0 0,-52229 0,-52229Zm-1062.99,-0c0,-1825.23 -1481.86,-3307.09 -3307.09,-3307.09l-42590.5,0c-1825.23,0 -3307.09,1481.86 -3307.09,3307.09l-0,52229c-0,1825.23 1481.86,3307.09 3307.09,3307.09l42590.5,0c1825.23,0 3307.09,-1481.86 3307.09,-3307.09l0,-52229Z"/>
        <path d="M165935,15553.5c0,-1825.23 -1481.86,-3307.09 -3307.09,-3307.09l-42590.5,0c-1825.23,0 -3307.09,1481.86 -3307.09,3307.09l-0,52229c-0,1825.23 1481.86,3307.09 3307.09,3307.09l42590.5,0c1825.23,0 3307.09,-1481.86 3307.09,-3307.09l0,-52229Z" style="fill:#003fff;"/>
        <path d="M166879,15553.5c0,-2346.73 -1905.24,-4251.97 -4251.97,-4251.97l-42590.5,0c-2346.72,0 -4251.97,1905.24 -4251.97,4251.97c-0,-0 -0,52229 -0,52229c-0,2346.72 1905.24,4251.97 4251.97,4251.97l42590.5,0c2346.72,0 4251.97,-1905.24 4251.97,-4251.97c0,-0 0,-52229 0,-52229Zm-944.882,-0c0,-1825.23 -1481.86,-3307.09 -3307.09,-3307.09l-42590.5,0c-1825.23,0 -3307.09,1481.86 -3307.09,3307.09l-0,52229c-0,1825.23 1481.86,3307.09 3307.09,3307.09l42590.5,0c1825.23,0 3307.09,-1481.86 3307.09,-3307.09l0,-52229Z" style="fill:#003fff;"/>
        <path d="M165935,27722.3c0,-1825.23 -1481.86,-3307.09 -3307.09,-3307.09l-42590.5,0c-1825.23,0 -3307.09,1481.86 -3307.09,3307.09l-0,40060.2c-0,1825.23 1481.86,3307.09 3307.09,3307.09l42590.5,0c1825.23,0 3307.09,-1481.86 3307.09,-3307.09l0,-40060.2Z" style="fill:none;stroke:#fff;stroke-width:944.88px;"/>
        <path d="M165935,15553.5c0,-1825.23 -1481.86,-3307.09 -3307.09,-3307.09l-42590.5,0c-1825.23,0 -3307.09,1481.86 -3307.09,3307.09l-0,3705.72c-0,1825.23 1481.86,3307.09 3307.09,3307.09l42590.5,0c1825.23,0 3307.09,-1481.86 3307.09,-3307.09l0,-3705.72Z" style="fill:none;stroke:#fff;stroke-width:944.88px;"/>
        <path d="M122766,14135.5l-830.884,0l-2238.63,6832.49l2769,0l300.517,-6832.49Zm1873.52,1945.83l1972.83,-1265.43l-1584.74,-680.396l2885.3,0l-0,2934.5l-660.797,-1638.7l-2062.8,2328.06l1051.29,3208.64l-2769,0l-300.517,-6832.49l830.885,0l637.54,1945.83Z" style="fill:#fff;"/>
        <g>
            <path d="M149482,27731.6l0,-291.667l-15043.6,0l-0,5790.04l15043.6,0l0,-5498.37Zm-291.666,-0l-14460.3,-0l-0,5206.71l14460.3,-0l-0,-5206.71Z" style="fill:#fff;"/>
            <path d="M135518,32162.9l813.307,-0l-5.197,-2412.64l1004.29,1469.41l1022.48,-1464.21l2.598,2407.44l804.213,-0l-0,-3688.47l-910.748,-0l-918.543,1292.72l-897.756,-1294.02l-914.646,1.299l-0,3688.47Z" style="fill:#fff;fill-rule:nonzero;"/>
            <rect x="139680" y="30512.9" width="1273.23" height="682.087" style="fill:#fff;fill-rule:nonzero;"/>
            <path d="M144270,31628.9l465.118,0l0,-805.512l-465.118,0l0,-2351.57l-1052.36,-0l-1744.84,2426.93l0,730.157l1934.53,0l-0,531.378l862.677,0l0,-531.378Zm-862.677,-805.512l-953.622,0l954.921,-1261.54l-1.299,1261.54Z" style="fill:#fff;fill-rule:nonzero;"/>
            <path d="M148404,29242.3c-153.307,-306.615 -383.267,-535.709 -689.881,-687.284c-854.882,-319.606 -1519.21,-89.212 -1992.99,691.181c-310.944,711.103 -315.708,1423.94 -14.291,2138.5c155.906,321.339 394.528,559.961 715.866,715.866c865.276,313.544 1532.64,74.489 2002.09,-717.165c283.228,-716.299 276.299,-1430 -20.788,-2141.1Zm-645.708,1573.35c-7.795,40.709 -18.622,80.551 -32.48,119.528c-187.953,392.362 -491.969,532.677 -912.048,420.944c-252.913,-96.141 -405.354,-276.299 -457.323,-540.472c-29.448,-251.181 -34.645,-502.362 -15.59,-753.543c4.331,-41.575 7.362,-83.15 9.094,-124.725c24.252,-343.858 201.378,-565.157 531.378,-663.897c63.229,-17.323 127.323,-25.551 192.284,-24.685c427.008,46.771 657.401,284.094 691.181,711.968l1.299,9.095c29.449,281.496 26.851,563.425 -7.795,845.787Z" style="fill:#fff;fill-rule:nonzero;"/>
        </g>
        <g>
            <g>
                <path d="M131337,36064.4l-0,-291.667l-10802.4,0l-0,5790.04l10802.4,-0l-0,-5498.37Zm-291.667,-0l-10219.1,-0l-0,5206.71l10219.1,-0l-0,-5206.71Z" style="fill:#fff;"/>
                <path d="M121645,40495.8l874.37,-0l177.992,-552.166l1339.49,1.299l172.795,550.867l901.654,-0l-1236.85,-3688.47l-1001.69,-1.299l-1227.76,3689.76Zm1343.38,-1375.87l414.449,-1278.42l415.748,1278.42l-830.197,0Z" style="fill:#fff;fill-rule:nonzero;"/>
                <rect x="125631" y="38845.8" width="1273.23" height="682.087" style="fill:#fff;fill-rule:nonzero;"/>
                <path d="M127601,40495.8l2633.5,-0l0,-776.93l-1166.69,0c164.567,-129.055 323.504,-264.606 476.811,-406.653c206.142,-161.969 381.536,-352.52 526.181,-571.654c305.748,-685.118 175.827,-1273.66 -389.763,-1765.63c-790.788,-438.267 -1482.4,-316.141 -2074.84,366.378c-121.26,290.158 -178.858,592.874 -172.795,908.15l870.472,-0c0.866,-106.535 9.095,-212.205 24.685,-317.008c51.103,-225.197 189.252,-363.779 414.449,-415.748c312.677,-25.984 511.024,112.598 595.039,415.748c4.331,179.291 -39.409,346.024 -131.22,500.197c-175.827,193.15 -370.709,365.945 -584.646,518.386l-644.409,493.701c-92.677,70.157 -180.591,145.511 -263.74,226.063c-76.221,96.141 -113.898,205.275 -113.032,327.401l0,497.599Z" style="fill:#fff;fill-rule:nonzero;"/>
            </g>
            <g transform="matrix(1,0,0,1,132167,35679.1)">
                <g transform="matrix(6496.25,0,0,6496.25,742.417,5256.88)">
                    <path d="M0.05,0l0.508,-0l-0,-0.161l-0.301,0l0.287,-0.41l-0.001,-0.139l-0.484,0l0,0.15l0.27,0.001l-0.279,0.404l0,0.155Z" style="fill:#fff;fill-rule:nonzero;"/>
                </g>
                <g transform="matrix(6496.25,0,0,6496.25,4568.71,5256.88)">
                    <path d="M0.58,-0.113c-0.013,0 -0.026,-0.001 -0.039,-0.004c-0.012,-0.005 -0.018,-0.015 -0.018,-0.028l0,-0.219c-0.002,-0.071 -0.036,-0.118 -0.103,-0.141c-0.124,-0.04 -0.237,-0.02 -0.339,0.061l0.074,0.119c0.02,-0.018 0.042,-0.033 0.067,-0.043c0.032,-0.016 0.067,-0.02 0.102,-0.015c0.008,0.002 0.016,0.005 0.023,0.009c0.008,0.005 0.014,0.013 0.017,0.022c0,0.004 -0.001,0.008 -0.005,0.01c-0.006,0.003 -0.012,0.004 -0.019,0.005l-0.134,0.023c-0.061,0.017 -0.103,0.054 -0.127,0.112c-0.019,0.095 0.015,0.163 0.104,0.203c0.078,0.027 0.149,0.015 0.214,-0.035c0.035,0.035 0.078,0.051 0.128,0.047l0.055,-0.126Zm-0.332,-0.018c-0.006,-0.004 -0.011,-0.01 -0.014,-0.017c-0.005,-0.02 0.001,-0.034 0.02,-0.042c0.005,-0.002 0.01,-0.004 0.016,-0.005c0.031,-0.005 0.062,-0.011 0.092,-0.018l-0,0.052c-0.004,0.013 -0.012,0.023 -0.023,0.029c-0.03,0.014 -0.061,0.015 -0.091,0.001Z" style="fill:#fff;fill-rule:nonzero;"/>
                </g>
                <g transform="matrix(6496.25,0,0,6496.25,8396.62,5256.88)">
                    <path d="M0.217,0l-0.001,-0.273c0.003,-0.026 0.014,-0.049 0.033,-0.067c0.039,-0.026 0.081,-0.033 0.127,-0.021l0,-0.174c-0.059,-0.005 -0.113,0.011 -0.161,0.046l-0.005,-0.034l-0.16,0l0,0.523l0.167,0Z" style="fill:#fff;fill-rule:nonzero;"/>
                </g>
                <g transform="matrix(6496.25,0,0,6496.25,10985.4,5256.88)">
                    <path d="M0.58,-0.113c-0.013,0 -0.026,-0.001 -0.039,-0.004c-0.012,-0.005 -0.018,-0.015 -0.018,-0.028l0,-0.219c-0.002,-0.071 -0.036,-0.118 -0.103,-0.141c-0.124,-0.04 -0.237,-0.02 -0.339,0.061l0.074,0.119c0.02,-0.018 0.042,-0.033 0.067,-0.043c0.032,-0.016 0.067,-0.02 0.102,-0.015c0.008,0.002 0.016,0.005 0.023,0.009c0.008,0.005 0.014,0.013 0.017,0.022c0,0.004 -0.001,0.008 -0.005,0.01c-0.006,0.003 -0.012,0.004 -0.019,0.005l-0.134,0.023c-0.061,0.017 -0.103,0.054 -0.127,0.112c-0.019,0.095 0.015,0.163 0.104,0.203c0.078,0.027 0.149,0.015 0.214,-0.035c0.035,0.035 0.078,0.051 0.128,0.047l0.055,-0.126Zm-0.332,-0.018c-0.006,-0.004 -0.011,-0.01 -0.014,-0.017c-0.005,-0.02 0.001,-0.034 0.02,-0.042c0.005,-0.002 0.01,-0.004 0.016,-0.005c0.031,-0.005 0.062,-0.011 0.092,-0.018l-0,0.052c-0.004,0.013 -0.012,0.023 -0.023,0.029c-0.03,0.014 -0.061,0.015 -0.091,0.001Z" style="fill:#fff;fill-rule:nonzero;"/>
                </g>
                <g transform="matrix(6496.25,0,0,6496.25,14412.2,5256.88)">
                    <path d="M0.123,0.109c0.035,0.018 0.071,0.032 0.109,0.042c0.091,0.037 0.182,0.034 0.271,-0.007c0.066,-0.04 0.102,-0.098 0.107,-0.175l0,-0.481l-0.136,0l-0.011,0.026c-0,0 -0,0 -0,0c-0.078,-0.048 -0.155,-0.049 -0.233,-0.001c-0.027,0.018 -0.05,0.04 -0.068,0.068c-0.075,0.133 -0.053,0.25 0.065,0.347c0.072,0.048 0.149,0.054 0.228,0.019l0,0c0.002,0.044 -0.018,0.071 -0.06,0.081c-0.074,0.007 -0.142,-0.009 -0.203,-0.051l-0.069,0.132Zm0.329,-0.426c0.009,0.03 0.008,0.06 -0.002,0.09c-0.01,0.021 -0.025,0.036 -0.045,0.045c-0.055,0.02 -0.096,0.005 -0.125,-0.045c-0.01,-0.03 -0.011,-0.06 -0.003,-0.09c0.01,-0.032 0.031,-0.053 0.064,-0.063c0.054,-0.01 0.092,0.011 0.111,0.063Z" style="fill:#fff;fill-rule:nonzero;"/>
                </g>
                <g transform="matrix(6496.25,0,0,6496.25,18586,5256.88)">
                    <path d="M0.138,-0.054c0.12,0.093 0.239,0.093 0.359,0c0.04,-0.04 0.065,-0.088 0.073,-0.144c0.005,-0.032 0.005,-0.065 0.002,-0.098c-0.007,-0.054 -0.028,-0.102 -0.063,-0.144c-0.009,-0.01 -0.019,-0.02 -0.03,-0.029c-0.128,-0.09 -0.248,-0.081 -0.36,0.028l-0.001,0.002c-0.034,0.042 -0.054,0.089 -0.06,0.143c-0.005,0.033 -0.004,0.065 0.003,0.098c0.008,0.057 0.033,0.105 0.076,0.144l0.001,0.001Zm0.277,-0.243c0.007,0.033 0.006,0.065 -0.001,0.098c-0.011,0.037 -0.035,0.061 -0.072,0.072c-0.062,0.011 -0.104,-0.013 -0.126,-0.072c-0.008,-0.032 -0.009,-0.065 -0.003,-0.098c0.01,-0.047 0.038,-0.075 0.085,-0.085c0.062,-0.004 0.101,0.024 0.117,0.085Z" style="fill:#fff;fill-rule:nonzero;"/>
                </g>
                <g transform="matrix(6496.25,0,0,6496.25,22384.7,5256.88)">
                    <path d="M0.05,0l0.42,0l-0,-0.137l-0.199,0l0.187,-0.248l-0,-0.133l-0.395,0l0,0.145l0.183,0l-0.196,0.256l0,0.117Z" style="fill:#fff;fill-rule:nonzero;"/>
                </g>
                <g transform="matrix(6496.25,0,0,6496.25,25637.7,5256.88)">
                    <path d="M0.58,-0.113c-0.013,0 -0.026,-0.001 -0.039,-0.004c-0.012,-0.005 -0.018,-0.015 -0.018,-0.028l0,-0.219c-0.002,-0.071 -0.036,-0.118 -0.103,-0.141c-0.124,-0.04 -0.237,-0.02 -0.339,0.061l0.074,0.119c0.02,-0.018 0.042,-0.033 0.067,-0.043c0.032,-0.016 0.067,-0.02 0.102,-0.015c0.008,0.002 0.016,0.005 0.023,0.009c0.008,0.005 0.014,0.013 0.017,0.022c0,0.004 -0.001,0.008 -0.005,0.01c-0.006,0.003 -0.012,0.004 -0.019,0.005l-0.134,0.023c-0.061,0.017 -0.103,0.054 -0.127,0.112c-0.019,0.095 0.015,0.163 0.104,0.203c0.078,0.027 0.149,0.015 0.214,-0.035c0.035,0.035 0.078,0.051 0.128,0.047l0.055,-0.126Zm-0.332,-0.018c-0.006,-0.004 -0.011,-0.01 -0.014,-0.017c-0.005,-0.02 0.001,-0.034 0.02,-0.042c0.005,-0.002 0.01,-0.004 0.016,-0.005c0.031,-0.005 0.062,-0.011 0.092,-0.018l-0,0.052c-0.004,0.013 -0.012,0.023 -0.023,0.029c-0.03,0.014 -0.061,0.015 -0.091,0.001Z" style="fill:#fff;fill-rule:nonzero;"/>
                </g>
            </g>
        </g>
        <g>
            <g>
                <path d="M132587,49627.2l-0,-5498.37l-10802.4,0l0,5790.04l10802.4,0l-0,-291.666Zm-291.667,-5206.71l-10219.1,-0l-0,5206.71l10219.1,-0l0,-5206.71Z" style="fill:#fff;"/>
                <path d="M122901,48851.9l874.37,0l177.993,-552.165l1339.49,1.299l172.795,550.866l901.654,0l-1236.85,-3688.46l-1001.69,-1.299l-1227.76,3689.76Zm1343.39,-1375.87l414.449,-1278.42l415.748,1278.42l-830.197,0Z" style="fill:#fff;fill-rule:nonzero;"/>
                <rect x="126887" y="47201.9" width="1273.23" height="682.087" style="fill:#fff;fill-rule:nonzero;"/>
                <path d="M128714,46288.5l823.7,89.646c-2.598,-103.938 26.418,-198.347 87.048,-283.229c12.126,-13.858 25.118,-27.283 38.976,-40.275c304.016,-229.528 597.205,-216.536 879.567,38.976c3.464,5.197 6.496,10.827 9.094,16.89c79.685,206.141 25.552,367.677 -162.401,484.606c-44.173,15.591 -90.079,25.118 -137.717,28.583l-427.441,-0l0,762.637l524.882,0c31.181,4.331 60.63,12.56 88.347,24.686c181.889,100.472 240.354,249.448 175.393,446.929c-48.504,82.283 -113.464,148.11 -194.882,197.48c-316.141,153.307 -578.582,89.213 -787.322,-192.283c-48.504,-77.087 -78.386,-160.67 -89.646,-250.749l-861.378,152.008c19.921,194.016 81.417,373.741 184.488,539.174c61.496,84.015 130.788,161.535 207.874,232.559c742.284,560.393 1458.15,527.48 2147.6,-98.741c276.299,-350.787 323.504,-730.157 141.614,-1138.11c-84.016,-136.85 -194.449,-247.716 -331.299,-332.598c126.456,-80.551 227.362,-185.788 302.716,-315.709c236.457,-513.622 124.291,-934.567 -336.496,-1262.83c-752.677,-455.591 -1442.13,-374.607 -2068.35,242.952c-134.252,198.347 -205.709,417.481 -214.37,657.402Z" style="fill:#fff;fill-rule:nonzero;"/>
            </g>
            <path d="M135745,49293.7l1240.78,0l1203.43,-4612.34l-1034.53,-0l-794.166,2946.05l-799.039,-2946.05l-1076.75,-0l1260.27,4612.34Z" style="fill:#fff;fill-rule:nonzero;"/>
            <path d="M141867,48556.3c-85.534,2.165 -169.986,-6.496 -253.354,-25.985c-80.121,-33.564 -119.098,-94.196 -116.933,-181.895l0,-1421.06c-11.909,-460.151 -236.03,-765.475 -672.362,-915.971c-805.535,-262.016 -1539.61,-129.384 -2202.23,397.895l485.594,774.678c126.677,-120.181 270.136,-215.459 430.377,-285.835c213.293,-97.444 435.79,-127.76 667.49,-90.948c51.97,11.91 100.692,30.858 146.165,56.843c56.301,32.481 92.572,80.12 108.812,142.917c3.249,27.068 -5.954,48.722 -27.609,64.963c-40.06,15.158 -81.203,25.985 -123.428,32.481l-872.122,151.038c-395.188,105.022 -669.655,347.008 -823.4,725.956c-126.676,617.143 97.444,1056.18 672.362,1317.11c505.625,174.316 970.107,97.985 1393.45,-228.992c228.451,228.451 504.001,331.85 826.648,310.195l360.542,-823.399Zm-2156.76,-115.309c-42.226,-25.985 -72.542,-62.797 -90.948,-110.436c-33.564,-126.677 9.203,-218.166 128.301,-274.466c33.564,-14.076 68.211,-24.903 103.94,-32.482c201.384,-31.398 401.143,-69.293 599.279,-113.684l-1.624,339.429c-24.902,82.286 -75.248,143.459 -151.038,183.519c-194.887,95.278 -390.858,97.985 -587.91,8.12Z" style="fill:#fff;fill-rule:nonzero;"/>
            <path d="M142241,48421.5c-2.165,467.73 218.166,775.76 660.993,924.091c352.963,63.88 702.137,48.181 1047.52,-47.098l-92.572,-963.069c-131.008,69.294 -270.136,97.444 -417.384,84.452l-3.248,-0c-94.196,-19.489 -140.752,-77.414 -139.669,-173.775l1.624,-3519.34l-1062.14,-1.624l-0,3691.49l4.872,4.873Z" style="fill:#fff;fill-rule:nonzero;"/>
            <path d="M144451,48186c195.97,650.707 626.347,1045.35 1291.13,1183.94c684.271,92.03 1286.26,-89.323 1805.96,-544.061l-677.234,-682.106c-220.872,194.887 -478.557,300.451 -773.054,316.692c-332.391,8.662 -556.512,-142.917 -672.361,-454.737l2168.12,-0c54.135,-329.144 26.526,-650.708 -82.827,-964.694c-330.226,-828.271 -938.708,-1195.31 -1825.45,-1101.11l-14.617,3.248c-606.317,128.842 -1008.54,486.136 -1206.68,1071.88l-3.249,9.745c-107.188,386.527 -110.436,773.595 -9.744,1161.2Zm982.558,-950.077c61.714,-221.955 204.09,-364.331 427.128,-427.128c349.715,-48.722 581.415,93.654 695.099,427.128l-1122.23,-0Z" style="fill:#fff;fill-rule:nonzero;"/>
            <path d="M148110,46063.4l-1.624,3230.26l1005.29,0l0,-1942.38c41.143,-233.865 177.023,-377.865 407.64,-432c305.324,-25.985 499.129,108.271 581.415,402.767l-0,1971.61l1019.91,0l-0,-2220.09c-45.474,-356.211 -210.587,-642.588 -495.339,-859.129c-526.197,-324.813 -1049.69,-319.941 -1570.47,14.616l-64.962,-165.654l-881.866,-0Z" style="fill:#fff;fill-rule:nonzero;"/>
            <path d="M151988,48393.9c440.662,823.941 1111.4,1114.11 2012.21,870.497c474.226,-192.722 796.873,-530.527 967.941,-1013.42l-909.475,-332.933c-28.151,272.843 -171.61,455.279 -430.377,547.309c-363.79,73.624 -615.519,-61.714 -755.189,-406.015c-86.617,-312.903 -79.579,-623.64 21.113,-932.212c99.609,-219.79 269.594,-342.136 509.956,-367.038c364.872,8.661 576.542,193.263 635.008,553.805l1.624,8.12l912.723,-341.053l-6.496,-16.24c-194.888,-512.122 -553.805,-851.009 -1076.75,-1016.66c-817.445,-189.474 -1434.05,80.662 -1849.81,810.408c-227.368,540.271 -238.196,1085.41 -32.481,1635.43Z" style="fill:#fff;fill-rule:nonzero;"/>
            <path d="M155373,49292l1070.26,0l-0,-3342.32l-1070.26,0l0,3342.32Zm427.129,-4644.82c-349.715,112.602 -501.836,350.798 -456.362,714.588c111.519,348.632 349.174,500.752 712.964,456.361c348.632,-111.519 500.752,-349.173 456.361,-712.963c-111.519,-349.715 -349.173,-502.377 -712.963,-457.986Z" style="fill:#fff;fill-rule:nonzero;"/>
            <path d="M160369,48556.3c-85.534,2.165 -169.986,-6.496 -253.354,-25.985c-80.121,-33.564 -119.098,-94.196 -116.933,-181.895l0,-1421.06c-11.909,-460.151 -236.03,-765.475 -672.362,-915.971c-805.535,-262.016 -1539.61,-129.384 -2202.23,397.895l485.594,774.678c126.677,-120.181 270.136,-215.459 430.377,-285.835c213.293,-97.444 435.79,-127.76 667.49,-90.948c51.97,11.91 100.692,30.858 146.165,56.843c56.301,32.481 92.572,80.12 108.812,142.917c3.249,27.068 -5.954,48.722 -27.609,64.963c-40.06,15.158 -81.203,25.985 -123.428,32.481l-872.122,151.038c-395.188,105.022 -669.655,347.008 -823.4,725.956c-126.676,617.143 97.444,1056.18 672.362,1317.11c505.625,174.316 970.107,97.985 1393.45,-228.992c228.451,228.451 504.001,331.85 826.648,310.195l360.542,-823.399Zm-2156.76,-115.309c-42.226,-25.985 -72.542,-62.797 -90.948,-110.436c-33.564,-126.677 9.203,-218.166 128.301,-274.466c33.564,-14.076 68.211,-24.903 103.94,-32.482c201.384,-31.398 401.143,-69.293 599.279,-113.684l-1.624,339.429c-24.902,82.286 -75.248,143.459 -151.038,183.519c-194.887,95.278 -390.858,97.985 -587.91,8.12Z" style="fill:#fff;fill-rule:nonzero;"/>
        </g>
        <g>
            <g>
                <g transform="matrix(1,0,0,1,133750,52833.7)">
                    <g transform="matrix(6496.06,0,0,6496.06,261.384,5256.75)">
                        <path d="M0.57,-0.273l0,0.002c-0.016,0.074 -0.061,0.119 -0.135,0.135c-0.099,0.006 -0.161,-0.039 -0.185,-0.136c-0.012,-0.055 -0.011,-0.11 0,-0.165c0.016,-0.078 0.062,-0.124 0.139,-0.138c0.099,-0.003 0.159,0.043 0.18,0.139l0.153,-0.064c-0.037,-0.102 -0.107,-0.171 -0.209,-0.207c-0.196,-0.044 -0.334,0.025 -0.414,0.21c-0.033,0.095 -0.033,0.19 -0.002,0.285c0.037,0.103 0.107,0.173 0.21,0.21c0.197,0.045 0.336,-0.024 0.417,-0.209l0,-0.003l-0.154,-0.058Z" style="fill:#fff;fill-rule:nonzero;"/>
                    </g>
                    <g transform="matrix(6496.06,0,0,6496.06,5071.72,5256.75)">
                        <path d="M0.138,-0.054c0.12,0.093 0.239,0.093 0.359,0c0.04,-0.04 0.065,-0.088 0.073,-0.144c0.005,-0.032 0.005,-0.065 0.002,-0.098c-0.007,-0.054 -0.028,-0.102 -0.063,-0.144c-0.009,-0.01 -0.019,-0.02 -0.03,-0.029c-0.128,-0.09 -0.248,-0.081 -0.36,0.028l-0.001,0.002c-0.034,0.042 -0.054,0.089 -0.06,0.143c-0.005,0.033 -0.004,0.065 0.003,0.098c0.008,0.057 0.033,0.105 0.076,0.144l0.001,0.001Zm0.277,-0.243c0.007,0.033 0.006,0.065 -0.001,0.098c-0.011,0.037 -0.035,0.061 -0.072,0.072c-0.062,0.011 -0.104,-0.013 -0.126,-0.072c-0.008,-0.032 -0.009,-0.065 -0.003,-0.098c0.01,-0.047 0.038,-0.075 0.085,-0.085c0.062,-0.004 0.101,0.024 0.117,0.085Z" style="fill:#fff;fill-rule:nonzero;"/>
                    </g>
                    <g transform="matrix(6496.06,0,0,6496.06,9061.93,5256.75)">
                        <path d="M0.217,0l-0.001,-0.273c0.003,-0.026 0.014,-0.049 0.033,-0.067c0.039,-0.026 0.081,-0.033 0.127,-0.021l0,-0.174c-0.059,-0.005 -0.113,0.011 -0.161,0.046l-0.005,-0.034l-0.16,0l0,0.523l0.167,0Z" style="fill:#fff;fill-rule:nonzero;"/>
                    </g>
                    <g transform="matrix(6496.06,0,0,6496.06,11246.2,5256.75)">
                        <path d="M0.158,-0.41c-0.072,0.128 -0.059,0.246 0.04,0.355c0.086,0.075 0.18,0.086 0.281,0.033l0.008,0.022l0.148,-0l-0,-0.665l-0.161,-0l-0,0.17c-0.058,-0.033 -0.118,-0.039 -0.182,-0.019c-0.056,0.019 -0.101,0.054 -0.134,0.104Zm0.315,0.112c0.002,0.026 0.002,0.053 0,0.079c-0.009,0.05 -0.039,0.079 -0.089,0.088c-0.062,0.001 -0.099,-0.029 -0.111,-0.089c-0.002,-0.026 -0.002,-0.052 0.001,-0.078c0.01,-0.046 0.038,-0.074 0.083,-0.083c0.062,-0.005 0.101,0.023 0.116,0.083Z" style="fill:#fff;fill-rule:nonzero;"/>
                    </g>
                    <g transform="matrix(6496.06,0,0,6496.06,15681.4,5256.75)">
                        <path d="M0.138,-0.054c0.12,0.093 0.239,0.093 0.359,0c0.04,-0.04 0.065,-0.088 0.073,-0.144c0.005,-0.032 0.005,-0.065 0.002,-0.098c-0.007,-0.054 -0.028,-0.102 -0.063,-0.144c-0.009,-0.01 -0.019,-0.02 -0.03,-0.029c-0.128,-0.09 -0.248,-0.081 -0.36,0.028l-0.001,0.002c-0.034,0.042 -0.054,0.089 -0.06,0.143c-0.005,0.033 -0.004,0.065 0.003,0.098c0.008,0.057 0.033,0.105 0.076,0.144l0.001,0.001Zm0.277,-0.243c0.007,0.033 0.006,0.065 -0.001,0.098c-0.011,0.037 -0.035,0.061 -0.072,0.072c-0.062,0.011 -0.104,-0.013 -0.126,-0.072c-0.008,-0.032 -0.009,-0.065 -0.003,-0.098c0.01,-0.047 0.038,-0.075 0.085,-0.085c0.062,-0.004 0.101,0.024 0.117,0.085Z" style="fill:#fff;fill-rule:nonzero;"/>
                    </g>
                    <g transform="matrix(6496.06,0,0,6496.06,19699.2,5256.75)">
                        <path d="M0.496,-0.067c0.044,-0.048 0.069,-0.104 0.075,-0.169c0.006,-0.144 -0.059,-0.24 -0.196,-0.286c-0.058,-0.014 -0.113,-0.005 -0.164,0.025l-0,-0.171l-0.161,0l0,0.668l0.146,0l0.011,-0.022c0.107,0.054 0.203,0.039 0.289,-0.045Zm-0.285,-0.234c0.01,-0.046 0.038,-0.074 0.084,-0.083c0.061,-0.005 0.1,0.023 0.116,0.083c0.003,0.026 0.003,0.051 0.001,0.077c-0.008,0.05 -0.038,0.08 -0.088,0.09c-0.062,0.002 -0.099,-0.028 -0.113,-0.088c-0.001,-0.027 -0.001,-0.053 0,-0.079Z" style="fill:#fff;fill-rule:nonzero;"/>
                    </g>
                    <g transform="matrix(6496.06,0,0,6496.06,23642.3,5256.75)">
                        <path d="M0.58,-0.113c-0.013,0 -0.026,-0.001 -0.039,-0.004c-0.012,-0.005 -0.018,-0.015 -0.018,-0.028l0,-0.219c-0.002,-0.071 -0.036,-0.118 -0.103,-0.141c-0.124,-0.04 -0.237,-0.02 -0.339,0.061l0.074,0.119c0.02,-0.018 0.042,-0.033 0.067,-0.043c0.032,-0.016 0.067,-0.02 0.102,-0.015c0.008,0.002 0.016,0.005 0.023,0.009c0.008,0.005 0.014,0.013 0.017,0.022c0,0.004 -0.001,0.008 -0.005,0.01c-0.006,0.003 -0.012,0.004 -0.019,0.005l-0.134,0.023c-0.061,0.017 -0.103,0.054 -0.127,0.112c-0.019,0.095 0.015,0.163 0.104,0.203c0.078,0.027 0.149,0.015 0.214,-0.035c0.035,0.035 0.078,0.051 0.128,0.047l0.055,-0.126Zm-0.332,-0.018c-0.006,-0.004 -0.011,-0.01 -0.014,-0.017c-0.005,-0.02 0.001,-0.034 0.02,-0.042c0.005,-0.002 0.01,-0.004 0.016,-0.005c0.031,-0.005 0.062,-0.011 0.092,-0.018l-0,0.052c-0.004,0.013 -0.012,0.023 -0.023,0.029c-0.03,0.014 -0.061,0.015 -0.091,0.001Z" style="fill:#fff;fill-rule:nonzero;"/>
                    </g>
                </g>
                <path d="M140581,54159.5l683.655,-0l599.736,-1271.69l-1016.91,-0l-266.482,1271.69Z" style="fill:#fff;"/>
            </g>
            <g>
                <path d="M132225,58544.2l0,-5793.83l-11392.5,0l-0,5793.83l11392.5,-0Zm-291.667,-5502.16l-10809.2,-0l0,5210.5l10809.2,0l0,-5210.5Z" style="fill:#fff;"/>
                <path d="M121931,57475.3l874.37,-0l177.993,-552.166l1339.49,1.3l172.795,550.866l901.654,-0l-1236.85,-3688.47l-1001.69,-1.299l-1227.76,3689.76Zm1343.39,-1375.87l414.449,-1278.43l415.748,1278.43l-830.197,-0Z" style="fill:#fff;fill-rule:nonzero;"/>
                <rect x="125969" y="55825.3" width="1273.23" height="682.087" style="fill:#fff;fill-rule:nonzero;"/>
                <path d="M130612,56941.3l465.118,0l-0,-805.511l-465.118,-0l-0,-2351.58l-1052.36,-0l-1744.84,2426.93l-0,730.157l1934.53,0l-0,531.378l862.677,0l-0,-531.378Zm-862.677,-805.511l-953.623,-0l954.922,-1261.54l-1.299,1261.54Z" style="fill:#fff;fill-rule:nonzero;"/>
            </g>
        </g>
        <path d="M156565,19120.1l2468.91,-0l-0,-728.371l-1093.78,-0c154.281,-120.989 303.285,-248.069 447.01,-381.238c193.258,-151.845 357.69,-330.487 493.295,-535.925c286.639,-642.298 164.838,-1194.06 -365.403,-1655.28c-741.364,-410.876 -1389.75,-296.383 -1945.16,343.479c-113.681,272.023 -167.68,555.82 -161.996,851.39l816.068,0c0.812,-99.877 8.526,-198.941 23.142,-297.194c47.909,-211.122 177.424,-341.044 388.546,-389.764c293.135,-24.36 479.085,105.561 557.849,389.764c4.06,168.085 -36.946,324.397 -123.019,468.934c-164.837,181.078 -347.539,343.073 -548.105,485.987l-604.134,462.844c-86.885,65.773 -169.304,136.418 -247.256,211.934c-71.457,90.133 -106.779,192.446 -105.967,306.939l-0,466.499Z" style="fill:#fff;fill-rule:nonzero;"/>
        <path d="M159563,19120.1l819.722,-0l166.867,-517.655l1255.77,1.218l161.996,516.437l845.3,-0l-1159.55,-3457.94l-939.087,-1.218l-1151.02,3459.15Zm1259.42,-1289.88l388.546,-1198.52l389.763,1198.52l-778.309,0Z" style="fill:#fff;fill-rule:nonzero;"/>
        <path d="M142219,64793.2l1590.01,-2504.82l-0,5094.51l-5094.51,-0l2504.82,-1590.01l-2500.06,-2500.06l999.673,-999.673l2500.06,2500.06Z" style="fill:#fff;"/>
    </g>
</svg>
