<svg xmlns="http://www.w3.org/2000/svg" width="600" height="246" xmlns:v="https://vecta.io/nano"><path d="M0 0h600v246H0z" fill="#1b8a66" stroke="#fff" stroke-width="24"/><path d="M38.506 202.35h117.926v-34.862H74.91v-30.035h66.505V104.2H74.91V76.446h73.611V44H38.506v158.35zm144.082-55.377h54.706v-33.32h-54.706v33.32zm187.934-27.688l-.468-.067.468-.134c14.02-4.479 20.572-18.05 20.572-31.868A41.851 41.851 0 0 0 385 65.183c-10.183-16.277-31.354-24.423-52.508-24.423-20.878 0-41.739 7.935-52.007 23.82a41.294 41.294 0 0 0-6.523 22.61c0 13.8 6.576 27.371 20.535 31.894l.537.134-.469.067c-16.487 3.74-24.105 19.192-24.105 34.949a46.049 46.049 0 0 0 7.009 24.852c11.266 17.541 33.2 26.33 55.116 26.33 21.885 0 43.753-8.764 54.966-26.33a45.466 45.466 0 0 0 7.079-24.825c0-15.761-7.664-31.247-24.108-34.976zm-57.588-35.4c2.9-7.468 11.013-10.605 19.161-10.605a29.643 29.643 0 0 1 13.891 3.3 14.49 14.49 0 0 1 7.117 12.7 14.239 14.239 0 0 1-1.553 6.544c-3.606 6.543-11.032 9.15-18.487 9.15a32.788 32.788 0 0 1-11.95-2.245 14.783 14.783 0 0 1-9.186-13.72 13.243 13.243 0 0 1 1.007-5.121zm32.515 85.015a55.219 55.219 0 0 1-13.922 1.843c-8.3 0-16.7-2.144-20.738-8.682a14.424 14.424 0 0 1-2.429-8.131c0-6.869 4.487-13.758 11.479-15.533a54.427 54.427 0 0 1 13.572-1.822c6.17 0 12.3 1.259 17.2 4.569a15.306 15.306 0 0 1 6.06 12.349 15.884 15.884 0 0 1-11.222 15.407zm210.563-82.265c-8.078-26.647-34.252-46-62.061-46q-.614 0-1.227.013c-23.431.062-46.241 13.633-57.186 34.392-7.174 14.473-10.309 30.706-10.309 46.981a137.284 137.284 0 0 0 4.744 35.347c8.395 30.828 35.931 48.079 63.765 48.079a64.142 64.142 0 0 0 51.681-25.621c11.388-15.451 15.937-35.253 15.937-55.047a142.508 142.508 0 0 0-5.344-38.144zm-33.052 54.037c-1.3 19.071-15.623 29.137-29.9 29.137-12.649 0-25.264-7.9-28.762-24.444a149.059 149.059 0 0 1-1.836-22.87 115.59 115.59 0 0 1 2.638-25.132 29.663 29.663 0 0 1 20.313-19.979 27.911 27.911 0 0 1 7.692-1.068 29.737 29.737 0 0 1 23.818 11.929c5.623 7.708 7.18 20.42 7.18 32.5a195.17 195.17 0 0 1-1.143 19.927z" fill="#fff" fill-rule="evenodd"/></svg>