<svg xmlns="http://www.w3.org/2000/svg" width="650" height="246" xmlns:v="https://vecta.io/nano"><path d="M0 0h650v246H0z" fill="#00317f" stroke="#fff" stroke-width="24"/><path d="M168.763 44h-46.728L69.341 202.35h38.011l8.314-25.342h58.594l8.314 25.342h38.012zm-41.969 98.954l17.432-54.64 18.972 54.64h-36.4zm110.375 4.022h54.706v-33.32h-54.706v33.32zM434.857 121.9c-8.2-20.078-27.465-31.259-47.344-31.259a52.629 52.629 0 0 0-28.346 8.259l-.8.537.068-.47c1.136-12.745 12.819-23.214 25.5-23.214q.988 0 1.983.086c8.056.368 16.542 4.5 19.241 12.537l.067.267 33.253-14.078-.336-.806C428.53 52.268 405.41 40.74 382.46 40.74a63.577 63.577 0 0 0-27.65 6.137c-15.044 7.089-25.067 22.42-29.7 38.012a153 153 0 0 0-4.819 38.228c0 31.616 9.935 64.651 38.34 77.486a65.225 65.225 0 0 0 25.458 5.041 69.427 69.427 0 0 0 25.695-4.907c20.217-8.917 30.743-30.9 30.743-52.583a61.656 61.656 0 0 0-5.67-26.254zM395.1 166.953a20.6 20.6 0 0 1-11.713 3.617c-10.4 0-20.453-7.593-21.809-18.9a24.588 24.588 0 0 1-.343-4.075c0-12.373 9.518-22.735 21.708-22.735a22.679 22.679 0 0 1 5.654.73c10.627 2.471 16.368 12.434 16.368 22.364.001 7.378-3.171 14.746-9.865 18.999zm69.932 35.4h114.776V169.1h-50.683l24.737-21.051c11.945-9.693 22.035-22.281 25.276-37.61a60.04 60.04 0 0 0 1.5-13.4c0-17.757-7.741-35.593-23.226-45.123a70.4 70.4 0 0 0-38.57-11.092 73.071 73.071 0 0 0-39.668 11.426c-14 10.273-20.346 28.307-20.346 45.445a68.4 68.4 0 0 0 .369 7.118l.133 1.139h38.148l-.068-.536a28.3 28.3 0 0 1-.265-3.885c0-10.794 5.953-22.172 16.824-25.077a24.912 24.912 0 0 1 6.2-.756 31.571 31.571 0 0 1 12.51 2.7c6.947 3.406 9.829 10.562 9.829 17.885a29.487 29.487 0 0 1-2.321 11.413c-10.805 22.37-55.645 46.332-73.342 62.751a7.932 7.932 0 0 0-1.811 5.028v26.875z" fill="#fff" fill-rule="evenodd"/></svg>