<svg xmlns="http://www.w3.org/2000/svg" width="900" height="246" xmlns:v="https://vecta.io/nano"><path d="M0 0h900v246H0z" fill="#00317f" stroke="#fff" stroke-width="24"/><path d="M225.088 90.725l-.47-1.274C213.247 59.065 183.536 40.9 153.2 40.9a73.138 73.138 0 0 0-39.669 11.541c-24.4 14.812-36.607 42.774-36.607 70.736s12.2 55.911 36.607 70.72a73.036 73.036 0 0 0 39.655 11.546c30.343 0 60.076-18.172 71.432-48.551l.47-1.274-34.862-13.744-.135.6c-3.333 17.741-19.83 29.751-36.881 29.751a34.982 34.982 0 0 1-15.41-3.525c-17.854-8.075-22.8-26.73-22.8-44.819v-.7-.724c0-18.083 4.963-36.72 22.8-44.8a35.049 35.049 0 0 1 15.4-3.526c17.048 0 33.537 11.992 36.888 29.74l.135.6zm34.706 111.625h35.6V100.178l45.924 62.617 45.182-62.617V202.35h35.6V44h-39.553l-41.231 56.985L299.349 44h-39.555v158.35zm196.333-55.377h54.706v-33.32h-54.706v33.32zm195.584-3.218V44h-45.12l-77.633 102.906v31.711H614.5v23.733h37.208v-23.733h19.777v-34.862h-19.774zm-37.208 0h-41.969L614.5 89.117v54.638zm87.035 18.035l.2.87c5.928 27.946 33.142 42.9 60.207 42.9 19.024 0 37.975-7.39 49.407-22.855 8.267-10.212 12.128-22.955 12.128-35.809a65.76 65.76 0 0 0-11.726-37.467C801.232 95.242 783.492 88.4 765.928 88.4a65.209 65.209 0 0 0-21.35 3.535l-1.071.335 2.346-15.018h68.919V44H713.406l-9.991 84.271 36.941 5.229.2-.4c5.118-8.1 12.713-11.629 20.171-11.629 12.215 0 24.061 9.464 24.061 23.813a28.049 28.049 0 0 1-.521 5.315c-2.31 13.3-12.91 20.018-23.518 20.018-10.3 0-20.606-6.337-23.344-19.148l-.067-.4z" fill="#fff" fill-rule="evenodd"/></svg>