<?xml version="1.0" encoding="UTF-8" standalone="no"?>
<svg
   xmlns:dc="http://purl.org/dc/elements/1.1/"
   xmlns:cc="http://creativecommons.org/ns#"
   xmlns:rdf="http://www.w3.org/1999/02/22-rdf-syntax-ns#"
   xmlns:svg="http://www.w3.org/2000/svg"
   xmlns="http://www.w3.org/2000/svg"
   id="svg8"
   version="1.1"
   viewBox="0 0 291.04165 105.83333"
   height="400"
   width="1100">
  <defs
     id="defs2" />
  <metadata
     id="metadata5">
    <rdf:RDF>
      <cc:Work
         rdf:about="">
        <dc:format>image/svg+xml</dc:format>
        <dc:type
           rdf:resource="http://purl.org/dc/dcmitype/StillImage" />
        <dc:title></dc:title>
      </cc:Work>
    </rdf:RDF>
  </metadata>
  <g
     transform="translate(0.70951343,-83.133829)"
     id="layer1">
    <rect
       y="85.779671"
       x="1.9363198"
       height="100.54166"
       width="285.75"
       id="rect1196"
       style="opacity:1;fill:#19408b;fill-opacity:1;stroke:#ffffff;stroke-width:5.29166651;stroke-miterlimit:4;stroke-dasharray:none;stroke-opacity:1" />
    <g
       id="text1200"
       style="font-style:normal;font-variant:normal;font-weight:normal;font-stretch:normal;font-size:98.4312973px;line-height:125%;font-family:'Roadgeek 2005 Series EM';-inkscape-font-specification:'Roadgeek 2005 Series EM';text-align:center;letter-spacing:0px;word-spacing:0px;writing-mode:lr-tb;text-anchor:middle;fill:#000000;fill-opacity:1;stroke:none;stroke-width:0.26458332px;stroke-linecap:butt;stroke-linejoin:miter;stroke-opacity:1"
       aria-label="M-30">
      <path
         id="path6108"
         style="fill:#ffffff;stroke-width:0.26458332px"
         d="M 81.856827,169.12341 V 133.29442 L 64.237625,169.12341 46.224697,133.29442 v 35.82899 H 33.231766 v -66.14583 h 12.992931 l 18.012928,36.32115 17.619202,-36.32115 h 12.8945 v 66.14583 z" />
      <path
         id="path6110"
         style="fill:#ffffff;stroke-width:0.26458332px"
         d="m 106.02171,152.19323 v -13.38666 h 23.13135 v 13.38666 z" />
      <path
         id="path6112"
         style="fill:#ffffff;stroke-width:0.26458332px"
         d="m 187.95039,149.73245 q 0,4.62627 -1.8702,8.36666 -1.87019,3.74039 -5.21686,6.49646 -3.34666,2.75608 -7.97293,4.23255 -4.62627,1.47647 -10.13843,1.47647 -6.2996,0 -12.69763,-2.55922 -6.39804,-2.55921 -10.92588,-6.69332 -1.2796,-1.27961 -2.16549,-2.26392 -0.88588,-0.98432 -2.46078,-3.05137 l 10.63058,-7.48078 q 6.79176,8.85881 18.30822,8.85881 5.41372,0 8.46509,-2.06705 3.05137,-2.16549 3.05137,-5.61059 0,-2.46078 -1.47646,-4.62627 -1.47647,-2.16549 -3.54353,-3.24823 -1.37804,-0.68902 -2.95294,-0.98431 -1.5749,-0.39373 -3.54353,-0.39373 h -1.87019 v -13.18979 h 3.44509 q 1.77177,0 2.36235,-0.0984 0.68902,-0.0984 1.57491,-0.59059 1.2796,-0.68902 1.96862,-1.96863 0.78745,-1.2796 0.78745,-2.65764 0,-2.95294 -2.85451,-4.7247 -2.8545,-1.77177 -7.77607,-1.77177 -4.03568,0 -7.38235,1.37804 -3.34666,1.27961 -6.49646,4.23255 l -9.44941,-8.56353 q 5.41373,-5.41372 11.22117,-7.77607 5.80745,-2.46078 12.59921,-2.46078 5.11843,0 9.35097,1.47647 4.33098,1.37804 7.38235,3.93725 3.05137,2.46078 4.7247,6.00431 1.67333,3.54353 1.67333,7.77607 0,3.74039 -1.37804,6.89019 -1.2796,3.1498 -3.74038,5.61059 4.4294,3.74039 6.39803,7.57921 1.96863,3.74039 1.96863,8.46509 z" />
      <path
         id="path6114"
         style="fill:#ffffff;stroke-width:0.26458332px"
         d="m 256.31862,136.0505 q 0,7.8745 -1.96863,14.27254 -1.96863,6.2996 -5.61058,10.72901 -3.54353,4.42941 -8.66196,6.89019 -5.11843,2.36235 -11.3196,2.36235 -7.48078,0 -12.79607,-2.85451 -5.21686,-2.95294 -8.56352,-7.77607 -3.34666,-4.82314 -4.92156,-10.92588 -1.47647,-6.20117 -1.47647,-12.69763 0,-7.77608 1.87019,-14.07568 1.96863,-6.2996 5.51215,-10.72901 3.64196,-4.42941 8.76039,-6.79176 5.21686,-2.46078 11.61489,-2.46078 6.00431,0 11.02431,2.46078 5.01999,2.46078 8.66195,6.98862 3.74039,4.42941 5.80745,10.72901 2.06706,6.20118 2.06706,13.87882 z m -12.99294,-0.2953 q 0,-10.72901 -3.83882,-15.65057 -3.74039,-4.92157 -10.72901,-4.92157 -7.08705,0 -10.82744,5.21686 -3.74039,5.21686 -3.74039,15.65058 0,10.13842 3.74039,15.65057 3.83882,5.41372 10.82744,5.41372 6.79176,0 10.63058,-5.80744 3.93725,-5.80745 3.93725,-15.55215 z" />
    </g>
  </g>
</svg>
