<svg xmlns="http://www.w3.org/2000/svg" width="700" height="246" xmlns:v="https://vecta.io/nano"><path d="M0 0h700v246H0z" fill="#00317f" stroke="#fff" stroke-width="24"/><path d="M188.221 43h-46.728L88.8 201.35h38.012l8.314-25.342h58.593l8.314 25.342h38.012zm-41.968 98.954l17.432-54.64 18.972 54.64h-36.4zm247.335-47.6v-.225c0-27.246-24.036-51.14-51.233-51.14q-.5 0-.992.011h-72.07v158.35h38.011v-53.834h34.059l.963.01c27.349 0 51.3-24.05 51.3-51.331q-.001-.92-.038-1.844zm-58.6 21.52h-27.683V74.642h27.688c13.674.586 20.5 10.592 20.5 20.6s-6.833 20.037-20.5 20.629zm73.629 30.1h54.706v-33.32h-54.701v33.32zM606.31 120.9c-8.2-20.078-27.464-31.259-47.344-31.259A52.629 52.629 0 0 0 530.62 97.9l-.8.537.068-.47c1.136-12.745 12.819-23.214 25.5-23.214q.988 0 1.984.086c8.055.368 16.541 4.5 19.241 12.537l.066.267 33.251-14.074-.336-.806c-9.613-21.491-32.733-33.019-55.683-33.019a63.573 63.573 0 0 0-27.649 6.137c-15.045 7.089-25.067 22.42-29.7 38.012a152.954 152.954 0 0 0-4.819 38.228c0 31.616 9.934 64.651 38.339 77.486a65.225 65.225 0 0 0 25.458 5.041 69.423 69.423 0 0 0 25.695-4.907c20.218-8.917 30.744-30.9 30.744-52.583a61.656 61.656 0 0 0-5.669-26.258zm-39.756 45.054a20.594 20.594 0 0 1-11.712 3.617c-10.4 0-20.454-7.593-21.81-18.9a24.585 24.585 0 0 1-.342-4.075c0-12.373 9.518-22.735 21.708-22.735a22.672 22.672 0 0 1 5.653.73c10.627 2.471 16.368 12.434 16.368 22.364 0 7.377-3.172 14.745-9.865 18.998z" fill="#fff" fill-rule="evenodd"/></svg>