<?xml version="1.0" encoding="UTF-8" standalone="no"?>
<svg
   xmlns:dc="http://purl.org/dc/elements/1.1/"
   xmlns:cc="http://creativecommons.org/ns#"
   xmlns:rdf="http://www.w3.org/1999/02/22-rdf-syntax-ns#"
   xmlns:svg="http://www.w3.org/2000/svg"
   xmlns="http://www.w3.org/2000/svg"
   id="svg8"
   version="1.1"
   viewBox="0 0 343.9583 105.83333"
   height="400"
   width="1300">
  <defs
     id="defs2" />
  <metadata
     id="metadata5">
    <rdf:RDF>
      <cc:Work
         rdf:about="">
        <dc:format>image/svg+xml</dc:format>
        <dc:type
           rdf:resource="http://purl.org/dc/dcmitype/StillImage" />
        <dc:title></dc:title>
      </cc:Work>
    </rdf:RDF>
  </metadata>
  <g
     transform="translate(0.70951343,-83.133837)"
     id="layer1">
    <rect
       y="85.779671"
       x="1.9363198"
       height="100.54166"
       width="338.66666"
       id="rect1196"
       style="opacity:1;fill:#13926c;fill-opacity:1;stroke:#ffffff;stroke-width:5.29166651;stroke-miterlimit:4;stroke-dasharray:none;stroke-opacity:1" />
    <g
       id="text1200"
       style="font-style:normal;font-variant:normal;font-weight:normal;font-stretch:normal;font-size:98.4312973px;line-height:125%;font-family:'Roadgeek 2005 Series EM';-inkscape-font-specification:'Roadgeek 2005 Series EM';text-align:center;letter-spacing:0px;word-spacing:0px;writing-mode:lr-tb;text-anchor:middle;fill:#ffffff;fill-opacity:1;stroke:none;stroke-width:0.26458332px;stroke-linecap:butt;stroke-linejoin:miter;stroke-opacity:1"
       aria-label="A-483">
      <path
         id="path8708"
         style="fill:#ffffff;stroke:none;stroke-width:0.26458332px"
         d="M 77.679935,169.12341 71.380332,153.57127 H 45.296038 l -6.299603,15.55214 H 24.920759 L 51.49721,102.97758 h 13.68195 l 26.57645,66.14583 z m -18.997241,-47.24702 -8.071366,18.50508 h 15.453714 z" />
      <path
         id="path8710"
         style="fill:#ffffff;stroke:none;stroke-width:0.26458332px"
         d="M 96.521842,152.19323 V 138.80657 H 119.6532 v 13.38666 z" />
      <path
         id="path8712"
         style="fill:#ffffff;stroke:none;stroke-width:0.26458332px"
         d="m 175.39915,154.55558 v 14.56783 h -12.8945 v -14.56783 h -38.6835 v -12.30391 l 38.6835,-39.27409 h 12.8945 v 39.27409 h 9.94156 v 12.30391 z m -12.8945,-33.76193 -21.55645,21.45802 h 21.55645 z" />
      <path
         id="path8714"
         style="fill:#ffffff;stroke:none;stroke-width:0.26458332px"
         d="m 254.36874,148.25598 q 0,4.62627 -1.96863,8.95725 -1.96863,4.33097 -5.70902,7.28391 -3.1498,2.55922 -8.07136,4.23255 -4.92157,1.5749 -10.63058,1.5749 -6.98862,0 -12.8945,-2.16549 -5.80745,-2.16549 -9.05568,-6.20117 -2.46078,-2.95294 -3.83882,-6.39804 -1.27961,-3.54352 -1.27961,-7.28391 0,-9.25254 6.89019,-15.45372 -2.26392,-2.26392 -3.54352,-5.51215 -1.27961,-3.24823 -1.27961,-6.49646 0,-4.33098 1.87019,-7.77608 1.8702,-3.54352 5.11843,-5.90587 3.34667,-2.46079 7.8745,-3.74039 4.62628,-1.37804 10.13843,-1.37804 5.51215,0 9.94156,1.37804 4.52784,1.2796 7.67764,3.74039 3.24823,2.36235 4.92157,5.90587 1.77176,3.4451 1.77176,7.77608 0,3.64195 -1.08275,6.39803 -1.08274,2.75608 -3.54352,5.61058 3.44509,3.14981 5.01999,6.98863 1.67334,3.74039 1.67334,8.46509 z m -15.05999,-27.75763 q 0,-2.46078 -3.05137,-3.83882 -3.05137,-1.47647 -8.26823,-1.47647 -5.31529,0 -8.56352,1.47647 -3.24824,1.37804 -3.24824,3.83882 0,2.65765 3.24824,4.13412 3.24823,1.47647 8.56352,1.47647 5.21686,0 8.26823,-1.47647 3.05137,-1.47647 3.05137,-4.13412 z m 2.06705,27.75763 q 0,-4.33098 -3.44509,-6.49647 -3.4451,-2.26392 -9.94156,-2.26392 -6.49647,0 -10.23686,2.26392 -3.64195,2.16549 -3.64195,6.49647 0,4.23254 3.64195,6.59489 3.74039,2.26392 10.23686,2.26392 6.5949,0 9.94156,-2.26392 3.44509,-2.36235 3.44509,-6.59489 z" />
      <path
         id="path8716"
         style="fill:#ffffff;stroke:none;stroke-width:0.26458332px"
         d="m 317.63852,149.73245 q 0,4.62627 -1.87019,8.36666 -1.8702,3.74039 -5.21686,6.49646 -3.34666,2.75608 -7.97293,4.23255 -4.62628,1.47647 -10.13843,1.47647 -6.2996,0 -12.69764,-2.55922 -6.39803,-2.55921 -10.92587,-6.69332 -1.27961,-1.27961 -2.16549,-2.26392 -0.88588,-0.98432 -2.46078,-3.05137 l 10.63058,-7.48078 q 6.79176,8.85881 18.30822,8.85881 5.41372,0 8.46509,-2.06705 3.05137,-2.16549 3.05137,-5.61059 0,-2.46078 -1.47647,-4.62627 -1.47647,-2.16549 -3.54352,-3.24823 -1.37804,-0.68902 -2.95294,-0.98431 -1.5749,-0.39373 -3.54353,-0.39373 h -1.87019 v -13.18979 h 3.44509 q 1.77176,0 2.36235,-0.0984 0.68902,-0.0984 1.5749,-0.59059 1.27961,-0.68902 1.96863,-1.96863 0.78745,-1.2796 0.78745,-2.65764 0,-2.95294 -2.85451,-4.7247 -2.85451,-1.77177 -7.77607,-1.77177 -4.03568,0 -7.38235,1.37804 -3.34666,1.27961 -6.49646,4.23255 l -9.44941,-8.56353 q 5.41372,-5.41372 11.22117,-7.77607 5.80745,-2.46078 12.59921,-2.46078 5.11842,0 9.35097,1.47647 4.33098,1.37804 7.38235,3.93725 3.05137,2.46078 4.7247,6.00431 1.67333,3.54353 1.67333,7.77607 0,3.74039 -1.37804,6.89019 -1.2796,3.1498 -3.74039,5.61059 4.42941,3.74039 6.39804,7.57921 1.96862,3.74039 1.96862,8.46509 z" />
    </g>
    <text
       id="text8125"
       y="43.837727"
       x="81.953209"
       style="font-style:normal;font-variant:normal;font-weight:normal;font-stretch:normal;font-size:19.04999924px;line-height:125%;font-family:'Transport New';-inkscape-font-specification:'Transport New';text-align:center;letter-spacing:0px;word-spacing:0px;writing-mode:lr-tb;text-anchor:middle;fill:#000000;fill-opacity:1;stroke:none;stroke-width:0.26458332px;stroke-linecap:butt;stroke-linejoin:miter;stroke-opacity:1"
       xml:space="preserve"><tspan
         style="stroke-width:0.26458332px"
         y="61.077976"
         x="81.953209"
         id="tspan8123" /></text>
  </g>
</svg>
