<?xml version="1.0" encoding="UTF-8" standalone="no"?>
<svg
   width="1500.0001"
   height="400"
   viewBox="0 0 396.875 105.83334"
   version="1.1"
   id="svg4697"
   sodipodi:docname="ESP_CV-400.svg"
   inkscape:version="1.1.2 (b8e25be833, 2022-02-05)"
   xmlns:inkscape="http://www.inkscape.org/namespaces/inkscape"
   xmlns:sodipodi="http://sodipodi.sourceforge.net/DTD/sodipodi-0.dtd"
   xmlns="http://www.w3.org/2000/svg"
   xmlns:svg="http://www.w3.org/2000/svg"
   xmlns:rdf="http://www.w3.org/1999/02/22-rdf-syntax-ns#"
   xmlns:cc="http://creativecommons.org/ns#"
   xmlns:dc="http://purl.org/dc/elements/1.1/">
  <sodipodi:namedview
     id="namedview13"
     pagecolor="#ffffff"
     bordercolor="#666666"
     borderopacity="1.0"
     inkscape:pageshadow="2"
     inkscape:pageopacity="0.0"
     inkscape:pagecheckerboard="0"
     showgrid="false"
     inkscape:zoom="0.53457268"
     inkscape:cx="896.97812"
     inkscape:cy="258.15012"
     inkscape:window-width="1920"
     inkscape:window-height="1017"
     inkscape:window-x="1912"
     inkscape:window-y="-8"
     inkscape:window-maximized="1"
     inkscape:current-layer="svg4697" />
  <defs
     id="defs4691" />
  <metadata
     id="metadata4694">
    <rdf:RDF>
      <cc:Work
         rdf:about="">
        <dc:format>image/svg+xml</dc:format>
        <dc:type
           rdf:resource="http://purl.org/dc/dcmitype/StillImage" />
      </cc:Work>
    </rdf:RDF>
  </metadata>
  <rect
     y="2.6458495"
     x="2.6458333"
     height="100.54166"
     width="391.58334"
     id="rect5242"
     style="opacity:1;fill:#f4b70d;fill-opacity:1;stroke:#000000;stroke-width:5.29166651;stroke-miterlimit:4;stroke-dasharray:none;stroke-opacity:1" />
  <g
     id="g1367">
    <g
       id="text830"
       style="font-style:normal;font-variant:normal;font-weight:bold;font-stretch:normal;font-size:99.16916656px;line-height:125%;font-family:TrafficTypSpaDOT;-inkscape-font-specification:'TrafficTypSpaDOT Bold';text-align:center;letter-spacing:0px;word-spacing:0px;writing-mode:lr-tb;text-anchor:middle;fill:#000000;fill-opacity:1;stroke:none;stroke-width:0.26458338px;stroke-linecap:butt;stroke-linejoin:miter;stroke-opacity:1"
       aria-label="CV-500">
      <path
         id="path1884"
         style="fill:#000000;stroke-width:0.26458338px"
         d="m 61.371004,60.899794 c -1.388368,6.842673 -7.239349,11.602793 -14.28036,11.602793 -4.462613,0 -8.925225,-1.983383 -11.701962,-5.255966 -2.875906,-3.371752 -4.264274,-8.032702 -4.264274,-14.082022 0,-11.602792 6.148488,-19.139649 15.668728,-19.139649 7.041011,0 12.495315,4.165105 14.577868,11.305285 L 77.238071,39.677593 C 72.180443,26.488094 61.073496,18.852068 46.892306,18.852068 c -9.123564,0 -17.751281,3.57009 -23.602262,9.817747 -5.751812,6.049319 -8.726887,14.478699 -8.726887,24.395615 0,20.528018 13.288669,34.610039 32.527487,34.610039 13.982852,0 24.891461,-7.536856 30.246596,-20.825525 z" />
      <path
         id="path1886"
         style="fill:#000000;stroke-width:0.26458338px"
         d="M 109.95305,62.387332 98.052749,19.843759 H 82.879867 l 17.850453,66.145835 h 18.54463 L 137.1254,19.843759 h -15.27205 z" />
      <path
         id="path1888"
         style="fill:#000000;stroke-width:0.26458338px"
         d="m 166.01617,56.536351 h -22.80891 v 12.594484 h 22.80891 z" />
      <path
         id="path1892"
         style="fill:#000000;stroke-width:0.26458338px"
         d="m 276.92914,18.455391 c -17.3546,0 -28.26321,13.387838 -28.26321,34.411701 0,21.222202 10.90861,34.51087 28.26321,34.51087 17.25543,0 28.36238,-13.288668 28.36238,-34.015024 0,-9.817748 -1.88421,-17.453774 -5.95015,-23.503093 -4.85929,-7.239349 -13.09033,-11.404454 -22.41223,-11.404454 z m 0,14.875375 c 4.06594,0 7.83436,1.884214 10.11525,4.958458 2.08256,2.776737 2.67757,6.148489 2.67757,14.974545 0,7.536856 -0.59501,11.007777 -2.28089,13.685345 -2.18172,3.47092 -6.14849,5.553473 -10.51193,5.553473 -4.85929,0 -9.42107,-2.776737 -11.10695,-6.941842 -1.19003,-2.776736 -1.5867,-5.652642 -1.5867,-12.693653 0,-6.941842 0.39667,-9.817748 1.5867,-12.594484 1.78505,-4.165105 6.24766,-6.941842 11.10695,-6.941842 z" />
      <path
         id="path1894"
         style="fill:#000000;stroke-width:0.26458338px"
         d="m 353.6303,18.455391 c -17.35461,0 -28.26322,13.387838 -28.26322,34.411701 0,21.222202 10.90861,34.51087 28.26322,34.51087 17.25543,0 28.36238,-13.288668 28.36238,-34.015024 0,-9.817748 -1.88422,-17.453774 -5.95015,-23.503093 C 371.18324,22.620496 362.9522,18.455391 353.6303,18.455391 Z m 0,14.875375 c 4.06593,0 7.83436,1.884214 10.11525,4.958458 2.08255,2.776737 2.67757,6.148489 2.67757,14.974545 0,7.536856 -0.59502,11.007777 -2.28089,13.685345 -2.18172,3.47092 -6.14849,5.553473 -10.51193,5.553473 -4.85929,0 -9.42107,-2.776737 -11.10695,-6.941842 -1.19003,-2.776736 -1.58671,-5.652642 -1.58671,-12.693653 0,-6.941842 0.39668,-9.817748 1.58671,-12.594484 1.78504,-4.165105 6.24766,-6.941842 11.10695,-6.941842 z" />
    </g>
    <g
       id="text3651"
       style="font-style:normal;font-variant:normal;font-weight:bold;font-stretch:normal;font-size:99.1692px;line-height:125%;font-family:TrafficTypSpaDOT;-inkscape-font-specification:'TrafficTypSpaDOT Bold';text-align:center;letter-spacing:0px;word-spacing:0px;writing-mode:lr-tb;text-anchor:middle;fill:#ffffff;fill-opacity:1;stroke:none;stroke-width:0.264583px;stroke-linecap:butt;stroke-linejoin:miter;stroke-opacity:1"
       aria-label="N-400"
       transform="translate(53.435675,1.5e-5)">
      <path
         id="path6771"
         style="text-align:center;text-anchor:middle;fill:#000000;stroke-width:0.264583px"
         d="m 178.94481,61.891471 h -7.93353 V 19.843744 H 152.46665 L 120.1375,61.891471 v 14.181191 h 35.30422 v 9.916916 h 15.56956 v -9.916916 h 7.93353 z m -23.50309,0 h -17.15627 l 17.15627,-23.205585 z" />
    </g>
  </g>
</svg>
