<?xml version="1.0" encoding="UTF-8" standalone="no"?>
<!-- Generator: Adobe Illustrator 19.0.0, SVG Export Plug-In . SVG Version: 6.00 Build 0)  -->

<svg
   version="1.1"
   id="svg2"
   x="0px"
   y="0px"
   viewBox="54 195.9 1298.4841 335.88177"
   xml:space="preserve"
   sodipodi:docname="Spain_sign_of_village_sign.svg"
   inkscape:version="1.4 (86a8ad7, 2024-10-11)"
   width="1298.4841"
   height="335.88177"
   xmlns:inkscape="http://www.inkscape.org/namespaces/inkscape"
   xmlns:sodipodi="http://sodipodi.sourceforge.net/DTD/sodipodi-0.dtd"
   xmlns="http://www.w3.org/2000/svg"
   xmlns:svg="http://www.w3.org/2000/svg"><defs
   id="defs7" /><sodipodi:namedview
   id="namedview7"
   pagecolor="#ffffff"
   bordercolor="#666666"
   borderopacity="1.0"
   inkscape:showpageshadow="2"
   inkscape:pageopacity="0.0"
   inkscape:pagecheckerboard="0"
   inkscape:deskcolor="#d1d1d1"
   showgrid="false"
   inkscape:zoom="0.0819292"
   inkscape:cx="1336.5198"
   inkscape:cy="1397.5481"
   inkscape:window-width="1920"
   inkscape:window-height="991"
   inkscape:window-x="-9"
   inkscape:window-y="-9"
   inkscape:window-maximized="1"
   inkscape:current-layer="svg2"
   showguides="true" />
<style
   type="text/css"
   id="style1">
	.st0{fill:#FFFFFF;stroke:#FE0202;stroke-width:24.6759;}
	.st1{enable-background:new    ;}
</style>
<rect
   style="fill:#ffffff;stroke:#fe0202;stroke-width:20;stroke-dasharray:none;stroke-opacity:1;fill-opacity:1"
   id="rect4"
   width="1278.4841"
   height="315.88177"
   x="64"
   y="205.89999"
   ry="67.966805" /><g
   transform="matrix(8.0314214,0,0,8.0314214,-4080.4938,-535.34665)"
   id="g1"><path
     id="text1"
     d="m 535.47743,102.21475 c -1.36,0 -2.62399,0.25598 -3.79199,0.76798 -0.576,0.24 -1.12809,0.53587 -1.65609,0.88787 -0.512,0.336 -0.99191,0.73612 -1.43991,1.20012 -0.448,0.448 -0.84812,0.9279 -1.20012,1.4399 -0.352,0.512 -0.64787,1.06409 -0.88787,1.65609 -0.512,1.216 -0.76822,2.48 -0.76822,3.792 0,1.312 0.25622,2.57599 0.76822,3.79199 0.24,0.592 0.53587,1.14409 0.88787,1.65609 0.352,0.512 0.75212,0.9919 1.20012,1.4399 0.448,0.464 0.92791,0.87195 1.43991,1.22395 0.528,0.336 1.08009,0.62404 1.65609,0.86404 1.168,0.512 2.43199,0.76798 3.79199,0.76798 1.168,0 2.29593,-0.19186 3.38393,-0.57586 1.088,-0.4 2.07202,-0.98415 2.95202,-1.75215 0.88,-0.752 1.59998,-1.62395 2.15998,-2.61595 0.56,-0.992 0.93589,-2.04798 1.12789,-3.16798 0.032,-0.144 0.0641,-0.32803 0.0961,-0.55203 0.032,-0.192 0.0481,-0.43207 0.0481,-0.72007 0.016,-0.304 0.0319,-0.67182 0.0479,-1.10382 H 534.9013 v 4.07992 h 5.18399 c -0.512,0.72 -1.16786,1.288 -1.96786,1.704 -0.8,0.416 -1.68002,0.62402 -2.64002,0.62402 -0.784,0 -1.52012,-0.14414 -2.20812,-0.43214 -0.688,-0.304 -1.28806,-0.71196 -1.80006,-1.22396 -0.512,-0.512 -0.91996,-1.11205 -1.22396,-1.80005 -0.288,-0.688 -0.43189,-1.42388 -0.43189,-2.20788 0,-0.784 0.14389,-1.52013 0.43189,-2.20813 0.304,-0.688 0.71196,-1.28781 1.22396,-1.79981 0.512,-0.512 1.11206,-0.91212 1.80006,-1.20012 0.688,-0.304 1.42412,-0.45598 2.20812,-0.45598 0.976,0 1.88,0.232 2.712,0.696 0.848,0.448 1.53592,1.08012 2.06392,1.89612 l 3.408,-2.2322 c -0.432,-0.672 -0.94396,-1.27989 -1.53596,-1.82389 -0.576,-0.544 -1.21595,-1.008 -1.91995,-1.392 -0.72,-0.416 -1.48011,-0.71994 -2.28011,-0.91194 -0.8,-0.208 -1.6159,-0.31201 -2.4479,-0.31201 z m 68.3519,0.0238 c -1.312,0 -2.57599,0.25622 -3.79199,0.76822 -1.136,0.48 -2.168,1.16792 -3.096,2.06392 -0.896,0.928 -1.58391,1.95999 -2.06391,3.09599 -0.512,1.216 -0.76798,2.48 -0.76798,3.792 0,1.312 0.25598,2.57599 0.76798,3.79199 0.48,1.152 1.16791,2.17592 2.06391,3.07192 0.464,0.448 0.95198,0.84812 1.46398,1.20012 0.512,0.352 1.05602,0.64787 1.63202,0.88787 1.216,0.512 2.47999,0.76798 3.79199,0.76798 1.296,0 2.55216,-0.25598 3.76816,-0.76798 1.168,-0.48 2.19999,-1.17599 3.09599,-2.08799 l -2.88005,-2.87981 c -0.528,0.544 -1.13613,0.95979 -1.82413,1.24779 -0.672,0.272 -1.39197,0.40806 -2.15997,0.40806 -0.784,0 -1.51988,-0.14389 -2.20788,-0.43189 -0.672,-0.304 -1.26399,-0.71196 -1.77599,-1.22396 -0.512,-0.512 -0.92019,-1.11206 -1.22419,-1.80006 -0.288,-0.688 -0.4319,-1.41604 -0.4319,-2.18404 0,-0.784 0.1439,-1.51205 0.4319,-2.18405 0.304,-0.688 0.71219,-1.28806 1.22419,-1.80006 0.512,-0.512 1.10399,-0.91188 1.77599,-1.19988 0.688,-0.304 1.42388,-0.45597 2.20788,-0.45597 0.768,0 1.48797,0.1439 2.15997,0.4319 0.688,0.272 1.29613,0.67995 1.82413,1.22395 l 2.88005,-2.90388 c -0.896,-0.896 -1.92799,-1.58392 -3.09599,-2.06392 -1.216,-0.512 -2.47216,-0.76822 -3.76816,-0.76822 z m -55.27193,0.45622 v 18.55189 h 11.85602 v -4.07992 h -7.77609 v -3.55197 h 7.51199 v -4.08017 h -7.51199 v -2.75991 h 7.77609 v -4.07992 z m 15.96002,0 v 18.55189 h 2.75991 1.32001 v -12.40805 l 9.52801,12.40805 h 0.59994 3.79199 V 102.6948 h -1.99193 -2.08799 v 12.26384 l -9.40787,-12.26384 z m 22.22399,0 v 18.55189 h 4.07993 V 102.6948 Z m 26.92793,0 v 18.55189 h 11.85602 v -4.07992 h -7.7761 v -3.55197 h 7.512 v -4.08017 h -7.512 v -2.75991 h 7.7761 v -4.07992 z m 15.96002,0 v 18.55189 h 4.07992 v -4.87198 h 2.11207 l 3.408,4.87198 h 3.21613 1.77598 l -3.98411,-5.68811 c 0.64,-0.304 1.22391,-0.71979 1.75191,-1.24779 0.672,-0.656 1.17613,-1.40803 1.51213,-2.25603 0.352,-0.88 0.52795,-1.80798 0.52795,-2.78398 0,-1.024 -0.20801,-1.97597 -0.62401,-2.85597 -0.192,-0.416 -0.4399,-0.80022 -0.7439,-1.15222 -0.288,-0.368 -0.61618,-0.704 -0.98418,-1.008 -0.672,-0.512 -1.44801,-0.89597 -2.32801,-1.15197 -0.864,-0.272 -1.8238,-0.40782 -2.8798,-0.40782 z m 23.56808,0 -8.0402,18.55189 h 4.44008 l 1.72807,-3.96003 h 8.01588 l 1.704,3.96003 h 4.46416 L 657.4454,102.6948 Z m -19.48816,4.07992 h 2.76016 c 2.32,0 3.47998,0.83206 3.47998,2.49606 0,0.88 -0.27213,1.59189 -0.81613,2.13589 -0.624,0.624 -1.50402,0.92012 -2.64002,0.88812 h -0.0238 -2.76016 z m 21.59998,1.29594 2.25603,5.13607 h -4.48799 z" /></g>

</svg>
