<?xml version="1.0" encoding="UTF-8" standalone="no"?>
<!DOCTYPE svg PUBLIC "-//W3C//DTD SVG 1.1//EN" "http://www.w3.org/Graphics/SVG/1.1/DTD/svg11.dtd">
<svg width="100%" height="100%" viewBox="0 0 33403 15679" version="1.1" xmlns="http://www.w3.org/2000/svg" xmlns:xlink="http://www.w3.org/1999/xlink" xml:space="preserve" style="fill-rule:evenodd;clip-rule:evenodd;stroke-linecap:round;stroke-linejoin:round;stroke-miterlimit:1.5;">
    <path d="M32725.8,2467.83c-0,-912.616 -740.928,-1653.54 -1653.54,-1653.54l-28695.1,0c-912.616,0 -1653.54,740.928 -1653.54,1653.54l0,10720c0,912.616 740.928,1653.54 1653.54,1653.54l28695.1,0c912.616,0 1653.54,-740.927 1653.54,-1653.54l-0,-10720Z" style="fill:#fff;"/>
    <path d="M33257.3,2467.83c-0,-1205.96 -979.083,-2185.04 -2185.04,-2185.04c0,0 -28695.1,0 -28695.1,0c-1205.96,0 -2185.04,979.084 -2185.04,2185.04l0,10720c0,1205.96 979.084,2185.04 2185.04,2185.04l28695.1,-0c1205.96,-0 2185.04,-979.084 2185.04,-2185.04l-0,-10720Zm-531.496,-0c-0,-912.616 -740.928,-1653.54 -1653.54,-1653.54l-28695.1,0c-912.616,0 -1653.54,740.928 -1653.54,1653.54l0,10720c0,912.616 740.928,1653.54 1653.54,1653.54l28695.1,0c912.616,0 1653.54,-740.927 1653.54,-1653.54l-0,-10720Z"/>
    <path d="M33198.2,2467.83c-0,-1173.36 -952.622,-2125.98 -2125.99,-2125.98c0,-0 -28695.1,-0 -28695.1,-0c-1173.36,-0 -2125.98,952.621 -2125.98,2125.98l-0,10720c-0,1173.36 952.621,2125.98 2125.98,2125.98l28695.1,0c1173.36,0 2125.99,-952.621 2125.99,-2125.98l-0,-10720Zm-472.441,-0c-0,-912.616 -740.928,-1653.54 -1653.54,-1653.54l-28695.1,0c-912.616,0 -1653.54,740.928 -1653.54,1653.54l0,10720c0,912.616 740.928,1653.54 1653.54,1653.54l28695.1,0c912.616,0 1653.54,-740.927 1653.54,-1653.54l-0,-10720Z" style="fill:#fff;"/>
    <path d="M32725.8,2467.83c-0,-912.616 -740.928,-1653.54 -1653.54,-1653.54l-28695.1,0c-912.616,0 -1653.54,740.928 -1653.54,1653.54l0,10720c0,912.616 740.928,1653.54 1653.54,1653.54l28695.1,0c912.616,0 1653.54,-740.927 1653.54,-1653.54l-0,-10720Z" style="fill:none;stroke:#000;stroke-width:472.44px;"/>
    <g>
        <path d="M2603.74,12179.4c58.425,72.49 124.152,137.406 197.183,194.749l4.869,4.057c77.899,62.752 162.02,116.038 252.361,159.856l4.058,1.623c411.136,209.355 820.919,207.461 1229.35,-5.68c98.456,-59.507 177.167,-138.488 236.133,-236.944c176.896,-375.432 97.645,-685.137 -237.756,-929.114c-130.914,-82.768 -272.107,-139.569 -423.578,-170.405c-100.62,-31.376 -203.134,-56.26 -307.54,-74.653c-76.818,-16.77 -121.718,-64.105 -134.702,-142.004c-1.622,-98.998 45.983,-158.234 142.816,-177.708c100.079,-22.721 199.888,-21.098 299.426,4.868c151.471,35.163 283.467,106.301 395.989,213.412l3.246,-3.246l372.456,-344.055c-107.111,-93.047 -222.067,-174.192 -344.867,-243.436c-366.776,-163.373 -738.151,-174.462 -1114.12,-33.27c-48.687,18.393 -93.047,44.089 -133.078,77.088c-46.524,38.95 -87.096,83.85 -121.718,134.701c-194.208,354.876 -135.242,660.793 176.896,917.753c140.111,90.883 293.205,146.603 459.282,167.159l3.246,1.623l302.672,85.203c71.949,19.475 118.202,64.646 138.758,135.512c17.311,112.522 -27.589,187.716 -134.701,225.584l-2.434,1.623c-101.161,30.835 -203.134,32.729 -305.918,5.68c-213.682,-32.999 -387.874,-134.16 -522.575,-303.483l-435.75,333.507Z" style="fill-rule:nonzero;"/>
        <path d="M4954.52,11181.3c-39.491,215.847 -36.786,431.152 8.114,645.917c116.849,443.053 396.53,723.545 839.042,841.476c672.965,86.014 1114.39,-193.667 1324.29,-839.042l0.811,-2.434c37.868,-214.224 38.95,-428.718 3.246,-643.482l-0.812,-4.057c-116.308,-455.496 -402.209,-741.127 -857.705,-856.894c-676.21,-77.359 -1115.21,208.813 -1316.99,858.516Zm580.188,9.738c56.261,-195.29 181.766,-321.335 376.514,-378.137c314.844,-49.228 525.821,76.277 632.933,376.514c56.802,214.223 51.122,426.824 -17.04,637.802l-1.623,5.68c-60.048,152.553 -167.159,256.689 -321.335,312.409c-308.352,72.49 -527.174,-36.245 -656.465,-326.204c-58.966,-208.273 -63.294,-417.627 -12.984,-628.064Z" style="fill-rule:nonzero;"/>
        <path d="M7465.15,12646l534.747,1.623l-0,-893.409l272.648,0.811l516.895,892.598l543.673,0l-550.164,-943.719l8.926,-3.246c182.847,-77.358 312.95,-208.002 390.308,-391.932c123.882,-415.463 -6.762,-722.463 -391.931,-920.998c-64.917,-25.426 -131.997,-40.032 -201.241,-43.819l-1123.86,1.623l-0,2300.47Zm532.313,-1337.27l1.623,-484.437l479.568,0c123.882,21.098 196.101,93.858 216.658,218.281c1.082,148.766 -71.679,237.485 -218.281,266.156l-479.568,0Z" style="fill-rule:nonzero;"/>
        <rect x="9605.76" y="10344.7" width="533.124" height="2304.53" style="fill-rule:nonzero;"/>
        <path d="M10417.2,12647.6l546.107,0l111.169,-344.867l836.608,0.811l107.923,344.056l563.148,0l-772.503,-2303.71l-625.63,-0.811l-766.822,2304.53Zm839.042,-859.328l258.853,-798.469l259.665,798.469l-518.518,-0Z" style="fill-rule:nonzero;"/>
        <path d="M26614.3,12646l0.812,-2301.28l-471.454,-0l0,100.62c-20.557,130.914 -96.563,204.757 -228.018,221.527l-208.543,0.811l-0,477.946l395.177,-0.812l-0,1501.19l512.026,0Z" style="fill-rule:nonzero;"/>
        <path d="M26955.9,12037.4c95.751,320.794 304.295,529.337 625.63,625.63c530.69,88.718 888.811,-119.554 1074.36,-624.819c47.605,-186.093 37.597,-368.94 -30.024,-548.542c-0.541,-1.623 -1.352,-3.516 -2.434,-5.68c-236.944,-444.135 -595.606,-591.008 -1075.99,-440.619l27.589,-215.034l993.218,-0l-0.811,-486.06l-1437.89,-0l-150.93,1196.89l541.238,88.448l5.681,-6.491c27.048,-45.983 63.022,-82.768 107.923,-110.358c174.192,-86.014 319.712,-51.392 436.561,103.866c76.277,136.865 78.441,275.353 6.492,415.464c-55.179,78.44 -130.103,125.775 -224.772,142.004c-205.568,13.524 -334.048,-79.252 -385.44,-278.328l-510.404,143.627Z" style="fill-rule:nonzero;"/>
        <path d="M29026.7,12037.4c95.751,320.794 304.294,529.337 625.63,625.63c530.689,88.718 888.811,-119.554 1074.36,-624.819c47.605,-186.093 37.597,-368.94 -30.024,-548.542c-0.541,-1.623 -1.353,-3.516 -2.434,-5.68c-236.945,-444.135 -595.607,-591.008 -1075.99,-440.619l27.589,-215.034l993.218,-0l-0.812,-486.06l-1437.89,-0l-150.931,1196.89l541.239,88.448l5.68,-6.491c27.049,-45.983 63.023,-82.768 107.924,-110.358c174.191,-86.014 319.712,-51.392 436.561,103.866c76.276,136.865 78.44,275.353 6.492,415.464c-55.179,78.44 -130.103,125.775 -224.773,142.004c-205.568,13.524 -334.048,-79.252 -385.44,-278.328l-510.403,143.627Z" style="fill-rule:nonzero;"/>
    </g>
    <g>
        <g transform="matrix(0.740733,0,0,0.740733,2006.33,6764.9)">
            <g transform="matrix(3283.46,0,0,3283.46,742.417,3036.45)">
                <path d="M0.05,0l0.168,0l0.034,-0.106l0.258,0l0.033,0.106l0.174,0l-0.238,-0.71l-0.193,0l-0.236,0.71Zm0.258,-0.265l0.08,-0.246l0.08,0.247l-0.16,-0.001Z" style="fill-rule:nonzero;"/>
            </g>
            <g transform="matrix(3283.46,0,0,3283.46,3250.16,3036.45)">
                <path d="M0.05,-0l0.165,0l-0,-0.275l0.084,0l0.159,0.275l0.167,0l-0.169,-0.291l0.003,-0.001c0.056,-0.023 0.096,-0.064 0.12,-0.12c0.038,-0.128 -0.002,-0.223 -0.121,-0.284c-0.02,-0.008 -0.04,-0.012 -0.062,-0.014l-0.346,0.001l-0,0.709Zm0.164,-0.412l0,-0.149l0.148,-0c0.038,0.006 0.061,0.028 0.067,0.067c0,0.046 -0.022,0.073 -0.067,0.082l-0.148,-0Z" style="fill-rule:nonzero;"/>
            </g>
            <g transform="matrix(3283.46,0,0,3283.46,5427.1,3036.45)">
                <path d="M0.05,0l0.168,0l0.034,-0.106l0.258,0l0.033,0.106l0.174,0l-0.238,-0.71l-0.193,0l-0.236,0.71Zm0.258,-0.265l0.08,-0.246l0.08,0.247l-0.16,-0.001Z" style="fill-rule:nonzero;"/>
            </g>
            <g transform="matrix(3283.46,0,0,3283.46,7936.49,3036.45)">
                <path d="M0.05,0l0.167,0l0,-0.443l0.291,0.442l0.001,0.001l0.18,0l0,-0.71l-0.161,0l0,0.456l-0.304,-0.456l-0.174,0l0,0.71Z" style="fill-rule:nonzero;"/>
            </g>
            <g transform="matrix(3283.46,0,0,3283.46,10528.8,3036.45)">
                <path d="M0.051,0.002l0.288,-0.001c0.125,-0.002 0.218,-0.058 0.28,-0.166c0.054,-0.123 0.053,-0.246 -0,-0.369c-0.061,-0.111 -0.154,-0.169 -0.28,-0.175l-0.289,-0l0.001,0.711Zm0.162,-0.151l0,-0.41l0.126,-0c0.038,0.003 0.07,0.018 0.096,0.046c0.075,0.108 0.075,0.216 0.002,0.325c-0.027,0.028 -0.059,0.041 -0.098,0.039l-0.126,-0Z" style="fill-rule:nonzero;"/>
            </g>
            <g transform="matrix(3283.46,0,0,3283.46,12658.9,3036.45)">
                <path d="M0.05,0l0.168,0l0.034,-0.106l0.258,0l0.033,0.106l0.174,0l-0.238,-0.71l-0.193,0l-0.236,0.71Zm0.258,-0.265l0.08,-0.246l0.08,0.247l-0.16,-0.001Z" style="fill-rule:nonzero;"/>
            </g>
            <g transform="matrix(2466.38,0,0,2466.38,16324.1,3036.45)">
                <path d="M0.051,0.002l0.288,-0.001c0.125,-0.002 0.218,-0.058 0.28,-0.166c0.054,-0.123 0.053,-0.246 -0,-0.369c-0.061,-0.111 -0.154,-0.169 -0.28,-0.175l-0.289,-0l0.001,0.711Zm0.162,-0.151l0,-0.41l0.126,-0c0.038,0.003 0.07,0.018 0.096,0.046c0.075,0.108 0.075,0.216 0.002,0.325c-0.027,0.028 -0.059,0.041 -0.098,0.039l-0.126,-0Z" style="fill-rule:nonzero;"/>
            </g>
            <g transform="matrix(2466.38,0,0,2466.38,18097.4,3036.45)">
                <path d="M0.05,0.001l0.518,-0.001l-0.001,-0.154l-0.356,0l0,-0.133l0.288,0l-0,-0.154l-0.288,-0l0,-0.123l0.322,0l-0,-0.145l-0.483,-0l-0,0.71Z" style="fill-rule:nonzero;"/>
            </g>
            <g transform="matrix(2466.38,0,0,2466.38,20481.8,3036.45)">
                <path d="M0.051,0.002l0.288,-0.001c0.125,-0.002 0.218,-0.058 0.28,-0.166c0.054,-0.123 0.053,-0.246 -0,-0.369c-0.061,-0.111 -0.154,-0.169 -0.28,-0.175l-0.289,-0l0.001,0.711Zm0.162,-0.151l0,-0.41l0.126,-0c0.038,0.003 0.07,0.018 0.096,0.046c0.075,0.108 0.075,0.216 0.002,0.325c-0.027,0.028 -0.059,0.041 -0.098,0.039l-0.126,-0Z" style="fill-rule:nonzero;"/>
            </g>
            <g transform="matrix(2466.38,0,0,2466.38,22226.8,3036.45)">
                <path d="M0.05,-0.267c0.021,0.169 0.116,0.264 0.285,0.285c0.181,-0.01 0.284,-0.105 0.308,-0.285l0,-0.443l-0.162,0l-0,0.443c-0.012,0.066 -0.051,0.105 -0.117,0.117c-0.082,0.002 -0.132,-0.037 -0.149,-0.117l-0,-0.443l-0.165,0l0,0.443Z" style="fill-rule:nonzero;"/>
            </g>
            <g transform="matrix(2466.38,0,0,2466.38,23960.6,3036.45)">
                <path d="M0.05,0.001l0.518,-0.001l-0.001,-0.154l-0.356,0l0,-0.133l0.288,0l-0,-0.154l-0.288,-0l0,-0.123l0.322,0l-0,-0.145l-0.483,-0l-0,0.71Z" style="fill-rule:nonzero;"/>
            </g>
            <g transform="matrix(2466.38,0,0,2466.38,25478.7,3036.45)">
                <path d="M0.05,-0l0.165,0l-0,-0.275l0.084,0l0.159,0.275l0.167,0l-0.169,-0.291l0.003,-0.001c0.056,-0.023 0.096,-0.064 0.12,-0.12c0.038,-0.128 -0.002,-0.223 -0.121,-0.284c-0.02,-0.008 -0.04,-0.012 -0.062,-0.014l-0.346,0.001l-0,0.709Zm0.164,-0.412l0,-0.149l0.148,-0c0.038,0.006 0.061,0.028 0.067,0.067c0,0.046 -0.022,0.073 -0.067,0.082l-0.148,-0Z" style="fill-rule:nonzero;"/>
            </g>
            <g transform="matrix(2466.38,0,0,2466.38,27064.6,3036.45)">
                <path d="M0.068,-0.452c-0.012,0.067 -0.011,0.133 0.003,0.2c0.036,0.136 0.122,0.222 0.258,0.259c0.208,0.026 0.344,-0.06 0.408,-0.259l0,-0.001c0.012,-0.066 0.012,-0.132 0.001,-0.198l0,-0.001c-0.036,-0.14 -0.124,-0.228 -0.264,-0.264c-0.208,-0.024 -0.344,0.064 -0.406,0.264Zm0.179,0.003c0.017,-0.06 0.056,-0.099 0.116,-0.116c0.097,-0.015 0.162,0.023 0.195,0.116c0.017,0.066 0.016,0.131 -0.005,0.196l-0.001,0.002c-0.018,0.047 -0.051,0.079 -0.099,0.096c-0.095,0.023 -0.162,-0.011 -0.202,-0.1c-0.018,-0.064 -0.02,-0.129 -0.004,-0.194Z" style="fill-rule:nonzero;"/>
            </g>
        </g>
        <path d="M27907.6,7796.07l385.499,41.954c-1.216,-48.643 12.364,-92.827 40.739,-132.553c5.675,-6.486 11.756,-12.769 18.241,-18.849c142.282,-107.421 279.497,-101.341 411.645,18.241c1.622,2.432 3.04,5.067 4.256,7.905c37.294,96.476 11.959,172.076 -76.005,226.8c-20.673,7.296 -42.157,11.755 -64.452,13.377l-200.046,-0l-0,356.921l245.649,-0c14.593,2.026 28.375,5.877 41.347,11.552c85.126,47.022 112.488,116.745 82.085,209.167c-22.7,38.509 -53.102,69.317 -91.206,92.422c-147.957,71.749 -270.782,41.753 -368.474,-89.99c-22.7,-36.077 -36.685,-75.194 -41.955,-117.352l-403.132,71.141c9.323,90.801 38.104,174.913 86.342,252.338c28.781,39.32 61.21,75.6 97.287,108.839c347.395,262.269 682.426,246.865 1005.09,-46.211c129.311,-164.172 151.403,-341.72 66.277,-532.645c-39.32,-64.047 -91.004,-115.934 -155.051,-155.659c59.183,-37.699 106.408,-86.95 141.674,-147.755c110.664,-240.379 58.169,-437.385 -157.483,-591.017c-352.259,-213.22 -674.927,-175.319 -968.004,113.704c-62.831,92.828 -96.273,195.384 -100.327,307.67Z" style="fill-rule:nonzero;"/>
        <path d="M29481.2,7796.07l385.499,41.954c-1.216,-48.643 12.364,-92.827 40.739,-132.553c5.675,-6.486 11.756,-12.769 18.242,-18.849c142.281,-107.421 279.496,-101.341 411.644,18.241c1.622,2.432 3.041,5.067 4.257,7.905c37.293,96.476 11.958,172.076 -76.006,226.8c-20.673,7.296 -42.157,11.755 -64.452,13.377l-200.046,-0l-0,356.921l245.649,-0c14.593,2.026 28.375,5.877 41.347,11.552c85.126,47.022 112.488,116.745 82.086,209.167c-22.701,38.509 -53.103,69.317 -91.207,92.422c-147.957,71.749 -270.781,41.753 -368.474,-89.99c-22.7,-36.077 -36.685,-75.194 -41.954,-117.352l-403.133,71.141c9.324,90.801 38.104,174.913 86.342,252.338c28.781,39.32 61.21,75.6 97.287,108.839c347.395,262.269 682.427,246.865 1005.1,-46.211c129.31,-164.172 151.402,-341.72 66.276,-532.645c-39.32,-64.047 -91.004,-115.934 -155.051,-155.659c59.183,-37.699 106.408,-86.95 141.674,-147.755c110.664,-240.379 58.17,-437.385 -157.483,-591.017c-352.259,-213.22 -674.927,-175.319 -968.004,113.704c-62.831,92.828 -96.273,195.384 -100.327,307.67Z" style="fill-rule:nonzero;"/>
    </g>
    <g>
        <rect x="12361.9" y="2567.77" width="8725.5" height="2979.83" style="fill:#f00;"/>
        <path d="M21379.1,2567.77l0,-291.667l-9308.83,0l0,3563.16l9308.83,-0l0,-3271.49Zm-291.666,0l-8725.5,0l-0,2979.83l8725.5,-0l-0,-2979.83Z" style="fill:#fff;"/>
        <path d="M12852.9,5073.19l482.13,-0l0.722,-1279.67l837.232,1274.61l2.887,5.053l521.826,-0l0.722,-2049.05l-464.808,-0l-0.722,1316.48l-879.093,-1317.2l-501.618,-0l0.722,2049.78Z" style="fill:#fff;fill-rule:nonzero;"/>
        <rect x="15015.9" y="4156.57" width="707.317" height="378.92" style="fill:#fff;fill-rule:nonzero;"/>
        <path d="M16847.7,5071.75l0.722,-2046.89l-419.338,0l0,89.498c-18.284,116.442 -85.888,182.122 -202.812,197.038l-185.49,0.722l-0,425.111l351.493,-0.721l0,1335.24l455.425,0Z" style="fill:#fff;fill-rule:nonzero;"/>
        <path d="M17264.2,5073.19l1462.99,-0l-0,-431.608l-648.133,0c91.421,-71.694 179.716,-146.997 264.882,-225.908c114.518,-89.979 211.955,-195.835 292.31,-317.571c169.852,-380.604 97.677,-707.557 -216.526,-980.86c-439.306,-243.471 -823.518,-175.627 -1152.64,203.534c-67.363,161.191 -99.361,329.359 -95.993,504.504l483.574,0c0.481,-59.184 5.052,-117.886 13.713,-176.107c28.389,-125.104 105.135,-202.091 230.239,-230.961c173.701,-14.435 283.889,62.552 330.562,230.961c2.406,99.601 -21.893,192.226 -72.897,277.874c-97.677,107.3 -205.94,203.293 -324.788,287.979l-357.989,274.266c-51.485,38.974 -100.324,80.836 -146.516,125.584c-42.342,53.41 -63.273,114.037 -62.792,181.882l-0,276.431Z" style="fill:#fff;fill-rule:nonzero;"/>
        <path d="M19138.6,5073.19l1462.99,-0l0,-431.608l-648.132,0c91.421,-71.694 179.716,-146.997 264.882,-225.908c114.518,-89.979 211.955,-195.835 292.31,-317.571c169.852,-380.604 97.677,-707.557 -216.526,-980.86c-439.306,-243.471 -823.518,-175.627 -1152.64,203.534c-67.364,161.191 -99.361,329.359 -95.993,504.504l483.574,0c0.481,-59.184 5.052,-117.886 13.713,-176.107c28.389,-125.104 105.135,-202.091 230.239,-230.961c173.701,-14.435 283.889,62.552 330.562,230.961c2.406,99.601 -21.893,192.226 -72.897,277.874c-97.677,107.3 -205.94,203.293 -324.788,287.979l-357.989,274.266c-51.485,38.974 -100.324,80.836 -146.516,125.584c-42.342,53.41 -63.273,114.037 -62.792,181.882l-0,276.431Z" style="fill:#fff;fill-rule:nonzero;"/>
    </g>
</svg>
