<?xml version="1.0" encoding="UTF-8" standalone="no"?>
<!DOCTYPE svg PUBLIC "-//W3C//DTD SVG 1.1//EN" "http://www.w3.org/Graphics/SVG/1.1/DTD/svg11.dtd">
<svg width="100%" height="100%" viewBox="0 0 38334 26786" version="1.1" xmlns="http://www.w3.org/2000/svg" xmlns:xlink="http://www.w3.org/1999/xlink" xml:space="preserve" style="fill-rule:evenodd;clip-rule:evenodd;stroke-linecap:round;stroke-linejoin:round;stroke-miterlimit:1.5;">
    <path d="M37454.1,9960.29c-0,-1232.03 -1000.25,-2232.28 -2232.28,-2232.28l-32125.3,-0c-1232.03,-0 -2232.28,1000.25 -2232.28,2232.28l0,13646.7c0,1232.03 1000.25,2232.28 2232.28,2232.28l32125.3,0c1232.03,0 2232.28,-1000.25 2232.28,-2232.28l-0,-13646.7Z" style="fill:#003fff;"/>
    <path d="M38221.8,9960.29c-0,-1655.75 -1344.26,-3000 -3000,-3000c-0,0 -32125.3,0 -32125.3,0c-1655.75,0 -3000,1344.26 -3000,3000c-0,0 -0,13646.7 -0,13646.7c-0,1655.75 1344.26,3000 3000,3000c-0,-0 32125.3,-0 32125.3,-0c1655.75,-0 3000,-1344.26 3000,-3000l-0,-13646.7Zm-767.717,0c-0,-1232.03 -1000.25,-2232.28 -2232.28,-2232.28l-32125.3,-0c-1232.03,-0 -2232.28,1000.25 -2232.28,2232.28l0,13646.7c0,1232.03 1000.25,2232.28 2232.28,2232.28l32125.3,0c1232.03,0 2232.28,-1000.25 2232.28,-2232.28l-0,-13646.7Z"/>
    <path d="M38091.9,9960.29c0,-1584.04 -1286.04,-2870.08 -2870.08,-2870.08c-0,0 -32125.3,0 -32125.3,0c-1584.04,0 -2870.08,1286.04 -2870.08,2870.08c-0,0 -0,13646.7 -0,13646.7c-0,1584.04 1286.04,2870.08 2870.08,2870.08c-0,0 32125.3,0 32125.3,0c1584.04,0 2870.08,-1286.04 2870.08,-2870.08l0,-13646.7Zm-637.795,0c-0,-1232.03 -1000.25,-2232.28 -2232.28,-2232.28l-32125.3,-0c-1232.03,-0 -2232.28,1000.25 -2232.28,2232.28l0,13646.7c0,1232.03 1000.25,2232.28 2232.28,2232.28l32125.3,0c1232.03,0 2232.28,-1000.25 2232.28,-2232.28l-0,-13646.7Z" style="fill:#003fff;"/>
    <path d="M37454.1,9960.29c-0,-1232.03 -1000.25,-2232.28 -2232.28,-2232.28l-32125.3,-0c-1232.03,-0 -2232.28,1000.25 -2232.28,2232.28l0,13646.7c0,1232.03 1000.25,2232.28 2232.28,2232.28l32125.3,0c1232.03,0 2232.28,-1000.25 2232.28,-2232.28l-0,-13646.7Z" style="fill:none;stroke:#fff;stroke-width:637.92px;"/>
    <g>
        <path d="M25227.4,2746.03c0,-1095.14 -889.113,-1984.25 -1984.25,-1984.25l-8168.03,-0c-1095.14,-0 -1984.25,889.113 -1984.25,1984.25l0,1648.98c0,1095.14 889.114,1984.25 1984.25,1984.25l8168.03,-0c1095.14,-0 1984.25,-889.114 1984.25,-1984.25l0,-1648.98Z" style="fill:#039900;"/>
        <path d="M25877,2746.03c0,-1453.67 -1180.19,-2633.86 -2633.86,-2633.86l-8168.03,0c-1453.67,0 -2633.86,1180.19 -2633.86,2633.86l-0,1648.98c-0,1453.67 1180.19,2633.86 2633.86,2633.86l8168.03,0c1453.67,0 2633.86,-1180.19 2633.86,-2633.86l0,-1648.98Zm-649.606,-0c0,-1095.14 -889.113,-1984.25 -1984.25,-1984.25l-8168.03,-0c-1095.14,-0 -1984.25,889.113 -1984.25,1984.25l0,1648.98c0,1095.14 889.114,1984.25 1984.25,1984.25l8168.03,-0c1095.14,-0 1984.25,-889.114 1984.25,-1984.25l0,-1648.98Z"/>
        <path d="M25794.4,2746.03c0,-1408.04 -1143.15,-2551.18 -2551.18,-2551.18l-8168.03,0c-1408.04,0 -2551.18,1143.15 -2551.18,2551.18l-0,1648.98c-0,1408.04 1143.15,2551.18 2551.18,2551.18l8168.03,-0c1408.04,-0 2551.18,-1143.15 2551.18,-2551.18l0,-1648.98Zm-566.929,-0c0,-1095.14 -889.113,-1984.25 -1984.25,-1984.25l-8168.03,-0c-1095.14,-0 -1984.25,889.113 -1984.25,1984.25l0,1648.98c0,1095.14 889.114,1984.25 1984.25,1984.25l8168.03,-0c1095.14,-0 1984.25,-889.114 1984.25,-1984.25l0,-1648.98Z" style="fill:#039900;"/>
        <path d="M25227.4,2746.03c0,-1095.14 -889.113,-1984.25 -1984.25,-1984.25l-8168.03,-0c-1095.14,-0 -1984.25,889.113 -1984.25,1984.25l0,1648.98c0,1095.14 889.114,1984.25 1984.25,1984.25l8168.03,-0c1095.14,-0 1984.25,-889.114 1984.25,-1984.25l0,-1648.98Z" style="fill:none;stroke:#fff;stroke-width:566.93px;"/>
        <path d="M14863,4842.41l2017.03,-0l0,-601.211l-1387.56,0l0,-519.36l1120.57,0l0,-601.211l-1120.57,0l0,-478.435l1253.09,0l-0,-566.132l-1882.56,0l-0,2766.35Z" style="fill:#fff;fill-rule:nonzero;"/>
        <rect x="17269.8" y="3603.94" width="954.921" height="511.565" style="fill:#fff;fill-rule:nonzero;"/>
        <path d="M20830.3,4286.02c55.217,-157.205 94.193,-318.307 116.929,-483.307c57.815,-389.114 19.489,-768.809 -114.98,-1139.09c-87.697,-198.779 -218.268,-363.454 -391.712,-494.025c-378.721,-227.362 -753.544,-221.841 -1124.47,16.565c-109.134,77.953 -200.079,173.769 -272.835,287.451c-285.826,560.61 -179.941,1033.52 317.658,1418.74l2.923,1.949c299.469,153.956 597.313,151.033 893.534,-8.77c-1.949,154.606 -69.833,270.561 -203.652,347.864c-216.319,89.646 -388.465,36.703 -516.437,-158.829l-577.825,225.089l1.949,4.872c111.083,235.807 285.827,406.978 524.232,513.514c595.04,193.582 1043.27,16.24 1344.68,-532.028Zm-1213.14,-994.872c-116.28,-182.539 -111.733,-362.48 13.641,-539.823c16.89,-18.189 35.404,-35.079 55.542,-50.669c192.933,-115.63 364.429,-89.646 514.488,77.953c112.382,172.795 110.108,343.966 -6.821,513.513c-16.24,19.489 -34.104,37.353 -53.593,53.593c-189.035,126.673 -363.454,108.484 -523.257,-54.567Z" style="fill:#fff;fill-rule:nonzero;"/>
        <path d="M23456.3,2650.97c-114.981,-229.961 -287.451,-401.781 -517.412,-515.463c-641.161,-239.704 -1139.41,-66.909 -1494.74,518.386c-233.208,533.327 -236.781,1067.95 -10.718,1603.88c116.929,241.004 295.895,419.971 536.899,536.9c648.957,235.157 1149.48,55.866 1501.57,-537.874c212.422,-537.225 207.225,-1072.5 -15.59,-1605.83Zm-484.282,1180.01c-5.846,30.531 -13.966,60.413 -24.36,89.646c-140.965,294.271 -368.976,399.507 -684.035,315.708c-189.685,-72.106 -304.016,-207.224 -342.993,-405.354c-22.086,-188.386 -25.984,-376.772 -11.692,-565.158c3.248,-31.181 5.521,-62.362 6.82,-93.543c18.189,-257.894 151.034,-423.868 398.534,-497.923c47.421,-12.992 95.492,-19.163 144.213,-18.514c320.255,35.079 493.051,213.071 518.385,533.976l0.975,6.821c22.086,211.122 20.138,422.569 -5.847,634.341Z" style="fill:#fff;fill-rule:nonzero;"/>
    </g>
    <g>
        <path d="M23368.4,9883.05l-0,-291.667l-8648.5,0l0,4606.14l8648.5,-0l-0,-4314.48Zm-291.667,-0l-8065.16,-0l0,4022.81l8065.16,-0l0,-4022.81Z" style="fill:#fff;"/>
        <path d="M15714.5,13265.4l655.754,0l133.49,-414.109l1004.58,0.974l129.592,413.135l676.216,0l-927.605,-2766.25l-751.243,-0.975l-920.784,2767.22Zm1007.5,-1031.86l310.825,-958.785l311.8,958.785l-622.625,0Z" style="fill:#fff;fill-rule:nonzero;"/>
        <rect x="18742.8" y="12027.9" width="954.888" height="511.547" style="fill:#fff;fill-rule:nonzero;"/>
        <path d="M20259,13265.4l1975.06,0l0,-582.676l-874.989,0c123.421,-96.788 242.62,-198.447 357.596,-304.979c154.601,-121.472 286.141,-264.381 394.622,-428.725c229.303,-513.821 131.865,-955.212 -292.313,-1324.18c-593.069,-328.689 -1111.76,-237.098 -1556.08,274.774c-90.941,217.61 -134.139,444.64 -129.591,681.088l652.831,0c0.649,-79.899 6.82,-159.148 18.513,-237.747c38.325,-168.892 141.934,-272.825 310.826,-311.8c234.499,-19.488 383.254,84.445 446.263,311.8c3.248,134.463 -29.556,259.508 -98.412,375.134c-131.865,144.857 -278.021,274.449 -438.468,388.776l-483.29,370.262c-69.506,52.616 -135.438,109.13 -197.798,169.541c-57.164,72.104 -85.421,153.952 -84.771,245.543l-0,373.185Z" style="fill:#fff;fill-rule:nonzero;"/>
    </g>
    <g transform="matrix(1,0,0,1,2570.06,19331.6)">
        <g transform="matrix(4381.89,0,0,4381.89,742.417,3770.48)">
            <path d="M0.05,0l0.508,-0l-0,-0.161l-0.301,0l0.287,-0.41l-0.001,-0.139l-0.484,0l0,0.15l0.27,0.001l-0.279,0.404l0,0.155Z" style="fill:#fff;fill-rule:nonzero;"/>
        </g>
        <g transform="matrix(4381.89,0,0,4381.89,3345.26,3770.48)">
            <path d="M0.58,-0.113c-0.013,0 -0.026,-0.001 -0.039,-0.004c-0.012,-0.005 -0.018,-0.015 -0.018,-0.028l0,-0.219c-0.002,-0.071 -0.036,-0.118 -0.103,-0.141c-0.124,-0.04 -0.237,-0.02 -0.339,0.061l0.074,0.119c0.02,-0.018 0.042,-0.033 0.067,-0.043c0.032,-0.016 0.067,-0.02 0.102,-0.015c0.008,0.002 0.016,0.005 0.023,0.009c0.008,0.005 0.014,0.013 0.017,0.022c0,0.004 -0.001,0.008 -0.005,0.01c-0.006,0.003 -0.012,0.004 -0.019,0.005l-0.134,0.023c-0.061,0.017 -0.103,0.054 -0.127,0.112c-0.019,0.095 0.015,0.163 0.104,0.203c0.078,0.027 0.149,0.015 0.214,-0.035c0.035,0.035 0.078,0.051 0.128,0.047l0.055,-0.126Zm-0.332,-0.018c-0.006,-0.004 -0.011,-0.01 -0.014,-0.017c-0.005,-0.02 0.001,-0.034 0.02,-0.042c0.005,-0.002 0.01,-0.004 0.016,-0.005c0.031,-0.005 0.062,-0.011 0.092,-0.018l-0,0.052c-0.004,0.013 -0.012,0.023 -0.023,0.029c-0.03,0.014 -0.061,0.015 -0.091,0.001Z" style="fill:#fff;fill-rule:nonzero;"/>
        </g>
        <g transform="matrix(4381.89,0,0,4381.89,5949.2,3770.48)">
            <path d="M0.217,0l-0.001,-0.273c0.003,-0.026 0.014,-0.049 0.033,-0.067c0.039,-0.026 0.081,-0.033 0.127,-0.021l0,-0.174c-0.059,-0.005 -0.113,0.011 -0.161,0.046l-0.005,-0.034l-0.16,0l0,0.523l0.167,0Z" style="fill:#fff;fill-rule:nonzero;"/>
        </g>
        <g transform="matrix(4381.89,0,0,4381.89,7717.29,3770.48)">
            <path d="M0.58,-0.113c-0.013,0 -0.026,-0.001 -0.039,-0.004c-0.012,-0.005 -0.018,-0.015 -0.018,-0.028l0,-0.219c-0.002,-0.071 -0.036,-0.118 -0.103,-0.141c-0.124,-0.04 -0.237,-0.02 -0.339,0.061l0.074,0.119c0.02,-0.018 0.042,-0.033 0.067,-0.043c0.032,-0.016 0.067,-0.02 0.102,-0.015c0.008,0.002 0.016,0.005 0.023,0.009c0.008,0.005 0.014,0.013 0.017,0.022c0,0.004 -0.001,0.008 -0.005,0.01c-0.006,0.003 -0.012,0.004 -0.019,0.005l-0.134,0.023c-0.061,0.017 -0.103,0.054 -0.127,0.112c-0.019,0.095 0.015,0.163 0.104,0.203c0.078,0.027 0.149,0.015 0.214,-0.035c0.035,0.035 0.078,0.051 0.128,0.047l0.055,-0.126Zm-0.332,-0.018c-0.006,-0.004 -0.011,-0.01 -0.014,-0.017c-0.005,-0.02 0.001,-0.034 0.02,-0.042c0.005,-0.002 0.01,-0.004 0.016,-0.005c0.031,-0.005 0.062,-0.011 0.092,-0.018l-0,0.052c-0.004,0.013 -0.012,0.023 -0.023,0.029c-0.03,0.014 -0.061,0.015 -0.091,0.001Z" style="fill:#fff;fill-rule:nonzero;"/>
        </g>
        <g transform="matrix(4381.89,0,0,4381.89,9963.01,3770.48)">
            <path d="M0.123,0.109c0.035,0.018 0.071,0.032 0.109,0.042c0.091,0.037 0.182,0.034 0.271,-0.007c0.066,-0.04 0.102,-0.098 0.107,-0.175l0,-0.481l-0.136,0l-0.011,0.026c-0,0 -0,0 -0,0c-0.078,-0.048 -0.155,-0.049 -0.233,-0.001c-0.027,0.018 -0.05,0.04 -0.068,0.068c-0.075,0.133 -0.053,0.25 0.065,0.347c0.072,0.048 0.149,0.054 0.228,0.019l0,0c0.002,0.044 -0.018,0.071 -0.06,0.081c-0.074,0.007 -0.142,-0.009 -0.203,-0.051l-0.069,0.132Zm0.329,-0.426c0.009,0.03 0.008,0.06 -0.002,0.09c-0.01,0.021 -0.025,0.036 -0.045,0.045c-0.055,0.02 -0.096,0.005 -0.125,-0.045c-0.01,-0.03 -0.011,-0.06 -0.003,-0.09c0.01,-0.032 0.031,-0.053 0.064,-0.063c0.054,-0.01 0.092,0.011 0.111,0.063Z" style="fill:#fff;fill-rule:nonzero;"/>
        </g>
        <g transform="matrix(4381.89,0,0,4381.89,12800.3,3770.48)">
            <path d="M0.138,-0.054c0.12,0.093 0.239,0.093 0.359,0c0.04,-0.04 0.065,-0.088 0.073,-0.144c0.005,-0.032 0.005,-0.065 0.002,-0.098c-0.007,-0.054 -0.028,-0.102 -0.063,-0.144c-0.009,-0.01 -0.019,-0.02 -0.03,-0.029c-0.128,-0.09 -0.248,-0.081 -0.36,0.028l-0.001,0.002c-0.034,0.042 -0.054,0.089 -0.06,0.143c-0.005,0.033 -0.004,0.065 0.003,0.098c0.008,0.057 0.033,0.105 0.076,0.144l0.001,0.001Zm0.277,-0.243c0.007,0.033 0.006,0.065 -0.001,0.098c-0.011,0.037 -0.035,0.061 -0.072,0.072c-0.062,0.011 -0.104,-0.013 -0.126,-0.072c-0.008,-0.032 -0.009,-0.065 -0.003,-0.098c0.01,-0.047 0.038,-0.075 0.085,-0.085c0.062,-0.004 0.101,0.024 0.117,0.085Z" style="fill:#fff;fill-rule:nonzero;"/>
        </g>
        <g transform="matrix(4381.89,0,0,4381.89,15384.5,3770.48)">
            <path d="M0.05,0l0.42,0l-0,-0.137l-0.199,0l0.187,-0.248l-0,-0.133l-0.395,0l0,0.145l0.183,0l-0.196,0.256l0,0.117Z" style="fill:#fff;fill-rule:nonzero;"/>
        </g>
        <g transform="matrix(4381.89,0,0,4381.89,17600.6,3770.48)">
            <path d="M0.58,-0.113c-0.013,0 -0.026,-0.001 -0.039,-0.004c-0.012,-0.005 -0.018,-0.015 -0.018,-0.028l0,-0.219c-0.002,-0.071 -0.036,-0.118 -0.103,-0.141c-0.124,-0.04 -0.237,-0.02 -0.339,0.061l0.074,0.119c0.02,-0.018 0.042,-0.033 0.067,-0.043c0.032,-0.016 0.067,-0.02 0.102,-0.015c0.008,0.002 0.016,0.005 0.023,0.009c0.008,0.005 0.014,0.013 0.017,0.022c0,0.004 -0.001,0.008 -0.005,0.01c-0.006,0.003 -0.012,0.004 -0.019,0.005l-0.134,0.023c-0.061,0.017 -0.103,0.054 -0.127,0.112c-0.019,0.095 0.015,0.163 0.104,0.203c0.078,0.027 0.149,0.015 0.214,-0.035c0.035,0.035 0.078,0.051 0.128,0.047l0.055,-0.126Zm-0.332,-0.018c-0.006,-0.004 -0.011,-0.01 -0.014,-0.017c-0.005,-0.02 0.001,-0.034 0.02,-0.042c0.005,-0.002 0.01,-0.004 0.016,-0.005c0.031,-0.005 0.062,-0.011 0.092,-0.018l-0,0.052c-0.004,0.013 -0.012,0.023 -0.023,0.029c-0.03,0.014 -0.061,0.015 -0.091,0.001Z" style="fill:#fff;fill-rule:nonzero;"/>
        </g>
    </g>
    <path d="M27036.7,23103.2l2220.52,0l-0,-655.092l-983.735,-0c138.76,-108.817 272.773,-223.111 402.039,-342.883c173.815,-136.569 321.704,-297.238 443.666,-482.008c257.801,-577.679 148.254,-1073.93 -328.642,-1488.75c-666.777,-369.539 -1249.93,-266.565 -1749.47,308.923c-102.244,244.656 -150.81,499.901 -145.698,765.736l733.967,-0c0.73,-89.829 7.668,-178.928 20.814,-267.296c43.088,-189.882 159.573,-306.732 349.455,-350.551c263.644,-21.909 430.886,94.941 501.727,350.551c3.651,151.176 -33.23,291.761 -110.643,421.757c-148.254,162.86 -312.575,308.558 -492.963,437.094l-543.354,416.279c-78.144,59.156 -152.271,122.693 -222.381,190.612c-64.268,81.065 -96.036,173.085 -95.306,276.06l0,419.565Z" style="fill:#fff;fill-rule:nonzero;"/>
    <path d="M29710.8,22279.4c129.266,433.077 410.802,714.613 844.61,844.609c716.439,119.772 1199.91,-161.399 1450.4,-843.513c64.268,-251.229 50.757,-498.075 -40.532,-740.54c-0.731,-2.191 -1.826,-4.747 -3.287,-7.668c-319.878,-599.589 -804.077,-797.869 -1452.6,-594.842l37.246,-290.3l1340.86,0l-1.095,-656.188l-1941.18,0l-203.757,1615.82l730.68,119.407l7.668,-8.764c36.516,-62.077 85.082,-111.738 145.698,-148.984c235.161,-116.12 431.616,-69.38 589.364,140.22c102.974,184.77 105.896,371.73 8.764,560.882c-74.492,105.896 -175.641,169.798 -303.446,191.708c-277.52,18.258 -450.97,-106.992 -520.35,-375.747l-689.052,193.898Z" style="fill:#fff;fill-rule:nonzero;"/>
    <path d="M32771.5,20619.8c-91.289,251.959 -146.063,511.586 -164.321,778.881c-67.189,459.368 17.528,888.794 254.15,1288.28c438.919,519.254 958.538,618.942 1558.86,299.064c124.154,-86.177 227.859,-192.438 311.114,-318.783c330.103,-625.149 218.73,-1158.28 -334.119,-1599.39l-3.286,-2.191c-333.754,-177.467 -668.238,-178.927 -1003.45,-4.382c3.652,-173.815 81.43,-303.081 233.336,-387.797c244.655,-97.863 437.459,-35.786 578.409,186.23l652.902,-243.195l-2.191,-5.477c-121.963,-263.644 -315.496,-455.717 -580.6,-576.219c-661.666,-219.094 -1161.93,-24.1 -1500.8,584.982Zm1327.71,1119.57c127.805,207.41 119.772,409.707 -24.101,606.892c-18.988,20.449 -40.167,39.072 -63.537,55.869c-218.364,127.075 -410.437,94.941 -576.218,-96.401c-123.424,-195.725 -118.311,-387.798 15.336,-576.219c18.258,-21.909 38.707,-41.993 61.347,-60.251c214.712,-138.76 410.437,-115.39 587.173,70.11Z" style="fill:#fff;fill-rule:nonzero;"/>
    <path d="M4154.68,18173.1l537.667,0l0,-1832.17l647.664,0l-0,-499.087l-1863.37,0l-0,499.087l678.035,0l-0,1832.17Z" style="fill:#fff;fill-rule:nonzero;"/>
    <path d="M5547.69,17996.6c392.921,304.268 785.569,303.721 1177.94,-1.642c132.433,-130.791 212.878,-287.85 241.334,-471.177c14.776,-107.807 16.418,-215.888 4.926,-324.242c-23.532,-176.76 -92.211,-333.819 -206.038,-471.177c-30.098,-35.024 -62.659,-67.585 -97.683,-97.683c-420.831,-295.512 -815.667,-264.045 -1184.51,94.399l-3.283,4.105c-111.638,137.905 -177.034,295.238 -196.187,471.998c-16.965,107.26 -13.681,213.972 9.85,320.138c27.362,186.61 110.543,343.942 249.543,471.998l4.105,3.283Zm910.34,-797.061c20.796,107.807 19.701,215.341 -3.283,322.6c-37.213,120.394 -116.016,198.924 -236.41,235.589c-203.574,36.118 -341.754,-42.411 -414.537,-235.589c-25.173,-106.712 -28.183,-214.246 -9.03,-322.6c32.835,-152.134 125.319,-244.892 277.453,-278.274c205.217,-13.681 333.819,79.077 385.807,278.274Z" style="fill:#fff;fill-rule:nonzero;"/>
    <path d="M7822.31,18173.1l-0,-895.565c8.756,-87.012 44.327,-161.163 106.712,-222.454c128.056,-85.37 266.782,-108.628 416.18,-69.774l1.641,-568.86c-195.366,-15.87 -372.126,34.202 -530.279,150.218l-13.955,-113.279l-526.996,1.641l0,1718.07l546.697,0Z" style="fill:#fff;fill-rule:nonzero;"/>
    <path d="M8644,18172.3l540.951,0l-0,-1689.34l-540.951,-0l-0,1689.34Zm215.888,-2347.68c-176.76,56.914 -253.648,177.307 -230.664,361.181c56.366,176.213 176.486,253.101 360.361,230.664c176.212,-56.366 253.1,-176.486 230.663,-360.361c-56.366,-176.759 -176.486,-253.921 -360.36,-231.484Z" style="fill:#fff;fill-rule:nonzero;"/>
    <path d="M9217.78,18679.6c218.898,73.33 440.532,82.36 664.902,27.088c188.252,-100.145 282.104,-256.657 281.557,-469.535l0.821,-1743.52l-545.055,0l-0,1640.09c4.925,59.102 -21.343,96.862 -78.803,113.279c-67.859,1.095 -130.792,-16.143 -188.8,-51.714l-134.622,484.311Zm669.827,-2861.54l-0.821,0c-182.232,17.512 -281.831,117.384 -298.795,299.616c16.964,182.78 116.837,282.652 299.616,299.617l0.821,-0c182.232,-17.512 281.831,-117.384 298.795,-299.617c-16.964,-182.779 -116.836,-282.651 -299.616,-299.616Z" style="fill:#fff;fill-rule:nonzero;"/>
    <path d="M12215.6,17800.4c-43.232,1.095 -85.917,-3.283 -128.055,-13.134c-40.496,-16.964 -60.197,-47.61 -59.102,-91.937l-0,-718.258c-6.02,-232.578 -119.299,-386.901 -339.839,-462.968c-407.149,-132.433 -778.181,-65.396 -1113.09,201.112l245.439,391.553c64.027,-60.744 136.537,-108.901 217.529,-144.472c107.807,-49.252 220.266,-64.575 337.376,-45.969c26.268,6.02 50.894,15.597 73.878,28.731c28.457,16.417 46.79,40.496 54.998,72.236c1.642,13.681 -3.009,24.626 -13.954,32.834c-20.248,7.662 -41.044,13.134 -62.386,16.418l-440.805,76.34c-199.744,53.083 -338.471,175.392 -416.179,366.927c-64.028,311.93 49.252,533.837 339.838,665.723c255.563,88.106 490.331,49.525 704.303,-115.742c115.469,115.468 254.742,167.73 417.821,156.785l182.232,-416.179Zm-1090.11,-58.281c-21.342,-13.134 -36.665,-31.741 -45.968,-55.819c-16.965,-64.028 4.651,-110.27 64.848,-138.727c16.965,-7.114 34.477,-12.586 52.536,-16.417c101.787,-15.87 202.754,-35.024 302.899,-57.461l-0.821,171.561c-12.586,41.591 -38.033,72.51 -76.34,92.758c-98.504,48.158 -197.555,49.526 -297.154,4.105Z" style="fill:#fff;fill-rule:nonzero;"/>
    <path d="M33146.8,17555.8c96.862,324.516 307.825,535.478 632.888,632.888c536.846,89.748 899.122,-120.941 1086.83,-632.067c48.158,-188.252 38.034,-373.221 -30.372,-554.906c-0.547,-1.641 -1.368,-3.557 -2.462,-5.746c-239.693,-449.287 -602.516,-597.864 -1088.47,-445.73l27.91,-217.53l1004.74,0l-0.821,-491.698l-1454.58,-0l-152.681,1210.78l547.518,89.475l5.746,-6.567c27.362,-46.516 63.754,-83.729 109.175,-111.638c176.213,-87.012 323.421,-51.988 441.626,105.071c77.161,138.452 79.35,278.547 6.567,420.283c-55.819,79.351 -131.612,127.234 -227.38,143.652c-207.953,13.681 -337.923,-80.172 -389.911,-281.557l-516.325,145.293Z" style="fill:#fff;fill-rule:nonzero;"/>
</svg>
