<?xml version="1.0" encoding="UTF-8" standalone="no"?>
<!-- Created with Inkscape (http://www.inkscape.org/) -->

<svg
   xmlns:dc="http://purl.org/dc/elements/1.1/"
   xmlns:cc="http://creativecommons.org/ns#"
   xmlns:rdf="http://www.w3.org/1999/02/22-rdf-syntax-ns#"
   xmlns:svg="http://www.w3.org/2000/svg"
   xmlns="http://www.w3.org/2000/svg"
   version="1.2"
   width="217.832"
   height="192.414"
   id="svg2">
  <metadata
     id="metadata3912">
    <rdf:RDF>
      <cc:Work
         rdf:about="">
        <dc:format>image/svg+xml</dc:format>
        <dc:type
           rdf:resource="http://purl.org/dc/dcmitype/StillImage" />
        <dc:title></dc:title>
      </cc:Work>
    </rdf:RDF>
  </metadata>
  <defs
     id="defs3910" />
  <g
     id="g3929">
    <path
       d="M 14.123,192.414 C 6.322,192.414 0,186.086 0,178.293 c 0,-2.551 0.672,-4.93 1.844,-6.988 L 96.668,7.088 C 99.104,2.848 103.676,0 108.914,0 c 5.242,0 9.816,2.848 12.25,7.088 l 94.828,164.217 c 1.172,2.059 1.84,4.438 1.84,6.988 0,7.793 -6.32,14.121 -14.121,14.121 H 14.123"
       id="path7"
       style="fill:#e41408" />
    <path
       d="m 21.879,173.875 87.035,-150.707 87.039,150.707 -174.074,0"
       id="polyline9"
       style="fill:#ffffff" />
    <path
       d="m 77.352,102.414 c -0.916,0 -1.373,0.914 -1.373,0.914 l -3.199,8.219 c -0.916,0.465 -0.916,0.926 -0.916,0.926 -0.912,1.824 -0.912,3.652 -0.912,3.652 0,2.289 0.912,2.746 0.912,2.746 -0.912,1.371 0.455,2.285 0.455,2.285 v 3.191 c 0,0.512 0.412,0.918 0.916,0.918 h 3.656 c 0.508,0 0.916,-0.406 0.916,-0.918 v -3.652 h 18.285 v 3.652 c 0,0.512 0.408,0.918 0.912,0.918 h 3.658 c 0.506,0 0.912,-0.406 0.912,-0.918 v -3.191 c 0,0 1.377,-0.914 0.461,-2.285 0,0 0.916,-0.457 0.916,-2.746 0,0 0,-1.828 -0.916,-3.652 0,0 0,-0.461 -0.916,-0.926 l -3.199,-8.219 c 0,0 -0.457,-0.914 -1.373,-0.914 H 77.352"
       id="path11"
       style="fill:#1c1d20" />
    <path
       d="m 91.582,114.852 -9.143,0.003 0,2.286 9.139,-0.004 0.004,-2.285"
       id="polyline13"
       style="fill:#ffffff" />
    <path
       d="m 78.268,104.699 c -0.916,0 -0.916,0.457 -0.916,0.457 l -2.289,5.484 c -0.455,1.371 0.916,0.906 0.916,0.906 3.201,-0.906 10.973,-0.906 10.973,-0.906 0,0 7.768,0 10.969,0.906 0,0 1.371,0.465 0.912,-0.906 l -2.285,-5.484 c 0,0 0,-0.457 -0.912,-0.457 H 78.268"
       id="path15"
       style="fill:#ffffff" />
    <path
       d="m 88.436,109.219 c -1.289,0 -1.932,1.293 -1.932,1.293 l -4.51,11.582 c -1.287,0.648 -1.287,1.297 -1.287,1.297 -1.287,2.566 -1.287,5.141 -1.287,5.141 0,3.219 1.287,3.859 1.287,3.859 -1.287,1.941 0.645,3.227 0.645,3.227 v 4.508 c 0,0.703 0.576,1.289 1.291,1.289 h 5.145 c 0.717,0 1.291,-0.586 1.291,-1.289 v -5.152 h 25.75 v 5.152 c 0,0.703 0.578,1.289 1.289,1.289 h 5.148 c 0.711,0 1.289,-0.586 1.289,-1.289 v -4.508 c 0,0 1.93,-1.285 0.645,-3.227 0,0 1.285,-0.641 1.285,-3.859 0,0 0,-2.574 -1.285,-5.141 0,0 0,-0.648 -1.289,-1.297 l -4.508,-11.582 c 0,0 -0.645,-1.293 -1.926,-1.293 H 88.436"
       id="path17"
       style="fill:#1c1d20" />
    <path
       d="m 108.471,126.672 -12.871,0.004 -0.004,3.215 12.871,0 0.004,-3.219"
       id="polyline19"
       style="fill:#ffffff" />
    <path
       d="m 89.719,112.438 c -1.283,0 -1.283,0.641 -1.283,0.641 l -3.225,7.727 c -0.641,1.938 1.293,1.289 1.293,1.289 4.508,-1.289 15.451,-1.289 15.451,-1.289 0,0 10.943,0 15.447,1.289 0,0 1.934,0.648 1.293,-1.289 l -3.219,-7.727 c 0,0 0,-0.641 -1.289,-0.641 H 89.719"
       id="path21"
       style="fill:#ffffff" />
    <path
       d="m 104.619,120.035 c -1.764,0 -2.648,1.762 -2.648,1.762 l -6.172,15.879 c -1.764,0.879 -1.764,1.762 -1.764,1.762 -1.768,3.527 -1.768,7.059 -1.768,7.059 0,4.41 1.768,5.285 1.768,5.285 -1.768,2.648 0.879,4.418 0.879,4.418 v 6.168 c 0,0.973 0.793,1.762 1.766,1.762 h 7.055 c 0.977,0 1.76,-0.789 1.76,-1.762 v -7.059 h 35.279 v 7.059 c 0,0.973 0.789,1.762 1.766,1.762 h 7.055 c 0.973,0 1.766,-0.789 1.766,-1.762 V 156.2 c 0,0 2.645,-1.77 0.883,-4.418 0,0 1.762,-0.875 1.762,-5.285 0,0 0,-3.531 -1.762,-7.059 0,0 0,-0.883 -1.766,-1.762 l -6.172,-15.879 c 0,0 -0.883,-1.77 -2.648,-1.77 l -37.039,0.008"
       id="path23"
       style="fill:#1c1d20" />
    <path
       d="m 132.047,143.93 -17.641,0.008 0,4.41 17.637,0 0.004,-4.418"
       id="polyline25"
       style="fill:#ffffff" />
    <path
       d="m 106.379,124.438 c -1.76,0 -1.76,0.895 -1.76,0.895 l -4.412,10.574 c -0.885,2.648 1.764,1.77 1.764,1.77 6.172,-1.77 21.17,-1.77 21.17,-1.77 0,0 14.992,0 21.164,1.77 0,0 2.641,0.879 1.762,-1.77 l -4.41,-10.574 c 0,0 0,-0.895 -1.766,-0.895 h -33.512"
       id="path27"
       style="fill:#ffffff" />
    <path
       d="M 23.482289,171.46579 C 24.131128,170.34379 43.59103,136.62836 66.726523,96.542597 89.862016,56.456846 108.9092,23.78048 109.0536,23.928459 c 0.35224,0.360981 85.73766,148.251861 86.0227,148.994691 0.19113,0.49804 -12.33534,0.58264 -86.27506,0.58264 l -86.498653,0 1.179702,-2.04 z m 81.530691,-7.77705 c 0.49724,-0.49723 0.65447,-1.54782 0.65447,-4.37304 l 0,-3.71858 17.49218,0 17.49219,0 0,3.94191 c 0,4.78784 0.0184,4.80418 5.41424,4.80418 5.32962,0 5.41425,-0.0692 5.41425,-4.42612 0,-2.95593 0.14486,-3.74802 0.84919,-4.64343 0.59638,-0.75816 0.77449,-1.41962 0.5983,-2.22182 -0.15033,-0.68448 0.0101,-1.64687 0.40026,-2.4014 1.40685,-2.72055 0.094,-11.50633 -1.87707,-12.56119 -0.4339,-0.23221 -1.87005,-3.31811 -3.52792,-7.5805 -3.66107,-9.4126 -3.8015,-9.69945 -5.02028,-10.25476 -0.68893,-0.3139 -4.53416,-0.47419 -11.37525,-0.47419 l -10.33452,0 -1.77181,-4.68541 c -0.9745,-2.57697 -2.14581,-5.01338 -2.60292,-5.41424 -0.72839,-0.63877 -1.79788,-0.72885 -8.6538,-0.72885 l -7.82271,0 -1.123574,-2.81124 c -0.617974,-1.54618 -1.316808,-3.04551 -1.552969,-3.33184 -0.6327,-0.76711 -20.861076,-0.74756 -21.498737,0.0208 -0.247123,0.29775 -1.12401,2.3094 -1.94865,4.47033 -0.824631,2.16092 -1.751409,4.21315 -2.059488,4.5605 -0.308083,0.34736 -0.788085,1.4026 -1.066673,2.34498 -0.419983,1.42069 -0.391421,2.17237 0.167159,4.39966 0.370522,1.47742 0.673682,3.36368 0.673682,4.19167 0,2.01275 0.889711,2.81439 3.123604,2.81439 2.279044,0 3.123604,-0.7963 3.123604,-2.94512 l 0,-1.63617 1.874162,0 c 1.030789,0 1.874162,0.0854 1.874162,0.18974 0,0.10436 -0.458832,0.86588 -1.019631,1.69226 -1.659288,2.4451 -1.829262,5.2079 -0.640077,10.40418 0.262108,1.14532 0.56212,3.01948 0.666694,4.1648 0.382013,4.18401 0.145752,3.95657 4.109901,3.95657 4.123261,0 4.379763,-0.23012 4.379763,-3.92919 l 0,-2.31802 3.540084,0 c 1.947047,0 3.540085,0.10603 3.540085,0.23562 0,0.5517 -0.98992,2.10265 -1.710373,2.67974 -2.12515,1.70224 -3.325072,9.62203 -1.892821,12.49304 0.382196,0.76614 0.56955,1.78531 0.430233,2.3404 -0.156243,0.6225 0.07496,1.52861 0.630126,2.46954 0.688093,1.16622 0.876913,2.18062 0.876913,4.711 0,1.95283 0.197124,3.42187 0.499776,3.72452 0.801521,0.80153 8.846675,0.67288 9.674245,-0.1547 l 0,0 z"
       id="path2407"
       style="fill:#ffffff;fill-opacity:1" />
    <path
       d="M 23.700787,171.06519 C 34.986618,151.072 108.86442,23.724509 109.06152,23.923903 c 0.36091,0.365129 85.70853,148.201157 86.00613,148.976697 0.20264,0.52806 -10.78929,0.60519 -86.25615,0.60519 l -86.488385,0 1.377672,-2.4406 z m 81.205033,-7.41125 c 0.6285,-0.56878 0.76163,-1.33319 0.76163,-4.37304 l 0,-3.68378 17.49218,0 17.49219,0 0,3.71857 c 0,4.93536 0.0993,5.02752 5.41424,5.02752 5.25458,0 5.41425,-0.13809 5.41425,-4.68236 0,-2.56407 0.16654,-3.55744 0.69414,-4.14043 0.38176,-0.42185 0.68069,-1.37369 0.66426,-2.1152 -0.0164,-0.7415 0.26025,-2.14817 0.61483,-3.12594 0.46526,-1.2829 0.58034,-2.62898 0.41344,-4.83572 -0.23786,-3.14497 -1.60985,-7.11123 -2.59001,-7.48735 -0.2986,-0.11457 -1.97612,-3.85459 -3.72785,-8.31114 -1.75172,-4.45654 -3.57102,-8.45251 -4.04287,-8.87992 -0.78247,-0.70879 -1.80044,-0.78796 -11.57819,-0.90058 l -10.7203,-0.12348 -1.98986,-5.00789 c -1.58035,-3.97727 -2.19935,-5.08755 -3.00775,-5.3949 -0.55982,-0.21285 -4.35923,-0.387 -8.44312,-0.387 l -7.42525,0 -1.11173,-2.81124 c -0.611439,-1.54618 -1.416854,-3.04551 -1.789804,-3.33184 -0.498398,-0.38265 -3.284653,-0.5206 -10.514417,-0.5206 -7.248298,0 -10.005595,0.13697 -10.479662,0.5206 -0.353825,0.28633 -1.263519,2.11364 -2.021526,4.06068 -0.757999,1.94705 -1.794069,4.28975 -2.302363,5.20601 -1.265734,2.28162 -1.536659,3.71347 -1.04709,5.53397 0.228685,0.8504 0.59892,2.84091 0.822732,4.42334 0.223813,1.58242 0.651139,3.03203 0.949613,3.22134 0.713057,0.45228 3.719334,0.44254 4.440478,-0.0144 0.311278,-0.19723 0.663625,-1.22514 0.783005,-2.28427 l 0.217048,-1.92567 1.819995,0 c 1.885491,0 2.253197,0.37145 1.218106,1.2305 -0.331044,0.27474 -0.91487,1.44181 -1.297395,2.59349 -0.724389,2.18091 -0.661688,4.3384 0.245919,8.46219 0.252075,1.14532 0.589711,3.2069 0.750306,4.58128 0.160595,1.37439 0.440545,2.73315 0.62211,3.01948 0.218598,0.34475 1.442355,0.52061 3.622726,0.52061 3.870933,0 4.154881,-0.26853 4.154881,-3.92919 l 0,-2.31802 3.540084,0 c 1.947047,0 3.540085,0.10301 3.540085,0.22892 0,0.62447 -1.294076,2.61445 -1.835192,2.8221 -0.938381,0.36009 -2.329613,5.41639 -2.329613,8.46675 0,1.58777 0.258751,3.1843 0.633558,3.9091 0.368036,0.7117 0.525011,1.65764 0.374558,2.25709 -0.171794,0.68448 0.03557,1.50855 0.615887,2.44751 0.686885,1.11142 0.87488,2.09221 0.87488,4.56441 0,4.27551 0.216965,4.45775 5.307081,4.45775 3.13586,0 4.16241,-0.14865 4.75978,-0.68927 l 0,0 z"
       id="path2409"
       style="fill:#ffffff;fill-opacity:1" />
    <path
       d="M 22.836598,172.5687 C 23.37238,171.55352 65.873001,97.941296 92.458885,51.981034 l 16.452005,-28.441359 0.82562,1.370125 c 2.42746,4.028362 85.10881,147.4114 85.3167,147.95317 0.22186,0.57816 -8.45134,0.64282 -86.23225,0.64282 l -86.47892,0 0.494558,-0.93709 z m 81.997892,-9.05845 c 0.7023,-0.7023 0.83296,-1.38826 0.83296,-4.37304 l 0,-3.54009 17.49218,0 17.49219,0 0,3.72471 c 0,4.74882 0.29388,5.02138 5.41424,5.02138 5.06444,0 5.41425,-0.30767 5.41425,-4.76214 0,-2.57233 0.16101,-3.5991 0.62472,-3.98395 0.35237,-0.29244 0.62472,-1.20034 0.62472,-2.08253 0,-0.86024 0.30398,-2.28977 0.67551,-3.17673 1.2133,-2.89656 0.0386,-10.24765 -1.92088,-12.021 -0.42861,-0.38789 -2.10558,-4.01459 -3.72659,-8.05935 -3.85955,-9.63032 -4.0096,-9.86611 -6.49515,-10.2068 -1.08707,-0.149 -6.04771,-0.27091 -11.02361,-0.27091 l -9.04708,0 -1.76553,-4.47717 c -0.97102,-2.46244 -2.12609,-4.852 -2.5668,-5.31012 -0.73662,-0.76575 -1.44086,-0.84342 -8.7267,-0.96256 -6.99516,-0.11438 -7.95358,-0.21215 -8.165449,-0.83296 -1.034184,-3.03036 -2.395192,-5.44404 -3.18997,-5.65727 -1.18019,-0.31661 -18.539156,-0.31228 -19.722165,0.005 -0.669517,0.17952 -1.264751,1.10299 -2.211032,3.43028 -0.712182,1.75154 -1.856958,4.28573 -2.543951,5.63153 -1.484095,2.90731 -1.56924,4.24932 -0.584647,9.21454 0.794466,4.00644 1.324071,4.78953 3.239169,4.78953 1.987199,0 2.731979,-0.66381 3.038554,-2.70821 l 0.280883,-1.87308 1.826871,0 c 1.004784,0 1.826879,0.111 1.826879,0.24667 0,0.13566 -0.363954,0.70936 -0.808784,1.27487 -1.39336,1.77138 -1.900634,5.11243 -1.302601,8.5794 0.286335,1.66001 0.691124,3.4487 0.899523,3.97487 0.20839,0.52617 0.378901,1.68533 0.378901,2.57589 0,0.89057 0.182777,2.09996 0.406173,2.68753 0.385857,1.01488 0.561437,1.06832 3.510335,1.06832 3.936566,0 4.413103,-0.40797 4.413103,-3.77808 l 0,-2.46913 3.540084,0 c 1.947047,0 3.540085,0.10301 3.540085,0.22892 0,0.53584 -1.301144,2.68644 -1.625332,2.68644 -0.194975,0 -0.772501,0.97168 -1.283397,2.15929 -1.266576,2.94424 -1.597565,7.88861 -0.675444,10.08984 0.375303,0.89588 0.570591,1.98104 0.433985,2.41144 -0.137534,0.43335 0.138217,1.52426 0.617945,2.44464 0.649593,1.24626 0.866321,2.43286 0.866321,4.7431 0,4.18897 0.239713,4.38996 5.235751,4.38996 3.37151,0 4.04461,-0.11779 4.75978,-0.83296 z"
       id="path2411"
       style="fill:#ffffff;fill-opacity:1" />
    <path
       d="m 22.942763,172.36046 c 0.527614,-1.01934 12.793986,-22.2736 70.046568,-121.37152 8.690949,-15.043077 15.929909,-27.225128 16.086589,-27.071234 0.37808,0.371371 85.64737,148.085504 85.97198,148.931414 0.22893,0.59661 -7.65751,0.65667 -86.22298,0.65667 l -86.474963,0 0.592806,-1.14533 z m 82.133987,-9.03393 c 0.39769,-0.54429 0.5907,-1.93913 0.5907,-4.26892 l 0,-3.46049 17.49218,0 17.49219,0 0,3.54009 c 0,4.86007 0.35976,5.206 5.41424,5.206 4.98066,0 5.409,-0.3862 5.42749,-4.89364 0.009,-2.17571 0.21255,-3.49122 0.62472,-4.03617 0.33632,-0.44464 0.61431,-1.38172 0.61775,-2.0824 0.003,-0.70068 0.27635,-2.02363 0.60644,-2.93988 0.33011,-0.91626 0.6084,-2.37859 0.61845,-3.24963 0.031,-2.68278 -1.22245,-7.29637 -2.34458,-8.62995 -0.57302,-0.68099 -2.26045,-4.27752 -3.74986,-7.9923 -3.26516,-8.14369 -4.03699,-9.70436 -5.01039,-10.1309 -0.41062,-0.17992 -5.46647,-0.41097 -11.23522,-0.51342 l -10.48864,-0.18628 -1.74755,-4.3482 c -2.65889,-6.61568 -1.7984,-6.12605 -11.21412,-6.38093 l -7.99579,-0.21645 -1.004637,-2.49888 c -1.63559,-4.06825 -1.289957,-3.95656 -12.244294,-3.95656 -8.430632,0 -9.582259,0.0811 -10.34446,0.72884 -0.471727,0.40086 -1.513728,2.32188 -2.315557,4.26892 -0.801837,1.94705 -1.84226,4.28253 -2.312058,5.18995 -1.062854,2.05291 -1.073808,4.36448 -0.04231,8.92617 0.837009,3.70155 1.195374,4.19247 3.067945,4.20265 1.943061,0.0106 2.661319,-0.64009 2.968598,-2.68916 l 0.282791,-1.88575 1.84864,0 c 1.01675,0 1.84864,0.0746 1.84864,0.16573 0,0.0912 -0.463738,0.98138 -1.030535,1.97828 -1.454841,2.55886 -1.649208,4.60096 -0.827721,8.69662 0.389196,1.94038 0.869623,4.73313 1.067627,6.20612 0.197994,1.473 0.597453,2.82889 0.887678,3.01311 0.290216,0.18421 1.699024,0.3378 3.130676,0.34131 3.456221,0.008 4.268925,-0.74356 4.268925,-3.95019 l 0,-2.29064 3.540084,0 c 1.947047,0 3.540085,0.10301 3.540085,0.22892 0,0.51033 -1.236818,2.57397 -1.84538,3.07903 -0.921796,0.76503 -2.319425,5.56535 -2.319425,7.96634 0,1.11318 0.29448,2.89135 0.654399,3.95147 0.359922,1.06012 0.564368,2.16212 0.454322,2.44888 -0.110039,0.28677 0.157729,1.32058 0.595042,2.29735 0.533766,1.19219 0.79512,2.7193 0.79512,4.64584 0,2.35724 0.155738,3.02562 0.871839,3.74172 0.785953,0.78595 1.261116,0.85775 4.823536,0.72884 3.33087,-0.12053 4.0445,-0.27001 4.54241,-0.95144 l 1e-5,0 z"
       id="path2413"
       style="fill:#ffffff;fill-opacity:1" />
    <path
       d="m 22.942763,172.36046 c 0.527614,-1.01934 12.793986,-22.2736 70.046568,-121.37152 8.690949,-15.043077 15.929909,-27.225128 16.086589,-27.071234 0.37808,0.371371 85.64737,148.085504 85.97198,148.931414 0.22893,0.59661 -7.65751,0.65667 -86.22298,0.65667 l -86.474963,0 0.592806,-1.14533 z m 82.133987,-9.03393 c 0.39769,-0.54429 0.5907,-1.93913 0.5907,-4.26892 l 0,-3.46049 17.49218,0 17.49219,0 0,3.54009 c 0,4.86007 0.35976,5.206 5.41424,5.206 4.98066,0 5.409,-0.3862 5.42749,-4.89364 0.009,-2.17571 0.21255,-3.49122 0.62472,-4.03617 0.33632,-0.44464 0.61431,-1.38172 0.61775,-2.0824 0.003,-0.70068 0.27635,-2.02363 0.60644,-2.93988 0.33011,-0.91626 0.6084,-2.37859 0.61845,-3.24963 0.031,-2.68278 -1.22245,-7.29637 -2.34458,-8.62995 -0.57302,-0.68099 -2.26045,-4.27752 -3.74986,-7.9923 -3.26516,-8.14369 -4.03699,-9.70436 -5.01039,-10.1309 -0.41062,-0.17992 -5.46647,-0.41097 -11.23522,-0.51342 l -10.48864,-0.18628 -1.74755,-4.3482 c -2.65889,-6.61568 -1.7984,-6.12605 -11.21412,-6.38093 l -7.99579,-0.21645 -1.004637,-2.49888 c -1.63559,-4.06825 -1.289957,-3.95656 -12.244294,-3.95656 -8.430632,0 -9.582259,0.0811 -10.34446,0.72884 -0.471727,0.40086 -1.513728,2.32188 -2.315557,4.26892 -0.801837,1.94705 -1.84226,4.28253 -2.312058,5.18995 -1.062854,2.05291 -1.073808,4.36448 -0.04231,8.92617 0.837009,3.70155 1.195374,4.19247 3.067945,4.20265 1.943061,0.0106 2.661319,-0.64009 2.968598,-2.68916 l 0.282791,-1.88575 1.84864,0 c 1.01675,0 1.84864,0.0746 1.84864,0.16573 0,0.0912 -0.463738,0.98138 -1.030535,1.97828 -1.454841,2.55886 -1.649208,4.60096 -0.827721,8.69662 0.389196,1.94038 0.869623,4.73313 1.067627,6.20612 0.197994,1.473 0.597453,2.82889 0.887678,3.01311 0.290216,0.18421 1.699024,0.3378 3.130676,0.34131 3.456221,0.008 4.268925,-0.74356 4.268925,-3.95019 l 0,-2.29064 3.540084,0 c 1.947047,0 3.540085,0.10301 3.540085,0.22892 0,0.51033 -1.236818,2.57397 -1.84538,3.07903 -0.921796,0.76503 -2.319425,5.56535 -2.319425,7.96634 0,1.11318 0.29448,2.89135 0.654399,3.95147 0.359922,1.06012 0.564368,2.16212 0.454322,2.44888 -0.110039,0.28677 0.157729,1.32058 0.595042,2.29735 0.533766,1.19219 0.79512,2.7193 0.79512,4.64584 0,2.35724 0.155738,3.02562 0.871839,3.74172 0.785953,0.78595 1.261116,0.85775 4.823536,0.72884 3.33087,-0.12053 4.0445,-0.27001 4.54241,-0.95144 l 1e-5,0 z"
       id="path2416"
       style="fill:#ffffff;fill-opacity:1" />
    <path
       d="M 22.749271,172.652 C 23.40661,171.39621 74.278044,83.264135 91.563798,53.434451 99.129916,40.377787 106.08252,28.340338 107.01406,26.684561 c 0.93154,-1.655777 1.78741,-3.010692 1.90194,-3.010933 0.11453,-2.42e-4 5.25773,8.757427 11.42935,19.46148 6.17158,10.70405 25.44671,44.107149 42.83361,74.229102 17.38689,30.12196 31.78841,55.09517 32.0034,55.49603 0.37171,0.69305 -3.8644,0.72884 -86.26636,0.72884 l -86.657256,0 0.490527,-0.93708 z m 81.644579,-8.89813 c 0.91601,-0.25169 1.17785,-1.41481 1.1846,-5.26221 l 0.006,-3.22772 17.43441,0 17.43446,0 0.21357,3.74665 c 0.11749,2.06066 0.42777,4.00468 0.68948,4.32004 1.09318,1.3172 8.8084,1.14671 9.67043,-0.21369 0.19675,-0.31051 0.36659,-1.97021 0.37738,-3.6882 0.013,-2.07545 0.22481,-3.39488 0.63109,-3.93204 0.33626,-0.44466 0.61418,-1.38173 0.61756,-2.08241 0.003,-0.70069 0.3039,-2.11733 0.66791,-3.14812 1.13403,-3.2111 0.078,-9.83374 -1.90807,-11.96549 -0.42818,-0.4596 -2.10985,-4.09663 -3.73704,-8.08228 -4.16239,-10.19554 -3.81996,-9.74999 -7.74874,-10.08209 -1.77767,-0.15027 -6.73308,-0.27322 -11.01208,-0.27322 l -7.77998,0 -1.52794,-3.85244 c -2.19802,-5.54202 -2.79013,-6.38413 -4.71219,-6.70166 -0.88294,-0.14587 -4.52106,-0.26728 -8.08468,-0.2698 l -6.47935,-0.005 -1.293881,-2.91206 c -0.954823,-2.14897 -1.583209,-3.02206 -2.39797,-3.33184 -1.366593,-0.51958 -18.116907,-0.56082 -19.465912,-0.0479 -0.739053,0.28098 -1.585308,1.73127 -3.463073,5.93484 -2.672201,5.982 -3.043673,8.20276 -1.980719,11.8413 0.262679,0.89916 0.637582,2.29078 0.833128,3.09251 0.334942,1.37327 0.465396,1.46487 2.252651,1.58186 2.245559,0.14698 2.839419,-0.38106 3.165877,-2.81497 l 0.225649,-1.68225 2.027544,0 c 1.115168,0 2.027573,0.0854 2.027573,0.18974 0,0.10437 -0.463585,0.87288 -1.03019,1.70781 -0.566596,0.83495 -1.146387,2.13748 -1.288415,2.89454 -0.25567,1.36285 -0.06579,5.2764 0.353496,7.28584 0.119492,0.57266 0.441765,2.46595 0.716167,4.20732 0.274394,1.74138 0.635978,3.38789 0.803508,3.65896 0.411049,0.6651 2.978822,1.04417 4.781817,0.70593 2.174474,-0.40795 2.743786,-1.19897 2.743786,-3.81243 l 0,-2.2609 3.568147,0 c 3.509564,0 3.563332,0.0154 3.274878,0.93708 -0.161345,0.5154 -0.719216,1.44666 -1.239763,2.06948 -2.044819,2.44657 -3.008118,7.69414 -2.070354,11.27822 0.347537,1.3283 0.631897,2.88379 0.631897,3.45665 0,0.57286 0.25711,1.54765 0.571361,2.1662 0.314243,0.61855 0.660497,2.57033 0.769444,4.33728 0.108947,1.76696 0.428346,3.49008 0.709779,3.82919 0.281415,0.3391 1.200255,0.69277 2.041795,0.78592 1.581585,0.17507 5.59313,-0.0487 6.79525,-0.37901 l 0,-1e-5 z"
       id="path2418"
       style="fill:#ffcc00;fill-opacity:1" />
    <path
       d="m 75.181078,111.18628 c 0,-0.22183 0.547468,-1.68693 1.216594,-3.25579 l 1.216606,-2.85245 9.344145,-0.11179 9.344132,-0.11179 0.684235,1.79163 c 0.376332,0.9854 0.684236,1.92593 0.684236,2.09007 0,0.16415 -2.207292,0.29844 -4.905095,0.29844 -3.933975,0 -5.104344,0.13956 -5.911466,0.70489 -0.707222,0.49536 -2.330825,0.79229 -5.462142,0.99892 -2.450672,0.16173 -4.850753,0.4194 -5.333508,0.57262 -0.482743,0.15322 -0.877737,0.0971 -0.877737,-0.12475 z"
       id="path2420"
       style="fill:#ffcc00;fill-opacity:1" />
    <path
       d="m 85.351882,121.21666 c 0.145394,-0.40087 0.961966,-2.46204 1.814589,-4.58039 l 1.550224,-3.85155 13.255155,0.10323 13.2552,0.10322 1.38205,3.33184 1.38201,3.33184 -7.34876,0.28034 c -9.55598,0.36449 -19.233142,1.06084 -22.09505,1.58989 -3.165719,0.58522 -3.507616,0.55222 -3.19543,-0.30842 l 1.2e-5,0 z"
       id="path2422"
       style="fill:#ffcc00;fill-opacity:1" />
    <path
       d="m 100.34441,137.20934 c -0.12298,-0.32056 0.85037,-3.15328 2.16304,-6.29491 1.87133,-4.47871 2.60192,-5.79388 3.38353,-6.09105 1.07268,-0.40784 33.04514,-0.52625 34.52986,-0.12789 0.68919,0.1849 1.42752,1.54094 3.22839,5.92917 1.28413,3.12918 2.33454,5.91262 2.33416,6.18544 -0.001,0.85828 -0.57316,0.91314 -3.34442,0.32071 -1.48234,-0.31691 -6.49202,-0.80664 -11.13261,-1.08832 -10.74411,-0.65216 -23.55705,-5.1e-4 -29.99205,1.52536 -0.59428,0.14093 -1.02942,0.008 -1.1699,-0.3585 l 0,-1e-5 z"
       id="path2424"
       style="fill:#ffcc00;fill-opacity:1" />
    <path
       d="m 114.74673,146.10137 0,-2.08241 8.53785,0 8.53785,0 0,2.08241 0,2.0824 -8.53785,0 -8.53785,0 0,-2.0824 z"
       id="path2426"
       style="fill:#ffcc00;fill-opacity:1" />
    <path
       d="m 95.588624,128.42608 0,-1.48282 2.08361,0 2.083569,0 -0.549671,1.35357 c -0.461461,1.13631 -0.795894,1.3743 -2.083611,1.48282 -1.504535,0.12679 -1.533897,0.10087 -1.533897,-1.35356 l 0,-10e-6 z"
       id="path2428"
       style="fill:#ffcc00;fill-opacity:1" />
    <path
       d="m 82.677727,115.90653 c 0,-0.76355 0.222122,-1.0412 0.832961,-1.0412 0.870982,0 1.002561,0.32287 0.580162,1.42362 -0.404198,1.05332 -1.413123,0.78028 -1.413123,-0.38242 z"
       id="path2432"
       style="fill:#ffcc00;fill-opacity:1" />
  </g>
</svg>
