<svg xmlns="http://www.w3.org/2000/svg" width="48" height="48">
<circle cx="24" cy="24" r="21" fill="#f4b70d" stroke="#e31409" stroke-width="6"/>
<path d="M11 26v.2l.1.3.1.2.1.2.1.1.1.2.1.2.2.2v.2l.2.1.2.2.1.2.2.1.2.1.1.2.2.1.2.1.2.1.2.1.2.1.2.1h.2l.2.1h.2l.3.1H15.8l.3.1h1.1l.2-.1h.2l.2-.1.2-.1h.2l.2-.2h.2l.2-.2.2-.1.2-.2.2-.1.2-.2.1-.1.2-.2.1-.2.2-.2.1-.2.1-.2.2-.2V27l.2-.2v-.2l.1-.2v-.2l.1-.3v-.2l.1-.2v-1.9l-.1-.2-.1-.2-.1-.3v-.2l-.2-.2-.1-.2-.2-.2-.1-.2-.2-.2-.2-.1-.1-.2-.2-.2-.2-.1-.2-.1-.2-.1-.2-.1-.3-.1-.2-.1H18l-.2-.1h-.2l-.3-.1H15.5l-.3.1H15l-.2.2.1-1.3h5.6v-2.8h-8.2l-.8 6.8 3 .5.2-.3.2-.2.3-.1.2-.2h.3l.2-.2h.6l.3.1.3.2.2.1.2.2.2.3.1.2.1.3v.3l.1.3v.7l-.2.3-.1.2-.1.2-.2.2-.2.2-.3.1-.2.1h-1.3l-.3-.2-.2-.2-.2-.1-.2-.3-.1-.2-.1-.2-.1-.3-2.9.8zM21.3 31.2H22.2l.2-.1.2-.1.2-.1.3-.2.1-.1.2-.2.1-.2.1-.2.1-.2.1-.2V28l-.2-.2-.1-.2-.2-.2-.2-.1-.2-.1h-.2l-.3-.1h-.8l-.2.1-.2.2-.2.2-.2.2v.2l-.1.2V29.2l.1.1.1.1.1.1h.1l.2.1.2.1H21.9v.1h.1v.2h-.1v.1H21.4l-.1.1h-.2l-.1.1-.1.2v.6h.2l.1.1M24.4 27.2v.2l.1.2.1.2.1.2.1.2.1.2.2.1.1.2.2.1.2.2.1.1.2.1.2.1.2.1.2.1h.2l.3.1h.2l.2.1H28.5l.3-.1h.2l.2-.1.2-.1.2-.1.2-.2.2-.1.2-.1.1-.2.2-.2.1-.2.1-.1.2-.2v-.2l.1-.3.1-.2v-.2l.1-.2V25l-.2-.2v-.2l-.2-.2-.2-.2-.2-.2-.2-.2-.2-.2-.2-.1-.2-.1-.2-.1-.3-.1H29l-.3-.1h-1.3l-.2.1h-.3l.1-.8h4v-2H25l-.6 4.8 2.1.3.2-.1.1-.2.2-.1.2-.1.3-.1H28.2l.2.2.2.1.2.2.1.2.1.2V27l-.2.2-.1.2-.2.1-.2.1-.3.1h-.5l-.3-.1-.3-.2-.2-.2-.2-.3-.1-.3-2 .6M33.3 24.8h1v3.5l.2.2v.2l.2.2.1.2.2.2h.2l.3.2h2l.3-.1.3-.1-.4-1.7h-.2l-.1.1h-.8l-.1-.1-.1-.1v-2.7h1.5v-1.6h-1.6v-2.4l-2 .6v1.8h-1v1.6"/>
</svg>