<?xml version="1.0"?>
<svg xmlns="http://www.w3.org/2000/svg" width="48" height="48">
<circle cx="24" cy="24" r="21" fill="#f4b70d"/>
<path d="m5,18v12l10-6m18,0 10-6v12"/>
<circle cx="24" cy="24" r="21" fill="none" stroke="#e31409" stroke-width="6"/>
<path d="M20.4 17h.3c3 0 5 1.4 5.7 4v2.1c0 1.6-1.6 3.6-4.7 6h4.7v3.2H15.7v-2.3c0-.6.7-1.2 1.9-1.9 3.5-2.7 5.3-4.4 5.3-5.3l.2-.8c0-1-.9-1.7-2.5-1.9-1.5.3-2.2 1.2-2.2 2.8v.2H15v-1.6c0-1.8 1-3.1 3.1-4 .7-.3 1.4-.5 2.2-.5zM30.2 15.6c.3 0 .7.2 1.1.5.4-.3.8-.5 1.3-.5 1.1.1 1.7.7 1.7 1.6v3H33v-2.4c0-.6-.2-1-.7-1-.4.1-.6.3-.6.6v2.8h-1.3v-2.8c0-.4-.3-.5-.7-.5-.2 0-.4.2-.5.3v3h-1.4v-4.5H29v.2h.1l1.1-.3"/>
</svg>