<?xml version="1.0" encoding="utf-8"?>
<!-- Generator: Adobe Illustrator 16.0.3, SVG Export Plug-In . SVG Version: 6.00 Build 0)  -->
<svg xmlns="http://www.w3.org/2000/svg" width="560.254px" height="560.018px">
<path fill="#F4B70D" d="M74.814,280.014c0-113.402,91.923-205.336,205.336-205.336s205.336,91.935,205.336,205.336
	c0,113.412-91.923,205.323-205.336,205.323S74.814,393.426,74.814,280.014z"/>
<path fill="#1C1D20" d="M314.365,233.354c3.446,0,6.229,2.782,6.229,6.217v214.672l27.985-28.01l27.998,28.01V239.571
	c0-34.354-27.857-62.225-62.225-62.225H137.027l-27.986,27.997l27.986,28.011H314.365z"/>
<path fill="#E41408" d="M476.477,79.95C360.993-35.533,182.078-18.594,79.556,83.929C-25.91,189.395-27.995,367.858,82.157,478.007
	c106.716,106.717,284.033,111.949,395.985-0.003C596.907,359.24,578.439,181.912,476.477,79.95z M74.814,280.014
	c0-47.463,16.109-91.157,43.148-125.933l293.753,283.573C279.506,548.093,74.814,454.999,74.814,280.014z M424.221,133.44
	c69.103,69.104,86.161,185.462,17.803,272.916L148.185,122.708C228.969,54.865,349.826,59.045,424.221,133.44z"/>
</svg>