<?xml version="1.0" encoding="UTF-8" standalone="no"?>
<svg
   xmlns:dc="http://purl.org/dc/elements/1.1/"
   xmlns:cc="http://creativecommons.org/ns#"
   xmlns:rdf="http://www.w3.org/1999/02/22-rdf-syntax-ns#"
   xmlns:svg="http://www.w3.org/2000/svg"
   xmlns="http://www.w3.org/2000/svg"
   xmlns:sodipodi="http://sodipodi.sourceforge.net/DTD/sodipodi-0.dtd"
   xmlns:inkscape="http://www.inkscape.org/namespaces/inkscape"
   sodipodi:docname="Señal_TS-210.svg"
   inkscape:version="1.0beta1 (76ce730, 2019-10-19)"
   id="svg8"
   version="1.1"
   viewBox="0 0 74.092179 55.026189"
   height="55.026188mm"
   width="74.092178mm">
  <defs
     id="defs2">
    <inkscape:path-effect
       end_linecap_type="zerowidth"
       scale_width="1"
       miter_limit="4"
       linejoin_type="extrp_arc"
       start_linecap_type="zerowidth"
       interpolator_beta="0.2"
       interpolator_type="CubicBezierJohan"
       sort_points="true"
       offset_points="1,0.1322915"
       is_visible="true"
       id="path-effect1382"
       effect="powerstroke" />
    <inkscape:path-effect
       end_linecap_type="zerowidth"
       scale_width="1"
       miter_limit="4"
       linejoin_type="extrp_arc"
       start_linecap_type="zerowidth"
       interpolator_beta="0.2"
       interpolator_type="CubicBezierJohan"
       sort_points="true"
       offset_points="1,0.1322915"
       is_visible="true"
       id="path-effect1378"
       effect="powerstroke" />
    <inkscape:path-effect
       end_linecap_type="zerowidth"
       scale_width="1"
       miter_limit="4"
       linejoin_type="extrp_arc"
       start_linecap_type="zerowidth"
       interpolator_beta="0.2"
       interpolator_type="CubicBezierJohan"
       sort_points="true"
       offset_points="1,0.1322915"
       is_visible="true"
       id="path-effect1374"
       effect="powerstroke" />
    <inkscape:path-effect
       end_linecap_type="zerowidth"
       scale_width="1"
       miter_limit="4"
       linejoin_type="extrp_arc"
       start_linecap_type="zerowidth"
       interpolator_beta="0.2"
       interpolator_type="CubicBezierJohan"
       sort_points="true"
       offset_points="1,0.1322915"
       is_visible="true"
       id="path-effect1370"
       effect="powerstroke" />
    <inkscape:path-effect
       end_linecap_type="zerowidth"
       scale_width="1"
       miter_limit="4"
       linejoin_type="extrp_arc"
       start_linecap_type="zerowidth"
       interpolator_beta="0.2"
       interpolator_type="CubicBezierJohan"
       sort_points="true"
       offset_points="0,0.1322915"
       is_visible="true"
       id="path-effect1366"
       effect="powerstroke" />
    <inkscape:path-effect
       end_linecap_type="zerowidth"
       scale_width="1"
       miter_limit="4"
       linejoin_type="extrp_arc"
       start_linecap_type="zerowidth"
       interpolator_beta="0.2"
       interpolator_type="CubicBezierJohan"
       sort_points="true"
       offset_points="0,0.1322915"
       is_visible="true"
       id="path-effect1362"
       effect="powerstroke" />
    <inkscape:path-effect
       end_linecap_type="zerowidth"
       scale_width="1"
       miter_limit="4"
       linejoin_type="extrp_arc"
       start_linecap_type="zerowidth"
       interpolator_beta="0.2"
       interpolator_type="CubicBezierJohan"
       sort_points="true"
       offset_points="0,0.1322915"
       is_visible="true"
       id="path-effect1358"
       effect="powerstroke" />
    <inkscape:path-effect
       end_linecap_type="zerowidth"
       scale_width="1"
       miter_limit="4"
       linejoin_type="extrp_arc"
       start_linecap_type="zerowidth"
       interpolator_beta="0.2"
       interpolator_type="CubicBezierJohan"
       sort_points="true"
       offset_points="0,0.1322915"
       is_visible="true"
       id="path-effect1354"
       effect="powerstroke" />
    <inkscape:path-effect
       end_linecap_type="zerowidth"
       scale_width="1"
       miter_limit="4"
       linejoin_type="extrp_arc"
       start_linecap_type="zerowidth"
       interpolator_beta="0.2"
       interpolator_type="CubicBezierJohan"
       sort_points="true"
       offset_points="0,0.1322915"
       is_visible="true"
       id="path-effect1350"
       effect="powerstroke" />
    <inkscape:path-effect
       end_linecap_type="zerowidth"
       scale_width="1"
       miter_limit="4"
       linejoin_type="extrp_arc"
       start_linecap_type="zerowidth"
       interpolator_beta="0.2"
       interpolator_type="CubicBezierJohan"
       sort_points="true"
       offset_points="0,0.1322915"
       is_visible="true"
       id="path-effect1346"
       effect="powerstroke" />
    <inkscape:path-effect
       end_linecap_type="zerowidth"
       scale_width="1"
       miter_limit="4"
       linejoin_type="extrp_arc"
       start_linecap_type="zerowidth"
       interpolator_beta="0.2"
       interpolator_type="CubicBezierJohan"
       sort_points="true"
       offset_points="0,0.1322915"
       is_visible="true"
       id="path-effect1342"
       effect="powerstroke" />
    <inkscape:path-effect
       overflow_perspective="false"
       vertical_mirror="false"
       horizontal_mirror="false"
       deform_type="perspective"
       is_visible="true"
       id="path-effect31"
       down_right_point="68.791666,196.92559"
       down_left_point="30.238094,196.92559"
       up_right_point="68.791666,48.380951"
       up_left_point="28.54,48.380951"
       effect="perspective-envelope" />
    <inkscape:path-effect
       spray_tool_friendly="false"
       fixed_displacement="false"
       shift_nodes="true"
       handles="along"
       global_randomize="1.6;1"
       displace_y="10;1"
       displace_x="10;1"
       segments="2"
       max_segment_size="28"
       method="segments"
       is_visible="true"
       id="path-effect29"
       effect="roughen" />
    <filter
       id="filter99"
       inkscape:label="Ink Blot"
       height="1.3"
       y="-0.15000001"
       width="1.3"
       x="-0.15000001"
       style="color-interpolation-filters:sRGB">
      <feGaussianBlur
         id="feGaussianBlur89"
         result="blur1"
         stdDeviation="10 10"
         in="SourceGraphic" />
      <feTurbulence
         id="feTurbulence91"
         result="turbulence"
         seed="0"
         numOctaves="3"
         baseFrequency="0.04"
         type="fractalNoise" />
      <feDisplacementMap
         id="feDisplacementMap93"
         result="map"
         scale="50"
         yChannelSelector="G"
         xChannelSelector="R"
         in2="turbulence"
         in="blur1" />
      <feGaussianBlur
         id="feGaussianBlur95"
         result="blur2"
         stdDeviation="5"
         in="map" />
      <feComposite
         id="feComposite97"
         result="composite"
         operator="over"
         in2="map"
         in="blur2" />
    </filter>
    <filter
       style="color-interpolation-filters:sRGB"
       x="-0.15000001"
       width="1.3"
       y="-0.15000001"
       height="1.3"
       inkscape:label="Ink Blot"
       id="filter99-7">
      <feGaussianBlur
         in="SourceGraphic"
         stdDeviation="10 10"
         result="blur1"
         id="feGaussianBlur89-0" />
      <feTurbulence
         type="fractalNoise"
         baseFrequency="0.04"
         numOctaves="3"
         seed="0"
         result="turbulence"
         id="feTurbulence91-3" />
      <feDisplacementMap
         in="blur1"
         in2="turbulence"
         xChannelSelector="R"
         yChannelSelector="G"
         scale="50"
         result="map"
         id="feDisplacementMap93-9" />
      <feGaussianBlur
         in="map"
         stdDeviation="5"
         result="blur2"
         id="feGaussianBlur95-9" />
      <feComposite
         in="blur2"
         in2="map"
         operator="over"
         result="composite"
         id="feComposite97-9" />
    </filter>
    <filter
       id="filter1530"
       style="color-interpolation-filters:sRGB"
       inkscape:menu-tooltip="Detect color edges and retrace them in blue"
       inkscape:menu="Image Paint and Draw"
       inkscape:label="Blueprint">
      <feConvolveMatrix
         id="feConvolveMatrix1526"
         bias="0"
         result="result0"
         preserveAlpha="true"
         targetY="1"
         targetX="1"
         divisor="1"
         in="SourceGraphic"
         kernelMatrix="1 1 1 1 -8 1 1 1 1"
         order="3 3" />
      <feColorMatrix
         id="feColorMatrix1528"
         values="-0.15 -0.3 -0.05 0 1 -0.15 -0.3 -0.05 0 1 0 0 0 0 1 0 0 0 1 0"
         result="result3" />
    </filter>
    <filter
       id="filter1536"
       style="color-interpolation-filters:sRGB"
       inkscape:menu-tooltip="Detect color edges and retrace them in blue"
       inkscape:menu="Image Paint and Draw"
       inkscape:label="Blueprint">
      <feConvolveMatrix
         id="feConvolveMatrix1532"
         bias="0"
         result="result0"
         preserveAlpha="true"
         targetY="1"
         targetX="1"
         divisor="1"
         in="SourceGraphic"
         kernelMatrix="1 1 1 1 -8 1 1 1 1"
         order="3 3" />
      <feColorMatrix
         id="feColorMatrix1534"
         values="-0.15 -0.3 -0.05 0 1 -0.15 -0.3 -0.05 0 1 0 0 0 0 1 0 0 0 1 0"
         result="result3" />
    </filter>
    <filter
       id="filter1542"
       style="color-interpolation-filters:sRGB"
       inkscape:menu-tooltip="Detect color edges and retrace them in blue"
       inkscape:menu="Image Paint and Draw"
       inkscape:label="Blueprint">
      <feConvolveMatrix
         id="feConvolveMatrix1538"
         bias="0"
         result="result0"
         preserveAlpha="true"
         targetY="1"
         targetX="1"
         divisor="1"
         in="SourceGraphic"
         kernelMatrix="1 1 1 1 -8 1 1 1 1"
         order="3 3" />
      <feColorMatrix
         id="feColorMatrix1540"
         values="-0.15 -0.3 -0.05 0 1 -0.15 -0.3 -0.05 0 1 0 0 0 0 1 0 0 0 1 0"
         result="result3" />
    </filter>
    <filter
       id="filter1548"
       style="color-interpolation-filters:sRGB"
       inkscape:menu-tooltip="Detect color edges and retrace them in blue"
       inkscape:menu="Image Paint and Draw"
       inkscape:label="Blueprint">
      <feConvolveMatrix
         id="feConvolveMatrix1544"
         bias="0"
         result="result0"
         preserveAlpha="true"
         targetY="1"
         targetX="1"
         divisor="1"
         in="SourceGraphic"
         kernelMatrix="1 1 1 1 -8 1 1 1 1"
         order="3 3" />
      <feColorMatrix
         id="feColorMatrix1546"
         values="-0.15 -0.3 -0.05 0 1 -0.15 -0.3 -0.05 0 1 0 0 0 0 1 0 0 0 1 0"
         result="result3" />
    </filter>
    <filter
       id="filter1742"
       style="color-interpolation-filters:sRGB"
       inkscape:menu-tooltip="Detect color edges and retrace them in grayscale"
       inkscape:menu="Image Paint and Draw"
       inkscape:label="Pencil">
      <feConvolveMatrix
         id="feConvolveMatrix1738"
         order="3 3"
         kernelMatrix="1 1 1 1 -8 1 1 1 1"
         in="SourceGraphic"
         divisor="1"
         targetX="1"
         targetY="1"
         preserveAlpha="true"
         result="result0"
         bias="0" />
      <feColorMatrix
         id="feColorMatrix1740"
         result="result3"
         values="-0.15 -0.3 -0.05 0 1 -0.15 -0.3 -0.05 0 1 -0.15 -0.3 -0.05 0 1 0 0 0 1 0" />
    </filter>
    <filter
       id="filter1748"
       style="color-interpolation-filters:sRGB"
       inkscape:menu-tooltip="Detect color edges and retrace them in grayscale"
       inkscape:menu="Image Paint and Draw"
       inkscape:label="Pencil">
      <feConvolveMatrix
         id="feConvolveMatrix1744"
         order="3 3"
         kernelMatrix="1 1 1 1 -8 1 1 1 1"
         in="SourceGraphic"
         divisor="1"
         targetX="1"
         targetY="1"
         preserveAlpha="true"
         result="result0"
         bias="0" />
      <feColorMatrix
         id="feColorMatrix1746"
         result="result3"
         values="-0.15 -0.3 -0.05 0 1 -0.15 -0.3 -0.05 0 1 -0.15 -0.3 -0.05 0 1 0 0 0 1 0" />
    </filter>
    <filter
       id="filter1754"
       style="color-interpolation-filters:sRGB"
       inkscape:menu-tooltip="Detect color edges and retrace them in grayscale"
       inkscape:menu="Image Paint and Draw"
       inkscape:label="Pencil">
      <feConvolveMatrix
         id="feConvolveMatrix1750"
         order="3 3"
         kernelMatrix="1 1 1 1 -8 1 1 1 1"
         in="SourceGraphic"
         divisor="1"
         targetX="1"
         targetY="1"
         preserveAlpha="true"
         result="result0"
         bias="0" />
      <feColorMatrix
         id="feColorMatrix1752"
         result="result3"
         values="-0.15 -0.3 -0.05 0 1 -0.15 -0.3 -0.05 0 1 -0.15 -0.3 -0.05 0 1 0 0 0 1 0" />
    </filter>
    <filter
       id="filter1760"
       style="color-interpolation-filters:sRGB"
       inkscape:menu-tooltip="Detect color edges and retrace them in grayscale"
       inkscape:menu="Image Paint and Draw"
       inkscape:label="Pencil">
      <feConvolveMatrix
         id="feConvolveMatrix1756"
         order="3 3"
         kernelMatrix="1 1 1 1 -8 1 1 1 1"
         in="SourceGraphic"
         divisor="1"
         targetX="1"
         targetY="1"
         preserveAlpha="true"
         result="result0"
         bias="0" />
      <feColorMatrix
         id="feColorMatrix1758"
         result="result3"
         values="-0.15 -0.3 -0.05 0 1 -0.15 -0.3 -0.05 0 1 -0.15 -0.3 -0.05 0 1 0 0 0 1 0" />
    </filter>
  </defs>
  <sodipodi:namedview
     inkscape:window-maximized="0"
     inkscape:window-y="23"
     inkscape:window-x="0"
     inkscape:window-height="755"
     inkscape:window-width="1280"
     showguides="true"
     fit-margin-bottom="0"
     fit-margin-right="0"
     fit-margin-left="0"
     fit-margin-top="0"
     showgrid="false"
     inkscape:document-rotation="0"
     inkscape:current-layer="layer3"
     inkscape:document-units="mm"
     inkscape:cy="120.45184"
     inkscape:cx="-25.571689"
     inkscape:zoom="1.4"
     inkscape:pageshadow="2"
     inkscape:pageopacity="0.0"
     borderopacity="1.0"
     bordercolor="#666666"
     pagecolor="#ffffff"
     id="base" />
  <metadata
     id="metadata5">
    <rdf:RDF>
      <cc:Work
         rdf:about="">
        <dc:format>image/svg+xml</dc:format>
        <dc:type
           rdf:resource="http://purl.org/dc/dcmitype/StillImage" />
        <dc:title />
      </cc:Work>
    </rdf:RDF>
  </metadata>
  <g
     transform="translate(-896.51721,-1038.6868)"
     inkscape:groupmode="layer"
     id="layer2"
     inkscape:label="base"
     sodipodi:insensitive="true">
    <rect
       rx="4.7246909"
       ry="4.7246909"
       y="1039.6868"
       x="897.51721"
       height="53.026188"
       width="72.092178"
       id="rect1011"
       style="fill:#feca37;fill-opacity:1;fill-rule:evenodd;stroke:#000000;stroke-width:2;stroke-linecap:round;stroke-dashoffset:11.3386;stop-color:#000000" />
  </g>
  <g
     inkscape:label="flechas"
     id="layer3"
     inkscape:groupmode="layer"
     transform="translate(-134.88104,-2.8791352)">
    <path
       sodipodi:nodetypes="cccccccccccccccccccccccc"
       inkscape:connector-curvature="0"
       id="path1014"
       d="M 146.8646,56.39387 V 21.381562 h 3.60814 v 15.367999 c 0,0 0.53454,-0.801809 1.60362,-1.33635 1.06908,-0.534537 9.48807,-4.009043 9.48807,-4.009043 l 0.53454,-0.400902 c 0.13363,-0.467722 -1.5368,-2.138156 -1.5368,-2.138156 0,0 -0.26727,-0.267272 0,-0.601358 0.26727,-0.334087 0.86862,-0.133633 0.86862,-0.133633 l 8.01809,0.935442 c 0,0 0.31892,0.02362 0.5423,0.216318 0.19199,0.347576 -0.1414,0.652309 -0.1414,0.652309 l -5.14493,6.882188 c 0,0 -0.11693,0.334089 -0.56796,0.200454 -0.46771,-0.03341 -0.43431,-0.668174 -0.43431,-0.668174 l -0.26727,-2.004523 -0.20045,-0.400904 C 162.86737,33.843 162.2326,34.2105 162.2326,34.2105 l -8.61944,4.009041 c 0,0 -1.5368,1.002263 -2.13816,1.804069 -0.60135,0.801809 -1.33635,3.875411 -1.33635,3.875411 V 56.39387 Z"
       style="fill:#000000;stroke:#000000;stroke-width:0.264583px;stroke-linecap:butt;stroke-linejoin:miter;stroke-opacity:1" />
    <circle
       r="6.953886"
       cy="1053.7146"
       cx="910.50531"
       id="path1016"
       style="fill:#ff0000;fill-opacity:1;fill-rule:evenodd;stroke:none;stroke-width:2.4203;stroke-linecap:round;stroke-dashoffset:11.3386;stop-color:#000000"
       transform="translate(-761.63617,-1035.8076)" />
    <path
       d="m 144.45917,16.437077 h 8.68626 v 2.80633 h -8.68626 z"
       style="fill:#ffd700;fill-opacity:1;fill-rule:evenodd;stroke:none;stroke-width:2;stroke-linecap:round;stroke-dashoffset:11.3386;stop-color:#000000"
       id="rect1021" />
    <g
       style="font-style:normal;font-variant:normal;font-weight:900;font-stretch:normal;font-size:7.83772px;line-height:1.25;font-family:Transport;-inkscape-font-specification:'Transport Heavy Normal';font-variant-ligatures:normal;font-variant-caps:normal;font-variant-numeric:normal;font-variant-east-asian:normal;stroke:#000000;stroke-width:0.232316"
       id="text1025"
       aria-label="DESVIO
CADIZ">
      <path
         id="path899"
         style="font-style:normal;font-variant:normal;font-weight:900;font-stretch:normal;font-size:7.83772px;font-family:Transport;-inkscape-font-specification:'Transport Heavy Normal';font-variant-ligatures:normal;font-variant-caps:normal;font-variant-numeric:normal;font-variant-east-asian:normal;text-align:end;text-anchor:end;stroke:#000000;stroke-width:0.232316"
         d="m 169.81293,20.018311 h 2.15844 l 0.0459,0.01531 h 0.0459 l 0.0306,-0.01531 h 0.0612 l 0.0612,0.01531 h 0.0459 l 0.24493,0.01531 0.0765,0.01531 0.0612,0.01531 0.0306,0.01531 0.12246,0.03062 0.22962,0.07654 0.15308,0.09185 0.0459,0.01531 q 0.0804,0.03827 0.12246,0.07654 0.0268,0.01531 0.0306,0.03062 0.1416,0.07654 0.21431,0.137773 0.9912,1.071563 0.9912,2.365093 0,0.133945 -0.0115,0.271718 -0.008,0.133945 -0.0306,0.271718 -0.45924,2.411017 -2.64446,2.411017 -0.0574,0 -0.11481,0 -0.0574,-0.0038 -0.11864,-0.0077 h -1.85228 z m 1.01034,4.944499 h 1.19402 l 0.0459,-0.01531 h 0.0459 l 0.24493,-0.03062 0.12246,-0.03062 q 0.0651,-0.0421 0.1263,-0.06506 0.0651,-0.02679 0.11863,-0.0421 0.0153,-0.02679 0.0306,-0.03062 l 0.0459,-0.01531 0.0153,-0.03062 0.0459,-0.01531 0.0153,-0.03062 0.0459,-0.01531 q 0.0498,-0.07271 0.10715,-0.107156 0.0727,-0.0995 0.15308,-0.168389 0.39801,-0.738613 0.39801,-1.458091 v -0.0574 q -0.0536,-1.224644 -0.93379,-1.791042 h -0.0459 q -0.0651,-0.0421 -0.13012,-0.06123 -0.0612,-0.01913 -0.11481,-0.03062 l -0.0765,-0.01531 -0.199,-0.03062 h -1.25526 z" />
      <path
         id="path901"
         style="font-style:normal;font-variant:normal;font-weight:900;font-stretch:normal;font-size:7.83772px;font-family:Transport;-inkscape-font-specification:'Transport Heavy Normal';font-variant-ligatures:normal;font-variant-caps:normal;font-variant-numeric:normal;font-variant-east-asian:normal;text-align:end;text-anchor:end;stroke:#000000;stroke-width:0.232316"
         d="m 176.16577,20.018311 h 3.67394 v 0.918483 h -2.6636 v 1.469572 q 0.004,0.06123 0.0574,0.06123 h 2.37657 v 0.903174 h -2.43397 v 1.530805 q 0,0.07654 0.0612,0.07654 h 2.77075 v 0.903175 h -3.84232 z" />
      <path
         id="path903"
         style="font-style:normal;font-variant:normal;font-weight:900;font-stretch:normal;font-size:7.83772px;font-family:Transport;-inkscape-font-specification:'Transport Heavy Normal';font-variant-ligatures:normal;font-variant-caps:normal;font-variant-numeric:normal;font-variant-east-asian:normal;text-align:end;text-anchor:end;stroke:#000000;stroke-width:0.232316"
         d="m 185.52282,20.875562 -0.0765,0.04592 q -0.0383,0.0421 -0.0727,0.07271 -0.0344,0.03062 -0.0651,0.04975 l -0.0765,0.07654 -0.0459,0.01531 q -0.0727,0.09185 -0.15308,0.122464 -0.0727,0.0995 -0.1837,0.15308 -0.0459,0.06123 -0.0918,0.09185 -0.54344,-0.715652 -1.3318,-0.715652 -0.0842,0 -0.1837,0.01148 -0.70417,0.02296 -0.90318,0.612321 0,0.405664 0.24493,0.673554 l 0.10716,0.06123 0.0459,0.01531 0.16839,0.07654 h 0.0765 l 0.0612,0.01531 0.0765,0.01531 q 0.088,0.03444 0.15308,0.04592 l 0.12247,0.03062 h 0.0459 l 0.50517,0.122465 h 0.0459 l 0.0459,0.01531 h 0.0459 l 0.0459,0.01531 0.21431,0.04592 0.0459,0.01531 0.0612,0.01531 0.12247,0.04592 q 0.19518,0.04975 0.32147,0.122464 l 0.0306,0.03062 0.0459,0.01531 0.0306,0.04592 q 0.0574,0.03062 0.0918,0.06123 0.0268,0.01531 0.0306,0.03062 l 0.18369,0.168389 q 0.32147,0.474549 0.32147,0.968233 0,0.260237 -0.0918,0.531955 -0.25259,0.861078 -0.97972,1.194028 -0.0957,0.06123 -0.1837,0.09185 -0.22962,0.04592 -0.44393,0.06889 -0.21431,0.01914 -0.42097,0.01914 -1.44278,0 -2.3804,-1.11366 l 0.0153,-0.03062 0.0306,-0.01531 q 0.0153,-0.01531 0.0268,-0.01531 h 0.004 q 0.0842,-0.0995 0.18369,-0.153081 l 0.0459,-0.04592 0.1837,-0.15308 0.0306,-0.01531 q 0.0153,-0.01531 0.0268,-0.01531 h 0.004 q 0.0612,-0.06506 0.11864,-0.114811 0.0574,-0.05358 0.11098,-0.08419 h 0.0459 q 0.65059,0.849597 1.4734,0.849597 0.43245,0 0.89935,-0.221967 0.088,-0.0995 0.16839,-0.153081 l 0.0153,-0.04592 q 0.088,-0.122464 0.12246,-0.244929 0.004,-0.02679 0.004,-0.04975 0,-0.02296 0,-0.04592 0,-0.440106 -0.34061,-0.685035 l -0.0459,-0.01531 q -0.0842,-0.03444 -0.15308,-0.04592 l -0.0306,-0.03062 h -0.0459 l -0.0612,-0.01531 -0.0306,-0.01531 h -0.0459 l -0.0306,-0.01531 q -0.14925,-0.02296 -0.24493,-0.06123 h -0.0459 l -0.12247,-0.03062 h -0.0459 l -0.0612,-0.01531 -0.0306,-0.01531 q -0.14925,-0.02296 -0.24493,-0.06123 -1.5308,-0.176042 -1.69919,-1.576729 0.0344,-1.66475 1.82166,-1.821657 0.088,-0.0077 0.17221,-0.01148 0.0842,-0.0038 0.16456,-0.0038 1.32415,0 2.00536,0.995023 z" />
      <path
         id="path905"
         style="font-style:normal;font-variant:normal;font-weight:900;font-stretch:normal;font-size:7.83772px;font-family:Transport;-inkscape-font-specification:'Transport Heavy Normal';font-variant-ligatures:normal;font-variant-caps:normal;font-variant-numeric:normal;font-variant-east-asian:normal;text-align:end;text-anchor:end;stroke:#000000;stroke-width:0.232316"
         d="m 186.65561,20.018311 h 1.01033 l 0.0306,0.107156 0.0306,0.122465 q 0.0153,0.02679 0.0191,0.05358 0.008,0.02679 0.0115,0.05358 l 0.0459,0.107156 0.0153,0.06123 0.0153,0.04592 0.0153,0.06123 0.0153,0.04592 0.0153,0.06123 0.13777,0.489858 0.0918,0.260237 0.0612,0.214312 0.0153,0.06123 v 0.04593 l 0.0306,0.06123 0.0153,0.09185 q 0.0153,0.01148 0.0153,0.02296 v 0.0077 l 0.0153,0.03062 v 0.04592 q 0.0536,0.114811 0.0765,0.199005 l 0.0153,0.107156 q 0.0651,0.1416 0.0765,0.260237 0.0268,0.04592 0.0306,0.07654 l 0.0153,0.07654 q 0.0153,0.01913 0.0153,0.04592 0.0383,0.09185 0.0459,0.168388 0.0574,0.110984 0.0612,0.199005 0.0191,0.03062 0.0306,0.107156 0.0421,0.103329 0.0689,0.195178 0.0306,0.09185 0.0383,0.172215 l 0.0306,0.04592 0.0459,0.214313 0.0306,0.04592 v 0.06123 l 0.0306,0.04593 v 0.04592 q 0.0421,0.107156 0.0689,0.199004 0.0306,0.09185 0.0383,0.168389 l 0.0306,-0.06123 q 0.0268,-0.133946 0.0765,-0.244929 v -0.04592 l 0.0153,-0.04592 0.0153,-0.03062 0.0612,-0.214313 0.0459,-0.137773 0.0153,-0.07654 0.0153,-0.04592 0.0153,-0.07654 0.0306,-0.09185 0.0153,-0.03062 0.0612,-0.214312 0.0306,-0.122465 0.0306,-0.06123 v -0.04592 l 0.0306,-0.06123 q 0.0268,-0.122464 0.0536,-0.221967 0.0306,-0.0995 0.0689,-0.176042 l 0.0306,-0.107157 0.0459,-0.214312 0.0306,-0.06123 0.0153,-0.04593 v -0.04592 l 0.0306,-0.06123 q 0.0268,-0.141599 0.0765,-0.244929 l 0.0153,-0.107156 0.0306,-0.07654 0.0153,-0.03062 q 0.008,-0.0421 0.0153,-0.06123 l 0.0153,-0.04592 v -0.04592 q 0.0689,-0.172215 0.0918,-0.290853 l 0.0153,-0.04592 0.0612,-0.214312 0.0306,-0.122465 0.12247,-0.367393 q 0.0115,-0.08419 0.0459,-0.15308 l 0.0306,-0.137773 h 1.01033 l -0.0153,0.107156 -0.0459,0.137773 -0.0612,0.214313 -0.0306,0.122464 -0.0306,0.107156 -0.0459,0.107157 -0.0612,0.244928 -0.0459,0.137773 -0.0612,0.214312 -0.0306,0.122465 -0.0306,0.107156 -0.0153,0.04592 -0.0153,0.03062 -0.0306,0.122465 -0.0306,0.107156 -0.0153,0.03062 -0.0459,0.137773 v 0.04592 q -0.0727,0.172215 -0.0919,0.306161 l -0.0459,0.107156 q -0.0344,0.179869 -0.0918,0.306161 v 0.04592 l -0.0306,0.107156 -0.0153,0.04592 -0.0153,0.03062 -0.0612,0.244928 -0.0306,0.06123 q -0.0268,0.1416 -0.0765,0.244929 l -0.0459,0.214313 -0.0306,0.06123 -0.0153,0.04592 -0.0153,0.07654 -0.0153,0.03062 q -0.0268,0.141599 -0.0765,0.244928 l -0.0153,0.09185 -0.0306,0.07654 -0.0153,0.07654 -0.0306,0.06123 q -0.023,0.149254 -0.0612,0.244929 l -0.0765,0.260237 -0.0459,0.168388 -0.0153,0.06123 -0.0153,0.04593 -0.0153,0.06123 -0.0459,0.107156 -0.0153,0.09185 -0.0612,0.183697 h -1.23996 q -0.0383,-0.110983 -0.0459,-0.183697 -0.0459,-0.08037 -0.0459,-0.15308 l -0.0306,-0.04592 -0.0459,-0.214313 q -0.0421,-0.06506 -0.0459,-0.122464 l -0.0306,-0.09185 q -0.0153,-0.0421 -0.0191,-0.08037 -0.004,-0.03827 -0.0115,-0.07271 -0.0268,-0.06123 -0.0459,-0.110983 -0.0191,-0.05358 -0.0306,-0.10333 l -0.0612,-0.244928 -0.0459,-0.107157 -0.0306,-0.107156 V 24.1821 q -0.0765,-0.17987 -0.0918,-0.306161 -0.0689,-0.172216 -0.0918,-0.290853 l -0.0153,-0.07654 -0.0612,-0.153081 v -0.04592 l -0.0153,-0.03062 -0.0765,-0.244929 v -0.04592 q -0.0268,-0.06123 -0.0421,-0.110983 -0.0153,-0.05358 -0.0191,-0.103329 -0.0153,-0.01914 -0.0153,-0.04593 l -0.0918,-0.260236 -0.0153,-0.107157 -0.0459,-0.107156 v -0.04592 q -0.0306,-0.0574 -0.0498,-0.114811 -0.0153,-0.0574 -0.0268,-0.11481 l -0.0153,-0.07654 q -0.0153,-0.01914 -0.0153,-0.04592 l -0.0153,-0.04592 q -0.0421,-0.0995 -0.0459,-0.168389 l -0.0612,-0.15308 -0.0153,-0.09185 -0.0306,-0.09185 -0.0306,-0.07654 v -0.06123 q -0.0268,-0.04593 -0.0306,-0.07654 l -0.0153,-0.06123 -0.0306,-0.07654 q -0.0268,-0.141599 -0.0765,-0.244929 v -0.06123 q -0.0153,-0.01914 -0.0153,-0.04592 -0.0383,-0.08419 -0.0459,-0.153081 -0.0383,-0.08419 -0.0459,-0.168388 -0.0727,-0.1416 -0.0765,-0.260237 z" />
      <path
         id="path907"
         style="font-style:normal;font-variant:normal;font-weight:900;font-stretch:normal;font-size:7.83772px;font-family:Transport;-inkscape-font-specification:'Transport Heavy Normal';font-variant-ligatures:normal;font-variant-caps:normal;font-variant-numeric:normal;font-variant-east-asian:normal;text-align:end;text-anchor:end;stroke:#000000;stroke-width:0.232316"
         d="m 192.7176,20.033619 h 1.01033 v 5.847674 h -1.01033 z" />
      <path
         id="path909"
         style="font-style:normal;font-variant:normal;font-weight:900;font-stretch:normal;font-size:7.83772px;font-family:Transport;-inkscape-font-specification:'Transport Heavy Normal';font-variant-ligatures:normal;font-variant-caps:normal;font-variant-numeric:normal;font-variant-east-asian:normal;text-align:end;text-anchor:end;stroke:#000000;stroke-width:0.232316"
         d="m 197.88789,19.834615 h 0.29086 l 0.0612,0.01531 h 0.0459 q 0.11864,0 0.1837,0.01531 h 0.0918 q 0.14925,0.04592 0.26789,0.04592 h 0.023 q 1.83697,0.70417 1.91351,2.786064 0.004,0.07654 0.008,0.156908 0.004,0.07654 0.004,0.15308 0,2.032143 -1.66475,2.84347 -0.6085,0.206659 -1.14811,0.206659 -1.04477,0 -1.85227,-0.788365 -0.73861,-0.891694 -0.7654,-1.928814 -0.0153,-0.04592 -0.0153,-0.107156 0,-0.08037 -0.0153,-0.122464 v -0.229621 l 0.0153,-0.137773 v -0.214312 l 0.0153,-0.06123 v -0.04593 l 0.0153,-0.04592 q 0.0115,-0.233447 0.0765,-0.413317 0.50899,-2.005354 2.44928,-2.127818 z m -1.54611,3.505542 q 0.088,1.239952 1.07156,1.683885 0.0421,0.0077 0.0612,0.01531 l 0.3827,0.09185 q 1.8561,-0.0421 1.88289,-1.974738 0.0115,-0.168389 0.0115,-0.325296 0,-2.093376 -1.92499,-2.093376 -1.50784,0.29468 -1.50784,2.120165 0,0.22962 0.023,0.482203 z" />
      <path
         id="path911"
         style="font-style:normal;font-variant:normal;font-weight:900;font-stretch:normal;font-size:7.83772px;font-family:Transport;-inkscape-font-specification:'Transport Heavy Normal';font-variant-ligatures:normal;font-variant-caps:normal;font-variant-numeric:normal;font-variant-east-asian:normal;text-align:end;text-anchor:end;stroke:#000000;stroke-width:0.232316"
         d="m 180.71992,31.407498 q -0.0153,0.02679 -0.0459,0.04592 l -0.0765,0.01531 -0.0612,0.01531 h -0.0612 q -0.0344,0.01531 -0.0765,0.01531 -0.0804,0.03062 -0.13777,0.03062 h -0.0153 q -0.0191,0.01531 -0.0459,0.01531 l -0.0612,0.01531 -0.10715,0.01531 -0.0306,0.01531 -0.24493,0.04592 q -0.41332,-1.090699 -1.41217,-1.090699 -0.23344,0 -0.51664,0.06506 -0.0191,0.01531 -0.0459,0.01531 l -0.10715,0.04593 q -0.0804,0.0421 -0.15308,0.06123 -0.0153,0.02679 -0.0306,0.03062 l -0.0459,0.01531 -0.0459,0.03062 -0.0306,0.03062 -0.0459,0.01531 q -0.0727,0.07271 -0.13394,0.126292 -0.0574,0.05358 -0.11099,0.08802 l -0.0153,0.04592 -0.0765,0.07654 -0.0153,0.04592 -0.0306,0.01531 q -0.0536,0.137773 -0.12246,0.229621 -0.19518,0.654419 -0.19518,1.266741 0,0.48603 0.11864,0.937618 0.30233,1.136622 1.42364,1.239952 h 0.0153 q 1.22847,0 1.57673,-1.086872 l 0.0765,0.01531 q 0.0459,0.01531 0.088,0.02296 0.0421,0.0038 0.0804,0.0077 l 0.0306,0.01531 0.24492,0.04592 0.0612,0.01531 0.10715,0.01531 0.27555,0.06123 q -0.54344,1.634134 -2.14313,1.791041 -0.0651,0.0077 -0.13394,0.0077 -0.0651,0 -0.13012,0 -1.5155,0 -2.26177,-1.247605 -0.45924,-0.949099 -0.45924,-1.867582 0,-0.631457 0.21431,-1.25526 0.58171,-1.641788 2.18906,-1.821657 0.0459,-0.0038 0.088,-0.0038 0.0459,0 0.088,0 1.96326,0 2.54879,1.764253 z" />
      <path
         id="path913"
         style="font-style:normal;font-variant:normal;font-weight:900;font-stretch:normal;font-size:7.83772px;font-family:Transport;-inkscape-font-specification:'Transport Heavy Normal';font-variant-ligatures:normal;font-variant-caps:normal;font-variant-numeric:normal;font-variant-east-asian:normal;text-align:end;text-anchor:end;stroke:#000000;stroke-width:0.232316"
         d="m 183.39117,29.815461 h 1.23995 l 0.0306,0.122464 q 0.0153,0.02679 0.0191,0.05358 0.008,0.02679 0.0115,0.05358 l 0.0306,0.06123 0.0459,0.15308 0.0153,0.03062 0.0153,0.06123 0.0153,0.04592 0.0153,0.06123 0.0459,0.107156 0.0153,0.03062 v 0.04593 q 0.0306,0.05358 0.0459,0.107156 0.0191,0.04975 0.0306,0.09185 l 0.0153,0.06123 0.0153,0.03062 v 0.04593 q 0.0306,0.05358 0.0459,0.107156 0.0191,0.04975 0.0306,0.09185 l 0.0306,0.122465 q 0.0574,0.0995 0.0612,0.183696 l 0.0459,0.107156 0.0306,0.122465 0.0306,0.107156 q 0.0153,0.01914 0.0153,0.04592 l 0.0306,0.04592 0.0153,0.06123 q 0.008,0.03827 0.023,0.06889 0.0153,0.03062 0.023,0.05358 v 0.04592 q 0.0765,0.1416 0.0918,0.275545 0.0268,0.04975 0.0306,0.09185 0.0268,0.04975 0.0306,0.09185 l 0.0612,0.183696 0.0153,0.03062 0.0153,0.06123 0.0153,0.04592 0.0153,0.06123 0.0459,0.107156 0.0153,0.03062 v 0.04592 q 0.0306,0.05358 0.0498,0.107157 0.0191,0.04975 0.0268,0.09185 l 0.0153,0.09185 q 0.0612,0.118637 0.0765,0.214313 0.0727,0.164561 0.0918,0.290853 0.0268,0.04975 0.0306,0.09185 l 0.0459,0.09185 0.0306,0.09185 q 0.0191,0.09185 0.0459,0.15308 l 0.0306,0.137772 0.0459,0.09185 0.0306,0.137772 0.0306,0.06123 0.0153,0.06123 q 0.0421,0.0995 0.0689,0.187524 0.0268,0.08802 0.0383,0.164562 l 0.0306,0.04592 v 0.04592 q 0.0153,0.01913 0.0153,0.04592 0.0421,0.06506 0.0459,0.122464 0.0498,0.107157 0.0612,0.183697 h -1.01033 l -0.0153,-0.06123 -0.0306,-0.06123 -0.0153,-0.09185 q -0.0153,-0.01913 -0.0153,-0.04592 -0.0727,-0.145426 -0.0918,-0.275545 l -0.0306,-0.04592 -0.0153,-0.06123 q -0.008,-0.03827 -0.023,-0.06889 -0.0115,-0.03062 -0.023,-0.05358 v -0.04592 q -0.0727,-0.145426 -0.0918,-0.275544 h -2.32682 l -0.0153,0.06123 -0.0306,0.06123 -0.0153,0.07654 -0.0153,0.06123 q -0.0191,0.0421 -0.0383,0.0842 -0.0153,0.0421 -0.023,0.08419 l -0.0153,0.04592 -0.0306,0.06123 q -0.008,0.0421 -0.0153,0.06123 l -0.0153,0.06123 -0.0153,0.04592 -0.0153,0.03062 -0.10715,0.352085 h -1.01034 v -0.04592 l 0.0306,-0.09185 0.0153,-0.06123 q 0.0344,-0.07654 0.0459,-0.122464 l 0.0153,-0.03062 0.0306,-0.122465 0.0306,-0.107156 0.0918,-0.260237 0.0459,-0.15308 0.0306,-0.09185 q 0.0344,-0.07654 0.0459,-0.122465 l 0.0612,-0.183696 0.12246,-0.382702 0.0918,-0.290852 q 0.0383,-0.0842 0.0574,-0.153081 0.0191,-0.06889 0.0344,-0.122464 l 0.0153,-0.06123 0.0306,-0.04593 q 0.0115,-0.08802 0.0459,-0.168388 l 0.0306,-0.09185 0.0153,-0.06123 q 0.0344,-0.07654 0.0459,-0.122464 l 0.0153,-0.03062 0.0306,-0.122464 0.0306,-0.107157 0.0459,-0.107156 0.0459,-0.153081 0.0459,-0.137772 0.0153,-0.03062 0.0918,-0.290853 0.0153,-0.06123 0.12247,-0.382701 q 0.0497,-0.10333 0.0612,-0.183697 l 0.16839,-0.474549 v -0.04592 l 0.0306,-0.07654 0.0153,-0.04592 0.0153,-0.06123 0.0306,-0.06123 0.0153,-0.04592 0.0153,-0.06123 0.0153,-0.04593 0.0153,-0.06123 0.0459,-0.107156 0.0459,-0.183697 z m 0.61232,1.285876 -0.0918,0.260237 -0.0306,0.107156 -0.0459,0.107156 -0.0153,0.09185 -0.0306,0.09185 -0.0459,0.09185 -0.0153,0.09185 -0.0459,0.09185 v 0.04592 l -0.0306,0.04592 q -0.0383,0.199005 -0.0918,0.321469 l -0.0153,0.06123 -0.0306,0.07654 -0.0919,0.260237 -0.0459,0.168389 -0.0306,0.07654 -0.0153,0.06123 -0.0306,0.07654 -0.0153,0.06123 -0.0459,0.137772 -0.0153,0.03062 q -0.0459,0.176043 -0.0918,0.275545 h 1.76042 l -0.0306,-0.122464 -0.0459,-0.107157 -0.0306,-0.107156 -0.0459,-0.107156 -0.0765,-0.260237 -0.0306,-0.122465 -0.0459,-0.107156 -0.0153,-0.07654 q -0.0268,-0.04592 -0.0306,-0.07654 l -0.0765,-0.214313 -0.0153,-0.06123 -0.0306,-0.06123 v -0.04593 l -0.0918,-0.244928 -0.0153,-0.09185 q -0.0268,-0.04975 -0.0306,-0.09185 l -0.0459,-0.09185 -0.0306,-0.137773 q -0.0153,-0.01913 -0.0153,-0.04592 -0.0153,-0.01913 -0.0153,-0.04592 l -0.0306,-0.04592 v -0.04592 q -0.0383,-0.08419 -0.0459,-0.153081 -0.008,-0.0077 -0.0115,-0.01148 -0.004,-0.0077 -0.004,-0.01531 v -0.0038 l -0.0765,-0.183696 z" />
      <path
         id="path915"
         style="font-style:normal;font-variant:normal;font-weight:900;font-stretch:normal;font-size:7.83772px;font-family:Transport;-inkscape-font-specification:'Transport Heavy Normal';font-variant-ligatures:normal;font-variant-caps:normal;font-variant-numeric:normal;font-variant-east-asian:normal;text-align:end;text-anchor:end;stroke:#000000;stroke-width:0.232316"
         d="m 187.89174,29.815461 h 2.15843 l 0.0459,0.01531 h 0.0459 l 0.0306,-0.01531 h 0.0612 l 0.0612,0.01531 h 0.0459 l 0.24492,0.01531 0.0765,0.01531 0.0612,0.01531 0.0306,0.01531 0.12247,0.03062 0.22962,0.07654 0.15308,0.09185 0.0459,0.01531 q 0.0804,0.03827 0.12247,0.07654 0.0268,0.01531 0.0306,0.03062 0.1416,0.07654 0.21432,0.137773 0.99119,1.071563 0.99119,2.365093 0,0.133945 -0.0115,0.271718 -0.008,0.133945 -0.0306,0.271718 -0.45924,2.411017 -2.64446,2.411017 -0.0574,0 -0.11481,0 -0.0574,-0.0038 -0.11864,-0.0077 h -1.85227 z m 1.01033,4.944499 h 1.19403 l 0.0459,-0.01531 h 0.0459 l 0.24493,-0.03062 0.12247,-0.03062 q 0.0651,-0.0421 0.12629,-0.06506 0.0651,-0.02679 0.11864,-0.0421 0.0153,-0.02679 0.0306,-0.03062 l 0.0459,-0.01531 0.0153,-0.03062 0.0459,-0.01531 0.0153,-0.03062 0.0459,-0.01531 q 0.0498,-0.07271 0.10716,-0.107156 0.0727,-0.0995 0.15308,-0.168389 0.39801,-0.738613 0.39801,-1.458091 v -0.05741 q -0.0536,-1.224644 -0.93379,-1.791042 h -0.0459 q -0.0651,-0.0421 -0.13012,-0.06123 -0.0612,-0.01914 -0.11481,-0.03062 l -0.0765,-0.01531 -0.199,-0.03062 h -1.25526 z" />
      <path
         id="path917"
         style="font-style:normal;font-variant:normal;font-weight:900;font-stretch:normal;font-size:7.83772px;font-family:Transport;-inkscape-font-specification:'Transport Heavy Normal';font-variant-ligatures:normal;font-variant-caps:normal;font-variant-numeric:normal;font-variant-east-asian:normal;text-align:end;text-anchor:end;stroke:#000000;stroke-width:0.232316"
         d="m 194.2484,29.830769 h 1.01033 v 5.847674 h -1.01033 z" />
      <path
         id="path919"
         style="font-style:normal;font-variant:normal;font-weight:900;font-stretch:normal;font-size:7.83772px;font-family:Transport;-inkscape-font-specification:'Transport Heavy Normal';font-variant-ligatures:normal;font-variant-caps:normal;font-variant-numeric:normal;font-variant-east-asian:normal;text-align:end;text-anchor:end;stroke:#000000;stroke-width:0.232316"
         d="m 196.74362,29.815461 h 3.90355 v 0.918483 l -0.0765,0.09185 -0.0459,0.09185 -0.0459,0.04593 -0.0306,0.06123 -0.0306,0.03062 -0.0918,0.137772 q -0.0612,0.107157 -0.12247,0.183697 l -0.0765,0.122464 -0.0153,0.03062 -0.0612,0.07654 -0.0765,0.09185 -0.0306,0.06123 -0.0306,0.04592 -0.0306,0.06123 q -0.0612,0.06123 -0.0918,0.122465 l -0.0306,0.04592 q -0.0268,0.03827 -0.0459,0.06889 -0.0191,0.02679 -0.0306,0.05358 -0.12629,0.156908 -0.16839,0.244929 l -0.0765,0.09185 -0.0612,0.107157 -0.0765,0.09185 -0.0612,0.09185 -0.0459,0.09185 -0.12246,0.153081 -0.0459,0.09185 -0.0306,0.03062 -0.0306,0.04592 q -0.0153,0.02679 -0.0306,0.03062 l -0.19901,0.321469 -0.0459,0.04593 -0.0153,0.03062 q -0.0268,0.03827 -0.0459,0.06889 -0.0191,0.02679 -0.0306,0.05358 -0.0918,0.107156 -0.12247,0.183697 l -0.0459,0.04592 -0.0612,0.09185 -0.16839,0.260237 -0.0306,0.03062 -0.0306,0.04592 q -0.0153,0.02679 -0.0306,0.03062 l -0.199,0.321469 h 2.74014 v 0.903175 h -3.98009 v -0.918483 l 0.0459,-0.06123 0.0306,-0.04592 0.0153,-0.03062 0.0306,-0.04592 0.0306,-0.03062 q 0.0153,-0.02679 0.0306,-0.03062 0.0574,-0.133945 0.13777,-0.214312 l 0.0918,-0.137773 0.29086,-0.443933 0.15308,-0.199005 0.0459,-0.09185 0.0306,-0.04592 0.15308,-0.199005 q 0.0306,-0.05741 0.0612,-0.09185 0.0497,-0.103329 0.10716,-0.15308 0.0306,-0.08037 0.0765,-0.137773 l 0.0612,-0.09185 0.0306,-0.03062 0.0765,-0.122465 0.0153,-0.03062 0.0612,-0.07654 0.0918,-0.137772 q 0.088,-0.118638 0.13777,-0.214313 l 0.0612,-0.07654 0.15308,-0.229621 0.0459,-0.07654 0.0459,-0.04592 q 0.0306,-0.04975 0.0536,-0.08802 0.0268,-0.03827 0.0536,-0.06506 l 0.0612,-0.09185 0.0459,-0.06123 0.0306,-0.04592 0.0153,-0.04593 0.0306,-0.03062 0.0306,-0.06123 0.0306,-0.01531 q 0.0612,-0.122464 0.10716,-0.183696 l 0.0306,-0.03062 0.13778,-0.214312 h -2.6636 z" />
    </g>
    <path
       inkscape:connector-curvature="0"
       id="path1029"
       d="m 183.84802,28.998743 0.70159,-0.935442 h 0.73499 l -1.00226,0.968851 z"
       style="fill:#000000;stroke:#000000;stroke-width:0.264583px;stroke-linecap:butt;stroke-linejoin:miter;stroke-opacity:1" />
    <path
       style="fill:#000000;stroke:#000000;stroke-width:0.264583px;stroke-linecap:butt;stroke-linejoin:miter;stroke-opacity:1"
       d="m 193.14737,19.090979 0.70159,-0.935442 h 0.73499 l -1.00226,0.968851 z"
       id="path1029-3"
       inkscape:connector-curvature="0" />
  </g>
  <g
     style="display:inline;opacity:0.434084"
     inkscape:label="calco"
     id="layer1"
     inkscape:groupmode="layer"
     transform="translate(-134.88104,-2.8791352)" />
</svg>
