<?xml version="1.0" encoding="UTF-8" standalone="no"?>
<svg
   xmlns:dc="http://purl.org/dc/elements/1.1/"
   xmlns:cc="http://creativecommons.org/ns#"
   xmlns:rdf="http://www.w3.org/1999/02/22-rdf-syntax-ns#"
   xmlns:svg="http://www.w3.org/2000/svg"
   xmlns="http://www.w3.org/2000/svg"
   xmlns:sodipodi="http://sodipodi.sourceforge.net/DTD/sodipodi-0.dtd"
   xmlns:inkscape="http://www.inkscape.org/namespaces/inkscape"
   sodipodi:docname="Señal_TS-210b.svg"
   inkscape:version="1.0beta1 (76ce730, 2019-10-19)"
   id="svg8"
   version="1.1"
   viewBox="0 0 74.092179 55.026189"
   height="55.026188mm"
   width="74.092178mm">
  <defs
     id="defs2">
    <inkscape:path-effect
       end_linecap_type="zerowidth"
       scale_width="1"
       miter_limit="4"
       linejoin_type="extrp_arc"
       start_linecap_type="zerowidth"
       interpolator_beta="0.2"
       interpolator_type="CubicBezierJohan"
       sort_points="true"
       offset_points="1,0.1322915"
       is_visible="true"
       id="path-effect1382"
       effect="powerstroke" />
    <inkscape:path-effect
       end_linecap_type="zerowidth"
       scale_width="1"
       miter_limit="4"
       linejoin_type="extrp_arc"
       start_linecap_type="zerowidth"
       interpolator_beta="0.2"
       interpolator_type="CubicBezierJohan"
       sort_points="true"
       offset_points="1,0.1322915"
       is_visible="true"
       id="path-effect1378"
       effect="powerstroke" />
    <inkscape:path-effect
       end_linecap_type="zerowidth"
       scale_width="1"
       miter_limit="4"
       linejoin_type="extrp_arc"
       start_linecap_type="zerowidth"
       interpolator_beta="0.2"
       interpolator_type="CubicBezierJohan"
       sort_points="true"
       offset_points="1,0.1322915"
       is_visible="true"
       id="path-effect1374"
       effect="powerstroke" />
    <inkscape:path-effect
       end_linecap_type="zerowidth"
       scale_width="1"
       miter_limit="4"
       linejoin_type="extrp_arc"
       start_linecap_type="zerowidth"
       interpolator_beta="0.2"
       interpolator_type="CubicBezierJohan"
       sort_points="true"
       offset_points="1,0.1322915"
       is_visible="true"
       id="path-effect1370"
       effect="powerstroke" />
    <inkscape:path-effect
       end_linecap_type="zerowidth"
       scale_width="1"
       miter_limit="4"
       linejoin_type="extrp_arc"
       start_linecap_type="zerowidth"
       interpolator_beta="0.2"
       interpolator_type="CubicBezierJohan"
       sort_points="true"
       offset_points="0,0.1322915"
       is_visible="true"
       id="path-effect1366"
       effect="powerstroke" />
    <inkscape:path-effect
       end_linecap_type="zerowidth"
       scale_width="1"
       miter_limit="4"
       linejoin_type="extrp_arc"
       start_linecap_type="zerowidth"
       interpolator_beta="0.2"
       interpolator_type="CubicBezierJohan"
       sort_points="true"
       offset_points="0,0.1322915"
       is_visible="true"
       id="path-effect1362"
       effect="powerstroke" />
    <inkscape:path-effect
       end_linecap_type="zerowidth"
       scale_width="1"
       miter_limit="4"
       linejoin_type="extrp_arc"
       start_linecap_type="zerowidth"
       interpolator_beta="0.2"
       interpolator_type="CubicBezierJohan"
       sort_points="true"
       offset_points="0,0.1322915"
       is_visible="true"
       id="path-effect1358"
       effect="powerstroke" />
    <inkscape:path-effect
       end_linecap_type="zerowidth"
       scale_width="1"
       miter_limit="4"
       linejoin_type="extrp_arc"
       start_linecap_type="zerowidth"
       interpolator_beta="0.2"
       interpolator_type="CubicBezierJohan"
       sort_points="true"
       offset_points="0,0.1322915"
       is_visible="true"
       id="path-effect1354"
       effect="powerstroke" />
    <inkscape:path-effect
       end_linecap_type="zerowidth"
       scale_width="1"
       miter_limit="4"
       linejoin_type="extrp_arc"
       start_linecap_type="zerowidth"
       interpolator_beta="0.2"
       interpolator_type="CubicBezierJohan"
       sort_points="true"
       offset_points="0,0.1322915"
       is_visible="true"
       id="path-effect1350"
       effect="powerstroke" />
    <inkscape:path-effect
       end_linecap_type="zerowidth"
       scale_width="1"
       miter_limit="4"
       linejoin_type="extrp_arc"
       start_linecap_type="zerowidth"
       interpolator_beta="0.2"
       interpolator_type="CubicBezierJohan"
       sort_points="true"
       offset_points="0,0.1322915"
       is_visible="true"
       id="path-effect1346"
       effect="powerstroke" />
    <inkscape:path-effect
       end_linecap_type="zerowidth"
       scale_width="1"
       miter_limit="4"
       linejoin_type="extrp_arc"
       start_linecap_type="zerowidth"
       interpolator_beta="0.2"
       interpolator_type="CubicBezierJohan"
       sort_points="true"
       offset_points="0,0.1322915"
       is_visible="true"
       id="path-effect1342"
       effect="powerstroke" />
    <inkscape:path-effect
       overflow_perspective="false"
       vertical_mirror="false"
       horizontal_mirror="false"
       deform_type="perspective"
       is_visible="true"
       id="path-effect31"
       down_right_point="68.791666,196.92559"
       down_left_point="30.238094,196.92559"
       up_right_point="68.791666,48.380951"
       up_left_point="28.54,48.380951"
       effect="perspective-envelope" />
    <inkscape:path-effect
       spray_tool_friendly="false"
       fixed_displacement="false"
       shift_nodes="true"
       handles="along"
       global_randomize="1.6;1"
       displace_y="10;1"
       displace_x="10;1"
       segments="2"
       max_segment_size="28"
       method="segments"
       is_visible="true"
       id="path-effect29"
       effect="roughen" />
    <filter
       id="filter99"
       inkscape:label="Ink Blot"
       height="1.3"
       y="-0.15000001"
       width="1.3"
       x="-0.15000001"
       style="color-interpolation-filters:sRGB">
      <feGaussianBlur
         id="feGaussianBlur89"
         result="blur1"
         stdDeviation="10 10"
         in="SourceGraphic" />
      <feTurbulence
         id="feTurbulence91"
         result="turbulence"
         seed="0"
         numOctaves="3"
         baseFrequency="0.04"
         type="fractalNoise" />
      <feDisplacementMap
         id="feDisplacementMap93"
         result="map"
         scale="50"
         yChannelSelector="G"
         xChannelSelector="R"
         in2="turbulence"
         in="blur1" />
      <feGaussianBlur
         id="feGaussianBlur95"
         result="blur2"
         stdDeviation="5"
         in="map" />
      <feComposite
         id="feComposite97"
         result="composite"
         operator="over"
         in2="map"
         in="blur2" />
    </filter>
    <filter
       style="color-interpolation-filters:sRGB"
       x="-0.15000001"
       width="1.3"
       y="-0.15000001"
       height="1.3"
       inkscape:label="Ink Blot"
       id="filter99-7">
      <feGaussianBlur
         in="SourceGraphic"
         stdDeviation="10 10"
         result="blur1"
         id="feGaussianBlur89-0" />
      <feTurbulence
         type="fractalNoise"
         baseFrequency="0.04"
         numOctaves="3"
         seed="0"
         result="turbulence"
         id="feTurbulence91-3" />
      <feDisplacementMap
         in="blur1"
         in2="turbulence"
         xChannelSelector="R"
         yChannelSelector="G"
         scale="50"
         result="map"
         id="feDisplacementMap93-9" />
      <feGaussianBlur
         in="map"
         stdDeviation="5"
         result="blur2"
         id="feGaussianBlur95-9" />
      <feComposite
         in="blur2"
         in2="map"
         operator="over"
         result="composite"
         id="feComposite97-9" />
    </filter>
    <filter
       id="filter1530"
       style="color-interpolation-filters:sRGB"
       inkscape:menu-tooltip="Detect color edges and retrace them in blue"
       inkscape:menu="Image Paint and Draw"
       inkscape:label="Blueprint">
      <feConvolveMatrix
         id="feConvolveMatrix1526"
         bias="0"
         result="result0"
         preserveAlpha="true"
         targetY="1"
         targetX="1"
         divisor="1"
         in="SourceGraphic"
         kernelMatrix="1 1 1 1 -8 1 1 1 1"
         order="3 3" />
      <feColorMatrix
         id="feColorMatrix1528"
         values="-0.15 -0.3 -0.05 0 1 -0.15 -0.3 -0.05 0 1 0 0 0 0 1 0 0 0 1 0"
         result="result3" />
    </filter>
    <filter
       id="filter1536"
       style="color-interpolation-filters:sRGB"
       inkscape:menu-tooltip="Detect color edges and retrace them in blue"
       inkscape:menu="Image Paint and Draw"
       inkscape:label="Blueprint">
      <feConvolveMatrix
         id="feConvolveMatrix1532"
         bias="0"
         result="result0"
         preserveAlpha="true"
         targetY="1"
         targetX="1"
         divisor="1"
         in="SourceGraphic"
         kernelMatrix="1 1 1 1 -8 1 1 1 1"
         order="3 3" />
      <feColorMatrix
         id="feColorMatrix1534"
         values="-0.15 -0.3 -0.05 0 1 -0.15 -0.3 -0.05 0 1 0 0 0 0 1 0 0 0 1 0"
         result="result3" />
    </filter>
    <filter
       id="filter1542"
       style="color-interpolation-filters:sRGB"
       inkscape:menu-tooltip="Detect color edges and retrace them in blue"
       inkscape:menu="Image Paint and Draw"
       inkscape:label="Blueprint">
      <feConvolveMatrix
         id="feConvolveMatrix1538"
         bias="0"
         result="result0"
         preserveAlpha="true"
         targetY="1"
         targetX="1"
         divisor="1"
         in="SourceGraphic"
         kernelMatrix="1 1 1 1 -8 1 1 1 1"
         order="3 3" />
      <feColorMatrix
         id="feColorMatrix1540"
         values="-0.15 -0.3 -0.05 0 1 -0.15 -0.3 -0.05 0 1 0 0 0 0 1 0 0 0 1 0"
         result="result3" />
    </filter>
    <filter
       id="filter1548"
       style="color-interpolation-filters:sRGB"
       inkscape:menu-tooltip="Detect color edges and retrace them in blue"
       inkscape:menu="Image Paint and Draw"
       inkscape:label="Blueprint">
      <feConvolveMatrix
         id="feConvolveMatrix1544"
         bias="0"
         result="result0"
         preserveAlpha="true"
         targetY="1"
         targetX="1"
         divisor="1"
         in="SourceGraphic"
         kernelMatrix="1 1 1 1 -8 1 1 1 1"
         order="3 3" />
      <feColorMatrix
         id="feColorMatrix1546"
         values="-0.15 -0.3 -0.05 0 1 -0.15 -0.3 -0.05 0 1 0 0 0 0 1 0 0 0 1 0"
         result="result3" />
    </filter>
    <filter
       id="filter1742"
       style="color-interpolation-filters:sRGB"
       inkscape:menu-tooltip="Detect color edges and retrace them in grayscale"
       inkscape:menu="Image Paint and Draw"
       inkscape:label="Pencil">
      <feConvolveMatrix
         id="feConvolveMatrix1738"
         order="3 3"
         kernelMatrix="1 1 1 1 -8 1 1 1 1"
         in="SourceGraphic"
         divisor="1"
         targetX="1"
         targetY="1"
         preserveAlpha="true"
         result="result0"
         bias="0" />
      <feColorMatrix
         id="feColorMatrix1740"
         result="result3"
         values="-0.15 -0.3 -0.05 0 1 -0.15 -0.3 -0.05 0 1 -0.15 -0.3 -0.05 0 1 0 0 0 1 0" />
    </filter>
    <filter
       id="filter1748"
       style="color-interpolation-filters:sRGB"
       inkscape:menu-tooltip="Detect color edges and retrace them in grayscale"
       inkscape:menu="Image Paint and Draw"
       inkscape:label="Pencil">
      <feConvolveMatrix
         id="feConvolveMatrix1744"
         order="3 3"
         kernelMatrix="1 1 1 1 -8 1 1 1 1"
         in="SourceGraphic"
         divisor="1"
         targetX="1"
         targetY="1"
         preserveAlpha="true"
         result="result0"
         bias="0" />
      <feColorMatrix
         id="feColorMatrix1746"
         result="result3"
         values="-0.15 -0.3 -0.05 0 1 -0.15 -0.3 -0.05 0 1 -0.15 -0.3 -0.05 0 1 0 0 0 1 0" />
    </filter>
    <filter
       id="filter1754"
       style="color-interpolation-filters:sRGB"
       inkscape:menu-tooltip="Detect color edges and retrace them in grayscale"
       inkscape:menu="Image Paint and Draw"
       inkscape:label="Pencil">
      <feConvolveMatrix
         id="feConvolveMatrix1750"
         order="3 3"
         kernelMatrix="1 1 1 1 -8 1 1 1 1"
         in="SourceGraphic"
         divisor="1"
         targetX="1"
         targetY="1"
         preserveAlpha="true"
         result="result0"
         bias="0" />
      <feColorMatrix
         id="feColorMatrix1752"
         result="result3"
         values="-0.15 -0.3 -0.05 0 1 -0.15 -0.3 -0.05 0 1 -0.15 -0.3 -0.05 0 1 0 0 0 1 0" />
    </filter>
    <filter
       id="filter1760"
       style="color-interpolation-filters:sRGB"
       inkscape:menu-tooltip="Detect color edges and retrace them in grayscale"
       inkscape:menu="Image Paint and Draw"
       inkscape:label="Pencil">
      <feConvolveMatrix
         id="feConvolveMatrix1756"
         order="3 3"
         kernelMatrix="1 1 1 1 -8 1 1 1 1"
         in="SourceGraphic"
         divisor="1"
         targetX="1"
         targetY="1"
         preserveAlpha="true"
         result="result0"
         bias="0" />
      <feColorMatrix
         id="feColorMatrix1758"
         result="result3"
         values="-0.15 -0.3 -0.05 0 1 -0.15 -0.3 -0.05 0 1 -0.15 -0.3 -0.05 0 1 0 0 0 1 0" />
    </filter>
  </defs>
  <sodipodi:namedview
     inkscape:window-maximized="0"
     inkscape:window-y="23"
     inkscape:window-x="0"
     inkscape:window-height="755"
     inkscape:window-width="1280"
     showguides="true"
     fit-margin-bottom="0"
     fit-margin-right="0"
     fit-margin-left="0"
     fit-margin-top="0"
     showgrid="false"
     inkscape:document-rotation="0"
     inkscape:current-layer="layer3"
     inkscape:document-units="mm"
     inkscape:cy="140.22047"
     inkscape:cx="135.41394"
     inkscape:zoom="0.98994949"
     inkscape:pageshadow="2"
     inkscape:pageopacity="0.0"
     borderopacity="1.0"
     bordercolor="#666666"
     pagecolor="#ffffff"
     id="base" />
  <metadata
     id="metadata5">
    <rdf:RDF>
      <cc:Work
         rdf:about="">
        <dc:format>image/svg+xml</dc:format>
        <dc:type
           rdf:resource="http://purl.org/dc/dcmitype/StillImage" />
        <dc:title />
      </cc:Work>
    </rdf:RDF>
  </metadata>
  <g
     transform="translate(-1018.6556,-1038.5326)"
     inkscape:groupmode="layer"
     id="layer2"
     inkscape:label="base"
     sodipodi:insensitive="true">
    <rect
       style="fill:#feca37;fill-opacity:1;fill-rule:evenodd;stroke:#000000;stroke-width:2;stroke-linecap:round;stroke-dashoffset:11.3386;stop-color:#000000"
       id="rect1011-5"
       width="72.092178"
       height="53.026188"
       x="1019.6556"
       y="1039.5326"
       ry="4.7246909"
       rx="4.7246909" />
  </g>
  <g
     style="display:inline"
     inkscape:label="flechas"
     id="layer3"
     inkscape:groupmode="layer"
     transform="translate(-257.01941,-2.7249928)">
    <path
       sodipodi:nodetypes="ccccccccccccccccccccccccc"
       inkscape:connector-curvature="0"
       d="m 278.09393,56.260235 c 0.037,-3.941555 0.21267,-7.892149 -0.0234,-11.829002 -0.5585,-2.931358 -1.5249,-5.785008 -2.67026,-8.536505 -0.74749,-1.549837 -1.35199,-3.196501 -2.31762,-4.624193 -1.04013,-0.152362 -1.48235,1.652755 -2.53908,1.603616 0.245,-2.605878 0.48999,-5.211755 0.73499,-7.817633 0.0165,-1.000042 0.97955,0.03796 1.47171,0.275743 l 5.34366,3.265577 c 1.2296,0.863882 -0.88639,1.201588 -1.62775,0.976161 -1.95469,-0.05067 -0.13202,1.9091 0.14363,2.793752 1.38226,2.64201 2.5126,5.418988 3.37772,8.268701 0.24643,0.857206 0.48362,1.160194 1.12051,0.608664 1.16849,-1.088177 2.43715,-2.093905 3.95996,-2.633021 1.44065,-0.527345 2.06839,-1.191177 0.32366,-2.467023 -1.43101,-0.664058 0.0928,-1.431202 0.98848,-1.08446 l 6.01272,0.619868 c 1.16108,0.02534 0.42237,1.110788 0.0511,1.616174 -1.00455,1.766941 -2.01577,3.530146 -3.01614,5.299428 -0.88935,0.631414 -0.90155,-0.593197 -1.05348,-1.152266 -0.18042,-0.582593 -0.16904,-1.242364 -0.52507,-1.754292 -2.54849,1.247467 -4.88966,3.085297 -6.29285,5.592302 -0.89505,2.584597 -0.70965,5.322469 -0.74702,8.040656 -0.0488,1.61772 -0.0242,2.883422 -0.0242,2.883422 l -2.69124,0.05433 z"
       style="fill:#000000;stroke:#000000;stroke-width:0.264583px;stroke-linecap:butt;stroke-linejoin:miter;stroke-opacity:1"
       id="path1061" />
    <g
       style="font-style:normal;font-variant:normal;font-weight:normal;font-stretch:normal;font-size:5.14293px;line-height:1.25;font-family:Transport;-inkscape-font-specification:'Transport Normal';font-variant-ligatures:normal;font-variant-caps:normal;font-variant-numeric:normal;font-variant-east-asian:normal;stroke:#000000;stroke-width:0.193308"
       id="text1066"
       aria-label="SEVILLA">
      <path
         id="path902"
         style="font-style:normal;font-variant:normal;font-weight:normal;font-stretch:normal;font-size:5.14293px;font-family:Transport;-inkscape-font-specification:'Transport Normal';font-variant-ligatures:normal;font-variant-caps:normal;font-variant-numeric:normal;font-variant-east-asian:normal;stroke:#000000;stroke-width:0.193308"
         d="m 270.41495,10.32628 -0.0502,0.03013 q -0.0251,0.02762 -0.0477,0.04771 -0.0226,0.02009 -0.0427,0.03265 l -0.0502,0.05022 -0.0301,0.01004 q -0.0477,0.06027 -0.10045,0.08036 -0.0477,0.06529 -0.12054,0.100448 -0.0301,0.04018 -0.0603,0.06027 -0.35659,-0.469594 -0.87389,-0.469594 -0.0553,0 -0.12054,0.0075 -0.46206,0.01507 -0.59264,0.401792 0,0.266187 0.16072,0.44197 l 0.0703,0.04018 0.0301,0.01004 0.1105,0.05022 h 0.0502 l 0.0402,0.01004 0.0502,0.01004 q 0.0578,0.0226 0.10045,0.03013 l 0.0804,0.02009 h 0.0301 l 0.33148,0.08036 h 0.0301 l 0.0301,0.01004 h 0.0301 l 0.0301,0.01004 0.14063,0.03013 0.0301,0.01004 0.0402,0.01004 0.0804,0.03013 q 0.12807,0.03264 0.21094,0.08036 l 0.0201,0.02009 0.0301,0.01004 0.0201,0.03013 q 0.0377,0.02009 0.0603,0.04018 0.0176,0.01004 0.0201,0.02009 l 0.12054,0.110492 q 0.21094,0.311389 0.21094,0.635333 0,0.170761 -0.0603,0.349056 -0.16574,0.565019 -0.64287,0.783493 -0.0628,0.04018 -0.12054,0.06027 -0.15067,0.03013 -0.29129,0.0452 -0.14063,0.01256 -0.27624,0.01256 -0.94672,0 -1.56196,-0.730758 l 0.01,-0.02009 0.0201,-0.01004 q 0.01,-0.01004 0.0176,-0.01004 h 0.003 q 0.0553,-0.06529 0.12054,-0.100447 l 0.0301,-0.03013 0.12053,-0.100448 0.0201,-0.01004 q 0.01,-0.01004 0.0176,-0.01004 h 0.003 q 0.0402,-0.04269 0.0779,-0.07534 0.0377,-0.03516 0.0728,-0.05525 h 0.0301 q 0.4269,0.557485 0.96681,0.557485 0.28376,0 0.59013,-0.145649 0.0578,-0.06529 0.11049,-0.100448 l 0.0101,-0.03013 q 0.0578,-0.08036 0.0804,-0.160717 0.003,-0.01758 0.003,-0.03265 0,-0.01507 0,-0.03013 0,-0.288788 -0.2235,-0.449504 l -0.0301,-0.01004 q -0.0553,-0.0226 -0.10045,-0.03013 l -0.0201,-0.02009 h -0.0301 l -0.0402,-0.01004 -0.0201,-0.01004 h -0.0301 l -0.0201,-0.01004 q -0.0979,-0.01507 -0.16071,-0.04018 h -0.0301 l -0.0804,-0.02009 h -0.0301 l -0.0402,-0.01004 -0.0201,-0.01004 q -0.0979,-0.01507 -0.16072,-0.04018 -1.00448,-0.115515 -1.11497,-1.034612 0.0226,-1.0923708 1.19533,-1.1953299 0.0578,-0.00502 0.11301,-0.00753 0.0552,-0.00251 0.10798,-0.00251 0.86887,0 1.31586,0.6529107 z" />
      <path
         id="path904"
         style="font-style:normal;font-variant:normal;font-weight:normal;font-stretch:normal;font-size:5.14293px;font-family:Transport;-inkscape-font-specification:'Transport Normal';font-variant-ligatures:normal;font-variant-caps:normal;font-variant-numeric:normal;font-variant-east-asian:normal;stroke:#000000;stroke-width:0.193308"
         d="m 271.58768,9.7637724 h 2.41075 V 10.36646 h -1.74779 v 0.964299 q 0.003,0.04018 0.0377,0.04018 h 1.55945 v 0.592642 h -1.59712 v 1.004479 q 0,0.05022 0.0402,0.05022 h 1.8181 v 0.592642 h -2.52124 z" />
      <path
         id="path906"
         style="font-style:normal;font-variant:normal;font-weight:normal;font-stretch:normal;font-size:5.14293px;font-family:Transport;-inkscape-font-specification:'Transport Normal';font-variant-ligatures:normal;font-variant-caps:normal;font-variant-numeric:normal;font-variant-east-asian:normal;stroke:#000000;stroke-width:0.193308"
         d="m 274.74426,9.7637724 h 0.66295 l 0.0201,0.070313 0.0201,0.080358 q 0.0101,0.017578 0.0126,0.035157 0.005,0.017578 0.008,0.035157 l 0.0301,0.070313 0.01,0.04018 0.0101,0.03013 0.01,0.04018 0.01,0.03013 0.0101,0.04018 0.0904,0.321433 0.0603,0.170762 0.0402,0.140627 0.01,0.04018 v 0.03013 l 0.0201,0.04018 0.01,0.06027 q 0.01,0.0075 0.01,0.01507 v 0.005 l 0.0101,0.02009 v 0.03013 q 0.0352,0.07534 0.0502,0.130582 l 0.0101,0.07031 q 0.0427,0.09291 0.0502,0.170762 0.0176,0.03013 0.0201,0.05022 l 0.0101,0.05022 q 0.01,0.01256 0.01,0.03013 0.0251,0.06027 0.0301,0.110493 0.0377,0.07282 0.0402,0.130582 0.0126,0.02009 0.0201,0.07031 0.0276,0.0678 0.0452,0.128071 0.0201,0.06027 0.0251,0.113004 l 0.0201,0.03013 0.0301,0.140627 0.0201,0.03014 v 0.04018 l 0.0201,0.03013 v 0.03014 q 0.0276,0.07031 0.0452,0.130582 0.0201,0.06027 0.0251,0.110492 l 0.0201,-0.04018 q 0.0176,-0.08789 0.0502,-0.160716 v -0.03013 l 0.01,-0.03013 0.01,-0.02009 0.0402,-0.140627 0.0301,-0.0904 0.01,-0.05022 0.01,-0.03013 0.01,-0.05022 0.0201,-0.06027 0.01,-0.02009 0.0402,-0.140627 0.0201,-0.08036 0.0201,-0.04018 v -0.03013 l 0.0201,-0.04018 q 0.0176,-0.08036 0.0352,-0.145649 0.0201,-0.06529 0.0452,-0.115515 l 0.0201,-0.07031 0.0301,-0.140627 0.0201,-0.04018 0.01,-0.03013 v -0.03013 l 0.0201,-0.04018 q 0.0176,-0.09291 0.0502,-0.160716 l 0.01,-0.07031 0.0201,-0.05022 0.0101,-0.02009 q 0.005,-0.02762 0.01,-0.04018 l 0.0101,-0.03013 v -0.03013 q 0.0452,-0.113004 0.0603,-0.190851 l 0.0101,-0.03013 0.0402,-0.140627 0.0201,-0.08036 0.0804,-0.2410747 q 0.008,-0.055246 0.0301,-0.1004478 l 0.0201,-0.090403 h 0.66296 l -0.0101,0.070313 -0.0301,0.090403 -0.0402,0.140627 -0.0201,0.08036 -0.0201,0.07031 -0.0301,0.07031 -0.0402,0.160717 -0.0301,0.0904 -0.0402,0.140627 -0.0201,0.08036 -0.0201,0.07031 -0.01,0.03013 -0.0101,0.02009 -0.0201,0.08036 -0.0201,0.07031 -0.01,0.02009 -0.0301,0.0904 v 0.03013 q -0.0477,0.113004 -0.0603,0.200896 l -0.0301,0.07031 q -0.0226,0.118026 -0.0603,0.200895 v 0.03013 l -0.0201,0.07031 -0.01,0.03013 -0.0101,0.02009 -0.0402,0.160717 -0.0201,0.04018 q -0.0176,0.09291 -0.0502,0.160716 l -0.0301,0.140627 -0.0201,0.04018 -0.01,0.03014 -0.01,0.05022 -0.01,0.02009 q -0.0176,0.09292 -0.0502,0.160717 l -0.01,0.06027 -0.0201,0.05022 -0.01,0.05022 -0.0201,0.04018 q -0.0151,0.09794 -0.0402,0.160716 l -0.0502,0.170761 -0.0301,0.110493 -0.01,0.04018 -0.01,0.03014 -0.01,0.04018 -0.0301,0.07031 -0.01,0.06027 -0.0402,0.120537 h -0.81363 q -0.0251,-0.07282 -0.0301,-0.120537 -0.0301,-0.05274 -0.0301,-0.100448 l -0.0201,-0.03013 -0.0301,-0.140627 q -0.0276,-0.04269 -0.0301,-0.08036 l -0.0201,-0.06027 q -0.01,-0.02762 -0.0126,-0.05274 -0.003,-0.02511 -0.008,-0.04771 -0.0176,-0.04018 -0.0301,-0.07282 -0.0125,-0.03516 -0.0201,-0.0678 l -0.0402,-0.160717 -0.0301,-0.07031 -0.0201,-0.07031 v -0.03013 q -0.0502,-0.118026 -0.0603,-0.200896 -0.0452,-0.113004 -0.0603,-0.190851 l -0.01,-0.05022 -0.0402,-0.100447 v -0.03013 l -0.01,-0.02009 -0.0502,-0.160717 v -0.03013 q -0.0176,-0.04018 -0.0276,-0.07282 -0.0101,-0.03516 -0.0126,-0.0678 -0.01,-0.01256 -0.01,-0.03014 l -0.0603,-0.170761 -0.01,-0.07031 -0.0301,-0.07031 v -0.03013 q -0.0201,-0.03767 -0.0326,-0.07534 -0.01,-0.03767 -0.0176,-0.07534 l -0.01,-0.05022 q -0.01,-0.01256 -0.01,-0.03013 l -0.01,-0.03013 q -0.0276,-0.06529 -0.0301,-0.110492 l -0.0402,-0.100448 -0.01,-0.06027 -0.0201,-0.06027 -0.0201,-0.05022 v -0.04018 q -0.0176,-0.03013 -0.0201,-0.05022 l -0.01,-0.04018 -0.0201,-0.05022 q -0.0176,-0.09291 -0.0502,-0.160716 v -0.04018 q -0.01,-0.01256 -0.01,-0.03013 -0.0251,-0.05525 -0.0301,-0.100448 -0.0251,-0.055246 -0.0301,-0.1104922 -0.0477,-0.092914 -0.0502,-0.1707614 z" />
      <path
         id="path908"
         style="font-style:normal;font-variant:normal;font-weight:normal;font-stretch:normal;font-size:5.14293px;font-family:Transport;-inkscape-font-specification:'Transport Normal';font-variant-ligatures:normal;font-variant-caps:normal;font-variant-numeric:normal;font-variant-east-asian:normal;stroke:#000000;stroke-width:0.193308"
         d="m 278.72199,9.7738172 h 0.66296 v 3.8371078 h -0.66296 z" />
      <path
         id="path910"
         style="font-style:normal;font-variant:normal;font-weight:normal;font-stretch:normal;font-size:5.14293px;font-family:Transport;-inkscape-font-specification:'Transport Normal';font-variant-ligatures:normal;font-variant-caps:normal;font-variant-numeric:normal;font-variant-east-asian:normal;stroke:#000000;stroke-width:0.193308"
         d="m 280.70081,9.7637724 h 0.66296 v 3.2444656 h 1.49667 v 0.592642 h -2.15963 z" />
      <path
         id="path912"
         style="font-style:normal;font-variant:normal;font-weight:normal;font-stretch:normal;font-size:5.14293px;font-family:Transport;-inkscape-font-specification:'Transport Normal';font-variant-ligatures:normal;font-variant-caps:normal;font-variant-numeric:normal;font-variant-east-asian:normal;stroke:#000000;stroke-width:0.193308"
         d="m 283.6138,9.7637724 h 0.66296 v 3.2444656 h 1.49667 v 0.592642 h -2.15963 z" />
      <path
         id="path914"
         style="font-style:normal;font-variant:normal;font-weight:normal;font-stretch:normal;font-size:5.14293px;font-family:Transport;-inkscape-font-specification:'Transport Normal';font-variant-ligatures:normal;font-variant-caps:normal;font-variant-numeric:normal;font-variant-east-asian:normal;stroke:#000000;stroke-width:0.193308"
         d="m 287.30777,9.7637724 h 0.81363 l 0.0201,0.080358 q 0.01,0.017578 0.0126,0.035157 0.005,0.017578 0.008,0.035157 l 0.0201,0.040179 0.0301,0.1004477 0.0101,0.02009 0.01,0.04018 0.01,0.03013 0.01,0.04018 0.0301,0.07031 0.01,0.02009 v 0.03013 q 0.0201,0.03516 0.0301,0.07031 0.0126,0.03265 0.0201,0.06027 l 0.01,0.04018 0.01,0.02009 v 0.03013 q 0.0201,0.03516 0.0301,0.07031 0.0126,0.03264 0.0201,0.06027 l 0.0201,0.08036 q 0.0377,0.06529 0.0402,0.120537 l 0.0301,0.07031 0.0201,0.08036 0.0201,0.07031 q 0.0101,0.01256 0.0101,0.03013 l 0.0201,0.03013 0.01,0.04018 q 0.005,0.02511 0.0151,0.0452 0.01,0.02009 0.0151,0.03516 v 0.03013 q 0.0502,0.09291 0.0603,0.180806 0.0176,0.03264 0.0201,0.06027 0.0176,0.03264 0.0201,0.06027 l 0.0402,0.120538 0.0101,0.02009 0.01,0.04018 0.01,0.03013 0.01,0.04018 0.0301,0.07031 0.0101,0.02009 v 0.03013 q 0.0201,0.03516 0.0326,0.07031 0.0125,0.03265 0.0176,0.06027 l 0.0101,0.06027 q 0.0402,0.07785 0.0502,0.140627 0.0477,0.107982 0.0603,0.190851 0.0176,0.03265 0.0201,0.06027 l 0.0301,0.06027 0.0201,0.06027 q 0.0126,0.06027 0.0301,0.100448 l 0.0201,0.0904 0.0301,0.06027 0.0201,0.0904 0.0201,0.04018 0.01,0.04018 q 0.0276,0.06529 0.0452,0.123049 0.0176,0.05776 0.0251,0.107981 l 0.0201,0.03014 v 0.03013 q 0.01,0.01256 0.01,0.03013 0.0276,0.04269 0.0301,0.08036 0.0326,0.07031 0.0402,0.120537 h -0.66296 l -0.01,-0.04018 -0.0201,-0.04018 -0.0101,-0.06027 q -0.01,-0.01256 -0.01,-0.03013 -0.0477,-0.09543 -0.0603,-0.180806 l -0.0201,-0.03014 -0.01,-0.04018 q -0.005,-0.02511 -0.0151,-0.0452 -0.008,-0.02009 -0.0151,-0.03516 v -0.03013 q -0.0477,-0.09543 -0.0603,-0.180807 h -1.52681 l -0.01,0.04018 -0.0201,0.04018 -0.01,0.05022 -0.01,0.04018 q -0.0126,0.02762 -0.0251,0.05525 -0.0101,0.02762 -0.0151,0.05525 l -0.01,0.03014 -0.0201,0.04018 q -0.005,0.02762 -0.01,0.04018 l -0.01,0.04018 -0.0101,0.03014 -0.01,0.02009 -0.0703,0.23103 h -0.66295 v -0.03013 l 0.0201,-0.06027 0.01,-0.04018 q 0.0226,-0.05022 0.0301,-0.08036 l 0.01,-0.02009 0.0201,-0.08036 0.0201,-0.07031 0.0603,-0.170761 0.0301,-0.100448 0.0201,-0.06027 q 0.0226,-0.05022 0.0301,-0.08036 l 0.0402,-0.120537 0.0804,-0.25112 0.0603,-0.190851 q 0.0251,-0.05525 0.0377,-0.100448 0.0126,-0.0452 0.0226,-0.08036 l 0.01,-0.04018 0.0201,-0.03013 q 0.008,-0.05776 0.0301,-0.110493 l 0.0201,-0.06027 0.01,-0.04018 q 0.0226,-0.05022 0.0301,-0.08036 l 0.01,-0.02009 0.0201,-0.08036 0.0201,-0.07031 0.0301,-0.07031 0.0301,-0.100448 0.0301,-0.0904 0.01,-0.02009 0.0603,-0.190851 0.01,-0.04018 0.0804,-0.251119 q 0.0326,-0.0678 0.0402,-0.120538 l 0.1105,-0.311388 v -0.03013 l 0.0201,-0.05022 0.01,-0.03013 0.01,-0.04018 0.0201,-0.04018 0.01,-0.03013 0.01,-0.04018 0.0101,-0.03013 0.01,-0.04018 0.0301,-0.070313 0.0301,-0.1205374 z m 0.40179,0.8437616 -0.0603,0.170762 -0.0201,0.07031 -0.0301,0.07031 -0.01,0.06027 -0.0201,0.06027 -0.0301,0.06027 -0.01,0.06027 -0.0301,0.06027 v 0.03013 l -0.0201,0.03013 q -0.0251,0.130582 -0.0603,0.21094 l -0.01,0.04018 -0.0201,0.05022 -0.0603,0.170761 -0.0301,0.110493 -0.0201,0.05022 -0.0101,0.04018 -0.0201,0.05022 -0.01,0.04018 -0.0301,0.0904 -0.01,0.02009 q -0.0301,0.115515 -0.0603,0.180806 h 1.15515 l -0.0201,-0.08036 -0.0301,-0.07031 -0.0201,-0.07031 -0.0301,-0.07031 -0.0502,-0.170762 -0.0201,-0.08036 -0.0301,-0.07031 -0.0101,-0.05022 q -0.0176,-0.03013 -0.0201,-0.05022 l -0.0502,-0.140627 -0.0101,-0.04018 -0.0201,-0.04018 v -0.03013 l -0.0603,-0.160717 -0.01,-0.06027 q -0.0176,-0.03265 -0.0201,-0.06027 l -0.0301,-0.06027 -0.0201,-0.0904 q -0.01,-0.01256 -0.01,-0.03013 -0.01,-0.01256 -0.01,-0.03013 l -0.0201,-0.03013 v -0.03013 q -0.0251,-0.05525 -0.0301,-0.100448 -0.005,-0.005 -0.008,-0.0075 -0.003,-0.005 -0.003,-0.01004 v -0.0025 l -0.0502,-0.120537 z" />
    </g>
    <g
       style="font-style:normal;font-variant:normal;font-weight:normal;font-stretch:normal;font-size:5.14292px;line-height:1.25;font-family:Transport;-inkscape-font-specification:'Transport Normal';font-variant-ligatures:normal;font-variant-caps:normal;font-variant-numeric:normal;font-variant-east-asian:normal;display:inline;stroke:#000000;stroke-width:0.193308"
       id="text1066-5"
       aria-label="ALMONTE">
      <path
         id="path917"
         style=""
         d="m 267.21487,18.405234 h 0.81363 l 0.0201,0.08036 q 0.01,0.01758 0.0126,0.03516 0.005,0.01758 0.008,0.03516 l 0.0201,0.04018 0.0301,0.100448 0.01,0.02009 0.01,0.04018 0.01,0.03013 0.0101,0.04018 0.0301,0.07031 0.01,0.02009 v 0.03013 q 0.0201,0.03516 0.0301,0.07031 0.0126,0.03265 0.0201,0.06027 l 0.01,0.04018 0.01,0.02009 v 0.03013 q 0.0201,0.03516 0.0301,0.07031 0.0126,0.03265 0.0201,0.06027 l 0.0201,0.08036 q 0.0377,0.06529 0.0402,0.120537 l 0.0301,0.07031 0.0201,0.08036 0.0201,0.07031 q 0.01,0.01256 0.01,0.03013 l 0.0201,0.03013 0.0101,0.04018 q 0.005,0.02511 0.0151,0.0452 0.01,0.02009 0.0151,0.03516 v 0.03013 q 0.0502,0.09291 0.0603,0.180806 0.0176,0.03265 0.0201,0.06027 0.0176,0.03265 0.0201,0.06027 l 0.0402,0.120537 0.01,0.02009 0.0101,0.04018 0.01,0.03013 0.0101,0.04018 0.0301,0.07031 0.01,0.02009 v 0.03013 q 0.0201,0.03516 0.0326,0.07031 0.0126,0.03265 0.0176,0.06027 l 0.01,0.06027 q 0.0402,0.07785 0.0502,0.140627 0.0477,0.107981 0.0603,0.19085 0.0176,0.03265 0.0201,0.06027 l 0.0301,0.06027 0.0201,0.06027 q 0.0125,0.06027 0.0301,0.100448 l 0.0201,0.0904 0.0301,0.06027 0.0201,0.0904 0.0201,0.04018 0.01,0.04018 q 0.0276,0.06529 0.0452,0.123049 0.0176,0.05776 0.0251,0.107981 l 0.0201,0.03013 v 0.03013 q 0.01,0.01256 0.01,0.03013 0.0276,0.04269 0.0301,0.08036 0.0326,0.07031 0.0402,0.120537 h -0.66295 l -0.0101,-0.04018 -0.0201,-0.04018 -0.01,-0.06027 q -0.01,-0.01256 -0.01,-0.03013 -0.0477,-0.09542 -0.0603,-0.180806 l -0.0201,-0.03013 -0.0101,-0.04018 q -0.005,-0.02511 -0.0151,-0.0452 -0.008,-0.02009 -0.0151,-0.03516 v -0.03013 q -0.0477,-0.09543 -0.0603,-0.180805 h -1.52681 l -0.01,0.04018 -0.0201,0.04018 -0.01,0.05022 -0.01,0.04018 q -0.0126,0.02762 -0.0251,0.05525 -0.01,0.02762 -0.0151,0.05525 l -0.01,0.03013 -0.0201,0.04018 q -0.005,0.02762 -0.0101,0.04018 l -0.01,0.04018 -0.0101,0.03013 -0.01,0.02009 -0.0703,0.23103 h -0.66295 v -0.03013 l 0.0201,-0.06027 0.01,-0.04018 q 0.0226,-0.05022 0.0301,-0.08036 l 0.01,-0.02009 0.0201,-0.08036 0.0201,-0.07031 0.0603,-0.170761 0.0301,-0.100448 0.0201,-0.06027 q 0.0226,-0.05022 0.0301,-0.08036 l 0.0402,-0.120537 0.0804,-0.251119 0.0603,-0.19085 q 0.0251,-0.05525 0.0377,-0.100448 0.0126,-0.0452 0.0226,-0.08036 l 0.0101,-0.04018 0.0201,-0.03013 q 0.008,-0.05776 0.0301,-0.110492 l 0.0201,-0.06027 0.01,-0.04018 q 0.0226,-0.05022 0.0301,-0.08036 l 0.01,-0.02009 0.0201,-0.08036 0.0201,-0.07031 0.0301,-0.07031 0.0301,-0.100448 0.0301,-0.0904 0.01,-0.02009 0.0603,-0.190851 0.01,-0.04018 0.0804,-0.251119 q 0.0326,-0.0678 0.0402,-0.120537 l 0.11049,-0.311388 v -0.03013 l 0.0201,-0.05022 0.0101,-0.03013 0.01,-0.04018 0.0201,-0.04018 0.01,-0.03014 0.01,-0.04018 0.01,-0.03013 0.01,-0.04018 0.0301,-0.07031 0.0301,-0.120538 z m 0.40179,0.84376 -0.0603,0.170761 -0.0201,0.07031 -0.0301,0.07031 -0.01,0.06027 -0.0201,0.06027 -0.0301,0.06027 -0.01,0.06027 -0.0301,0.06027 v 0.03013 l -0.0201,0.03013 q -0.0251,0.130582 -0.0603,0.21094 l -0.01,0.04018 -0.0201,0.05022 -0.0603,0.170761 -0.0301,0.110493 -0.0201,0.05022 -0.01,0.04018 -0.0201,0.05022 -0.01,0.04018 -0.0301,0.0904 -0.01,0.02009 q -0.0301,0.115515 -0.0603,0.180806 h 1.15515 l -0.0201,-0.08036 -0.0301,-0.07031 -0.0201,-0.07031 -0.0301,-0.07031 -0.0502,-0.170761 -0.0201,-0.08036 -0.0301,-0.07031 -0.01,-0.05022 q -0.0176,-0.03013 -0.0201,-0.05022 l -0.0502,-0.140626 -0.01,-0.04018 -0.0201,-0.04018 v -0.03014 l -0.0603,-0.160716 -0.01,-0.06027 q -0.0176,-0.03264 -0.0201,-0.06027 l -0.0301,-0.06027 -0.0201,-0.0904 q -0.01,-0.01256 -0.01,-0.03013 -0.01,-0.01256 -0.01,-0.03013 l -0.0201,-0.03013 v -0.03013 q -0.0251,-0.05525 -0.0301,-0.100448 -0.005,-0.005 -0.008,-0.0075 -0.003,-0.005 -0.003,-0.01005 v -0.0025 l -0.0502,-0.120537 z" />
      <path
         id="path919"
         style=""
         d="m 270.14041,18.405234 h 0.66295 v 3.244459 h 1.49667 v 0.592641 h -2.15962 z" />
      <path
         id="path921"
         style=""
         d="m 273.05339,18.405234 h 0.7634 l 0.0301,0.06027 0.0201,0.01004 0.01,0.03013 0.0201,0.01005 0.01,0.03013 q 0.0527,0.0452 0.0804,0.100448 l 0.0402,0.06027 q 0.0527,0.0452 0.0703,0.0904 l 0.0402,0.05022 0.10045,0.120538 0.0201,0.04018 0.10045,0.120537 0.0301,0.04018 0.01,0.02009 q 0.0352,0.04269 0.0502,0.08036 0.0578,0.05525 0.0904,0.100447 l 0.01,0.03014 0.0502,0.05022 0.0402,0.06027 0.0201,0.02009 0.01,0.03014 0.0301,0.03013 0.0804,0.120537 0.12054,0.140627 0.0427,-0.05274 q 0.0201,-0.0226 0.0377,-0.03767 0.0126,-0.02762 0.0251,-0.05022 0.0126,-0.0226 0.0251,-0.04018 0.0377,-0.03767 0.0502,-0.06027 l 0.0101,-0.02009 0.0201,-0.01005 0.01,-0.02009 0.0804,-0.110493 0.0402,-0.05022 0.0301,-0.05022 0.0603,-0.08036 0.0402,-0.05022 0.0201,-0.02009 0.0904,-0.120537 0.0201,-0.03013 0.0301,-0.03014 0.0301,-0.05022 0.0402,-0.05022 0.0402,-0.06027 0.0201,-0.02009 0.01,-0.02009 0.0502,-0.05022 q 0.0201,-0.05273 0.0603,-0.08036 l 0.01,-0.03013 0.0201,-0.02009 0.0101,-0.02009 0.0201,-0.03013 0.0301,-0.02009 0.01,-0.03013 0.10045,-0.130582 h 0.75336 v 3.8371 h -0.66296 v -2.902937 l -0.0201,0.02009 -0.01,0.02009 -0.0502,0.05022 q -0.0201,0.05273 -0.0603,0.08036 -0.0201,0.03767 -0.0402,0.06027 l -0.0402,0.06027 -0.0101,0.02009 -0.0201,0.02009 -0.0101,0.02009 -0.0301,0.02009 -0.0101,0.02009 q -0.0402,0.07031 -0.0804,0.110492 l -0.0301,0.05022 -0.0402,0.04018 -0.0402,0.05022 -0.0603,0.08036 -0.01,0.03013 -0.0301,0.03014 q -0.01,0.01758 -0.0201,0.02009 l -0.01,0.03013 -0.0502,0.05022 q -0.0628,0.113004 -0.13058,0.170761 -0.0477,0.0904 -0.10044,0.140627 -0.0176,0.02762 -0.0352,0.05022 -0.0176,0.0226 -0.0352,0.04018 l -0.0402,0.06027 q -0.01,0.01758 -0.0201,0.02009 l -0.01,0.02009 q -0.0352,0.05776 -0.0703,0.100447 -0.0352,0.04269 -0.0703,0.07031 l -0.0402,-0.07031 q -0.0402,-0.03516 -0.0603,-0.06027 l -0.0402,-0.07031 -0.0301,-0.03013 -0.0402,-0.06027 q -0.0176,-0.01256 -0.0201,-0.03013 -0.0176,-0.01004 -0.0201,-0.02009 l -0.0201,-0.02009 -0.10044,-0.130582 -0.0402,-0.06027 q -0.0176,-0.0226 -0.0301,-0.05022 l -0.0402,-0.05022 -0.0402,-0.04018 -0.0301,-0.05022 -0.0301,-0.04018 -0.0301,-0.03013 -0.0201,-0.04018 -0.0301,-0.03014 -0.0402,-0.05022 -0.0201,-0.04018 q -0.0176,-0.01004 -0.0201,-0.02009 l -0.0201,-0.02009 q -0.0553,-0.08789 -0.10045,-0.130582 l -0.01,-0.02009 q -0.0352,-0.04269 -0.0502,-0.08036 l -0.0301,-0.02009 -0.01,-0.03013 q -0.0427,-0.04018 -0.0603,-0.07031 l -0.0201,-0.02009 q -0.0678,-0.10547 -0.13059,-0.170761 v 2.902937 h -0.66295 z" />
      <path
         id="path923"
         style=""
         d="m 279.47953,18.284697 h 0.19085 l 0.0402,0.01004 h 0.0301 q 0.0779,0 0.12054,0.01005 h 0.0603 q 0.0979,0.03013 0.17578,0.03013 h 0.0151 q 1.20537,0.46206 1.2556,1.828148 0.003,0.05022 0.005,0.102959 0.003,0.05022 0.003,0.100447 0,1.333443 -1.09237,1.865815 -0.39928,0.135605 -0.75336,0.135605 -0.68555,0 -1.21541,-0.517306 -0.48466,-0.585107 -0.50224,-1.26564 -0.01,-0.03013 -0.01,-0.07031 0,-0.05274 -0.01,-0.08036 v -0.150671 l 0.01,-0.0904 v -0.140627 l 0.01,-0.04018 v -0.03013 l 0.01,-0.03013 q 0.008,-0.153183 0.0502,-0.271209 0.33399,-1.315864 1.60716,-1.396222 z m -1.01452,2.300251 q 0.0578,0.813626 0.70313,1.104924 0.0276,0.005 0.0402,0.01004 l 0.25112,0.06027 q 1.21793,-0.02762 1.23551,-1.295774 0.008,-0.110493 0.008,-0.213452 0,-1.373621 -1.26313,-1.373621 -0.98941,0.193361 -0.98941,1.3912 0,0.150671 0.0151,0.31641 z" />
      <path
         id="path925"
         style=""
         d="m 282.32471,18.395189 h 0.74331 l 0.0402,0.07031 0.0201,0.02009 0.0402,0.07031 q 0.0201,0.02762 0.0352,0.05525 0.0151,0.02511 0.0251,0.0452 l 0.0201,0.01005 0.01,0.02009 0.0904,0.140627 0.0804,0.120537 q 0.0101,0.0075 0.0101,0.01507 v 0.005 q 0.0753,0.08287 0.10045,0.150671 0.0352,0.03767 0.0577,0.07283 0.0251,0.03516 0.0427,0.0678 l 0.0402,0.05022 0.0301,0.06027 0.0201,0.03014 0.0201,0.02009 0.0402,0.07031 0.0201,0.02009 0.0703,0.110492 0.0804,0.120538 0.0703,0.100447 0.0201,0.02009 0.0201,0.03013 0.01,0.03013 0.0201,0.03013 0.0201,0.02009 0.0402,0.07031 0.0201,0.02009 0.0703,0.110492 0.01,0.02009 0.0201,0.03013 q 0.01,0.0075 0.01,0.01507 v 0.005 q 0.0251,0.02762 0.0452,0.05274 0.0201,0.02511 0.0352,0.04771 l 0.0301,0.05022 0.0201,0.04018 q 0.0527,0.05525 0.0703,0.110493 l 0.0402,0.06027 q 0.0301,0.0226 0.0502,0.06027 l 0.0402,0.06027 q 0.0251,0.03516 0.0402,0.06529 0.0176,0.03013 0.0301,0.05525 0.0176,0.01256 0.0201,0.03013 l 0.0301,0.02009 0.01,0.03013 0.0201,0.02009 0.0201,0.03013 0.01,0.03013 q 0.0778,0.0904 0.11049,0.150672 v -2.762311 h 0.66295 v 3.847145 h -0.74331 l -0.0402,-0.07031 -0.0201,-0.02009 -0.01,-0.03013 q -0.0778,-0.0904 -0.1105,-0.150671 l -0.01,-0.02009 q -0.0377,-0.05022 -0.0653,-0.09291 -0.0276,-0.04269 -0.0452,-0.07785 l -0.0502,-0.06027 -0.10044,-0.150671 -0.0101,-0.02009 -0.0201,-0.02009 -0.0402,-0.07031 q -0.0201,-0.02762 -0.0352,-0.05274 -0.0151,-0.02762 -0.0251,-0.04771 -0.0527,-0.05274 -0.0703,-0.0904 -0.0377,-0.05776 -0.0502,-0.0904 -0.0176,-0.01005 -0.0201,-0.02009 l -0.0201,-0.02009 -0.01,-0.03013 -0.0201,-0.02009 -0.01,-0.03013 q -0.0276,-0.02762 -0.0477,-0.05022 -0.0201,-0.02511 -0.0326,-0.05022 l -0.13058,-0.19085 -0.0201,-0.05022 q -0.0628,-0.05776 -0.0804,-0.120537 -0.0753,-0.08287 -0.10045,-0.150672 l -0.0402,-0.04018 -0.0201,-0.05022 -0.0502,-0.05022 -0.0301,-0.06027 -0.0301,-0.04018 q -0.0201,-0.02762 -0.0351,-0.05274 -0.0151,-0.02762 -0.0251,-0.04771 l -0.0402,-0.06027 q -0.0176,-0.01005 -0.0201,-0.02009 l -0.0703,-0.100448 q -0.0251,-0.03516 -0.0427,-0.06529 -0.0151,-0.03013 -0.0276,-0.05525 l -0.0301,-0.03013 -0.01,-0.03013 -0.0301,-0.03014 -0.01,-0.03013 q -0.0176,-0.01004 -0.0201,-0.02009 -0.005,-0.005 -0.008,-0.0075 -0.003,-0.005 -0.003,-0.01005 v -0.0025 q -0.0779,-0.0904 -0.1105,-0.150672 v 2.752266 h -0.66295 z" />
      <path
         id="path927"
         style=""
         d="m 286.34261,18.395189 h 2.77236 v 0.602686 h -1.0547 v 3.244459 h -0.66295 v -3.244459 h -1.05471 z" />
      <path
         id="path929"
         style=""
         d="m 289.86582,18.405234 h 2.41074 v 0.602686 h -1.74779 v 0.964297 q 0.003,0.04018 0.0377,0.04018 h 1.55945 v 0.592641 h -1.59712 v 1.004477 q 0,0.05022 0.0402,0.05022 h 1.8181 v 0.592641 h -2.52123 z" />
    </g>
    <g
       style="font-style:normal;font-variant:normal;font-weight:normal;font-stretch:normal;font-size:5.14292px;line-height:1.25;font-family:Transport;-inkscape-font-specification:'Transport Normal';font-variant-ligatures:normal;font-variant-caps:normal;font-variant-numeric:normal;font-variant-east-asian:normal;display:inline;stroke:#000000;stroke-width:0.193308"
       id="text1066-5-7"
       aria-label="HUELVA">
      <path
         id="path932"
         style=""
         d="m 296.21929,36.575795 h 0.66295 v 1.49667 h 1.70761 v -1.49667 h 0.66296 v 3.837101 h -0.66296 v -1.74779 h -1.70761 v 1.74779 h -0.66295 z" />
      <path
         id="path934"
         style=""
         d="m 300.54858,36.575795 h 0.673 v 2.671908 l 0.0603,0.140627 q 0.25865,0.489682 0.7634,0.512283 0.54493,-0.04018 0.77345,-0.492194 v -0.03013 l 0.0201,-0.04018 q 0.0226,-0.0904 0.0352,-0.165739 0.0151,-0.07534 0.0151,-0.135604 v -2.460968 h 0.66296 v 2.420789 q 0,0.05273 0.01,0.08036 l -0.01,0.160716 -0.0201,0.140627 -0.01,0.02009 -0.0402,0.160717 q -0.48466,0.944208 -1.40376,0.944208 -0.16323,0 -0.34403,-0.03014 -0.77596,-0.195873 -1.08484,-0.853805 l -0.0301,-0.110492 q -0.005,-0.005 -0.008,-0.0075 -0.003,-0.005 -0.003,-0.01005 v -0.0025 q -0.0427,-0.140626 -0.0502,-0.220985 v -0.08036 l -0.01,-0.07031 z" />
      <path
         id="path936"
         style=""
         d="m 304.78496,36.56575 h 2.41075 v 0.602686 h -1.74779 v 0.964298 q 0.003,0.04018 0.0377,0.04018 h 1.55945 v 0.592641 h -1.59712 v 1.004477 q 0,0.05022 0.0402,0.05022 h 1.8181 v 0.592641 h -2.52124 z" />
      <path
         id="path938"
         style=""
         d="m 308.37346,36.56575 h 0.66295 v 3.24446 h 1.49667 v 0.592641 h -2.15962 z" />
      <path
         id="path940"
         style=""
         d="m 310.85451,36.56575 h 0.66296 l 0.0201,0.07031 0.0201,0.08036 q 0.01,0.01758 0.0125,0.03516 0.005,0.01758 0.008,0.03516 l 0.0301,0.07031 0.0101,0.04018 0.01,0.03013 0.01,0.04018 0.0101,0.03013 0.01,0.04018 0.0904,0.321433 0.0603,0.170761 0.0402,0.140627 0.01,0.04018 v 0.03013 l 0.0201,0.04018 0.01,0.06027 q 0.0101,0.0075 0.0101,0.01507 v 0.005 l 0.01,0.02009 v 0.03013 q 0.0352,0.07534 0.0502,0.130582 l 0.01,0.07031 q 0.0427,0.09291 0.0502,0.170761 0.0176,0.03014 0.0201,0.05022 l 0.01,0.05022 q 0.01,0.01256 0.01,0.03013 0.0251,0.06027 0.0301,0.110493 0.0377,0.07282 0.0402,0.130582 0.0125,0.02009 0.0201,0.07031 0.0276,0.0678 0.0452,0.128071 0.0201,0.06027 0.0251,0.113003 l 0.0201,0.03014 0.0301,0.140626 0.0201,0.03013 v 0.04018 l 0.0201,0.03013 v 0.03013 q 0.0276,0.07031 0.0452,0.130582 0.0201,0.06027 0.0251,0.110493 l 0.0201,-0.04018 q 0.0176,-0.08789 0.0502,-0.160717 v -0.03013 l 0.01,-0.03013 0.01,-0.02009 0.0402,-0.140626 0.0301,-0.0904 0.01,-0.05022 0.01,-0.03013 0.0101,-0.05022 0.0201,-0.06027 0.01,-0.02009 0.0402,-0.140627 0.0201,-0.08036 0.0201,-0.04018 v -0.03013 l 0.0201,-0.04018 q 0.0176,-0.08036 0.0352,-0.145649 0.0201,-0.06529 0.0452,-0.115514 l 0.0201,-0.07031 0.0301,-0.140627 0.0201,-0.04018 0.01,-0.03013 v -0.03013 l 0.0201,-0.04018 q 0.0176,-0.09291 0.0502,-0.160717 l 0.01,-0.07031 0.0201,-0.05022 0.01,-0.02009 q 0.005,-0.02762 0.01,-0.04018 l 0.0101,-0.03013 v -0.03013 q 0.0452,-0.113004 0.0603,-0.19085 l 0.01,-0.03014 0.0402,-0.140626 0.0201,-0.08036 0.0804,-0.241074 q 0.008,-0.05525 0.0301,-0.100448 l 0.0201,-0.0904 h 0.66296 l -0.01,0.07031 -0.0301,0.0904 -0.0402,0.140626 -0.0201,0.08036 -0.0201,0.07031 -0.0301,0.07031 -0.0402,0.160717 -0.0301,0.0904 -0.0402,0.140627 -0.0201,0.08036 -0.0201,0.07031 -0.01,0.03013 -0.0101,0.02009 -0.0201,0.08036 -0.0201,0.07031 -0.01,0.02009 -0.0301,0.0904 v 0.03014 q -0.0477,0.113003 -0.0603,0.200895 l -0.0301,0.07031 q -0.0226,0.118026 -0.0603,0.200896 v 0.03013 l -0.0201,0.07031 -0.01,0.03013 -0.01,0.02009 -0.0402,0.160716 -0.0201,0.04018 q -0.0176,0.09292 -0.0502,0.160717 l -0.0301,0.140626 -0.0201,0.04018 -0.01,0.03013 -0.01,0.05022 -0.01,0.02009 q -0.0176,0.09291 -0.0502,0.160716 l -0.01,0.06027 -0.0201,0.05022 -0.0101,0.05022 -0.0201,0.04018 q -0.0151,0.09794 -0.0402,0.160716 l -0.0502,0.170761 -0.0301,0.110492 -0.0101,0.04018 -0.01,0.03014 -0.01,0.04018 -0.0301,0.07031 -0.0101,0.06027 -0.0402,0.120537 h -0.81362 q -0.0251,-0.07283 -0.0301,-0.120537 -0.0301,-0.05273 -0.0301,-0.100448 l -0.0201,-0.03013 -0.0301,-0.140627 q -0.0276,-0.04269 -0.0301,-0.08036 l -0.0201,-0.06027 q -0.01,-0.02762 -0.0126,-0.05273 -0.003,-0.02511 -0.008,-0.04771 -0.0176,-0.04018 -0.0301,-0.07283 -0.0126,-0.03516 -0.0201,-0.0678 l -0.0402,-0.160716 -0.0301,-0.07031 -0.0201,-0.07031 v -0.03013 q -0.0502,-0.118026 -0.0603,-0.200896 -0.0452,-0.113003 -0.0603,-0.19085 l -0.01,-0.05022 -0.0402,-0.100448 v -0.03013 l -0.01,-0.02009 -0.0502,-0.160717 v -0.03013 q -0.0176,-0.04018 -0.0276,-0.07283 -0.01,-0.03516 -0.0126,-0.0678 -0.01,-0.01256 -0.01,-0.03013 l -0.0603,-0.170761 -0.01,-0.07031 -0.0301,-0.07031 v -0.03013 q -0.0201,-0.03767 -0.0326,-0.07534 -0.01,-0.03767 -0.0176,-0.07534 l -0.0101,-0.05022 q -0.01,-0.01256 -0.01,-0.03014 l -0.01,-0.03013 q -0.0276,-0.06529 -0.0301,-0.110492 l -0.0402,-0.100448 -0.01,-0.06027 -0.0201,-0.06027 -0.0201,-0.05022 v -0.04018 q -0.0176,-0.03013 -0.0201,-0.05022 l -0.01,-0.04018 -0.0201,-0.05022 q -0.0176,-0.09291 -0.0502,-0.160716 v -0.04018 q -0.01,-0.01256 -0.01,-0.03013 -0.0251,-0.05525 -0.0301,-0.100448 -0.0251,-0.05525 -0.0301,-0.110493 -0.0477,-0.09291 -0.0502,-0.170761 z" />
      <path
         id="path942"
         style=""
         d="m 315.61322,36.56575 h 0.81363 l 0.0201,0.08036 q 0.01,0.01758 0.0126,0.03516 0.005,0.01758 0.008,0.03516 l 0.0201,0.04018 0.0301,0.100448 0.0101,0.02009 0.01,0.04018 0.01,0.03014 0.0101,0.04018 0.0301,0.07031 0.01,0.02009 v 0.03013 q 0.0201,0.03516 0.0301,0.07031 0.0126,0.03265 0.0201,0.06027 l 0.01,0.04018 0.01,0.02009 v 0.03014 q 0.0201,0.03516 0.0301,0.07031 0.0125,0.03265 0.0201,0.06027 l 0.0201,0.08036 q 0.0377,0.06529 0.0402,0.120537 l 0.0301,0.07031 0.0201,0.08036 0.0201,0.07031 q 0.01,0.01256 0.01,0.03013 l 0.0201,0.03013 0.0101,0.04018 q 0.005,0.02511 0.0151,0.0452 0.01,0.02009 0.0151,0.03516 v 0.03013 q 0.0502,0.09291 0.0603,0.180806 0.0176,0.03264 0.0201,0.06027 0.0176,0.03265 0.0201,0.06027 l 0.0402,0.120537 0.01,0.02009 0.0101,0.04018 0.01,0.03013 0.01,0.04018 0.0301,0.07031 0.0101,0.02009 v 0.03013 q 0.0201,0.03516 0.0326,0.07031 0.0126,0.03265 0.0176,0.06027 l 0.01,0.06027 q 0.0402,0.07785 0.0502,0.140626 0.0477,0.107982 0.0603,0.190851 0.0176,0.03264 0.0201,0.06027 l 0.0301,0.06027 0.0201,0.06027 q 0.0126,0.06027 0.0301,0.100447 l 0.0201,0.0904 0.0301,0.06027 0.0201,0.0904 0.0201,0.04018 0.01,0.04018 q 0.0276,0.06529 0.0452,0.123048 0.0176,0.05776 0.0251,0.107982 l 0.0201,0.03013 v 0.03013 q 0.01,0.01256 0.01,0.03013 0.0276,0.04269 0.0301,0.08036 0.0326,0.07031 0.0402,0.120537 h -0.66295 l -0.0101,-0.04018 -0.0201,-0.04018 -0.01,-0.06027 q -0.01,-0.01256 -0.01,-0.03013 -0.0477,-0.09543 -0.0603,-0.180806 l -0.0201,-0.03013 -0.0101,-0.04018 q -0.005,-0.02511 -0.0151,-0.0452 -0.008,-0.02009 -0.0151,-0.03516 v -0.03013 q -0.0477,-0.09542 -0.0603,-0.180806 h -1.52681 l -0.01,0.04018 -0.0201,0.04018 -0.01,0.05022 -0.01,0.04018 q -0.0126,0.02762 -0.0251,0.05525 -0.0101,0.02762 -0.0151,0.05525 l -0.01,0.03013 -0.0201,0.04018 q -0.005,0.02762 -0.01,0.04018 l -0.01,0.04018 -0.0101,0.03014 -0.01,0.02009 -0.0703,0.23103 h -0.66296 v -0.03014 l 0.0201,-0.06027 0.01,-0.04018 q 0.0226,-0.05022 0.0301,-0.08036 l 0.01,-0.02009 0.0201,-0.08036 0.0201,-0.07031 0.0603,-0.170761 0.0301,-0.100448 0.0201,-0.06027 q 0.0226,-0.05022 0.0301,-0.08036 l 0.0402,-0.120537 0.0804,-0.251119 0.0603,-0.190851 q 0.0251,-0.05525 0.0377,-0.100447 0.0126,-0.0452 0.0226,-0.08036 l 0.01,-0.04018 0.0201,-0.03014 q 0.008,-0.05776 0.0301,-0.110492 l 0.0201,-0.06027 0.01,-0.04018 q 0.0226,-0.05022 0.0301,-0.08036 l 0.0101,-0.02009 0.0201,-0.08036 0.0201,-0.07031 0.0301,-0.07031 0.0301,-0.100448 0.0301,-0.0904 0.01,-0.02009 0.0603,-0.190851 0.01,-0.04018 0.0804,-0.251119 q 0.0326,-0.0678 0.0402,-0.120537 l 0.1105,-0.311388 v -0.03013 l 0.0201,-0.05022 0.01,-0.03013 0.01,-0.04018 0.0201,-0.04018 0.01,-0.03013 0.01,-0.04018 0.0101,-0.03013 0.01,-0.04018 0.0301,-0.07031 0.0301,-0.120537 z m 0.40179,0.843761 -0.0603,0.170761 -0.0201,0.07031 -0.0301,0.07031 -0.01,0.06027 -0.0201,0.06027 -0.0301,0.06027 -0.01,0.06027 -0.0301,0.06027 v 0.03014 l -0.0201,0.03013 q -0.0251,0.130582 -0.0603,0.21094 l -0.01,0.04018 -0.0201,0.05022 -0.0603,0.170761 -0.0301,0.110492 -0.0201,0.05022 -0.0101,0.04018 -0.0201,0.05022 -0.01,0.04018 -0.0301,0.0904 -0.01,0.02009 q -0.0301,0.115515 -0.0603,0.180805 h 1.15515 l -0.0201,-0.08036 -0.0301,-0.07031 -0.0201,-0.07031 -0.0301,-0.07031 -0.0502,-0.170761 -0.0201,-0.08036 -0.0301,-0.07031 -0.01,-0.05022 q -0.0176,-0.03013 -0.0201,-0.05022 l -0.0502,-0.140627 -0.01,-0.04018 -0.0201,-0.04018 v -0.03013 l -0.0603,-0.160716 -0.01,-0.06027 q -0.0176,-0.03265 -0.0201,-0.06027 l -0.0301,-0.06027 -0.0201,-0.0904 q -0.01,-0.01256 -0.01,-0.03013 -0.0101,-0.01256 -0.0101,-0.03013 l -0.0201,-0.03013 v -0.03013 q -0.0251,-0.05525 -0.0301,-0.100448 -0.005,-0.005 -0.008,-0.0075 -0.003,-0.005 -0.003,-0.01004 v -0.0025 l -0.0502,-0.120538 z" />
    </g>
    <g
       style="font-style:normal;font-variant:normal;font-weight:normal;font-stretch:normal;font-size:5.14292px;line-height:1.25;font-family:Transport;-inkscape-font-specification:'Transport Normal';font-variant-ligatures:normal;font-variant-caps:normal;font-variant-numeric:normal;font-variant-east-asian:normal;display:inline;stroke:#000000;stroke-width:0.193308"
       id="text1066-2"
       aria-label="SEVILLA">
      <path
         id="path945"
         style="font-style:normal;font-variant:normal;font-weight:normal;font-stretch:normal;font-size:5.14292px;font-family:Transport;-inkscape-font-specification:'Transport Normal';font-variant-ligatures:normal;font-variant-caps:normal;font-variant-numeric:normal;font-variant-east-asian:normal;stroke:#000000;stroke-width:0.193308"
         d="m 299.18677,29.257618 -0.0502,0.03013 q -0.0251,0.02762 -0.0477,0.04771 -0.0226,0.02009 -0.0427,0.03265 l -0.0502,0.05022 -0.0301,0.01004 q -0.0477,0.06027 -0.10044,0.08036 -0.0477,0.06529 -0.12054,0.100447 -0.0301,0.04018 -0.0603,0.06027 -0.35659,-0.469593 -0.8739,-0.469593 -0.0552,0 -0.12053,0.0075 -0.46206,0.01507 -0.59264,0.40179 0,0.266187 0.16071,0.44197 l 0.0703,0.04018 0.0301,0.01005 0.11049,0.05022 h 0.0502 l 0.0402,0.01004 0.0502,0.01004 q 0.0578,0.0226 0.10045,0.03014 l 0.0804,0.02009 h 0.0301 l 0.33148,0.08036 h 0.0301 l 0.0301,0.01005 h 0.0301 l 0.0301,0.01004 0.14063,0.03013 0.0301,0.01005 0.0402,0.01004 0.0804,0.03013 q 0.12807,0.03264 0.21094,0.08036 l 0.0201,0.02009 0.0301,0.01005 0.0201,0.03014 q 0.0377,0.02009 0.0603,0.04018 0.0176,0.01004 0.0201,0.02009 l 0.12054,0.110493 q 0.21094,0.311387 0.21094,0.635331 0,0.170761 -0.0603,0.349056 -0.16574,0.565018 -0.64286,0.783491 -0.0628,0.04018 -0.12054,0.06027 -0.15067,0.03013 -0.2913,0.0452 -0.14062,0.01256 -0.27623,0.01256 -0.94672,0 -1.56196,-0.730756 l 0.01,-0.02009 0.0201,-0.01005 q 0.0101,-0.01004 0.0176,-0.01004 h 0.003 q 0.0553,-0.06529 0.12054,-0.100448 l 0.0301,-0.03013 0.12053,-0.100448 0.0201,-0.01004 q 0.01,-0.01005 0.0176,-0.01005 h 0.003 q 0.0402,-0.04269 0.0779,-0.07533 0.0377,-0.03516 0.0728,-0.05525 h 0.0301 q 0.4269,0.557485 0.96681,0.557485 0.28376,0 0.59013,-0.145649 0.0577,-0.06529 0.11049,-0.100448 l 0.01,-0.03013 q 0.0578,-0.08036 0.0804,-0.160716 0.003,-0.01758 0.003,-0.03265 0,-0.01507 0,-0.03013 0,-0.288787 -0.22349,-0.449503 l -0.0301,-0.01005 q -0.0552,-0.0226 -0.10045,-0.03013 l -0.0201,-0.02009 h -0.0301 l -0.0402,-0.01005 -0.0201,-0.01004 h -0.0301 l -0.0201,-0.01004 q -0.0979,-0.01507 -0.16072,-0.04018 h -0.0301 l -0.0804,-0.02009 h -0.0301 l -0.0402,-0.01005 -0.0201,-0.01004 q -0.0979,-0.01507 -0.16072,-0.04018 -1.00448,-0.115515 -1.11497,-1.034611 0.0226,-1.092369 1.19533,-1.195327 0.0578,-0.005 0.113,-0.0075 0.0553,-0.0025 0.10798,-0.0025 0.86888,0 1.31587,0.65291 z" />
      <path
         id="path947"
         style="font-style:normal;font-variant:normal;font-weight:normal;font-stretch:normal;font-size:5.14292px;font-family:Transport;-inkscape-font-specification:'Transport Normal';font-variant-ligatures:normal;font-variant-caps:normal;font-variant-numeric:normal;font-variant-east-asian:normal;stroke:#000000;stroke-width:0.193308"
         d="m 300.35949,28.695111 h 2.41075 v 0.602686 h -1.74779 v 0.964297 q 0.003,0.04018 0.0377,0.04018 h 1.55945 v 0.592641 h -1.59712 v 1.004477 q 0,0.05022 0.0402,0.05022 h 1.8181 v 0.592641 h -2.52124 z" />
      <path
         id="path949"
         style="font-style:normal;font-variant:normal;font-weight:normal;font-stretch:normal;font-size:5.14292px;font-family:Transport;-inkscape-font-specification:'Transport Normal';font-variant-ligatures:normal;font-variant-caps:normal;font-variant-numeric:normal;font-variant-east-asian:normal;stroke:#000000;stroke-width:0.193308"
         d="m 303.51606,28.695111 h 0.66296 l 0.0201,0.07031 0.0201,0.08036 q 0.01,0.01758 0.0125,0.03516 0.005,0.01758 0.008,0.03516 l 0.0301,0.07031 0.01,0.04018 0.0101,0.03013 0.01,0.04018 0.01,0.03014 0.01,0.04018 0.0904,0.321432 0.0603,0.170761 0.0402,0.140627 0.01,0.04018 v 0.03013 l 0.0201,0.04018 0.01,0.06027 q 0.01,0.0075 0.01,0.01507 v 0.005 l 0.01,0.02009 v 0.03013 q 0.0352,0.07534 0.0502,0.130582 l 0.01,0.07031 q 0.0427,0.09291 0.0502,0.170761 0.0176,0.03013 0.0201,0.05022 l 0.01,0.05022 q 0.01,0.01256 0.01,0.03014 0.0251,0.06027 0.0301,0.110492 0.0377,0.07283 0.0402,0.130582 0.0126,0.02009 0.0201,0.07031 0.0276,0.0678 0.0452,0.128071 0.0201,0.06027 0.0251,0.113004 l 0.0201,0.03013 0.0301,0.140627 0.0201,0.03013 v 0.04018 l 0.0201,0.03013 v 0.03013 q 0.0276,0.07031 0.0452,0.130582 0.0201,0.06027 0.0251,0.110492 l 0.0201,-0.04018 q 0.0176,-0.08789 0.0502,-0.160716 v -0.03014 l 0.01,-0.03013 0.01,-0.02009 0.0402,-0.140627 0.0301,-0.0904 0.0101,-0.05022 0.01,-0.03013 0.01,-0.05022 0.0201,-0.06027 0.01,-0.02009 0.0402,-0.140627 0.0201,-0.08036 0.0201,-0.04018 v -0.03013 l 0.0201,-0.04018 q 0.0176,-0.08036 0.0352,-0.145649 0.0201,-0.06529 0.0452,-0.115515 l 0.0201,-0.07031 0.0301,-0.140626 0.0201,-0.04018 0.01,-0.03014 v -0.03013 l 0.0201,-0.04018 q 0.0176,-0.09291 0.0502,-0.160716 l 0.01,-0.07031 0.0201,-0.05022 0.0101,-0.02009 q 0.005,-0.02762 0.01,-0.04018 l 0.01,-0.03013 v -0.03013 q 0.0452,-0.113003 0.0603,-0.19085 l 0.01,-0.03013 0.0402,-0.140626 0.0201,-0.08036 0.0804,-0.241075 q 0.008,-0.05525 0.0301,-0.100447 l 0.0201,-0.0904 h 0.66296 l -0.0101,0.07031 -0.0301,0.0904 -0.0402,0.140627 -0.0201,0.08036 -0.0201,0.07031 -0.0301,0.07031 -0.0402,0.160717 -0.0301,0.0904 -0.0402,0.140626 -0.0201,0.08036 -0.0201,0.07031 -0.01,0.03013 -0.01,0.02009 -0.0201,0.08036 -0.0201,0.07031 -0.01,0.02009 -0.0301,0.0904 v 0.03013 q -0.0477,0.113003 -0.0603,0.200895 l -0.0301,0.07031 q -0.0226,0.118026 -0.0603,0.200895 v 0.03013 l -0.0201,0.07031 -0.01,0.03013 -0.01,0.02009 -0.0402,0.160717 -0.0201,0.04018 q -0.0176,0.09291 -0.0502,0.160716 l -0.0301,0.140627 -0.0201,0.04018 -0.0101,0.03013 -0.01,0.05022 -0.01,0.02009 q -0.0176,0.09291 -0.0502,0.160717 l -0.01,0.06027 -0.0201,0.05022 -0.01,0.05022 -0.0201,0.04018 q -0.0151,0.09794 -0.0402,0.160716 l -0.0502,0.170761 -0.0301,0.110493 -0.01,0.04018 -0.0101,0.03013 -0.01,0.04018 -0.0301,0.07031 -0.01,0.06027 -0.0402,0.120537 h -0.81362 q -0.0251,-0.07282 -0.0301,-0.120537 -0.0301,-0.05273 -0.0301,-0.100448 l -0.0201,-0.03013 -0.0301,-0.140627 q -0.0276,-0.04269 -0.0301,-0.08036 l -0.0201,-0.06027 q -0.0101,-0.02762 -0.0126,-0.05274 -0.003,-0.02511 -0.008,-0.04771 -0.0176,-0.04018 -0.0301,-0.07283 -0.0126,-0.03516 -0.0201,-0.0678 l -0.0402,-0.160716 -0.0301,-0.07031 -0.0201,-0.07031 v -0.03013 q -0.0502,-0.118026 -0.0603,-0.200895 -0.0452,-0.113004 -0.0603,-0.190851 l -0.0101,-0.05022 -0.0402,-0.100447 v -0.03013 l -0.01,-0.02009 -0.0502,-0.160716 v -0.03013 q -0.0176,-0.04018 -0.0276,-0.07282 -0.01,-0.03516 -0.0126,-0.0678 -0.01,-0.01255 -0.01,-0.03013 l -0.0603,-0.170761 -0.01,-0.07031 -0.0301,-0.07031 v -0.03013 q -0.0201,-0.03767 -0.0326,-0.07534 -0.0101,-0.03767 -0.0176,-0.07533 l -0.01,-0.05022 q -0.01,-0.01256 -0.01,-0.03013 l -0.0101,-0.03014 q -0.0276,-0.06529 -0.0301,-0.110492 l -0.0402,-0.100448 -0.01,-0.06027 -0.0201,-0.06027 -0.0201,-0.05022 v -0.04018 q -0.0176,-0.03013 -0.0201,-0.05022 l -0.01,-0.04018 -0.0201,-0.05022 q -0.0176,-0.09291 -0.0502,-0.160716 v -0.04018 q -0.01,-0.01256 -0.01,-0.03013 -0.0251,-0.05525 -0.0301,-0.100448 -0.0251,-0.05525 -0.0301,-0.110492 -0.0477,-0.09291 -0.0502,-0.170761 z" />
      <path
         id="path951"
         style="font-style:normal;font-variant:normal;font-weight:normal;font-stretch:normal;font-size:5.14292px;font-family:Transport;-inkscape-font-specification:'Transport Normal';font-variant-ligatures:normal;font-variant-caps:normal;font-variant-numeric:normal;font-variant-east-asian:normal;stroke:#000000;stroke-width:0.193308"
         d="m 307.49379,28.705155 h 0.66295 v 3.837101 h -0.66295 z" />
      <path
         id="path953"
         style="font-style:normal;font-variant:normal;font-weight:normal;font-stretch:normal;font-size:5.14292px;font-family:Transport;-inkscape-font-specification:'Transport Normal';font-variant-ligatures:normal;font-variant-caps:normal;font-variant-numeric:normal;font-variant-east-asian:normal;stroke:#000000;stroke-width:0.193308"
         d="m 309.47261,28.695111 h 0.66295 v 3.244459 h 1.49667 v 0.592641 h -2.15962 z" />
      <path
         id="path955"
         style="font-style:normal;font-variant:normal;font-weight:normal;font-stretch:normal;font-size:5.14292px;font-family:Transport;-inkscape-font-specification:'Transport Normal';font-variant-ligatures:normal;font-variant-caps:normal;font-variant-numeric:normal;font-variant-east-asian:normal;stroke:#000000;stroke-width:0.193308"
         d="m 312.38559,28.695111 h 0.66295 v 3.244459 h 1.49667 v 0.592641 h -2.15962 z" />
      <path
         id="path957"
         style="font-style:normal;font-variant:normal;font-weight:normal;font-stretch:normal;font-size:5.14292px;font-family:Transport;-inkscape-font-specification:'Transport Normal';font-variant-ligatures:normal;font-variant-caps:normal;font-variant-numeric:normal;font-variant-east-asian:normal;stroke:#000000;stroke-width:0.193308"
         d="m 316.07955,28.695111 h 0.81363 l 0.0201,0.08036 q 0.01,0.01758 0.0125,0.03516 0.005,0.01758 0.008,0.03516 l 0.0201,0.04018 0.0301,0.100448 0.01,0.02009 0.01,0.04018 0.01,0.03014 0.01,0.04018 0.0301,0.07031 0.01,0.02009 v 0.03013 q 0.0201,0.03516 0.0301,0.07031 0.0126,0.03265 0.0201,0.06027 l 0.01,0.04018 0.01,0.02009 v 0.03013 q 0.0201,0.03516 0.0301,0.07031 0.0125,0.03265 0.0201,0.06027 l 0.0201,0.08036 q 0.0377,0.06529 0.0402,0.120537 l 0.0301,0.07031 0.0201,0.08036 0.0201,0.07031 q 0.01,0.01256 0.01,0.03013 l 0.0201,0.03014 0.01,0.04018 q 0.005,0.02511 0.0151,0.0452 0.0101,0.02009 0.0151,0.03516 v 0.03013 q 0.0502,0.09291 0.0603,0.180806 0.0176,0.03264 0.0201,0.06027 0.0176,0.03265 0.0201,0.06027 l 0.0402,0.120537 0.01,0.02009 0.01,0.04018 0.01,0.03013 0.01,0.04018 0.0301,0.07031 0.01,0.02009 v 0.03013 q 0.0201,0.03516 0.0326,0.07031 0.0126,0.03264 0.0176,0.06027 l 0.01,0.06027 q 0.0402,0.07785 0.0502,0.140627 0.0477,0.107981 0.0603,0.19085 0.0176,0.03265 0.0201,0.06027 l 0.0301,0.06027 0.0201,0.06027 q 0.0126,0.06027 0.0301,0.100448 l 0.0201,0.0904 0.0301,0.06027 0.0201,0.0904 0.0201,0.04018 0.01,0.04018 q 0.0276,0.06529 0.0452,0.123048 0.0176,0.05776 0.0251,0.107982 l 0.0201,0.03013 v 0.03013 q 0.0101,0.01256 0.0101,0.03014 0.0276,0.04269 0.0301,0.08036 0.0326,0.07031 0.0402,0.120537 h -0.66295 l -0.01,-0.04018 -0.0201,-0.04018 -0.01,-0.06027 q -0.0101,-0.01256 -0.0101,-0.03013 -0.0477,-0.09543 -0.0603,-0.180806 l -0.0201,-0.03013 -0.01,-0.04018 q -0.005,-0.02511 -0.0151,-0.0452 -0.008,-0.02009 -0.0151,-0.03516 v -0.03014 q -0.0477,-0.09543 -0.0603,-0.180805 h -1.52681 l -0.01,0.04018 -0.0201,0.04018 -0.01,0.05022 -0.0101,0.04018 q -0.0126,0.02762 -0.0251,0.05525 -0.01,0.02762 -0.0151,0.05525 l -0.01,0.03013 -0.0201,0.04018 q -0.005,0.02762 -0.01,0.04018 l -0.01,0.04018 -0.01,0.03014 -0.01,0.02009 -0.0703,0.23103 H 314.834 v -0.03013 l 0.0201,-0.06027 0.01,-0.04018 q 0.0226,-0.05022 0.0301,-0.08036 l 0.01,-0.02009 0.0201,-0.08036 0.0201,-0.07031 0.0603,-0.170761 0.0301,-0.100448 0.0201,-0.06027 q 0.0226,-0.05022 0.0301,-0.08036 l 0.0402,-0.120537 0.0804,-0.251119 0.0603,-0.19085 q 0.0251,-0.05525 0.0377,-0.100448 0.0126,-0.0452 0.0226,-0.08036 l 0.01,-0.04018 0.0201,-0.03014 q 0.008,-0.05776 0.0301,-0.110492 l 0.0201,-0.06027 0.0101,-0.04018 q 0.0226,-0.05022 0.0301,-0.08036 l 0.01,-0.02009 0.0201,-0.08036 0.0201,-0.07031 0.0301,-0.07031 0.0301,-0.100448 0.0301,-0.0904 0.01,-0.02009 0.0603,-0.190851 0.01,-0.04018 0.0804,-0.251119 q 0.0326,-0.0678 0.0402,-0.120537 l 0.1105,-0.311388 v -0.03013 l 0.0201,-0.05022 0.01,-0.03013 0.01,-0.04018 0.0201,-0.04018 0.0101,-0.03013 0.01,-0.04018 0.01,-0.03013 0.01,-0.04018 0.0301,-0.07031 0.0301,-0.120537 z m 0.40179,0.84376 -0.0603,0.170761 -0.0201,0.07031 -0.0301,0.07031 -0.0101,0.06027 -0.0201,0.06027 -0.0301,0.06027 -0.01,0.06027 -0.0301,0.06027 v 0.03013 l -0.0201,0.03013 q -0.0251,0.130582 -0.0603,0.21094 l -0.01,0.04018 -0.0201,0.05022 -0.0603,0.170761 -0.0301,0.110493 -0.0201,0.05022 -0.01,0.04018 -0.0201,0.05022 -0.01,0.04018 -0.0301,0.0904 -0.01,0.02009 q -0.0301,0.115515 -0.0603,0.180806 h 1.15515 l -0.0201,-0.08036 -0.0301,-0.07031 -0.0201,-0.07031 -0.0301,-0.07031 -0.0502,-0.170761 -0.0201,-0.08036 -0.0301,-0.07031 -0.01,-0.05022 q -0.0176,-0.03013 -0.0201,-0.05022 l -0.0502,-0.140626 -0.01,-0.04018 -0.0201,-0.04018 v -0.03013 l -0.0603,-0.160716 -0.01,-0.06027 q -0.0176,-0.03265 -0.0201,-0.06027 l -0.0301,-0.06027 -0.0201,-0.0904 q -0.01,-0.01256 -0.01,-0.03013 -0.01,-0.01256 -0.01,-0.03013 l -0.0201,-0.03013 v -0.03013 q -0.0251,-0.05525 -0.0301,-0.100448 -0.005,-0.005 -0.008,-0.0075 -0.003,-0.005 -0.003,-0.01004 v -0.0025 l -0.0502,-0.120537 z" />
    </g>
    <path
       inkscape:connector-curvature="0"
       id="path1176"
       d="M 265.79954,15.635267 292.9274,7.7508163"
       style="fill:none;stroke:#000000;stroke-width:1;stroke-linecap:butt;stroke-linejoin:miter;stroke-opacity:1" />
    <path
       style="display:inline;fill:none;stroke:#000000;stroke-width:1;stroke-linecap:butt;stroke-linejoin:miter;stroke-opacity:1"
       d="M 266.13364,7.9512685 293.2615,15.83572"
       id="path1176-2"
       inkscape:connector-curvature="0" />
    <path
       d="m 294.4021,27.667114 h 26.04934 v 6.004124 H 294.4021 Z"
       style="fill:none;fill-opacity:1;fill-rule:evenodd;stroke:#000000;stroke-width:0.75;stroke-linecap:round;stroke-dashoffset:11.3386;stop-color:#000000"
       id="rect1193" />
  </g>
  <g
     style="display:inline;opacity:0.434084"
     inkscape:label="calco"
     id="layer1"
     inkscape:groupmode="layer"
     transform="translate(-257.01941,-2.7249928)" />
</svg>
