<?xml version="1.0" encoding="UTF-8" standalone="no"?>
<svg
   xmlns:dc="http://purl.org/dc/elements/1.1/"
   xmlns:cc="http://creativecommons.org/ns#"
   xmlns:rdf="http://www.w3.org/1999/02/22-rdf-syntax-ns#"
   xmlns:svg="http://www.w3.org/2000/svg"
   xmlns="http://www.w3.org/2000/svg"
   xmlns:sodipodi="http://sodipodi.sourceforge.net/DTD/sodipodi-0.dtd"
   xmlns:inkscape="http://www.inkscape.org/namespaces/inkscape"
   sodipodi:docname="Señal_TS-800.svg"
   inkscape:version="1.0beta1 (76ce730, 2019-10-19)"
   id="svg8"
   version="1.1"
   viewBox="0 0 82.76381 21.356511"
   height="21.35651mm"
   width="82.763809mm">
  <defs
     id="defs2">
    <inkscape:path-effect
       end_linecap_type="zerowidth"
       scale_width="1"
       miter_limit="4"
       linejoin_type="extrp_arc"
       start_linecap_type="zerowidth"
       interpolator_beta="0.2"
       interpolator_type="CubicBezierJohan"
       sort_points="true"
       offset_points="1,0.1322915"
       is_visible="true"
       id="path-effect1382"
       effect="powerstroke" />
    <inkscape:path-effect
       end_linecap_type="zerowidth"
       scale_width="1"
       miter_limit="4"
       linejoin_type="extrp_arc"
       start_linecap_type="zerowidth"
       interpolator_beta="0.2"
       interpolator_type="CubicBezierJohan"
       sort_points="true"
       offset_points="1,0.1322915"
       is_visible="true"
       id="path-effect1378"
       effect="powerstroke" />
    <inkscape:path-effect
       end_linecap_type="zerowidth"
       scale_width="1"
       miter_limit="4"
       linejoin_type="extrp_arc"
       start_linecap_type="zerowidth"
       interpolator_beta="0.2"
       interpolator_type="CubicBezierJohan"
       sort_points="true"
       offset_points="1,0.1322915"
       is_visible="true"
       id="path-effect1374"
       effect="powerstroke" />
    <inkscape:path-effect
       end_linecap_type="zerowidth"
       scale_width="1"
       miter_limit="4"
       linejoin_type="extrp_arc"
       start_linecap_type="zerowidth"
       interpolator_beta="0.2"
       interpolator_type="CubicBezierJohan"
       sort_points="true"
       offset_points="1,0.1322915"
       is_visible="true"
       id="path-effect1370"
       effect="powerstroke" />
    <inkscape:path-effect
       end_linecap_type="zerowidth"
       scale_width="1"
       miter_limit="4"
       linejoin_type="extrp_arc"
       start_linecap_type="zerowidth"
       interpolator_beta="0.2"
       interpolator_type="CubicBezierJohan"
       sort_points="true"
       offset_points="0,0.1322915"
       is_visible="true"
       id="path-effect1366"
       effect="powerstroke" />
    <inkscape:path-effect
       end_linecap_type="zerowidth"
       scale_width="1"
       miter_limit="4"
       linejoin_type="extrp_arc"
       start_linecap_type="zerowidth"
       interpolator_beta="0.2"
       interpolator_type="CubicBezierJohan"
       sort_points="true"
       offset_points="0,0.1322915"
       is_visible="true"
       id="path-effect1362"
       effect="powerstroke" />
    <inkscape:path-effect
       end_linecap_type="zerowidth"
       scale_width="1"
       miter_limit="4"
       linejoin_type="extrp_arc"
       start_linecap_type="zerowidth"
       interpolator_beta="0.2"
       interpolator_type="CubicBezierJohan"
       sort_points="true"
       offset_points="0,0.1322915"
       is_visible="true"
       id="path-effect1358"
       effect="powerstroke" />
    <inkscape:path-effect
       end_linecap_type="zerowidth"
       scale_width="1"
       miter_limit="4"
       linejoin_type="extrp_arc"
       start_linecap_type="zerowidth"
       interpolator_beta="0.2"
       interpolator_type="CubicBezierJohan"
       sort_points="true"
       offset_points="0,0.1322915"
       is_visible="true"
       id="path-effect1354"
       effect="powerstroke" />
    <inkscape:path-effect
       end_linecap_type="zerowidth"
       scale_width="1"
       miter_limit="4"
       linejoin_type="extrp_arc"
       start_linecap_type="zerowidth"
       interpolator_beta="0.2"
       interpolator_type="CubicBezierJohan"
       sort_points="true"
       offset_points="0,0.1322915"
       is_visible="true"
       id="path-effect1350"
       effect="powerstroke" />
    <inkscape:path-effect
       end_linecap_type="zerowidth"
       scale_width="1"
       miter_limit="4"
       linejoin_type="extrp_arc"
       start_linecap_type="zerowidth"
       interpolator_beta="0.2"
       interpolator_type="CubicBezierJohan"
       sort_points="true"
       offset_points="0,0.1322915"
       is_visible="true"
       id="path-effect1346"
       effect="powerstroke" />
    <inkscape:path-effect
       end_linecap_type="zerowidth"
       scale_width="1"
       miter_limit="4"
       linejoin_type="extrp_arc"
       start_linecap_type="zerowidth"
       interpolator_beta="0.2"
       interpolator_type="CubicBezierJohan"
       sort_points="true"
       offset_points="0,0.1322915"
       is_visible="true"
       id="path-effect1342"
       effect="powerstroke" />
    <inkscape:path-effect
       overflow_perspective="false"
       vertical_mirror="false"
       horizontal_mirror="false"
       deform_type="perspective"
       is_visible="true"
       id="path-effect31"
       down_right_point="68.791666,196.92559"
       down_left_point="30.238094,196.92559"
       up_right_point="68.791666,48.380951"
       up_left_point="28.54,48.380951"
       effect="perspective-envelope" />
    <inkscape:path-effect
       spray_tool_friendly="false"
       fixed_displacement="false"
       shift_nodes="true"
       handles="along"
       global_randomize="1.6;1"
       displace_y="10;1"
       displace_x="10;1"
       segments="2"
       max_segment_size="28"
       method="segments"
       is_visible="true"
       id="path-effect29"
       effect="roughen" />
    <filter
       id="filter99"
       inkscape:label="Ink Blot"
       height="1.3"
       y="-0.15000001"
       width="1.3"
       x="-0.15000001"
       style="color-interpolation-filters:sRGB">
      <feGaussianBlur
         id="feGaussianBlur89"
         result="blur1"
         stdDeviation="10 10"
         in="SourceGraphic" />
      <feTurbulence
         id="feTurbulence91"
         result="turbulence"
         seed="0"
         numOctaves="3"
         baseFrequency="0.04"
         type="fractalNoise" />
      <feDisplacementMap
         id="feDisplacementMap93"
         result="map"
         scale="50"
         yChannelSelector="G"
         xChannelSelector="R"
         in2="turbulence"
         in="blur1" />
      <feGaussianBlur
         id="feGaussianBlur95"
         result="blur2"
         stdDeviation="5"
         in="map" />
      <feComposite
         id="feComposite97"
         result="composite"
         operator="over"
         in2="map"
         in="blur2" />
    </filter>
    <filter
       style="color-interpolation-filters:sRGB"
       x="-0.15000001"
       width="1.3"
       y="-0.15000001"
       height="1.3"
       inkscape:label="Ink Blot"
       id="filter99-7">
      <feGaussianBlur
         in="SourceGraphic"
         stdDeviation="10 10"
         result="blur1"
         id="feGaussianBlur89-0" />
      <feTurbulence
         type="fractalNoise"
         baseFrequency="0.04"
         numOctaves="3"
         seed="0"
         result="turbulence"
         id="feTurbulence91-3" />
      <feDisplacementMap
         in="blur1"
         in2="turbulence"
         xChannelSelector="R"
         yChannelSelector="G"
         scale="50"
         result="map"
         id="feDisplacementMap93-9" />
      <feGaussianBlur
         in="map"
         stdDeviation="5"
         result="blur2"
         id="feGaussianBlur95-9" />
      <feComposite
         in="blur2"
         in2="map"
         operator="over"
         result="composite"
         id="feComposite97-9" />
    </filter>
    <filter
       id="filter1530"
       style="color-interpolation-filters:sRGB"
       inkscape:menu-tooltip="Detect color edges and retrace them in blue"
       inkscape:menu="Image Paint and Draw"
       inkscape:label="Blueprint">
      <feConvolveMatrix
         id="feConvolveMatrix1526"
         bias="0"
         result="result0"
         preserveAlpha="true"
         targetY="1"
         targetX="1"
         divisor="1"
         in="SourceGraphic"
         kernelMatrix="1 1 1 1 -8 1 1 1 1"
         order="3 3" />
      <feColorMatrix
         id="feColorMatrix1528"
         values="-0.15 -0.3 -0.05 0 1 -0.15 -0.3 -0.05 0 1 0 0 0 0 1 0 0 0 1 0"
         result="result3" />
    </filter>
    <filter
       id="filter1536"
       style="color-interpolation-filters:sRGB"
       inkscape:menu-tooltip="Detect color edges and retrace them in blue"
       inkscape:menu="Image Paint and Draw"
       inkscape:label="Blueprint">
      <feConvolveMatrix
         id="feConvolveMatrix1532"
         bias="0"
         result="result0"
         preserveAlpha="true"
         targetY="1"
         targetX="1"
         divisor="1"
         in="SourceGraphic"
         kernelMatrix="1 1 1 1 -8 1 1 1 1"
         order="3 3" />
      <feColorMatrix
         id="feColorMatrix1534"
         values="-0.15 -0.3 -0.05 0 1 -0.15 -0.3 -0.05 0 1 0 0 0 0 1 0 0 0 1 0"
         result="result3" />
    </filter>
    <filter
       id="filter1542"
       style="color-interpolation-filters:sRGB"
       inkscape:menu-tooltip="Detect color edges and retrace them in blue"
       inkscape:menu="Image Paint and Draw"
       inkscape:label="Blueprint">
      <feConvolveMatrix
         id="feConvolveMatrix1538"
         bias="0"
         result="result0"
         preserveAlpha="true"
         targetY="1"
         targetX="1"
         divisor="1"
         in="SourceGraphic"
         kernelMatrix="1 1 1 1 -8 1 1 1 1"
         order="3 3" />
      <feColorMatrix
         id="feColorMatrix1540"
         values="-0.15 -0.3 -0.05 0 1 -0.15 -0.3 -0.05 0 1 0 0 0 0 1 0 0 0 1 0"
         result="result3" />
    </filter>
    <filter
       id="filter1548"
       style="color-interpolation-filters:sRGB"
       inkscape:menu-tooltip="Detect color edges and retrace them in blue"
       inkscape:menu="Image Paint and Draw"
       inkscape:label="Blueprint">
      <feConvolveMatrix
         id="feConvolveMatrix1544"
         bias="0"
         result="result0"
         preserveAlpha="true"
         targetY="1"
         targetX="1"
         divisor="1"
         in="SourceGraphic"
         kernelMatrix="1 1 1 1 -8 1 1 1 1"
         order="3 3" />
      <feColorMatrix
         id="feColorMatrix1546"
         values="-0.15 -0.3 -0.05 0 1 -0.15 -0.3 -0.05 0 1 0 0 0 0 1 0 0 0 1 0"
         result="result3" />
    </filter>
    <filter
       id="filter1742"
       style="color-interpolation-filters:sRGB"
       inkscape:menu-tooltip="Detect color edges and retrace them in grayscale"
       inkscape:menu="Image Paint and Draw"
       inkscape:label="Pencil">
      <feConvolveMatrix
         id="feConvolveMatrix1738"
         order="3 3"
         kernelMatrix="1 1 1 1 -8 1 1 1 1"
         in="SourceGraphic"
         divisor="1"
         targetX="1"
         targetY="1"
         preserveAlpha="true"
         result="result0"
         bias="0" />
      <feColorMatrix
         id="feColorMatrix1740"
         result="result3"
         values="-0.15 -0.3 -0.05 0 1 -0.15 -0.3 -0.05 0 1 -0.15 -0.3 -0.05 0 1 0 0 0 1 0" />
    </filter>
    <filter
       id="filter1748"
       style="color-interpolation-filters:sRGB"
       inkscape:menu-tooltip="Detect color edges and retrace them in grayscale"
       inkscape:menu="Image Paint and Draw"
       inkscape:label="Pencil">
      <feConvolveMatrix
         id="feConvolveMatrix1744"
         order="3 3"
         kernelMatrix="1 1 1 1 -8 1 1 1 1"
         in="SourceGraphic"
         divisor="1"
         targetX="1"
         targetY="1"
         preserveAlpha="true"
         result="result0"
         bias="0" />
      <feColorMatrix
         id="feColorMatrix1746"
         result="result3"
         values="-0.15 -0.3 -0.05 0 1 -0.15 -0.3 -0.05 0 1 -0.15 -0.3 -0.05 0 1 0 0 0 1 0" />
    </filter>
    <filter
       id="filter1754"
       style="color-interpolation-filters:sRGB"
       inkscape:menu-tooltip="Detect color edges and retrace them in grayscale"
       inkscape:menu="Image Paint and Draw"
       inkscape:label="Pencil">
      <feConvolveMatrix
         id="feConvolveMatrix1750"
         order="3 3"
         kernelMatrix="1 1 1 1 -8 1 1 1 1"
         in="SourceGraphic"
         divisor="1"
         targetX="1"
         targetY="1"
         preserveAlpha="true"
         result="result0"
         bias="0" />
      <feColorMatrix
         id="feColorMatrix1752"
         result="result3"
         values="-0.15 -0.3 -0.05 0 1 -0.15 -0.3 -0.05 0 1 -0.15 -0.3 -0.05 0 1 0 0 0 1 0" />
    </filter>
    <filter
       id="filter1760"
       style="color-interpolation-filters:sRGB"
       inkscape:menu-tooltip="Detect color edges and retrace them in grayscale"
       inkscape:menu="Image Paint and Draw"
       inkscape:label="Pencil">
      <feConvolveMatrix
         id="feConvolveMatrix1756"
         order="3 3"
         kernelMatrix="1 1 1 1 -8 1 1 1 1"
         in="SourceGraphic"
         divisor="1"
         targetX="1"
         targetY="1"
         preserveAlpha="true"
         result="result0"
         bias="0" />
      <feColorMatrix
         id="feColorMatrix1758"
         result="result3"
         values="-0.15 -0.3 -0.05 0 1 -0.15 -0.3 -0.05 0 1 -0.15 -0.3 -0.05 0 1 0 0 0 1 0" />
    </filter>
  </defs>
  <sodipodi:namedview
     inkscape:window-maximized="0"
     inkscape:window-y="23"
     inkscape:window-x="0"
     inkscape:window-height="755"
     inkscape:window-width="1280"
     showguides="true"
     fit-margin-bottom="0"
     fit-margin-right="0"
     fit-margin-left="0"
     fit-margin-top="0"
     showgrid="false"
     inkscape:document-rotation="0"
     inkscape:current-layer="layer2"
     inkscape:document-units="mm"
     inkscape:cy="560"
     inkscape:cx="400"
     inkscape:zoom="0.35"
     inkscape:pageshadow="2"
     inkscape:pageopacity="0.0"
     borderopacity="1.0"
     bordercolor="#666666"
     pagecolor="#ffffff"
     id="base" />
  <metadata
     id="metadata5">
    <rdf:RDF>
      <cc:Work
         rdf:about="">
        <dc:format>image/svg+xml</dc:format>
        <dc:type
           rdf:resource="http://purl.org/dc/dcmitype/StillImage" />
        <dc:title />
      </cc:Work>
    </rdf:RDF>
  </metadata>
  <g
     transform="translate(-1282.8741,-1168.5966)"
     inkscape:groupmode="layer"
     id="layer2"
     inkscape:label="base">
    <path
       inkscape:connector-curvature="0"
       d="m 1283.2315,1168.7743 h 82.0491 c 0.099,0 0.1797,0.04 0.1797,0.089 v 20.8232 c 0,0.049 -0.081,0.089 -0.1797,0.089 h -82.0491 c -0.099,0 -0.1797,-0.04 -0.1797,-0.089 v -20.8232 c 0,-0.049 0.081,-0.089 0.1797,-0.089 z"
       style="fill:#feca37;fill-opacity:1;fill-rule:evenodd;stroke:#000000;stroke-width:0.355311;stroke-linecap:round;stroke-dashoffset:11.3386;stop-color:#000000"
       id="rect106" />
    <path
       d="m 1288.2727,1170.7875 h 71.7175 c 1.7521,0 3.1626,1.1721 3.1626,2.628 v 11.8492 c 0,1.4559 -1.4105,2.628 -3.1626,2.628 h -71.7175 c -1.7521,0 -3.1626,-1.1721 -3.1626,-2.628 v -11.8492 c 0,-1.4559 1.4105,-2.628 3.1626,-2.628 z"
       style="fill:#feca37;fill-rule:evenodd;stroke:#000000;stroke-width:1.5;stroke-linecap:round;stroke-dashoffset:11.3386;stop-color:#000000"
       id="rect90" />
    <path
       style="fill:#000000;stroke:none;stroke-width:0.264583px;stroke-linecap:butt;stroke-linejoin:miter;stroke-opacity:1"
       d="m 1289.9157,1180.5093 4.009,-6.4478 4.0758,6.8154 -3.1404,-1.2695 0.3341,4.9444 h -2.9399 l 0.4677,-4.8776 z"
       id="path92"
       inkscape:connector-curvature="0"
       sodipodi:nodetypes="cccccccc" />
    <path
       sodipodi:nodetypes="cccccccc"
       inkscape:connector-curvature="0"
       id="path92-8"
       d="m 1350.2281,1180.6243 4.009,-6.4478 4.0758,6.8154 -3.1404,-1.2695 0.3341,4.9444 h -2.9399 l 0.4677,-4.8776 z"
       style="fill:#000000;stroke:none;stroke-width:0.264583px;stroke-linecap:butt;stroke-linejoin:miter;stroke-opacity:1" />
  </g>
  <g
     style="display:inline"
     inkscape:label="flechas"
     id="layer3"
     inkscape:groupmode="layer"
     transform="translate(-521.23798,-132.78902)">
    <g
       style="font-style:normal;font-variant:normal;font-weight:900;font-stretch:normal;font-size:9.71747px;line-height:1.25;font-family:Transport;-inkscape-font-specification:'Transport Heavy';font-variant-ligatures:normal;font-variant-caps:normal;font-variant-numeric:normal;font-variant-east-asian:normal;stroke:#000000;stroke-width:0.465089"
       id="text110"
       aria-label="500  m"
       transform="translate(20.599702,39.309524)">
      <g
         style="font-style:normal;font-variant:normal;font-weight:900;font-stretch:normal;font-size:11.9717px;line-height:1.25;font-family:Transport;-inkscape-font-specification:'Transport Heavy';font-variant-ligatures:normal;font-variant-caps:normal;font-variant-numeric:normal;font-variant-east-asian:normal;stroke-width:0.0873315"
         id="text120"
         aria-label="1">
        <path
           id="path79"
           style="font-style:normal;font-variant:normal;font-weight:900;font-stretch:normal;font-size:11.9717px;font-family:Transport;-inkscape-font-specification:'Transport Heavy';font-variant-ligatures:normal;font-variant-caps:normal;font-variant-numeric:normal;font-variant-east-asian:normal;stroke-width:0.0873315"
           d="m 525.06046,100.02033 h 1.3094 v 8.93201 h -1.54322 v -6.3132 h -1.49647 v -1.21588 h 0.16368 l 0.0935,-0.0234 h 0.2572 l 0.11691,-0.0234 h 0.21044 q 0.23383,-0.0468 0.35074,-0.0468 0.11106,-0.0935 0.21044,-0.11691 0.33904,-0.49687 0.33904,-1.02297 0,-0.0468 -0.006,-0.0818 0,-0.0409 -0.006,-0.0877 z" />
      </g>
      <g
         style="font-style:normal;font-variant:normal;font-weight:900;font-stretch:normal;font-size:11.9717px;line-height:1.25;font-family:Transport;-inkscape-font-specification:'Transport Heavy';font-variant-ligatures:normal;font-variant-caps:normal;font-variant-numeric:normal;font-variant-east-asian:normal;display:inline;stroke:#000000;stroke-width:0.0873315"
         id="text120-6"
         aria-label=",">
        <path
           id="path82"
           style="font-style:normal;font-variant:normal;font-weight:900;font-stretch:normal;font-size:11.9717px;font-family:Transport;-inkscape-font-specification:'Transport Heavy';font-variant-ligatures:normal;font-variant-caps:normal;font-variant-numeric:normal;font-variant-east-asian:normal;stroke-width:0.0873315"
           d="m 530.07524,108.27849 q -0.0117,1.56661 -1.48477,1.56661 h -0.0818 v -0.0701 l -0.0234,-0.42088 q 0.46764,0 0.77161,-0.28059 0,-0.1286 -0.0468,-0.23382 -0.74823,-0.0877 -0.86514,-0.74823 0.0702,-0.63717 0.6547,-0.74823 0.96452,0.0117 1.07559,0.93529 z" />
      </g>
      <g
         style="font-style:normal;font-variant:normal;font-weight:900;font-stretch:normal;font-size:8.58212px;line-height:1.25;font-family:Transport;-inkscape-font-specification:'Transport Heavy';font-variant-ligatures:normal;font-variant-caps:normal;font-variant-numeric:normal;font-variant-east-asian:normal;display:inline;stroke:#000000;stroke-width:0.0626051"
         id="text120-9"
         aria-label="25">
        <path
           id="path85"
           style="font-style:normal;font-variant:normal;font-weight:900;font-stretch:normal;font-size:8.58212px;font-family:Transport;-inkscape-font-specification:'Transport Heavy';font-variant-ligatures:normal;font-variant-caps:normal;font-variant-numeric:normal;font-variant-east-asian:normal;stroke-width:0.0626051"
           d="m 535.55151,104.11721 q 0.0168,0.10895 0.0251,0.2179 0.008,0.10896 0.008,0.21372 0,0.44838 -0.15085,0.85905 l -0.0335,0.0503 -0.0168,0.0503 -0.0503,0.1341 -0.0335,0.0335 -0.15086,0.28495 -0.0503,0.0335 -0.0168,0.0503 -0.0335,0.0503 -0.0335,0.0335 -0.0335,0.0503 -0.15085,0.1341 q -0.0168,0.0293 -0.0335,0.0335 l -0.0168,0.0335 q -0.176,0.21372 -0.31848,0.31848 l -0.0335,0.0503 -0.0503,0.0335 q -0.0168,0.0293 -0.0335,0.0335 l -0.18438,0.20115 -0.0503,0.0168 q -0.0838,0.10476 -0.16762,0.15086 -0.0587,0.0712 -0.11733,0.10057 -0.0754,0.088 -0.15086,0.11733 l -0.0335,0.0503 -0.0503,0.0168 q -0.021,0.0293 -0.0503,0.0335 l -0.0335,0.0503 -0.15086,0.0838 q -0.0838,0.0712 -0.15504,0.1299 -0.0712,0.0545 -0.12991,0.088 h 2.51429 v 0.98896 h -4.25753 v -0.98896 l 0.067,-0.0503 0.352,-0.18438 0.0503,-0.0503 0.067,-0.0335 q 0.0796,-0.067 0.16762,-0.10057 l 0.0503,-0.0503 0.10057,-0.067 0.0335,-0.0335 0.0335,-0.0168 q 0.0419,-0.0293 0.0754,-0.0545 0.0335,-0.0251 0.0587,-0.0461 l 0.0503,-0.0168 q 0.0209,-0.0293 0.0503,-0.0335 l 0.0335,-0.0503 0.11733,-0.067 0.0168,-0.0335 0.0335,-0.0168 0.2179,-0.16762 0.0503,-0.0503 0.10057,-0.067 q 0.0168,-0.0293 0.0335,-0.0335 0.0168,-0.0168 0.0293,-0.0168 h 0.004 l 0.0335,-0.0503 q 0.12572,-0.0964 0.20114,-0.18438 1.09372,-0.80038 1.09372,-1.91086 0,-0.31429 -0.088,-0.65372 l -0.11733,-0.16762 q -0.38553,-0.31009 -0.78362,-0.31009 -0.24724,0 -0.50705,0.12571 -0.57829,0.27658 -0.57829,0.96801 0,0.14247 0.0251,0.3059 h -1.07276 q -0.004,-0.0503 -0.004,-0.0964 v -0.10057 q 0,-1.95277 1.94857,-2.18325 h 0.10896 q 1.91505,0 2.17067,1.76001 z" />
        <path
           id="path87"
           style="font-style:normal;font-variant:normal;font-weight:900;font-stretch:normal;font-size:8.58212px;font-family:Transport;-inkscape-font-specification:'Transport Heavy';font-variant-ligatures:normal;font-variant-caps:normal;font-variant-numeric:normal;font-variant-east-asian:normal;stroke-width:0.0626051"
           d="m 537.31151,102.44101 h 3.67087 v 0.98896 h -2.63162 l -0.067,0.0503 -0.0168,0.2179 q -0.0168,0.0461 -0.0168,0.10057 v 0.0335 q -0.0168,0.0503 -0.0251,0.0964 -0.004,0.0461 -0.008,0.088 l -0.0168,0.0671 -0.0335,0.28495 q -0.0168,0.0712 -0.0168,0.13409 l -0.0168,0.11734 q 0.51962,-0.25981 1.00572,-0.25981 0.37714,0 0.75429,0.15924 0.40647,0.16762 0.69143,0.42743 0.28495,0.25981 0.44838,0.62857 0.27657,0.56991 0.27657,1.13562 0,0.32686 -0.0922,0.64115 -0.23467,0.87162 -0.90515,1.29067 -0.66209,0.35619 -1.33257,0.35619 -0.28914,0 -0.59505,-0.0712 -1.12305,-0.29333 -1.52534,-1.29067 l -0.0168,-0.067 q -0.0419,-0.11314 -0.0503,-0.20114 l -0.0335,-0.10057 0.067,-0.0168 q 0.16343,-0.0712 0.28495,-0.0838 l 0.0503,-0.0335 h 0.0503 l 0.0503,-0.0335 h 0.067 q 0.021,-0.0168 0.0503,-0.0168 0.0209,-0.0168 0.0503,-0.0168 l 0.26819,-0.10057 0.11733,-0.0168 q 0.24724,1.04343 1.19848,1.04343 0.0712,0 0.14248,-0.004 0.0712,-0.008 0.15086,-0.0168 0.87581,-0.28915 0.88838,-1.13981 0.0126,-0.12153 0.0126,-0.22629 0,-0.45676 -0.23047,-0.81296 -0.42743,-0.45257 -0.9722,-0.45257 -0.0545,0 -0.10895,0.004 -0.0503,0.004 -0.10895,0.0126 -0.62858,0.0964 -0.87163,0.60343 l -0.28495,-0.0503 q -0.0503,-0.0168 -0.0964,-0.0209 -0.0461,-0.008 -0.088,-0.0126 l -0.0503,-0.0168 -0.18438,-0.0335 -0.10057,-0.0335 h -0.0503 q -0.067,-0.0168 -0.12153,-0.0209 -0.0545,-0.008 -0.0964,-0.0126 v -0.11733 l 0.0168,-0.0335 v -0.10057 q 0.0461,-0.17181 0.0503,-0.28495 l 0.0168,-0.1341 0.0168,-0.067 v -0.0838 q 0.0168,-0.0503 0.0209,-0.0964 0.008,-0.0461 0.0126,-0.088 l 0.0168,-0.0838 v -0.0503 l 0.0168,-0.11734 0.0168,-0.0503 0.067,-0.4861 0.0503,-0.352 0.0168,-0.067 v -0.067 l 0.0168,-0.0335 0.0335,-0.26819 0.0168,-0.067 0.0168,-0.2179 q 0.067,-0.264 0.067,-0.45258 z" />
      </g>
      <g
         style="font-style:normal;font-variant:normal;font-weight:900;font-stretch:normal;font-size:11.9717px;line-height:1.25;font-family:Transport;-inkscape-font-specification:'Transport Heavy';font-variant-ligatures:normal;font-variant-caps:normal;font-variant-numeric:normal;font-variant-east-asian:normal;display:inline;stroke:#000000;stroke-width:0.0873315"
         id="text120-8"
         aria-label="Km">
        <path
           id="path90"
           style="font-style:normal;font-variant:normal;font-weight:900;font-stretch:normal;font-size:11.9717px;font-family:Transport;-inkscape-font-specification:'Transport Heavy';font-variant-ligatures:normal;font-variant-caps:normal;font-variant-numeric:normal;font-variant-east-asian:normal;stroke-width:0.0873315"
           d="m 546.12563,99.956353 h 1.54323 v 3.974977 l 0.0935,-0.11691 0.14029,-0.14029 q 0.0234,-0.0409 0.0468,-0.0468 l 0.0234,-0.0468 0.0468,-0.0468 0.30397,-0.35073 0.11691,-0.11691 0.0234,-0.0702 0.1403,-0.11691 0.0234,-0.0468 0.2572,-0.30397 0.0935,-0.11691 0.25721,-0.28059 0.0935,-0.0935 0.0701,-0.11691 q 0.0643,-0.0818 0.12276,-0.13445 0.0643,-0.0585 0.11106,-0.0994 0.10522,-0.18706 0.23383,-0.28059 l 0.23382,-0.30397 0.0702,-0.0701 0.0701,-0.0935 0.18706,-0.18706 0.21044,-0.25721 0.0468,-0.0468 q 0.0234,-0.0409 0.0468,-0.0468 l 0.0234,-0.0468 0.0468,-0.0468 0.30396,-0.350737 h 1.80044 q -0.14614,0.251357 -0.32736,0.397497 -0.0468,0.0818 -0.11691,0.14029 l -0.0935,0.1403 -0.18705,0.18706 -0.1403,0.18705 -0.0468,0.0468 q -0.0409,0.0526 -0.0818,0.0935 -0.0409,0.0409 -0.0818,0.0701 -0.14029,0.23383 -0.30397,0.35074 l -0.0701,0.0935 -0.25721,0.32735 -0.0701,0.0701 q -0.0702,0.076 -0.12276,0.1403 -0.0526,0.0585 -0.0877,0.11691 l -0.0702,0.0468 -0.0702,0.0701 -0.0468,0.0935 -0.11691,0.11691 -0.0468,0.0701 -0.0468,0.0468 -0.0468,0.0701 -0.0701,0.0468 -0.0234,0.0468 -0.0468,0.0468 q -0.24551,0.31566 -0.42088,0.46764 0.1286,0.28059 0.23382,0.42089 l 0.0702,0.16367 q 0.0526,0.0526 0.0702,0.11691 l 0.0935,0.11691 0.0935,0.16368 0.0468,0.0935 0.0468,0.0701 0.0468,0.0935 0.0234,0.0701 0.0468,0.0234 0.0234,0.0935 q 0.0234,0.0175 0.0234,0.0351 v 0.0117 q 0.15783,0.16367 0.21044,0.35073 l 0.0935,0.16367 0.0468,0.0468 0.23382,0.3975 0.0935,0.16367 0.0701,0.16368 0.0935,0.11691 0.0234,0.0701 q 0.0585,0.076 0.0994,0.14613 0.0409,0.0701 0.0643,0.13445 l 0.0701,0.0935 0.0468,0.11691 0.0701,0.0935 0.16368,0.28059 0.0935,0.14029 0.0234,0.0935 0.0702,0.0935 0.0234,0.0701 q 0.0409,0.0292 0.0468,0.0701 l 0.0468,0.0935 q 0.11691,0.1286 0.16367,0.28059 0.14614,0.15198 0.18706,0.30397 l 0.0468,0.0468 0.23382,0.44426 h -1.73029 l -0.0701,-0.16367 -0.0702,-0.0701 -0.0468,-0.0935 -0.0935,-0.16367 -0.0234,-0.0701 -0.0468,-0.0468 -0.0234,-0.0468 q -0.0468,-0.0818 -0.0877,-0.14614 -0.0351,-0.0643 -0.076,-0.11106 l -0.0234,-0.0701 -0.0468,-0.0935 -0.0935,-0.14029 -0.0702,-0.1403 -0.0701,-0.11691 -0.0935,-0.14029 -0.0702,-0.11691 -0.0234,-0.0468 q -0.14614,-0.23382 -0.21044,-0.39749 -0.0526,-0.0643 -0.0702,-0.11691 -0.0117,-0.0117 -0.0175,-0.0175 -0.006,-0.0117 -0.006,-0.0234 v -0.006 q -0.18121,-0.23382 -0.25721,-0.42088 l -0.0234,-0.0701 q -0.15198,-0.18121 -0.21044,-0.30396 l -0.0234,-0.0935 -0.0468,-0.0701 -0.0701,-0.0935 -0.0234,-0.0701 -0.0935,-0.14029 -0.0234,-0.0701 -0.0468,-0.0468 -0.0234,-0.0468 -0.0234,-0.0701 -0.0468,-0.0234 q -0.0935,-0.2046 -0.18706,-0.35074 l -0.0468,0.0468 -0.0234,0.0468 q -0.0994,0.0818 -0.1403,0.16368 l -0.0701,0.0468 -0.21044,0.28059 -0.0935,0.0701 -0.0935,0.14029 -0.0702,0.0468 q -0.11691,0.18706 -0.23382,0.28059 -0.11107,0.15783 -0.23382,0.2572 v 2.82925 h -1.54323 z" />
        <path
           id="path93"
           style="font-style:normal;font-variant:normal;font-weight:900;font-stretch:normal;font-size:11.9717px;font-family:Transport;-inkscape-font-specification:'Transport Heavy';font-variant-ligatures:normal;font-variant-caps:normal;font-variant-numeric:normal;font-variant-east-asian:normal;stroke-width:0.0873315"
           d="m 558.6585,103.15972 q 0.81838,-0.78915 1.74198,-0.78915 0.22213,0 0.44426,0.0468 0.22213,0.0468 0.45595,0.13445 0.68393,0.28643 1.0522,0.84176 l 0.0234,0.0468 0.0468,0.1403 0.0234,0.0468 0.1403,0.44427 q 0.0117,0.13444 0.0175,0.25135 0.006,0.11692 0.006,0.21629 v 4.30233 h -1.40293 v -3.97498 l -0.0468,-0.3975 q -0.076,-0.1286 -0.0935,-0.2572 -0.34489,-0.55533 -0.81838,-0.55533 -0.28643,0 -0.63132,0.2046 -0.34488,0.2572 -0.49102,0.58455 l -0.0468,0.28059 v 4.11527 h -1.42631 v -4.13865 l -0.0234,-0.21044 -0.0468,-0.0935 v -0.0701 q -0.0585,-0.0935 -0.0994,-0.16952 -0.0409,-0.0818 -0.0643,-0.15783 -0.32735,-0.30982 -0.72484,-0.32735 -0.76577,0.10522 -1.09897,0.72485 l -0.0468,0.16367 -0.0234,0.25721 q 0.0175,0.0468 0.0234,0.0877 0.006,0.0351 0.006,0.076 0,0.0468 -0.006,0.0701 v 3.78792 h -1.4497 v -6.38335 h 1.4497 v 0.46765 q 0.64885,-0.48519 1.35617,-0.56118 h 0.0234 q 1.13404,0 1.73028,0.795 z" />
      </g>
    </g>
  </g>
</svg>
