<?xml version="1.0" encoding="UTF-8" standalone="no"?>
<svg
   xmlns:dc="http://purl.org/dc/elements/1.1/"
   xmlns:cc="http://creativecommons.org/ns#"
   xmlns:rdf="http://www.w3.org/1999/02/22-rdf-syntax-ns#"
   xmlns:svg="http://www.w3.org/2000/svg"
   xmlns="http://www.w3.org/2000/svg"
   xmlns:sodipodi="http://sodipodi.sourceforge.net/DTD/sodipodi-0.dtd"
   xmlns:inkscape="http://www.inkscape.org/namespaces/inkscape"
   version="1.1"
   id="Layer_1"
   x="0px"
   y="0px"
   width="769.688px"
   height="769.656px"
   viewBox="-360.791 -360.781 769.688 769.656"
   xml:space="preserve"
   inkscape:version="0.47 r22583"
   sodipodi:docname="Spain_traffic_signal_r301-140.svg"><metadata
   id="metadata17"><rdf:RDF><cc:Work
       rdf:about=""><dc:format>image/svg+xml</dc:format><dc:type
         rdf:resource="http://purl.org/dc/dcmitype/StillImage" /><dc:title></dc:title></cc:Work></rdf:RDF></metadata><defs
   id="defs15"><inkscape:perspective
     sodipodi:type="inkscape:persp3d"
     inkscape:vp_x="0 : 384.828 : 1"
     inkscape:vp_y="0 : 1000 : 0"
     inkscape:vp_z="769.68799 : 384.828 : 1"
     inkscape:persp3d-origin="384.84399 : 256.552 : 1"
     id="perspective19" /><inkscape:perspective
     id="perspective2831"
     inkscape:persp3d-origin="0.5 : 0.33333333 : 1"
     inkscape:vp_z="1 : 0.5 : 1"
     inkscape:vp_y="0 : 1000 : 0"
     inkscape:vp_x="0 : 0.5 : 1"
     sodipodi:type="inkscape:persp3d" /><inkscape:perspective
     id="perspective2831-7"
     inkscape:persp3d-origin="0.5 : 0.33333333 : 1"
     inkscape:vp_z="1 : 0.5 : 1"
     inkscape:vp_y="0 : 1000 : 0"
     inkscape:vp_x="0 : 0.5 : 1"
     sodipodi:type="inkscape:persp3d" /></defs><sodipodi:namedview
   pagecolor="#ffffff"
   bordercolor="#666666"
   borderopacity="1"
   objecttolerance="10"
   gridtolerance="10"
   guidetolerance="10"
   inkscape:pageopacity="0"
   inkscape:pageshadow="2"
   inkscape:window-width="1920"
   inkscape:window-height="1020"
   id="namedview13"
   showgrid="false"
   inkscape:zoom="0.60980766"
   inkscape:cx="143.49519"
   inkscape:cy="289.14353"
   inkscape:window-x="-4"
   inkscape:window-y="-4"
   inkscape:window-maximized="1"
   inkscape:current-layer="Layer_1" />
<path
   fill="#E41408"
   d="M-360.791,24.031c0-212.523,172.305-384.812,384.852-384.812c212.508,0,384.836,172.289,384.836,384.812  c0,212.531-172.328,384.844-384.836,384.844C-188.486,408.875-360.791,236.562-360.791,24.031"
   id="path3" />
<path
   fill="#FFFFFF"
   d="M-258.15,24.031c0-155.852,126.336-282.203,282.211-282.203c155.852,0,282.18,126.352,282.18,282.203  c0,155.875-126.328,282.188-282.18,282.188C-131.814,306.219-258.15,179.906-258.15,24.031"
   id="path5" />
<path
   fill-rule="evenodd"
   d="M-181.415,128.5h47.915V-75.371h-42.533v8.891c0,10.621-10.715,21.291-21.29,21.291h-17.734v40.708  h33.643V128.5"
   id="path7" />
<path
   fill-rule="evenodd"
   d="M261.186-18.972c-8.891-35.421-44.358-62.045-81.559-62.045c-37.246,0-70.889,26.624-81.58,62.045  c-5.264,24.799-5.264,63.824,0,88.623c10.691,35.421,44.334,61.999,81.58,61.999c37.2,0,72.668-26.578,81.559-61.999  C268.204,44.852,268.204,5.827,261.186-18.972z M216.827,53.742c-1.802,17.64-19.466,31.864-37.2,31.864  c-17.71,0-33.736-14.225-37.246-31.864c-1.754-15.957-1.754-40.755,0-56.758c3.51-17.781,19.536-31.912,37.246-31.912  c17.734,0,35.398,14.131,37.2,31.912C220.336,12.987,220.336,37.785,216.827,53.742z"
   id="path9" />

<path
   style="fill-rule:evenodd"
   d="m -93.860996,63.521175 c 1.72257,6.850449 5.08027,17.010997 6.78293,22.114643 6.80457,13.519986 20.30119,28.831792 33.88869,33.845412 20.36871,8.50636 50.8780501,8.50636 72.97192,1.74594 16.96599,-6.75956 32.1869,-22.0705 37.29055,-38.993205 1.65505,-6.804573 3.40185,-17.011864 3.40185,-22.023754 0,-8.50723 -3.40185,-16.967718 -5.10278,-23.817302 -5.14779,-6.760426 -13.58924,-11.86234 -20.37044,-15.220047 5.10365,-1.657646 11.86321,-6.760426 16.96772,-11.8649377 6.7587,-10.25230301 8.50463,-27.1291313 3.40272,-40.6941323 -5.14779,-18.666909 -23.72814,-37.290549 -42.39679,-42.395059 -16.9659799,-5.10364 -40.6924,-5.10364 -57.65925,0 -5.08027,1.74594 -11.8632,5.10365 -16.94521,6.76043 -17.011,10.20642 -30.50934,32.321933 -30.50934,52.602349 l 45.7995,5.0586343 c -1.74853,-8.4604873 3.35598,-18.6227703 11.86148,-22.0254893 8.50723,-5.103645 20.30292,-6.804572 28.8084201,-3.312695 8.50549,1.611769 15.22091,10.028109 15.22091,20.27955 -1.67842,5.0586343 -5.08028,10.1622803 -10.14064004,11.8640723 C -9.0250059,2.5492293 -22.612506,4.2492913 -32.820666,2.5492293 V 43.243359 c 8.45962,-1.745939 22.06963,-1.745939 28.8309201,0 8.46135,1.655915 15.2667899,6.759561 16.9659899,15.264194 1.7243,8.462218 -1.6992,16.922705 -8.5037699,20.324558 -5.06037004,3.402719 -11.86321,5.104512 -18.6461401,5.104512 -3.35944,0 -10.18651,-1.702658 -13.54249,-1.702658 -10.11727,-3.402719 -18.62277,-13.519121 -18.62277,-25.427339 l -47.52207,6.714549"
   id="path7-4" /></svg>